<?xml version="1.0" encoding="UTF-8" standalone="no"?>
<svg
   xmlns:dc="http://purl.org/dc/elements/1.1/"
   xmlns:cc="http://creativecommons.org/ns#"
   xmlns:rdf="http://www.w3.org/1999/02/22-rdf-syntax-ns#"
   xmlns:svg="http://www.w3.org/2000/svg"
   xmlns="http://www.w3.org/2000/svg"
   viewBox="0 0 49.526669 49.309334"
   height="49.309334"
   width="49.526669"
   xml:space="preserve"
   id="svg2"
   version="1.1"><metadata
     id="metadata8"><rdf:RDF><cc:Work
         rdf:about=""><dc:format>image/svg+xml</dc:format><dc:type
           rdf:resource="http://purl.org/dc/dcmitype/StillImage" /></cc:Work></rdf:RDF></metadata><defs
     id="defs6"><clipPath
       id="clipPath14"
       clipPathUnits="userSpaceOnUse"><path
         id="path12"
         d="M 0,0 H 612 V 792 H 0 Z" /></clipPath><clipPath
       id="clipPath96"
       clipPathUnits="userSpaceOnUse"><path
         style="clip-rule:evenodd"
         id="path94"
         d="M 69.96,684 H 108 V 646.02 H 69.96 Z" /></clipPath><clipPath
       id="clipPath104"
       clipPathUnits="userSpaceOnUse"><path
         id="path102"
         d="M 0,792.03 H 612 V 0.03 H 0 Z" /></clipPath><clipPath
       id="clipPath126"
       clipPathUnits="userSpaceOnUse"><path
         style="clip-rule:evenodd"
         id="path124"
         d="m 504,684 h 38.04 V 646.02 H 504 Z" /></clipPath><clipPath
       id="clipPath134"
       clipPathUnits="userSpaceOnUse"><path
         id="path132"
         d="M 0,792.03 H 612 V 0.03 H 0 Z" /></clipPath><clipPath
       id="clipPath152"
       clipPathUnits="userSpaceOnUse"><path
         style="clip-rule:evenodd"
         id="path150"
         d="m 508.56,679.44 h 28.8 v -28.8 h -28.8 z" /></clipPath><clipPath
       id="clipPath160"
       clipPathUnits="userSpaceOnUse"><path
         style="clip-rule:evenodd"
         id="path158"
         d="m 504,684 h 38.04 V 646.02 H 504 Z" /></clipPath><clipPath
       id="clipPath168"
       clipPathUnits="userSpaceOnUse"><path
         id="path166"
         d="M 0,792.03 H 612 V 0.03 H 0 Z" /></clipPath><clipPath
       id="clipPath186"
       clipPathUnits="userSpaceOnUse"><path
         style="clip-rule:evenodd"
         id="path184"
         d="m 504,684 h 38.04 V 646.02 H 504 Z" /></clipPath><clipPath
       id="clipPath194"
       clipPathUnits="userSpaceOnUse"><path
         id="path192"
         d="M 0,792.03 H 612 V 0.03 H 0 Z" /></clipPath><clipPath
       id="clipPath260"
       clipPathUnits="userSpaceOnUse"><path
         style="clip-rule:evenodd"
         id="path258"
         d="M 69.96,485.94 H 108 V 447.96 H 69.96 Z" /></clipPath><clipPath
       id="clipPath268"
       clipPathUnits="userSpaceOnUse"><path
         id="path266"
         d="M 0,792.03 H 612 V 0.03 H 0 Z" /></clipPath><clipPath
       id="clipPath290"
       clipPathUnits="userSpaceOnUse"><path
         style="clip-rule:evenodd"
         id="path288"
         d="m 504,485.94 h 38.04 V 447.96 H 504 Z" /></clipPath><clipPath
       id="clipPath298"
       clipPathUnits="userSpaceOnUse"><path
         id="path296"
         d="M 0,792.03 H 612 V 0.03 H 0 Z" /></clipPath><clipPath
       id="clipPath316"
       clipPathUnits="userSpaceOnUse"><path
         style="clip-rule:evenodd"
         id="path314"
         d="m 508.56,481.14 h 28.8 v -28.8 h -28.8 z" /></clipPath><clipPath
       id="clipPath324"
       clipPathUnits="userSpaceOnUse"><path
         style="clip-rule:evenodd"
         id="path322"
         d="m 504,485.94 h 38.04 V 447.96 H 504 Z" /></clipPath><clipPath
       id="clipPath332"
       clipPathUnits="userSpaceOnUse"><path
         id="path330"
         d="M 0,792.03 H 612 V 0.03 H 0 Z" /></clipPath><clipPath
       id="clipPath350"
       clipPathUnits="userSpaceOnUse"><path
         style="clip-rule:evenodd"
         id="path348"
         d="m 504,485.94 h 38.04 V 447.96 H 504 Z" /></clipPath><clipPath
       id="clipPath358"
       clipPathUnits="userSpaceOnUse"><path
         id="path356"
         d="M 0,792.03 H 612 V 0.03 H 0 Z" /></clipPath></defs><g
     clip-path="url(#clipPath14)"
     transform="matrix(1.3333333,0,0,-1.3333333,-672.50933,646.90933)"
     id="g10"><path
       id="path16"
       style="fill:#ffffff;fill-opacity:1;fill-rule:nonzero;stroke:none"
       d="m 72,711 h 468 v 9 H 72 Z" /><path
       id="path18"
       style="fill:#ffffff;fill-opacity:1;fill-rule:nonzero;stroke:none"
       d="m 72,126 h 468 v 9 H 72 Z" /><text
       id="text22"
       style="font-style:italic;font-variant:normal;font-weight:bold;font-stretch:normal;font-size:9px;font-family:'NewCenturySchlbk LT';-inkscape-font-specification:NewCenturySchlbkLT-BoldItalic;writing-mode:lr-tb;fill:#0000ff;fill-opacity:1;fill-rule:nonzero;stroke:none"
       transform="matrix(1,0,0,-1,303.48,129.0001)"><tspan
         id="tspan20"
         y="0"
         x="0">v</tspan></text>
<text
       id="text26"
       style="font-variant:normal;font-weight:bold;font-stretch:normal;font-size:15.96000004px;font-family:'Times LT Std';-inkscape-font-specification:TimesLTStd-Bold;writing-mode:lr-tb;fill:#0000ff;fill-opacity:1;fill-rule:nonzero;stroke:none"
       transform="matrix(1,0,0,-1,214.26,673.32)"><tspan
         id="tspan24"
         y="0"
         x="0 9.7627316 16.860144 23.957556 29.283407 37.274578 44.37199 57.677845 65.669014 74.553947 81.65136 88.748772 92.769096 105.19715 114.08208 119.40793 123.85599 137.23524 141.67532 148.77274 156.7639 162.08977 166.53781 174.52898">Performance Optimization</tspan></text>
<text
       id="text52"
       style="font-variant:normal;font-weight:normal;font-stretch:normal;font-size:9.96000004px;font-family:'Helvetica LT';-inkscape-font-specification:HelveticaLT;writing-mode:lr-tb;fill:#000000;fill-opacity:1;fill-rule:nonzero;stroke:none"
       transform="matrix(1,0,0,-1,171,648.36)"><tspan
         id="tspan28"
         y="0"
         x="0 7.7568479 13.302576 15.521664 21.067392 26.055361 28.832209 31.051296 36.091057 41.636784 46.624752 253.8047 259.35043 262.67508">Objectives 9-1</tspan><tspan
         id="tspan30"
         y="12.0018"
         x="0 6.1134481 11.63328 17.198929 22.764576 26.064323 31.072212 33.891888 39.41172 44.99131 50.511143 53.330818 60.002029 65.009918 70.575562 78.900131 84.419968 86.640045 92.205696 97.213585 253.81367 259.3793 262.67908">Theory and Examples 9-2</tspan><tspan
         id="tspan32"
         y="24.003599"
         x="36.005402 42.676609 45.437519 51.003166 56.568817 62.089645 67.655289 72.663177 75.424095 78.244766 85.463776 91.029419 96.037308 101.0452 106.61085 112.13168 114.95235 253.85052 259.41617 262.71692">Steepest Descent 9-2</tspan><tspan
         id="tspan34"
         y="36.005402"
         x="72.000839 78.675034 81.434952 87.003586 92.572227 94.814217 100.33405 103.09397 108.66261 114.23124 119.75108 123.09863 128.61845 130.86046 136.42909 141.99773 144.75764 151.97964 157.54828 160.3082 165.88779 170.89867 253.82063 259.38928 262.68903">Stable Learning Rates 9-6</tspan><tspan
         id="tspan36"
         y="48.007198"
         x="72.000839 80.3284 82.570389 88.090225 90.31031 98.637863 100.87986 105.89074 108.13273 113.70137 119.27 122.02992 128.70412 130.94611 136.51476 142.03458 147.60321 150.36313 155.93176 158.69168 164.26031 166.50232 172.02214 177.60175 253.86047 259.42911 262.72885">Minimizing Along a Line 9-8</tspan><tspan
         id="tspan38"
         y="60.008999"
         x="35.995441 43.216438 48.784081 56.005081 58.764996 64.332634 69.900276 72.141273 77.151154 79.911072 88.237633 93.805275 96.565186 102.08502 107.65266 113.2203 253.80072 259.36835 262.66812 268.23575">Newton’s Method 9-10</tspan><tspan
         id="tspan40"
         y="72.010803"
         x="35.995441 43.224407 48.800014 54.319847 56.539932 62.11554 67.691147 73.210983 76.017708 81.537537 84.297455 92.084183 95.438713 100.95854 106.53415 108.78312 114.30296 119.87856 122.63847 253.80072 259.37634 262.67609 268.25168">Conjugate Gradient 9-15</tspan><tspan
         id="tspan42"
         y="84.012604"
         x="-0.0099600004 6.66324 12.23088 20.510628 28.850136 34.417774 37.717525 42.727406 45.48732 51.007153 53.826828 56.586742 63.807743 69.375381 74.385262 79.952904 82.193901 84.953819 89.963699 253.82063 259.38828 262.68802 268.25568">Summary of Results 9-21</tspan><tspan
         id="tspan44"
         y="96.014397"
         x="-0.0099600004 6.6692162 12.242832 14.489808 19.505665 25.025496 30.605087 33.365005 40.044182 43.343929 48.917545 54.437374 56.684353 62.257969 70.590508 75.606361 253.87044 259.44406 262.7438 268.31741">Solved Problems 9-23</tspan><tspan
         id="tspan46"
         y="108.0162"
         x="-0.0099600004 6.6652322 12.234864 14.477856 16.720848 22.240681 27.810312 33.330143 38.899776 253.81964 259.38928 262.68903 268.25867">Epilogue 9-37</tspan><tspan
         id="tspan48"
         y="120.018"
         x="-0.0099600004 6.1134481 11.63328 14.987808 17.747725 23.323332 28.843164 32.197693 34.957607 42.186577 47.762184 53.337791 58.857624 61.10659 66.682198 72.202034 253.82063 259.39624 262.69598 268.27161">Further Reading 9-38</tspan><tspan
         id="tspan50"
         y="132.01981"
         x="-0.0099600004 6.6602521 11.667144 17.231796 20.531544 25.538437 27.776447 32.78334 38.347992 43.354885 253.83458 259.39923 262.69897 268.26364">Exercises 9-39</tspan></text>
<text
       id="text56"
       style="font-variant:normal;font-weight:bold;font-stretch:normal;font-size:15.96000004px;font-family:'Times LT Std';-inkscape-font-specification:TimesLTStd-Bold;writing-mode:lr-tb;fill:#0000ff;fill-opacity:1;fill-rule:nonzero;stroke:none"
       transform="matrix(1,0,0,-1,226.26,462.36)"><tspan
         id="tspan54"
         y="0"
         x="0 15.982344 20.441568 29.337671 36.446255 44.448601 55.994064 61.331089 73.770309 81.772659 87.10968 92.446701 96.40638 107.07404 114.18262 122.18497 129.29355 138.18967 142.64888 151.54498">Widrow-Hoff Learning</tspan></text>
<text
       id="text88"
       style="font-variant:normal;font-weight:normal;font-stretch:normal;font-size:9.96000004px;font-family:'Helvetica LT';-inkscape-font-specification:HelveticaLT;writing-mode:lr-tb;fill:#000000;fill-opacity:1;fill-rule:nonzero;stroke:none"
       transform="matrix(1,0,0,-1,171,437.34)"><tspan
         id="tspan58"
         y="0"
         x="0 7.7628241 13.314528 15.539592 21.091295 26.085239 28.868065 31.093128 36.133884 41.685589 46.679531 253.86047 259.41217 264.9639 268.29453">Objectives 10-1</tspan><tspan
         id="tspan60"
         y="12.0018"
         x="0 6.1154399 11.635272 17.202911 22.770552 26.070299 31.080179 33.899857 39.419689 44.999279 50.519112 53.338787 60.01199 65.021866 70.589508 78.916069 84.435898 86.655983 92.223625 97.233505 253.83359 259.40121 264.92105 268.26761">Theory and Examples 10-2</tspan><tspan
         id="tspan62"
         y="24.003599"
         x="36.005402 42.665653 49.873703 56.533955 62.08865 64.874458 72.1343 78.794556 81.554474 88.762527 94.317215 97.103027 104.31108 109.86577 113.19939 118.19632 253.80072 259.35541 264.9101 268.24371">ADALINE Network 10-2</tspan><tspan
         id="tspan64"
         y="36.005402"
         x="72.010803 78.671051 80.899101 86.453796 92.008492 94.236542 99.791229 102.55115 109.2114 116.47124 123.13149 128.68619 131.472 138.68005 145.3403 253.82063 259.37534 264.93002 268.26364">Single ADALINE 10-3</tspan><tspan
         id="tspan66"
         y="48.007198"
         x="36.015362 44.35487 49.874699 55.454292 61.033882 63.7938 70.431145 76.010735 81.542519 87.122108 90.432816 96.012405 98.772324 105.40967 108.76917 112.07988 117.65947 120.97018 253.81068 259.39026 264.9101 268.2706">Mean Square Error 10-4</tspan><tspan
         id="tspan68"
         y="60.008999"
         x="36.015362 41.571049 49.885654 56.546906 59.366581 66.027824 68.256874 73.812561 79.368256 82.702858 84.931908 87.718719 93.274406 101.58901 253.87044 259.42612 264.98181 268.31644">LMS Algorithm 10-7</tspan><tspan
         id="tspan70"
         y="72.010803"
         x="36.015362 42.653702 48.233292 53.766071 55.972214 61.011971 65.986992 68.19313 73.168152 75.92807 81.50766 84.271561 87.091232 94.277374 99.856972 105.38975 110.36477 115.94436 119.30486 124.83765 130.41724 135.95001 140.98978 146.52255 253.80072 259.38031 264.90015 268.26065">Analysis of Convergence 10-9</tspan><tspan
         id="tspan72"
         y="84.012604"
         x="36.015362 42.690552 48.260185 53.780018 59.359608 62.119522 64.339607 69.351479 74.921112 77.68103 83.798462 86.041451 88.284447 91.044357 96.613991 99.962547 102.12287 107.6925 113.26213 253.84056 259.41019 264.93002 268.27856 273.7984">Adaptive Filtering 10-13</tspan><tspan
         id="tspan74"
         y="96.014397"
         x="72.010803 78.650139 84.229729 89.763504 95.343094 98.107994 100.31512 105.29115 110.87074 113.63065 120.8905 126.41033 128.61746 133.65723 139.19099 141.95091 149.21075 154.73059 160.31018 165.28619 170.8658 173.07292 175.28006 180.81384 183.63351 185.85361 191.38737 196.96696 253.79076 259.37036 264.8902 268.2507 273.77051">Adaptive Noise Cancellation 10-15</tspan><tspan
         id="tspan76"
         y="108.0162"
         x="72.010803 78.685989 83.697861 89.267494 94.837128 97.597046 104.82004 110.38967 115.9095 120.94926 126.46909 128.71208 130.95508 136.5247 139.28462 141.50471 147.07434 152.59418 253.87044 259.44006 264.9599 268.30844 273.82828">Echo Cancellation 10-21</tspan><tspan
         id="tspan78"
         y="120.018"
         x="0.0099600004 6.66324 12.21096 20.517599 28.82424 34.37196 37.698601 42.738361 45.498276 51.045998 53.865673 56.625587 63.826668 69.37439 74.364349 79.912071 82.133148 84.911987 89.901947 253.76088 259.30859 264.85632 268.18295 273.73068">Summary of Results 10-22</tspan><tspan
         id="tspan80"
         y="132.01981"
         x="0.0099600004 6.66822 12.22092 14.44698 19.441919 24.994619 30.547319 33.307236 40.027248 43.326996 48.879696 54.432396 56.658455 62.211155 70.522774 75.517715 253.78081 259.3335 264.8862 268.21783 273.77051">Solved Problems 10-24</tspan><tspan
         id="tspan82"
         y="144.02161"
         x="0.0099600004 6.6861482 12.256776 14.500764 16.744753 22.264584 27.835213 33.355045 38.925671 253.84554 259.41617 264.936 268.28555 273.80539">Epilogue 10-40</tspan><tspan
         id="tspan84"
         y="156.02341"
         x="0.0099600004 6.133368 11.6532 15.007728 17.767645 23.343252 28.863085 32.217613 34.977528 42.206497 47.782104 53.357712 58.877544 61.126511 66.702118 72.221954 253.84056 259.41617 264.936 268.29053 273.81036">Further Reading 10-41</tspan><tspan
         id="tspan86"
         y="168.02521"
         x="0.0099600004 6.6642361 11.655192 17.203909 20.531544 25.571304 27.793381 32.784336 38.333054 43.324009 253.80371 259.35242 264.90115 268.22879 273.7775">Exercises 10-42</tspan></text>
<g
       id="g90"><g
         clip-path="url(#clipPath96)"
         id="g92"><g
           id="g98"><g
             clip-path="url(#clipPath104)"
             id="g100"><path
               id="path106"
               style="fill:#0000ff;fill-opacity:1;fill-rule:nonzero;stroke:none"
               d="m 70.98,647.04 h 36 v 36 h -36 z" /><path
               id="path108"
               style="fill:#0000ff;fill-opacity:1;fill-rule:nonzero;stroke:none"
               d="m 70.98,682.8 h 36.24 v 0.48 H 70.98 Z" /><path
               id="path110"
               style="fill:#0000ff;fill-opacity:1;fill-rule:nonzero;stroke:none"
               d="m 106.74,646.8 h 0.48 v 36.24 h -0.48 z" /><path
               id="path112"
               style="fill:#0000ff;fill-opacity:1;fill-rule:nonzero;stroke:none"
               d="m 70.74,646.8 h 36.24 v 0.48 H 70.74 Z" /><path
               id="path114"
               style="fill:#0000ff;fill-opacity:1;fill-rule:nonzero;stroke:none"
               d="m 70.74,647.04 h 0.48 v 36.24 h -0.48 z" /><text
               id="text118"
               style="font-variant:normal;font-weight:bold;font-stretch:normal;font-size:24px;font-family:'Times LT Std';-inkscape-font-specification:TimesLTStd-Bold;writing-mode:lr-tb;fill:#ffffff;fill-opacity:1;fill-rule:nonzero;stroke:none"
               transform="matrix(1,0,0,-1,82.2,658.02)"><tspan
                 id="tspan116"
                 y="0"
                 x="0">9</tspan></text>
</g></g></g></g><g
       id="g120"><g
         clip-path="url(#clipPath126)"
         id="g122"><g
           id="g128"><g
             clip-path="url(#clipPath134)"
             id="g130"><path
               id="path136"
               style="fill:#0000ff;fill-opacity:1;fill-rule:nonzero;stroke:none"
               d="m 504.96,647.04 h 36 v 36 h -36 z" /><path
               id="path138"
               style="fill:#0000ff;fill-opacity:1;fill-rule:nonzero;stroke:none"
               d="m 504.96,682.5 h 36.54 v 1.02 h -36.54 z" /><path
               id="path140"
               style="fill:#0000ff;fill-opacity:1;fill-rule:nonzero;stroke:none"
               d="m 540.48,646.5 h 1.02 v 36.54 h -1.02 z" /><path
               id="path142"
               style="fill:#0000ff;fill-opacity:1;fill-rule:nonzero;stroke:none"
               d="m 504.48,646.5 h 36.48 v 1.02 h -36.48 z" /><path
               id="path144"
               style="fill:#0000ff;fill-opacity:1;fill-rule:nonzero;stroke:none"
               d="m 504.48,647.04 h 1.02 v 36.48 h -1.02 z" /></g></g></g></g><g
       id="g146"><g
         clip-path="url(#clipPath152)"
         id="g148"><g
           id="g154"><g
             clip-path="url(#clipPath160)"
             id="g156"><g
               id="g162"><g
                 clip-path="url(#clipPath168)"
                 id="g164"><path
                   id="path170"
                   style="fill:#7e7e7e;fill-opacity:1;fill-rule:nonzero;stroke:none"
                   d="m 508.56,650.64 h 28.8 v 28.8 h -28.8 z" /><path
                   id="path172"
                   style="fill:#7e7e7e;fill-opacity:1;fill-rule:nonzero;stroke:none"
                   d="m 508.56,678.9 h 28.8 v 0.57 h -28.8 z" /><path
                   id="path174"
                   style="fill:#7e7e7e;fill-opacity:1;fill-rule:nonzero;stroke:none"
                   d="m 536.88,650.61 h 0.48 v 28.83 h -0.48 z" /><path
                   id="path176"
                   style="fill:#7e7e7e;fill-opacity:1;fill-rule:nonzero;stroke:none"
                   d="m 508.5,650.61 h 28.86 v 0.51 H 508.5 Z" /><path
                   id="path178"
                   style="fill:#7e7e7e;fill-opacity:1;fill-rule:nonzero;stroke:none"
                   d="m 508.5,650.64 h 0.6 v 28.83 h -0.6 z" /></g></g></g></g></g></g><g
       id="g180"><g
         clip-path="url(#clipPath186)"
         id="g182"><g
           id="g188"><g
             clip-path="url(#clipPath194)"
             id="g190"><path
               id="path196"
               style="fill:#0000ff;fill-opacity:1;fill-rule:nonzero;stroke:none"
               d="m 512.16,654.24 h 21.6 v 21.6 h -21.6 z" /><path
               id="path198"
               style="fill:#0000ff;fill-opacity:1;fill-rule:nonzero;stroke:none"
               d="m 512.16,675.3 h 22.14 v 1.02 h -22.14 z" /><path
               id="path200"
               style="fill:#0000ff;fill-opacity:1;fill-rule:nonzero;stroke:none"
               d="m 533.28,653.7 h 1.02 v 22.14 h -1.02 z" /><path
               id="path202"
               style="fill:#0000ff;fill-opacity:1;fill-rule:nonzero;stroke:none"
               d="m 511.68,653.7 h 22.08 v 1.02 h -22.08 z" /><path
               id="path204"
               style="fill:#0000ff;fill-opacity:1;fill-rule:nonzero;stroke:none"
               d="m 511.68,654.24 h 1.02 v 22.08 h -1.02 z" /><g
               transform="translate(529.20001,658.73999)"
               id="g206"><path
                 id="path208"
                 style="fill:#ffffff;fill-opacity:1;fill-rule:nonzero;stroke:none"
                 d="M 0,0 0.36,0.42 0.3,0.36 0.54,0.78 H 0.48 L 0.72,1.32 0.66,1.14 0.78,1.68 V 1.62 2.88 2.82 L 0.66,3.48 0.54,4.2 0.6,4.08 0.36,4.74 0.06,5.46 -0.3,6.24 -0.24,6.18 -0.66,6.9 V 6.78 l -0.48,0.72 -0.54,0.72 -0.6,0.72 h 0.06 l -1.32,1.32 V 10.2 l -0.72,0.6 -0.72,0.54 0.06,-0.06 -0.72,0.48 0.06,0.06 -0.72,0.42 v -0.06 l -0.78,0.36 -0.72,0.3 h 0.06 l -0.66,0.24 0.06,-0.06 -0.72,0.18 H -9 l -1.32,0.12 h 0.12 l -0.6,-0.06 v 0.06 l -0.54,-0.12 h 0.12 l -0.54,-0.18 h 0.12 l -0.42,-0.3 0.06,0.06 -0.42,-0.36 v 0.06 l -0.36,-0.42 h 0.06 l -0.3,-0.42 0.06,0.18 -0.12,-0.54 -0.06,0.06 -0.12,-0.54 0.06,0.06 -0.06,-0.6 v 0.06 L -13.2,9.66 -13.14,9 v 0.06 l 0.12,-0.72 V 8.4 l 0.24,-0.66 v 0.12 l -0.96,-0.42 -0.24,0.66 -0.18,0.72 c -0.144,1.291 -0.279,2.854 0.66,3.9 l 0.36,0.42 v 0.06 c 1.43,1.376 3.214,1.299 5.04,0.84 l 0.06,-0.06 0.66,-0.24 0.06,0.06 0.72,-0.3 0.78,-0.36 v -0.06 l 0.72,-0.42 0.06,-0.06 0.72,-0.48 0.72,-0.54 0.72,-0.6 h 0.06 L -1.5,9.66 V 9.6 L -0.9,8.88 -0.36,8.16 -0.3,8.1 0.18,7.38 0.6,6.66 H 0.66 L 1.02,5.88 1.32,5.16 V 5.04 L 1.56,4.38 V 4.32 L 1.68,3.6 1.8,2.94 V 1.62 C 1.8,0.972 1.474,0.408 1.14,-0.12 L 1.08,-0.24 0.72,-0.66" /></g><g
               transform="translate(516.41998,666.59998)"
               id="g210"><path
                 id="path212"
                 style="fill:#ffffff;fill-opacity:1;fill-rule:nonzero;stroke:none"
                 d="M 0,0 0.3,-0.72 0.66,-1.5 H 0.6 L 1.02,-2.22 1.5,-2.94 1.44,-2.88 1.98,-3.6 2.58,-4.32 v 0.06 L 3.9,-5.58 H 3.84 L 4.56,-6.18 5.28,-6.72 6,-7.2 5.94,-7.14 6.66,-7.56 7.38,-7.92 v 0.06 L 8.1,-8.16 H 7.98 L 8.7,-8.4 9.42,-8.58 H 9.36 l 0.66,-0.06 -0.06,0.06 h 1.2 l -0.12,-0.06 0.6,0.12 -0.12,-0.06 0.96,0.48 -0.12,-0.06 0.42,0.36 V -7.86 L 13.5,-8.52 V -8.58 L 13.08,-8.94 12,-9.48 H 11.82 L 11.22,-9.6 H 9.96 L 9.9,-9.66 9.24,-9.6 H 9.18 L 8.46,-9.42 8.4,-9.36 7.68,-9.12 H 7.62 L 6.9,-8.82 6.18,-8.46 V -8.4 L 5.46,-7.98 5.4,-8.04 4.68,-7.56 c -2.244,1.7 -4.229,3.797 -5.34,6.42 l -0.3,0.72" /></g><g
               transform="translate(523.85999,665.03998)"
               id="g214"><path
                 id="path216"
                 style="fill:#ffffff;fill-opacity:1;fill-rule:evenodd;stroke:none"
                 d="M 0,0 -0.06,0.3 -0.24,0.6 -0.54,0.78 -0.9,0.84 -1.2,0.78 -1.5,0.6 -1.68,0.3 -1.74,0 l 0.06,-0.36 0.18,-0.3 0.3,-0.18 0.3,-0.06 0.36,0.06 0.3,0.18 0.18,0.3 L 0,0" /></g><g
               transform="translate(523.73999,664.97998)"
               id="g218"><path
                 id="path220"
                 style="fill:#ffffff;fill-opacity:1;fill-rule:nonzero;stroke:none"
                 d="M 0,0 -0.06,0.3 H 0 L -0.18,0.6 V 0.54 l -0.3,0.18 h 0.06 l -0.36,0.06 h 0.06 L -1.02,0.72 -1.32,0.54 -1.26,0.6 -1.44,0.3 -1.5,0 v 0.06 l 0.06,-0.36 v 0.06 l 0.18,-0.3 h -0.06 l 0.3,-0.18 v 0.06 l 0.3,-0.06 h -0.06 l 0.36,0.06 -0.06,-0.06 0.3,0.18 L 0,-0.24 -0.06,-0.3 0,0.06 0.24,0 0.18,-0.36 0,-0.66 -0.06,-0.72 -0.36,-0.9 -0.72,-0.96 h -0.06 l -0.3,0.06 h -0.06 l -0.3,0.18 v 0.06 l -0.18,0.3 H -1.68 L -1.74,0 c 0.007,0.546 0.474,1.013 1.02,1.02 L -0.36,0.96 V 0.9 l 0.3,-0.18 H 0 L 0.18,0.42 V 0.36 l 0.06,-0.3" /></g><g
               transform="translate(523.73999,665.03998)"
               id="g222"><path
                 id="path224"
                 style="fill:#ffffff;fill-opacity:1;fill-rule:nonzero;stroke:none"
                 d="M 0,0 V -0.06 L 0.24,0 v -0.06" /></g><g
               transform="translate(511.85999,668.70001)"
               id="g226"><path
                 id="path228"
                 style="fill:#ffffff;fill-opacity:1;fill-rule:nonzero;stroke:none"
                 d="m 0,0 -0.18,-0.12 0.24,-0.42 0.18,0.12" /></g><g
               transform="translate(511.85999,668.70001)"
               id="g230"><path
                 id="path232"
                 style="fill:#ffffff;fill-opacity:1;fill-rule:nonzero;stroke:none"
                 d="m 0,0 0.9,0.6 c 2.372,1.39 4.412,1.023 6.48,-0.66 l 1.2,-1.08 -0.3,-0.36 -1.2,1.08 v -0.06 l -1.2,0.84 -0.6,0.3 H 5.34 L 4.68,0.84 H 4.74 L 4.08,0.96 H 3.42 3.48 L 2.76,0.84 1.92,0.6 H 1.98 L 1.14,0.18 0.24,-0.42" /></g><g
               transform="translate(520.44,667.56)"
               id="g234"><path
                 id="path236"
                 style="fill:#ffffff;fill-opacity:1;fill-rule:nonzero;stroke:none"
                 d="m 0,0 1.32,-1.2 -0.3,-0.36 -1.32,1.2" /></g><g
               transform="translate(523.26001,665.09998)"
               id="g238"><path
                 id="path240"
                 style="fill:#ffffff;fill-opacity:1;fill-rule:nonzero;stroke:none"
                 d="m 0,0 0.18,-0.12 -0.3,-0.36 -0.18,0.12" /></g><g
               transform="translate(521.76001,666.35999)"
               id="g242"><path
                 id="path244"
                 style="fill:#ffffff;fill-opacity:1;fill-rule:nonzero;stroke:none"
                 d="m 0,0 -0.3,-0.36 1.5,-1.26 0.3,0.36" /></g><g
               transform="translate(525.59998,662.21997)"
               id="g246"><path
                 id="path248"
                 style="fill:#ffffff;fill-opacity:1;fill-rule:nonzero;stroke:none"
                 d="M 0,0 0.12,0.18 H 0.06 L 0.18,0.42 0.3,0.66 V 0.48 L 0.36,0.72 V 0.66 1.2 1.08 L 0.24,1.68 V 1.62 L 0,2.28 0.06,2.22 -0.3,2.88 V 2.76 l -0.48,0.66 h 0.06 l -0.6,0.66 V 4.02 l -0.66,0.6 0.06,-0.06 -0.66,0.48 h 0.06 L -3.18,5.4 h 0.06 l -0.66,0.24 h 0.12 l -0.6,0.12 h 0.06 -0.54 0.06 L -4.98,5.7 h 0.12 L -5.04,5.64 h 0.06 L -5.22,5.52 -5.1,5.64 -5.46,5.28 -5.4,5.4 -5.52,5.16 -5.46,5.22 -5.58,4.74 V 4.92 4.38 4.44 l 0.12,-0.6 V 3.9 L -5.22,3.24 V 3.36 L -4.86,2.7 H -4.92 L -4.44,2.04 -4.5,2.1 -3.9,1.44 V 1.5 L -3.24,0.9 H -3.3 L -2.64,0.42 -2.7,0.48 -2.04,0.12 H -2.1 l 0.66,-0.24 -0.06,0.06 0.3,-0.06 -0.18,-0.96 -0.3,0.06 H -1.8 l -0.66,0.24 h -0.06 l -0.66,0.36 h -0.06 l -0.66,0.48 -0.06,0.06 -0.66,0.6 v 0.06 l -0.6,0.66 H -5.28 L -5.76,2.1 v 0.12 c -0.775,0.993 -1.329,3.456 0.06,4.2 l 0.24,0.12 0.12,0.06 C -3.646,7.349 -0.894,5.389 0,4.08 L 0.06,4.02 0.54,3.36 H 0.6 L 0.96,2.7 V 2.58 C 1.187,2.152 1.244,1.668 1.32,1.2 V 0.66 C 1.38,0.287 1.076,0.027 0.96,-0.3 V -0.42 L 0.84,-0.6" /></g><g
               transform="translate(524.40002,662.09998)"
               id="g250"><path
                 id="path252"
                 style="fill:#ffffff;fill-opacity:1;fill-rule:nonzero;stroke:none"
                 d="M 0,0 0.3,-0.06 0.18,0 H 0.72 L 0.6,-0.06 0.84,0 0.72,-0.06 1.08,0.12 1.32,0.18 1.08,0.06 1.26,0.24 1.2,0.12 2.04,-0.48 H 1.98 L 1.8,-0.66 1.56,-0.84 1.32,-0.9 1.44,-0.84 1.2,-0.96 1.08,-1.02 0.84,-1.08 0.72,-1.02 h -0.6 l -0.3,0.06" /></g></g></g></g></g><g
       id="g254"><g
         clip-path="url(#clipPath260)"
         id="g256"><g
           id="g262"><g
             clip-path="url(#clipPath268)"
             id="g264"><path
               id="path270"
               style="fill:#0000ff;fill-opacity:1;fill-rule:nonzero;stroke:none"
               d="m 70.98,448.98 h 36 v 36 h -36 z" /><path
               id="path272"
               style="fill:#0000ff;fill-opacity:1;fill-rule:nonzero;stroke:none"
               d="m 70.98,484.74 h 36.24 v 0.48 H 70.98 Z" /><path
               id="path274"
               style="fill:#0000ff;fill-opacity:1;fill-rule:nonzero;stroke:none"
               d="m 106.74,448.74 h 0.48 v 36.24 h -0.48 z" /><path
               id="path276"
               style="fill:#0000ff;fill-opacity:1;fill-rule:nonzero;stroke:none"
               d="m 70.74,448.74 h 36.24 v 0.48 H 70.74 Z" /><path
               id="path278"
               style="fill:#0000ff;fill-opacity:1;fill-rule:nonzero;stroke:none"
               d="m 70.74,448.98 h 0.48 v 36.24 h -0.48 z" /><text
               id="text282"
               style="font-variant:normal;font-weight:bold;font-stretch:normal;font-size:24px;font-family:'Times LT Std';-inkscape-font-specification:TimesLTStd-Bold;writing-mode:lr-tb;fill:#ffffff;fill-opacity:1;fill-rule:nonzero;stroke:none"
               transform="matrix(1,0,0,-1,76.26,459.96)"><tspan
                 id="tspan280"
                 y="0"
                 x="0 12">10</tspan></text>
</g></g></g></g><g
       id="g284"><g
         clip-path="url(#clipPath290)"
         id="g286"><g
           id="g292"><g
             clip-path="url(#clipPath298)"
             id="g294"><path
               id="path300"
               style="fill:#0000ff;fill-opacity:1;fill-rule:nonzero;stroke:none"
               d="m 504.96,448.74 h 36 v 36 h -36 z" /><path
               id="path302"
               style="fill:#0000ff;fill-opacity:1;fill-rule:nonzero;stroke:none"
               d="m 504.96,484.2 h 36.54 v 1.02 h -36.54 z" /><path
               id="path304"
               style="fill:#0000ff;fill-opacity:1;fill-rule:nonzero;stroke:none"
               d="m 540.48,448.2 h 1.02 v 36.54 h -1.02 z" /><path
               id="path306"
               style="fill:#0000ff;fill-opacity:1;fill-rule:nonzero;stroke:none"
               d="m 504.48,448.2 h 36.48 v 1.02 h -36.48 z" /><path
               id="path308"
               style="fill:#0000ff;fill-opacity:1;fill-rule:nonzero;stroke:none"
               d="m 504.48,448.74 h 1.02 v 36.48 h -1.02 z" /></g></g></g></g><g
       id="g310"><g
         clip-path="url(#clipPath316)"
         id="g312"><g
           id="g318"><g
             clip-path="url(#clipPath324)"
             id="g320"><g
               id="g326"><g
                 clip-path="url(#clipPath332)"
                 id="g328"><path
                   id="path334"
                   style="fill:#7e7e7e;fill-opacity:1;fill-rule:nonzero;stroke:none"
                   d="m 508.56,452.34 h 28.8 v 28.8 h -28.8 z" /><path
                   id="path336"
                   style="fill:#7e7e7e;fill-opacity:1;fill-rule:nonzero;stroke:none"
                   d="m 508.56,480.6 h 28.8 v 0.57 h -28.8 z" /><path
                   id="path338"
                   style="fill:#7e7e7e;fill-opacity:1;fill-rule:nonzero;stroke:none"
                   d="m 536.88,452.31 h 0.48 v 28.83 h -0.48 z" /><path
                   id="path340"
                   style="fill:#7e7e7e;fill-opacity:1;fill-rule:nonzero;stroke:none"
                   d="m 508.5,452.31 h 28.86 v 0.51 H 508.5 Z" /><path
                   id="path342"
                   style="fill:#7e7e7e;fill-opacity:1;fill-rule:nonzero;stroke:none"
                   d="m 508.5,452.34 h 0.6 v 28.83 h -0.6 z" /></g></g></g></g></g></g><g
       id="g344"><g
         clip-path="url(#clipPath350)"
         id="g346"><g
           id="g352"><g
             clip-path="url(#clipPath358)"
             id="g354"><path
               id="path360"
               style="fill:#0000ff;fill-opacity:1;fill-rule:nonzero;stroke:none"
               d="m 512.16,455.94 h 21.6 v 21.6 h -21.6 z" /><path
               id="path362"
               style="fill:#0000ff;fill-opacity:1;fill-rule:nonzero;stroke:none"
               d="m 512.16,477 h 22.14 v 1.02 h -22.14 z" /><path
               id="path364"
               style="fill:#0000ff;fill-opacity:1;fill-rule:nonzero;stroke:none"
               d="m 533.28,455.4 h 1.02 v 22.14 h -1.02 z" /><path
               id="path366"
               style="fill:#0000ff;fill-opacity:1;fill-rule:nonzero;stroke:none"
               d="m 511.68,455.4 h 22.08 v 1.02 h -22.08 z" /><path
               id="path368"
               style="fill:#0000ff;fill-opacity:1;fill-rule:nonzero;stroke:none"
               d="m 511.68,455.94 h 1.02 v 22.08 h -1.02 z" /><path
               id="path370"
               style="fill:#cccccc;fill-opacity:1;fill-rule:nonzero;stroke:none"
               d="m 514.02,466.2 h 0.48 v 1.02 h -0.48 z" /><path
               id="path372"
               style="fill:#cccccc;fill-opacity:1;fill-rule:nonzero;stroke:none"
               d="m 514.5,466.2 h 17.46 v 1.02 H 514.5 Z" /><g
               transform="translate(513.78003,467.10001)"
               id="g374"><path
                 id="path376"
                 style="fill:#ffffff;fill-opacity:1;fill-rule:nonzero;stroke:none"
                 d="m 0,0 -0.12,-0.84 1.74,-0.3 0.12,0.84" /></g><g
               transform="translate(513.78003,467.10001)"
               id="g378"><path
                 id="path380"
                 style="fill:#ffffff;fill-opacity:1;fill-rule:nonzero;stroke:none"
                 d="m 0,0 0.18,1.02 v 0.06 l 0.24,0.9 0.18,0.84 v 0.06 l 0.24,0.78 0.18,0.66 0.06,0.06 0.24,0.6 V 5.04 L 1.56,5.58 1.8,6.06 V 6 L 1.98,6.42 C 2.567,7.692 4.193,8.912 5.64,8.1 L 5.88,7.98 H 5.82 L 6.12,7.86 6.42,7.68 6.66,7.44 6.54,7.5 6.78,7.32 6.9,7.26 7.5,6.66 7.74,6.36 V 6.3 L 8.28,5.58 c 1.17,-1.51 2.154,-3.204 3.24,-4.8 l 1.08,-1.44 -0.06,0.12 0.36,-0.36 0.24,-0.3 -0.06,0.06 0.54,-0.54 -0.12,0.06 0.3,-0.24 0.24,-0.18 -0.18,0.12 0.3,-0.12 h 0.06 l -0.78,-1.56 0.06,-0.06 -0.3,0.12 c -0.472,0.294 -1.156,0.778 -1.44,1.26 l -0.24,0.3 0.06,-0.12 -0.3,0.3 -0.06,0.12 -1.08,1.44 -0.06,0.06 -0.54,0.84 V 0.6 L 9,1.38 V 1.44 L 7.92,3.12 V 3.06 L 7.38,3.84 H 7.44 L 6.36,5.28 6.12,5.58 6.18,5.46 5.64,6 5.76,5.94 5.52,6.12 5.4,6.18 5.16,6.42 5.46,6.24 5.16,6.36 5.1,6.42 4.62,6.66 4.8,6.6 4.56,6.66 4.74,6.6 H 4.5 L 4.68,6.66 4.38,6.6 H 4.44 L 4.2,6.54 4.5,6.66 4.02,6.3 4.14,6.36 3.9,6.12 3.96,6.24 3.72,5.94 V 6 L 3.48,5.64 3.6,5.76 3.42,5.34 3.36,5.28 3.12,4.8 3.18,4.86 2.94,4.32 2.7,3.72 V 3.84 L 2.52,3.18 V 3.12 L 2.28,2.34 V 2.46 L 2.1,1.62 V 1.56 L 1.86,0.66 1.92,0.72 1.74,-0.3" /></g><g
               transform="translate(528,465.06)"
               id="g382"><path
                 id="path384"
                 style="fill:#ffffff;fill-opacity:1;fill-rule:nonzero;stroke:none"
                 d="M 0,0 0.24,-0.12 0,-0.06 0.3,-0.12 H 0.36 L 0.6,-0.18 H 0.36 0.6 0.42 L 0.72,-0.12 0.54,-0.18 0.78,-0.06 0.66,-0.18 0.9,0 0.96,0.06 1.26,0.24 1.02,0.06 1.5,0.66 1.44,0.6 1.68,0.96 1.62,0.84 1.86,1.32 3.42,0.54 3.18,0.06 C 2.854,-0.399 2.614,-0.854 2.16,-1.26 L 1.86,-1.44 1.92,-1.38 1.68,-1.56 C 0.728,-2.022 0.429,-1.974 -0.54,-1.68 l -0.24,0.12" /></g><g
               transform="translate(530.09998,466.85999)"
               id="g386"><path
                 id="path388"
                 style="fill:#ffffff;fill-opacity:1;fill-rule:nonzero;stroke:none"
                 d="M 0,0 0.36,0.78 1.92,0 1.56,-0.78" /></g><g
               transform="translate(529.85999,466.38)"
               id="g390"><path
                 id="path392"
                 style="fill:#ffffff;fill-opacity:1;fill-rule:nonzero;stroke:none"
                 d="M 0,0 1.56,-0.78 1.8,-0.3 0.24,0.48" /></g></g></g></g></g></g></svg>