<?xml version="1.0" encoding="UTF-8" standalone="no"?>
<svg
   xmlns:dc="http://purl.org/dc/elements/1.1/"
   xmlns:cc="http://creativecommons.org/ns#"
   xmlns:rdf="http://www.w3.org/1999/02/22-rdf-syntax-ns#"
   xmlns:svg="http://www.w3.org/2000/svg"
   xmlns="http://www.w3.org/2000/svg"
   viewBox="0 0 49.599998 49.381332"
   height="49.381332"
   width="49.599998"
   xml:space="preserve"
   id="svg2"
   version="1.1"><metadata
     id="metadata8"><rdf:RDF><cc:Work
         rdf:about=""><dc:format>image/svg+xml</dc:format><dc:type
           rdf:resource="http://purl.org/dc/dcmitype/StillImage" /></cc:Work></rdf:RDF></metadata><defs
     id="defs6"><clipPath
       id="clipPath14"
       clipPathUnits="userSpaceOnUse"><path
         id="path12"
         d="M 0,0 H 612 V 792 H 0 Z" /></clipPath><clipPath
       id="clipPath116"
       clipPathUnits="userSpaceOnUse"><path
         style="clip-rule:evenodd"
         id="path114"
         d="M 69.96,684 H 108 V 646.02 H 69.96 Z" /></clipPath><clipPath
       id="clipPath124"
       clipPathUnits="userSpaceOnUse"><path
         id="path122"
         d="M 0,792.03 H 612 V 0.03 H 0 Z" /></clipPath><clipPath
       id="clipPath146"
       clipPathUnits="userSpaceOnUse"><path
         style="clip-rule:evenodd"
         id="path144"
         d="m 504,684 h 38.04 V 646.02 H 504 Z" /></clipPath><clipPath
       id="clipPath154"
       clipPathUnits="userSpaceOnUse"><path
         id="path152"
         d="M 0,792.03 H 612 V 0.03 H 0 Z" /></clipPath><clipPath
       id="clipPath172"
       clipPathUnits="userSpaceOnUse"><path
         style="clip-rule:evenodd"
         id="path170"
         d="m 508.62,679.44 h 28.8 v -28.8 h -28.8 z" /></clipPath><clipPath
       id="clipPath180"
       clipPathUnits="userSpaceOnUse"><path
         style="clip-rule:evenodd"
         id="path178"
         d="m 504,684 h 38.04 V 646.02 H 504 Z" /></clipPath><clipPath
       id="clipPath188"
       clipPathUnits="userSpaceOnUse"><path
         id="path186"
         d="M 0,792.03 H 612 V 0.03 H 0 Z" /></clipPath><clipPath
       id="clipPath206"
       clipPathUnits="userSpaceOnUse"><path
         style="clip-rule:evenodd"
         id="path204"
         d="m 504,684 h 38.04 V 646.02 H 504 Z" /></clipPath><clipPath
       id="clipPath214"
       clipPathUnits="userSpaceOnUse"><path
         id="path212"
         d="M 0,792.03 H 612 V 0.03 H 0 Z" /></clipPath><clipPath
       id="clipPath250"
       clipPathUnits="userSpaceOnUse"><path
         style="clip-rule:evenodd"
         id="path248"
         d="M 69.96,385.92 H 108 V 347.94 H 69.96 Z" /></clipPath><clipPath
       id="clipPath258"
       clipPathUnits="userSpaceOnUse"><path
         id="path256"
         d="M 0,792.03 H 612 V 0.03 H 0 Z" /></clipPath><clipPath
       id="clipPath280"
       clipPathUnits="userSpaceOnUse"><path
         style="clip-rule:evenodd"
         id="path278"
         d="m 504,385.92 h 38.04 V 347.94 H 504 Z" /></clipPath><clipPath
       id="clipPath288"
       clipPathUnits="userSpaceOnUse"><path
         id="path286"
         d="M 0,792.03 H 612 V 0.03 H 0 Z" /></clipPath><clipPath
       id="clipPath306"
       clipPathUnits="userSpaceOnUse"><path
         style="clip-rule:evenodd"
         id="path304"
         d="m 508.62,381.42 h 28.8 v -28.8 h -28.8 z" /></clipPath><clipPath
       id="clipPath314"
       clipPathUnits="userSpaceOnUse"><path
         style="clip-rule:evenodd"
         id="path312"
         d="m 504,385.92 h 38.04 V 347.94 H 504 Z" /></clipPath><clipPath
       id="clipPath322"
       clipPathUnits="userSpaceOnUse"><path
         id="path320"
         d="M 0,792.03 H 612 V 0.03 H 0 Z" /></clipPath><clipPath
       id="clipPath340"
       clipPathUnits="userSpaceOnUse"><path
         style="clip-rule:evenodd"
         id="path338"
         d="m 504,385.92 h 38.04 V 347.94 H 504 Z" /></clipPath><clipPath
       id="clipPath348"
       clipPathUnits="userSpaceOnUse"><path
         id="path346"
         d="M 0,792.03 H 612 V 0.03 H 0 Z" /></clipPath></defs><g
     clip-path="url(#clipPath14)"
     transform="matrix(1.3333333,0,0,-1.3333333,-672.65467,514.036)"
     id="g10"><path
       id="path16"
       style="fill:#ffffff;fill-opacity:1;fill-rule:nonzero;stroke:none"
       d="m 72,711 h 468 v 9 H 72 Z" /><path
       id="path18"
       style="fill:#ffffff;fill-opacity:1;fill-rule:nonzero;stroke:none"
       d="m 72,126 h 468 v 9 H 72 Z" /><text
       id="text22"
       style="font-style:italic;font-variant:normal;font-weight:bold;font-stretch:normal;font-size:9px;font-family:'NewCenturySchlbk LT';-inkscape-font-specification:NewCenturySchlbkLT-BoldItalic;writing-mode:lr-tb;fill:#0000ff;fill-opacity:1;fill-rule:nonzero;stroke:none"
       transform="matrix(1,0,0,-1,301.74,129.0001)"><tspan
         id="tspan20"
         y="0"
         x="0 4.9797001">vi</tspan></text>
<text
       id="text26"
       style="font-variant:normal;font-weight:bold;font-stretch:normal;font-size:15.96000004px;font-family:'Times LT Std';-inkscape-font-specification:TimesLTStd-Bold;writing-mode:lr-tb;fill:#0000ff;fill-opacity:1;fill-rule:nonzero;stroke:none"
       transform="matrix(1,0,0,-1,246.9,673.32)"><tspan
         id="tspan24"
         y="0"
         x="0 10.662876 18.660433 25.764229 34.655544 43.54686 50.650658 58.648212 67.539528 75.537086 83.534637 91.532196 96.864433 101.31887 109.31642">Backpropagation</tspan></text>
<text
       id="text70"
       style="font-variant:normal;font-weight:normal;font-stretch:normal;font-size:9.96000004px;font-family:'Helvetica LT';-inkscape-font-specification:HelveticaLT;writing-mode:lr-tb;fill:#000000;fill-opacity:1;fill-rule:nonzero;stroke:none"
       transform="matrix(1,0,0,-1,171,648.36)"><tspan
         id="tspan28"
         y="0"
         x="0 7.7618279 13.312536 15.536604 21.087313 26.080259 28.862087 31.086157 36.125916 41.676624 46.669571 253.84952 259.40024 264.95093 268.28058">Objectives 11-1</tspan><tspan
         id="tspan30"
         y="12.0018"
         x="0 6.1154399 11.635272 17.202911 22.770552 26.070299 31.080179 33.899857 39.419689 44.999279 50.519112 53.338787 60.01199 65.021866 70.589508 78.916069 84.435898 86.655983 92.223625 97.233505 253.83359 259.40121 264.92105 268.26761">Theory and Examples 11-2</tspan><tspan
         id="tspan32"
         y="24.003599"
         x="36.005402 44.333954 49.853783 52.096775 54.89753 57.140518 59.383511 64.903343 69.915215 75.484848 78.833397 81.593315 88.268509 93.838142 97.137886 102.11789 107.68752 113.25715 116.01707 119.31682 124.88645 130.45609 135.46796 253.85052 259.42017 264.93997 268.28854">Multilayer Perceptrons 11-2</tspan><tspan
         id="tspan34"
         y="36.005402"
         x="72.010803 78.651131 84.230721 86.996613 89.762505 95.342102 98.655792 104.23538 106.9953 114.25514 116.47523 122.01 126.98701 132.02678 134.24686 137.01274 139.22089 144.19789 149.77748 152.54338 154.75151 160.3311 165.85094 253.81068 259.39026 264.9101 268.2706">Pattern Classification 11-3</tspan><tspan
         id="tspan36"
         y="48.007198"
         x="72.010803 78.128235 83.648064 89.217697 94.229568 97.030319 99.273315 104.79314 110.37273 113.13265 119.80785 125.37748 130.89731 134.25682 139.82645 144.83832 147.08131 155.40987 160.9297 163.68961 165.9326 171.50224 177.07187 253.87044 259.44006 264.9599 268.30844">Function Approximation 11-4</tspan><tspan
         id="tspan38"
         y="60.008999"
         x="36.005402 42.12582 47.645653 53.225243 55.985161 62.623501 68.203094 73.178108 78.217873 83.750648 87.111153 92.643936 98.223526 103.75631 109.3359 114.91549 117.67939 119.88553 125.46513 130.99791 133.81758 140.45592 142.66206 148.19484 153.77443 157.08614 159.29227 162.11195 167.63177 175.97128 253.79076 259.37036 264.8902 268.2507">The Backpropagation Algorithm 11-7</tspan><tspan
         id="tspan40"
         y="72.010803"
         x="72.010803 78.684998 84.253632 87.553383 90.313293 95.881935 99.229485 107.50924 113.07787 118.64651 123.65739 129.17722 131.99689 134.75681 140.3364 145.85623 151.43582 156.4467 253.8306 259.39923 264.91907 268.26663">Performance Index 11-8</tspan><tspan
         id="tspan42"
         y="84.012604"
         x="72.010803 79.225822 84.787491 90.349152 92.584175 98.145844 100.90575 108.1656 113.68543 115.92046 121.48212 253.84056 259.40222 264.9639 268.30447">Chain Rule 11-9</tspan><tspan
         id="tspan44"
         y="96.014397"
         x="72.010803 78.682007 84.247658 89.255547 94.263435 99.829079 103.12883 108.69447 114.26012 119.77995 125.3456 130.86543 133.6622 135.90121 141.42105 147.00064 149.76056 152.55733 158.07715 163.64281 166.40271 173.07393 178.63957 184.15941 189.19916 191.43817 194.19809 196.4371 201.44498 203.68399 206.48076 208.71977 214.23959 219.24748 253.86745 259.43311 264.95294 268.29749 273.81732">Backpropagating the Sensitivities 11-11</tspan><tspan
         id="tspan46"
         y="108.0162"
         x="72.010803 78.697945 84.279526 92.559273 100.89978 106.48136 109.78111 114.80494 253.82463 259.40622 264.92603 268.28653 273.80637">Summary 11-13</tspan><tspan
         id="tspan48"
         y="120.018"
         x="36.005402 42.684574 47.700432 53.274048 61.606583 67.126419 69.346497 74.920113 253.84056 259.41418 264.93402 268.28653 273.80637">Example 11-14</tspan><tspan
         id="tspan50"
         y="132.01981"
         x="36.005402 42.687565 48.264168 51.024082 56.004086 61.580688 64.340607 69.359451 74.378288 77.138206 79.898125 82.705849 88.225677 93.244522 96.544273 102.12087 110.40063 115.97723 121.55383 124.31375 129.89035 132.14032 134.90024 141.02464 144.32439 149.90099 152.15096 157.67079 159.89087 165.46747 171.04408 253.85052 259.42712 264.94696 268.30249 273.82233">Batch vs. Incremental Training 11-17</tspan><tspan
         id="tspan52"
         y="144.02161"
         x="36.005402 43.227394 48.238274 50.480267 56.048904 61.617538 64.377457 71.051651 76.620285 81.631165 86.642036 92.210678 95.510422 101.07906 106.6477 112.16753 117.73616 123.256 126.05576 128.29774 133.81758 139.39717 253.8804 259.44904 264.96887 268.31644 273.83624">Using Backpropagation 11-18</tspan><tspan
         id="tspan54"
         y="156.02341"
         x="72.010803 79.199928 84.779518 90.315285 92.524414 97.564178 103.08401 105.90369 111.43945 114.25912 117.01904 124.20818 129.78777 132.55466 139.74377 145.32338 148.62312 153.66289 156.43176 163.08603 166.41367 171.40463 176.95334 179.17542 181.95526 187.50397 192.54373 195.32356 200.87228 204.19992 209.74864 253.78877 259.33749 264.8862 268.21384 273.76254">Choice of Network Architecture 11-18</tspan><tspan
         id="tspan56"
         y="168.02521"
         x="72.010803 79.237778 84.811394 90.331223 95.370987 100.89082 104.25032 109.77016 115.34377 120.91739 125.93324 131.50687 253.84654 259.42017 264.93997 268.29251 273.81235">Convergence 11-20</tspan><tspan
         id="tspan58"
         y="180.02699"
         x="72.010803 79.796532 85.31636 90.890976 96.410805 99.764343 105.28417 107.53214 109.78011 114.79697 120.3168 123.13647 125.38445 130.90428 136.4789 253.83856 259.41318 264.93301 268.28653 273.80637">Generalization 11-22</tspan><tspan
         id="tspan60"
         y="192.02879"
         x="0.0099600004 6.66324 12.21096 20.517599 28.82424 34.37196 37.698601 42.738361 45.498276 51.045998 53.865673 56.625587 63.826668 69.37439 74.364349 79.912071 82.133148 84.911987 89.901947 253.76088 259.30859 264.85632 268.18295 273.73068">Summary of Results 11-25</tspan><tspan
         id="tspan62"
         y="204.03059"
         x="0.0099600004 6.66822 12.22092 14.44698 19.441919 24.994619 30.547319 33.307236 40.027248 43.326996 48.879696 54.432396 56.658455 62.211155 70.522774 75.517715 253.78081 259.3335 264.8862 268.21783 273.77051">Solved Problems 11-27</tspan><tspan
         id="tspan64"
         y="216.03239"
         x="0.0099600004 6.6861482 12.256776 14.500764 16.744753 22.264584 27.835213 33.355045 38.925671 253.84554 259.41617 264.936 268.28555 273.80539">Epilogue 11-41</tspan><tspan
         id="tspan66"
         y="228.03419"
         x="0.0099600004 6.133368 11.6532 15.007728 17.767645 23.343252 28.863085 32.217613 34.977528 42.206497 47.782104 53.357712 58.877544 61.126511 66.702118 72.221954 253.84056 259.41617 264.936 268.29053 273.81036">Further Reading 11-42</tspan><tspan
         id="tspan68"
         y="240.036"
         x="0.0099600004 6.6642361 11.655192 17.203909 20.531544 25.571304 27.793381 32.784336 38.333054 43.324009 253.80371 259.35242 264.90115 268.22879 273.7775">Exercises 11-44</tspan></text>
<text
       id="text74"
       style="font-variant:normal;font-weight:bold;font-stretch:normal;font-size:15.96000004px;font-family:'Times LT Std';-inkscape-font-specification:TimesLTStd-Bold;writing-mode:lr-tb;fill:#0000ff;fill-opacity:1;fill-rule:nonzero;stroke:none"
       transform="matrix(1,0,0,-1,198.48,362.34)"><tspan
         id="tspan72"
         y="0"
         x="0 11.540676 19.538233 26.642029 31.096464 39.094021 44.426254 48.880692 56.878246 65.769562 71.99556 75.985558 83.983116 92.874435 96.864433 107.52731 115.52486 122.62866 131.51997 140.41129 147.51509 155.51265 164.40396 172.40152 180.39908 188.39662 193.72887 198.1833 206.18086">Variations on Backpropagation</tspan></text>
<text
       id="text108"
       style="font-variant:normal;font-weight:normal;font-stretch:normal;font-size:9.96000004px;font-family:'Helvetica LT';-inkscape-font-specification:HelveticaLT;writing-mode:lr-tb;fill:#000000;fill-opacity:1;fill-rule:nonzero;stroke:none"
       transform="matrix(1,0,0,-1,171,337.32)"><tspan
         id="tspan76"
         y="0"
         x="0 7.7618279 13.312536 15.536604 21.087313 26.080259 28.862087 31.086157 36.125916 41.676624 46.669571 253.84952 259.40024 264.95093 268.28058">Objectives 12-1</tspan><tspan
         id="tspan78"
         y="12.0018"
         x="0 6.1154399 11.635272 17.202911 22.770552 26.070299 31.080179 33.899857 39.419689 44.999279 50.519112 53.338787 60.01199 65.021866 70.589508 78.916069 84.435898 86.655983 92.223625 97.233505 253.83359 259.40121 264.92105 268.26761">Theory and Examples 12-2</tspan><tspan
         id="tspan80"
         y="24.003599"
         x="36.005402 43.229389 46.578938 52.098766 59.358612 64.878441 70.458038 75.470901 80.483772 85.496643 88.256554 93.827187 96.587097 99.347015 106.0232 111.59383 116.6067 121.61957 127.19019 130.53975 136.05957 141.6302 147.15004 152.72066 158.29129 161.05121 163.2952 168.86583 174.38565 253.8804 259.45102 264.97086 268.3204">Drawbacks of Backpropagation 12-3</tspan><tspan
         id="tspan82"
         y="36.005402"
         x="72.000839 78.677025 84.247658 87.547401 90.30732 95.877945 99.227493 107.50724 113.07787 118.6485 123.66137 129.1812 132.00087 138.67706 144.1969 147.54645 150.30637 155.87698 160.88986 166.46048 169.2204 175.89659 180.90945 186.48009 194.80963 200.32947 202.54955 208.12018 253.84056 259.41119 264.93103 268.28058">Performance Surface Example 12-3</tspan><tspan
         id="tspan84"
         y="48.007198"
         x="72.000839 79.225822 84.797447 90.317284 95.35704 100.87687 104.23638 109.75621 115.32784 120.89946 125.91332 131.48495 134.24486 140.92204 145.93591 151.50754 159.83807 165.35791 167.578 173.14961 253.85052 259.42215 264.94199 268.29251">Convergence Example 12-7</tspan><tspan
         id="tspan86"
         y="60.008999"
         x="36.005402 43.23138 48.804001 54.323833 57.683338 59.929321 64.944183 67.704094 69.924179 74.939041 77.699951 86.031494 91.551323 97.123947 99.369926 102.12984 104.34992 109.36478 114.88461 117.68835 119.93433 125.45417 131.03375 136.04861 138.80952 144.38216 147.14207 149.96274 156.64091 162.16075 167.17561 172.19048 177.76309 181.06284 186.63547 192.15529 197.72791 203.24774 208.82036 211.58028 213.82626 219.39888 224.9715 253.89235 259.46497 264.9848 268.33633">Heuristic Modifications of Backpropagation 12-9</tspan><tspan
         id="tspan88"
         y="72.010803"
         x="72.010803 80.351303 85.87114 94.210648 99.790237 105.31007 108.12975 113.64957 121.98908 253.80869 259.38828 264.90811 268.26862">Momentum 12-9</tspan><tspan
         id="tspan90"
         y="84.012604"
         x="72.010803 78.691971 84.267578 87.567322 89.787407 95.363014 100.88285 103.13181 108.70742 111.46734 117.04295 122.56278 128.13838 131.49292 137.01274 139.23283 144.80844 150.32828 153.14795 160.37692 165.95253 168.71243 174.28806 253.85052 259.42612 264.94595 268.30048 273.82031">Variable Learning Rate 12-12</tspan><tspan
         id="tspan92"
         y="96.014397"
         x="36.005402 43.228394 48.798023 57.126575 62.646408 65.994957 68.237953 73.249825 78.819458 81.062447 83.822365 91.562279 97.141869 99.901787 102.12187 110.45042 112.69341 117.70529 123.27492 126.03484 128.25491 133.82455 139.39418 142.1541 148.27153 153.79137 158.80324 164.32307 169.8927 172.1357 177.65552 183.22516 188.79478 193.80666 253.87044 259.44006 264.9599 268.30844 273.82828">Numerical Optimization Techniques 12-14</tspan><tspan
         id="tspan94"
         y="108.0162"
         x="72.010803 79.239769 84.815376 90.335205 92.55529 98.130898 103.7065 109.22634 112.03307 117.5529 120.37257 128.11249 131.47299 136.99283 142.56844 144.8174 150.33723 155.91284 158.67276 253.84056 259.41617 264.936 268.29053 273.81036">Conjugate Gradient 12-14</tspan><tspan
         id="tspan96"
         y="120.018"
         x="72.010803 77.586411 83.106239 88.124084 93.699699 99.275307 104.79514 110.37074 113.67049 119.2461 122.54585 130.88037 136.45598 139.75574 145.33134 150.90695 156.42677 159.78131 165.30115 168.10786 170.86778 177.54895 179.79791 185.37354 190.89336 194.24789 196.49686 199.25677 204.83238 213.11212 253.85251 259.42813 264.94794 268.30249 273.82233">Levenberg-Marquardt Algorithm 12-19</tspan><tspan
         id="tspan98"
         y="132.01981"
         x="0.0099600004 6.66324 12.21096 20.517599 28.82424 34.37196 37.698601 42.738361 45.498276 51.045998 53.865673 56.625587 63.826668 69.37439 74.364349 79.912071 82.133148 84.911987 89.901947 253.76088 259.30859 264.85632 268.18295 273.73068">Summary of Results 12-28</tspan><tspan
         id="tspan100"
         y="144.02161"
         x="0.0099600004 6.66822 12.22092 14.44698 19.441919 24.994619 30.547319 33.307236 40.027248 43.326996 48.879696 54.432396 56.658455 62.211155 70.522774 75.517715 253.78081 259.3335 264.8862 268.21783 273.77051">Solved Problems 12-32</tspan><tspan
         id="tspan102"
         y="156.02341"
         x="0.0099600004 6.6861482 12.256776 14.500764 16.744753 22.264584 27.835213 33.355045 38.925671 253.84554 259.41617 264.936 268.28555 273.80539">Epilogue 12-46</tspan><tspan
         id="tspan104"
         y="168.02521"
         x="0.0099600004 6.133368 11.6532 15.007728 17.767645 23.343252 28.863085 32.217613 34.977528 42.206497 47.782104 53.357712 58.877544 61.126511 66.702118 72.221954 253.84056 259.41617 264.936 268.29053 273.81036">Further Reading 12-47</tspan><tspan
         id="tspan106"
         y="180.02699"
         x="0.0099600004 6.6642361 11.655192 17.203909 20.531544 25.571304 27.793381 32.784336 38.333054 43.324009 253.80371 259.35242 264.90115 268.22879 273.7775">Exercises 12-50</tspan></text>
<g
       id="g110"><g
         clip-path="url(#clipPath116)"
         id="g112"><g
           id="g118"><g
             clip-path="url(#clipPath124)"
             id="g120"><path
               id="path126"
               style="fill:#0000ff;fill-opacity:1;fill-rule:nonzero;stroke:none"
               d="m 70.98,647.04 h 36 v 36 h -36 z" /><path
               id="path128"
               style="fill:#0000ff;fill-opacity:1;fill-rule:nonzero;stroke:none"
               d="m 70.98,682.8 h 36.24 v 0.48 H 70.98 Z" /><path
               id="path130"
               style="fill:#0000ff;fill-opacity:1;fill-rule:nonzero;stroke:none"
               d="m 106.74,646.8 h 0.48 v 36.24 h -0.48 z" /><path
               id="path132"
               style="fill:#0000ff;fill-opacity:1;fill-rule:nonzero;stroke:none"
               d="m 70.74,646.8 h 36.24 v 0.48 H 70.74 Z" /><path
               id="path134"
               style="fill:#0000ff;fill-opacity:1;fill-rule:nonzero;stroke:none"
               d="m 70.74,647.04 h 0.48 v 36.24 h -0.48 z" /><text
               id="text138"
               style="font-variant:normal;font-weight:bold;font-stretch:normal;font-size:24px;font-family:'Times LT Std';-inkscape-font-specification:TimesLTStd-Bold;writing-mode:lr-tb;fill:#ffffff;fill-opacity:1;fill-rule:nonzero;stroke:none"
               transform="matrix(1,0,0,-1,76.26,658.02)"><tspan
                 id="tspan136"
                 y="0"
                 x="0 12">11</tspan></text>
</g></g></g></g><g
       id="g140"><g
         clip-path="url(#clipPath146)"
         id="g142"><g
           id="g148"><g
             clip-path="url(#clipPath154)"
             id="g150"><path
               id="path156"
               style="fill:#0000ff;fill-opacity:1;fill-rule:nonzero;stroke:none"
               d="m 504.96,647.04 h 36 v 36 h -36 z" /><path
               id="path158"
               style="fill:#0000ff;fill-opacity:1;fill-rule:nonzero;stroke:none"
               d="m 504.96,682.5 h 36.54 v 1.02 h -36.54 z" /><path
               id="path160"
               style="fill:#0000ff;fill-opacity:1;fill-rule:nonzero;stroke:none"
               d="m 540.48,646.5 h 1.02 v 36.54 h -1.02 z" /><path
               id="path162"
               style="fill:#0000ff;fill-opacity:1;fill-rule:nonzero;stroke:none"
               d="m 504.48,646.5 h 36.48 v 1.02 h -36.48 z" /><path
               id="path164"
               style="fill:#0000ff;fill-opacity:1;fill-rule:nonzero;stroke:none"
               d="m 504.48,647.04 h 1.02 v 36.48 h -1.02 z" /></g></g></g></g><g
       id="g166"><g
         clip-path="url(#clipPath172)"
         id="g168"><g
           id="g174"><g
             clip-path="url(#clipPath180)"
             id="g176"><g
               id="g182"><g
                 clip-path="url(#clipPath188)"
                 id="g184"><path
                   id="path190"
                   style="fill:#7e7e7e;fill-opacity:1;fill-rule:nonzero;stroke:none"
                   d="m 508.62,650.64 h 28.8 v 28.8 h -28.8 z" /><path
                   id="path192"
                   style="fill:#7e7e7e;fill-opacity:1;fill-rule:nonzero;stroke:none"
                   d="m 508.62,678.9 h 28.8 v 0.57 h -28.8 z" /><path
                   id="path194"
                   style="fill:#7e7e7e;fill-opacity:1;fill-rule:nonzero;stroke:none"
                   d="m 536.94,650.61 h 0.48 v 28.83 h -0.48 z" /><path
                   id="path196"
                   style="fill:#7e7e7e;fill-opacity:1;fill-rule:nonzero;stroke:none"
                   d="m 508.56,650.61 h 28.86 v 0.51 h -28.86 z" /><path
                   id="path198"
                   style="fill:#7e7e7e;fill-opacity:1;fill-rule:nonzero;stroke:none"
                   d="m 508.56,650.64 h 0.6 v 28.83 h -0.6 z" /></g></g></g></g></g></g><g
       id="g200"><g
         clip-path="url(#clipPath206)"
         id="g202"><g
           id="g208"><g
             clip-path="url(#clipPath214)"
             id="g210"><path
               id="path216"
               style="fill:#0000ff;fill-opacity:1;fill-rule:nonzero;stroke:none"
               d="m 512.22,654.24 h 21.6 v 21.6 h -21.6 z" /><path
               id="path218"
               style="fill:#0000ff;fill-opacity:1;fill-rule:nonzero;stroke:none"
               d="m 512.22,675.3 h 22.14 v 1.02 h -22.14 z" /><path
               id="path220"
               style="fill:#0000ff;fill-opacity:1;fill-rule:nonzero;stroke:none"
               d="m 533.34,653.7 h 1.02 v 22.14 h -1.02 z" /><path
               id="path222"
               style="fill:#0000ff;fill-opacity:1;fill-rule:nonzero;stroke:none"
               d="m 511.74,653.7 h 22.08 v 1.02 h -22.08 z" /><path
               id="path224"
               style="fill:#0000ff;fill-opacity:1;fill-rule:nonzero;stroke:none"
               d="m 511.74,654.24 h 1.02 v 22.08 h -1.02 z" /><path
               id="path226"
               style="fill:#cccccc;fill-opacity:1;fill-rule:nonzero;stroke:none"
               d="m 513,664.5 h 0.48 v 1.02 H 513 Z" /><path
               id="path228"
               style="fill:#cccccc;fill-opacity:1;fill-rule:nonzero;stroke:none"
               d="m 513.48,664.5 h 19.68 v 1.02 h -19.68 z" /><g
               transform="translate(513.23999,656.58002)"
               id="g230"><path
                 id="path232"
                 style="fill:#ffffff;fill-opacity:1;fill-rule:nonzero;stroke:none"
                 d="M 0,0 H -0.96 L -0.9,-1.98 H 0.06" /></g><g
               transform="translate(513.23999,656.58002)"
               id="g234"><path
                 id="path236"
                 style="fill:#ffffff;fill-opacity:1;fill-rule:nonzero;stroke:none"
                 d="M 0,0 2.04,0.06 H 3 2.88 L 3.78,0.18 4.26,0.24 4.68,0.3 5.04,0.36 H 4.92 L 5.34,0.48 5.28,0.42 5.64,0.54 H 5.52 L 6.24,0.9 6.18,0.84 6.48,1.02 6.36,0.96 6.96,1.44 6.9,1.32 7.2,1.62 7.08,1.56 7.32,1.86 V 1.8 L 7.56,2.16 7.5,2.1 7.74,2.52 7.68,2.4 7.86,2.82 8.22,3.78 8.16,3.6 8.4,4.8 8.52,5.4 V 5.28 L 8.58,6 8.64,6.72 8.7,7.5 V 7.44 9.18 L 8.76,9.96 V 9.9 10.74 l 0.12,0.72 V 11.4 L 8.94,12 v 0.18 l 0.18,0.6 v -0.06 l 0.12,0.54 0.06,0.12 0.18,0.54 v 0.06 l 0.18,0.48 0.18,0.42 0.06,0.12 0.24,0.42 0.06,0.06 0.24,0.36 v 0.06 l 0.24,0.3 0.12,0.06 0.3,0.3 1.38,-1.38 -0.3,-0.3 0.06,0.06 -0.24,-0.3 0.06,0.12 -0.24,-0.36 0.06,0.06 -0.24,-0.42 v 0.06 l -0.18,-0.42 0.06,0.06 -0.18,-0.48 v 0.06 l -0.18,-0.54 v 0.06 L 11.04,12.3 v -0.06 l -0.18,-0.6 0.06,0.18 -0.06,-0.6 V 11.16 L 10.74,10.44 V 10.62 9.78 L 10.68,9 V 9.12 8.28 C 10.538,2.501 9.497,-1.617 3,-1.92 H 2.04 2.1 L 0.06,-1.98" /></g><g
               transform="translate(524.34003,673.14001)"
               id="g238"><path
                 id="path240"
                 style="fill:#ffffff;fill-opacity:1;fill-rule:nonzero;stroke:none"
                 d="m 0,0 0.3,0.3 0.06,0.12 0.3,0.24 0.18,0.12 1.08,0.54 H 2.04 L 2.4,1.44 2.46,1.5 3.3,1.74 H 3.42 L 3.84,1.8 H 3.72 L 4.14,1.92 H 4.32 L 6.24,2.04 7.26,2.1 H 7.32 V 0.12 H 7.38 L 6.36,0.06 4.44,-0.06 4.68,0 4.26,-0.12 4.14,-0.18 3.72,-0.24 3.84,-0.18 3,-0.42 2.64,-0.54 l 0.18,0.06 -1.08,-0.54 0.18,0.12 -0.3,-0.24 0.06,0.06 -0.3,-0.3" /></g><path
               id="path242"
               style="fill:#ffffff;fill-opacity:1;fill-rule:nonzero;stroke:none"
               d="m 531.66,673.26 h 2.04 v 1.98 h -2.04 z" /></g></g></g></g><g
       id="g244"><g
         clip-path="url(#clipPath250)"
         id="g246"><g
           id="g252"><g
             clip-path="url(#clipPath258)"
             id="g254"><path
               id="path260"
               style="fill:#0000ff;fill-opacity:1;fill-rule:nonzero;stroke:none"
               d="m 70.98,348.96 h 36 v 36 h -36 z" /><path
               id="path262"
               style="fill:#0000ff;fill-opacity:1;fill-rule:nonzero;stroke:none"
               d="m 70.98,384.72 h 36.24 v 0.48 H 70.98 Z" /><path
               id="path264"
               style="fill:#0000ff;fill-opacity:1;fill-rule:nonzero;stroke:none"
               d="m 106.74,348.72 h 0.48 v 36.24 h -0.48 z" /><path
               id="path266"
               style="fill:#0000ff;fill-opacity:1;fill-rule:nonzero;stroke:none"
               d="m 70.74,348.72 h 36.24 v 0.48 H 70.74 Z" /><path
               id="path268"
               style="fill:#0000ff;fill-opacity:1;fill-rule:nonzero;stroke:none"
               d="m 70.74,348.96 h 0.48 v 36.24 h -0.48 z" /><text
               id="text272"
               style="font-variant:normal;font-weight:bold;font-stretch:normal;font-size:24px;font-family:'Times LT Std';-inkscape-font-specification:TimesLTStd-Bold;writing-mode:lr-tb;fill:#ffffff;fill-opacity:1;fill-rule:nonzero;stroke:none"
               transform="matrix(1,0,0,-1,76.26,359.94)"><tspan
                 id="tspan270"
                 y="0"
                 x="0 12">12</tspan></text>
</g></g></g></g><g
       id="g274"><g
         clip-path="url(#clipPath280)"
         id="g276"><g
           id="g282"><g
             clip-path="url(#clipPath288)"
             id="g284"><path
               id="path290"
               style="fill:#0000ff;fill-opacity:1;fill-rule:nonzero;stroke:none"
               d="m 504.96,349.02 h 36 v 36 h -36 z" /><path
               id="path292"
               style="fill:#0000ff;fill-opacity:1;fill-rule:nonzero;stroke:none"
               d="m 504.96,384.48 h 36.54 v 1.02 h -36.54 z" /><path
               id="path294"
               style="fill:#0000ff;fill-opacity:1;fill-rule:nonzero;stroke:none"
               d="m 540.48,348.48 h 1.02 v 36.54 h -1.02 z" /><path
               id="path296"
               style="fill:#0000ff;fill-opacity:1;fill-rule:nonzero;stroke:none"
               d="m 504.48,348.48 h 36.48 v 1.02 h -36.48 z" /><path
               id="path298"
               style="fill:#0000ff;fill-opacity:1;fill-rule:nonzero;stroke:none"
               d="m 504.48,349.02 h 1.02 v 36.48 h -1.02 z" /></g></g></g></g><g
       id="g300"><g
         clip-path="url(#clipPath306)"
         id="g302"><g
           id="g308"><g
             clip-path="url(#clipPath314)"
             id="g310"><g
               id="g316"><g
                 clip-path="url(#clipPath322)"
                 id="g318"><path
                   id="path324"
                   style="fill:#7e7e7e;fill-opacity:1;fill-rule:nonzero;stroke:none"
                   d="m 508.62,352.62 h 28.8 v 28.8 h -28.8 z" /><path
                   id="path326"
                   style="fill:#7e7e7e;fill-opacity:1;fill-rule:nonzero;stroke:none"
                   d="m 508.62,380.88 h 28.8 v 0.57 h -28.8 z" /><path
                   id="path328"
                   style="fill:#7e7e7e;fill-opacity:1;fill-rule:nonzero;stroke:none"
                   d="m 536.94,352.59 h 0.48 v 28.83 h -0.48 z" /><path
                   id="path330"
                   style="fill:#7e7e7e;fill-opacity:1;fill-rule:nonzero;stroke:none"
                   d="m 508.56,352.59 h 28.86 v 0.51 h -28.86 z" /><path
                   id="path332"
                   style="fill:#7e7e7e;fill-opacity:1;fill-rule:nonzero;stroke:none"
                   d="m 508.56,352.62 h 0.6 v 28.83 h -0.6 z" /></g></g></g></g></g></g><g
       id="g334"><g
         clip-path="url(#clipPath340)"
         id="g336"><g
           id="g342"><g
             clip-path="url(#clipPath348)"
             id="g344"><path
               id="path350"
               style="fill:#0000ff;fill-opacity:1;fill-rule:nonzero;stroke:none"
               d="m 512.22,356.22 h 21.6 v 21.6 h -21.6 z" /><path
               id="path352"
               style="fill:#0000ff;fill-opacity:1;fill-rule:nonzero;stroke:none"
               d="m 512.22,377.28 h 22.14 v 1.02 h -22.14 z" /><path
               id="path354"
               style="fill:#0000ff;fill-opacity:1;fill-rule:nonzero;stroke:none"
               d="m 533.34,355.68 h 1.02 v 22.14 h -1.02 z" /><path
               id="path356"
               style="fill:#0000ff;fill-opacity:1;fill-rule:nonzero;stroke:none"
               d="m 511.74,355.68 h 22.08 v 1.02 h -22.08 z" /><path
               id="path358"
               style="fill:#0000ff;fill-opacity:1;fill-rule:nonzero;stroke:none"
               d="m 511.74,356.22 h 1.02 v 22.08 h -1.02 z" /><g
               transform="translate(514.14001,372.89999)"
               id="g360"><path
                 id="path362"
                 style="fill:#ffffff;fill-opacity:1;fill-rule:evenodd;stroke:none"
                 d="M 0,0 3.24,2.82 6.72,-5.4 8.88,-2.52 16.74,-15 8.88,-6.9 7.02,-9.3" /></g><g
               transform="translate(514.08002,372.95999)"
               id="g364"><path
                 id="path366"
                 style="fill:#ffffff;fill-opacity:1;fill-rule:nonzero;stroke:none"
                 d="M 0,0 3.24,2.82 3.36,2.94 3.42,2.82 6.9,-5.4 V -5.52 L 6.72,-5.4 8.88,-2.52 9,-2.4 9.06,-2.52 16.92,-15 16.74,-15.18 8.88,-7.08 V -6.9 L 9.06,-7.02 7.2,-9.42 7.14,-9.54 7.02,-9.42 V -9.3 L 8.88,-6.9 9,-6.78 9.06,-6.9 16.92,-15 16.74,-15.12 8.88,-2.64 9.06,-2.52 V -2.64 L 6.9,-5.52 6.78,-5.7 6.66,-5.52 3.18,2.7 3.42,2.82 V 2.64 L 0.18,-0.18" /></g><g
               transform="translate(521.09998,363.54001)"
               id="g368"><path
                 id="path370"
                 style="fill:#ffffff;fill-opacity:1;fill-rule:nonzero;stroke:none"
                 d="m 0,0 -7.02,9.3 -0.06,0.06 0.06,0.06 h 0.18 l 7.02,-9.3" /></g></g></g></g></g></g></svg>