<?xml version="1.0" encoding="UTF-8"?>
<svg xmlns="http://www.w3.org/2000/svg" xmlns:xlink="http://www.w3.org/1999/xlink" width="38.072pt" height="37.909pt" viewBox="0 0 38.072 37.909" version="1.1">
<defs>
<clipPath id="clip1">
  <path d="M 0.0546875 0 L 38.070312 0 L 38.070312 37.910156 L 0.0546875 37.910156 Z M 0.0546875 0 "/>
</clipPath>
<clipPath id="clip2">
  <path d="M 0.0546875 0 L 38.070312 0 L 38.070312 1 L 0.0546875 1 Z M 0.0546875 0 "/>
</clipPath>
<clipPath id="clip3">
  <path d="M 37 0 L 38.070312 0 L 38.070312 37.910156 L 37 37.910156 Z M 37 0 "/>
</clipPath>
<clipPath id="clip4">
  <path d="M 0.0546875 37 L 38.070312 37 L 38.070312 37.910156 L 0.0546875 37.910156 Z M 0.0546875 37 "/>
</clipPath>
<clipPath id="clip5">
  <path d="M 0.0546875 0 L 1 0 L 1 37.910156 L 0.0546875 37.910156 Z M 0.0546875 0 "/>
</clipPath>
<clipPath id="clip6">
  <path d="M 5.152344 5.101562 L 33.953125 5.101562 L 33.953125 33.898438 L 5.152344 33.898438 Z M 5.152344 5.101562 "/>
</clipPath>
<clipPath id="clip7">
  <path d="M 5.152344 5.101562 L 33.953125 5.101562 L 33.953125 6 L 5.152344 6 Z M 5.152344 5.101562 "/>
</clipPath>
<clipPath id="clip8">
  <path d="M 33 5.101562 L 33.953125 5.101562 L 33.953125 33.898438 L 33 33.898438 Z M 33 5.101562 "/>
</clipPath>
<clipPath id="clip9">
  <path d="M 5.152344 33 L 33.953125 33 L 33.953125 33.898438 L 5.152344 33.898438 Z M 5.152344 33 "/>
</clipPath>
<clipPath id="clip10">
  <path d="M 5.152344 5.101562 L 6 5.101562 L 6 33.898438 L 5.152344 33.898438 Z M 5.152344 5.101562 "/>
</clipPath>
</defs>
<g id="surface1">
<g clip-path="url(#clip1)" clip-rule="nonzero">
<path style=" stroke:none;fill-rule:nonzero;fill:rgb(0%,0%,100%);fill-opacity:1;" d="M 0.0546875 37.980469 L 38.09375 37.980469 L 38.09375 0 L 0.0546875 0 Z M 0.0546875 37.980469 "/>
</g>
<g clip-path="url(#clip2)" clip-rule="nonzero">
<path style=" stroke:none;fill-rule:nonzero;fill:rgb(0%,0%,100%);fill-opacity:1;" d="M 0.0546875 0.539062 L 38.09375 0.539062 L 38.09375 -0.03125 L 0.0546875 -0.03125 Z M 0.0546875 0.539062 "/>
</g>
<g clip-path="url(#clip3)" clip-rule="nonzero">
<path style=" stroke:none;fill-rule:nonzero;fill:rgb(0%,0%,100%);fill-opacity:1;" d="M 37.613281 38.011719 L 38.09375 38.011719 L 38.09375 0 L 37.613281 0 Z M 37.613281 38.011719 "/>
</g>
<g clip-path="url(#clip4)" clip-rule="nonzero">
<path style=" stroke:none;fill-rule:nonzero;fill:rgb(0%,0%,100%);fill-opacity:1;" d="M -0.0078125 38.011719 L 38.09375 38.011719 L 38.09375 37.5 L -0.0078125 37.5 Z M -0.0078125 38.011719 "/>
</g>
<g clip-path="url(#clip5)" clip-rule="nonzero">
<path style=" stroke:none;fill-rule:nonzero;fill:rgb(0%,0%,100%);fill-opacity:1;" d="M -0.0078125 37.980469 L 0.59375 37.980469 L 0.59375 -0.03125 L -0.0078125 -0.03125 Z M -0.0078125 37.980469 "/>
</g>
<g clip-path="url(#clip6)" clip-rule="nonzero">
<path style=" stroke:none;fill-rule:nonzero;fill:rgb(49.598694%,49.598694%,49.598694%);fill-opacity:1;" d="M 5.152344 33.898438 L 33.953125 33.898438 L 33.953125 5.101562 L 5.152344 5.101562 Z M 5.152344 33.898438 "/>
</g>
<g clip-path="url(#clip7)" clip-rule="nonzero">
<path style=" stroke:none;fill-rule:nonzero;fill:rgb(49.598694%,49.598694%,49.598694%);fill-opacity:1;" d="M 5.152344 5.640625 L 33.953125 5.640625 L 33.953125 5.070312 L 5.152344 5.070312 Z M 5.152344 5.640625 "/>
</g>
<g clip-path="url(#clip8)" clip-rule="nonzero">
<path style=" stroke:none;fill-rule:nonzero;fill:rgb(49.598694%,49.598694%,49.598694%);fill-opacity:1;" d="M 33.472656 33.929688 L 33.953125 33.929688 L 33.953125 5.101562 L 33.472656 5.101562 Z M 33.472656 33.929688 "/>
</g>
<g clip-path="url(#clip9)" clip-rule="nonzero">
<path style=" stroke:none;fill-rule:nonzero;fill:rgb(49.598694%,49.598694%,49.598694%);fill-opacity:1;" d="M 5.09375 33.929688 L 33.953125 33.929688 L 33.953125 33.421875 L 5.09375 33.421875 Z M 5.09375 33.929688 "/>
</g>
<g clip-path="url(#clip10)" clip-rule="nonzero">
<path style=" stroke:none;fill-rule:nonzero;fill:rgb(49.598694%,49.598694%,49.598694%);fill-opacity:1;" d="M 5.09375 33.898438 L 5.695312 33.898438 L 5.695312 5.070312 L 5.09375 5.070312 Z M 5.09375 33.898438 "/>
</g>
<path style=" stroke:none;fill-rule:nonzero;fill:rgb(0%,0%,100%);fill-opacity:1;" d="M 8.753906 30.300781 L 30.355469 30.300781 L 30.355469 8.699219 L 8.753906 8.699219 Z M 8.753906 30.300781 "/>
<path style=" stroke:none;fill-rule:nonzero;fill:rgb(0%,0%,100%);fill-opacity:1;" d="M 8.753906 9.238281 L 30.894531 9.238281 L 30.894531 8.21875 L 8.753906 8.21875 Z M 8.753906 9.238281 "/>
<path style=" stroke:none;fill-rule:nonzero;fill:rgb(0%,0%,100%);fill-opacity:1;" d="M 29.875 30.839844 L 30.894531 30.839844 L 30.894531 8.699219 L 29.875 8.699219 Z M 29.875 30.839844 "/>
<path style=" stroke:none;fill-rule:nonzero;fill:rgb(0%,0%,100%);fill-opacity:1;" d="M 8.273438 30.839844 L 30.355469 30.839844 L 30.355469 29.820312 L 8.273438 29.820312 Z M 8.273438 30.839844 "/>
<path style=" stroke:none;fill-rule:nonzero;fill:rgb(0%,0%,100%);fill-opacity:1;" d="M 8.273438 30.300781 L 9.292969 30.300781 L 9.292969 8.21875 L 8.273438 8.21875 Z M 8.273438 30.300781 "/>
<path style=" stroke:none;fill-rule:nonzero;fill:rgb(49.598694%,49.598694%,49.598694%);fill-opacity:1;" d="M 10.195312 28.140625 L 9.835938 28.5 L 10.554688 29.21875 L 10.914062 28.859375 "/>
<path style=" stroke:none;fill-rule:nonzero;fill:rgb(49.598694%,49.598694%,49.598694%);fill-opacity:1;" d="M 28.195312 10.140625 L 28.554688 9.78125 L 29.273438 10.5 L 28.914062 10.859375 "/>
<path style=" stroke:none;fill-rule:nonzero;fill:rgb(49.598694%,49.598694%,49.598694%);fill-opacity:1;" d="M 10.195312 28.140625 L 10.914062 28.859375 L 28.914062 10.859375 L 28.195312 10.140625 "/>
<path style=" stroke:none;fill-rule:evenodd;fill:rgb(100%,100%,100%);fill-opacity:1;" d="M 18.414062 17.21875 L 18.414062 16.980469 L 18.355469 16.800781 C 17.898438 15.816406 16.492188 15.9375 16.3125 16.980469 L 16.253906 17.21875 L 16.3125 17.398438 C 16.4375 18.367188 17.769531 18.628906 18.355469 17.640625 L 18.414062 17.398438 L 18.414062 17.21875 "/>
<path style=" stroke:none;fill-rule:nonzero;fill:rgb(100%,100%,100%);fill-opacity:1;" d="M 17.933594 17.21875 L 17.933594 16.980469 L 17.933594 17.160156 L 17.875 16.980469 L 17.933594 17.101562 L 17.8125 16.921875 L 17.695312 16.738281 L 17.875 16.859375 L 17.515625 16.621094 L 17.632812 16.679688 L 17.453125 16.621094 L 17.574219 16.679688 L 17.152344 16.679688 L 17.273438 16.621094 L 17.035156 16.679688 L 17.214844 16.621094 L 16.855469 16.859375 L 16.972656 16.738281 L 16.855469 16.921875 L 16.914062 16.800781 L 16.855469 16.980469 L 16.792969 17.160156 L 16.792969 17.101562 L 16.734375 17.339844 L 16.734375 17.101562 L 16.792969 17.28125 L 16.855469 17.519531 L 16.914062 17.699219 L 16.792969 17.460938 L 16.914062 17.578125 L 16.855469 17.519531 L 17.214844 17.761719 L 17.035156 17.699219 L 17.273438 17.761719 L 17.335938 17.761719 L 17.515625 17.820312 L 17.214844 17.820312 L 17.453125 17.761719 L 17.632812 17.699219 L 17.515625 17.761719 L 17.875 17.519531 L 17.753906 17.578125 L 17.875 17.460938 L 17.8125 17.578125 L 17.933594 17.398438 L 17.875 17.519531 L 17.933594 17.28125 L 17.933594 17.398438 L 17.933594 17.21875 L 18.953125 17.21875 L 18.953125 17.398438 L 18.894531 17.519531 C 18.835938 18.121094 18.289062 18.542969 17.753906 18.71875 L 17.695312 18.71875 L 17.453125 18.78125 L 17.214844 18.78125 L 17.035156 18.71875 L 16.792969 18.660156 L 16.675781 18.601562 L 16.3125 18.359375 L 16.195312 18.300781 L 16.074219 18.179688 L 15.953125 18 L 15.894531 17.820312 L 15.894531 17.761719 L 15.835938 17.519531 L 15.835938 17.578125 L 15.773438 17.398438 L 15.773438 17.101562 C 15.863281 16.414062 16.332031 15.785156 17.035156 15.660156 L 17.335938 15.660156 C 18.136719 15.546875 18.652344 16.175781 18.894531 16.859375 L 18.953125 16.980469 L 18.953125 17.21875 "/>
<path style=" stroke:none;fill-rule:evenodd;fill:rgb(100%,100%,100%);fill-opacity:1;" d="M 16.914062 28.078125 L 16.914062 27.839844 L 16.855469 27.660156 C 16.398438 26.675781 14.992188 26.796875 14.8125 27.839844 L 14.753906 28.078125 L 14.8125 28.261719 L 14.875 28.5 L 14.933594 28.679688 L 15.054688 28.859375 L 15.234375 28.980469 L 15.414062 29.039062 L 15.652344 29.101562 L 15.835938 29.160156 L 16.074219 29.101562 L 16.253906 29.039062 L 16.433594 28.980469 L 16.613281 28.859375 L 16.855469 28.5 L 16.914062 28.261719 L 16.914062 28.078125 "/>
<path style=" stroke:none;fill-rule:nonzero;fill:rgb(100%,100%,100%);fill-opacity:1;" d="M 16.433594 28.078125 L 16.433594 27.839844 L 16.433594 28.019531 L 16.375 27.839844 L 16.433594 27.960938 L 16.195312 27.601562 L 16.375 27.71875 L 16.015625 27.480469 L 16.132812 27.539062 L 15.953125 27.480469 L 16.074219 27.539062 L 15.652344 27.539062 L 15.773438 27.480469 L 15.535156 27.539062 L 15.714844 27.480469 L 15.355469 27.71875 L 15.472656 27.601562 L 15.355469 27.78125 L 15.414062 27.660156 L 15.355469 27.839844 L 15.292969 28.019531 L 15.292969 27.960938 L 15.234375 28.199219 L 15.234375 27.960938 L 15.292969 28.140625 L 15.355469 28.378906 L 15.414062 28.558594 L 15.355469 28.441406 L 15.472656 28.621094 L 15.355469 28.441406 L 15.535156 28.558594 L 15.414062 28.5 L 15.59375 28.558594 L 15.535156 28.558594 L 15.773438 28.621094 L 15.835938 28.621094 L 16.015625 28.679688 L 15.714844 28.679688 L 15.953125 28.621094 L 16.132812 28.558594 L 16.3125 28.5 L 16.195312 28.558594 L 16.375 28.441406 L 16.195312 28.621094 L 16.3125 28.441406 L 16.433594 28.261719 L 16.375 28.378906 L 16.433594 28.140625 L 16.433594 28.261719 L 16.433594 28.078125 L 17.453125 28.078125 L 17.453125 28.261719 L 17.394531 28.378906 C 17.285156 29.015625 16.886719 29.449219 16.253906 29.578125 L 16.195312 29.578125 L 15.953125 29.640625 C 15.398438 29.636719 14.5 29.335938 14.394531 28.679688 L 14.394531 28.621094 L 14.335938 28.378906 L 14.335938 28.441406 L 14.273438 28.261719 L 14.273438 27.960938 C 14.363281 27.277344 14.832031 26.648438 15.535156 26.519531 L 15.835938 26.519531 C 16.636719 26.40625 17.152344 27.035156 17.394531 27.71875 L 17.453125 27.839844 L 17.453125 28.078125 "/>
<path style=" stroke:none;fill-rule:evenodd;fill:rgb(100%,100%,100%);fill-opacity:1;" d="M 28.492188 16.078125 L 28.433594 15.839844 L 28.375 15.660156 C 28 14.652344 26.585938 14.832031 26.335938 15.839844 L 26.335938 16.261719 C 26.460938 17.289062 28.054688 17.449219 28.375 16.5 L 28.433594 16.261719 L 28.492188 16.078125 "/>
<path style=" stroke:none;fill-rule:nonzero;fill:rgb(100%,100%,100%);fill-opacity:1;" d="M 28.015625 16.199219 L 27.953125 15.960938 L 27.953125 16.019531 L 27.835938 15.660156 L 27.953125 15.839844 L 27.652344 15.539062 L 27.773438 15.601562 L 27.59375 15.480469 L 27.714844 15.539062 L 27.472656 15.480469 L 27.59375 15.539062 L 27.175781 15.539062 L 27.355469 15.480469 L 27.175781 15.539062 L 27.292969 15.480469 L 26.933594 15.71875 L 27.054688 15.601562 L 26.8125 15.960938 L 26.875 15.839844 L 26.8125 16.019531 L 26.875 15.839844 L 26.875 16.261719 L 26.8125 16.140625 L 26.875 16.378906 L 26.8125 16.261719 L 27.054688 16.621094 L 26.933594 16.441406 L 27.113281 16.558594 L 26.992188 16.5 L 27.175781 16.558594 L 27.355469 16.621094 L 27.292969 16.621094 L 27.535156 16.679688 L 27.292969 16.679688 L 27.472656 16.621094 L 27.714844 16.558594 L 27.894531 16.5 L 27.652344 16.621094 L 27.953125 16.320312 L 27.835938 16.558594 L 27.894531 16.378906 L 27.953125 16.140625 L 28.015625 15.960938 L 28.972656 16.261719 L 28.914062 16.441406 L 28.914062 16.378906 L 28.855469 16.621094 L 28.855469 16.679688 L 28.792969 16.859375 L 28.675781 17.039062 L 28.375 17.339844 L 28.195312 17.460938 L 28.015625 17.519531 L 27.953125 17.519531 L 27.714844 17.578125 L 27.773438 17.578125 L 27.59375 17.640625 L 27.292969 17.640625 C 26.109375 17.46875 25.550781 16.519531 25.972656 15.421875 L 26.214844 15.058594 C 26.933594 14.15625 28.554688 14.367188 28.855469 15.539062 L 28.914062 15.71875 L 28.972656 15.960938 "/>
<path style=" stroke:none;fill-rule:nonzero;fill:rgb(100%,100%,100%);fill-opacity:1;" d="M 28.015625 15.960938 L 28.015625 16.199219 L 28.972656 15.960938 L 28.972656 16.261719 "/>
</g>
</svg>
