<?xml version="1.0" encoding="UTF-8" standalone="no"?>
<svg
   xmlns:dc="http://purl.org/dc/elements/1.1/"
   xmlns:cc="http://creativecommons.org/ns#"
   xmlns:rdf="http://www.w3.org/1999/02/22-rdf-syntax-ns#"
   xmlns:svg="http://www.w3.org/2000/svg"
   xmlns="http://www.w3.org/2000/svg"
   viewBox="0 0 50.835999 50.618668"
   height="50.618668"
   width="50.835999"
   xml:space="preserve"
   id="svg2"
   version="1.1"><metadata
     id="metadata8"><rdf:RDF><cc:Work
         rdf:about=""><dc:format>image/svg+xml</dc:format><dc:type
           rdf:resource="http://purl.org/dc/dcmitype/StillImage" /></cc:Work></rdf:RDF></metadata><defs
     id="defs6"><clipPath
       id="clipPath14"
       clipPathUnits="userSpaceOnUse"><path
         id="path12"
         d="M 0,0 H 612 V 792 H 0 Z" /></clipPath><clipPath
       id="clipPath118"
       clipPathUnits="userSpaceOnUse"><path
         style="clip-rule:evenodd"
         id="path116"
         d="M 69.96,684 H 108 V 646.02 H 69.96 Z" /></clipPath><clipPath
       id="clipPath126"
       clipPathUnits="userSpaceOnUse"><path
         id="path124"
         d="M 0,792.03 H 612 V 0.03 H 0 Z" /></clipPath><clipPath
       id="clipPath148"
       clipPathUnits="userSpaceOnUse"><path
         style="clip-rule:evenodd"
         id="path146"
         d="m 504,684 h 38.04 V 646.02 H 504 Z" /></clipPath><clipPath
       id="clipPath156"
       clipPathUnits="userSpaceOnUse"><path
         id="path154"
         d="M 0,792.03 H 612 V 0.03 H 0 Z" /></clipPath><clipPath
       id="clipPath174"
       clipPathUnits="userSpaceOnUse"><path
         style="clip-rule:evenodd"
         id="path172"
         d="m 509.1,678.9 h 28.8 v -28.8 h -28.8 z" /></clipPath><clipPath
       id="clipPath182"
       clipPathUnits="userSpaceOnUse"><path
         style="clip-rule:evenodd"
         id="path180"
         d="m 504,684 h 38.04 V 646.02 H 504 Z" /></clipPath><clipPath
       id="clipPath190"
       clipPathUnits="userSpaceOnUse"><path
         id="path188"
         d="M 0,792.03 H 612 V 0.03 H 0 Z" /></clipPath><clipPath
       id="clipPath208"
       clipPathUnits="userSpaceOnUse"><path
         style="clip-rule:evenodd"
         id="path206"
         d="m 504,684 h 38.04 V 646.02 H 504 Z" /></clipPath><clipPath
       id="clipPath216"
       clipPathUnits="userSpaceOnUse"><path
         id="path214"
         d="M 0,792.03 H 612 V 0.03 H 0 Z" /></clipPath><clipPath
       id="clipPath282"
       clipPathUnits="userSpaceOnUse"><path
         style="clip-rule:evenodd"
         id="path280"
         d="M 69.96,437.94 H 108 V 399.96 H 69.96 Z" /></clipPath><clipPath
       id="clipPath290"
       clipPathUnits="userSpaceOnUse"><path
         id="path288"
         d="M 0,792.03 H 612 V 0.03 H 0 Z" /></clipPath><clipPath
       id="clipPath312"
       clipPathUnits="userSpaceOnUse"><path
         style="clip-rule:evenodd"
         id="path310"
         d="m 504,437.94 h 38.04 V 399.96 H 504 Z" /></clipPath><clipPath
       id="clipPath320"
       clipPathUnits="userSpaceOnUse"><path
         id="path318"
         d="M 0,792.03 H 612 V 0.03 H 0 Z" /></clipPath><clipPath
       id="clipPath338"
       clipPathUnits="userSpaceOnUse"><path
         style="clip-rule:evenodd"
         id="path336"
         d="m 508.92,433.08 h 28.8 v -28.8 h -28.8 z" /></clipPath><clipPath
       id="clipPath346"
       clipPathUnits="userSpaceOnUse"><path
         style="clip-rule:evenodd"
         id="path344"
         d="m 504,437.94 h 38.04 V 399.96 H 504 Z" /></clipPath><clipPath
       id="clipPath354"
       clipPathUnits="userSpaceOnUse"><path
         id="path352"
         d="M 0,792.03 H 612 V 0.03 H 0 Z" /></clipPath><clipPath
       id="clipPath372"
       clipPathUnits="userSpaceOnUse"><path
         style="clip-rule:evenodd"
         id="path370"
         d="m 504,437.94 h 38.04 V 399.96 H 504 Z" /></clipPath><clipPath
       id="clipPath380"
       clipPathUnits="userSpaceOnUse"><path
         id="path378"
         d="M 0,792.03 H 612 V 0.03 H 0 Z" /></clipPath></defs><g
     clip-path="url(#clipPath14)"
     transform="matrix(1.3333333,0,0,-1.3333333,-671.928,584)"
     id="g10"><path
       id="path16"
       style="fill:#ffffff;fill-opacity:1;fill-rule:nonzero;stroke:none"
       d="m 72,711 h 468 v 9 H 72 Z" /><path
       id="path18"
       style="fill:#ffffff;fill-opacity:1;fill-rule:nonzero;stroke:none"
       d="m 72,126 h 468 v 9 H 72 Z" /><text
       id="text22"
       style="font-style:italic;font-variant:normal;font-weight:bold;font-stretch:normal;font-size:9px;font-family:'NewCenturySchlbk LT';-inkscape-font-specification:NewCenturySchlbkLT-BoldItalic;writing-mode:lr-tb;fill:#0000ff;fill-opacity:1;fill-rule:nonzero;stroke:none"
       transform="matrix(1,0,0,-1,300,129.0001)"><tspan
         id="tspan20"
         y="0"
         x="0 4.9797001 8.5193996">vii</tspan></text>
<text
       id="text26"
       style="font-variant:normal;font-weight:bold;font-stretch:normal;font-size:15.96000004px;font-family:'Times LT Std';-inkscape-font-specification:TimesLTStd-Bold;writing-mode:lr-tb;fill:#0000ff;fill-opacity:1;fill-rule:nonzero;stroke:none"
       transform="matrix(1,0,0,-1,255.36,673.32)"><tspan
         id="tspan24"
         y="0"
         x="0 12.43284 19.53504 28.424761 35.526958 42.629162 50.625118 55.077961 59.5308 66.633003 74.62896 79.959602 84.412437 92.408401">Generalization</tspan></text>
<text
       id="text48"
       style="font-variant:normal;font-weight:normal;font-stretch:normal;font-size:9.96000004px;font-family:'Helvetica LT';-inkscape-font-specification:HelveticaLT;writing-mode:lr-tb;fill:#000000;fill-opacity:1;fill-rule:nonzero;stroke:none"
       transform="matrix(1,0,0,-1,171,648.36)"><tspan
         id="tspan28"
         y="0"
         x="0 7.7618279 13.312536 15.536604 21.087313 26.080259 28.862087 31.086157 36.125916 41.676624 46.669571 253.84952 259.40024 264.95093 268.28058">Objectives 13-1</tspan><tspan
         id="tspan30"
         y="12.0018"
         x="0 6.1154399 11.635272 17.202911 22.770552 26.070299 31.080179 33.899857 39.419689 44.999279 50.519112 53.338787 60.01199 65.021866 70.589508 78.916069 84.435898 86.655983 92.223625 97.233505 253.83359 259.40121 264.92105 268.26761">Theory and Examples 13-2</tspan><tspan
         id="tspan32"
         y="24.003599"
         x="36.005402 42.685574 45.985321 51.559933 57.134544 59.382515 64.902351 73.242851 76.002769 82.682938 85.48867 91.008507 93.828178 99.348015 107.68752 113.26213 118.78197 121.58769 253.8306 259.40521 264.92505 268.27856">Problem Statement 13-2</tspan><tspan
         id="tspan34"
         y="36.005402"
         x="36.005402 44.336941 49.856773 52.660511 58.180344 63.752964 69.272797 74.287659 77.047569 79.807487 85.387077 88.686829 91.5065 94.266418 102.60593 108.12576 111.48527 117.05788 122.07275 124.31873 129.83856 135.41118 138.1711 145.95483 151.52745 157.04729 162.62688 165.92662 171.50623 173.7522 175.99818 181.01305 186.58566 189.34558 191.59155 197.16417 202.68401 253.86447 259.43707 264.95691 268.30844">Methods for Improving Generalization 13-5</tspan><tspan
         id="tspan36"
         y="48.007198"
         x="72.010803 78.684998 83.695869 86.495628 88.737625 97.017372 102.59696 105.35688 107.57697 113.1456 118.71423 121.47415 129.21407 134.7827 140.35133 145.87117 149.21873 154.73856 156.98056 159.22255 164.23343 169.75327 172.57294 174.81493 180.33476 185.9034 188.66331 195.33751 198.68507 201.98482 207.56441 253.82463 259.40421 264.92404 268.28455">Estimating Generalization Error13-6</tspan><tspan
         id="tspan38"
         y="60.008999"
         x="72.010803 78.683998 84.25164 87.551392 89.771469 94.781349 97.601028 104.27423 107.03414 112.60178 118.12161 123.68925 125.93026 131.49789 137.01773 253.84056 259.4082 264.92804 268.2746">Early Stopping 13-6</tspan><tspan
         id="tspan40"
         y="72.010803"
         x="72.010803 79.235786 84.807411 90.32724 95.90683 98.151817 103.72344 107.02319 109.24327 114.25713 119.82876 122.58868 124.80876 130.38039 135.95201 253.85152 259.42313 264.94296 268.29352">Regularization 13-8</tspan><tspan
         id="tspan42"
         y="84.012604"
         x="72.010803 78.66906 84.221764 89.216698 94.769402 99.764343 101.9904 107.5431 113.0958 115.85571 122.51398 128.06668 133.61937 135.84543 140.84038 145.83531 148.06137 153.10114 253.78081 259.3335 264.8862 268.21783 273.77051">Bayesian Analysis 13-10</tspan><tspan
         id="tspan44"
         y="96.014397"
         x="72.010803 78.685989 84.255623 89.267494 94.837128 99.848999 102.092 107.61182 113.19141 115.95133 123.17432 128.69415 134.26379 139.83342 141.99374 147.56337 150.91193 153.15492 158.16679 163.68663 166.5063 168.7493 174.26912 179.83876 253.8804 259.45004 264.96988 268.31842 273.83826">Bayesian Regularization 13-12</tspan><tspan
         id="tspan46"
         y="108.0162"
         x="72.010803 79.219849 84.775536 87.004585 92.560272 95.347076 97.576126 103.13181 108.68751 113.68543 119.24112 121.47017 127.02586 129.84554 136.50677 142.06247 144.84927 151.98959 157.56421 163.08405 168.65866 171.41858 178.09874 183.67336 186.9731 189.19319 194.21004 196.96996 203.65013 206.41005 211.98465 217.55927 223.0791 225.32707 230.90169">Relationship Between Early Stopping</tspan></text>
<text
       id="text52"
       style="font-variant:normal;font-weight:normal;font-stretch:normal;font-size:9.96000004px;font-family:Symbol;-inkscape-font-specification:SymbolMT;writing-mode:lr-tb;fill:#000000;fill-opacity:1;fill-rule:nonzero;stroke:none"
       transform="matrix(1,0,0,-1,407.47032,540.3438)"><tspan
         id="tspan50"
         y="0"
         x="0"></tspan></text>
<text
       id="text66"
       style="font-variant:normal;font-weight:normal;font-stretch:normal;font-size:9.96000004px;font-family:'Helvetica LT';-inkscape-font-specification:HelveticaLT;writing-mode:lr-tb;fill:#000000;fill-opacity:1;fill-rule:nonzero;stroke:none"
       transform="matrix(1,0,0,-1,254.77456,528.342)"><tspan
         id="tspan54"
         y="0"
         x="0 5.573616 11.093448 16.667065 19.426979 26.653955 32.173786 37.747402 43.321018 45.567997 51.08783 54.447334 56.694313 61.710167 67.283783 70.043701 72.290672 77.810509 83.384125 170.08592 175.65955 181.17937 184.53191 190.05174">and Regularization 13-19</tspan><tspan
         id="tspan56"
         y="12.0018"
         x="-83.754639 -77.101357 -71.553635 -63.246998 -54.940357 -49.392635 -46.065994 -41.026237 -38.266319 -32.718601 -29.898924 -27.139008 -19.937927 -14.390208 -9.4002476 -3.8525281 -1.631448 1.147392 6.137352 169.99628 175.54401 181.09172 184.41837 189.96608">Summary of Results 13-29</tspan><tspan
         id="tspan58"
         y="24.003599"
         x="-83.754639 -77.096375 -71.543678 -69.317619 -64.322678 -58.769978 -53.217278 -50.457359 -43.737347 -40.437599 -34.884899 -29.332199 -27.10614 -21.55344 -13.24182 -8.2468796 170.0162 175.56891 181.1216 184.45322 190.00592">Solved Problems 13-32</tspan><tspan
         id="tspan60"
         y="36.005402"
         x="-83.754639 -77.078445 -71.50782 -69.263832 -67.019844 -61.500011 -55.929382 -50.409554 -44.838924 170.08095 175.65157 181.1714 184.52095 190.04079">Epilogue 13-44</tspan><tspan
         id="tspan62"
         y="48.007198"
         x="-83.754639 -77.631226 -72.111397 -68.756866 -65.996948 -60.421345 -54.901512 -51.546986 -48.787067 -41.558102 -35.982491 -30.406883 -24.887053 -22.638084 -17.062475 -11.542644 170.07596 175.65157 181.1714 184.52592 190.04576">Further Reading 13-45</tspan><tspan
         id="tspan64"
         y="60.008999"
         x="-83.754639 -77.100357 -72.109406 -66.560684 -63.233051 -58.193291 -55.971214 -50.980259 -45.431545 -40.44059 170.03911 175.58783 181.13655 184.46419 190.01289">Exercises 13-47</tspan></text>
<text
       id="text70"
       style="font-variant:normal;font-weight:bold;font-stretch:normal;font-size:15.96000004px;font-family:'Times LT Std';-inkscape-font-specification:TimesLTStd-Bold;writing-mode:lr-tb;fill:#0000ff;fill-opacity:1;fill-rule:nonzero;stroke:none"
       transform="matrix(1,0,0,-1,240.48,414.36)"><tspan
         id="tspan68"
         y="0"
         x="0 11.543868 19.544617 28.439123 36.439873 49.755299 54.212929 61.319916 65.279594 76.823463 83.93045 89.265877 100.80975 108.81049 115.91748 124.81199">Dynamic Networks</tspan></text>
<text
       id="text92"
       style="font-variant:normal;font-weight:normal;font-stretch:normal;font-size:9.96000004px;font-family:'Helvetica LT';-inkscape-font-specification:HelveticaLT;writing-mode:lr-tb;fill:#000000;fill-opacity:1;fill-rule:nonzero;stroke:none"
       transform="matrix(1,0,0,-1,171,389.34)"><tspan
         id="tspan72"
         y="0"
         x="0 7.7618279 13.312536 15.536604 21.087313 26.080259 28.862087 31.086157 36.125916 41.676624 46.669571 253.84952 259.40024 264.95093 268.28058">Objectives 14-1</tspan><tspan
         id="tspan74"
         y="12.0018"
         x="0 6.1154399 11.635272 17.202911 22.770552 26.070299 31.080179 33.899857 39.419689 44.999279 50.519112 53.338787 60.01199 65.021866 70.589508 78.916069 84.435898 86.655983 92.223625 97.233505 253.83359 259.40121 264.92105 268.26761">Theory and Examples 14-2</tspan><tspan
         id="tspan76"
         y="24.003599"
         x="36.005402 41.572044 47.091877 52.100761 57.667404 61.012966 66.532799 72.099442 74.85936 82.079361 84.319366 89.886009 92.126015 94.885933 100.45258 102.69258 105.4525 112.6725 117.68138 123.20122 128.78081 137.10637 139.34637 144.35526 147.11517 154.33517 159.85501 162.61493 169.87477 175.39461 178.7541 183.763 188.77188 253.87044 259.43707 264.95691 268.30249">Layered Digital Dynamic Networks 14-3</tspan><tspan
         id="tspan78"
         y="36.005402"
         x="72.000839 78.639183 83.614197 89.193794 97.534294 103.06708 105.27322 110.85281 113.61272 120.87257 125.84759 131.38037 136.95996 145.29947 147.51955 152.49457 155.25449 162.51433 168.03416 170.85384 178.05392 183.5867 186.9472 191.92223 196.96199 253.79076 259.37036 264.8902 268.2507">Example Dynamic Networks 14-5</tspan><tspan
         id="tspan80"
         y="48.007198"
         x="36.005402 42.6786 45.978348 48.219349 53.786987 58.796867 61.037868 66.605507 68.846504 74.414146 79.424026 82.183945 87.751587 90.511497 93.271416 100.49242 105.5023 111.06994 116.58977 124.91633 127.15733 132.16721 134.98688 140.50671 146.0863 151.60614 154.96565 160.53329 162.69362 168.26125 173.82889 253.87044 259.43808 264.95792 268.30447">Principles of Dynamic Learning 14-8</tspan><tspan
         id="tspan82"
         y="60.008999"
         x="36.005402 43.228394 48.240265 53.809895 59.379528 67.659279 69.902267 74.914139 77.674057 84.349251 89.918877 94.930756 99.942627 105.51225 108.812 114.38164 119.95127 125.4711 131.04073 136.61037 139.37029 141.61327 147.1331 152.70274 253.86047 259.43011 264.94995 268.29849 273.81833">Dynamic Backpropagation 14-12</tspan><tspan
         id="tspan84"
         y="72.010803"
         x="72.000839 78.674042 81.973785 87.541428 89.782425 92.02343 100.34999 102.59099 108.11082 113.67846 117.02502 122.0349 124.79482 132.01582 137.58345 140.34337 142.56346 148.1311 150.3721 153.13202 155.3521 160.91974 166.43958 171.44945 253.8306 259.39825 264.91806 268.26462 273.78445">Preliminary Definitions 14-12</tspan><tspan
         id="tspan86"
         y="84.012604"
         x="72.000839 79.227814 84.80143 90.321266 92.541351 95.361023 101.42068 103.64077 111.9733 117.54692 120.30684 127.53381 133.10744 138.12329 143.6969 146.99666 150.35616 155.92978 161.44962 164.20952 167.02921 172.54903 178.12265 183.69626 186.99602 192.56963 194.8166 200.33644 205.91603 253.85649 259.43011 264.94995 268.30249 273.82233">Real Time Recurrent Learning 14-12</tspan><tspan
         id="tspan88"
         y="96.014397"
         x="72.000839 78.680016 84.253632 89.269485 94.285347 99.858963 103.15871 108.73232 114.30594 119.82578 125.39939 130.91922 133.72395 135.97093 141.49077 147.07036 150.3701 156.49152 162.06514 165.36488 170.93851 176.51212 182.03195 187.60556 190.90532 197.02673 199.2737 207.60625 213.12607 253.86646 259.44006 264.9599 268.31244 273.83228">Backpropagation-Through-Time 14-22</tspan><tspan
         id="tspan90"
         y="108.0162"
         x="72.000839 78.680016 84.253632 92.533379 100.87389 106.4475 109.74725 114.76311 117.52302 123.04285 128.61647 134.19008 136.95 144.17697 149.7506 158.08313 166.36287 171.93649 177.5101 180.27002 185.28587 188.10556 193.62538 199.20499">Summary and Comments on </tspan></text>
<text
       id="text96"
       style="font-variant:normal;font-weight:normal;font-stretch:normal;font-size:9.96000004px;font-family:Symbol;-inkscape-font-specification:SymbolMT;writing-mode:lr-tb;fill:#000000;fill-opacity:1;fill-rule:nonzero;stroke:none"
       transform="matrix(1,0,0,-1,372.9649,281.3238)"><tspan
         id="tspan94"
         y="0"
         x="0"></tspan></text>
<text
       id="text110"
       style="font-variant:normal;font-weight:normal;font-stretch:normal;font-size:9.96000004px;font-family:'Helvetica LT';-inkscape-font-specification:HelveticaLT;writing-mode:lr-tb;fill:#000000;fill-opacity:1;fill-rule:nonzero;stroke:none"
       transform="matrix(1,0,0,-1,252.00468,269.322)"><tspan
         id="tspan98"
         y="0"
         x="0 7.2299638 12.248808 17.768641 23.345243 31.680767 33.841091 38.859936 41.61985 47.744255 51.044003 56.620609 58.870571 64.447174 66.697144 72.216972 77.793579 172.83588 178.41249 183.93231 187.28784 192.80768">Dynamic Training 14-30</tspan><tspan
         id="tspan100"
         y="12.0018"
         x="-81.004677 -74.351402 -68.80368 -60.49704 -52.190399 -46.642681 -43.31604 -38.276279 -35.516365 -29.968643 -27.148968 -24.389051 -17.187971 -11.640252 -6.6502919 -1.102572 1.118508 3.8973479 8.8873081 172.74625 178.29396 183.84167 187.16832 192.71603">Summary of Results 14-34</tspan><tspan
         id="tspan102"
         y="24.003599"
         x="-81.004677 -74.34642 -68.793716 -66.567657 -61.57272 -56.02002 -50.467319 -47.707405 -40.987392 -37.687645 -32.134945 -26.582245 -24.356184 -18.803484 -10.491864 -5.4969239 172.76616 178.31886 183.87157 187.20319 192.75587">Solved Problems 14-37</tspan><tspan
         id="tspan104"
         y="36.005402"
         x="-81.004677 -74.328491 -68.757866 -66.513878 -64.26989 -58.750057 -53.179428 -47.659595 -42.088966 172.8309 178.40154 183.92136 187.2709 192.79074">Epilogue 14-46</tspan><tspan
         id="tspan106"
         y="48.007198"
         x="-81.004677 -74.881271 -69.361443 -66.006912 -63.246998 -57.671387 -52.151554 -48.797028 -46.037113 -38.808144 -33.232536 -27.656927 -22.137096 -19.888128 -14.31252 -8.7926884 172.82591 178.40154 183.92136 187.27589 192.79572">Further Reading 14-47</tspan><tspan
         id="tspan108"
         y="60.008999"
         x="-81.004677 -74.350403 -69.359451 -63.810734 -60.483097 -55.443336 -53.22126 -48.230305 -42.681587 -37.690632 172.78906 178.33778 183.88651 187.21414 192.76285">Exercises 14-48</tspan></text>
<g
       id="g112"><g
         clip-path="url(#clipPath118)"
         id="g114"><g
           id="g120"><g
             clip-path="url(#clipPath126)"
             id="g122"><path
               id="path128"
               style="fill:#0000ff;fill-opacity:1;fill-rule:nonzero;stroke:none"
               d="m 70.98,647.04 h 36 v 36 h -36 z" /><path
               id="path130"
               style="fill:#0000ff;fill-opacity:1;fill-rule:nonzero;stroke:none"
               d="m 70.98,682.8 h 36.24 v 0.48 H 70.98 Z" /><path
               id="path132"
               style="fill:#0000ff;fill-opacity:1;fill-rule:nonzero;stroke:none"
               d="m 106.74,646.8 h 0.48 v 36.24 h -0.48 z" /><path
               id="path134"
               style="fill:#0000ff;fill-opacity:1;fill-rule:nonzero;stroke:none"
               d="m 70.74,646.8 h 36.24 v 0.48 H 70.74 Z" /><path
               id="path136"
               style="fill:#0000ff;fill-opacity:1;fill-rule:nonzero;stroke:none"
               d="m 70.74,647.04 h 0.48 v 36.24 h -0.48 z" /><text
               id="text140"
               style="font-variant:normal;font-weight:bold;font-stretch:normal;font-size:24px;font-family:'Times LT Std';-inkscape-font-specification:TimesLTStd-Bold;writing-mode:lr-tb;fill:#ffffff;fill-opacity:1;fill-rule:nonzero;stroke:none"
               transform="matrix(1,0,0,-1,76.26,658.02)"><tspan
                 id="tspan138"
                 y="0"
                 x="0 12">13</tspan></text>
</g></g></g></g><g
       id="g142"><g
         clip-path="url(#clipPath148)"
         id="g144"><g
           id="g150"><g
             clip-path="url(#clipPath156)"
             id="g152"><path
               id="path158"
               style="fill:#0000ff;fill-opacity:1;fill-rule:nonzero;stroke:none"
               d="m 504,646.02 h 38.04 V 684 H 504 Z" /><path
               id="path160"
               style="fill:#0000ff;fill-opacity:1;fill-rule:nonzero;stroke:none"
               d="m 504,683.46 h 38.04 v 0.57 H 504 Z" /><path
               id="path162"
               style="fill:#0000ff;fill-opacity:1;fill-rule:nonzero;stroke:none"
               d="m 541.56,645.99 h 0.48 V 684 h -0.48 z" /><path
               id="path164"
               style="fill:#0000ff;fill-opacity:1;fill-rule:nonzero;stroke:none"
               d="m 503.94,645.99 h 38.1 v 0.51 h -38.1 z" /><path
               id="path166"
               style="fill:#0000ff;fill-opacity:1;fill-rule:nonzero;stroke:none"
               d="m 503.94,646.02 h 0.6 v 38.01 h -0.6 z" /></g></g></g></g><g
       id="g168"><g
         clip-path="url(#clipPath174)"
         id="g170"><g
           id="g176"><g
             clip-path="url(#clipPath182)"
             id="g178"><g
               id="g184"><g
                 clip-path="url(#clipPath190)"
                 id="g186"><path
                   id="path192"
                   style="fill:#7e7e7e;fill-opacity:1;fill-rule:nonzero;stroke:none"
                   d="m 509.1,650.1 h 28.8 v 28.8 h -28.8 z" /><path
                   id="path194"
                   style="fill:#7e7e7e;fill-opacity:1;fill-rule:nonzero;stroke:none"
                   d="m 509.1,678.36 h 28.8 v 0.57 h -28.8 z" /><path
                   id="path196"
                   style="fill:#7e7e7e;fill-opacity:1;fill-rule:nonzero;stroke:none"
                   d="m 537.42,650.07 h 0.48 v 28.83 h -0.48 z" /><path
                   id="path198"
                   style="fill:#7e7e7e;fill-opacity:1;fill-rule:nonzero;stroke:none"
                   d="m 509.04,650.07 h 28.86 v 0.51 h -28.86 z" /><path
                   id="path200"
                   style="fill:#7e7e7e;fill-opacity:1;fill-rule:nonzero;stroke:none"
                   d="m 509.04,650.1 h 0.6 v 28.83 h -0.6 z" /></g></g></g></g></g></g><g
       id="g202"><g
         clip-path="url(#clipPath208)"
         id="g204"><g
           id="g210"><g
             clip-path="url(#clipPath216)"
             id="g212"><path
               id="path218"
               style="fill:#0000ff;fill-opacity:1;fill-rule:nonzero;stroke:none"
               d="m 512.7,653.7 h 21.6 v 21.6 h -21.6 z" /><path
               id="path220"
               style="fill:#0000ff;fill-opacity:1;fill-rule:nonzero;stroke:none"
               d="m 512.7,674.76 h 22.14 v 1.02 H 512.7 Z" /><path
               id="path222"
               style="fill:#0000ff;fill-opacity:1;fill-rule:nonzero;stroke:none"
               d="m 533.82,653.16 h 1.02 v 22.14 h -1.02 z" /><path
               id="path224"
               style="fill:#0000ff;fill-opacity:1;fill-rule:nonzero;stroke:none"
               d="m 512.22,653.16 h 22.08 v 1.02 h -22.08 z" /><path
               id="path226"
               style="fill:#0000ff;fill-opacity:1;fill-rule:nonzero;stroke:none"
               d="m 512.22,653.7 h 1.02 v 22.08 h -1.02 z" /><g
               transform="translate(514.14001,655.85999)"
               id="g228"><path
                 id="path230"
                 style="fill:#7e7e7e;fill-opacity:1;fill-rule:nonzero;stroke:none"
                 d="m 0,0 -0.36,-0.36 0.72,-0.72 0.36,0.36" /></g><g
               transform="translate(532.14001,673.85999)"
               id="g232"><path
                 id="path234"
                 style="fill:#7e7e7e;fill-opacity:1;fill-rule:nonzero;stroke:none"
                 d="M 0,0 0.36,0.36 1.08,-0.36 0.72,-0.72" /></g><g
               transform="translate(514.14001,655.85999)"
               id="g236"><path
                 id="path238"
                 style="fill:#7e7e7e;fill-opacity:1;fill-rule:nonzero;stroke:none"
                 d="m 0,0 0.72,-0.72 18,18 L 18,18" /></g><g
               transform="translate(522.35999,666.78003)"
               id="g240"><path
                 id="path242"
                 style="fill:#ffffff;fill-opacity:1;fill-rule:evenodd;stroke:none"
                 d="M 0,0 V 0.24 L -0.06,0.42 C -0.516,1.405 -1.922,1.284 -2.1,0.24 L -2.16,0 -2.1,-0.18 c 0.122,-0.967 1.456,-1.229 2.04,-0.24 L 0,-0.18 V 0" /></g><g
               transform="translate(521.88,666.78003)"
               id="g244"><path
                 id="path246"
                 style="fill:#ffffff;fill-opacity:1;fill-rule:nonzero;stroke:none"
                 d="M 0,0 V 0.24 0.06 L -0.06,0.24 0,0.12 -0.12,0.3 -0.24,0.48 -0.06,0.36 -0.42,0.6 -0.3,0.54 -0.48,0.6 -0.36,0.54 H -0.78 L -0.66,0.6 -0.9,0.54 -0.72,0.6 -1.08,0.36 -0.96,0.48 -1.08,0.3 -1.02,0.42 -1.08,0.24 -1.14,0.06 V 0.12 L -1.2,-0.12 v 0.24 l 0.06,-0.18 0.06,-0.24 0.06,-0.18 -0.12,0.24 0.12,-0.12 -0.06,0.06 0.36,-0.24 -0.18,0.06 0.24,-0.06 h 0.06 l 0.18,-0.06 h -0.3 l 0.24,0.06 0.18,0.06 -0.12,-0.06 0.36,0.24 -0.12,-0.06 0.12,0.12 L -0.12,-0.36 0,-0.18 -0.06,-0.3 0,-0.06 V -0.18 0 H 1.02 V -0.18 L 0.96,-0.3 C 0.903,-0.901 0.354,-1.324 -0.18,-1.5 h -0.06 l -0.24,-0.06 h -0.24 l -0.18,0.06 -0.24,0.06 -0.12,0.06 -0.36,0.24 -0.12,0.06 -0.12,0.12 -0.12,0.18 -0.06,0.18 v 0.06 L -2.1,-0.3 v -0.06 l -0.06,0.18 v 0.3 c 0.089,0.684 0.559,1.313 1.26,1.44 h 0.3 C 0.202,1.672 0.719,1.043 0.96,0.36 L 1.02,0.24 V 0" /></g><g
               transform="translate(521.88,666.78003)"
               id="g248"><path
                 id="path250"
                 style="fill:#ffffff;fill-opacity:1;fill-rule:nonzero;stroke:none"
                 d="M 0,0 H 1.02" /></g><g
               transform="translate(520.85999,655.91998)"
               id="g252"><path
                 id="path254"
                 style="fill:#ffffff;fill-opacity:1;fill-rule:evenodd;stroke:none"
                 d="M 0,0 V 0.24 L -0.06,0.42 C -0.516,1.405 -1.922,1.284 -2.1,0.24 L -2.16,0 l 0.06,-0.18 0.06,-0.24 0.06,-0.18 0.12,-0.18 0.18,-0.12 0.18,-0.06 0.24,-0.06 0.18,-0.06 0.24,0.06 0.18,0.06 0.18,0.06 0.18,0.12 0.12,0.18 0.12,0.18 L 0,-0.18 V 0" /></g><g
               transform="translate(520.38,655.91998)"
               id="g256"><path
                 id="path258"
                 style="fill:#ffffff;fill-opacity:1;fill-rule:nonzero;stroke:none"
                 d="M 0,0 V 0.24 0.06 L -0.06,0.24 0,0.12 -0.24,0.48 -0.06,0.36 -0.42,0.6 -0.3,0.54 -0.48,0.6 -0.36,0.54 H -0.78 L -0.66,0.6 -0.9,0.54 -0.72,0.6 -1.08,0.36 -0.96,0.48 -1.08,0.3 -1.02,0.42 -1.08,0.24 -1.14,0.06 V 0.12 L -1.2,-0.12 v 0.24 l 0.06,-0.18 0.06,-0.24 0.06,-0.18 -0.06,0.12 0.12,-0.18 -0.12,0.18 0.18,-0.12 -0.12,0.06 0.18,-0.06 H -0.9 l 0.24,-0.06 h 0.06 l 0.18,-0.06 h -0.3 l 0.24,0.06 0.18,0.06 0.18,0.06 -0.12,-0.06 0.18,0.12 -0.18,-0.18 0.12,0.18 L 0,-0.18 -0.06,-0.3 0,-0.06 V -0.18 0 H 1.02 V -0.18 L 0.96,-0.3 C 0.852,-0.935 0.453,-1.368 -0.18,-1.5 h -0.06 l -0.24,-0.06 c -0.555,0.002 -1.453,0.304 -1.56,0.96 v 0.06 L -2.1,-0.3 v -0.06 l -0.06,0.18 v 0.3 c 0.089,0.684 0.559,1.313 1.26,1.44 h 0.3 C 0.202,1.672 0.719,1.043 0.96,0.36 L 1.02,0.24 V 0" /></g><g
               transform="translate(520.38,655.91998)"
               id="g260"><path
                 id="path262"
                 style="fill:#ffffff;fill-opacity:1;fill-rule:nonzero;stroke:none"
                 d="M 0,0 H 1.02" /></g><g
               transform="translate(532.44,667.91998)"
               id="g264"><path
                 id="path266"
                 style="fill:#ffffff;fill-opacity:1;fill-rule:evenodd;stroke:none"
                 d="M 0,0 -0.06,0.24 -0.12,0.42 C -0.493,1.429 -1.91,1.247 -2.16,0.24 v -0.42 c 0.125,-1.028 1.722,-1.191 2.04,-0.24 L -0.06,-0.18 0,0" /></g><g
               transform="translate(531.96002,667.79999)"
               id="g268"><path
                 id="path270"
                 style="fill:#ffffff;fill-opacity:1;fill-rule:nonzero;stroke:none"
                 d="M 0,0 -0.06,0.24 V 0.18 L -0.18,0.54 -0.06,0.36 -0.24,0.54 -0.36,0.66 -0.24,0.6 -0.42,0.72 -0.3,0.66 -0.54,0.72 -0.42,0.66 H -0.84 L -0.66,0.72 -0.84,0.66 -0.72,0.72 -1.08,0.48 -0.96,0.6 -1.2,0.24 -1.14,0.36 -1.2,0.18 -1.14,0.36 v -0.42 l -0.06,0.12 0.06,-0.24 -0.06,0.12 0.12,-0.18 0.12,-0.18 -0.12,0.18 0.18,-0.12 -0.12,0.06 0.18,-0.06 0.18,-0.06 h -0.06 l 0.24,-0.06 h -0.24 l 0.18,0.06 0.24,0.06 0.18,0.06 -0.24,-0.12 0.3,0.3 -0.12,-0.24 0.06,0.18 0.06,0.24 L 0,0.24 0.96,-0.06 0.9,-0.24 v 0.06 L 0.84,-0.42 V -0.48 L 0.78,-0.66 0.66,-0.84 0.36,-1.14 0.18,-1.26 0,-1.32 H -0.06 L -0.3,-1.38 h 0.06 l -0.18,-0.06 h -0.3 c -1.186,0.172 -1.744,1.119 -1.32,2.22 L -1.8,1.14 C -1.081,2.045 0.539,1.832 0.84,0.66 L 0.9,0.48 0.96,0.24" /></g><g
               transform="translate(531.96002,668.03998)"
               id="g272"><path
                 id="path274"
                 style="fill:#ffffff;fill-opacity:1;fill-rule:nonzero;stroke:none"
                 d="M 0,0 V -0.24 L 0.96,0 v -0.3" /></g></g></g></g></g><g
       id="g276"><g
         clip-path="url(#clipPath282)"
         id="g278"><g
           id="g284"><g
             clip-path="url(#clipPath290)"
             id="g286"><path
               id="path292"
               style="fill:#0000ff;fill-opacity:1;fill-rule:nonzero;stroke:none"
               d="m 70.98,400.92 h 36 v 36.06 h -36 z" /><path
               id="path294"
               style="fill:#0000ff;fill-opacity:1;fill-rule:nonzero;stroke:none"
               d="m 70.98,436.74 h 36.24 v 0.48 H 70.98 Z" /><path
               id="path296"
               style="fill:#0000ff;fill-opacity:1;fill-rule:nonzero;stroke:none"
               d="m 106.74,400.68 h 0.48 v 36.3 h -0.48 z" /><path
               id="path298"
               style="fill:#0000ff;fill-opacity:1;fill-rule:nonzero;stroke:none"
               d="m 70.74,400.68 h 36.24 v 0.48 H 70.74 Z" /><path
               id="path300"
               style="fill:#0000ff;fill-opacity:1;fill-rule:nonzero;stroke:none"
               d="m 70.74,400.92 h 0.48 v 36.3 h -0.48 z" /><text
               id="text304"
               style="font-variant:normal;font-weight:bold;font-stretch:normal;font-size:24px;font-family:'Times LT Std';-inkscape-font-specification:TimesLTStd-Bold;writing-mode:lr-tb;fill:#ffffff;fill-opacity:1;fill-rule:nonzero;stroke:none"
               transform="matrix(1,0,0,-1,76.26,411.96)"><tspan
                 id="tspan302"
                 y="0"
                 x="0 12">14</tspan></text>
</g></g></g></g><g
       id="g306"><g
         clip-path="url(#clipPath312)"
         id="g308"><g
           id="g314"><g
             clip-path="url(#clipPath320)"
             id="g316"><path
               id="path322"
               style="fill:#0000ff;fill-opacity:1;fill-rule:nonzero;stroke:none"
               d="m 504,399.96 h 38.04 v 37.98 H 504 Z" /><path
               id="path324"
               style="fill:#0000ff;fill-opacity:1;fill-rule:nonzero;stroke:none"
               d="m 504,437.4 h 38.04 v 0.57 H 504 Z" /><path
               id="path326"
               style="fill:#0000ff;fill-opacity:1;fill-rule:nonzero;stroke:none"
               d="m 541.56,399.93 h 0.48 v 38.01 h -0.48 z" /><path
               id="path328"
               style="fill:#0000ff;fill-opacity:1;fill-rule:nonzero;stroke:none"
               d="m 503.94,399.93 h 38.1 v 0.51 h -38.1 z" /><path
               id="path330"
               style="fill:#0000ff;fill-opacity:1;fill-rule:nonzero;stroke:none"
               d="m 503.94,399.96 h 0.6 v 38.01 h -0.6 z" /></g></g></g></g><g
       id="g332"><g
         clip-path="url(#clipPath338)"
         id="g334"><g
           id="g340"><g
             clip-path="url(#clipPath346)"
             id="g342"><g
               id="g348"><g
                 clip-path="url(#clipPath354)"
                 id="g350"><path
                   id="path356"
                   style="fill:#7e7e7e;fill-opacity:1;fill-rule:nonzero;stroke:none"
                   d="m 508.92,404.28 h 28.8 v 28.8 h -28.8 z" /><path
                   id="path358"
                   style="fill:#7e7e7e;fill-opacity:1;fill-rule:nonzero;stroke:none"
                   d="m 508.92,432.54 h 28.8 v 0.57 h -28.8 z" /><path
                   id="path360"
                   style="fill:#7e7e7e;fill-opacity:1;fill-rule:nonzero;stroke:none"
                   d="m 537.24,404.25 h 0.48 v 28.83 h -0.48 z" /><path
                   id="path362"
                   style="fill:#7e7e7e;fill-opacity:1;fill-rule:nonzero;stroke:none"
                   d="m 508.86,404.25 h 28.86 v 0.51 h -28.86 z" /><path
                   id="path364"
                   style="fill:#7e7e7e;fill-opacity:1;fill-rule:nonzero;stroke:none"
                   d="m 508.86,404.28 h 0.6 v 28.83 h -0.6 z" /></g></g></g></g></g></g><g
       id="g366"><g
         clip-path="url(#clipPath372)"
         id="g368"><g
           id="g374"><g
             clip-path="url(#clipPath380)"
             id="g376"><path
               id="path382"
               style="fill:#0000ff;fill-opacity:1;fill-rule:nonzero;stroke:none"
               d="m 512.52,407.88 h 21.6 v 21.6 h -21.6 z" /><path
               id="path384"
               style="fill:#0000ff;fill-opacity:1;fill-rule:nonzero;stroke:none"
               d="m 512.52,428.94 h 22.14 v 1.02 h -22.14 z" /><path
               id="path386"
               style="fill:#0000ff;fill-opacity:1;fill-rule:nonzero;stroke:none"
               d="m 533.64,407.34 h 1.02 v 22.14 h -1.02 z" /><path
               id="path388"
               style="fill:#0000ff;fill-opacity:1;fill-rule:nonzero;stroke:none"
               d="m 512.04,407.34 h 22.08 v 1.02 h -22.08 z" /><path
               id="path390"
               style="fill:#0000ff;fill-opacity:1;fill-rule:nonzero;stroke:none"
               d="m 512.04,407.88 h 1.02 v 22.08 h -1.02 z" /><path
               id="path392"
               style="fill:#ffffff;fill-opacity:1;fill-rule:nonzero;stroke:none"
               d="m 515.16,426.24 h 16.74 v 1.02 h -16.74 z" /><path
               id="path394"
               style="fill:#ffffff;fill-opacity:1;fill-rule:nonzero;stroke:none"
               d="m 530.88,410.04 h 1.02 v 16.74 h -1.02 z" /><path
               id="path396"
               style="fill:#ffffff;fill-opacity:1;fill-rule:nonzero;stroke:none"
               d="m 514.68,410.04 h 16.68 v 1.02 h -16.68 z" /><path
               id="path398"
               style="fill:#ffffff;fill-opacity:1;fill-rule:nonzero;stroke:none"
               d="m 514.68,410.58 h 1.02 v 16.68 h -1.02 z" /><text
               id="text402"
               style="font-variant:normal;font-weight:normal;font-stretch:normal;font-size:13.97999954px;font-family:'NewCenturySchlbk LT';-inkscape-font-specification:NewCenturySchlbkLT-Roman;writing-mode:lr-tb;fill:#ffffff;fill-opacity:1;fill-rule:nonzero;stroke:none"
               transform="matrix(1,0,0,-1,517.86,413.7)"><tspan
                 id="tspan400"
                 y="0"
                 x="0">D</tspan></text>
</g></g></g></g></g></svg>