<?xml version="1.0" encoding="UTF-8" standalone="no"?>
<svg
   xmlns:dc="http://purl.org/dc/elements/1.1/"
   xmlns:cc="http://creativecommons.org/ns#"
   xmlns:rdf="http://www.w3.org/1999/02/22-rdf-syntax-ns#"
   xmlns:svg="http://www.w3.org/2000/svg"
   xmlns="http://www.w3.org/2000/svg"
   viewBox="0 0 49.309334 49.236"
   height="49.236"
   width="49.309334"
   xml:space="preserve"
   id="svg2"
   version="1.1"><metadata
     id="metadata8"><rdf:RDF><cc:Work
         rdf:about=""><dc:format>image/svg+xml</dc:format><dc:type
           rdf:resource="http://purl.org/dc/dcmitype/StillImage" /></cc:Work></rdf:RDF></metadata><defs
     id="defs6"><clipPath
       id="clipPath14"
       clipPathUnits="userSpaceOnUse"><path
         id="path12"
         d="M 0,0 H 612 V 792 H 0 Z" /></clipPath><clipPath
       id="clipPath110"
       clipPathUnits="userSpaceOnUse"><path
         style="clip-rule:evenodd"
         id="path108"
         d="M 69.96,684 H 108 V 646.02 H 69.96 Z" /></clipPath><clipPath
       id="clipPath118"
       clipPathUnits="userSpaceOnUse"><path
         id="path116"
         d="M 0,792.03 H 612 V 0.03 H 0 Z" /></clipPath><clipPath
       id="clipPath140"
       clipPathUnits="userSpaceOnUse"><path
         style="clip-rule:evenodd"
         id="path138"
         d="m 504,684 h 38.04 V 646.02 H 504 Z" /></clipPath><clipPath
       id="clipPath148"
       clipPathUnits="userSpaceOnUse"><path
         id="path146"
         d="M 0,792.03 H 612 V 0.03 H 0 Z" /></clipPath><clipPath
       id="clipPath166"
       clipPathUnits="userSpaceOnUse"><path
         style="clip-rule:evenodd"
         id="path164"
         d="m 508.62,679.44 h 28.8 v -28.8 h -28.8 z" /></clipPath><clipPath
       id="clipPath174"
       clipPathUnits="userSpaceOnUse"><path
         style="clip-rule:evenodd"
         id="path172"
         d="m 504,684 h 38.04 V 646.02 H 504 Z" /></clipPath><clipPath
       id="clipPath182"
       clipPathUnits="userSpaceOnUse"><path
         id="path180"
         d="M 0,792.03 H 612 V 0.03 H 0 Z" /></clipPath><clipPath
       id="clipPath200"
       clipPathUnits="userSpaceOnUse"><path
         style="clip-rule:evenodd"
         id="path198"
         d="m 504,684 h 38.04 V 646.02 H 504 Z" /></clipPath><clipPath
       id="clipPath208"
       clipPathUnits="userSpaceOnUse"><path
         id="path206"
         d="M 0,792.03 H 612 V 0.03 H 0 Z" /></clipPath><clipPath
       id="clipPath372"
       clipPathUnits="userSpaceOnUse"><path
         style="clip-rule:evenodd"
         id="path370"
         d="M 69.96,449.94 H 108 V 411.96 H 69.96 Z" /></clipPath><clipPath
       id="clipPath380"
       clipPathUnits="userSpaceOnUse"><path
         id="path378"
         d="M 0,792.03 H 612 V 0.03 H 0 Z" /></clipPath><clipPath
       id="clipPath402"
       clipPathUnits="userSpaceOnUse"><path
         style="clip-rule:evenodd"
         id="path400"
         d="m 504,449.94 h 38.04 V 411.96 H 504 Z" /></clipPath><clipPath
       id="clipPath410"
       clipPathUnits="userSpaceOnUse"><path
         id="path408"
         d="M 0,792.03 H 612 V 0.03 H 0 Z" /></clipPath><clipPath
       id="clipPath428"
       clipPathUnits="userSpaceOnUse"><path
         style="clip-rule:evenodd"
         id="path426"
         d="m 508.62,445.38 h 28.8 v -28.8 h -28.8 z" /></clipPath><clipPath
       id="clipPath436"
       clipPathUnits="userSpaceOnUse"><path
         style="clip-rule:evenodd"
         id="path434"
         d="m 504,449.94 h 38.04 V 411.96 H 504 Z" /></clipPath><clipPath
       id="clipPath444"
       clipPathUnits="userSpaceOnUse"><path
         id="path442"
         d="M 0,792.03 H 612 V 0.03 H 0 Z" /></clipPath><clipPath
       id="clipPath462"
       clipPathUnits="userSpaceOnUse"><path
         style="clip-rule:evenodd"
         id="path460"
         d="m 504,449.94 h 38.04 V 411.96 H 504 Z" /></clipPath><clipPath
       id="clipPath470"
       clipPathUnits="userSpaceOnUse"><path
         id="path468"
         d="M 0,792.03 H 612 V 0.03 H 0 Z" /></clipPath></defs><g
     clip-path="url(#clipPath14)"
     transform="matrix(1.3333333,0,0,-1.3333333,-672.58133,599.272)"
     id="g10"><path
       id="path16"
       style="fill:#ffffff;fill-opacity:1;fill-rule:nonzero;stroke:none"
       d="m 72,711 h 468 v 9 H 72 Z" /><path
       id="path18"
       style="fill:#ffffff;fill-opacity:1;fill-rule:nonzero;stroke:none"
       d="m 72,126 h 468 v 9 H 72 Z" /><text
       id="text22"
       style="font-style:italic;font-variant:normal;font-weight:bold;font-stretch:normal;font-size:9px;font-family:'NewCenturySchlbk LT';-inkscape-font-specification:NewCenturySchlbkLT-BoldItalic;writing-mode:lr-tb;fill:#0000ff;fill-opacity:1;fill-rule:nonzero;stroke:none"
       transform="matrix(1,0,0,-1,298.26,129.0001)"><tspan
         id="tspan20"
         y="0"
         x="0 4.9815001 8.46 11.9997">viii</tspan></text>
<text
       id="text26"
       style="font-variant:normal;font-weight:bold;font-stretch:normal;font-size:15.96000004px;font-family:'Times LT Std';-inkscape-font-specification:TimesLTStd-Bold;writing-mode:lr-tb;fill:#0000ff;fill-opacity:1;fill-rule:nonzero;stroke:none"
       transform="matrix(1,0,0,-1,234.24,673.32)"><tspan
         id="tspan24"
         y="0"
         x="0 11.545464 17.725176 23.955959 31.958303 39.066887 43.526112 51.528458 56.865479 61.324703 69.327049 76.435631 80.395309 91.062973 98.171555 106.1739 113.28249 122.17859 126.63781 135.53392">Associative Learning</tspan></text>
<text
       id="text58"
       style="font-variant:normal;font-weight:normal;font-stretch:normal;font-size:9.96000004px;font-family:'Helvetica LT';-inkscape-font-specification:HelveticaLT;writing-mode:lr-tb;fill:#000000;fill-opacity:1;fill-rule:nonzero;stroke:none"
       transform="matrix(1,0,0,-1,171,648.36)"><tspan
         id="tspan28"
         y="0"
         x="0 7.7628241 13.314528 15.539592 21.091295 26.085239 28.868065 31.093128 36.133884 41.685589 46.679531 253.86047 259.41217 264.9639 268.29453">Objectives 15-1</tspan><tspan
         id="tspan30"
         y="12.0018"
         x="0 6.1154399 11.635272 17.202911 22.770552 26.070299 31.080179 33.899857 39.419689 44.999279 50.519112 53.338787 60.01199 65.021866 70.589508 78.916069 84.435898 86.655983 92.223625 97.233505 253.83359 259.40121 264.92105 268.26761">Theory and Examples 15-2</tspan><tspan
         id="tspan32"
         y="24.003599"
         x="36.005402 42.666649 44.895695 53.210304 58.765991 60.995041 66.550728 69.310646 75.971893 81.01165 86.009583 91.565269 96.563194 98.792244 104.34793 107.13474 109.36378 114.36172 119.9174 122.67732 129.88637 135.44206 138.22887 145.43791 150.99361 154.3282 159.32614 253.8306 259.38629 264.94199 268.27658">Simple Associative Network 15-3</tspan><tspan
         id="tspan34"
         y="36.005402"
         x="36.005402 43.214447 48.770138 53.768063 59.323753 64.87944 70.435127 73.769737 78.810493 81.039543 86.037468 91.593155 97.148842 99.969513 107.17857 112.73425 118.28994 123.84563 126.60654 133.81558 139.37128 141.60033 147.15601 253.90031 259.45599 265.01169 268.34631">Unsupervised Hebb Rule 15-5</tspan><tspan
         id="tspan36"
         y="48.007198"
         x="72.010803 79.215866 84.76757 90.319275 95.870979 98.63089 105.89074 111.41057 113.63564 119.18734 121.94725 129.15231 131.37738 134.1602 139.71191 142.53159 149.73665 155.28835 160.2823 165.834 170.87376 253.79076 259.34247 264.89417 268.22479">Hebb Rule with Decay 15-7</tspan><tspan
         id="tspan38"
         y="60.008999"
         x="36.005402 42.664658 44.891712 53.204327 58.758022 60.985081 66.538773 69.298691 76.558533 82.078369 87.074303 92.627998 98.181694 103.73539 105.96245 108.74726 110.97432 116.52802 122.08171 124.84163 132.04869 137.60239 140.38719 147.64703 153.20073 156.53336 161.52928 253.81068 259.36438 264.91806 268.2507">Simple Recognition Network 15-9</tspan><tspan
         id="tspan40"
         y="72.010803"
         x="36.005402 38.787228 44.337936 49.330883 52.112713 57.663422 60.99305 63.752964 70.957031 76.507736 78.731812 84.282516 253.78081 259.33151 264.8822 268.21185 273.76254">Instar Rule 15-11</tspan><tspan
         id="tspan42"
         y="84.012604"
         x="72.000839 78.680016 84.253632 89.77346 95.347076 100.92069 106.44053 112.01414 114.77406 122.00104 127.57465 129.82162 135.39525 253.84056 259.41418 264.93402 268.28653 273.80637">Kohonen Rule 15-15</tspan><tspan
         id="tspan44"
         y="96.014397"
         x="36.005402 42.662663 44.88773 53.198353 58.750057 60.975121 66.526825 69.286743 76.546585 82.066414 87.060364 92.612061 94.837128 97.062195 99.822105 107.08195 112.60178 115.38461 122.58967 128.14137 131.472 136.46594 253.77084 259.32254 264.87424 268.20486 273.75656">Simple Recall Network 15-16</tspan><tspan
         id="tspan46"
         y="108.0162"
         x="36.005402 43.747307 49.3269 52.088806 57.128567 59.890476 65.47007 68.779778 71.539696 78.799538 84.319366 86.523514 92.103111 253.80072 259.38031 264.90015 268.26065 273.78049">Outstar Rule 15-17</tspan><tspan
         id="tspan48"
         y="120.018"
         x="0 6.6532798 12.201 20.507641 28.81428 34.362 37.688641 42.728401 45.488316 51.036037 53.855713 56.615627 63.816708 69.364426 74.354385 79.902107 82.123184 84.902031 89.891991 253.75092 259.29865 264.84637 268.173 273.72073">Summary of Results 15-21</tspan><tspan
         id="tspan50"
         y="132.01981"
         x="0 6.6582599 12.21096 14.43702 19.431959 24.984659 30.537359 33.297276 40.017288 43.317036 48.869736 54.422436 56.648495 62.201195 70.512817 75.507759 253.77084 259.32355 264.87625 268.20786 273.76056">Solved Problems 15-23</tspan><tspan
         id="tspan52"
         y="144.02161"
         x="0 6.676188 12.246816 14.490804 16.734793 22.254623 27.825253 33.345085 38.91571 253.83559 259.40622 264.92603 268.27557 273.79541">Epilogue 15-34</tspan><tspan
         id="tspan54"
         y="156.02341"
         x="0 6.1234078 11.64324 14.997768 17.757685 23.333292 28.853125 32.207653 34.967567 42.196537 47.772144 53.347752 58.867584 61.11655 66.692162 72.21199 253.8306 259.40622 264.92603 268.28058 273.80042">Further Reading 15-35</tspan><tspan
         id="tspan56"
         y="168.02521"
         x="0 6.6542759 11.645232 17.193949 20.521584 25.561344 27.783421 32.774376 38.323093 43.314049 253.79375 259.34247 264.89117 268.21881 273.76752">Exercises 15-37</tspan></text>
<text
       id="text62"
       style="font-variant:normal;font-weight:bold;font-stretch:normal;font-size:15.96000004px;font-family:'Times LT Std';-inkscape-font-specification:TimesLTStd-Bold;writing-mode:lr-tb;fill:#0000ff;fill-opacity:1;fill-rule:nonzero;stroke:none"
       transform="matrix(1,0,0,-1,229.38,426.36)"><tspan
         id="tspan60"
         y="0"
         x="0 11.542272 19.541424 32.855255 41.748169 48.853561 54.187393 58.643425 63.977257 68.433289 76.432442 83.537834 87.497505 99.03978 106.14517 111.479 123.02128 131.02043 138.12582 147.01874">Competitive Networks</tspan></text>
<text
       id="text102"
       style="font-variant:normal;font-weight:normal;font-stretch:normal;font-size:9.96000004px;font-family:'Helvetica LT';-inkscape-font-specification:HelveticaLT;writing-mode:lr-tb;fill:#000000;fill-opacity:1;fill-rule:nonzero;stroke:none"
       transform="matrix(1,0,0,-1,171,401.34)"><tspan
         id="tspan64"
         y="0"
         x="0 7.7608318 13.310544 15.533616 21.083328 26.075279 28.856112 31.079184 36.117947 41.66766 46.659611 253.83856 259.38828 264.93799 268.26663">Objectives 16-1</tspan><tspan
         id="tspan66"
         y="12.0018"
         x="0 6.1154399 11.635272 17.202911 22.770552 26.070299 31.080179 33.899857 39.419689 44.999279 50.519112 53.338787 60.01199 65.021866 70.589508 78.916069 84.435898 86.655983 92.223625 97.233505 253.83359 259.40121 264.92105 268.26761">Theory and Examples 16-2</tspan><tspan
         id="tspan68"
         y="24.003599"
         x="36.005402 43.235363 48.81197 57.147491 65.427238 67.6772 73.253807 78.830414 81.590324 88.82029 94.396896 97.156815 104.3569 109.9335 113.23325 118.25209 253.85052 259.42712 264.94696 268.30249">Hamming Network 16-3</tspan><tspan
         id="tspan70"
         y="36.005402"
         x="72.000839 77.577446 83.097275 88.116119 93.692726 97.048248 99.808167 105.328 253.8306 259.4072 264.92703 268.28256">Layer 1 16-3</tspan><tspan
         id="tspan72"
         y="48.007198"
         x="72.000839 77.577446 83.097275 88.116119 93.692726 97.048248 99.808167 105.328 253.8306 259.4072 264.92703 268.28256">Layer 2 16-4</tspan><tspan
         id="tspan74"
         y="60.008999"
         x="36.005402 43.207478 48.756191 57.063828 62.612545 68.161263 70.941093 73.16317 75.943008 78.165085 83.204842 88.753563 91.573235 97.121948 102.67067 107.66162 113.21034 116.53798 253.82063 259.36935 264.91806 268.2457">Competitive Layer 16-5</tspan><tspan
         id="tspan76"
         y="72.010803"
         x="72.010803 79.193954 84.773544 93.114044 98.633881 104.21347 106.97438 109.17754 111.93845 114.1416 119.18136 124.71115 127.53083 133.06062 138.64021 144.17 147.52951 153.1091 155.32919 160.85898 166.43857 253.80072 259.38031 264.90015 268.26065">Competitive Learning 16-7</tspan><tspan
         id="tspan78"
         y="84.012604"
         x="72.010803 78.682007 81.981758 87.547401 93.113052 95.352058 100.87189 109.2114 114.21929 117.03896 124.25797 126.49698 129.2569 134.82254 137.58246 144.80147 150.36711 158.69168 164.21152 169.77716 172.53708 174.77609 177.57286 179.81186 184.81975 190.38541 193.14531 198.71097 204.23079 209.23868 214.80434 218.1489 223.15678 253.87642 259.44208 264.96188 268.30646">Problems with Competitive Layers 16-9</tspan><tspan
         id="tspan80"
         y="96.014397"
         x="36.005402 43.208473 48.758183 57.066814 62.616528 68.166237 70.947075 73.170143 75.950974 78.174049 83.213806 88.763519 91.583199 97.132912 102.68262 107.67458 113.22428 116.55292 121.54487 124.36455 126.58762 132.13733 134.957 141.61227 143.83534 149.38506 151.60814 157.15784 162.70755 167.69951 253.86047 259.41019 264.9599 268.28854 273.83826">Competitive Layers in Biology 16-10</tspan><tspan
         id="tspan82"
         y="108.0162"
         x="36.005402 42.683578 48.256199 50.502178 53.262096 56.561844 64.361519 67.66127 73.233887 78.806511 84.32634 86.572319 91.587181 93.83316 99.352989 104.92561 107.68553 113.80595 119.37857 124.8984 127.65832 133.23094 136.58247 142.10231 144.86223 153.19377 158.76639 164.28621 169.32597 253.80072 259.37335 264.89316 268.24472 273.76456">Self-Organizing Feature Maps 16-12</tspan><tspan
         id="tspan84"
         y="120.018"
         x="72.000839 74.759758 83.098274 88.670891 91.969643 97.542267 102.55712 104.8031 110.37572 115.89456 118.71324 124.77191 130.34453 135.91714 138.67607 144.1949 147.55342 153.12604 155.88495 164.21649 169.73534 175.30795 180.32281 253.82063 259.39325 264.91211 268.26364 273.78247">Improving Feature Maps 16-15</tspan><tspan
         id="tspan86"
         y="132.01981"
         x="36.005402 41.578018 47.097851 52.670471 55.970219 61.542839 63.788818 69.308655 74.888245 77.648163 84.32634 89.898956 94.913818 97.71756 103.23739 106.59789 109.35781 117.14156 122.66138 128.23401 133.80663 136.56654 138.81252 143.82738 149.39999 152.15991 154.4059 159.97852 165.49835 253.8804 259.45303 264.97284 268.3244 273.84424">Learning Vector Quantization 16-16</tspan><tspan
         id="tspan88"
         y="144.02161"
         x="72.010803 77.588402 84.271561 92.011475 94.831154 100.35098 105.92858 111.44842 114.80494 120.38254 122.54286 128.12045 133.69806 253.82063 259.39825 264.91806 268.2746 273.79443">LVQ Learning 16-18</tspan><tspan
         id="tspan90"
         y="156.02341"
         x="72.010803 74.770714 83.110222 88.677864 91.977615 97.54525 102.55513 104.79613 110.36377 115.88361 118.70328 124.22311 130.88336 138.66212 141.42204 148.64304 154.21068 156.9706 164.23044 169.75027 173.10979 178.11966 183.12955 185.94922 189.24896 194.82855 201.50175 209.24167 214.80931 218.15587 253.8555 259.42313 264.94296 268.28952 273.80936">Improving LVQ Networks (LVQ2) 16-21</tspan><tspan
         id="tspan92"
         y="168.02521"
         x="0.0099600004 6.66324 12.21096 20.517599 28.82424 34.37196 37.698601 42.738361 45.498276 51.045998 53.865673 56.625587 63.826668 69.37439 74.364349 79.912071 82.133148 84.911987 89.901947 253.76088 259.30859 264.85632 268.18295 273.73068">Summary of Results 16-22</tspan><tspan
         id="tspan94"
         y="180.02699"
         x="0.0099600004 6.66822 12.22092 14.44698 19.441919 24.994619 30.547319 33.307236 40.027248 43.326996 48.879696 54.432396 56.658455 62.211155 70.522774 75.517715 253.78081 259.3335 264.8862 268.21783 273.77051">Solved Problems 16-24</tspan><tspan
         id="tspan96"
         y="192.02879"
         x="0.0099600004 6.6861482 12.256776 14.500764 16.744753 22.264584 27.835213 33.355045 38.925671 253.84554 259.41617 264.936 268.28555 273.80539">Epilogue 16-37</tspan><tspan
         id="tspan98"
         y="204.03059"
         x="0.0099600004 6.133368 11.6532 15.007728 17.767645 23.343252 28.863085 32.217613 34.977528 42.206497 47.782104 53.357712 58.877544 61.126511 66.702118 72.221954 253.84056 259.41617 264.936 268.29053 273.81036">Further Reading 16-38</tspan><tspan
         id="tspan100"
         y="216.03239"
         x="0.0099600004 6.6642361 11.655192 17.203909 20.531544 25.571304 27.793381 32.784336 38.333054 43.324009 253.80371 259.35242 264.90115 268.22879 273.7775">Exercises 16-39</tspan></text>
<g
       id="g104"><g
         clip-path="url(#clipPath110)"
         id="g106"><g
           id="g112"><g
             clip-path="url(#clipPath118)"
             id="g114"><path
               id="path120"
               style="fill:#0000ff;fill-opacity:1;fill-rule:nonzero;stroke:none"
               d="m 70.98,647.04 h 36 v 36 h -36 z" /><path
               id="path122"
               style="fill:#0000ff;fill-opacity:1;fill-rule:nonzero;stroke:none"
               d="m 70.98,682.8 h 36.24 v 0.48 H 70.98 Z" /><path
               id="path124"
               style="fill:#0000ff;fill-opacity:1;fill-rule:nonzero;stroke:none"
               d="m 106.74,646.8 h 0.48 v 36.24 h -0.48 z" /><path
               id="path126"
               style="fill:#0000ff;fill-opacity:1;fill-rule:nonzero;stroke:none"
               d="m 70.74,646.8 h 36.24 v 0.48 H 70.74 Z" /><path
               id="path128"
               style="fill:#0000ff;fill-opacity:1;fill-rule:nonzero;stroke:none"
               d="m 70.74,647.04 h 0.48 v 36.24 h -0.48 z" /><text
               id="text132"
               style="font-variant:normal;font-weight:bold;font-stretch:normal;font-size:24px;font-family:'Times LT Std';-inkscape-font-specification:TimesLTStd-Bold;writing-mode:lr-tb;fill:#ffffff;fill-opacity:1;fill-rule:nonzero;stroke:none"
               transform="matrix(1,0,0,-1,76.26,658.02)"><tspan
                 id="tspan130"
                 y="0"
                 x="0 12">15</tspan></text>
</g></g></g></g><g
       id="g134"><g
         clip-path="url(#clipPath140)"
         id="g136"><g
           id="g142"><g
             clip-path="url(#clipPath148)"
             id="g144"><path
               id="path150"
               style="fill:#0000ff;fill-opacity:1;fill-rule:nonzero;stroke:none"
               d="m 504.96,647.04 h 36 v 36 h -36 z" /><path
               id="path152"
               style="fill:#0000ff;fill-opacity:1;fill-rule:nonzero;stroke:none"
               d="m 504.96,682.5 h 36.54 v 1.02 h -36.54 z" /><path
               id="path154"
               style="fill:#0000ff;fill-opacity:1;fill-rule:nonzero;stroke:none"
               d="m 540.48,646.5 h 1.02 v 36.54 h -1.02 z" /><path
               id="path156"
               style="fill:#0000ff;fill-opacity:1;fill-rule:nonzero;stroke:none"
               d="m 504.48,646.5 h 36.48 v 1.02 h -36.48 z" /><path
               id="path158"
               style="fill:#0000ff;fill-opacity:1;fill-rule:nonzero;stroke:none"
               d="m 504.48,647.04 h 1.02 v 36.48 h -1.02 z" /></g></g></g></g><g
       id="g160"><g
         clip-path="url(#clipPath166)"
         id="g162"><g
           id="g168"><g
             clip-path="url(#clipPath174)"
             id="g170"><g
               id="g176"><g
                 clip-path="url(#clipPath182)"
                 id="g178"><path
                   id="path184"
                   style="fill:#7e7e7e;fill-opacity:1;fill-rule:nonzero;stroke:none"
                   d="m 508.62,650.64 h 28.8 v 28.8 h -28.8 z" /><path
                   id="path186"
                   style="fill:#7e7e7e;fill-opacity:1;fill-rule:nonzero;stroke:none"
                   d="m 508.62,678.9 h 28.8 v 0.57 h -28.8 z" /><path
                   id="path188"
                   style="fill:#7e7e7e;fill-opacity:1;fill-rule:nonzero;stroke:none"
                   d="m 536.94,650.61 h 0.48 v 28.83 h -0.48 z" /><path
                   id="path190"
                   style="fill:#7e7e7e;fill-opacity:1;fill-rule:nonzero;stroke:none"
                   d="m 508.56,650.61 h 28.86 v 0.51 h -28.86 z" /><path
                   id="path192"
                   style="fill:#7e7e7e;fill-opacity:1;fill-rule:nonzero;stroke:none"
                   d="m 508.56,650.64 h 0.6 v 28.83 h -0.6 z" /></g></g></g></g></g></g><g
       id="g194"><g
         clip-path="url(#clipPath200)"
         id="g196"><g
           id="g202"><g
             clip-path="url(#clipPath208)"
             id="g204"><path
               id="path210"
               style="fill:#0000ff;fill-opacity:1;fill-rule:nonzero;stroke:none"
               d="m 512.16,654.24 h 21.6 v 21.6 h -21.6 z" /><path
               id="path212"
               style="fill:#0000ff;fill-opacity:1;fill-rule:nonzero;stroke:none"
               d="m 512.16,675.3 h 22.14 v 1.02 h -22.14 z" /><path
               id="path214"
               style="fill:#0000ff;fill-opacity:1;fill-rule:nonzero;stroke:none"
               d="m 533.28,653.7 h 1.02 v 22.14 h -1.02 z" /><path
               id="path216"
               style="fill:#0000ff;fill-opacity:1;fill-rule:nonzero;stroke:none"
               d="m 511.68,653.7 h 22.08 v 1.02 h -22.08 z" /><path
               id="path218"
               style="fill:#0000ff;fill-opacity:1;fill-rule:nonzero;stroke:none"
               d="m 511.68,654.24 h 1.02 v 22.08 h -1.02 z" /><path
               id="path220"
               style="fill:#ffffff;fill-opacity:1;fill-rule:nonzero;stroke:none"
               d="m 527.64,660.24 h 5.4 v 2.16 h -5.4 z" /><path
               id="path222"
               style="fill:#ffffff;fill-opacity:1;fill-rule:nonzero;stroke:none"
               d="m 527.64,662.16 h 5.64 v 0.48 h -5.64 z" /><path
               id="path224"
               style="fill:#ffffff;fill-opacity:1;fill-rule:nonzero;stroke:none"
               d="m 532.8,660 h 0.48 v 2.4 h -0.48 z" /><path
               id="path226"
               style="fill:#ffffff;fill-opacity:1;fill-rule:nonzero;stroke:none"
               d="m 527.4,660 h 5.64 v 0.48 h -5.64 z" /><path
               id="path228"
               style="fill:#ffffff;fill-opacity:1;fill-rule:nonzero;stroke:none"
               d="m 527.4,660.24 h 0.48 v 2.4 h -0.48 z" /><g
               transform="translate(528.71997,661.32001)"
               id="g230"><path
                 id="path232"
                 style="fill:#ffffff;fill-opacity:1;fill-rule:evenodd;stroke:none"
                 d="M 0,0 -0.06,0.6 -0.24,1.26 C -1.544,4.133 -5.686,3.731 -6.42,0.6 L -6.48,0 -6.42,-0.66 c 0.783,-3.287 5.129,-3.38 6.18,-0.6 l 0.18,0.6 L 0,0" /></g><g
               transform="translate(528.47998,661.26001)"
               id="g234"><path
                 id="path236"
                 style="fill:#ffffff;fill-opacity:1;fill-rule:nonzero;stroke:none"
                 d="M 0,0 -0.06,0.6 -0.24,1.26 -0.18,1.2 -0.48,1.74 V 1.68 l -0.36,0.48 h 0.06 L -1.26,2.52 V 2.46 l -0.6,0.3 h 0.06 l -0.6,0.18 h 0.06 L -3,3.06 h 0.06 L -3.54,2.94 -4.2,2.76 h 0.06 L -4.68,2.46 -4.62,2.52 -5.1,2.16 -5.46,1.68 -5.4,1.74 -5.7,1.2 -5.94,0.54 V 0.6 L -6,0 v 0.06 l 0.06,-0.66 v 0.06 l 0.24,-0.6 v 0.06 l 0.3,-0.6 h -0.06 l 0.36,-0.48 v 0.06 l 0.48,-0.36 h -0.06 l 0.54,-0.3 -0.06,0.06 0.66,-0.18 0.6,-0.06 H -3 l 0.66,0.06 H -2.4 l 0.6,0.18 -0.06,-0.06 0.6,0.3 0.48,0.36 -0.06,-0.06 0.36,0.48 0.3,0.6 -0.06,-0.06 0.18,0.6 V -0.6 L 0,0.06 0.48,0 0.42,-0.66 0.24,-1.26 v -0.06 l -0.3,-0.6 -0.06,-0.06 -0.36,-0.48 -0.48,-0.36 -0.06,-0.06 -0.6,-0.3 h -0.06 c -0.818,-0.347 -1.815,-0.293 -2.64,0 h -0.06 l -0.54,0.3 v 0.06 l -0.48,0.36 h -0.06 c -1.089,1.501 -1.466,2.825 -0.36,4.44 l 0.36,0.48 0.06,0.06 0.48,0.36 0.54,0.3 0.06,0.06 0.66,0.18 0.6,0.12 h 0.12 l 0.66,-0.12 c 0.573,-0.133 1.356,-0.514 1.8,-0.9 V 2.46 l 0.36,-0.48 h 0.06 L 0.24,1.44 V 1.38 L 0.42,0.72 V 0.66 l 0.06,-0.6" /></g><g
               transform="translate(528.47998,661.32001)"
               id="g238"><path
                 id="path240"
                 style="fill:#ffffff;fill-opacity:1;fill-rule:nonzero;stroke:none"
                 d="M 0,0 V -0.06 L 0.48,0 v -0.06" /></g><g
               transform="translate(522.23999,666.12)"
               id="g242"><path
                 id="path244"
                 style="fill:#ffffff;fill-opacity:1;fill-rule:evenodd;stroke:none"
                 d="M 0,0 0.06,0.84 C 0.334,2.169 1.17,3.904 2.64,4.2 l 0.6,0.12 V 0 H 0" /></g><g
               transform="translate(522,666.12)"
               id="g246"><path
                 id="path248"
                 style="fill:#ffffff;fill-opacity:1;fill-rule:nonzero;stroke:none"
                 d="M 0,0 V -0.24 L 0.48,-0.3 v 0.24" /></g><g
               transform="translate(522,666.12)"
               id="g250"><path
                 id="path252"
                 style="fill:#ffffff;fill-opacity:1;fill-rule:nonzero;stroke:none"
                 d="M 0,0 0.06,0.84 V 0.9 L 0.3,1.74 h 0.06 l 0.3,0.72 V 2.52 L 1.02,3.12 1.5,3.66 1.56,3.72 2.1,4.14 2.16,4.2 2.34,3.72 2.4,3.78 1.86,3.36 1.38,2.82 1.44,2.88 1.08,2.28 0.78,1.56 V 1.62 L 0.54,0.78 0.48,-0.06" /></g><g
               transform="translate(524.15997,670.32001)"
               id="g254"><path
                 id="path256"
                 style="fill:#ffffff;fill-opacity:1;fill-rule:nonzero;stroke:none"
                 d="M 0,0 0.66,0.24 0.78,-0.24 H 0.84 L 0.18,-0.48" /></g><g
               transform="translate(525.41998,670.67999)"
               id="g258"><path
                 id="path260"
                 style="fill:#ffffff;fill-opacity:1;fill-rule:nonzero;stroke:none"
                 d="M 0,0 0.24,0.06 0.36,-0.42 0.12,-0.48" /></g><g
               transform="translate(524.82001,670.56)"
               id="g262"><path
                 id="path264"
                 style="fill:#ffffff;fill-opacity:1;fill-rule:nonzero;stroke:none"
                 d="M 0,0 0.12,-0.48 0.72,-0.36 0.6,0.12" /></g><g
               transform="translate(525.47998,670.44)"
               id="g266"><path
                 id="path268"
                 style="fill:#ffffff;fill-opacity:1;fill-rule:evenodd;stroke:none"
                 d="M 0,0 0.66,-0.12 C 2.132,-0.506 3.004,-2.066 3.18,-3.48 L 3.24,-4.32 H 0 V 0" /></g><g
               transform="translate(525.53998,670.67999)"
               id="g270"><path
                 id="path272"
                 style="fill:#ffffff;fill-opacity:1;fill-rule:nonzero;stroke:none"
                 d="M 0,0 H -0.24 L -0.3,-0.48 h 0.24" /></g><g
               transform="translate(525.53998,670.67999)"
               id="g274"><path
                 id="path276"
                 style="fill:#ffffff;fill-opacity:1;fill-rule:nonzero;stroke:none"
                 d="m 0,0 0.66,-0.12 0.06,-0.06 0.6,-0.24 h 0.06 l 0.6,-0.42 V -0.9 l 0.48,-0.54 h 0.06 l 0.36,-0.6 V -2.1 L 3.18,-2.82 2.7,-2.94 2.76,-3 2.46,-2.28 2.1,-1.68 V -1.74 L 1.62,-1.2 1.68,-1.26 1.08,-0.84 H 1.14 L 0.54,-0.6 H 0.6 l -0.66,0.12" /></g><g
               transform="translate(528.71997,667.85999)"
               id="g278"><path
                 id="path280"
                 style="fill:#ffffff;fill-opacity:1;fill-rule:nonzero;stroke:none"
                 d="M 0,0 0.18,-0.84 V -0.9 l -0.48,-0.06 -0.18,0.84" /></g><g
               transform="translate(528.96002,666.12)"
               id="g282"><path
                 id="path284"
                 style="fill:#ffffff;fill-opacity:1;fill-rule:nonzero;stroke:none"
                 d="M 0,0 V -0.24 L -0.48,-0.3 v 0.24" /></g><g
               transform="translate(528.90002,666.96002)"
               id="g286"><path
                 id="path288"
                 style="fill:#ffffff;fill-opacity:1;fill-rule:nonzero;stroke:none"
                 d="m 0,0 -0.48,-0.06 0.06,-0.84 0.48,0.06" /></g><path
               id="path290"
               style="fill:#ffffff;fill-opacity:1;fill-rule:nonzero;stroke:none"
               d="m 522,665.88 h 0.24 v 0.48 H 522 Z" /><path
               id="path292"
               style="fill:#ffffff;fill-opacity:1;fill-rule:nonzero;stroke:none"
               d="m 522.24,665.88 h 6.72 v 0.48 h -6.72 z" /><path
               id="path294"
               style="fill:#ffffff;fill-opacity:1;fill-rule:nonzero;stroke:none"
               d="m 524.4,667.2 h 2.16 v 6.48 h -2.16 z" /><path
               id="path296"
               style="fill:#ffffff;fill-opacity:1;fill-rule:nonzero;stroke:none"
               d="m 524.4,673.44 h 2.4 v 0.48 h -2.4 z" /><path
               id="path298"
               style="fill:#ffffff;fill-opacity:1;fill-rule:nonzero;stroke:none"
               d="m 526.32,666.96 h 0.48 v 6.72 h -0.48 z" /><path
               id="path300"
               style="fill:#ffffff;fill-opacity:1;fill-rule:nonzero;stroke:none"
               d="m 524.16,666.96 h 2.4 v 0.48 h -2.4 z" /><path
               id="path302"
               style="fill:#ffffff;fill-opacity:1;fill-rule:nonzero;stroke:none"
               d="m 524.16,667.2 h 0.48 v 6.72 h -0.48 z" /><g
               transform="translate(516.12,661.32001)"
               id="g304"><path
                 id="path306"
                 style="fill:#ffffff;fill-opacity:1;fill-rule:evenodd;stroke:none"
                 d="M 0,0 0.12,0.6 C 0.472,2.111 2.058,2.926 3.48,3.12 L 4.32,3.24 V 0 H 0" /></g><g
               transform="translate(515.88,661.38)"
               id="g308"><path
                 id="path310"
                 style="fill:#ffffff;fill-opacity:1;fill-rule:nonzero;stroke:none"
                 d="m 0,0 -0.06,-0.24 0.48,-0.12 0.06,0.24" /></g><g
               transform="translate(515.88,661.38)"
               id="g312"><path
                 id="path314"
                 style="fill:#ffffff;fill-opacity:1;fill-rule:nonzero;stroke:none"
                 d="M 0,0 0.12,0.6 0.36,1.26 0.42,1.32 0.84,1.86 V 1.92 L 1.32,2.4 H 1.38 L 2.04,2.76 H 2.1 l 0.72,0.3 V 3.12 L 2.94,2.64 H 3 L 2.28,2.34 1.62,1.98 1.68,2.04 1.2,1.56 0.78,1.02 0.84,1.08 0.6,0.42 v 0.06 l -0.12,-0.6" /></g><g
               transform="translate(518.70001,664.5)"
               id="g316"><path
                 id="path318"
                 style="fill:#ffffff;fill-opacity:1;fill-rule:nonzero;stroke:none"
                 d="M 0,0 0.84,0.18 H 0.9 L 0.96,-0.3 0.12,-0.48" /></g><g
               transform="translate(520.44,664.79999)"
               id="g320"><path
                 id="path322"
                 style="fill:#ffffff;fill-opacity:1;fill-rule:nonzero;stroke:none"
                 d="M 0,0 H 0.24 L 0.3,-0.48 H 0.06" /></g><g
               transform="translate(519.59998,664.67999)"
               id="g324"><path
                 id="path326"
                 style="fill:#ffffff;fill-opacity:1;fill-rule:nonzero;stroke:none"
                 d="M 0,0 0.06,-0.48 0.9,-0.36 0.84,0.12" /></g><g
               transform="translate(520.44,658.08002)"
               id="g328"><path
                 id="path330"
                 style="fill:#ffffff;fill-opacity:1;fill-rule:evenodd;stroke:none"
                 d="M 0,0 -0.84,0.06 C -2.38,0.309 -3.721,0.993 -4.2,2.58 L -4.32,3.24 H 0 V 0" /></g><g
               transform="translate(520.44,657.84003)"
               id="g332"><path
                 id="path334"
                 style="fill:#ffffff;fill-opacity:1;fill-rule:nonzero;stroke:none"
                 d="M 0,0 H 0.24 L 0.3,0.48 H 0.06" /></g><g
               transform="translate(520.44,657.84003)"
               id="g336"><path
                 id="path338"
                 style="fill:#ffffff;fill-opacity:1;fill-rule:nonzero;stroke:none"
                 d="m 0,0 -0.84,0.06 c -1.294,0.188 -2.678,0.729 -3.3,1.98 V 2.1 l 0.42,0.18 V 2.34 L -3.3,1.74 -3.36,1.8 -2.88,1.32 h -0.06 l 0.66,-0.36 0.72,-0.3 -0.06,0.06 0.84,-0.18 0.84,-0.06" /></g><g
               transform="translate(516.29999,659.94)"
               id="g340"><path
                 id="path342"
                 style="fill:#ffffff;fill-opacity:1;fill-rule:nonzero;stroke:none"
                 d="M 0,0 -0.24,0.6 -0.3,0.66 0.18,0.72 v 0.06 l 0.24,-0.6" /></g><g
               transform="translate(515.88,661.26001)"
               id="g344"><path
                 id="path346"
                 style="fill:#ffffff;fill-opacity:1;fill-rule:nonzero;stroke:none"
                 d="M 0,0 V 0.24 L 0.48,0.3 V 0.06" /></g><g
               transform="translate(516,660.59998)"
               id="g348"><path
                 id="path350"
                 style="fill:#ffffff;fill-opacity:1;fill-rule:nonzero;stroke:none"
                 d="M 0,0 0.48,0.06 0.36,0.72 -0.12,0.66" /></g><path
               id="path352"
               style="fill:#ffffff;fill-opacity:1;fill-rule:nonzero;stroke:none"
               d="m 520.2,664.56 h 0.48 v 0.24 h -0.48 z" /><path
               id="path354"
               style="fill:#ffffff;fill-opacity:1;fill-rule:nonzero;stroke:none"
               d="m 520.2,657.84 h 0.48 v 6.72 h -0.48 z" /><path
               id="path356"
               style="fill:#ffffff;fill-opacity:1;fill-rule:nonzero;stroke:none"
               d="m 512.88,660.24 h 6.48 v 2.16 h -6.48 z" /><path
               id="path358"
               style="fill:#ffffff;fill-opacity:1;fill-rule:nonzero;stroke:none"
               d="m 512.88,662.16 h 6.72 v 0.48 h -6.72 z" /><path
               id="path360"
               style="fill:#ffffff;fill-opacity:1;fill-rule:nonzero;stroke:none"
               d="m 519.12,660 h 0.48 v 2.4 h -0.48 z" /><path
               id="path362"
               style="fill:#ffffff;fill-opacity:1;fill-rule:nonzero;stroke:none"
               d="m 512.64,660 h 6.72 v 0.48 h -6.72 z" /><path
               id="path364"
               style="fill:#ffffff;fill-opacity:1;fill-rule:nonzero;stroke:none"
               d="m 512.64,660.24 h 0.48 v 2.4 h -0.48 z" /></g></g></g></g><g
       id="g366"><g
         clip-path="url(#clipPath372)"
         id="g368"><g
           id="g374"><g
             clip-path="url(#clipPath380)"
             id="g376"><path
               id="path382"
               style="fill:#0000ff;fill-opacity:1;fill-rule:nonzero;stroke:none"
               d="m 70.98,412.98 h 36 v 36 h -36 z" /><path
               id="path384"
               style="fill:#0000ff;fill-opacity:1;fill-rule:nonzero;stroke:none"
               d="m 70.98,448.74 h 36.24 v 0.48 H 70.98 Z" /><path
               id="path386"
               style="fill:#0000ff;fill-opacity:1;fill-rule:nonzero;stroke:none"
               d="m 106.74,412.74 h 0.48 v 36.24 h -0.48 z" /><path
               id="path388"
               style="fill:#0000ff;fill-opacity:1;fill-rule:nonzero;stroke:none"
               d="m 70.74,412.74 h 36.24 v 0.48 H 70.74 Z" /><path
               id="path390"
               style="fill:#0000ff;fill-opacity:1;fill-rule:nonzero;stroke:none"
               d="m 70.74,412.98 h 0.48 v 36.24 h -0.48 z" /><text
               id="text394"
               style="font-variant:normal;font-weight:bold;font-stretch:normal;font-size:24px;font-family:'Times LT Std';-inkscape-font-specification:TimesLTStd-Bold;writing-mode:lr-tb;fill:#ffffff;fill-opacity:1;fill-rule:nonzero;stroke:none"
               transform="matrix(1,0,0,-1,76.26,423.96)"><tspan
                 id="tspan392"
                 y="0"
                 x="0 12">16</tspan></text>
</g></g></g></g><g
       id="g396"><g
         clip-path="url(#clipPath402)"
         id="g398"><g
           id="g404"><g
             clip-path="url(#clipPath410)"
             id="g406"><path
               id="path412"
               style="fill:#0000ff;fill-opacity:1;fill-rule:nonzero;stroke:none"
               d="m 504.96,412.98 h 36 v 36 h -36 z" /><path
               id="path414"
               style="fill:#0000ff;fill-opacity:1;fill-rule:nonzero;stroke:none"
               d="m 504.96,448.44 h 36.54 v 1.02 h -36.54 z" /><path
               id="path416"
               style="fill:#0000ff;fill-opacity:1;fill-rule:nonzero;stroke:none"
               d="m 540.48,412.44 h 1.02 v 36.54 h -1.02 z" /><path
               id="path418"
               style="fill:#0000ff;fill-opacity:1;fill-rule:nonzero;stroke:none"
               d="m 504.48,412.44 h 36.48 v 1.02 h -36.48 z" /><path
               id="path420"
               style="fill:#0000ff;fill-opacity:1;fill-rule:nonzero;stroke:none"
               d="m 504.48,412.98 h 1.02 v 36.48 h -1.02 z" /></g></g></g></g><g
       id="g422"><g
         clip-path="url(#clipPath428)"
         id="g424"><g
           id="g430"><g
             clip-path="url(#clipPath436)"
             id="g432"><g
               id="g438"><g
                 clip-path="url(#clipPath444)"
                 id="g440"><path
                   id="path446"
                   style="fill:#7e7e7e;fill-opacity:1;fill-rule:nonzero;stroke:none"
                   d="m 508.62,416.58 h 28.8 v 28.8 h -28.8 z" /><path
                   id="path448"
                   style="fill:#7e7e7e;fill-opacity:1;fill-rule:nonzero;stroke:none"
                   d="m 508.62,444.84 h 28.8 v 0.57 h -28.8 z" /><path
                   id="path450"
                   style="fill:#7e7e7e;fill-opacity:1;fill-rule:nonzero;stroke:none"
                   d="m 536.94,416.55 h 0.48 v 28.83 h -0.48 z" /><path
                   id="path452"
                   style="fill:#7e7e7e;fill-opacity:1;fill-rule:nonzero;stroke:none"
                   d="m 508.56,416.55 h 28.86 v 0.51 h -28.86 z" /><path
                   id="path454"
                   style="fill:#7e7e7e;fill-opacity:1;fill-rule:nonzero;stroke:none"
                   d="m 508.56,416.58 h 0.6 v 28.83 h -0.6 z" /></g></g></g></g></g></g><g
       id="g456"><g
         clip-path="url(#clipPath462)"
         id="g458"><g
           id="g464"><g
             clip-path="url(#clipPath470)"
             id="g466"><path
               id="path472"
               style="fill:#0000ff;fill-opacity:1;fill-rule:nonzero;stroke:none"
               d="m 512.22,420.18 h 21.6 v 21.6 h -21.6 z" /><path
               id="path474"
               style="fill:#0000ff;fill-opacity:1;fill-rule:nonzero;stroke:none"
               d="m 512.22,441.24 h 22.14 v 1.02 h -22.14 z" /><path
               id="path476"
               style="fill:#0000ff;fill-opacity:1;fill-rule:nonzero;stroke:none"
               d="m 533.34,419.64 h 1.02 v 22.14 h -1.02 z" /><path
               id="path478"
               style="fill:#0000ff;fill-opacity:1;fill-rule:nonzero;stroke:none"
               d="m 511.74,419.64 h 22.08 v 1.02 h -22.08 z" /><path
               id="path480"
               style="fill:#0000ff;fill-opacity:1;fill-rule:nonzero;stroke:none"
               d="m 511.74,420.18 h 1.02 v 22.08 h -1.02 z" /><g
               transform="translate(519.12,432.66)"
               id="g482"><path
                 id="path484"
                 style="fill:#ffffff;fill-opacity:1;fill-rule:evenodd;stroke:none"
                 d="M 0,0 V 0.3 L -0.06,0.6 C -0.786,3.969 -5.584,3.699 -5.94,0.3 L -6,0 -5.94,-0.3 c 0.356,-3.399 5.154,-3.669 5.88,-0.3 L 0,-0.3 V 0" /></g><g
               transform="translate(518.64001,432.66)"
               id="g486"><path
                 id="path488"
                 style="fill:#ffffff;fill-opacity:1;fill-rule:nonzero;stroke:none"
                 d="M 0,0 V 0.3 0.18 L -0.06,0.48 -0.12,0.78 -0.06,0.66 -0.18,0.9 -0.24,0.96 -0.36,1.26 -0.3,1.2 -0.42,1.44 V 1.38 L -0.6,1.62 -0.54,1.56 -0.96,1.98 -0.84,1.86 -1.08,1.98 -1.14,2.04 -1.38,2.22 -1.32,2.16 -1.56,2.28 h 0.06 l -0.3,0.12 0.12,-0.06 -0.6,0.12 h 0.06 -0.6 0.12 L -3.3,2.34 -3.18,2.4 -3.66,2.16 H -3.6 L -3.9,1.98 V 2.04 L -4.08,1.92 -4.02,1.98 -4.44,1.56 -4.38,1.62 -4.74,1.14 -4.68,1.26 -4.8,0.96 V 1.02 L -4.86,0.78 V 0.72 L -4.98,0.42 -4.92,0.6 V 0.18 l -0.06,-0.3 v 0.18 l 0.06,-0.3 V -0.6 l -0.06,0.18 0.12,-0.3 v -0.06 l 0.06,-0.24 v 0.06 l 0.12,-0.3 -0.06,0.12 0.36,-0.48 -0.06,0.06 0.42,-0.42 -0.06,0.06 -0.54,-0.84 -0.12,0.06 c -0.335,0.313 -0.986,0.969 -1.02,1.44 l -0.06,0.24 v -0.06 l -0.12,0.3 V -0.3 -0.42 L -6,-0.12 v 0.18 l 0.06,0.3 V 0.3 0.78 l 0.12,0.3 V 1.02 l 0.06,0.24 v 0.06 c 0.305,0.855 1.051,1.492 1.86,1.86 l 0.24,0.12 0.18,0.06 c 0.852,0.219 1.895,0.193 2.64,-0.3 h 0.06 L -0.54,2.88 H -0.6 L -0.24,2.7 0.24,2.22 0.42,1.98 0.48,1.92 0.6,1.68 V 1.62 L 0.72,1.32 V 1.38 L 0.84,1.14 0.9,0.96 0.96,0.66 1.02,0.36 V 0" /></g><g
               transform="translate(514.56,430.73999)"
               id="g490"><path
                 id="path492"
                 style="fill:#ffffff;fill-opacity:1;fill-rule:nonzero;stroke:none"
                 d="M 0,0 0.18,-0.12 0.48,-0.3 H 0.42 L 0.9,-0.54 0.78,-0.48 1.38,-0.6 H 1.26 1.86 1.8 l 0.6,0.12 H 2.28 l 0.3,0.12 -0.06,-0.06 0.24,0.12 H 2.7 l 0.24,0.18 H 3 L 3.24,0 3.12,-0.06 3.54,0.36 3.48,0.3 3.66,0.54 V 0.48 L 3.78,0.72 3.72,0.66 3.84,0.96 3.9,1.02 4.02,1.26 3.96,1.08 4.02,1.38 4.08,1.68 V 1.62 1.92 H 5.1 V 1.5 L 5.04,1.2 4.98,0.9 4.92,0.78 4.8,0.54 V 0.6 L 4.68,0.3 C 4.683,-0.024 3.923,-0.682 3.72,-0.9 L 3.48,-1.02 3.54,-0.96 3.3,-1.14 3.24,-1.2 C 2.768,-1.406 2.511,-1.547 1.98,-1.62 H 1.56 c -0.332,-0.044 -1.115,0.111 -1.38,0.3 l -0.24,0.12 -0.3,0.18 v 0.06 l -0.18,0.12" /></g><g
               transform="translate(517.08002,429.60001)"
               id="g494"><path
                 id="path496"
                 style="fill:#ffffff;fill-opacity:1;fill-rule:evenodd;stroke:none"
                 d="M 0,0 1.62,-3.24 2.94,-2.7 1.26,0.66" /></g><g
               transform="translate(517.20001,429.66)"
               id="g498"><path
                 id="path500"
                 style="fill:#ffffff;fill-opacity:1;fill-rule:nonzero;stroke:none"
                 d="M 0,0 1.62,-3.24 1.56,-3.42 1.44,-3.18 2.76,-2.64 2.94,-2.7 2.7,-2.82 1.02,0.54 1.08,0.72 1.2,0.78 3,-2.82 2.88,-2.88 1.56,-3.42 1.44,-3.48 -0.24,-0.12" /></g><g
               transform="translate(518.40002,430.14001)"
               id="g502"><path
                 id="path504"
                 style="fill:#ffffff;fill-opacity:1;fill-rule:nonzero;stroke:none"
                 d="m 0,0 -1.26,-0.66 -0.18,0.06 -0.06,0.12 0.12,0.06 1.26,0.66" /></g><g
               transform="translate(524.52002,432.89999)"
               id="g506"><path
                 id="path508"
                 style="fill:#ffffff;fill-opacity:1;fill-rule:evenodd;stroke:none"
                 d="M 0,0 -0.06,0.3 -0.24,0.6 -0.54,0.78 -0.84,0.84 -1.2,0.78 -1.44,0.6 -1.62,0.3 -1.68,0 -1.62,-0.36 c 0.315,-0.572 0.9,-0.62 1.38,-0.24 L -0.06,-0.36 0,0" /></g><g
               transform="translate(524.40002,432.84)"
               id="g510"><path
                 id="path512"
                 style="fill:#ffffff;fill-opacity:1;fill-rule:nonzero;stroke:none"
                 d="M 0,0 -0.06,0.3 H 0 L -0.18,0.6 V 0.54 l -0.3,0.18 h 0.06 l -0.3,0.06 h 0.06 L -1.02,0.72 -1.26,0.54 -1.2,0.6 -1.38,0.3 -1.44,0 v 0.06 l 0.06,-0.36 v 0.06 l 0.18,-0.24 h -0.06 l 0.24,-0.18 v 0.06 l 0.36,-0.06 h -0.06 l 0.3,0.06 -0.06,-0.06 0.3,0.18 L 0,-0.24 -0.06,-0.3 0,0.06 0.24,0 0.18,-0.36 0,-0.6 -0.06,-0.66 -0.36,-0.84 -0.66,-0.9 h -0.06 l -0.36,0.06 h -0.06 l -0.24,0.18 v 0.06 l -0.18,0.24 H -1.62 L -1.68,0 c 0.012,0.511 0.463,1.08 1.02,1.02 l 0.3,-0.06 V 0.9 l 0.3,-0.18 H 0 L 0.18,0.42 V 0.36 l 0.06,-0.3" /></g><g
               transform="translate(524.40002,432.89999)"
               id="g514"><path
                 id="path516"
                 style="fill:#ffffff;fill-opacity:1;fill-rule:nonzero;stroke:none"
                 d="M 0,0 V -0.06 L 0.24,0 v -0.06" /></g><g
               transform="translate(520.73999,434.04001)"
               id="g518"><path
                 id="path520"
                 style="fill:#ffffff;fill-opacity:1;fill-rule:nonzero;stroke:none"
                 d="m 0,0 h -0.12 l -0.06,-0.24 h 0.12" /></g><g
               transform="translate(522,433.79999)"
               id="g522"><path
                 id="path524"
                 style="fill:#ffffff;fill-opacity:1;fill-rule:nonzero;stroke:none"
                 d="M 0,0 H 0.12 L 0.06,-0.24 h -0.12" /></g><g
               transform="translate(520.73999,434.04001)"
               id="g526"><path
                 id="path528"
                 style="fill:#ffffff;fill-opacity:1;fill-rule:nonzero;stroke:none"
                 d="M 0,0 -0.06,-0.24 1.2,-0.48 1.26,-0.24" /></g><g
               transform="translate(520.62,432.54001)"
               id="g530"><path
                 id="path532"
                 style="fill:#ffffff;fill-opacity:1;fill-rule:nonzero;stroke:none"
                 d="m 0,0 h -0.12 l 0.06,-0.24 h 0.12" /></g><g
               transform="translate(522,432.72)"
               id="g534"><path
                 id="path536"
                 style="fill:#ffffff;fill-opacity:1;fill-rule:nonzero;stroke:none"
                 d="M 0,0 H 0.12 L 0.18,-0.24 H 0.06" /></g><g
               transform="translate(520.62,432.54001)"
               id="g538"><path
                 id="path540"
                 style="fill:#ffffff;fill-opacity:1;fill-rule:nonzero;stroke:none"
                 d="M 0,0 0.06,-0.24 1.44,-0.06 1.38,0.18" /></g><g
               transform="translate(532.97998,432.66)"
               id="g542"><path
                 id="path544"
                 style="fill:#ffffff;fill-opacity:1;fill-rule:evenodd;stroke:none"
                 d="M 0,0 -0.06,0.3 V 0.6 C -0.964,4.005 -5.562,3.682 -6,0.3 v -0.6 c 0.438,-3.382 5.036,-3.705 5.94,-0.3 v 0.3 L 0,0" /></g><g
               transform="translate(532.5,432.54001)"
               id="g546"><path
                 id="path548"
                 style="fill:#ffffff;fill-opacity:1;fill-rule:nonzero;stroke:none"
                 d="M 0,0 -0.06,0.3 V 0.72 0.54 l -0.12,0.3 V 0.9 L -0.24,1.14 V 1.08 L -0.36,1.38 -0.3,1.26 -0.66,1.74 -0.6,1.68 -1.02,2.1 -0.9,2.04 -1.08,2.16 V 2.1 l -0.3,0.18 -0.24,0.12 h 0.06 l -0.3,0.12 h 0.06 l -0.24,0.06 0.06,-0.06 -0.3,0.06 h 0.06 -0.66 0.12 L -3.06,2.52 V 2.58 L -3.3,2.52 h 0.06 L -3.54,2.4 h 0.06 L -3.72,2.28 -3.66,2.34 -3.9,2.16 -3.96,2.1 -4.2,1.98 -4.08,2.1 -4.5,1.68 -4.44,1.74 -4.62,1.5 -4.56,1.56 -4.68,1.32 V 1.26 L -4.86,0.96 V 1.14 L -4.92,0.9 h 0.06 L -4.92,0.6 -4.98,0.3 v 0.12 -0.6 0.06 l 0.06,-0.3 0.06,-0.3 -0.06,0.06 0.06,-0.24 v 0.12 l 0.18,-0.3 0.12,-0.24 -0.06,0.06 0.18,-0.24 -0.06,0.06 0.42,-0.42 -0.12,0.06 -0.48,-0.9 -0.6,0.6 -0.18,0.24 v 0.06 l -0.12,0.24 v -0.06 l -0.18,0.3 -0.06,0.18 c -0.17,0.62 -0.269,1.285 -0.12,1.92 l 0.06,0.3 v 0.06 l 0.06,0.24 0.06,0.12 0.18,0.3 0.12,0.24 V 2.1 L -5.28,2.34 -4.8,2.82 -4.44,3 H -4.5 l 0.24,0.18 h 0.06 c 0.716,0.481 1.824,0.532 2.64,0.3 H -1.5 L -1.2,3.36 -1.14,3.3 -0.9,3.18 h 0.06 L -0.54,3 -0.36,2.88 -0.06,2.58 C 0.14,2.413 0.502,1.954 0.6,1.74 L 0.72,1.44 V 1.38 L 0.78,1.14 V 1.2 L 0.9,0.9 0.96,0.72 v -0.3 0.06 l 0.06,-0.3" /></g><g
               transform="translate(528.29999,430.73999)"
               id="g550"><path
                 id="path552"
                 style="fill:#ffffff;fill-opacity:1;fill-rule:nonzero;stroke:none"
                 d="M 0,0 0.24,-0.12 H 0.3 L 0.54,-0.3 H 0.48 l 0.24,-0.12 -0.06,0.06 0.3,-0.12 H 0.9 L 1.14,-0.54 1.44,-0.6 H 1.32 1.98 1.92 l 0.3,0.06 H 2.16 L 2.4,-0.48 H 2.34 l 0.3,0.12 -0.06,-0.06 0.24,0.12 0.3,0.18 L 3.3,0 3.18,-0.06 3.6,0.36 3.54,0.3 3.9,0.78 3.84,0.66 3.96,0.96 V 0.9 L 4.02,1.14 V 1.2 L 4.14,1.5 V 1.32 1.68 L 4.2,1.98 V 1.8 L 5.22,1.98 V 1.8 L 5.16,1.5 V 1.62 1.32 L 5.1,1.14 4.98,0.84 V 0.9 L 4.92,0.66 C 4.874,0.151 4.194,-0.501 3.84,-0.84 L 3.66,-0.96 V -1.02 L 3.36,-1.2 H 3.3 L 3.06,-1.32 H 3 L 2.7,-1.44 H 2.64 L 2.4,-1.5 V -1.56 L 2.1,-1.62 H 1.26 L 0.96,-1.56 0.9,-1.5 0.66,-1.44 H 0.6 L 0.3,-1.32 H 0.24 L 0,-1.2 l -0.06,0.06 -0.24,0.18 0.06,-0.06 -0.24,0.12" /></g><g
               transform="translate(529.02002,429.60001)"
               id="g554"><path
                 id="path556"
                 style="fill:#ffffff;fill-opacity:1;fill-rule:evenodd;stroke:none"
                 d="m 0,0 -1.62,-3.24 -1.32,0.54 1.68,3.36" /></g><g
               transform="translate(529.14001,429.54001)"
               id="g558"><path
                 id="path560"
                 style="fill:#ffffff;fill-opacity:1;fill-rule:nonzero;stroke:none"
                 d="m 0,0 -1.68,-3.36 -0.12,0.06 -1.32,0.54 -0.12,0.06 1.8,3.6 0.12,-0.06 0.06,-0.18 -1.68,-3.36 -0.24,0.12 0.18,0.06 1.32,-0.54 -0.12,-0.24 -0.06,0.18 1.62,3.24" /></g><g
               transform="translate(527.82001,430.38)"
               id="g562"><path
                 id="path564"
                 style="fill:#ffffff;fill-opacity:1;fill-rule:nonzero;stroke:none"
                 d="M 0,0 1.26,-0.66 1.38,-0.72 1.32,-0.84 1.14,-0.9 -0.12,-0.24" /></g></g></g></g></g></g></svg>