<?xml version="1.0" encoding="UTF-8" standalone="no"?>
<svg
   xmlns:dc="http://purl.org/dc/elements/1.1/"
   xmlns:cc="http://creativecommons.org/ns#"
   xmlns:rdf="http://www.w3.org/1999/02/22-rdf-syntax-ns#"
   xmlns:svg="http://www.w3.org/2000/svg"
   xmlns="http://www.w3.org/2000/svg"
   viewBox="0 0 49.454666 49.236"
   height="49.236"
   width="49.454666"
   xml:space="preserve"
   id="svg2"
   version="1.1"><metadata
     id="metadata8"><rdf:RDF><cc:Work
         rdf:about=""><dc:format>image/svg+xml</dc:format><dc:type
           rdf:resource="http://purl.org/dc/dcmitype/StillImage" /></cc:Work></rdf:RDF></metadata><defs
     id="defs6"><clipPath
       id="clipPath14"
       clipPathUnits="userSpaceOnUse"><path
         id="path12"
         d="M 0,0 H 612 V 792 H 0 Z" /></clipPath><clipPath
       id="clipPath110"
       clipPathUnits="userSpaceOnUse"><path
         style="clip-rule:evenodd"
         id="path108"
         d="M 69.96,684 H 108 V 646.02 H 69.96 Z" /></clipPath><clipPath
       id="clipPath118"
       clipPathUnits="userSpaceOnUse"><path
         id="path116"
         d="M 0,792.03 H 612 V 0.03 H 0 Z" /></clipPath><clipPath
       id="clipPath140"
       clipPathUnits="userSpaceOnUse"><path
         style="clip-rule:evenodd"
         id="path138"
         d="m 504,684 h 38.04 V 646.02 H 504 Z" /></clipPath><clipPath
       id="clipPath148"
       clipPathUnits="userSpaceOnUse"><path
         id="path146"
         d="M 0,792.03 H 612 V 0.03 H 0 Z" /></clipPath><clipPath
       id="clipPath166"
       clipPathUnits="userSpaceOnUse"><path
         style="clip-rule:evenodd"
         id="path164"
         d="m 508.86,678.9 h 28.8 v -28.8 h -28.8 z" /></clipPath><clipPath
       id="clipPath174"
       clipPathUnits="userSpaceOnUse"><path
         style="clip-rule:evenodd"
         id="path172"
         d="m 504,684 h 38.04 V 646.02 H 504 Z" /></clipPath><clipPath
       id="clipPath182"
       clipPathUnits="userSpaceOnUse"><path
         id="path180"
         d="M 0,792.03 H 612 V 0.03 H 0 Z" /></clipPath><clipPath
       id="clipPath200"
       clipPathUnits="userSpaceOnUse"><path
         style="clip-rule:evenodd"
         id="path198"
         d="m 504,684 h 38.04 V 646.02 H 504 Z" /></clipPath><clipPath
       id="clipPath208"
       clipPathUnits="userSpaceOnUse"><path
         id="path206"
         d="M 0,792.03 H 612 V 0.03 H 0 Z" /></clipPath><clipPath
       id="clipPath258"
       clipPathUnits="userSpaceOnUse"><path
         style="clip-rule:evenodd"
         id="path256"
         d="M 69.96,425.94 H 108 V 387.96 H 69.96 Z" /></clipPath><clipPath
       id="clipPath266"
       clipPathUnits="userSpaceOnUse"><path
         id="path264"
         d="M 0,792.03 H 612 V 0.03 H 0 Z" /></clipPath><clipPath
       id="clipPath288"
       clipPathUnits="userSpaceOnUse"><path
         style="clip-rule:evenodd"
         id="path286"
         d="m 504,425.94 h 38.04 V 387.96 H 504 Z" /></clipPath><clipPath
       id="clipPath296"
       clipPathUnits="userSpaceOnUse"><path
         id="path294"
         d="M 0,792.03 H 612 V 0.03 H 0 Z" /></clipPath><clipPath
       id="clipPath314"
       clipPathUnits="userSpaceOnUse"><path
         style="clip-rule:evenodd"
         id="path312"
         d="m 508.62,421.38 h 28.8 v -28.8 h -28.8 z" /></clipPath><clipPath
       id="clipPath322"
       clipPathUnits="userSpaceOnUse"><path
         style="clip-rule:evenodd"
         id="path320"
         d="m 504,425.94 h 38.04 V 387.96 H 504 Z" /></clipPath><clipPath
       id="clipPath330"
       clipPathUnits="userSpaceOnUse"><path
         id="path328"
         d="M 0,792.03 H 612 V 0.03 H 0 Z" /></clipPath><clipPath
       id="clipPath348"
       clipPathUnits="userSpaceOnUse"><path
         style="clip-rule:evenodd"
         id="path346"
         d="m 504,425.94 h 38.04 V 387.96 H 504 Z" /></clipPath><clipPath
       id="clipPath356"
       clipPathUnits="userSpaceOnUse"><path
         id="path354"
         d="M 0,792.03 H 612 V 0.03 H 0 Z" /></clipPath></defs><g
     clip-path="url(#clipPath14)"
     transform="matrix(1.3333333,0,0,-1.3333333,-672.58133,567.272)"
     id="g10"><path
       id="path16"
       style="fill:#ffffff;fill-opacity:1;fill-rule:nonzero;stroke:none"
       d="m 72,711 h 468 v 9 H 72 Z" /><path
       id="path18"
       style="fill:#ffffff;fill-opacity:1;fill-rule:nonzero;stroke:none"
       d="m 72,126 h 468 v 9 H 72 Z" /><text
       id="text22"
       style="font-style:italic;font-variant:normal;font-weight:bold;font-stretch:normal;font-size:9px;font-family:'NewCenturySchlbk LT';-inkscape-font-specification:NewCenturySchlbkLT-BoldItalic;writing-mode:lr-tb;fill:#0000ff;fill-opacity:1;fill-rule:nonzero;stroke:none"
       transform="matrix(1,0,0,-1,301.68,129.0001)"><tspan
         id="tspan20"
         y="0"
         x="0 3.4802999">ix</tspan></text>
<text
       id="text26"
       style="font-variant:normal;font-weight:bold;font-stretch:normal;font-size:15.96000004px;font-family:'Times LT Std';-inkscape-font-specification:TimesLTStd-Bold;writing-mode:lr-tb;fill:#0000ff;fill-opacity:1;fill-rule:nonzero;stroke:none"
       transform="matrix(1,0,0,-1,228.72,673.32)"><tspan
         id="tspan24"
         y="0"
         x="0 11.540676 19.538233 28.429548 32.883984 40.881538 45.335976 49.3563 60.019176 68.016731 74.242729 78.697166 84.923157 88.943481 100.48416 107.58796 112.92019 124.46087 132.45842 139.56223 148.45354">Radial Basis Networks</tspan></text>
<text
       id="text62"
       style="font-variant:normal;font-weight:normal;font-stretch:normal;font-size:9.96000004px;font-family:'Helvetica LT';-inkscape-font-specification:HelveticaLT;writing-mode:lr-tb;fill:#000000;fill-opacity:1;fill-rule:nonzero;stroke:none"
       transform="matrix(1,0,0,-1,171,648.36)"><tspan
         id="tspan28"
         y="0"
         x="0 7.7618279 13.312536 15.536604 21.087313 26.080259 28.862087 31.086157 36.125916 41.676624 46.669571 253.84952 259.40024 264.95093 268.28058">Objectives 17-1</tspan><tspan
         id="tspan30"
         y="12.0018"
         x="0 6.1154399 11.635272 17.202911 22.770552 26.070299 31.080179 33.899857 39.419689 44.999279 50.519112 53.338787 60.01199 65.021866 70.589508 78.916069 84.435898 86.655983 92.223625 97.233505 253.83359 259.40121 264.92105 268.26761">Theory and Examples 17-2</tspan><tspan
         id="tspan32"
         y="24.003599"
         x="36.005402 43.232376 48.805992 54.325825 56.54591 62.119522 64.366501 67.126419 73.805595 79.379211 84.395065 86.642036 91.657898 94.417809 101.64479 107.21841 109.97832 117.17841 122.75202 126.05177 131.06763 253.89037 259.46399 264.9838 268.33633">Radial Basis Network 17-2</tspan><tspan
         id="tspan34"
         y="36.005402"
         x="72.010803 78.128235 83.648064 89.217697 94.229568 97.030319 99.273315 104.79314 110.37273 113.13265 119.80785 125.37748 130.89731 134.25682 139.82645 144.83832 147.08131 155.40987 160.9297 163.68961 165.9326 171.50224 177.07187 253.87044 259.44006 264.9599 268.30844">Function Approximation 17-4</tspan><tspan
         id="tspan36"
         y="48.007198"
         x="72.010803 78.651131 84.230721 86.996613 89.762505 95.342102 98.655792 104.23538 106.9953 114.25514 116.47523 122.01 126.98701 132.02678 134.24686 137.01274 139.22089 144.19789 149.77748 152.54338 154.75151 160.3311 165.85094 253.81068 259.39026 264.9101 268.2706">Pattern Classification 17-6</tspan><tspan
         id="tspan38"
         y="60.008999"
         x="72.010803 79.810478 81.970802 87.522507 93.074211 98.625916 100.85098 103.67065 108.6646 113.65854 116.47822 119.23813 124.78983 130.34154 135.33548 140.88719 143.11226 253.81068 259.3624 264.91409 268.24472">Global vs. Local 17-9</tspan><tspan
         id="tspan40"
         y="72.010803"
         x="36.005402 42.127811 45.427559 51.002171 53.250145 58.769978 60.990059 66.564674 72.139282 74.8992 82.127174 88.807343 94.929756 97.689674 104.91764 110.43748 113.24321 120.47118 125.99101 129.35152 134.36836 139.38522 253.86047 259.43509 264.95493 268.30844 273.82828">Training RBF Networks 17-10</tspan><tspan
         id="tspan42"
         y="84.012604"
         x="72.000839 77.570473 79.813461 85.333298 90.912888 96.432716 99.792229 102.55215 108.12177 113.64161 119.21124 124.22311 127.02386 129.78378 136.45897 142.02861 147.54843 153.12802 156.42778 162.00737 167.01924 253.84056 259.41019 264.93002 268.27856 273.7984">Linear Least Squares 17-11</tspan><tspan
         id="tspan44"
         y="96.014397"
         x="72.000839 79.785576 83.085327 85.845238 91.418854 96.99247 102.51231 108.08592 113.60575 119.17937 121.42635 124.18626 129.75987 135.3335 140.85332 145.86919 148.67392 151.43384 158.11301 163.68663 169.20645 174.78604 178.13858 183.65842 188.67427 253.8306 259.40421 264.92404 268.27658 273.79642">Orthogonal Least Squares 17-18</tspan><tspan
         id="tspan46"
         y="108.0162"
         x="72.000839 79.22184 81.462837 87.030479 92.040359 94.800278 100.36791 103.66766 105.90866 111.4763 117.04395 253.84355 259.41119 264.93103 268.27759 273.79742">Clustering 17-23</tspan><tspan
         id="tspan48"
         y="120.018"
         x="72.000839 79.231796 84.809402 90.329231 92.580193 94.831154 100.40875 105.98635 111.50619 114.8627 117.62262 125.41134 130.93117 133.7399 135.99084 144.2706 146.49068 151.51053 157.03035 159.83908 161.9994 167.577 173.1546 253.85052 259.42813 264.94794 268.30447 273.82431">Nonlinear Optimization 17-25</tspan><tspan
         id="tspan50"
         y="132.01981"
         x="72.000839 79.788567 82.548477 88.068314 93.644913 97.000443 99.759361 105.88377 109.18351 114.76012 117.01008 122.52991 124.74999 130.3266 135.9032 138.66212 144.78653 150.30637 155.32521 160.84503 166.42165 168.6716 174.19144 179.76804 185.34465 190.36349 253.85052 259.42712 264.94696 268.30249 273.82233">Other Training Techniques 17-26</tspan><tspan
         id="tspan52"
         y="144.02161"
         x="0 6.6532798 12.201 20.507641 28.81428 34.362 37.688641 42.728401 45.488316 51.036037 53.855713 56.615627 63.816708 69.364426 74.354385 79.902107 82.123184 84.902031 89.891991 253.75092 259.29865 264.84637 268.173 273.72073">Summary of Results 17-27</tspan><tspan
         id="tspan54"
         y="156.02341"
         x="0 6.6582599 12.21096 14.43702 19.431959 24.984659 30.537359 33.297276 40.017288 43.317036 48.869736 54.422436 56.648495 62.201195 70.512817 75.507759 253.77084 259.32355 264.87625 268.20786 273.76056">Solved Problems 17-30</tspan><tspan
         id="tspan56"
         y="168.02521"
         x="0 6.676188 12.246816 14.490804 16.734793 22.254623 27.825253 33.345085 38.91571 253.83559 259.40622 264.92603 268.27557 273.79541">Epilogue 17-35</tspan><tspan
         id="tspan58"
         y="180.02699"
         x="0 6.1234078 11.64324 14.997768 17.757685 23.333292 28.853125 32.207653 34.967567 42.196537 47.772144 53.347752 58.867584 61.11655 66.692162 72.21199 253.8306 259.40622 264.92603 268.28058 273.80042">Further Reading 17-36</tspan><tspan
         id="tspan60"
         y="192.02879"
         x="0 6.6542759 11.645232 17.193949 20.521584 25.561344 27.783421 32.774376 38.323093 43.314049 253.79375 259.34247 264.89117 268.21881 273.76752">Exercises 17-38</tspan></text>
<text
       id="text66"
       style="font-variant:normal;font-weight:bold;font-stretch:normal;font-size:15.96000004px;font-family:'Times LT Std';-inkscape-font-specification:TimesLTStd-Bold;writing-mode:lr-tb;fill:#0000ff;fill-opacity:1;fill-rule:nonzero;stroke:none"
       transform="matrix(1,0,0,-1,238.74,402.36)"><tspan
         id="tspan64"
         y="0"
         x="0 12.428052 19.525463 27.516636 33.736248 39.95586 48.840794 55.938206 63.035618 71.026787 75.047112 86.581406 93.678818 99.004669 110.53896 118.53013 125.62754">Grossberg Network</tspan></text>
<text
       id="text102"
       style="font-variant:normal;font-weight:normal;font-stretch:normal;font-size:9.96000004px;font-family:'Helvetica LT';-inkscape-font-specification:HelveticaLT;writing-mode:lr-tb;fill:#000000;fill-opacity:1;fill-rule:nonzero;stroke:none"
       transform="matrix(1,0,0,-1,171,377.34)"><tspan
         id="tspan68"
         y="0"
         x="0 7.7618279 13.312536 15.536604 21.087313 26.080259 28.862087 31.086157 36.125916 41.676624 46.669571 253.84952 259.40024 264.95093 268.28058">Objectives 18-1</tspan><tspan
         id="tspan70"
         y="12.0018"
         x="0 6.1154399 11.635272 17.202911 22.770552 26.070299 31.080179 33.899857 39.419689 44.999279 50.519112 53.338787 60.01199 65.021866 70.589508 78.916069 84.435898 86.655983 92.223625 97.233505 253.83359 259.40121 264.92105 268.26761">Theory and Examples 18-2</tspan><tspan
         id="tspan72"
         y="24.003599"
         x="36.005402 42.674618 44.911633 50.475288 52.712303 58.232136 63.811729 66.048744 71.054642 76.618294 78.855309 81.615227 89.937805 95.457634 98.252411 100.48943 105.49532 111.05898 113.81889 116.03898 121.55882 127.1384 129.89832 132.718 139.38721 141.62422 146.63013 148.86714 154.4308 159.95062 253.91028 259.47394 264.99377 268.33633">Biological Motivation: Vision 18-3</tspan><tspan
         id="tspan74"
         y="36.005402"
         x="72.010803 74.770714 77.015701 79.260681 84.832306 89.846169 92.091156 97.662781 103.18261 108.19648 253.87642 259.44803 264.96786 268.31842">Illusions 18-4</tspan><tspan
         id="tspan76"
         y="48.007198"
         x="72.010803 78.680016 80.91703 85.922928 88.159943 93.723602 99.287254 102.04717 109.26419 114.82784 118.12759 126.46809 132.03175 134.26877 136.50578 141.51167 147.03151 149.85118 152.08821 157.60803 163.17169 253.89037 259.45401 264.97385 268.31644">Vision Normalization 18-8</tspan><tspan
         id="tspan78"
         y="60.008999"
         x="36.015362 42.68856 48.256199 53.266079 55.50708 60.51696 63.276875 70.497879 76.017708 81.58535 83.826347 86.067345 91.634987 97.154823 102.73441 106.03416 108.85384 117.13358 122.70123 128.26886 133.7887 136.02969 253.87044 259.43808 264.95792 268.30447">Basic Nonlinear Model 18-9</tspan><tspan
         id="tspan80"
         y="72.010803"
         x="36.015362 42.138767 49.367737 54.943344 58.243092 63.818699 69.338531 74.356377 79.876213 83.230743 85.990654 93.219627 98.795235 107.12976 112.64959 118.2252 120.98512 123.23409 125.994 128.24297 133.26082 138.78065 141.60033 148.82928 154.40491 157.16481 164.3649 169.94051 173.24025 178.2581 253.86047 259.4361 264.95593 268.31046 273.83029">Two-Layer Competitive Network 18-12</tspan><tspan
         id="tspan82"
         y="84.012604"
         x="72.02076 77.596367 83.115204 88.133049 93.708656 97.063187 99.822105 105.34094 253.84056 259.41617 264.935 268.28952 273.80838">Layer 1 18-13</tspan><tspan
         id="tspan84"
         y="96.014397"
         x="72.02076 77.596367 83.115204 88.133049 93.708656 97.063187 99.822105 105.34094 253.84056 259.41617 264.935 268.28952 273.80838">Layer 2 18-17</tspan><tspan
         id="tspan86"
         y="108.0162"
         x="72.02076 79.254707 84.835297 90.355125 92.575211 97.598038 103.11787 105.93755 111.45738 114.27705 117.03697 123.16536 126.46511 132.0457 137.56552 142.58835 145.34827 150.92886 154.22861 156.98853 163.11691 168.69749 174.21733 179.2571 182.01701 184.23709 189.81767 195.33751 253.84056 259.42114 264.94098 268.30048 273.82031">Choice of Transfer Function 18-20</tspan><tspan
         id="tspan88"
         y="120.018"
         x="72.02076 77.595375 83.115204 88.689819 91.989563 97.564178 99.812149 105.33198 110.90659 113.66651 119.24112 124.81573 132.0437 253.85052 259.42514 264.94498 268.29849 273.81833">Learning Law 18-22</tspan><tspan
         id="tspan90"
         y="132.01981"
         x="36.025318 43.254288 48.829895 51.078865 56.598698 59.405422 61.654392 67.174225 72.749832 75.510742 78.317474 83.837303 86.598213 93.279381 98.799217 104.37482 109.89465 115.47026 121.04588 126.5657 129.38638 134.9062 140.48181 147.71078 253.86047 259.4361 264.95593 268.31046 273.83029">Relation to Kohonen Law 18-24</tspan><tspan
         id="tspan92"
         y="144.02161"
         x="0.02988 6.6831598 12.23088 20.537519 28.84416 34.39188 37.718521 42.758282 45.518196 51.065914 53.885593 56.645508 63.846588 69.39431 74.38427 79.931992 82.153069 84.931908 89.921867 253.78081 259.32852 264.87625 268.20288 273.75061">Summary of Results 18-26</tspan><tspan
         id="tspan94"
         y="156.02341"
         x="0.02988 6.6881399 12.24084 14.4669 19.46184 25.01454 30.56724 33.327156 40.047169 43.346916 48.899616 54.452316 56.678375 62.231075 70.542694 75.537636 253.80072 259.35342 264.90613 268.23773 273.79044">Solved Problems 18-30</tspan><tspan
         id="tspan96"
         y="168.02521"
         x="0.02988 6.706068 12.276696 14.520684 16.764671 22.284504 27.855131 33.374966 38.945591 253.86546 259.4361 264.95593 268.30548 273.82529">Epilogue 18-42</tspan><tspan
         id="tspan98"
         y="180.02699"
         x="0.02988 6.1532879 11.67312 15.027648 17.787563 23.363173 28.883003 32.237534 34.997448 42.226418 47.802025 53.377632 58.897465 61.146431 66.722038 72.241875 253.86047 259.4361 264.95593 268.31046 273.83029">Further Reading 18-43</tspan><tspan
         id="tspan100"
         y="192.02879"
         x="0.02988 6.6841559 11.675112 17.223827 20.551464 25.591225 27.813299 32.804256 38.35297 43.343929 253.82362 259.37234 264.92105 268.24869 273.79742">Exercises 18-45</tspan></text>
<g
       id="g104"><g
         clip-path="url(#clipPath110)"
         id="g106"><g
           id="g112"><g
             clip-path="url(#clipPath118)"
             id="g114"><path
               id="path120"
               style="fill:#0000ff;fill-opacity:1;fill-rule:nonzero;stroke:none"
               d="m 70.98,647.04 h 36 v 36 h -36 z" /><path
               id="path122"
               style="fill:#0000ff;fill-opacity:1;fill-rule:nonzero;stroke:none"
               d="m 70.98,682.8 h 36.24 v 0.48 H 70.98 Z" /><path
               id="path124"
               style="fill:#0000ff;fill-opacity:1;fill-rule:nonzero;stroke:none"
               d="m 106.74,646.8 h 0.48 v 36.24 h -0.48 z" /><path
               id="path126"
               style="fill:#0000ff;fill-opacity:1;fill-rule:nonzero;stroke:none"
               d="m 70.74,646.8 h 36.24 v 0.48 H 70.74 Z" /><path
               id="path128"
               style="fill:#0000ff;fill-opacity:1;fill-rule:nonzero;stroke:none"
               d="m 70.74,647.04 h 0.48 v 36.24 h -0.48 z" /><text
               id="text132"
               style="font-variant:normal;font-weight:bold;font-stretch:normal;font-size:24px;font-family:'Times LT Std';-inkscape-font-specification:TimesLTStd-Bold;writing-mode:lr-tb;fill:#ffffff;fill-opacity:1;fill-rule:nonzero;stroke:none"
               transform="matrix(1,0,0,-1,76.26,658.02)"><tspan
                 id="tspan130"
                 y="0"
                 x="0 12">17</tspan></text>
</g></g></g></g><g
       id="g134"><g
         clip-path="url(#clipPath140)"
         id="g136"><g
           id="g142"><g
             clip-path="url(#clipPath148)"
             id="g144"><path
               id="path150"
               style="fill:#0000ff;fill-opacity:1;fill-rule:nonzero;stroke:none"
               d="m 504,646.02 h 38.04 V 684 H 504 Z" /><path
               id="path152"
               style="fill:#0000ff;fill-opacity:1;fill-rule:nonzero;stroke:none"
               d="m 504,683.46 h 38.04 v 0.57 H 504 Z" /><path
               id="path154"
               style="fill:#0000ff;fill-opacity:1;fill-rule:nonzero;stroke:none"
               d="m 541.56,645.99 h 0.48 V 684 h -0.48 z" /><path
               id="path156"
               style="fill:#0000ff;fill-opacity:1;fill-rule:nonzero;stroke:none"
               d="m 503.94,645.99 h 38.1 v 0.51 h -38.1 z" /><path
               id="path158"
               style="fill:#0000ff;fill-opacity:1;fill-rule:nonzero;stroke:none"
               d="m 503.94,646.02 h 0.6 v 38.01 h -0.6 z" /></g></g></g></g><g
       id="g160"><g
         clip-path="url(#clipPath166)"
         id="g162"><g
           id="g168"><g
             clip-path="url(#clipPath174)"
             id="g170"><g
               id="g176"><g
                 clip-path="url(#clipPath182)"
                 id="g178"><path
                   id="path184"
                   style="fill:#7e7e7e;fill-opacity:1;fill-rule:nonzero;stroke:none"
                   d="m 508.86,650.1 h 28.8 v 28.8 h -28.8 z" /><path
                   id="path186"
                   style="fill:#7e7e7e;fill-opacity:1;fill-rule:nonzero;stroke:none"
                   d="m 508.86,678.36 h 28.8 v 0.57 h -28.8 z" /><path
                   id="path188"
                   style="fill:#7e7e7e;fill-opacity:1;fill-rule:nonzero;stroke:none"
                   d="m 537.18,650.07 h 0.48 v 28.83 h -0.48 z" /><path
                   id="path190"
                   style="fill:#7e7e7e;fill-opacity:1;fill-rule:nonzero;stroke:none"
                   d="m 508.8,650.07 h 28.86 v 0.51 H 508.8 Z" /><path
                   id="path192"
                   style="fill:#7e7e7e;fill-opacity:1;fill-rule:nonzero;stroke:none"
                   d="m 508.8,650.1 h 0.6 v 28.83 h -0.6 z" /></g></g></g></g></g></g><g
       id="g194"><g
         clip-path="url(#clipPath200)"
         id="g196"><g
           id="g202"><g
             clip-path="url(#clipPath208)"
             id="g204"><path
               id="path210"
               style="fill:#0000ff;fill-opacity:1;fill-rule:nonzero;stroke:none"
               d="m 512.46,653.7 h 21.6 v 21.6 h -21.6 z" /><path
               id="path212"
               style="fill:#0000ff;fill-opacity:1;fill-rule:nonzero;stroke:none"
               d="m 512.46,674.76 h 22.14 v 1.02 h -22.14 z" /><path
               id="path214"
               style="fill:#0000ff;fill-opacity:1;fill-rule:nonzero;stroke:none"
               d="m 533.58,653.16 h 1.02 v 22.14 h -1.02 z" /><path
               id="path216"
               style="fill:#0000ff;fill-opacity:1;fill-rule:nonzero;stroke:none"
               d="m 511.98,653.16 h 22.08 v 1.02 h -22.08 z" /><path
               id="path218"
               style="fill:#0000ff;fill-opacity:1;fill-rule:nonzero;stroke:none"
               d="M 511.98,653.7 H 513 v 22.08 h -1.02 z" /><g
               transform="translate(513.12,658.02002)"
               id="g220"><path
                 id="path222"
                 style="fill:#ffffff;fill-opacity:1;fill-rule:nonzero;stroke:none"
                 d="m 0,0 -0.96,-0.24 0.48,-1.92 0.96,0.24" /></g><g
               transform="translate(513.12,658.02002)"
               id="g224"><path
                 id="path226"
                 style="fill:#ffffff;fill-opacity:1;fill-rule:nonzero;stroke:none"
                 d="M 0,0 0.24,0.06 H 0.72 0.48 L 0.72,0.12 0.96,0.18 0.78,0.12 1.02,0.24 0.9,0.12 1.26,0.36 1.38,0.48 1.62,0.6 1.38,0.36 1.56,0.54 1.44,0.42 1.56,0.6 1.68,0.72 1.86,0.9 1.74,0.84 1.92,1.08 V 1.02 L 2.04,1.2 1.92,1.08 2.04,1.32 2.1,1.38 2.4,1.92 2.34,1.8 2.58,2.34 2.52,2.22 2.7,2.82 2.76,2.94 3,3.54 2.94,3.42 3.12,4.08 3.48,5.46 V 5.4 l 0.3,1.44 V 6.9 L 4.14,8.28 4.32,9 4.38,9.06 4.62,9.72 4.56,9.66 l 0.18,0.66 0.06,0.12 0.24,0.6 v 0.06 l 0.3,0.6 v -0.06 l 0.24,0.6 0.12,0.24 0.36,0.48 -0.12,-0.18 0.12,0.24 0.12,0.18 0.18,0.24 0.18,0.18 0.24,0.18 -0.06,-0.12 0.18,0.18 c 0.457,0.559 1.129,1.026 1.86,1.14 l 0.3,0.06 0.36,-1.92 -0.3,-0.06 H 9.18 L 8.94,13.02 9.18,13.08 8.7,12.84 8.82,12.96 8.58,12.78 8.34,12.6 8.46,12.66 8.1,12.3 7.98,12.24 7.74,12.06 7.92,12.24 7.74,12 7.86,12.12 7.74,11.88 7.62,11.76 7.26,11.28 7.44,11.52 7.2,10.92 6.84,10.2 6.9,10.32 6.66,9.72 V 9.78 L 6.48,9.12 V 9.06 L 6.24,8.4 V 8.52 L 6.06,7.8 5.7,6.42 5.4,4.98 5.04,3.6 V 3.54 L 4.86,2.88 V 2.82 L 4.62,2.22 V 2.28 L 4.44,1.68 C 4.05,0.725 3.821,0.312 3.24,-0.48 L 3.06,-0.66 3.18,-0.48 2.94,-0.84 2.76,-1.02 2.52,-1.2 2.28,-1.32 2.34,-1.26 2.16,-1.38 C 1.765,-1.746 1.216,-1.777 0.72,-1.92 H 0.48 l 0.24,0.06 -0.24,-0.06" /></g><g
               transform="translate(522.17999,673.08002)"
               id="g228"><path
                 id="path230"
                 style="fill:#ffffff;fill-opacity:1;fill-rule:nonzero;stroke:none"
                 d="M 0,0 0.3,0.06 C 1.832,0.276 3.527,-0.047 4.62,-1.2 L 4.8,-1.38 4.68,-1.26 4.92,-1.44 5.1,-1.62 5.46,-2.1 5.58,-2.28 5.7,-2.52 5.58,-2.34 5.76,-2.58 c 1.512,-2.431 1.775,-5.741 2.46,-8.46 l 0.12,-0.66 v 0.06 l 0.36,-1.2 -0.06,0.12 0.48,-1.08 v 0.06 l 0.12,-0.24 -0.18,0.24 0.18,-0.18 0.18,-0.24 0.12,-0.24 -0.18,0.24 0.18,-0.18 0.12,-0.12 0.12,-0.18 -0.12,0.12 0.18,-0.18 -0.18,0.12 0.18,-0.12 -0.06,0.12 0.24,-0.12 0.06,-0.12 -1.08,-1.62 0.12,-0.06 -0.24,0.12 c -0.233,0.081 -0.615,0.448 -0.72,0.66 l -0.12,0.18 0.12,-0.18 -0.42,0.42 -0.12,0.24 0.24,-0.24 -0.18,0.18 -0.24,0.24 -0.12,0.24 v 0.06 l -0.48,1.08 -0.06,0.12 -0.36,1.2 v 0.12 L 6.3,-11.4 v -0.06 L 6,-10.08 5.7,-8.64 5.4,-7.26 5.22,-6.54 V -6.6 L 5.04,-5.94 5.1,-6 4.86,-5.34 4.38,-4.14 V -4.26 L 4.08,-3.66 4.2,-3.78 4.02,-3.54 3.9,-3.42 3.78,-3.18 3.9,-3.3 3.54,-2.82 3.72,-3 3.48,-2.82 3.42,-2.76 3.24,-2.58 3.3,-2.64 2.58,-2.1 2.76,-2.22 2.52,-2.1 2.58,-2.16 2.28,-2.04 H 2.4 l -0.24,0.06 h 0.06 l -0.3,0.06 0.06,-0.06 -0.36,0.06 -0.06,0.06 -0.3,0.06 0.18,-0.06 H 0.78 l 0.18,0.06 -0.6,-0.12" /></g><g
               transform="translate(532.26001,658.26001)"
               id="g232"><path
                 id="path234"
                 style="fill:#ffffff;fill-opacity:1;fill-rule:nonzero;stroke:none"
                 d="M 0,0 0.18,-0.12 0.12,0 0.36,-0.12 0.12,-0.06 0.36,-0.12 0.6,-0.18 H 0.36 0.84 L 0.36,-2.1 0.6,-2.16 H 0.36 c -0.516,0.142 -0.785,0.143 -1.26,0.42 l -0.18,0.12" /></g><g
               transform="translate(533.34003,658.02002)"
               id="g236"><path
                 id="path238"
                 style="fill:#ffffff;fill-opacity:1;fill-rule:nonzero;stroke:none"
                 d="M 0,0 0.96,-0.24 0.48,-2.16 -0.48,-1.92" /></g><g
               transform="translate(533.09998,658.08002)"
               id="g240"><path
                 id="path242"
                 style="fill:#ffffff;fill-opacity:1;fill-rule:nonzero;stroke:none"
                 d="m 0,0 -0.48,-1.92 0.24,-0.06 0.48,1.92" /></g><path
               id="path244"
               style="fill:#cccccc;fill-opacity:1;fill-rule:nonzero;stroke:none"
               d="m 512.28,656.52 h 0.48 v 1.02 h -0.48 z" /><path
               id="path246"
               style="fill:#cccccc;fill-opacity:1;fill-rule:nonzero;stroke:none"
               d="m 533.7,656.46 h 0.48 v 1.02 h -0.48 z" /><g
               transform="translate(512.76001,657.53998)"
               id="g248"><path
                 id="path250"
                 style="fill:#cccccc;fill-opacity:1;fill-rule:nonzero;stroke:none"
                 d="m 0,0 v -1.02 l 20.94,-0.06 v 1.02" /></g></g></g></g></g><g
       id="g252"><g
         clip-path="url(#clipPath258)"
         id="g254"><g
           id="g260"><g
             clip-path="url(#clipPath266)"
             id="g262"><path
               id="path268"
               style="fill:#0000ff;fill-opacity:1;fill-rule:nonzero;stroke:none"
               d="m 70.98,388.92 h 36 v 36.06 h -36 z" /><path
               id="path270"
               style="fill:#0000ff;fill-opacity:1;fill-rule:nonzero;stroke:none"
               d="m 70.98,424.74 h 36.24 v 0.48 H 70.98 Z" /><path
               id="path272"
               style="fill:#0000ff;fill-opacity:1;fill-rule:nonzero;stroke:none"
               d="m 106.74,388.68 h 0.48 v 36.3 h -0.48 z" /><path
               id="path274"
               style="fill:#0000ff;fill-opacity:1;fill-rule:nonzero;stroke:none"
               d="m 70.74,388.68 h 36.24 v 0.48 H 70.74 Z" /><path
               id="path276"
               style="fill:#0000ff;fill-opacity:1;fill-rule:nonzero;stroke:none"
               d="m 70.74,388.92 h 0.48 v 36.3 h -0.48 z" /><text
               id="text280"
               style="font-variant:normal;font-weight:bold;font-stretch:normal;font-size:24px;font-family:'Times LT Std';-inkscape-font-specification:TimesLTStd-Bold;writing-mode:lr-tb;fill:#ffffff;fill-opacity:1;fill-rule:nonzero;stroke:none"
               transform="matrix(1,0,0,-1,76.26,399.96)"><tspan
                 id="tspan278"
                 y="0"
                 x="0 12">18</tspan></text>
</g></g></g></g><g
       id="g282"><g
         clip-path="url(#clipPath288)"
         id="g284"><g
           id="g290"><g
             clip-path="url(#clipPath296)"
             id="g292"><path
               id="path298"
               style="fill:#0000ff;fill-opacity:1;fill-rule:nonzero;stroke:none"
               d="m 504.96,388.98 h 36 v 36 h -36 z" /><path
               id="path300"
               style="fill:#0000ff;fill-opacity:1;fill-rule:nonzero;stroke:none"
               d="m 504.96,424.44 h 36.54 v 1.02 h -36.54 z" /><path
               id="path302"
               style="fill:#0000ff;fill-opacity:1;fill-rule:nonzero;stroke:none"
               d="m 540.48,388.44 h 1.02 v 36.54 h -1.02 z" /><path
               id="path304"
               style="fill:#0000ff;fill-opacity:1;fill-rule:nonzero;stroke:none"
               d="m 504.48,388.44 h 36.48 v 1.02 h -36.48 z" /><path
               id="path306"
               style="fill:#0000ff;fill-opacity:1;fill-rule:nonzero;stroke:none"
               d="m 504.48,388.98 h 1.02 v 36.48 h -1.02 z" /></g></g></g></g><g
       id="g308"><g
         clip-path="url(#clipPath314)"
         id="g310"><g
           id="g316"><g
             clip-path="url(#clipPath322)"
             id="g318"><g
               id="g324"><g
                 clip-path="url(#clipPath330)"
                 id="g326"><path
                   id="path332"
                   style="fill:#7e7e7e;fill-opacity:1;fill-rule:nonzero;stroke:none"
                   d="m 508.62,392.58 h 28.8 v 28.8 h -28.8 z" /><path
                   id="path334"
                   style="fill:#7e7e7e;fill-opacity:1;fill-rule:nonzero;stroke:none"
                   d="m 508.62,420.84 h 28.8 v 0.57 h -28.8 z" /><path
                   id="path336"
                   style="fill:#7e7e7e;fill-opacity:1;fill-rule:nonzero;stroke:none"
                   d="m 536.94,392.55 h 0.48 v 28.83 h -0.48 z" /><path
                   id="path338"
                   style="fill:#7e7e7e;fill-opacity:1;fill-rule:nonzero;stroke:none"
                   d="m 508.56,392.55 h 28.86 v 0.51 h -28.86 z" /><path
                   id="path340"
                   style="fill:#7e7e7e;fill-opacity:1;fill-rule:nonzero;stroke:none"
                   d="m 508.56,392.58 h 0.6 v 28.83 h -0.6 z" /></g></g></g></g></g></g><g
       id="g342"><g
         clip-path="url(#clipPath348)"
         id="g344"><g
           id="g350"><g
             clip-path="url(#clipPath356)"
             id="g352"><path
               id="path358"
               style="fill:#0000ff;fill-opacity:1;fill-rule:nonzero;stroke:none"
               d="m 512.22,396.18 h 21.6 v 21.6 h -21.6 z" /><path
               id="path360"
               style="fill:#0000ff;fill-opacity:1;fill-rule:nonzero;stroke:none"
               d="m 512.22,417.24 h 22.14 v 1.02 h -22.14 z" /><path
               id="path362"
               style="fill:#0000ff;fill-opacity:1;fill-rule:nonzero;stroke:none"
               d="m 533.34,395.64 h 1.02 v 22.14 h -1.02 z" /><path
               id="path364"
               style="fill:#0000ff;fill-opacity:1;fill-rule:nonzero;stroke:none"
               d="m 511.74,395.64 h 22.08 v 1.02 h -22.08 z" /><path
               id="path366"
               style="fill:#0000ff;fill-opacity:1;fill-rule:nonzero;stroke:none"
               d="m 511.74,396.18 h 1.02 v 22.08 h -1.02 z" /><g
               transform="translate(530.52002,406.92001)"
               id="g368"><path
                 id="path370"
                 style="fill:#ffffff;fill-opacity:1;fill-rule:nonzero;stroke:none"
                 d="M 0,0 -0.06,0.84 V 0.78 L -0.18,1.56 -0.36,2.34 V 2.22 L -0.96,3.66 -0.9,3.6 -1.32,4.26 -1.74,4.86 -1.68,4.8 -2.76,5.88 -2.64,5.82 -3.96,6.66 V 6.6 L -4.62,6.96 H -4.5 L -5.22,7.2 V 7.14 L -6,7.32 h 0.06 l -0.78,0.12 h 0.06 L -7.5,7.5 h 0.06 L -8.28,7.44 h 0.06 L -9,7.32 V 7.38 L -9.72,7.2 h 0.06 l -0.78,-0.24 h 0.06 l -0.66,-0.36 0.06,0.06 -0.66,-0.42 -0.6,-0.42 h 0.06 l -0.6,-0.54 0.06,0.06 -0.48,-0.54 -0.48,-0.6 v 0.06 l -0.42,-0.66 0.06,0.06 -0.6,-1.44 0.06,0.12 -0.18,-0.78 -0.12,-0.78 V 0.84 L -14.94,0 v 0.06 l 0.06,-0.78 v 0.06 l 0.12,-0.78 v 0.06 l 0.18,-0.78 -0.06,0.06 0.6,-1.44 -0.06,0.06 0.42,-0.66 v 0.06 l 0.96,-1.2 -0.06,0.06 0.6,-0.48 -0.66,-0.78 -0.6,0.48 c -3.544,3.505 -3.353,9.474 0.6,12.6 v 0.06 l 0.6,0.42 h 0.06 c 2.17,1.652 5.488,1.777 7.98,0.84 L -4.14,7.86 -3.48,7.5 h 0.06 C -1.874,6.557 -2.163,6.743 -0.9,5.46 l 0.42,-0.6 V 4.8 C 0.016,4.192 0.772,2.505 0.84,1.74 L 0.96,0.96 V 0.9 L 1.02,0.06" /></g><g
               transform="translate(518.34003,401.22)"
               id="g372"><path
                 id="path374"
                 style="fill:#ffffff;fill-opacity:1;fill-rule:nonzero;stroke:none"
                 d="M 0,0 0.6,-0.48 0.48,-0.42 1.8,-1.14 1.74,-1.08 2.52,-1.32 3.24,-1.56 H 3.18 L 3.96,-1.68 H 3.84 5.52 5.46 l 0.78,0.12 H 6.18 l 0.78,0.24 0.72,0.24 -0.12,-0.06 1.32,0.72 H 8.82 L 9.48,0.06 V 0 l 0.54,0.48 -0.06,-0.06 0.54,0.6 h -0.06 l 0.42,0.6 V 1.56 l 0.42,0.66 -0.06,-0.06 0.6,1.44 V 3.54 L 12,4.32 V 4.26 l 0.12,0.78 V 4.98 l 0.06,0.78 V 5.7 L 13.2,5.76 V 5.7 L 13.14,4.92 V 4.86 L 13.02,4.08 12.84,3.3 12.78,3.18 12.18,1.74 12.12,1.68 11.7,1.02 11.28,0.42 V 0.36 L 10.74,-0.24 10.68,-0.3 10.14,-0.78 H 10.08 L 9.42,-1.26 9.36,-1.32 8.04,-2.04 H 7.98 C 6.671,-2.462 6.094,-2.806 4.68,-2.7 H 3.78 C 3.094,-2.629 1.215,-2.059 0.66,-1.68 L 0,-1.32 l -0.06,0.06 -0.6,0.48" /></g><g
               transform="translate(525.96002,407.04001)"
               id="g376"><path
                 id="path378"
                 style="fill:#ffffff;fill-opacity:1;fill-rule:nonzero;stroke:none"
                 d="M 0,0 0.06,0.84 V 0.9 L 0.24,1.62 H 0.3 L 0.6,2.34 V 2.4 L 1.02,3 V 3.06 L 1.5,3.54 H 1.56 L 2.1,3.9 H 2.16 L 2.34,3.48 1.8,3.12 1.86,3.18 1.38,2.7 H 1.44 L 1.02,2.1 V 2.16 L 0.72,1.44 V 1.5 L 0.54,0.78 0.48,-0.06" /></g><g
               transform="translate(528.12,410.94)"
               id="g380"><path
                 id="path382"
                 style="fill:#ffffff;fill-opacity:1;fill-rule:nonzero;stroke:none"
                 d="M 0,0 0.6,0.24 0.66,0.3 0.72,-0.18 h 0.06 l -0.6,-0.24" /></g><g
               transform="translate(528.78003,411.23999)"
               id="g384"><path
                 id="path386"
                 style="fill:#ffffff;fill-opacity:1;fill-rule:nonzero;stroke:none"
                 d="M 0,0 0.06,-0.48 0.72,-0.36 0.66,0.12" /></g><g
               transform="translate(529.44,402.72)"
               id="g388"><path
                 id="path390"
                 style="fill:#ffffff;fill-opacity:1;fill-rule:nonzero;stroke:none"
                 d="m 0,0 -0.66,0.12 h -0.06 l -0.6,0.18 -0.06,0.06 -0.54,0.42 h -0.06 l -0.48,0.48 -0.42,0.6 v 0.06 l -0.3,0.72 -0.06,0.06 0.48,0.12 0.3,-0.72 V 2.16 L -2.04,1.56 -2.1,1.62 -1.62,1.14 -1.08,0.72 -1.2,0.78 -0.6,0.6 0.06,0.48" /></g><g
               transform="translate(526.20001,405.42001)"
               id="g392"><path
                 id="path394"
                 style="fill:#ffffff;fill-opacity:1;fill-rule:nonzero;stroke:none"
                 d="M 0,0 -0.18,0.72 0.3,0.78 V 0.84 L 0.48,0.12" /></g><g
               transform="translate(526.02002,406.14001)"
               id="g396"><path
                 id="path398"
                 style="fill:#ffffff;fill-opacity:1;fill-rule:nonzero;stroke:none"
                 d="M 0,0 0.48,0.06 0.42,0.9 -0.06,0.84" /></g><g
               transform="translate(529.26001,407.10001)"
               id="g400"><path
                 id="path402"
                 style="fill:#ffffff;fill-opacity:1;fill-rule:evenodd;stroke:none"
                 d="M 0,0 0.06,0.6 0.36,1.14 0.78,1.5 1.32,1.62 V 0 H 0" /></g><g
               transform="translate(529.02002,407.10001)"
               id="g404"><path
                 id="path406"
                 style="fill:#ffffff;fill-opacity:1;fill-rule:nonzero;stroke:none"
                 d="m 0,0 0.06,0.6 0.06,0.12 0.3,0.54 V 1.32 L 0.6,1.5 H 0.66 L 0.9,1.68 0.96,1.74 1.08,1.26 1.2,1.32 0.96,1.14 0.78,0.96 0.84,1.02 0.54,0.48 v 0.06 l -0.06,-0.6" /></g><g
               transform="translate(529.97998,408.84)"
               id="g408"><path
                 id="path410"
                 style="fill:#ffffff;fill-opacity:1;fill-rule:nonzero;stroke:none"
                 d="M 0,0 0.24,0.06 0.36,-0.42 0.12,-0.48" /></g><g
               transform="translate(530.21997,408.89999)"
               id="g412"><path
                 id="path414"
                 style="fill:#ffffff;fill-opacity:1;fill-rule:nonzero;stroke:none"
                 d="M 0,0 0.12,-0.48 0.42,-0.42 0.3,0.06" /></g><g
               transform="translate(530.58002,405.48001)"
               id="g416"><path
                 id="path418"
                 style="fill:#ffffff;fill-opacity:1;fill-rule:evenodd;stroke:none"
                 d="m 0,0 -0.54,0.12 -0.42,0.36 -0.3,0.48 -0.06,0.66 H 0 V 0" /></g><g
               transform="translate(530.58002,405.23999)"
               id="g420"><path
                 id="path422"
                 style="fill:#ffffff;fill-opacity:1;fill-rule:nonzero;stroke:none"
                 d="M 0,0 H -0.42 L -0.9,0.24 -0.96,0.3 -1.14,0.54 V 0.6 l 0.42,0.24 H -0.78 L -0.6,0.6 -0.66,0.66 -0.18,0.42 -0.3,0.48 H 0" /></g><g
               transform="translate(529.44,405.84)"
               id="g424"><path
                 id="path426"
                 style="fill:#ffffff;fill-opacity:1;fill-rule:nonzero;stroke:none"
                 d="M 0,0 -0.3,0.48 -0.36,0.54 0.12,0.6 v 0.12 l 0.3,-0.48" /></g><g
               transform="translate(529.08002,406.38)"
               id="g428"><path
                 id="path430"
                 style="fill:#ffffff;fill-opacity:1;fill-rule:nonzero;stroke:none"
                 d="M 0,0 0.48,0.06 0.42,0.72 -0.06,0.66" /></g><path
               id="path432"
               style="fill:#ffffff;fill-opacity:1;fill-rule:nonzero;stroke:none"
               d="m 526.14,407.04 h 4.56 v 0.24 h -4.56 z" /><g
               transform="translate(527.03998,409.79999)"
               id="g434"><path
                 id="path436"
                 style="fill:#ffffff;fill-opacity:1;fill-rule:nonzero;stroke:none"
                 d="m 0,0 -0.12,-0.18 3.48,-2.58 0.12,0.18" /></g><g
               transform="translate(527.03998,404.28)"
               id="g438"><path
                 id="path440"
                 style="fill:#ffffff;fill-opacity:1;fill-rule:nonzero;stroke:none"
                 d="M 0,0 0.18,-0.18 3.6,2.64 3.42,2.82" /></g></g></g></g></g></g></svg>