<?xml version="1.0" encoding="UTF-8"?>
<svg xmlns="http://www.w3.org/2000/svg" xmlns:xlink="http://www.w3.org/1999/xlink" width="36.927pt" height="36.982pt" viewBox="0 0 36.927 36.982" version="1.1">
<defs>
<clipPath id="clip1">
  <path d="M 0 0 L 36.925781 0 L 36.925781 36.980469 L 0 36.980469 Z M 0 0 "/>
</clipPath>
<clipPath id="clip2">
  <path d="M 0 0 L 36.925781 0 L 36.925781 2 L 0 2 Z M 0 0 "/>
</clipPath>
<clipPath id="clip3">
  <path d="M 36 0 L 36.925781 0 L 36.925781 36.980469 L 36 36.980469 Z M 36 0 "/>
</clipPath>
<clipPath id="clip4">
  <path d="M 0 36 L 36.925781 36 L 36.925781 36.980469 L 0 36.980469 Z M 0 36 "/>
</clipPath>
<clipPath id="clip5">
  <path d="M 0 0 L 2 0 L 2 36.980469 L 0 36.980469 Z M 0 0 "/>
</clipPath>
<clipPath id="clip6">
  <path d="M 4.140625 4.078125 L 32.941406 4.078125 L 32.941406 32.878906 L 4.140625 32.878906 Z M 4.140625 4.078125 "/>
</clipPath>
<clipPath id="clip7">
  <path d="M 4.140625 4.078125 L 32.941406 4.078125 L 32.941406 5 L 4.140625 5 Z M 4.140625 4.078125 "/>
</clipPath>
<clipPath id="clip8">
  <path d="M 32 4.078125 L 32.941406 4.078125 L 32.941406 32.878906 L 32 32.878906 Z M 32 4.078125 "/>
</clipPath>
<clipPath id="clip9">
  <path d="M 4.140625 32 L 32.941406 32 L 32.941406 32.878906 L 4.140625 32.878906 Z M 4.140625 32 "/>
</clipPath>
<clipPath id="clip10">
  <path d="M 4.140625 4.078125 L 5 4.078125 L 5 32.878906 L 4.140625 32.878906 Z M 4.140625 4.078125 "/>
</clipPath>
</defs>
<g id="surface1">
<g clip-path="url(#clip1)" clip-rule="nonzero">
<path style=" stroke:none;fill-rule:nonzero;fill:rgb(0%,0%,100%);fill-opacity:1;" d="M 0.480469 36.480469 L 36.480469 36.480469 L 36.480469 0.480469 L 0.480469 0.480469 Z M 0.480469 36.480469 "/>
</g>
<g clip-path="url(#clip2)" clip-rule="nonzero">
<path style=" stroke:none;fill-rule:nonzero;fill:rgb(0%,0%,100%);fill-opacity:1;" d="M 0.480469 1.019531 L 37.019531 1.019531 L 37.019531 0 L 0.480469 0 Z M 0.480469 1.019531 "/>
</g>
<g clip-path="url(#clip3)" clip-rule="nonzero">
<path style=" stroke:none;fill-rule:nonzero;fill:rgb(0%,0%,100%);fill-opacity:1;" d="M 36 37.019531 L 37.019531 37.019531 L 37.019531 0.480469 L 36 0.480469 Z M 36 37.019531 "/>
</g>
<g clip-path="url(#clip4)" clip-rule="nonzero">
<path style=" stroke:none;fill-rule:nonzero;fill:rgb(0%,0%,100%);fill-opacity:1;" d="M 0 37.019531 L 36.480469 37.019531 L 36.480469 36 L 0 36 Z M 0 37.019531 "/>
</g>
<g clip-path="url(#clip5)" clip-rule="nonzero">
<path style=" stroke:none;fill-rule:nonzero;fill:rgb(0%,0%,100%);fill-opacity:1;" d="M 0 36.480469 L 1.019531 36.480469 L 1.019531 0 L 0 0 Z M 0 36.480469 "/>
</g>
<g clip-path="url(#clip6)" clip-rule="nonzero">
<path style=" stroke:none;fill-rule:nonzero;fill:rgb(49.598694%,49.598694%,49.598694%);fill-opacity:1;" d="M 4.140625 32.878906 L 32.941406 32.878906 L 32.941406 4.078125 L 4.140625 4.078125 Z M 4.140625 32.878906 "/>
</g>
<g clip-path="url(#clip7)" clip-rule="nonzero">
<path style=" stroke:none;fill-rule:nonzero;fill:rgb(49.598694%,49.598694%,49.598694%);fill-opacity:1;" d="M 4.140625 4.621094 L 32.941406 4.621094 L 32.941406 4.050781 L 4.140625 4.050781 Z M 4.140625 4.621094 "/>
</g>
<g clip-path="url(#clip8)" clip-rule="nonzero">
<path style=" stroke:none;fill-rule:nonzero;fill:rgb(49.598694%,49.598694%,49.598694%);fill-opacity:1;" d="M 32.460938 32.910156 L 32.941406 32.910156 L 32.941406 4.078125 L 32.460938 4.078125 Z M 32.460938 32.910156 "/>
</g>
<g clip-path="url(#clip9)" clip-rule="nonzero">
<path style=" stroke:none;fill-rule:nonzero;fill:rgb(49.598694%,49.598694%,49.598694%);fill-opacity:1;" d="M 4.078125 32.910156 L 32.941406 32.910156 L 32.941406 32.398438 L 4.078125 32.398438 Z M 4.078125 32.910156 "/>
</g>
<g clip-path="url(#clip10)" clip-rule="nonzero">
<path style=" stroke:none;fill-rule:nonzero;fill:rgb(49.598694%,49.598694%,49.598694%);fill-opacity:1;" d="M 4.078125 32.878906 L 4.679688 32.878906 L 4.679688 4.050781 L 4.078125 4.050781 Z M 4.078125 32.878906 "/>
</g>
<path style=" stroke:none;fill-rule:nonzero;fill:rgb(0%,0%,100%);fill-opacity:1;" d="M 7.738281 29.28125 L 29.339844 29.28125 L 29.339844 7.679688 L 7.738281 7.679688 Z M 7.738281 29.28125 "/>
<path style=" stroke:none;fill-rule:nonzero;fill:rgb(0%,0%,100%);fill-opacity:1;" d="M 7.738281 8.21875 L 29.878906 8.21875 L 29.878906 7.199219 L 7.738281 7.199219 Z M 7.738281 8.21875 "/>
<path style=" stroke:none;fill-rule:nonzero;fill:rgb(0%,0%,100%);fill-opacity:1;" d="M 28.859375 29.820312 L 29.878906 29.820312 L 29.878906 7.679688 L 28.859375 7.679688 Z M 28.859375 29.820312 "/>
<path style=" stroke:none;fill-rule:nonzero;fill:rgb(0%,0%,100%);fill-opacity:1;" d="M 7.261719 29.820312 L 29.339844 29.820312 L 29.339844 28.800781 L 7.261719 28.800781 Z M 7.261719 29.820312 "/>
<path style=" stroke:none;fill-rule:nonzero;fill:rgb(0%,0%,100%);fill-opacity:1;" d="M 7.261719 29.28125 L 8.28125 29.28125 L 8.28125 7.199219 L 7.261719 7.199219 Z M 7.261719 29.28125 "/>
<path style=" stroke:none;fill-rule:nonzero;fill:rgb(100%,100%,100%);fill-opacity:1;" d="M 17.339844 14.519531 L 17.101562 14.460938 L 16.980469 14.941406 L 17.21875 15 "/>
<path style=" stroke:none;fill-rule:nonzero;fill:rgb(100%,100%,100%);fill-opacity:1;" d="M 17.339844 14.519531 L 17.941406 14.699219 L 18 14.761719 C 18.523438 14.945312 19.023438 15.308594 19.320312 15.78125 L 19.5 16.199219 L 19.679688 16.621094 L 19.679688 17.640625 L 19.5 18.601562 L 19.5 18.660156 L 19.078125 19.558594 L 18.660156 19.320312 L 18.660156 19.378906 L 19.078125 18.480469 L 19.019531 18.539062 L 19.199219 17.578125 L 19.199219 16.679688 L 19.261719 16.800781 L 19.078125 16.378906 L 18.898438 15.960938 L 18.898438 16.019531 L 18.601562 15.71875 L 18.660156 15.71875 L 18.238281 15.359375 L 18.238281 15.421875 L 17.761719 15.179688 L 17.820312 15.179688 L 17.21875 15 "/>
<path style=" stroke:none;fill-rule:nonzero;fill:rgb(100%,100%,100%);fill-opacity:1;" d="M 19.078125 19.558594 L 18.601562 20.460938 L 18.539062 20.519531 L 18.179688 20.21875 L 18.660156 19.320312 "/>
<path style=" stroke:none;fill-rule:nonzero;fill:rgb(100%,100%,100%);fill-opacity:1;" d="M 17.878906 21.238281 L 17.761719 21.421875 L 17.398438 21.121094 L 17.519531 20.941406 "/>
<path style=" stroke:none;fill-rule:nonzero;fill:rgb(100%,100%,100%);fill-opacity:1;" d="M 18.539062 20.519531 L 18.179688 20.21875 L 17.519531 20.941406 L 17.878906 21.238281 "/>
<path style=" stroke:none;fill-rule:nonzero;fill:rgb(100%,100%,100%);fill-opacity:1;" d="M 18.359375 9.898438 L 18.601562 9.898438 L 18.601562 9.421875 L 18.359375 9.421875 Z M 18.359375 9.898438 "/>
<path style=" stroke:none;fill-rule:nonzero;fill:rgb(100%,100%,100%);fill-opacity:1;" d="M 18.359375 9.898438 L 17.039062 9.960938 L 17.101562 9.960938 L 15.960938 10.261719 L 16.019531 10.261719 L 15.058594 10.621094 L 14.21875 11.160156 L 14.28125 11.101562 L 13.621094 11.699219 L 13.078125 12.421875 L 13.140625 12.359375 L 12.71875 13.140625 L 12.71875 13.078125 L 12.480469 13.921875 L 12.359375 14.878906 L 12.300781 15.78125 L 12.300781 15.71875 L 12.359375 16.738281 L 12.539062 17.699219 L 12.539062 17.640625 L 12.78125 18.601562 L 13.140625 19.621094 L 13.558594 20.578125 L 13.980469 21.480469 L 13.980469 21.421875 L 15.300781 23.820312 L 15.839844 24.78125 L 16.320312 25.621094 L 16.261719 25.621094 L 16.738281 26.28125 L 16.738281 26.21875 L 17.28125 26.640625 L 17.21875 26.640625 L 17.820312 27 L 17.761719 26.941406 L 18.539062 27.058594 L 18.480469 27.058594 L 18.78125 27.058594 L 19.140625 27 L 19.078125 27.058594 L 19.738281 26.761719 L 19.679688 26.761719 L 20.28125 26.21875 L 20.21875 26.21875 L 20.878906 25.558594 L 20.878906 25.621094 L 21.539062 24.78125 L 22.199219 23.820312 L 23.519531 21.71875 L 24.300781 20.460938 L 24.960938 19.261719 L 24.960938 19.320312 L 25.5 18.121094 L 25.441406 18.121094 L 25.859375 16.980469 L 26.160156 15.898438 L 26.160156 15.960938 L 26.339844 14.941406 L 26.339844 13.921875 L 26.339844 13.980469 L 26.21875 13.078125 L 26.28125 13.140625 L 25.980469 12.359375 L 25.738281 12 L 25.738281 12.058594 L 26.101562 11.761719 L 26.160156 11.761719 L 26.398438 12.121094 L 26.398438 12.179688 C 26.867188 13.039062 26.839844 14.054688 26.820312 15 L 26.640625 16.019531 L 26.339844 17.101562 L 26.339844 17.160156 L 25.921875 18.300781 L 25.378906 19.5 L 24.71875 20.699219 L 23.941406 21.960938 L 22.621094 24.058594 L 22.621094 24.121094 L 21.960938 25.078125 L 21.898438 25.078125 L 21.238281 25.921875 L 20.578125 26.578125 L 19.980469 27.121094 L 19.921875 27.179688 L 19.261719 27.480469 L 19.199219 27.480469 L 18.839844 27.539062 L 18.480469 27.539062 L 17.699219 27.421875 L 17.578125 27.421875 L 16.980469 27.058594 L 16.980469 27 L 16.441406 26.578125 L 16.378906 26.578125 L 15.898438 25.921875 L 15.898438 25.859375 L 15.421875 25.019531 L 14.878906 24.058594 L 13.558594 21.660156 L 13.140625 20.761719 L 12.71875 19.800781 L 12.660156 19.800781 L 12.300781 18.78125 L 12.300781 18.71875 C 11.777344 16.867188 11.695312 15.789062 12 13.859375 L 12 13.800781 L 12.238281 12.960938 L 12.300781 12.898438 L 12.71875 12.121094 L 13.261719 11.398438 L 13.320312 11.339844 L 13.980469 10.738281 L 14.820312 10.199219 L 14.878906 10.199219 L 15.839844 9.839844 L 15.839844 9.78125 L 16.980469 9.480469 L 17.039062 9.480469 L 18.359375 9.421875 "/>
<path style=" stroke:none;fill-rule:nonzero;fill:rgb(100%,100%,100%);fill-opacity:1;" d="M 25.738281 12.058594 L 25.140625 11.339844 L 25.199219 11.339844 L 24.839844 11.039062 L 24.839844 11.101562 L 24 10.621094 L 24.058594 10.621094 L 22.921875 10.199219 L 22.980469 10.199219 L 21.71875 9.960938 L 20.160156 9.839844 L 20.160156 9.359375 L 20.21875 9.359375 L 21.78125 9.480469 L 23.039062 9.71875 L 23.101562 9.71875 L 24.238281 10.140625 L 24.238281 10.199219 L 25.078125 10.679688 L 25.140625 10.679688 L 25.5 10.980469 L 25.5 11.039062 L 26.101562 11.761719 "/>
<path style=" stroke:none;fill-rule:nonzero;fill:rgb(100%,100%,100%);fill-opacity:1;" d="M 18.121094 9.898438 L 18.359375 9.898438 L 18.359375 9.421875 L 18.121094 9.421875 Z M 18.121094 9.898438 "/>
<path style=" stroke:none;fill-rule:nonzero;fill:rgb(100%,100%,100%);fill-opacity:1;" d="M 20.160156 9.839844 L 20.160156 9.359375 L 18.359375 9.421875 L 18.359375 9.898438 "/>
<path style=" stroke:none;fill-rule:nonzero;fill:rgb(100%,100%,100%);fill-opacity:1;" d="M 16.921875 14.339844 L 16.921875 14.101562 L 16.980469 14.21875 L 16.859375 14.039062 L 16.859375 14.101562 L 16.679688 13.921875 L 16.738281 13.980469 L 16.5 13.859375 L 16.558594 13.859375 L 16.019531 13.621094 L 16.078125 13.621094 L 15.359375 13.558594 L 15.421875 13.558594 L 14.699219 13.621094 L 14.761719 13.621094 L 14.21875 13.859375 L 13.980469 13.980469 L 14.039062 13.921875 L 13.859375 14.101562 L 13.921875 14.039062 L 13.800781 14.21875 L 13.800781 14.101562 L 13.800781 14.519531 L 13.800781 14.398438 L 13.921875 14.578125 L 13.859375 14.519531 L 14.039062 14.699219 L 13.980469 14.699219 L 14.21875 14.820312 L 14.761719 15.058594 L 14.699219 15 L 15.421875 15.058594 L 15.359375 15.058594 L 16.078125 15 L 16.019531 15.058594 L 16.558594 14.820312 L 16.5 14.820312 L 16.738281 14.699219 L 16.679688 14.699219 L 16.859375 14.519531 L 16.859375 14.578125 L 16.980469 14.398438 L 16.921875 14.519531 L 16.921875 14.339844 L 17.398438 14.339844 L 17.398438 14.640625 L 17.28125 14.820312 C 16.835938 15.347656 16.097656 15.589844 15.421875 15.539062 L 15.359375 15.539062 L 14.640625 15.480469 L 14.578125 15.480469 L 14.039062 15.238281 L 13.980469 15.238281 L 13.738281 15.121094 L 13.5 14.878906 L 13.5 14.820312 L 13.378906 14.640625 L 13.320312 14.519531 L 13.320312 14.101562 L 13.378906 13.980469 C 13.691406 13.316406 13.984375 13.578125 14.578125 13.199219 L 14.640625 13.140625 L 15.359375 13.078125 L 15.421875 13.078125 L 16.140625 13.140625 L 16.199219 13.199219 L 16.738281 13.441406 L 16.980469 13.558594 L 17.039062 13.558594 L 17.28125 13.800781 L 17.398438 13.980469 L 17.398438 14.339844 "/>
<path style=" stroke:none;fill-rule:nonzero;fill:rgb(100%,100%,100%);fill-opacity:1;" d="M 24.480469 13.5 L 24.300781 13.441406 L 24.058594 13.378906 L 24.121094 13.378906 L 23.640625 13.378906 L 23.761719 13.378906 L 23.21875 13.679688 L 23.28125 13.621094 L 22.679688 14.039062 L 22.679688 13.980469 L 22.261719 14.519531 L 22.320312 14.460938 L 22.078125 15.058594 L 22.019531 15.300781 L 22.019531 15.238281 L 22.019531 15.480469 L 22.019531 15.421875 L 22.078125 15.601562 L 22.019531 15.539062 L 22.140625 15.71875 L 22.078125 15.601562 L 22.261719 15.71875 L 22.199219 15.71875 L 22.378906 15.78125 L 22.320312 15.78125 L 22.558594 15.78125 L 22.5 15.78125 L 22.738281 15.71875 L 23.339844 15.480469 L 23.28125 15.480469 L 23.820312 15.058594 L 23.761719 15.121094 L 24.179688 14.519531 L 24.121094 14.578125 L 24.421875 14.039062 L 24.421875 14.160156 L 24.421875 13.679688 L 24.421875 13.738281 L 24.359375 13.5 L 24.300781 13.320312 L 24.78125 13.199219 L 24.839844 13.378906 L 24.898438 13.621094 L 24.898438 14.160156 L 24.839844 14.28125 L 24.539062 14.820312 L 24.121094 15.421875 L 24.121094 15.480469 L 23.578125 15.898438 L 23.519531 15.960938 L 22.921875 16.199219 L 22.859375 16.199219 L 22.621094 16.261719 L 22.558594 16.261719 C 21.894531 16.324219 21.472656 15.90625 21.539062 15.238281 L 21.539062 15.179688 L 21.601562 14.941406 L 21.660156 14.941406 L 21.898438 14.339844 L 21.898438 14.21875 L 22.320312 13.679688 L 22.378906 13.621094 L 22.980469 13.199219 L 23.519531 12.898438 L 24.179688 12.898438 L 24.421875 12.960938 L 24.601562 13.019531 "/>
<path style=" stroke:none;fill-rule:nonzero;fill:rgb(100%,100%,100%);fill-opacity:1;" d="M 24.300781 13.320312 L 24.480469 13.5 L 24.601562 13.019531 L 24.78125 13.199219 "/>
<path style=" stroke:none;fill-rule:nonzero;fill:rgb(100%,100%,100%);fill-opacity:1;" d="M 17.941406 20.878906 L 17.699219 20.878906 L 17.640625 21.359375 L 17.878906 21.359375 "/>
<path style=" stroke:none;fill-rule:nonzero;fill:rgb(100%,100%,100%);fill-opacity:1;" d="M 17.941406 20.878906 L 19.261719 21 L 19.859375 21.121094 L 19.921875 21.121094 L 20.460938 21.300781 L 20.460938 21.359375 L 20.878906 21.601562 L 20.941406 21.601562 L 21.238281 21.839844 L 20.878906 22.199219 L 20.941406 22.199219 L 20.640625 21.960938 L 20.640625 22.019531 L 20.21875 21.78125 L 20.28125 21.78125 L 19.738281 21.601562 L 19.140625 21.480469 L 19.199219 21.480469 L 17.878906 21.359375 "/>
<path style=" stroke:none;fill-rule:nonzero;fill:rgb(100%,100%,100%);fill-opacity:1;" d="M 21.238281 21.839844 L 21.480469 22.078125 L 21.539062 22.199219 L 21.058594 22.320312 L 21.121094 22.441406 L 20.878906 22.199219 "/>
<path style=" stroke:none;fill-rule:nonzero;fill:rgb(100%,100%,100%);fill-opacity:1;" d="M 21.601562 22.5 L 21.660156 22.738281 L 21.179688 22.859375 L 21.121094 22.621094 "/>
<path style=" stroke:none;fill-rule:nonzero;fill:rgb(100%,100%,100%);fill-opacity:1;" d="M 21.539062 22.199219 L 21.058594 22.320312 L 21.121094 22.621094 L 21.601562 22.5 "/>
<path style=" stroke:none;fill-rule:evenodd;fill:rgb(100%,100%,100%);fill-opacity:1;" d="M 15.78125 14.339844 L 15.71875 14.039062 L 15.480469 13.921875 L 15.238281 14.039062 L 15.179688 14.339844 L 15.238281 14.578125 L 15.480469 14.699219 L 15.71875 14.578125 L 15.78125 14.339844 "/>
<path style=" stroke:none;fill-rule:nonzero;fill:rgb(100%,100%,100%);fill-opacity:1;" d="M 15.660156 14.398438 L 15.601562 14.101562 L 15.660156 14.160156 L 15.421875 14.039062 L 15.539062 14.039062 L 15.300781 14.160156 L 15.359375 14.101562 L 15.300781 14.398438 L 15.300781 14.339844 L 15.359375 14.578125 L 15.300781 14.460938 L 15.539062 14.578125 L 15.421875 14.578125 L 15.660156 14.460938 L 15.601562 14.578125 L 15.660156 14.339844 L 15.898438 14.398438 L 15.839844 14.640625 L 15.78125 14.699219 L 15.539062 14.820312 L 15.421875 14.820312 L 15.179688 14.699219 L 15.121094 14.640625 L 15.058594 14.398438 L 15.058594 14.339844 L 15.121094 14.039062 L 15.179688 13.921875 L 15.421875 13.800781 L 15.539062 13.800781 L 15.78125 13.921875 L 15.839844 14.039062 L 15.898438 14.339844 "/>
<path style=" stroke:none;fill-rule:nonzero;fill:rgb(100%,100%,100%);fill-opacity:1;" d="M 15.660156 14.339844 L 15.660156 14.398438 L 15.898438 14.339844 L 15.898438 14.398438 "/>
<path style=" stroke:none;fill-rule:evenodd;fill:rgb(100%,100%,100%);fill-opacity:1;" d="M 23.398438 14.640625 L 23.339844 14.339844 L 23.101562 14.28125 L 22.859375 14.339844 L 22.800781 14.640625 L 22.859375 14.878906 L 23.101562 15 L 23.339844 14.878906 L 23.398438 14.640625 "/>
<path style=" stroke:none;fill-rule:nonzero;fill:rgb(100%,100%,100%);fill-opacity:1;" d="M 23.28125 14.699219 L 23.21875 14.398438 L 23.339844 14.460938 L 23.101562 14.398438 L 23.160156 14.398438 L 22.921875 14.460938 L 22.980469 14.398438 L 22.921875 14.699219 L 22.921875 14.640625 L 22.980469 14.878906 L 22.921875 14.761719 L 23.160156 14.878906 L 23.039062 14.878906 L 23.28125 14.761719 L 23.21875 14.878906 L 23.28125 14.640625 L 23.519531 14.699219 L 23.460938 14.941406 L 23.398438 15 L 23.160156 15.121094 L 23.039062 15.121094 L 22.800781 15 L 22.738281 14.941406 L 22.679688 14.699219 L 22.679688 14.640625 L 22.738281 14.339844 L 22.859375 14.21875 L 23.101562 14.160156 L 23.160156 14.160156 L 23.398438 14.21875 L 23.460938 14.339844 L 23.519531 14.640625 "/>
<path style=" stroke:none;fill-rule:nonzero;fill:rgb(100%,100%,100%);fill-opacity:1;" d="M 23.28125 14.640625 L 23.28125 14.699219 L 23.519531 14.640625 L 23.519531 14.699219 "/>
<path style=" stroke:none;fill-rule:nonzero;fill:rgb(100%,100%,100%);fill-opacity:1;" d="M 18.121094 24.480469 L 18.300781 24.238281 L 18.300781 24.421875 L 18.238281 24.121094 L 18.121094 23.761719 L 18.121094 23.820312 L 17.878906 23.460938 L 18 23.519531 L 17.640625 23.28125 L 17.699219 23.339844 L 17.339844 23.160156 L 17.398438 23.160156 L 17.101562 23.160156 L 17.160156 23.160156 L 16.921875 23.28125 L 17.101562 23.160156 L 16.921875 23.460938 L 16.921875 23.28125 L 16.980469 23.578125 L 17.101562 23.941406 L 17.101562 23.878906 L 17.339844 24.179688 L 17.28125 24.121094 L 17.640625 24.421875 L 17.519531 24.359375 L 17.878906 24.480469 L 17.820312 24.480469 L 18.121094 24.480469 L 18 24.480469 L 18.238281 24.359375 L 18.421875 24.839844 L 18.179688 24.960938 L 17.761719 24.960938 L 17.398438 24.839844 L 17.339844 24.78125 L 16.980469 24.480469 L 16.921875 24.480469 L 16.679688 24.179688 L 16.621094 24.058594 L 16.5 23.699219 L 16.441406 23.398438 L 16.441406 23.21875 L 16.621094 22.921875 L 16.738281 22.800781 L 16.980469 22.679688 L 17.519531 22.679688 L 17.878906 22.859375 L 18.238281 23.101562 L 18.359375 23.21875 L 18.601562 23.578125 L 18.601562 23.640625 L 18.71875 24 L 18.78125 24.300781 L 18.71875 24.539062 L 18.539062 24.78125 "/>
<path style=" stroke:none;fill-rule:nonzero;fill:rgb(100%,100%,100%);fill-opacity:1;" d="M 18.238281 24.359375 L 18.121094 24.480469 L 18.539062 24.78125 L 18.421875 24.839844 "/>
</g>
</svg>
