<?xml version="1.0" encoding="UTF-8" standalone="no"?>
<svg
   xmlns:dc="http://purl.org/dc/elements/1.1/"
   xmlns:cc="http://creativecommons.org/ns#"
   xmlns:rdf="http://www.w3.org/1999/02/22-rdf-syntax-ns#"
   xmlns:svg="http://www.w3.org/2000/svg"
   xmlns="http://www.w3.org/2000/svg"
   viewBox="0 0 49.528 49.309334"
   height="49.309334"
   width="49.528"
   xml:space="preserve"
   id="svg2"
   version="1.1"><metadata
     id="metadata8"><rdf:RDF><cc:Work
         rdf:about=""><dc:format>image/svg+xml</dc:format><dc:type
           rdf:resource="http://purl.org/dc/dcmitype/StillImage" /></cc:Work></rdf:RDF></metadata><defs
     id="defs6"><clipPath
       id="clipPath14"
       clipPathUnits="userSpaceOnUse"><path
         id="path12"
         d="M 0,0 H 612 V 792 H 0 Z" /></clipPath><clipPath
       id="clipPath88"
       clipPathUnits="userSpaceOnUse"><path
         style="clip-rule:evenodd"
         id="path86"
         d="M 69.96,431.94 H 108 V 393.96 H 69.96 Z" /></clipPath><clipPath
       id="clipPath96"
       clipPathUnits="userSpaceOnUse"><path
         id="path94"
         d="M 0,792.03 H 612 V 0.03 H 0 Z" /></clipPath><clipPath
       id="clipPath118"
       clipPathUnits="userSpaceOnUse"><path
         style="clip-rule:evenodd"
         id="path116"
         d="m 504,431.94 h 38.04 V 393.96 H 504 Z" /></clipPath><clipPath
       id="clipPath126"
       clipPathUnits="userSpaceOnUse"><path
         id="path124"
         d="M 0,792.03 H 612 V 0.03 H 0 Z" /></clipPath><clipPath
       id="clipPath144"
       clipPathUnits="userSpaceOnUse"><path
         style="clip-rule:evenodd"
         id="path142"
         d="m 508.62,427.38 h 28.8 v -28.8 h -28.8 z" /></clipPath><clipPath
       id="clipPath152"
       clipPathUnits="userSpaceOnUse"><path
         style="clip-rule:evenodd"
         id="path150"
         d="m 504,431.94 h 38.04 V 393.96 H 504 Z" /></clipPath><clipPath
       id="clipPath160"
       clipPathUnits="userSpaceOnUse"><path
         id="path158"
         d="M 0,792.03 H 612 V 0.03 H 0 Z" /></clipPath><clipPath
       id="clipPath178"
       clipPathUnits="userSpaceOnUse"><path
         style="clip-rule:evenodd"
         id="path176"
         d="m 504,431.94 h 38.04 V 393.96 H 504 Z" /></clipPath><clipPath
       id="clipPath186"
       clipPathUnits="userSpaceOnUse"><path
         id="path184"
         d="M 0,792.03 H 612 V 0.03 H 0 Z" /></clipPath></defs><g
     clip-path="url(#clipPath14)"
     transform="matrix(1.3333333,0,0,-1.3333333,-672.58133,575.34533)"
     id="g10"><path
       id="path16"
       style="fill:#ffffff;fill-opacity:1;fill-rule:nonzero;stroke:none"
       d="m 72,711 h 468 v 9 H 72 Z" /><path
       id="path18"
       style="fill:#ffffff;fill-opacity:1;fill-rule:nonzero;stroke:none"
       d="m 72,126 h 468 v 9 H 72 Z" /><text
       id="text22"
       style="font-style:italic;font-variant:normal;font-weight:bold;font-stretch:normal;font-size:9px;font-family:'NewCenturySchlbk LT';-inkscape-font-specification:NewCenturySchlbkLT-BoldItalic;writing-mode:lr-tb;fill:#0000ff;fill-opacity:1;fill-rule:nonzero;stroke:none"
       transform="matrix(1,0,0,-1,304.26,129.0001)"><tspan
         id="tspan20"
         y="0"
         x="0">i</tspan></text>
<text
       id="text26"
       style="font-variant:normal;font-weight:bold;font-stretch:normal;font-size:36px;font-family:'Times LT Std';-inkscape-font-specification:TimesLTStd-Bold;writing-mode:lr-tb;fill:#0000ff;fill-opacity:1;fill-rule:nonzero;stroke:none"
       transform="matrix(1,0,0,-1,72,660)"><tspan
         id="tspan24"
         y="0"
         x="0 25.992001 43.992001 64.008003 75.996002 91.980003 111.996 123.984">Contents</tspan></text>
<text
       id="text32"
       style="font-variant:normal;font-weight:bold;font-stretch:normal;font-size:15.96000004px;font-family:'Times LT Std';-inkscape-font-specification:TimesLTStd-Bold;writing-mode:lr-tb;fill:#0000ff;fill-opacity:1;fill-rule:nonzero;stroke:none"
       transform="matrix(1,0,0,-1,280.26,592.32)"><tspan
         id="tspan28"
         y="0"
         x="0 9.76752 16.86972 23.97192 29.302561 37.298519 44.400719">Preface</tspan><tspan
         id="tspan30"
         y="56.99316"
         x="-17.811359 -11.590152 -2.703624 2.6238239 9.7228317 17.715599 26.602127 35.488655 42.587666 47.915112 52.364761 60.357529">Introduction</tspan></text>
<text
       id="text44"
       style="font-variant:normal;font-weight:normal;font-stretch:normal;font-size:9.96000004px;font-family:'Helvetica LT';-inkscape-font-specification:HelveticaLT;writing-mode:lr-tb;fill:#000000;fill-opacity:1;fill-rule:nonzero;stroke:none"
       transform="matrix(1,0,0,-1,171,510.36)"><tspan
         id="tspan34"
         y="0"
         x="0 7.7568479 13.302576 15.521664 21.067392 26.055361 28.832209 31.051296 36.091057 41.636784 46.624752 253.8047 259.35043 262.67508">Objectives 1-1</tspan><tspan
         id="tspan36"
         y="12.0018"
         x="0 7.2040682 9.4281359 14.421084 17.202911 22.75362 26.083248 31.076197 253.79575 259.34644 262.67609">History 1-2</tspan><tspan
         id="tspan38"
         y="24.003599"
         x="0 6.6692162 12.232872 17.752705 19.989719 22.226736 27.232632 32.796288 35.556206 37.793221 43.356876 48.920532 53.92643 253.84654 259.41019 262.70993">Applications 1-5</tspan><tspan
         id="tspan40"
         y="36.005402"
         x="0 6.6662278 8.9002562 14.460924 16.694952 22.214785 27.794376 30.028404 35.031311 40.59198 42.826008 45.585922 48.34584 53.92543 58.928341 64.489006 66.723038 70.022781 75.58345 78.343369 80.577393 86.138062 91.657898 253.83757 259.39825 262.698">Biological Inspiration 1-8</tspan><tspan
         id="tspan42"
         y="48.007198"
         x="0 6.1234078 11.64324 14.997768 17.757685 23.333292 28.853125 32.207653 34.967567 42.196537 47.772144 53.347752 58.867584 61.11655 66.692162 72.21199 253.83159 259.4072 262.70694 268.28256">Further Reading 1-10</tspan></text>
<text
       id="text48"
       style="font-variant:normal;font-weight:bold;font-stretch:normal;font-size:15.96000004px;font-family:'Times LT Std';-inkscape-font-specification:TimesLTStd-Bold;writing-mode:lr-tb;fill:#0000ff;fill-opacity:1;fill-rule:nonzero;stroke:none"
       transform="matrix(1,0,0,-1,161.22,408.36)"><tspan
         id="tspan46"
         y="0"
         x="0 11.537484 18.638088 27.526213 34.626816 42.621181 51.509304 55.489727 70.570335 78.564697 87.45282 94.553421 99.004669 102.98509 110.97945 119.86758 128.75571 132.73613 144.27361 151.44444 156.77188 168.30777 176.30054 183.39955 192.28609 196.3064 207.84229 214.9413 222.04031 230.92683 235.37648 240.70393 247.80293 254.90195 260.2294 269.11594 276.21494 283.31393">Neuron Model and Network Architectures</tspan></text>
<text
       id="text80"
       style="font-variant:normal;font-weight:normal;font-stretch:normal;font-size:9.96000004px;font-family:'Helvetica LT';-inkscape-font-specification:HelveticaLT;writing-mode:lr-tb;fill:#000000;fill-opacity:1;fill-rule:nonzero;stroke:none"
       transform="matrix(1,0,0,-1,171,383.34)"><tspan
         id="tspan50"
         y="0"
         x="0 7.7568479 13.302576 15.521664 21.067392 26.055361 28.832209 31.051296 36.091057 41.636784 46.624752 253.8047 259.35043 262.67508">Objectives 2-1</tspan><tspan
         id="tspan52"
         y="12.0018"
         x="0 6.1134481 11.63328 17.198929 22.764576 26.064323 31.072212 33.891888 39.41172 44.99131 50.511143 53.330818 60.002029 65.009918 70.575562 78.900131 84.419968 86.640045 92.205696 97.213585 253.81367 259.3793 262.67908">Theory and Examples 2-2</tspan><tspan
         id="tspan54"
         y="24.003599"
         x="36.005402 43.196522 48.776112 51.544991 57.124584 59.893463 62.104584 67.684174 73.20401 253.80371 259.3833 262.68304">Notation 2-2</tspan><tspan
         id="tspan56"
         y="36.005402"
         x="36.005402 43.189548 48.769138 54.299927 57.659435 63.190224 68.769814 71.529732 79.86924 85.44883 90.979622 96.559212 98.763359 253.80072 259.38031 262.68005">Neuron Model 2-2</tspan><tspan
         id="tspan58"
         y="48.007198"
         x="72.000839 78.677025 80.921013 86.491646 92.011475 94.255463 99.826096 103.12584 105.94552 111.46535 117.04494 122.56477 125.38445 128.14436 135.36835 140.93898 146.50961 149.80936 155.37999 160.89981 253.84056 259.41119 262.71094">Single-Input Neuron 2-2</tspan><tspan
         id="tspan60"
         y="60.008999"
         x="72.000839 78.131218 81.430969 87.01355 92.533379 97.558197 100.31812 105.9007 109.20045 111.96036 118.09074 123.67332 129.19315 134.23291 136.99283 139.21291 144.79549 150.31532 155.34015 253.80072 259.3833 262.68304">Transfer Functions 2-3</tspan><tspan
         id="tspan62"
         y="72.010803"
         x="72.000839 80.312462 85.865158 88.091217 90.875038 93.101097 98.653801 100.87986 106.43256 109.76418 112.548 118.1007 123.6534 129.2061 131.98991 134.74983 141.9559 147.50859 153.06129 156.39291 161.94562 167.49832 253.78081 259.3335 262.66513">Multiple-Input Neuron 2-7</tspan><tspan
         id="tspan64"
         y="84.012604"
         x="36.005402 43.206478 48.7542 51.533039 58.734119 64.281837 67.608482 72.648239 75.408157 82.06144 85.388077 90.378036 95.925758 98.146835 100.92567 106.4734 111.51315 114.29199 119.83971 123.16636 128.71408 133.70404 253.76088 259.30859 262.63525">Network Architectures 2-9</tspan><tspan
         id="tspan66"
         y="96.014397"
         x="72.000839 78.675034 81.434952 87.003586 92.572227 97.583099 103.10294 106.46244 109.22236 114.79099 117.55091 120.37058 127.59258 133.11241 138.68105 141.98079 147.54944 153.11807 158.12894 253.8306 259.39923 262.69897">A Layer of Neurons 2-9</tspan><tspan
         id="tspan68"
         y="108.0162"
         x="72.000839 80.3284 85.847229 88.089226 90.888985 93.130981 98.649818 100.89182 106.46045 109.22037 114.789 120.30784 125.31871 130.83755 134.1851 139.19598 141.9559 147.52454 150.28345 153.10313 160.32512 165.84396 171.4126 174.76015 180.27899 185.85759 190.86845 253.81068 259.3793 262.67807 268.2467">Multiple Layers of Neurons 2-10</tspan><tspan
         id="tspan70"
         y="120.018"
         x="72.000839 79.22184 84.789482 89.799362 95.366997 98.666748 102.02725 107.54708 113.12668 115.88659 118.70627 125.92727 131.4471 134.24586 141.46686 147.0345 150.33424 155.34413 160.354 253.8306 259.39825 262.698 268.26562">Recurrent Networks 2-13</tspan><tspan
         id="tspan72"
         y="132.01981"
         x="0 6.6732001 12.24084 20.520588 28.860096 34.427734 37.727486 42.737366 45.49728 51.017113 53.836788 56.596703 63.817703 69.385345 74.395226 79.962868 82.203865 84.963783 89.973663 253.8306 259.39825 262.698 268.26562">Summary of Results 2-16</tspan><tspan
         id="tspan74"
         y="144.02161"
         x="0 6.6791759 12.252792 14.499768 19.515623 25.035456 30.615047 33.374966 40.054138 43.353889 48.927505 54.447334 56.694313 62.267929 70.600464 75.616318 253.8804 259.45401 262.75375 268.32739">Solved Problems 2-20</tspan><tspan
         id="tspan76"
         y="156.02341"
         x="0 6.6751919 12.244824 14.487816 16.730808 22.250641 27.820272 33.340103 38.909737 253.82961 259.39923 262.69897 268.26862">Epilogue 2-22</tspan><tspan
         id="tspan78"
         y="168.02521"
         x="0 6.6702118 11.677104 17.241756 20.541504 25.548395 27.786407 32.793301 38.357952 43.364845 253.84454 259.40921 262.70895 268.27359">Exercises 2-23</tspan></text>
<g
       id="g82"><g
         clip-path="url(#clipPath88)"
         id="g84"><g
           id="g90"><g
             clip-path="url(#clipPath96)"
             id="g92"><path
               id="path98"
               style="fill:#0000ff;fill-opacity:1;fill-rule:nonzero;stroke:none"
               d="m 70.98,394.92 h 36 v 36.06 h -36 z" /><path
               id="path100"
               style="fill:#0000ff;fill-opacity:1;fill-rule:nonzero;stroke:none"
               d="m 70.98,430.74 h 36.24 v 0.48 H 70.98 Z" /><path
               id="path102"
               style="fill:#0000ff;fill-opacity:1;fill-rule:nonzero;stroke:none"
               d="m 106.74,394.68 h 0.48 v 36.3 h -0.48 z" /><path
               id="path104"
               style="fill:#0000ff;fill-opacity:1;fill-rule:nonzero;stroke:none"
               d="m 70.74,394.68 h 36.24 v 0.48 H 70.74 Z" /><path
               id="path106"
               style="fill:#0000ff;fill-opacity:1;fill-rule:nonzero;stroke:none"
               d="m 70.74,394.92 h 0.48 v 36.3 h -0.48 z" /><text
               id="text110"
               style="font-variant:normal;font-weight:bold;font-stretch:normal;font-size:24px;font-family:'Times LT Std';-inkscape-font-specification:TimesLTStd-Bold;writing-mode:lr-tb;fill:#ffffff;fill-opacity:1;fill-rule:nonzero;stroke:none"
               transform="matrix(1,0,0,-1,82.2,405.96)"><tspan
                 id="tspan108"
                 y="0"
                 x="0">2</tspan></text>
</g></g></g></g><g
       id="g112"><g
         clip-path="url(#clipPath118)"
         id="g114"><g
           id="g120"><g
             clip-path="url(#clipPath126)"
             id="g122"><path
               id="path128"
               style="fill:#0000ff;fill-opacity:1;fill-rule:nonzero;stroke:none"
               d="m 505.02,394.98 h 36 v 36 h -36 z" /><path
               id="path130"
               style="fill:#0000ff;fill-opacity:1;fill-rule:nonzero;stroke:none"
               d="m 505.02,430.44 h 36.54 v 1.02 h -36.54 z" /><path
               id="path132"
               style="fill:#0000ff;fill-opacity:1;fill-rule:nonzero;stroke:none"
               d="m 540.54,394.44 h 1.02 v 36.54 h -1.02 z" /><path
               id="path134"
               style="fill:#0000ff;fill-opacity:1;fill-rule:nonzero;stroke:none"
               d="m 504.54,394.44 h 36.48 v 1.02 h -36.48 z" /><path
               id="path136"
               style="fill:#0000ff;fill-opacity:1;fill-rule:nonzero;stroke:none"
               d="m 504.54,394.98 h 1.02 v 36.48 h -1.02 z" /></g></g></g></g><g
       id="g138"><g
         clip-path="url(#clipPath144)"
         id="g140"><g
           id="g146"><g
             clip-path="url(#clipPath152)"
             id="g148"><g
               id="g154"><g
                 clip-path="url(#clipPath160)"
                 id="g156"><path
                   id="path162"
                   style="fill:#7e7e7e;fill-opacity:1;fill-rule:nonzero;stroke:none"
                   d="m 508.62,398.58 h 28.8 v 28.8 h -28.8 z" /><path
                   id="path164"
                   style="fill:#7e7e7e;fill-opacity:1;fill-rule:nonzero;stroke:none"
                   d="m 508.62,426.84 h 28.8 v 0.57 h -28.8 z" /><path
                   id="path166"
                   style="fill:#7e7e7e;fill-opacity:1;fill-rule:nonzero;stroke:none"
                   d="m 536.94,398.55 h 0.48 v 28.83 h -0.48 z" /><path
                   id="path168"
                   style="fill:#7e7e7e;fill-opacity:1;fill-rule:nonzero;stroke:none"
                   d="m 508.56,398.55 h 28.86 v 0.51 h -28.86 z" /><path
                   id="path170"
                   style="fill:#7e7e7e;fill-opacity:1;fill-rule:nonzero;stroke:none"
                   d="m 508.56,398.58 h 0.6 v 28.83 h -0.6 z" /></g></g></g></g></g></g><g
       id="g172"><g
         clip-path="url(#clipPath178)"
         id="g174"><g
           id="g180"><g
             clip-path="url(#clipPath186)"
             id="g182"><path
               id="path188"
               style="fill:#0000ff;fill-opacity:1;fill-rule:nonzero;stroke:none"
               d="m 512.22,402.18 h 21.6 v 21.6 h -21.6 z" /><path
               id="path190"
               style="fill:#0000ff;fill-opacity:1;fill-rule:nonzero;stroke:none"
               d="m 512.22,423.24 h 22.14 v 1.02 h -22.14 z" /><path
               id="path192"
               style="fill:#0000ff;fill-opacity:1;fill-rule:nonzero;stroke:none"
               d="m 533.34,401.64 h 1.02 v 22.14 h -1.02 z" /><path
               id="path194"
               style="fill:#0000ff;fill-opacity:1;fill-rule:nonzero;stroke:none"
               d="m 511.74,401.64 h 22.08 v 1.02 h -22.08 z" /><path
               id="path196"
               style="fill:#0000ff;fill-opacity:1;fill-rule:nonzero;stroke:none"
               d="m 511.74,402.18 h 1.02 v 22.08 h -1.02 z" /><path
               id="path198"
               style="fill:#ffffff;fill-opacity:1;fill-rule:nonzero;stroke:none"
               d="m 521.52,416.82 h 3 v 1.5 h -3 z" /><path
               id="path200"
               style="fill:#ffffff;fill-opacity:1;fill-rule:nonzero;stroke:none"
               d="m 521.52,403.32 h 3 v 13.5 h -3 z" /><path
               id="path202"
               style="fill:#ffffff;fill-opacity:1;fill-rule:nonzero;stroke:none"
               d="m 526.08,403.32 h 3 v 1.5 h -3 z" /><g
               transform="translate(526.08002,404.82001)"
               id="g204"><path
                 id="path206"
                 style="fill:#ffffff;fill-opacity:1;fill-rule:nonzero;stroke:none"
                 d="M 0,0 V 8.34 L 0.06,9.36 V 9.3 10.08 l 0.06,0.3 0.12,0.6 -0.06,-0.3 v 0.24 c 0.036,0.467 0.173,0.669 0.3,1.08 l 0.06,0.12 -0.06,-0.18 0.06,0.18 0.36,0.54 0.06,0.06 0.12,0.12 0.06,0.06 0.36,0.3 0.12,0.06 0.66,0.18 H 2.4 l -0.66,-0.18 0.12,0.06 0.66,0.18 v -3 L 3.18,10.62 3.06,10.56 2.4,10.44 H 2.28 L 2.94,10.56 2.82,10.5 3.24,10.8 3,10.56 3.36,11.16 3.3,10.98 3.24,10.8 3.18,10.68 3.24,10.86 3.18,10.68 3.24,10.8 3.18,10.56 v 0.36 -0.54 L 3.06,9.78 v 0.3 -0.9 L 3,8.16 V 8.28 0" /></g><path
               id="path208"
               style="fill:#ffffff;fill-opacity:1;fill-rule:nonzero;stroke:none"
               d="m 528.6,415.32 h 0.12 v 3 h -0.12 z" /><path
               id="path210"
               style="fill:#ffffff;fill-opacity:1;fill-rule:nonzero;stroke:none"
               d="m 528.72,415.32 h 2.1 v 3 h -2.1 z" /><path
               id="path212"
               style="fill:#ffffff;fill-opacity:1;fill-rule:nonzero;stroke:none"
               d="m 516.96,403.32 h 3 v 1.5 h -3 z" /><g
               transform="translate(516.96002,404.82001)"
               id="g214"><path
                 id="path216"
                 style="fill:#ffffff;fill-opacity:1;fill-rule:nonzero;stroke:none"
                 d="M 0,0 V 4.08 4.02 l -0.06,3.06 v 1.2 -0.12 l -0.06,1.02 v 0.9 -0.18 l -0.06,0.6 0.06,-0.18 -0.06,0.24 -0.06,0.24 0.06,-0.12 -0.06,0.18 0.06,-0.18 -0.06,0.12 -0.06,0.18 -0.06,0.18 L 0,10.56 -0.24,10.8 0.12,10.5 0,10.56 0.66,10.44 H 0.6 l -0.66,0.12 -0.12,0.06 0.66,-0.12 v 3 L 1.14,13.32 1.26,13.26 0.6,13.44 H 0.66 L 1.32,13.26 1.44,13.2 1.86,12.9 2.1,12.66 2.46,12.12 2.52,11.94 2.46,12.12 2.52,12 C 2.84,11.163 2.824,11.041 2.88,10.08 V 9.3 9.36 L 2.94,8.34 V 7.14 L 3,4.08 V 0" /></g><path
               id="path218"
               style="fill:#ffffff;fill-opacity:1;fill-rule:nonzero;stroke:none"
               d="m 517.26,415.32 h 0.18 v 3 h -0.18 z" /><path
               id="path220"
               style="fill:#ffffff;fill-opacity:1;fill-rule:nonzero;stroke:none"
               d="m 515.16,415.32 h 2.1 v 3 h -2.1 z" /><path
               id="path222"
               style="fill:#ffffff;fill-opacity:1;fill-rule:nonzero;stroke:none"
               d="m 513.6,419.34 h 1.5 v 3 h -1.5 z" /><path
               id="path224"
               style="fill:#ffffff;fill-opacity:1;fill-rule:nonzero;stroke:none"
               d="m 515.1,419.34 h 17.22 v 3 H 515.1 Z" /></g></g></g></g></g></svg>