<?xml version="1.0" encoding="UTF-8" standalone="no"?>
<svg
   xmlns:dc="http://purl.org/dc/elements/1.1/"
   xmlns:cc="http://creativecommons.org/ns#"
   xmlns:rdf="http://www.w3.org/1999/02/22-rdf-syntax-ns#"
   xmlns:svg="http://www.w3.org/2000/svg"
   xmlns="http://www.w3.org/2000/svg"
   viewBox="0 0 49.526669 49.526669"
   height="49.526669"
   width="49.526669"
   xml:space="preserve"
   id="svg2"
   version="1.1"><metadata
     id="metadata8"><rdf:RDF><cc:Work
         rdf:about=""><dc:format>image/svg+xml</dc:format><dc:type
           rdf:resource="http://purl.org/dc/dcmitype/StillImage" /></cc:Work></rdf:RDF></metadata><defs
     id="defs6"><clipPath
       id="clipPath14"
       clipPathUnits="userSpaceOnUse"><path
         id="path12"
         d="M 0,0 H 612 V 792 H 0 Z" /></clipPath><clipPath
       id="clipPath106"
       clipPathUnits="userSpaceOnUse"><path
         style="clip-rule:evenodd"
         id="path104"
         d="M 69.96,684 H 108 V 646.02 H 69.96 Z" /></clipPath><clipPath
       id="clipPath114"
       clipPathUnits="userSpaceOnUse"><path
         id="path112"
         d="M 0,792.03 H 612 V 0.03 H 0 Z" /></clipPath><clipPath
       id="clipPath136"
       clipPathUnits="userSpaceOnUse"><path
         style="clip-rule:evenodd"
         id="path134"
         d="m 504,684 h 38.04 V 646.02 H 504 Z" /></clipPath><clipPath
       id="clipPath144"
       clipPathUnits="userSpaceOnUse"><path
         id="path142"
         d="M 0,792.03 H 612 V 0.03 H 0 Z" /></clipPath><clipPath
       id="clipPath162"
       clipPathUnits="userSpaceOnUse"><path
         style="clip-rule:evenodd"
         id="path160"
         d="m 508.56,679.44 h 28.8 v -28.8 h -28.8 z" /></clipPath><clipPath
       id="clipPath170"
       clipPathUnits="userSpaceOnUse"><path
         style="clip-rule:evenodd"
         id="path168"
         d="m 504,684 h 38.04 V 646.02 H 504 Z" /></clipPath><clipPath
       id="clipPath178"
       clipPathUnits="userSpaceOnUse"><path
         id="path176"
         d="M 0,792.03 H 612 V 0.03 H 0 Z" /></clipPath><clipPath
       id="clipPath196"
       clipPathUnits="userSpaceOnUse"><path
         style="clip-rule:evenodd"
         id="path194"
         d="m 504,684 h 38.04 V 646.02 H 504 Z" /></clipPath><clipPath
       id="clipPath204"
       clipPathUnits="userSpaceOnUse"><path
         id="path202"
         d="M 0,792.03 H 612 V 0.03 H 0 Z" /></clipPath><clipPath
       id="clipPath294"
       clipPathUnits="userSpaceOnUse"><path
         style="clip-rule:evenodd"
         id="path292"
         d="M 69.96,485.94 H 108 V 447.96 H 69.96 Z" /></clipPath><clipPath
       id="clipPath302"
       clipPathUnits="userSpaceOnUse"><path
         id="path300"
         d="M 0,792.03 H 612 V 0.03 H 0 Z" /></clipPath><clipPath
       id="clipPath324"
       clipPathUnits="userSpaceOnUse"><path
         style="clip-rule:evenodd"
         id="path322"
         d="m 504,485.94 h 38.04 V 447.96 H 504 Z" /></clipPath><clipPath
       id="clipPath332"
       clipPathUnits="userSpaceOnUse"><path
         id="path330"
         d="M 0,792.03 H 612 V 0.03 H 0 Z" /></clipPath><clipPath
       id="clipPath350"
       clipPathUnits="userSpaceOnUse"><path
         style="clip-rule:evenodd"
         id="path348"
         d="m 508.56,481.38 h 28.8 v -28.8 h -28.8 z" /></clipPath><clipPath
       id="clipPath358"
       clipPathUnits="userSpaceOnUse"><path
         style="clip-rule:evenodd"
         id="path356"
         d="m 504,485.94 h 38.04 V 447.96 H 504 Z" /></clipPath><clipPath
       id="clipPath366"
       clipPathUnits="userSpaceOnUse"><path
         id="path364"
         d="M 0,792.03 H 612 V 0.03 H 0 Z" /></clipPath><clipPath
       id="clipPath384"
       clipPathUnits="userSpaceOnUse"><path
         style="clip-rule:evenodd"
         id="path382"
         d="m 504,485.94 h 38.04 V 447.96 H 504 Z" /></clipPath><clipPath
       id="clipPath392"
       clipPathUnits="userSpaceOnUse"><path
         id="path390"
         d="M 0,792.03 H 612 V 0.03 H 0 Z" /></clipPath></defs><g
     clip-path="url(#clipPath14)"
     transform="matrix(1.3333333,0,0,-1.3333333,-672.50933,647.34533)"
     id="g10"><path
       id="path16"
       style="fill:#ffffff;fill-opacity:1;fill-rule:nonzero;stroke:none"
       d="m 72,711 h 468 v 9 H 72 Z" /><path
       id="path18"
       style="fill:#ffffff;fill-opacity:1;fill-rule:nonzero;stroke:none"
       d="m 72,126 h 468 v 9 H 72 Z" /><text
       id="text22"
       style="font-style:italic;font-variant:normal;font-weight:bold;font-stretch:normal;font-size:9px;font-family:'NewCenturySchlbk LT';-inkscape-font-specification:NewCenturySchlbkLT-BoldItalic;writing-mode:lr-tb;fill:#0000ff;fill-opacity:1;fill-rule:nonzero;stroke:none"
       transform="matrix(1,0,0,-1,302.52,129.0001)"><tspan
         id="tspan20"
         y="0"
         x="0 3.4802999">ii</tspan></text>
<text
       id="text26"
       style="font-variant:normal;font-weight:bold;font-stretch:normal;font-size:15.96000004px;font-family:'Times LT Std';-inkscape-font-specification:TimesLTStd-Bold;writing-mode:lr-tb;fill:#0000ff;fill-opacity:1;fill-rule:nonzero;stroke:none"
       transform="matrix(1,0,0,-1,223.8,673.32)"><tspan
         id="tspan24"
         y="0"
         x="0 11.537484 20.425608 24.445932 30.668736 35.11998 39.571224 48.459347 54.682152 60.011196 67.111801 75.106163 80.435211 84.886452 92.880814 99.981422 104.00175 114.66143 122.65579 130.65016 143.9592 152.84732 157.29857">An Illustrative Example</tspan></text>
<text
       id="text52"
       style="font-variant:normal;font-weight:normal;font-stretch:normal;font-size:9.96000004px;font-family:'Helvetica LT';-inkscape-font-specification:HelveticaLT;writing-mode:lr-tb;fill:#000000;fill-opacity:1;fill-rule:nonzero;stroke:none"
       transform="matrix(1,0,0,-1,171,648.36)"><tspan
         id="tspan28"
         y="0"
         x="0 7.7568479 13.302576 15.521664 21.067392 26.055361 28.832209 31.051296 36.091057 41.636784 46.624752 253.8047 259.35043 262.67508">Objectives 3-1</tspan><tspan
         id="tspan30"
         y="12.0018"
         x="0 6.1134481 11.63328 17.198929 22.764576 26.064323 31.072212 33.891888 39.41172 44.99131 50.511143 53.330818 60.002029 65.009918 70.575562 78.900131 84.419968 86.640045 92.205696 97.213585 253.81367 259.3793 262.67908">Theory and Examples 3-2</tspan><tspan
         id="tspan32"
         y="24.003599"
         x="36.005402 42.684574 45.984325 51.557941 57.131557 59.378532 64.898361 73.238869 75.998787 82.677963 85.482697 91.002525 93.822205 99.342033 107.68154 113.25516 118.77499 121.57973 253.82063 259.39426 262.694">Problem Statement 3-2</tspan><tspan
         id="tspan34"
         y="36.005402"
         x="36.005402 42.68856 48.266159 51.565907 56.54591 62.123508 67.701111 70.461021 73.760773 79.338371 84.91597 253.81566 259.39325 262.69299">Perceptron 3-3</tspan><tspan
         id="tspan36"
         y="48.007198"
         x="72.010803 78.132217 85.359192 90.932808 94.232559 96.99247 102.56609 108.1397 113.65954 116.46427 119.22419 126.45116 132.02478 137.04063 142.61426 253.85052 259.42413 262.72388">Two-Input Case 3-4</tspan><tspan
         id="tspan38"
         y="60.008999"
         x="72.010803 78.68998 84.263596 87.024506 89.785416 95.366005 98.666748 104.24734 107.00726 114.23423 119.75506 124.77091 130.34453 135.91814 141.43896 143.68594 146.49068 148.73766 154.25848 159.83211 162.59203 169.27119 174.28705 179.80788 188.14838 193.722 195.96898 201.48981 253.86945 259.44305 262.7438">Pattern Recognition Example 3-5</tspan><tspan
         id="tspan40"
         y="72.010803"
         x="36.005402 43.234367 48.809975 57.144505 65.424255 67.673218 73.248825 78.824432 81.584351 88.813316 94.388931 97.148842 104.34893 109.92454 113.22428 118.24213 253.84056 259.41617 262.71591">Hamming Network 3-8</tspan><tspan
         id="tspan42"
         y="84.012604"
         x="72.000839 78.127235 83.647064 89.225662 94.80426 97.564178 103.08401 106.44152 113.67348 119.25208 122.55183 128.13042 130.89034 136.46893 141.98877 147.0096 152.52943 155.88695 253.81068 259.38928 262.68903">Feedforward Layer 3-8</tspan><tspan
         id="tspan44"
         y="96.014397"
         x="72.000839 79.20192 84.749641 89.739601 95.287323 98.61396 101.9406 107.48832 113.03604 115.81488 118.63456 124.18227 129.73 134.71996 140.26767 143.59431 253.75092 259.29865 262.62527">Recurrent Layer 3-9</tspan><tspan
         id="tspan46"
         y="108.0162"
         x="35.995441 43.200504 48.752209 54.303913 57.086735 59.311798 64.863503 67.08857 72.640274 75.400185 82.605255 88.15696 90.939781 98.199623 103.75133 107.08195 112.0759 253.80072 259.35242 262.68304 268.23474">Hopfield Network 3-12</tspan><tspan
         id="tspan48"
         y="120.018"
         x="0 6.6751919 12.244824 14.487816 16.730808 22.250641 27.820272 33.340103 38.909737 253.82961 259.39923 262.69897 268.26862">Epilogue 3-15</tspan><tspan
         id="tspan50"
         y="132.01981"
         x="0 6.6702118 11.677104 17.241756 20.541504 25.548395 27.786407 32.793301 38.357952 43.364845 253.84454 259.40921 262.70895 268.27359">Exercises 3-16</tspan></text>
<text
       id="text56"
       style="font-variant:normal;font-weight:bold;font-stretch:normal;font-size:15.96000004px;font-family:'Times LT Std';-inkscape-font-specification:TimesLTStd-Bold;writing-mode:lr-tb;fill:#0000ff;fill-opacity:1;fill-rule:nonzero;stroke:none"
       transform="matrix(1,0,0,-1,216.3,462.36)"><tspan
         id="tspan54"
         y="0"
         x="0 9.7691164 16.872911 23.976707 31.080503 38.184299 47.075615 52.407852 59.511646 67.509201 76.40052 80.360199 91.023071 98.126869 106.12443 113.22822 122.11954 126.57397 135.46529 143.46284 147.42252 158.9632 167.85451 172.30894">Perceptron Learning Rule</tspan></text>
<text
       id="text98"
       style="font-variant:normal;font-weight:normal;font-stretch:normal;font-size:9.96000004px;font-family:'Helvetica LT';-inkscape-font-specification:HelveticaLT;writing-mode:lr-tb;fill:#000000;fill-opacity:1;fill-rule:nonzero;stroke:none"
       transform="matrix(1,0,0,-1,171,437.34)"><tspan
         id="tspan58"
         y="0"
         x="0 7.7568479 13.302576 15.521664 21.067392 26.055361 28.832209 31.051296 36.091057 41.636784 46.624752 253.8047 259.35043 262.67508">Objectives 4-1</tspan><tspan
         id="tspan60"
         y="12.0018"
         x="0 6.1134481 11.63328 17.198929 22.764576 26.064323 31.072212 33.891888 39.41172 44.99131 50.511143 53.330818 60.002029 65.009918 70.575562 78.900131 84.419968 86.640045 92.205696 97.213585 253.81367 259.3793 262.67908">Theory and Examples 4-2</tspan><tspan
         id="tspan62"
         y="24.003599"
         x="36.005402 41.578018 47.097851 52.670471 55.970219 61.542839 63.788818 69.308655 74.888245 77.648163 84.874138 90.393974 92.639954 98.21257 103.22743 253.8306 259.40323 262.70297">Learning Rules 4-2</tspan><tspan
         id="tspan64"
         y="36.005402"
         x="36.005402 42.680592 48.250225 51.549973 56.529972 62.099606 67.669235 70.429153 73.728897 79.298531 84.868164 87.628082 94.303268 97.651825 102.6637 108.18353 110.42652 113.22727 118.7471 123.78687 126.54678 132.12637 135.42612 141.00571 253.81068 259.38031 262.68005">Perceptron Architecture 4-3</tspan><tspan
         id="tspan66"
         y="48.007198"
         x="72.010803 78.68998 80.936951 86.510567 92.030403 94.277374 99.85099 103.15074 110.41058 115.93041 121.51001 124.80975 130.38338 135.95699 138.7169 145.39607 150.9697 154.26944 159.24945 164.82306 170.39668 173.15659 176.45634 182.02995 187.60358 253.84056 259.41418 262.71393">Single-Neuron Perceptron 4-5</tspan><tspan
         id="tspan68"
         y="60.008999"
         x="72.010803 80.341347 85.861176 88.106163 90.908905 93.153885 98.673721 100.9187 106.49033 109.79008 117.04992 122.56976 128.14934 131.4491 137.02869 142.54852 145.36819 152.04538 157.617 160.91675 165.89674 171.46837 177.03999 179.79991 183.09966 188.67128 194.2429 253.82063 259.39227 262.69202">Multiple-Neuron Perceptron 4-8</tspan><tspan
         id="tspan70"
         y="72.010803"
         x="36.005402 42.68856 48.266159 51.565907 56.54591 62.123508 67.701111 70.461021 73.760773 79.338371 84.91597 87.675888 93.253487 98.773323 104.35092 107.65067 113.22827 115.47923 121.05683 126.57666 129.33658 136.56754 142.08737 144.33833 149.91592 253.8306 259.4082 262.70795">Perceptron Learning Rule 4-8</tspan><tspan
         id="tspan72"
         y="84.012604"
         x="72.000839 78.114288 83.634117 88.642006 91.438774 94.198692 100.8699 104.21447 109.7343 115.31389 117.5529 123.11855 131.3983 253.80072 259.36636 262.66611">Test Problem 4-9</tspan><tspan
         id="tspan74"
         y="96.014397"
         x="72.000839 79.226822 84.799438 90.319275 95.359032 98.11895 101.41869 106.99132 112.00618 114.80991 117.05589 122.57573 128.15532 130.91524 136.48785 142.00769 147.58031 150.93185 156.45168 158.67177 164.24438 169.76422 172.58389 179.80988 185.38249 187.62848 193.1483 198.16316 253.84056 259.41318 262.71292 268.28555">Constructing Learning Rules 4-10</tspan><tspan
         id="tspan76"
         y="108.0162"
         x="72.000839 79.207893 84.761589 86.988647 89.77346 92.000519 97.554214 103.10791 105.92759 111.48129 117.03498 122.58868 125.9213 131.47499 133.70204 139.25574 144.80943 147.56935 154.77641 160.33011 162.55716 168.11086 253.79076 259.34445 262.67706 268.23077">Unified Learning Rule 4-12</tspan><tspan
         id="tspan78"
         y="120.018"
         x="72.000839 78.11927 81.419014 86.989647 89.233635 94.753464 96.973549 102.54417 108.11481 110.87472 119.20427 124.7241 126.96809 129.76984 132.01382 137.53366 139.77765 145.34827 148.64803 155.90787 161.42769 167.00729 170.30704 175.88663 181.40646 184.22614 190.90233 196.47295 199.77271 204.7527 210.32333 215.89395 218.65387 221.95361 227.52425 233.09488 238.10774 253.82761 259.39825 262.698 268.26862">Training Multiple-Neuron Perceptrons 4-13</tspan><tspan
         id="tspan80"
         y="132.01981"
         x="35.995441 42.675613 45.975361 51.549973 57.124584 59.884499 62.644417 68.219025 70.978943 73.798622 81.026588 86.546425 92.121033 97.137886 102.7125 106.01225 111.58686 117.16147 122.6813 127.69816 133.21799 253.82063 259.39526 262.69501 268.26962">Proof of Convergence 4-15</tspan><tspan
         id="tspan82"
         y="144.02161"
         x="72.000839 79.229805 84.805412 87.565331 93.140938 95.900856 98.120941 103.69655 109.21638 253.81665 259.39227 262.69202 268.26761">Notation 4-15</tspan><tspan
         id="tspan84"
         y="156.02341"
         x="72.000839 78.680016 81.979767 87.553383 93.126999 95.886909 253.8067 259.38031 262.68005 268.25366">Proof 4-16</tspan><tspan
         id="tspan86"
         y="168.02521"
         x="72.000839 77.575455 79.823425 88.103172 90.323257 93.12899 98.648819 101.40874 103.62882 109.20343 114.77805 119.7949 253.83458 259.40921 262.70895 268.28357">Limitations 4-18</tspan><tspan
         id="tspan88"
         y="180.02699"
         x="0 6.6732001 12.24084 20.520588 28.860096 34.427734 37.727486 42.737366 45.49728 51.017113 53.836788 56.596703 63.817703 69.385345 74.395226 79.962868 82.203865 84.963783 89.973663 253.8306 259.39825 262.698 268.26562">Summary of Results 4-20</tspan><tspan
         id="tspan90"
         y="192.02879"
         x="0 6.6791759 12.252792 14.499768 19.515623 25.035456 30.615047 33.374966 40.054138 43.353889 48.927505 54.447334 56.694313 62.267929 70.600464 75.616318 253.8804 259.45401 262.75375 268.32739">Solved Problems 4-21</tspan><tspan
         id="tspan92"
         y="204.03059"
         x="0 6.6751919 12.244824 14.487816 16.730808 22.250641 27.820272 33.340103 38.909737 253.82961 259.39923 262.69897 268.26862">Epilogue 4-33</tspan><tspan
         id="tspan94"
         y="216.03239"
         x="0 6.1234078 11.64324 14.997768 17.757685 23.333292 28.853125 32.207653 34.967567 42.196537 47.772144 53.347752 58.867584 61.11655 66.692162 72.21199 253.8306 259.40622 262.70596 268.28156">Further Reading 4-34</tspan><tspan
         id="tspan96"
         y="228.03419"
         x="0 6.6702118 11.677104 17.241756 20.541504 25.548395 27.786407 32.793301 38.357952 43.364845 253.84454 259.40921 262.70895 268.27359">Exercises 4-36</tspan></text>
<g
       id="g100"><g
         clip-path="url(#clipPath106)"
         id="g102"><g
           id="g108"><g
             clip-path="url(#clipPath114)"
             id="g110"><path
               id="path116"
               style="fill:#0000ff;fill-opacity:1;fill-rule:nonzero;stroke:none"
               d="m 70.98,647.04 h 36 v 36 h -36 z" /><path
               id="path118"
               style="fill:#0000ff;fill-opacity:1;fill-rule:nonzero;stroke:none"
               d="m 70.98,682.8 h 36.24 v 0.48 H 70.98 Z" /><path
               id="path120"
               style="fill:#0000ff;fill-opacity:1;fill-rule:nonzero;stroke:none"
               d="m 106.74,646.8 h 0.48 v 36.24 h -0.48 z" /><path
               id="path122"
               style="fill:#0000ff;fill-opacity:1;fill-rule:nonzero;stroke:none"
               d="m 70.74,646.8 h 36.24 v 0.48 H 70.74 Z" /><path
               id="path124"
               style="fill:#0000ff;fill-opacity:1;fill-rule:nonzero;stroke:none"
               d="m 70.74,647.04 h 0.48 v 36.24 h -0.48 z" /><text
               id="text128"
               style="font-variant:normal;font-weight:bold;font-stretch:normal;font-size:24px;font-family:'Times LT Std';-inkscape-font-specification:TimesLTStd-Bold;writing-mode:lr-tb;fill:#ffffff;fill-opacity:1;fill-rule:nonzero;stroke:none"
               transform="matrix(1,0,0,-1,82.2,658.02)"><tspan
                 id="tspan126"
                 y="0"
                 x="0">3</tspan></text>
</g></g></g></g><g
       id="g130"><g
         clip-path="url(#clipPath136)"
         id="g132"><g
           id="g138"><g
             clip-path="url(#clipPath144)"
             id="g140"><path
               id="path146"
               style="fill:#0000ff;fill-opacity:1;fill-rule:nonzero;stroke:none"
               d="m 504.96,647.04 h 36 v 36 h -36 z" /><path
               id="path148"
               style="fill:#0000ff;fill-opacity:1;fill-rule:nonzero;stroke:none"
               d="m 504.96,682.5 h 36.54 v 1.02 h -36.54 z" /><path
               id="path150"
               style="fill:#0000ff;fill-opacity:1;fill-rule:nonzero;stroke:none"
               d="m 540.48,646.5 h 1.02 v 36.54 h -1.02 z" /><path
               id="path152"
               style="fill:#0000ff;fill-opacity:1;fill-rule:nonzero;stroke:none"
               d="m 504.48,646.5 h 36.48 v 1.02 h -36.48 z" /><path
               id="path154"
               style="fill:#0000ff;fill-opacity:1;fill-rule:nonzero;stroke:none"
               d="m 504.48,647.04 h 1.02 v 36.48 h -1.02 z" /></g></g></g></g><g
       id="g156"><g
         clip-path="url(#clipPath162)"
         id="g158"><g
           id="g164"><g
             clip-path="url(#clipPath170)"
             id="g166"><g
               id="g172"><g
                 clip-path="url(#clipPath178)"
                 id="g174"><path
                   id="path180"
                   style="fill:#7e7e7e;fill-opacity:1;fill-rule:nonzero;stroke:none"
                   d="m 508.56,650.64 h 28.8 v 28.8 h -28.8 z" /><path
                   id="path182"
                   style="fill:#7e7e7e;fill-opacity:1;fill-rule:nonzero;stroke:none"
                   d="m 508.56,678.9 h 28.8 v 0.57 h -28.8 z" /><path
                   id="path184"
                   style="fill:#7e7e7e;fill-opacity:1;fill-rule:nonzero;stroke:none"
                   d="m 536.88,650.61 h 0.48 v 28.83 h -0.48 z" /><path
                   id="path186"
                   style="fill:#7e7e7e;fill-opacity:1;fill-rule:nonzero;stroke:none"
                   d="m 508.5,650.61 h 28.86 v 0.51 H 508.5 Z" /><path
                   id="path188"
                   style="fill:#7e7e7e;fill-opacity:1;fill-rule:nonzero;stroke:none"
                   d="m 508.5,650.64 h 0.6 v 28.83 h -0.6 z" /></g></g></g></g></g></g><g
       id="g190"><g
         clip-path="url(#clipPath196)"
         id="g192"><g
           id="g198"><g
             clip-path="url(#clipPath204)"
             id="g200"><path
               id="path206"
               style="fill:#0000ff;fill-opacity:1;fill-rule:nonzero;stroke:none"
               d="m 512.16,654.24 h 21.6 v 21.6 h -21.6 z" /><path
               id="path208"
               style="fill:#0000ff;fill-opacity:1;fill-rule:nonzero;stroke:none"
               d="m 512.16,675.3 h 22.14 v 1.02 h -22.14 z" /><path
               id="path210"
               style="fill:#0000ff;fill-opacity:1;fill-rule:nonzero;stroke:none"
               d="m 533.28,653.7 h 1.02 v 22.14 h -1.02 z" /><path
               id="path212"
               style="fill:#0000ff;fill-opacity:1;fill-rule:nonzero;stroke:none"
               d="m 511.68,653.7 h 22.08 v 1.02 h -22.08 z" /><path
               id="path214"
               style="fill:#0000ff;fill-opacity:1;fill-rule:nonzero;stroke:none"
               d="m 511.68,654.24 h 1.02 v 22.08 h -1.02 z" /><g
               transform="translate(512.76001,655.5)"
               id="g216"><path
                 id="path218"
                 style="fill:#ffffff;fill-opacity:1;fill-rule:nonzero;stroke:none"
                 d="m 0,0 -0.36,-0.36 0.72,-0.72 0.36,0.36" /></g><g
               transform="translate(532.38,675.23999)"
               id="g220"><path
                 id="path222"
                 style="fill:#ffffff;fill-opacity:1;fill-rule:nonzero;stroke:none"
                 d="M 0,0 0.36,0.36 1.08,-0.36 0.72,-0.72" /></g><g
               transform="translate(512.76001,655.5)"
               id="g224"><path
                 id="path226"
                 style="fill:#ffffff;fill-opacity:1;fill-rule:nonzero;stroke:none"
                 d="m 0,0 0.72,-0.72 19.62,19.74 -0.72,0.72" /></g><g
               transform="translate(521.28003,669.23999)"
               id="g228"><path
                 id="path230"
                 style="fill:#ffffff;fill-opacity:1;fill-rule:evenodd;stroke:none"
                 d="M 0,0 -0.06,0.66 -0.3,1.32 C -1.497,4.478 -6.294,3.997 -6.84,0.66 L -6.96,0 -6.84,-0.72 c 0.648,-3.282 5.223,-3.772 6.54,-0.66 L -0.06,-0.72 0,0" /></g><g
               transform="translate(521.15997,669.23999)"
               id="g232"><path
                 id="path234"
                 style="fill:#ffffff;fill-opacity:1;fill-rule:nonzero;stroke:none"
                 d="M 0,0 -0.06,0.66 V 0.6 l -0.24,0.66 -0.3,0.6 h 0.06 L -0.96,2.4 V 2.34 l -0.48,0.42 -0.6,0.3 h 0.06 L -2.64,3.24 -3.36,3.36 H -3.3 L -3.96,3.24 -4.62,3.06 -5.22,2.76 -5.76,2.34 -5.7,2.4 -6.12,1.86 -6.42,1.26 -6.6,0.6 -6.72,-0.06 V 0 l 0.12,-0.72 0.18,-0.66 v 0.06 l 0.3,-0.54 0.42,-0.54 h -0.06 l 0.54,-0.42 v 0.06 l 0.6,-0.3 0.66,-0.24 h -0.06 l 0.66,-0.06 0.72,0.06 0.66,0.24 h -0.06 l 0.6,0.3 v -0.06 l 0.48,0.42 0.42,0.54 0.3,0.54 -0.06,-0.06 0.24,0.66 L 0,0 H 0.24 L 0.18,-0.72 v -0.06 l -0.24,-0.66 -0.3,-0.54 -0.42,-0.54 V -2.58 L -1.26,-3 h -0.06 l -0.6,-0.3 -0.66,-0.24 h -0.06 l -0.72,-0.06 -0.66,0.06 -0.66,0.24 h -0.06 l -0.6,0.3 -0.54,0.42 v 0.06 l -0.42,0.54 -0.3,0.54 h -0.06 l -0.18,0.66 -0.12,0.72 V 0 l 0.12,0.66 0.18,0.66 v 0.06 l 0.3,0.6 h 0.06 l 0.42,0.54 0.54,0.42 V 3 l 0.6,0.3 h 0.06 l 0.66,0.18 0.66,0.12 H -3.3 L -2.58,3.48 -1.92,3.3 -1.32,3 -1.26,2.94 -0.78,2.52 -0.36,1.98 -0.06,1.38 V 1.32 L 0.18,0.66 0.24,0" /></g><g
               transform="translate(521.15997,669.23999)"
               id="g236"><path
                 id="path238"
                 style="fill:#ffffff;fill-opacity:1;fill-rule:nonzero;stroke:none"
                 d="M 0,0 H 0.24" /></g><g
               transform="translate(527.34003,662.15997)"
               id="g240"><path
                 id="path242"
                 style="fill:#ffffff;fill-opacity:1;fill-rule:evenodd;stroke:none"
                 d="M 0,0 -0.6,0.36 C -3.577,1.468 -5.484,-5.3 -1.08,-6.12 L 0,-6.24" /></g><g
               transform="translate(527.28003,662.03998)"
               id="g244"><path
                 id="path246"
                 style="fill:#ffffff;fill-opacity:1;fill-rule:nonzero;stroke:none"
                 d="M 0,0 0.06,-0.06 0.18,0.12 0.12,0.18" /></g><g
               transform="translate(527.28003,662.03998)"
               id="g248"><path
                 id="path250"
                 style="fill:#ffffff;fill-opacity:1;fill-rule:nonzero;stroke:none"
                 d="m 0,0 -0.6,0.36 h 0.06 l -0.6,0.12 -0.54,-0.06 h 0.06 L -2.16,0.18 h 0.06 l -0.42,-0.42 v 0.06 l -0.42,-0.54 -0.24,-0.6 -0.24,-0.72 v 0.06 L -3.48,-2.7 v -0.72 l 0.18,-0.66 v 0.06 l 0.36,-0.66 0.48,-0.54 h -0.06 l 0.72,-0.42 v 0.06 l -0.06,-0.24 h -0.06 c -2.506,1.04 -2.246,4.682 -0.36,6.18 v 0.06 l 0.54,0.24 h 0.06 l 0.54,0.06 h 0.06 L -0.48,0.6 V 0.54 l 0.6,-0.36" /></g><g
               transform="translate(525.47998,656.46002)"
               id="g252"><path
                 id="path254"
                 style="fill:#ffffff;fill-opacity:1;fill-rule:nonzero;stroke:none"
                 d="M 0,0 0.84,-0.3 H 0.78 v -0.24 l -0.84,0.3" /></g><path
               id="path256"
               style="fill:#ffffff;fill-opacity:1;fill-rule:nonzero;stroke:none"
               d="m 527.34,655.8 h 0.12 v 0.24 h -0.12 z" /><g
               transform="translate(526.26001,656.15997)"
               id="g258"><path
                 id="path260"
                 style="fill:#ffffff;fill-opacity:1;fill-rule:nonzero;stroke:none"
                 d="m 0,0 v -0.24 l 1.08,-0.12 v 0.24" /></g><g
               transform="translate(527.34003,662.09998)"
               id="g262"><path
                 id="path264"
                 style="fill:#ffffff;fill-opacity:1;fill-rule:evenodd;stroke:none"
                 d="M 0,0 0.6,0.36 C 3.56,1.588 5.429,-5.326 1.08,-6 L 0,-6.12" /></g><g
               transform="translate(527.28003,662.15997)"
               id="g266"><path
                 id="path268"
                 style="fill:#ffffff;fill-opacity:1;fill-rule:nonzero;stroke:none"
                 d="m 0,0 -0.06,-0.06 0.12,-0.18 0.06,0.06" /></g><g
               transform="translate(527.28003,662.15997)"
               id="g270"><path
                 id="path272"
                 style="fill:#ffffff;fill-opacity:1;fill-rule:nonzero;stroke:none"
                 d="M 0,0 0.6,0.36 0.66,0.42 1.26,0.6 1.8,0.54 1.86,0.48 2.34,0.18 2.82,-0.18 h 0.06 l 0.36,-0.54 0.3,-0.6 V -1.38 L 3.78,-2.1 3.84,-2.82 3.78,-3.54 V -3.6 L 3.6,-4.26 3.3,-4.92 V -4.98 L 2.76,-5.52 H 2.7 L 2.04,-5.94 1.98,-5.7 1.92,-5.76 2.58,-5.34 3.12,-4.8 H 3.06 l 0.3,0.66 V -4.2 L 3.54,-3.54 3.6,-2.82 3.54,-2.1 V -2.16 L 3.3,-1.44 3,-0.84 H 3.06 L 2.7,-0.3 V -0.36 L 2.22,0 1.74,0.3 H 1.8 L 1.26,0.36 H 1.32 L 0.72,0.18 0.12,-0.18" /></g><g
               transform="translate(529.32001,656.21997)"
               id="g274"><path
                 id="path276"
                 style="fill:#ffffff;fill-opacity:1;fill-rule:nonzero;stroke:none"
                 d="M 0,0 -0.84,-0.24 H -0.9 V 0 l 0.84,0.24" /></g><path
               id="path278"
               style="fill:#ffffff;fill-opacity:1;fill-rule:nonzero;stroke:none"
               d="m 527.22,655.86 h 0.12 v 0.24 h -0.12 z" /><g
               transform="translate(528.41998,655.97998)"
               id="g280"><path
                 id="path282"
                 style="fill:#ffffff;fill-opacity:1;fill-rule:nonzero;stroke:none"
                 d="M 0,0 V 0.24 L -1.08,0.12 v -0.24" /></g><path
               id="path284"
               style="fill:#ffffff;fill-opacity:1;fill-rule:nonzero;stroke:none"
               d="m 526.86,660.9 h 1.02 v 0.48 h -1.02 z" /><path
               id="path286"
               style="fill:#ffffff;fill-opacity:1;fill-rule:nonzero;stroke:none"
               d="m 526.86,661.38 h 1.02 v 3.12 h -1.02 z" /></g></g></g></g><g
       id="g288"><g
         clip-path="url(#clipPath294)"
         id="g290"><g
           id="g296"><g
             clip-path="url(#clipPath302)"
             id="g298"><path
               id="path304"
               style="fill:#0000ff;fill-opacity:1;fill-rule:nonzero;stroke:none"
               d="m 70.98,448.98 h 36 v 36 h -36 z" /><path
               id="path306"
               style="fill:#0000ff;fill-opacity:1;fill-rule:nonzero;stroke:none"
               d="m 70.98,484.74 h 36.24 v 0.48 H 70.98 Z" /><path
               id="path308"
               style="fill:#0000ff;fill-opacity:1;fill-rule:nonzero;stroke:none"
               d="m 106.74,448.74 h 0.48 v 36.24 h -0.48 z" /><path
               id="path310"
               style="fill:#0000ff;fill-opacity:1;fill-rule:nonzero;stroke:none"
               d="m 70.74,448.74 h 36.24 v 0.48 H 70.74 Z" /><path
               id="path312"
               style="fill:#0000ff;fill-opacity:1;fill-rule:nonzero;stroke:none"
               d="m 70.74,448.98 h 0.48 v 36.24 h -0.48 z" /><text
               id="text316"
               style="font-variant:normal;font-weight:bold;font-stretch:normal;font-size:24px;font-family:'Times LT Std';-inkscape-font-specification:TimesLTStd-Bold;writing-mode:lr-tb;fill:#ffffff;fill-opacity:1;fill-rule:nonzero;stroke:none"
               transform="matrix(1,0,0,-1,82.2,459.96)"><tspan
                 id="tspan314"
                 y="0"
                 x="0">4</tspan></text>
</g></g></g></g><g
       id="g318"><g
         clip-path="url(#clipPath324)"
         id="g320"><g
           id="g326"><g
             clip-path="url(#clipPath332)"
             id="g328"><path
               id="path334"
               style="fill:#0000ff;fill-opacity:1;fill-rule:nonzero;stroke:none"
               d="m 504.96,448.98 h 36 v 36 h -36 z" /><path
               id="path336"
               style="fill:#0000ff;fill-opacity:1;fill-rule:nonzero;stroke:none"
               d="m 504.96,484.44 h 36.54 v 1.02 h -36.54 z" /><path
               id="path338"
               style="fill:#0000ff;fill-opacity:1;fill-rule:nonzero;stroke:none"
               d="m 540.48,448.44 h 1.02 v 36.54 h -1.02 z" /><path
               id="path340"
               style="fill:#0000ff;fill-opacity:1;fill-rule:nonzero;stroke:none"
               d="m 504.48,448.44 h 36.48 v 1.02 h -36.48 z" /><path
               id="path342"
               style="fill:#0000ff;fill-opacity:1;fill-rule:nonzero;stroke:none"
               d="m 504.48,448.98 h 1.02 v 36.48 h -1.02 z" /></g></g></g></g><g
       id="g344"><g
         clip-path="url(#clipPath350)"
         id="g346"><g
           id="g352"><g
             clip-path="url(#clipPath358)"
             id="g354"><g
               id="g360"><g
                 clip-path="url(#clipPath366)"
                 id="g362"><path
                   id="path368"
                   style="fill:#7e7e7e;fill-opacity:1;fill-rule:nonzero;stroke:none"
                   d="m 508.56,452.58 h 28.8 v 28.8 h -28.8 z" /><path
                   id="path370"
                   style="fill:#7e7e7e;fill-opacity:1;fill-rule:nonzero;stroke:none"
                   d="m 508.56,480.84 h 28.8 v 0.57 h -28.8 z" /><path
                   id="path372"
                   style="fill:#7e7e7e;fill-opacity:1;fill-rule:nonzero;stroke:none"
                   d="m 536.88,452.55 h 0.48 v 28.83 h -0.48 z" /><path
                   id="path374"
                   style="fill:#7e7e7e;fill-opacity:1;fill-rule:nonzero;stroke:none"
                   d="m 508.5,452.55 h 28.86 v 0.51 H 508.5 Z" /><path
                   id="path376"
                   style="fill:#7e7e7e;fill-opacity:1;fill-rule:nonzero;stroke:none"
                   d="m 508.5,452.58 h 0.6 v 28.83 h -0.6 z" /></g></g></g></g></g></g><g
       id="g378"><g
         clip-path="url(#clipPath384)"
         id="g380"><g
           id="g386"><g
             clip-path="url(#clipPath392)"
             id="g388"><path
               id="path394"
               style="fill:#0000ff;fill-opacity:1;fill-rule:nonzero;stroke:none"
               d="m 512.16,456.18 h 21.6 v 21.6 h -21.6 z" /><path
               id="path396"
               style="fill:#0000ff;fill-opacity:1;fill-rule:nonzero;stroke:none"
               d="m 512.16,477.24 h 22.14 v 1.02 h -22.14 z" /><path
               id="path398"
               style="fill:#0000ff;fill-opacity:1;fill-rule:nonzero;stroke:none"
               d="m 533.28,455.64 h 1.02 v 22.14 h -1.02 z" /><path
               id="path400"
               style="fill:#0000ff;fill-opacity:1;fill-rule:nonzero;stroke:none"
               d="m 511.68,455.64 h 22.08 v 1.02 h -22.08 z" /><path
               id="path402"
               style="fill:#0000ff;fill-opacity:1;fill-rule:nonzero;stroke:none"
               d="m 511.68,456.18 h 1.02 v 22.08 h -1.02 z" /><path
               id="path404"
               style="fill:#cccccc;fill-opacity:1;fill-rule:nonzero;stroke:none"
               d="m 513,457.02 h 0.48 v 1.02 H 513 Z" /><path
               id="path406"
               style="fill:#cccccc;fill-opacity:1;fill-rule:nonzero;stroke:none"
               d="m 513.48,457.02 h 19.68 v 1.02 h -19.68 z" /><path
               id="path408"
               style="fill:#ffffff;fill-opacity:1;fill-rule:nonzero;stroke:none"
               d="m 512.82,456.54 h 0.96 v 1.98 h -0.96 z" /><path
               id="path410"
               style="fill:#ffffff;fill-opacity:1;fill-rule:nonzero;stroke:none"
               d="m 513.78,456.54 h 10.2 v 1.98 h -10.2 z" /><path
               id="path412"
               style="fill:#ffffff;fill-opacity:1;fill-rule:nonzero;stroke:none"
               d="m 522.06,456.6 h 1.98 v 0.96 h -1.98 z" /><path
               id="path414"
               style="fill:#ffffff;fill-opacity:1;fill-rule:nonzero;stroke:none"
               d="m 522.06,457.56 h 1.98 v 19.68 h -1.98 z" /><path
               id="path416"
               style="fill:#ffffff;fill-opacity:1;fill-rule:nonzero;stroke:none"
               d="m 522.06,475.26 h 0.96 v 1.98 h -0.96 z" /><path
               id="path418"
               style="fill:#ffffff;fill-opacity:1;fill-rule:nonzero;stroke:none"
               d="m 523.02,475.26 h 10.14 v 1.98 h -10.14 z" /></g></g></g></g></g></svg>