<?xml version="1.0" encoding="UTF-8"?>
<svg xmlns="http://www.w3.org/2000/svg" xmlns:xlink="http://www.w3.org/1999/xlink" width="37.091pt" height="37.146pt" viewBox="0 0 37.091 37.146" version="1.1">
<defs>
<clipPath id="clip1">
  <path d="M 0 0 L 37.089844 0 L 37.089844 2 L 0 2 Z M 0 0 "/>
</clipPath>
<clipPath id="clip2">
  <path d="M 36 0 L 37.089844 0 L 37.089844 37.144531 L 36 37.144531 Z M 36 0 "/>
</clipPath>
<clipPath id="clip3">
  <path d="M 0 36 L 37 36 L 37 37.144531 L 0 37.144531 Z M 0 36 "/>
</clipPath>
<clipPath id="clip4">
  <path d="M 4.179688 4.125 L 32.976562 4.125 L 32.976562 32.925781 L 4.179688 32.925781 Z M 4.179688 4.125 "/>
</clipPath>
<clipPath id="clip5">
  <path d="M 4.179688 4.125 L 32.976562 4.125 L 32.976562 5 L 4.179688 5 Z M 4.179688 4.125 "/>
</clipPath>
<clipPath id="clip6">
  <path d="M 32 4.125 L 32.976562 4.125 L 32.976562 32.925781 L 32 32.925781 Z M 32 4.125 "/>
</clipPath>
<clipPath id="clip7">
  <path d="M 4.179688 32 L 32.976562 32 L 32.976562 32.925781 L 4.179688 32.925781 Z M 4.179688 32 "/>
</clipPath>
<clipPath id="clip8">
  <path d="M 4.179688 4.125 L 5 4.125 L 5 32.925781 L 4.179688 32.925781 Z M 4.179688 4.125 "/>
</clipPath>
</defs>
<g id="surface1">
<path style=" stroke:none;fill-rule:nonzero;fill:rgb(0%,0%,100%);fill-opacity:1;" d="M 0.578125 36.523438 L 36.578125 36.523438 L 36.578125 0.523438 L 0.578125 0.523438 Z M 0.578125 36.523438 "/>
<g clip-path="url(#clip1)" clip-rule="nonzero">
<path style=" stroke:none;fill-rule:nonzero;fill:rgb(0%,0%,100%);fill-opacity:1;" d="M 0.578125 1.0625 L 37.117188 1.0625 L 37.117188 0.0429688 L 0.578125 0.0429688 Z M 0.578125 1.0625 "/>
</g>
<g clip-path="url(#clip2)" clip-rule="nonzero">
<path style=" stroke:none;fill-rule:nonzero;fill:rgb(0%,0%,100%);fill-opacity:1;" d="M 36.097656 37.0625 L 37.117188 37.0625 L 37.117188 0.523438 L 36.097656 0.523438 Z M 36.097656 37.0625 "/>
</g>
<g clip-path="url(#clip3)" clip-rule="nonzero">
<path style=" stroke:none;fill-rule:nonzero;fill:rgb(0%,0%,100%);fill-opacity:1;" d="M 0.0976562 37.0625 L 36.578125 37.0625 L 36.578125 36.042969 L 0.0976562 36.042969 Z M 0.0976562 37.0625 "/>
</g>
<path style=" stroke:none;fill-rule:nonzero;fill:rgb(0%,0%,100%);fill-opacity:1;" d="M 0.0976562 36.523438 L 1.117188 36.523438 L 1.117188 0.0429688 L 0.0976562 0.0429688 Z M 0.0976562 36.523438 "/>
<g clip-path="url(#clip4)" clip-rule="nonzero">
<path style=" stroke:none;fill-rule:nonzero;fill:rgb(49.598694%,49.598694%,49.598694%);fill-opacity:1;" d="M 4.179688 32.925781 L 32.976562 32.925781 L 32.976562 4.125 L 4.179688 4.125 Z M 4.179688 32.925781 "/>
</g>
<g clip-path="url(#clip5)" clip-rule="nonzero">
<path style=" stroke:none;fill-rule:nonzero;fill:rgb(49.598694%,49.598694%,49.598694%);fill-opacity:1;" d="M 4.179688 4.664062 L 32.976562 4.664062 L 32.976562 4.09375 L 4.179688 4.09375 Z M 4.179688 4.664062 "/>
</g>
<g clip-path="url(#clip6)" clip-rule="nonzero">
<path style=" stroke:none;fill-rule:nonzero;fill:rgb(49.598694%,49.598694%,49.598694%);fill-opacity:1;" d="M 32.496094 32.953125 L 32.976562 32.953125 L 32.976562 4.125 L 32.496094 4.125 Z M 32.496094 32.953125 "/>
</g>
<g clip-path="url(#clip7)" clip-rule="nonzero">
<path style=" stroke:none;fill-rule:nonzero;fill:rgb(49.598694%,49.598694%,49.598694%);fill-opacity:1;" d="M 4.117188 32.953125 L 32.976562 32.953125 L 32.976562 32.445312 L 4.117188 32.445312 Z M 4.117188 32.953125 "/>
</g>
<g clip-path="url(#clip8)" clip-rule="nonzero">
<path style=" stroke:none;fill-rule:nonzero;fill:rgb(49.598694%,49.598694%,49.598694%);fill-opacity:1;" d="M 4.117188 32.925781 L 4.71875 32.925781 L 4.71875 4.09375 L 4.117188 4.09375 Z M 4.117188 32.925781 "/>
</g>
<path style=" stroke:none;fill-rule:nonzero;fill:rgb(0%,0%,100%);fill-opacity:1;" d="M 7.777344 29.324219 L 29.378906 29.324219 L 29.378906 7.722656 L 7.777344 7.722656 Z M 7.777344 29.324219 "/>
<path style=" stroke:none;fill-rule:nonzero;fill:rgb(0%,0%,100%);fill-opacity:1;" d="M 7.777344 8.265625 L 29.917969 8.265625 L 29.917969 7.242188 L 7.777344 7.242188 Z M 7.777344 8.265625 "/>
<path style=" stroke:none;fill-rule:nonzero;fill:rgb(0%,0%,100%);fill-opacity:1;" d="M 28.898438 29.863281 L 29.917969 29.863281 L 29.917969 7.722656 L 28.898438 7.722656 Z M 28.898438 29.863281 "/>
<path style=" stroke:none;fill-rule:nonzero;fill:rgb(0%,0%,100%);fill-opacity:1;" d="M 7.296875 29.863281 L 29.378906 29.863281 L 29.378906 28.84375 L 7.296875 28.84375 Z M 7.296875 29.863281 "/>
<path style=" stroke:none;fill-rule:nonzero;fill:rgb(0%,0%,100%);fill-opacity:1;" d="M 7.296875 29.324219 L 8.316406 29.324219 L 8.316406 7.242188 L 7.296875 7.242188 Z M 7.296875 29.324219 "/>
<path style=" stroke:none;fill-rule:nonzero;fill:rgb(100%,100%,100%);fill-opacity:1;" d="M 24.15625 11.925781 L 25.238281 12.945312 L 27.277344 10.964844 L 26.199219 9.945312 "/>
<path style=" stroke:none;fill-rule:evenodd;fill:rgb(100%,100%,100%);fill-opacity:1;" d="M 25.238281 11.925781 L 25.117188 11.804688 L 24.996094 11.742188 C 24.351562 11.433594 23.6875 12.242188 24.097656 12.824219 L 24.21875 12.945312 L 24.277344 13.0625 L 24.457031 13.125 L 24.578125 13.183594 L 24.878906 13.183594 L 25.117188 13.0625 L 25.238281 12.945312 C 25.464844 12.738281 25.5 12.578125 25.476562 12.285156 L 25.359375 12.042969 L 25.238281 11.925781 "/>
<path style=" stroke:none;fill-rule:nonzero;fill:rgb(100%,100%,100%);fill-opacity:1;" d="M 23.796875 9.644531 L 23.796875 11.203125 L 26.738281 11.203125 L 27.519531 10.425781 L 27.519531 9.644531 L 26.738281 9.644531 "/>
<path style=" stroke:none;fill-rule:nonzero;fill:rgb(100%,100%,100%);fill-opacity:1;" d="M 25.957031 13.363281 L 27.519531 13.363281 L 27.519531 10.425781 L 25.957031 10.425781 Z M 25.957031 13.363281 "/>
<path style=" stroke:none;fill-rule:nonzero;fill:rgb(100%,100%,100%);fill-opacity:1;" d="M 11.316406 26.683594 L 11.257812 26.445312 L 11.078125 26.203125 C 10.65625 25.765625 10.152344 25.964844 9.878906 26.445312 L 9.816406 26.683594 L 9.878906 26.984375 C 10.152344 27.460938 10.65625 27.660156 11.078125 27.222656 L 11.257812 26.984375 L 11.316406 26.683594 "/>
<path style=" stroke:none;fill-rule:nonzero;fill:rgb(100%,100%,100%);fill-opacity:1;" d="M 25.476562 12.402344 L 25.417969 12.164062 L 25.238281 11.925781 C 24.8125 11.488281 24.3125 11.6875 24.039062 12.164062 L 23.976562 12.402344 L 24.039062 12.703125 C 24.3125 13.183594 24.8125 13.382812 25.238281 12.945312 L 25.417969 12.703125 L 25.476562 12.402344 "/>
<path style=" stroke:none;fill-rule:nonzero;fill:rgb(100%,100%,100%);fill-opacity:1;" d="M 9.996094 26.144531 L 11.078125 27.222656 L 25.238281 12.945312 L 24.15625 11.863281 "/>
</g>
</svg>
