<?xml version="1.0" encoding="UTF-8" standalone="no"?>
<svg
   xmlns:dc="http://purl.org/dc/elements/1.1/"
   xmlns:cc="http://creativecommons.org/ns#"
   xmlns:rdf="http://www.w3.org/1999/02/22-rdf-syntax-ns#"
   xmlns:svg="http://www.w3.org/2000/svg"
   xmlns="http://www.w3.org/2000/svg"
   viewBox="0 0 49.454666 49.236"
   height="49.236"
   width="49.454666"
   xml:space="preserve"
   id="svg2"
   version="1.1"><metadata
     id="metadata8"><rdf:RDF><cc:Work
         rdf:about=""><dc:format>image/svg+xml</dc:format><dc:type
           rdf:resource="http://purl.org/dc/dcmitype/StillImage" /></cc:Work></rdf:RDF></metadata><defs
     id="defs6"><clipPath
       id="clipPath14"
       clipPathUnits="userSpaceOnUse"><path
         id="path12"
         d="M 0,0 H 612 V 792 H 0 Z" /></clipPath><clipPath
       id="clipPath98"
       clipPathUnits="userSpaceOnUse"><path
         style="clip-rule:evenodd"
         id="path96"
         d="M 69.96,684 H 108 V 646.02 H 69.96 Z" /></clipPath><clipPath
       id="clipPath106"
       clipPathUnits="userSpaceOnUse"><path
         id="path104"
         d="M 0,792.03 H 612 V 0.03 H 0 Z" /></clipPath><clipPath
       id="clipPath128"
       clipPathUnits="userSpaceOnUse"><path
         style="clip-rule:evenodd"
         id="path126"
         d="m 504,684 h 38.04 V 646.02 H 504 Z" /></clipPath><clipPath
       id="clipPath136"
       clipPathUnits="userSpaceOnUse"><path
         id="path134"
         d="M 0,792.03 H 612 V 0.03 H 0 Z" /></clipPath><clipPath
       id="clipPath154"
       clipPathUnits="userSpaceOnUse"><path
         style="clip-rule:evenodd"
         id="path152"
         d="m 508.56,679.44 h 28.8 v -28.8 h -28.8 z" /></clipPath><clipPath
       id="clipPath162"
       clipPathUnits="userSpaceOnUse"><path
         style="clip-rule:evenodd"
         id="path160"
         d="m 504,684 h 38.04 V 646.02 H 504 Z" /></clipPath><clipPath
       id="clipPath170"
       clipPathUnits="userSpaceOnUse"><path
         id="path168"
         d="M 0,792.03 H 612 V 0.03 H 0 Z" /></clipPath><clipPath
       id="clipPath188"
       clipPathUnits="userSpaceOnUse"><path
         style="clip-rule:evenodd"
         id="path186"
         d="m 504,684 h 38.04 V 646.02 H 504 Z" /></clipPath><clipPath
       id="clipPath196"
       clipPathUnits="userSpaceOnUse"><path
         id="path194"
         d="M 0,792.03 H 612 V 0.03 H 0 Z" /></clipPath><clipPath
       id="clipPath240"
       clipPathUnits="userSpaceOnUse"><path
         style="clip-rule:evenodd"
         id="path238"
         d="M 69.96,437.94 H 108 V 399.96 H 69.96 Z" /></clipPath><clipPath
       id="clipPath248"
       clipPathUnits="userSpaceOnUse"><path
         id="path246"
         d="M 0,792.03 H 612 V 0.03 H 0 Z" /></clipPath><clipPath
       id="clipPath270"
       clipPathUnits="userSpaceOnUse"><path
         style="clip-rule:evenodd"
         id="path268"
         d="m 504,437.94 h 38.04 V 399.96 H 504 Z" /></clipPath><clipPath
       id="clipPath278"
       clipPathUnits="userSpaceOnUse"><path
         id="path276"
         d="M 0,792.03 H 612 V 0.03 H 0 Z" /></clipPath><clipPath
       id="clipPath296"
       clipPathUnits="userSpaceOnUse"><path
         style="clip-rule:evenodd"
         id="path294"
         d="m 508.56,433.38 h 28.8 v -28.8 h -28.8 z" /></clipPath><clipPath
       id="clipPath304"
       clipPathUnits="userSpaceOnUse"><path
         style="clip-rule:evenodd"
         id="path302"
         d="m 504,437.94 h 38.04 V 399.96 H 504 Z" /></clipPath><clipPath
       id="clipPath312"
       clipPathUnits="userSpaceOnUse"><path
         id="path310"
         d="M 0,792.03 H 612 V 0.03 H 0 Z" /></clipPath><clipPath
       id="clipPath330"
       clipPathUnits="userSpaceOnUse"><path
         style="clip-rule:evenodd"
         id="path328"
         d="m 504,437.94 h 38.04 V 399.96 H 504 Z" /></clipPath><clipPath
       id="clipPath338"
       clipPathUnits="userSpaceOnUse"><path
         id="path336"
         d="M 0,792.03 H 612 V 0.03 H 0 Z" /></clipPath></defs><g
     clip-path="url(#clipPath14)"
     transform="matrix(1.3333333,0,0,-1.3333333,-672.58133,583.272)"
     id="g10"><path
       id="path16"
       style="fill:#ffffff;fill-opacity:1;fill-rule:nonzero;stroke:none"
       d="m 72,711 h 468 v 9 H 72 Z" /><path
       id="path18"
       style="fill:#ffffff;fill-opacity:1;fill-rule:nonzero;stroke:none"
       d="m 72,126 h 468 v 9 H 72 Z" /><text
       id="text22"
       style="font-style:italic;font-variant:normal;font-weight:bold;font-stretch:normal;font-size:9px;font-family:'NewCenturySchlbk LT';-inkscape-font-specification:NewCenturySchlbkLT-BoldItalic;writing-mode:lr-tb;fill:#0000ff;fill-opacity:1;fill-rule:nonzero;stroke:none"
       transform="matrix(1,0,0,-1,300.78,129.0001)"><tspan
         id="tspan20"
         y="0"
         x="0 3.4802999 6.9605999">iii</tspan></text>
<text
       id="text26"
       style="font-variant:normal;font-weight:bold;font-stretch:normal;font-size:15.96000004px;font-family:'Times LT Std';-inkscape-font-specification:TimesLTStd-Bold;writing-mode:lr-tb;fill:#0000ff;fill-opacity:1;fill-rule:nonzero;stroke:none"
       transform="matrix(1,0,0,-1,192.72,673.32)"><tspan
         id="tspan24"
         y="0"
         x="0 8.886528 13.336176 21.328943 30.215471 38.208241 42.657887 46.678211 54.670979 63.557507 72.444038 76.464363 92.437126 99.536133 103.98579 111.97855 120.86508 126.19253 130.21284 141.74873 148.84775 155.94676 161.2742 169.26697 176.36598 180.38631 189.27283 198.15936 206.15213 213.25113 220.35014">Signal and Weight Vector Spaces</tspan></text>
<text
       id="text60"
       style="font-variant:normal;font-weight:normal;font-stretch:normal;font-size:9.96000004px;font-family:'Helvetica LT';-inkscape-font-specification:HelveticaLT;writing-mode:lr-tb;fill:#000000;fill-opacity:1;fill-rule:nonzero;stroke:none"
       transform="matrix(1,0,0,-1,171,648.36)"><tspan
         id="tspan28"
         y="0"
         x="0 7.7568479 13.302576 15.521664 21.067392 26.055361 28.832209 31.051296 36.091057 41.636784 46.624752 253.8047 259.35043 262.67508">Objectives 5-1</tspan><tspan
         id="tspan30"
         y="12.0018"
         x="0 6.1134481 11.63328 17.198929 22.764576 26.064323 31.072212 33.891888 39.41172 44.99131 50.511143 53.330818 60.002029 65.009918 70.575562 78.900131 84.419968 86.640045 92.205696 97.213585 253.81367 259.3793 262.67908">Theory and Examples 5-2</tspan><tspan
         id="tspan32"
         y="24.003599"
         x="36.005402 41.577023 43.737347 49.308971 54.880596 60.400429 63.750973 66.510887 73.188072 78.759697 83.77356 86.533478 92.105103 95.455643 98.215561 104.89275 110.46437 115.9842 121.02396 126.54379 131.52379 253.80072 259.37234 262.67209">Linear Vector Spaces 5-2</tspan><tspan
         id="tspan34"
         y="36.005402"
         x="36.005402 41.583 43.743324 49.320923 54.898525 60.418358 63.774876 66.53479 69.294708 74.872307 80.449905 85.969742 91.54734 97.124939 102.64478 108.22237 113.7422 119.3198 124.33965 129.91725 253.82063 259.39825 262.698">Linear Independence 5-4</tspan><tspan
         id="tspan36"
         y="48.007198"
         x="36.005402 42.644737 48.224327 53.758102 59.337696 64.871475 67.078606 72.658203 78.237793 80.997711 86.577301 89.337219 95.976555 101.55614 107.08992 112.12968 117.66346 253.80072 259.38031 262.68005">Spanning a Space 5-5</tspan><tspan
         id="tspan38"
         y="60.008999"
         x="36.005402 38.765316 44.34391 49.863743 55.442341 58.799854 61.559772 68.243927 71.543678 77.122269 82.700867 88.220703 93.241539 96.00145 253.80072 259.3793 262.67908">Inner Product 5-6</tspan><tspan
         id="tspan40"
         y="72.010803"
         x="36.005402 43.213451 48.768143 52.101757 60.415367 253.79575 259.35043 262.68405">Norm 5-7</tspan><tspan
         id="tspan42"
         y="84.012604"
         x="36.005402 43.745316 47.104824 49.864738 55.43935 61.013966 66.533798 72.108406 77.628242 83.20285 85.450821 87.698799 90.45871 95.475563 253.81566 259.39026 262.69003">Orthogonality 5-7</tspan><tspan
         id="tspan44"
         y="96.014397"
         x="72.010803 79.79155 83.091301 88.660934 96.940681 100.28923 106.96442 111.9763 117.54593 125.87448 128.11748 133.6373 136.45699 139.21689 146.95682 150.31631 153.07623 158.65582 164.17566 169.74529 175.31493 180.83476 186.40439 188.64738 190.89037 195.90224 201.47188 204.2318 206.47478 212.04442 217.56425 253.86447 259.43408 262.73386">Gram-Schmidt Orthogonalization 5-8</tspan><tspan
         id="tspan46"
         y="108.0162"
         x="36.005402 42.676609 48.242256 53.250145 56.010059 61.575706 64.875458 67.695129 74.366341 79.374229 84.939873 90.459709 96.025352 101.03324 103.27225 108.8379 114.35773 119.39749 253.86047 259.42612 262.72589">Vector Expansions 5-9</tspan><tspan
         id="tspan48"
         y="120.018"
         x="72.010803 79.226822 84.789482 89.79438 92.030403 97.593063 100.89281 106.45547 111.46037 117.02303 119.25905 122.01897 128.68718 134.24985 139.25475 141.49077 146.49567 149.31534 155.98357 161.50339 166.50829 169.2682 174.83087 178.13062 183.13551 253.8804 259.44305 262.7428 268.30548">Reciprocal Basis Vectors 5-10</tspan><tspan
         id="tspan50"
         y="132.01981"
         x="0.019920001 6.69312 12.26076 20.540508 28.880016 34.447655 37.747402 42.757282 45.5172 51.037033 53.856709 56.616623 63.837624 69.405266 74.415146 79.98278 82.223785 84.983704 89.993584 253.85052 259.41815 262.7179 268.28555">Summary of Results 5-14</tspan><tspan
         id="tspan52"
         y="144.02161"
         x="0.019920001 6.6990962 12.272712 14.519688 19.535543 25.055376 30.634968 33.394882 40.074059 43.37381 48.947426 54.467255 56.714233 62.287849 70.620384 75.636238 253.90031 259.47394 262.77368 268.34729">Solved Problems 5-17</tspan><tspan
         id="tspan54"
         y="156.02341"
         x="0.019920001 6.6951122 12.264744 14.507736 16.750729 22.270559 27.840193 33.360023 38.929657 253.84952 259.41916 262.7189 268.28854">Epilogue 5-26</tspan><tspan
         id="tspan56"
         y="168.02521"
         x="0.019920001 6.1433282 11.66316 15.017688 17.777603 23.353212 28.873043 32.227573 34.987488 42.216457 47.792065 53.367672 58.887505 61.136471 66.712082 72.231911 253.85052 259.42612 262.72589 268.30148">Further Reading 5-27</tspan><tspan
         id="tspan58"
         y="180.02699"
         x="0.019920001 6.6901321 11.697024 17.261677 20.561424 25.568316 27.806328 32.813221 38.377872 43.384766 253.86447 259.42911 262.72885 268.29352">Exercises 5-28</tspan></text>
<text
       id="text64"
       style="font-variant:normal;font-weight:bold;font-stretch:normal;font-size:15.96000004px;font-family:'Times LT Std';-inkscape-font-specification:TimesLTStd-Bold;writing-mode:lr-tb;fill:#0000ff;fill-opacity:1;fill-rule:nonzero;stroke:none"
       transform="matrix(1,0,0,-1,150.54,414.36)"><tspan
         id="tspan62"
         y="0"
         x="0 10.662876 15.117312 24.008629 31.112425 39.109982 46.213776 50.2341 60.896976 68.000771 75.998329 84.889641 91.115639 96.447876 104.44543 111.54922 124.86147 132.85902 138.19125 142.64569 150.64325 159.48828 165.71907 169.67874 175.01576 183.01811 190.12669 194.08636 205.63184 212.74042 221.63652 228.7451 236.74745 241.20667 245.16635 256.71182 263.8204 269.15741 280.70288 288.70523 295.81381 304.70993">Linear Transformations for Neural Networks</tspan></text>
<text
       id="text90"
       style="font-variant:normal;font-weight:normal;font-stretch:normal;font-size:9.96000004px;font-family:'Helvetica LT';-inkscape-font-specification:HelveticaLT;writing-mode:lr-tb;fill:#000000;fill-opacity:1;fill-rule:nonzero;stroke:none"
       transform="matrix(1,0,0,-1,171,389.34)"><tspan
         id="tspan66"
         y="0"
         x="0 7.7568479 13.302576 15.521664 21.067392 26.055361 28.832209 31.051296 36.091057 41.636784 46.624752 253.8047 259.35043 262.67508">Objectives 6-1</tspan><tspan
         id="tspan68"
         y="12.0018"
         x="0 6.1134481 11.63328 17.198929 22.764576 26.064323 31.072212 33.891888 39.41172 44.99131 50.511143 53.330818 60.002029 65.009918 70.575562 78.900131 84.419968 86.640045 92.205696 97.213585 253.81367 259.3793 262.67908">Theory and Examples 6-2</tspan><tspan
         id="tspan70"
         y="24.003599"
         x="36.005402 41.580013 43.740337 49.314949 54.889561 60.409393 63.762924 66.522842 72.645248 75.945 81.519615 87.094223 92.111076 94.870995 100.4456 103.74535 112.08486 117.65947 120.41939 122.66736 128.24197 133.76181 138.80156 253.82063 259.39526 262.69501">Linear Transformations 6-2</tspan><tspan
         id="tspan72"
         y="36.005402"
         x="36.005402 44.34491 49.864738 52.684418 55.984165 58.188313 63.161339 65.981018 73.165161 78.744759 84.275543 87.635056 93.16584 98.205597 103.73639 109.31598 112.07789 117.65748 120.41939 122.62354 128.20312 133.72296 138.76273 253.78081 259.36038 262.66013">Matrix Representations 6-3</tspan><tspan
         id="tspan74"
         y="48.007198"
         x="36.005402 43.225403 48.792049 54.311878 59.878525 65.445168 70.964996 73.784676 79.304504 82.064423 84.884102 91.556305 97.122948 102.13183 104.37183 109.38072 253.86047 259.42712 262.72687">Change of Basis 6-6</tspan><tspan
         id="tspan76"
         y="60.008999"
         x="36.005402 42.673618 44.909641 50.472301 55.99213 61.55479 66.559692 72.122353 74.358376 79.878204 85.457794 90.462692 93.282372 98.8022 104.3818 109.90163 112.72131 119.38953 121.62554 127.14538 132.70804 138.27069 143.27559 148.83826 153.84315 156.60307 162.18266 165.48241 170.52217 253.86047 259.42313 262.7229 268.28555">Eigenvalues and Eigenvectors 6-10</tspan><tspan
         id="tspan78"
         y="72.010803"
         x="72.000839 79.224831 81.468819 87.039444 92.559273 98.129906 103.70053 109.22037 111.46436 113.70834 118.72121 124.24104 127.00095 129.24495 134.81557 140.3862 253.84654 259.41718 262.71692 268.28754">Diagonalization 6-13</tspan><tspan
         id="tspan80"
         y="84.012604"
         x="0 6.6732001 12.24084 20.520588 28.860096 34.427734 37.727486 42.737366 45.49728 51.017113 53.836788 56.596703 63.817703 69.385345 74.395226 79.962868 82.203865 84.963783 89.973663 253.8306 259.39825 262.698 268.26562">Summary of Results 6-15</tspan><tspan
         id="tspan82"
         y="96.014397"
         x="0 6.6791759 12.252792 14.499768 19.515623 25.035456 30.615047 33.374966 40.054138 43.353889 48.927505 54.447334 56.694313 62.267929 70.600464 75.616318 253.8804 259.45401 262.75375 268.32739">Solved Problems 6-17</tspan><tspan
         id="tspan84"
         y="108.0162"
         x="0 6.6751919 12.244824 14.487816 16.730808 22.250641 27.820272 33.340103 38.909737 253.82961 259.39923 262.69897 268.26862">Epilogue 6-28</tspan><tspan
         id="tspan86"
         y="120.018"
         x="0 6.1234078 11.64324 14.997768 17.757685 23.333292 28.853125 32.207653 34.967567 42.196537 47.772144 53.347752 58.867584 61.11655 66.692162 72.21199 253.8306 259.40622 262.70596 268.28156">Further Reading 6-29</tspan><tspan
         id="tspan88"
         y="132.01981"
         x="0 6.6702118 11.677104 17.241756 20.541504 25.548395 27.786407 32.793301 38.357952 43.364845 253.84454 259.40921 262.70895 268.27359">Exercises 6-30</tspan></text>
<g
       id="g92"><g
         clip-path="url(#clipPath98)"
         id="g94"><g
           id="g100"><g
             clip-path="url(#clipPath106)"
             id="g102"><path
               id="path108"
               style="fill:#0000ff;fill-opacity:1;fill-rule:nonzero;stroke:none"
               d="m 70.98,647.04 h 36 v 36 h -36 z" /><path
               id="path110"
               style="fill:#0000ff;fill-opacity:1;fill-rule:nonzero;stroke:none"
               d="m 70.98,682.8 h 36.24 v 0.48 H 70.98 Z" /><path
               id="path112"
               style="fill:#0000ff;fill-opacity:1;fill-rule:nonzero;stroke:none"
               d="m 106.74,646.8 h 0.48 v 36.24 h -0.48 z" /><path
               id="path114"
               style="fill:#0000ff;fill-opacity:1;fill-rule:nonzero;stroke:none"
               d="m 70.74,646.8 h 36.24 v 0.48 H 70.74 Z" /><path
               id="path116"
               style="fill:#0000ff;fill-opacity:1;fill-rule:nonzero;stroke:none"
               d="m 70.74,647.04 h 0.48 v 36.24 h -0.48 z" /><text
               id="text120"
               style="font-variant:normal;font-weight:bold;font-stretch:normal;font-size:24px;font-family:'Times LT Std';-inkscape-font-specification:TimesLTStd-Bold;writing-mode:lr-tb;fill:#ffffff;fill-opacity:1;fill-rule:nonzero;stroke:none"
               transform="matrix(1,0,0,-1,82.2,658.02)"><tspan
                 id="tspan118"
                 y="0"
                 x="0">5</tspan></text>
</g></g></g></g><g
       id="g122"><g
         clip-path="url(#clipPath128)"
         id="g124"><g
           id="g130"><g
             clip-path="url(#clipPath136)"
             id="g132"><path
               id="path138"
               style="fill:#0000ff;fill-opacity:1;fill-rule:nonzero;stroke:none"
               d="m 504.96,647.04 h 36 v 36 h -36 z" /><path
               id="path140"
               style="fill:#0000ff;fill-opacity:1;fill-rule:nonzero;stroke:none"
               d="m 504.96,682.5 h 36.54 v 1.02 h -36.54 z" /><path
               id="path142"
               style="fill:#0000ff;fill-opacity:1;fill-rule:nonzero;stroke:none"
               d="m 540.48,646.5 h 1.02 v 36.54 h -1.02 z" /><path
               id="path144"
               style="fill:#0000ff;fill-opacity:1;fill-rule:nonzero;stroke:none"
               d="m 504.48,646.5 h 36.48 v 1.02 h -36.48 z" /><path
               id="path146"
               style="fill:#0000ff;fill-opacity:1;fill-rule:nonzero;stroke:none"
               d="m 504.48,647.04 h 1.02 v 36.48 h -1.02 z" /></g></g></g></g><g
       id="g148"><g
         clip-path="url(#clipPath154)"
         id="g150"><g
           id="g156"><g
             clip-path="url(#clipPath162)"
             id="g158"><g
               id="g164"><g
                 clip-path="url(#clipPath170)"
                 id="g166"><path
                   id="path172"
                   style="fill:#7e7e7e;fill-opacity:1;fill-rule:nonzero;stroke:none"
                   d="m 508.56,650.64 h 28.8 v 28.8 h -28.8 z" /><path
                   id="path174"
                   style="fill:#7e7e7e;fill-opacity:1;fill-rule:nonzero;stroke:none"
                   d="m 508.56,678.9 h 28.8 v 0.57 h -28.8 z" /><path
                   id="path176"
                   style="fill:#7e7e7e;fill-opacity:1;fill-rule:nonzero;stroke:none"
                   d="m 536.88,650.61 h 0.48 v 28.83 h -0.48 z" /><path
                   id="path178"
                   style="fill:#7e7e7e;fill-opacity:1;fill-rule:nonzero;stroke:none"
                   d="m 508.5,650.61 h 28.86 v 0.51 H 508.5 Z" /><path
                   id="path180"
                   style="fill:#7e7e7e;fill-opacity:1;fill-rule:nonzero;stroke:none"
                   d="m 508.5,650.64 h 0.6 v 28.83 h -0.6 z" /></g></g></g></g></g></g><g
       id="g182"><g
         clip-path="url(#clipPath188)"
         id="g184"><g
           id="g190"><g
             clip-path="url(#clipPath196)"
             id="g192"><path
               id="path198"
               style="fill:#0000ff;fill-opacity:1;fill-rule:nonzero;stroke:none"
               d="m 512.16,654.24 h 21.6 v 21.6 h -21.6 z" /><path
               id="path200"
               style="fill:#0000ff;fill-opacity:1;fill-rule:nonzero;stroke:none"
               d="m 512.16,675.3 h 22.14 v 1.02 h -22.14 z" /><path
               id="path202"
               style="fill:#0000ff;fill-opacity:1;fill-rule:nonzero;stroke:none"
               d="m 533.28,653.7 h 1.02 v 22.14 h -1.02 z" /><path
               id="path204"
               style="fill:#0000ff;fill-opacity:1;fill-rule:nonzero;stroke:none"
               d="m 511.68,653.7 h 22.08 v 1.02 h -22.08 z" /><path
               id="path206"
               style="fill:#0000ff;fill-opacity:1;fill-rule:nonzero;stroke:none"
               d="m 511.68,654.24 h 1.02 v 22.08 h -1.02 z" /><g
               transform="translate(528.53998,671.64001)"
               id="g208"><path
                 id="path210"
                 style="fill:#ffffff;fill-opacity:1;fill-rule:nonzero;stroke:none"
                 d="M 0,0 1.08,-1.02 3.12,0.96 2.04,1.98" /></g><g
               transform="translate(529.62,671.64001)"
               id="g212"><path
                 id="path214"
                 style="fill:#ffffff;fill-opacity:1;fill-rule:evenodd;stroke:none"
                 d="m 0,0 -0.12,0.12 -0.12,0.06 c -0.645,0.31 -1.31,-0.498 -0.9,-1.08 l 0.12,-0.12 0.06,-0.12 0.18,-0.06 0.12,-0.06 h 0.3 l 0.24,0.12 0.12,0.12 c 0.226,0.206 0.263,0.365 0.24,0.66 L 0.18,-0.24 0.12,-0.12 0,0" /></g><g
               transform="translate(528.17999,673.91998)"
               id="g216"><path
                 id="path218"
                 style="fill:#ffffff;fill-opacity:1;fill-rule:nonzero;stroke:none"
                 d="m 0,0 v -1.56 h 2.94 l 0.78,0.78 V 0 H 2.94" /></g><path
               id="path220"
               style="fill:#ffffff;fill-opacity:1;fill-rule:nonzero;stroke:none"
               d="m 530.34,670.2 h 1.56 v 2.94 h -1.56 z" /><g
               transform="translate(515.70001,656.88)"
               id="g222"><path
                 id="path224"
                 style="fill:#ffffff;fill-opacity:1;fill-rule:nonzero;stroke:none"
                 d="M 0,0 -0.06,0.24 -0.24,0.48 C -0.663,0.917 -1.167,0.719 -1.44,0.24 L -1.5,0 -1.44,-0.3 c 0.273,-0.478 0.777,-0.677 1.2,-0.24 L -0.06,-0.3 0,0" /></g><g
               transform="translate(529.85999,671.15997)"
               id="g226"><path
                 id="path228"
                 style="fill:#ffffff;fill-opacity:1;fill-rule:nonzero;stroke:none"
                 d="M 0,0 -0.06,0.24 -0.24,0.48 C -0.664,0.917 -1.167,0.718 -1.44,0.24 L -1.5,0 -1.44,-0.3 c 0.273,-0.478 0.776,-0.677 1.2,-0.24 L -0.06,-0.3 0,0" /></g><g
               transform="translate(514.38,657.41998)"
               id="g230"><path
                 id="path232"
                 style="fill:#ffffff;fill-opacity:1;fill-rule:nonzero;stroke:none"
                 d="M 0,0 1.08,-1.08 15.24,13.2 14.16,14.28" /></g></g></g></g></g><g
       id="g234"><g
         clip-path="url(#clipPath240)"
         id="g236"><g
           id="g242"><g
             clip-path="url(#clipPath248)"
             id="g244"><path
               id="path250"
               style="fill:#0000ff;fill-opacity:1;fill-rule:nonzero;stroke:none"
               d="m 70.98,400.92 h 36 v 36.06 h -36 z" /><path
               id="path252"
               style="fill:#0000ff;fill-opacity:1;fill-rule:nonzero;stroke:none"
               d="m 70.98,436.74 h 36.24 v 0.48 H 70.98 Z" /><path
               id="path254"
               style="fill:#0000ff;fill-opacity:1;fill-rule:nonzero;stroke:none"
               d="m 106.74,400.68 h 0.48 v 36.3 h -0.48 z" /><path
               id="path256"
               style="fill:#0000ff;fill-opacity:1;fill-rule:nonzero;stroke:none"
               d="m 70.74,400.68 h 36.24 v 0.48 H 70.74 Z" /><path
               id="path258"
               style="fill:#0000ff;fill-opacity:1;fill-rule:nonzero;stroke:none"
               d="m 70.74,400.92 h 0.48 v 36.3 h -0.48 z" /><text
               id="text262"
               style="font-variant:normal;font-weight:bold;font-stretch:normal;font-size:24px;font-family:'Times LT Std';-inkscape-font-specification:TimesLTStd-Bold;writing-mode:lr-tb;fill:#ffffff;fill-opacity:1;fill-rule:nonzero;stroke:none"
               transform="matrix(1,0,0,-1,82.2,411.96)"><tspan
                 id="tspan260"
                 y="0"
                 x="0">6</tspan></text>
</g></g></g></g><g
       id="g264"><g
         clip-path="url(#clipPath270)"
         id="g266"><g
           id="g272"><g
             clip-path="url(#clipPath278)"
             id="g274"><path
               id="path280"
               style="fill:#0000ff;fill-opacity:1;fill-rule:nonzero;stroke:none"
               d="m 504.96,400.98 h 36 v 36 h -36 z" /><path
               id="path282"
               style="fill:#0000ff;fill-opacity:1;fill-rule:nonzero;stroke:none"
               d="m 504.96,436.44 h 36.54 v 1.02 h -36.54 z" /><path
               id="path284"
               style="fill:#0000ff;fill-opacity:1;fill-rule:nonzero;stroke:none"
               d="m 540.48,400.44 h 1.02 v 36.54 h -1.02 z" /><path
               id="path286"
               style="fill:#0000ff;fill-opacity:1;fill-rule:nonzero;stroke:none"
               d="m 504.48,400.44 h 36.48 v 1.02 h -36.48 z" /><path
               id="path288"
               style="fill:#0000ff;fill-opacity:1;fill-rule:nonzero;stroke:none"
               d="m 504.48,400.98 h 1.02 v 36.48 h -1.02 z" /></g></g></g></g><g
       id="g290"><g
         clip-path="url(#clipPath296)"
         id="g292"><g
           id="g298"><g
             clip-path="url(#clipPath304)"
             id="g300"><g
               id="g306"><g
                 clip-path="url(#clipPath312)"
                 id="g308"><path
                   id="path314"
                   style="fill:#7e7e7e;fill-opacity:1;fill-rule:nonzero;stroke:none"
                   d="m 508.56,404.58 h 28.8 v 28.8 h -28.8 z" /><path
                   id="path316"
                   style="fill:#7e7e7e;fill-opacity:1;fill-rule:nonzero;stroke:none"
                   d="m 508.56,432.84 h 28.8 v 0.57 h -28.8 z" /><path
                   id="path318"
                   style="fill:#7e7e7e;fill-opacity:1;fill-rule:nonzero;stroke:none"
                   d="m 536.88,404.55 h 0.48 v 28.83 h -0.48 z" /><path
                   id="path320"
                   style="fill:#7e7e7e;fill-opacity:1;fill-rule:nonzero;stroke:none"
                   d="m 508.5,404.55 h 28.86 v 0.51 H 508.5 Z" /><path
                   id="path322"
                   style="fill:#7e7e7e;fill-opacity:1;fill-rule:nonzero;stroke:none"
                   d="m 508.5,404.58 h 0.6 v 28.83 h -0.6 z" /></g></g></g></g></g></g><g
       id="g324"><g
         clip-path="url(#clipPath330)"
         id="g326"><g
           id="g332"><g
             clip-path="url(#clipPath338)"
             id="g334"><path
               id="path340"
               style="fill:#0000ff;fill-opacity:1;fill-rule:nonzero;stroke:none"
               d="m 512.16,408.18 h 21.6 v 21.6 h -21.6 z" /><path
               id="path342"
               style="fill:#0000ff;fill-opacity:1;fill-rule:nonzero;stroke:none"
               d="m 512.16,429.24 h 22.14 v 1.02 h -22.14 z" /><path
               id="path344"
               style="fill:#0000ff;fill-opacity:1;fill-rule:nonzero;stroke:none"
               d="m 533.28,407.64 h 1.02 v 22.14 h -1.02 z" /><path
               id="path346"
               style="fill:#0000ff;fill-opacity:1;fill-rule:nonzero;stroke:none"
               d="m 511.68,407.64 h 22.08 v 1.02 h -22.08 z" /><path
               id="path348"
               style="fill:#0000ff;fill-opacity:1;fill-rule:nonzero;stroke:none"
               d="m 511.68,408.18 h 1.02 v 22.08 h -1.02 z" /><g
               transform="translate(529.20001,416.34)"
               id="g350"><path
                 id="path352"
                 style="fill:#ffffff;fill-opacity:1;fill-rule:nonzero;stroke:none"
                 d="M 0,0 0.54,-1.38 3.12,-0.42 2.64,0.96" /></g><g
               transform="translate(530.15997,415.92001)"
               id="g354"><path
                 id="path356"
                 style="fill:#ffffff;fill-opacity:1;fill-rule:evenodd;stroke:none"
                 d="m 0,0 -0.06,0.12 -0.12,0.12 c -0.37,0.517 -1.324,0.137 -1.26,-0.48 v -0.3 l 0.12,-0.12 0.06,-0.12 0.12,-0.12 0.24,-0.12 h 0.3 l 0.12,0.06 0.18,0.06 0.12,0.06 0.06,0.12 0.06,0.12 L 0,-0.42 0.06,-0.3 0,-0.18 V 0" /></g><g
               transform="translate(529.73999,418.56)"
               id="g358"><path
                 id="path360"
                 style="fill:#ffffff;fill-opacity:1;fill-rule:nonzero;stroke:none"
                 d="m 0,0 -0.6,-1.44 2.64,-1.2 1.02,0.42 0.3,0.66 -0.72,0.36" /></g><g
               transform="translate(532.79999,416.34)"
               id="g362"><path
                 id="path364"
                 style="fill:#ffffff;fill-opacity:1;fill-rule:nonzero;stroke:none"
                 d="m 0,0 -1.38,0.54 -1.2,-2.7 1.38,-0.54" /></g><g
               transform="translate(515.46002,410.16)"
               id="g366"><path
                 id="path368"
                 style="fill:#ffffff;fill-opacity:1;fill-rule:nonzero;stroke:none"
                 d="M 0,0 -0.06,0.24 -0.24,0.48 C -0.663,0.917 -1.167,0.718 -1.44,0.24 L -1.5,0 -1.44,-0.3 c 0.273,-0.478 0.777,-0.677 1.2,-0.24 L -0.06,-0.3 0,0" /></g><g
               transform="translate(530.21997,415.67999)"
               id="g370"><path
                 id="path372"
                 style="fill:#ffffff;fill-opacity:1;fill-rule:nonzero;stroke:none"
                 d="M 0,0 -0.06,0.24 -0.24,0.48 C -0.663,0.917 -1.167,0.719 -1.44,0.24 L -1.5,0 -1.44,-0.3 c 0.273,-0.479 0.777,-0.677 1.2,-0.24 L -0.06,-0.3 0,0" /></g><g
               transform="translate(514.44,410.82001)"
               id="g374"><path
                 id="path376"
                 style="fill:#ffffff;fill-opacity:1;fill-rule:nonzero;stroke:none"
                 d="M 0,0 0.54,-1.38 15.3,4.14 14.76,5.52" /></g><g
               transform="translate(517.97998,425.34)"
               id="g378"><path
                 id="path380"
                 style="fill:#ffffff;fill-opacity:1;fill-rule:nonzero;stroke:none"
                 d="M 0,0 1.5,-0.36 2.22,2.4 0.72,2.76" /></g><g
               transform="translate(518.88,425.88)"
               id="g382"><path
                 id="path384"
                 style="fill:#ffffff;fill-opacity:1;fill-rule:evenodd;stroke:none"
                 d="M 0,0 -0.12,0.06 H -0.3 L -0.66,-0.12 -0.78,-0.24 -0.84,-0.36 -0.9,-0.48 v -0.18 c 0.006,-0.416 -0.061,-0.299 0.24,-0.6 l 0.12,-0.12 0.18,-0.06 h 0.3 l 0.36,0.18 0.12,0.12 0.06,0.12 0.06,0.12 0.06,0.18 -0.06,0.12 v 0.12 L 0.48,-0.3 0.42,-0.18 0.3,-0.12 0.18,0 H 0" /></g><g
               transform="translate(516.53998,427.14001)"
               id="g386"><path
                 id="path388"
                 style="fill:#ffffff;fill-opacity:1;fill-rule:nonzero;stroke:none"
                 d="M 0,0 0.72,-1.32 3.24,0.12 3.54,1.14 3.18,1.8 2.52,1.44" /></g><g
               transform="translate(520.08002,428.28)"
               id="g390"><path
                 id="path392"
                 style="fill:#ffffff;fill-opacity:1;fill-rule:nonzero;stroke:none"
                 d="M 0,0 -1.32,-0.72 0.18,-3.3 1.5,-2.58" /></g><g
               transform="translate(515.46002,410.16)"
               id="g394"><path
                 id="path396"
                 style="fill:#ffffff;fill-opacity:1;fill-rule:nonzero;stroke:none"
                 d="M 0,0 -0.06,0.24 -0.24,0.48 C -0.663,0.917 -1.167,0.718 -1.44,0.24 L -1.5,0 -1.44,-0.3 c 0.273,-0.478 0.777,-0.677 1.2,-0.24 L -0.06,-0.3 0,0" /></g><g
               transform="translate(519.47998,425.16)"
               id="g398"><path
                 id="path400"
                 style="fill:#ffffff;fill-opacity:1;fill-rule:nonzero;stroke:none"
                 d="M 0,0 -0.06,0.24 -0.24,0.48 C -0.664,0.917 -1.167,0.718 -1.44,0.24 L -1.5,0 -1.44,-0.3 c 0.273,-0.478 0.777,-0.677 1.2,-0.24 L -0.06,-0.3 0,0" /></g><g
               transform="translate(513.96002,410.34)"
               id="g402"><path
                 id="path404"
                 style="fill:#ffffff;fill-opacity:1;fill-rule:nonzero;stroke:none"
                 d="m 0,0 1.44,-0.36 4.02,15 L 4.02,15" /></g><g
               transform="translate(517.26001,419.10001)"
               id="g406"><path
                 id="path408"
                 style="fill:#ffffff;fill-opacity:1;fill-rule:nonzero;stroke:none"
                 d="M 0,0 -0.06,0.18 -0.24,0.24 -0.42,0.18 -0.48,0 -0.42,-0.18 -0.24,-0.24 -0.06,-0.18 0,0" /></g><g
               transform="translate(517.02002,419.34)"
               id="g410"><path
                 id="path412"
                 style="fill:#ffffff;fill-opacity:1;fill-rule:nonzero;stroke:none"
                 d="m 0,0 h 0.66 l 1.2,-0.24 h 0.06 l 0.54,-0.18 v -0.06 l 0.48,-0.3 c 1.542,-0.658 2.45,-2.075 3,-3.6 L 6.06,-4.92 5.58,-5.04 5.46,-4.5 5.52,-4.56 5.04,-3.48 4.44,-2.52 V -2.58 L 3.6,-1.74 3.66,-1.8 3.24,-1.5 2.7,-1.2 2.22,-0.9 h 0.06 l -0.54,0.18 -1.2,0.24 H 0.6 0" /></g><g
               transform="translate(523.08002,414.42001)"
               id="g414"><path
                 id="path416"
                 style="fill:#ffffff;fill-opacity:1;fill-rule:nonzero;stroke:none"
                 d="m 0,0 0.12,-0.6 v -0.06 h -0.48 v -0.06 l -0.12,0.6" /></g><g
               transform="translate(523.20001,413.10001)"
               id="g418"><path
                 id="path420"
                 style="fill:#ffffff;fill-opacity:1;fill-rule:nonzero;stroke:none"
                 d="M 0,0 -0.06,0.18 -0.24,0.24 -0.42,0.18 -0.48,0 -0.42,-0.18 -0.24,-0.24 -0.06,-0.18 0,0" /></g><path
               id="path422"
               style="fill:#ffffff;fill-opacity:1;fill-rule:nonzero;stroke:none"
               d="m 522.72,413.1 h 0.48 v 0.66 h -0.48 z" /></g></g></g></g></g></svg>