<?xml version="1.0" encoding="UTF-8" standalone="no"?>
<svg
   xmlns:dc="http://purl.org/dc/elements/1.1/"
   xmlns:cc="http://creativecommons.org/ns#"
   xmlns:rdf="http://www.w3.org/1999/02/22-rdf-syntax-ns#"
   xmlns:svg="http://www.w3.org/2000/svg"
   xmlns="http://www.w3.org/2000/svg"
   viewBox="0 0 49.528 49.418667"
   height="49.418667"
   width="49.528"
   xml:space="preserve"
   id="svg2"
   version="1.1"><metadata
     id="metadata8"><rdf:RDF><cc:Work
         rdf:about=""><dc:format>image/svg+xml</dc:format><dc:type
           rdf:resource="http://purl.org/dc/dcmitype/StillImage" /></cc:Work></rdf:RDF></metadata><defs
     id="defs6"><clipPath
       id="clipPath14"
       clipPathUnits="userSpaceOnUse"><path
         id="path12"
         d="M 0,0 H 612 V 792 H 0 Z" /></clipPath><clipPath
       id="clipPath100"
       clipPathUnits="userSpaceOnUse"><path
         style="clip-rule:evenodd"
         id="path98"
         d="M 69.96,684 H 108 V 646.02 H 69.96 Z" /></clipPath><clipPath
       id="clipPath108"
       clipPathUnits="userSpaceOnUse"><path
         id="path106"
         d="M 0,792.03 H 612 V 0.03 H 0 Z" /></clipPath><clipPath
       id="clipPath130"
       clipPathUnits="userSpaceOnUse"><path
         style="clip-rule:evenodd"
         id="path128"
         d="m 504,684 h 38.04 V 646.02 H 504 Z" /></clipPath><clipPath
       id="clipPath138"
       clipPathUnits="userSpaceOnUse"><path
         id="path136"
         d="M 0,792.03 H 612 V 0.03 H 0 Z" /></clipPath><clipPath
       id="clipPath156"
       clipPathUnits="userSpaceOnUse"><path
         style="clip-rule:evenodd"
         id="path154"
         d="m 508.56,679.44 h 28.8 v -28.8 h -28.8 z" /></clipPath><clipPath
       id="clipPath164"
       clipPathUnits="userSpaceOnUse"><path
         style="clip-rule:evenodd"
         id="path162"
         d="m 504,684 h 38.04 V 646.02 H 504 Z" /></clipPath><clipPath
       id="clipPath172"
       clipPathUnits="userSpaceOnUse"><path
         id="path170"
         d="M 0,792.03 H 612 V 0.03 H 0 Z" /></clipPath><clipPath
       id="clipPath190"
       clipPathUnits="userSpaceOnUse"><path
         style="clip-rule:evenodd"
         id="path188"
         d="m 504,684 h 38.04 V 646.02 H 504 Z" /></clipPath><clipPath
       id="clipPath198"
       clipPathUnits="userSpaceOnUse"><path
         id="path196"
         d="M 0,792.03 H 612 V 0.03 H 0 Z" /></clipPath><clipPath
       id="clipPath312"
       clipPathUnits="userSpaceOnUse"><path
         style="clip-rule:evenodd"
         id="path310"
         d="M 69.96,473.94 H 108 V 435.96 H 69.96 Z" /></clipPath><clipPath
       id="clipPath320"
       clipPathUnits="userSpaceOnUse"><path
         id="path318"
         d="M 0,792.03 H 612 V 0.03 H 0 Z" /></clipPath><clipPath
       id="clipPath342"
       clipPathUnits="userSpaceOnUse"><path
         style="clip-rule:evenodd"
         id="path340"
         d="m 504,473.94 h 38.04 V 435.96 H 504 Z" /></clipPath><clipPath
       id="clipPath350"
       clipPathUnits="userSpaceOnUse"><path
         id="path348"
         d="M 0,792.03 H 612 V 0.03 H 0 Z" /></clipPath><clipPath
       id="clipPath368"
       clipPathUnits="userSpaceOnUse"><path
         style="clip-rule:evenodd"
         id="path366"
         d="m 508.56,469.38 h 28.8 v -28.8 h -28.8 z" /></clipPath><clipPath
       id="clipPath376"
       clipPathUnits="userSpaceOnUse"><path
         style="clip-rule:evenodd"
         id="path374"
         d="m 504,473.94 h 38.04 V 435.96 H 504 Z" /></clipPath><clipPath
       id="clipPath384"
       clipPathUnits="userSpaceOnUse"><path
         id="path382"
         d="M 0,792.03 H 612 V 0.03 H 0 Z" /></clipPath><clipPath
       id="clipPath402"
       clipPathUnits="userSpaceOnUse"><path
         style="clip-rule:evenodd"
         id="path400"
         d="m 504,473.94 h 38.04 V 435.96 H 504 Z" /></clipPath><clipPath
       id="clipPath410"
       clipPathUnits="userSpaceOnUse"><path
         id="path408"
         d="M 0,792.03 H 612 V 0.03 H 0 Z" /></clipPath></defs><g
     clip-path="url(#clipPath14)"
     transform="matrix(1.3333333,0,0,-1.3333333,-672.54533,631.364)"
     id="g10"><path
       id="path16"
       style="fill:#ffffff;fill-opacity:1;fill-rule:nonzero;stroke:none"
       d="m 72,711 h 468 v 9 H 72 Z" /><path
       id="path18"
       style="fill:#ffffff;fill-opacity:1;fill-rule:nonzero;stroke:none"
       d="m 72,126 h 468 v 9 H 72 Z" /><text
       id="text22"
       style="font-style:italic;font-variant:normal;font-weight:bold;font-stretch:normal;font-size:9px;font-family:'NewCenturySchlbk LT';-inkscape-font-specification:NewCenturySchlbkLT-BoldItalic;writing-mode:lr-tb;fill:#0000ff;fill-opacity:1;fill-rule:nonzero;stroke:none"
       transform="matrix(1,0,0,-1,301.74,129.0001)"><tspan
         id="tspan20"
         y="0"
         x="0 3.4802999">iv</tspan></text>
<text
       id="text26"
       style="font-variant:normal;font-weight:bold;font-stretch:normal;font-size:15.96000004px;font-family:'Times LT Std';-inkscape-font-specification:TimesLTStd-Bold;writing-mode:lr-tb;fill:#0000ff;fill-opacity:1;fill-rule:nonzero;stroke:none"
       transform="matrix(1,0,0,-1,203.34,673.32)"><tspan
         id="tspan24"
         y="0"
         x="0 8.8881245 17.776249 26.664371 33.764977 40.865582 48.859943 53.311188 59.533993 66.634598 75.52272 79.543045 91.974289 99.07489 107.96301 116.85114 121.30238 129.29675 138.18488 142.2052 152.86488 159.96548 167.95985 175.06046 183.94858 188.39983 197.28795">Supervised Hebbian Learning</tspan></text>
<text
       id="text54"
       style="font-variant:normal;font-weight:normal;font-stretch:normal;font-size:9.96000004px;font-family:'Helvetica LT';-inkscape-font-specification:HelveticaLT;writing-mode:lr-tb;fill:#000000;fill-opacity:1;fill-rule:nonzero;stroke:none"
       transform="matrix(1,0,0,-1,171,648.36)"><tspan
         id="tspan28"
         y="0"
         x="0 7.7568479 13.302576 15.521664 21.067392 26.055361 28.832209 31.051296 36.091057 41.636784 46.624752 253.8047 259.35043 262.67508">Objectives 7-1</tspan><tspan
         id="tspan30"
         y="12.0018"
         x="0 6.1134481 11.63328 17.198929 22.764576 26.064323 31.072212 33.891888 39.41172 44.99131 50.511143 53.330818 60.002029 65.009918 70.575562 78.900131 84.419968 86.640045 92.205696 97.213585 253.81367 259.3793 262.67908">Theory and Examples 7-2</tspan><tspan
         id="tspan32"
         y="24.003599"
         x="36.005402 41.578018 43.738342 49.310963 54.883583 60.403416 63.754955 66.51487 73.193054 78.207909 83.222771 88.742607 93.757462 96.003441 101.52328 104.34295 109.86279 113.22229 253.80072 259.37335 262.6731">Linear Associator 7-3</tspan><tspan
         id="tspan34"
         y="36.005402"
         x="36.005402 42.123829 47.643661 53.214287 55.974205 63.198193 68.768822 74.339447 79.859283 82.678955 89.902946 95.473572 97.71756 103.23739 253.84056 259.41119 262.71094">The Hebb Rule 7-4</tspan><tspan
         id="tspan36"
         y="48.007198"
         x="72.010803 78.681015 84.245667 87.54541 90.305328 95.86998 99.213554 107.4933 113.05795 118.6226 123.62949 129.14932 131.96901 138.63922 144.15904 149.72369 151.96172 156.9686 161.97549 164.2135 169.2204 253.82063 259.38528 262.68503">Performance Analysis 7-5</tspan><tspan
         id="tspan38"
         y="60.008999"
         x="36.005402 42.674618 47.680511 53.244167 58.807823 64.32766 69.891312 72.128326 77.648163 82.68792 88.207748 91.568253 96.57415 102.13781 104.89772 112.11474 117.6784 119.91541 125.43524 253.8306 259.39426 262.694">Pseudoinverse Rule 7-7</tspan><tspan
         id="tspan40"
         y="72.010803"
         x="36.005402 42.679596 48.248234 53.768063 56.010059 58.252056 63.262932 68.831566 71.591484 73.833481 79.402115 84.970749 253.87044 259.43909 262.73883 268.30746">Application 7-10</tspan><tspan
         id="tspan42"
         y="84.012604"
         x="36.005402 42.683578 48.256199 51.555946 53.776031 59.348652 62.108566 64.354546 69.92717 75.446999 80.486763 83.246674 88.76651 91.586182 94.3461 101.57208 107.1447 112.71732 118.23715 120.48313 126.05576 131.57558 134.39526 139.91508 145.48772 151.06033 154.36008 159.93269 162.17868 167.69852 173.27811 253.86047 259.43311 262.73285 268.30548">Variations of Hebbian Learning 7-12</tspan><tspan
         id="tspan44"
         y="96.014397"
         x="0.0099600004 6.6692162 12.222912 20.535528 28.848145 34.40184 37.734455 42.774216 45.53413 51.08783 53.872643 56.632561 63.839615 69.393311 74.389252 79.942947 82.169998 84.954819 89.950752 253.81068 259.36438 264.91806 268.2507">Summary of Results 17-4</tspan><tspan
         id="tspan46"
         y="108.0162"
         x="0.0099600004 6.689136 12.262752 14.509728 19.525583 25.045416 30.625008 33.384926 40.064098 43.36385 48.937466 54.457294 56.704273 62.277889 70.61042 75.626282 253.89037 259.46399 262.76373 268.33734">Solved Problems 7-16</tspan><tspan
         id="tspan48"
         y="120.018"
         x="0.0099600004 6.6851521 12.254784 14.497776 16.740768 22.260599 27.830233 33.350063 38.919697 253.83957 259.40921 262.70895 268.27856">Epilogue 7-29</tspan><tspan
         id="tspan50"
         y="132.01981"
         x="0.0099600004 6.133368 11.6532 15.007728 17.767645 23.343252 28.863085 32.217613 34.977528 42.206497 47.782104 53.357712 58.877544 61.126511 66.702118 72.221954 253.84056 259.41617 262.71591 268.29153">Further Reading 7-30</tspan><tspan
         id="tspan52"
         y="144.02161"
         x="0.0099600004 6.680172 11.687064 17.251717 20.551464 25.558355 27.796368 32.803261 38.367912 43.374805 253.85451 259.41916 262.7189 268.28357">Exercises 7-31</tspan></text>
<text
       id="text58"
       style="font-variant:normal;font-weight:bold;font-stretch:normal;font-size:15.96000004px;font-family:'Times LT Std';-inkscape-font-specification:TimesLTStd-Bold;writing-mode:lr-tb;fill:#0000ff;fill-opacity:1;fill-rule:nonzero;stroke:none"
       transform="matrix(1,0,0,-1,156.78,450.36)"><tspan
         id="tspan56"
         y="0"
         x="0 9.7723083 16.879295 23.986284 29.321712 37.32246 44.429447 57.744877 65.745621 74.640129 81.747124 88.854111 92.844109 101.73862 110.63313 117.74011 123.07554 131.07629 138.18327 145.29027 151.51945 155.50945 163.51019 172.40471 181.29921 185.28922 197.72684 206.62135 211.95679 216.41441 229.72984 238.62434 251.93977 255.92978 265.70209 273.70282 278.16046 287.05496 292.39038">Performance Surfaces and Optimum Points</tspan></text>
<text
       id="text92"
       style="font-variant:normal;font-weight:normal;font-stretch:normal;font-size:9.96000004px;font-family:'Helvetica LT';-inkscape-font-specification:HelveticaLT;writing-mode:lr-tb;fill:#000000;fill-opacity:1;fill-rule:nonzero;stroke:none"
       transform="matrix(1,0,0,-1,171,425.34)"><tspan
         id="tspan60"
         y="0"
         x="0 7.7568479 13.302576 15.521664 21.067392 26.055361 28.832209 31.051296 36.091057 41.636784 46.624752 253.8047 259.35043 262.67508">Objectives 8-1</tspan><tspan
         id="tspan62"
         y="12.0018"
         x="0 6.1134481 11.63328 17.198929 22.764576 26.064323 31.072212 33.891888 39.41172 44.99131 50.511143 53.330818 60.002029 65.009918 70.575562 78.900131 84.419968 86.640045 92.205696 97.213585 253.81367 259.3793 262.67908">Theory and Examples 8-2</tspan><tspan
         id="tspan64"
         y="24.003599"
         x="36.005402 42.122833 47.642666 52.654537 54.89753 60.417358 63.776867 66.536781 73.211975 78.781609 82.081352 84.301437 89.871071 94.882942 253.82063 259.39026 262.69003">Taylor Series 8-2</tspan><tspan
         id="tspan66"
         y="36.005402"
         x="72.000839 78.655113 84.203835 89.194786 91.974625 97.523338 100.85098 103.67065 110.87273 116.42145 121.4124 126.96111 253.80072 259.34943 262.67706">Vector Case 8-4</tspan><tspan
         id="tspan68"
         y="48.007198"
         x="36.005402 43.205482 45.425568 48.751213 54.297935 59.337696 62.11554 64.335625 69.882347 75.42907 80.9758 83.195877 85.955795 93.155884 98.702606 102.02825 104.24833 109.28809 114.80792 117.58577 119.80585 124.79482 130.34154 135.3813 253.76088 259.30762 262.63324">Directional Derivatives 8-5</tspan><tspan
         id="tspan70"
         y="60.008999"
         x="36.005402 44.338932 46.586903 52.106735 54.32682 62.660351 68.234962 253.81467 259.38928 262.68903">Minima 8-7</tspan><tspan
         id="tspan72"
         y="72.010803"
         x="36.005402 43.210464 48.762169 53.756111 59.307816 64.301758 69.295708 74.847404 78.178032 83.217789 85.977707 93.18277 98.734474 104.28618 109.83788 112.06295 114.84577 117.07084 122.62254 128.17424 133.16818 135.9281 138.71092 144.26263 147.59326 150.35316 158.116 163.66769 166.45053 168.67558 176.98621 182.53792 184.76299 186.98804 189.77087 194.76482 253.75092 259.30261 262.63324">Necessary Conditions for Optimality 8-9</tspan><tspan
         id="tspan74"
         y="84.012604"
         x="72.010803 78.134209 80.383179 83.682922 88.662926 91.46965 94.769402 102.55613 105.85587 111.43148 117.0071 120.30684 123.06676 130.29573 135.81555 141.39116 146.911 149.15996 151.96669 154.21565 159.73549 165.3111 170.32895 253.85052 259.42612 262.72589 268.30148">First-Order Conditions 8-10</tspan><tspan
         id="tspan76"
         y="96.014397"
         x="72.010803 78.68898 84.261597 89.276459 94.849083 100.36891 105.9485 109.24825 117.04793 120.34768 125.9203 131.49292 134.79266 137.55258 144.77856 150.29839 155.87102 161.39084 163.63683 166.44057 168.68654 174.20638 179.77899 184.79385 253.85052 259.42313 262.7229 268.2955">Second-Order Conditions 8-11</tspan><tspan
         id="tspan78"
         y="108.0162"
         x="36.005402 43.745316 49.314949 54.884579 60.404411 63.752964 69.272797 72.073547 74.316544 79.328415 82.088326 88.205757 93.775391 99.295227 104.33498 107.0949 109.31499 114.88461 120.40445 125.41632 253.82063 259.39026 262.69003 268.25964">Quadratic Functions 8-12</tspan><tspan
         id="tspan80"
         y="120.018"
         x="72.010803 78.683998 80.925003 86.492638 92.012474 97.580109 102.58999 107.59987 112.60975 115.36967 120.94926 129.229 132.04869 137.56851 140.3882 143.1481 145.90802 151.47566 157.0433 159.80322 167.02422 172.59186 177.60175 182.61162 184.85262 190.42026 195.9879 253.89037 259.45801 262.75775 268.32538">Eigensystem of the Hessian 8-13</tspan><tspan
         id="tspan82"
         y="132.01981"
         x="0.0099600004 6.6831598 12.2508 20.530548 28.870056 34.437695 37.737446 42.747326 45.50724 51.027073 53.846748 56.606663 63.827663 69.395302 74.405182 79.972824 82.213821 84.97374 89.98362 253.84056 259.4082 262.70795 268.27557">Summary of Results 8-20</tspan><tspan
         id="tspan84"
         y="144.02161"
         x="0.0099600004 6.689136 12.262752 14.509728 19.525583 25.045416 30.625008 33.384926 40.064098 43.36385 48.937466 54.457294 56.704273 62.277889 70.61042 75.626282 253.89037 259.46399 262.76373 268.33734">Solved Problems 8-22</tspan><tspan
         id="tspan86"
         y="156.02341"
         x="0.0099600004 6.6851521 12.254784 14.497776 16.740768 22.260599 27.830233 33.350063 38.919697 253.83957 259.40921 262.70895 268.27856">Epilogue 8-34</tspan><tspan
         id="tspan88"
         y="168.02521"
         x="0.0099600004 6.133368 11.6532 15.007728 17.767645 23.343252 28.863085 32.217613 34.977528 42.206497 47.782104 53.357712 58.877544 61.126511 66.702118 72.221954 253.84056 259.41617 262.71591 268.29153">Further Reading 8-35</tspan><tspan
         id="tspan90"
         y="180.02699"
         x="0.0099600004 6.680172 11.687064 17.251717 20.551464 25.558355 27.796368 32.803261 38.367912 43.374805 253.85451 259.41916 262.7189 268.28357">Exercises 8-36</tspan></text>
<g
       id="g94"><g
         clip-path="url(#clipPath100)"
         id="g96"><g
           id="g102"><g
             clip-path="url(#clipPath108)"
             id="g104"><path
               id="path110"
               style="fill:#0000ff;fill-opacity:1;fill-rule:nonzero;stroke:none"
               d="m 70.98,647.04 h 36 v 36 h -36 z" /><path
               id="path112"
               style="fill:#0000ff;fill-opacity:1;fill-rule:nonzero;stroke:none"
               d="m 70.98,682.8 h 36.24 v 0.48 H 70.98 Z" /><path
               id="path114"
               style="fill:#0000ff;fill-opacity:1;fill-rule:nonzero;stroke:none"
               d="m 106.74,646.8 h 0.48 v 36.24 h -0.48 z" /><path
               id="path116"
               style="fill:#0000ff;fill-opacity:1;fill-rule:nonzero;stroke:none"
               d="m 70.74,646.8 h 36.24 v 0.48 H 70.74 Z" /><path
               id="path118"
               style="fill:#0000ff;fill-opacity:1;fill-rule:nonzero;stroke:none"
               d="m 70.74,647.04 h 0.48 v 36.24 h -0.48 z" /><text
               id="text122"
               style="font-variant:normal;font-weight:bold;font-stretch:normal;font-size:24px;font-family:'Times LT Std';-inkscape-font-specification:TimesLTStd-Bold;writing-mode:lr-tb;fill:#ffffff;fill-opacity:1;fill-rule:nonzero;stroke:none"
               transform="matrix(1,0,0,-1,82.2,658.02)"><tspan
                 id="tspan120"
                 y="0"
                 x="0">7</tspan></text>
</g></g></g></g><g
       id="g124"><g
         clip-path="url(#clipPath130)"
         id="g126"><g
           id="g132"><g
             clip-path="url(#clipPath138)"
             id="g134"><path
               id="path140"
               style="fill:#0000ff;fill-opacity:1;fill-rule:nonzero;stroke:none"
               d="m 504.96,647.04 h 36 v 36 h -36 z" /><path
               id="path142"
               style="fill:#0000ff;fill-opacity:1;fill-rule:nonzero;stroke:none"
               d="m 504.96,682.5 h 36.54 v 1.02 h -36.54 z" /><path
               id="path144"
               style="fill:#0000ff;fill-opacity:1;fill-rule:nonzero;stroke:none"
               d="m 540.48,646.5 h 1.02 v 36.54 h -1.02 z" /><path
               id="path146"
               style="fill:#0000ff;fill-opacity:1;fill-rule:nonzero;stroke:none"
               d="m 504.48,646.5 h 36.48 v 1.02 h -36.48 z" /><path
               id="path148"
               style="fill:#0000ff;fill-opacity:1;fill-rule:nonzero;stroke:none"
               d="m 504.48,647.04 h 1.02 v 36.48 h -1.02 z" /></g></g></g></g><g
       id="g150"><g
         clip-path="url(#clipPath156)"
         id="g152"><g
           id="g158"><g
             clip-path="url(#clipPath164)"
             id="g160"><g
               id="g166"><g
                 clip-path="url(#clipPath172)"
                 id="g168"><path
                   id="path174"
                   style="fill:#7e7e7e;fill-opacity:1;fill-rule:nonzero;stroke:none"
                   d="m 508.56,650.64 h 28.8 v 28.8 h -28.8 z" /><path
                   id="path176"
                   style="fill:#7e7e7e;fill-opacity:1;fill-rule:nonzero;stroke:none"
                   d="m 508.56,678.9 h 28.8 v 0.57 h -28.8 z" /><path
                   id="path178"
                   style="fill:#7e7e7e;fill-opacity:1;fill-rule:nonzero;stroke:none"
                   d="m 536.88,650.61 h 0.48 v 28.83 h -0.48 z" /><path
                   id="path180"
                   style="fill:#7e7e7e;fill-opacity:1;fill-rule:nonzero;stroke:none"
                   d="m 508.5,650.61 h 28.86 v 0.51 H 508.5 Z" /><path
                   id="path182"
                   style="fill:#7e7e7e;fill-opacity:1;fill-rule:nonzero;stroke:none"
                   d="m 508.5,650.64 h 0.6 v 28.83 h -0.6 z" /></g></g></g></g></g></g><g
       id="g184"><g
         clip-path="url(#clipPath190)"
         id="g186"><g
           id="g192"><g
             clip-path="url(#clipPath198)"
             id="g194"><path
               id="path200"
               style="fill:#0000ff;fill-opacity:1;fill-rule:nonzero;stroke:none"
               d="m 512.16,654.24 h 21.6 v 21.6 h -21.6 z" /><path
               id="path202"
               style="fill:#0000ff;fill-opacity:1;fill-rule:nonzero;stroke:none"
               d="m 512.16,675.3 h 22.14 v 1.02 h -22.14 z" /><path
               id="path204"
               style="fill:#0000ff;fill-opacity:1;fill-rule:nonzero;stroke:none"
               d="m 533.28,653.7 h 1.02 v 22.14 h -1.02 z" /><path
               id="path206"
               style="fill:#0000ff;fill-opacity:1;fill-rule:nonzero;stroke:none"
               d="m 511.68,653.7 h 22.08 v 1.02 h -22.08 z" /><path
               id="path208"
               style="fill:#0000ff;fill-opacity:1;fill-rule:nonzero;stroke:none"
               d="m 511.68,654.24 h 1.02 v 22.08 h -1.02 z" /><path
               id="path210"
               style="fill:#ffffff;fill-opacity:1;fill-rule:nonzero;stroke:none"
               d="m 513.72,663.9 h 0.96 v 1.98 h -0.96 z" /><path
               id="path212"
               style="fill:#ffffff;fill-opacity:1;fill-rule:nonzero;stroke:none"
               d="m 514.68,663.9 h 3.18 v 1.98 h -3.18 z" /><g
               transform="translate(516.90002,664.91998)"
               id="g214"><path
                 id="path216"
                 style="fill:#ffffff;fill-opacity:1;fill-rule:evenodd;stroke:none"
                 d="M 0,0 0.06,0.72 C 0.506,2.155 1.791,2.946 3.18,3.3 L 4.02,3.36 V 0 H 0" /></g><path
               id="path218"
               style="fill:#ffffff;fill-opacity:1;fill-rule:nonzero;stroke:none"
               d="m 515.94,663.96 h 1.98 v 0.96 h -1.98 z" /><g
               transform="translate(515.94,664.91998)"
               id="g220"><path
                 id="path222"
                 style="fill:#ffffff;fill-opacity:1;fill-rule:nonzero;stroke:none"
                 d="M 0,0 V 0.48 L 0.06,0.84 0.12,1.08 0.24,1.38 0.36,1.68 0.42,1.8 0.6,2.1 1.02,2.52 0.84,2.34 1.02,2.64 1.26,2.94 1.56,3.18 1.8,3.36 1.98,3.48 2.34,3.66 2.28,3.6 2.58,3.78 3.84,4.2 4.14,4.26 V 2.28 L 4.44,2.34 3.36,1.98 3.6,2.1 3.3,1.92 3.24,1.86 2.88,1.68 3,1.8 2.76,1.62 H 2.82 L 2.52,1.38 2.7,1.62 2.52,1.32 2.4,1.14 2.16,0.9 2.28,1.08 2.1,0.78 2.22,0.96 2.1,0.66 1.98,0.36 2.04,0.54 1.98,0.18 V 0.36 0" /></g><g
               transform="translate(520.08002,669.17999)"
               id="g224"><path
                 id="path226"
                 style="fill:#ffffff;fill-opacity:1;fill-rule:nonzero;stroke:none"
                 d="M 0,0 H 0.42 0.3 L 0.6,-1.98 H 0" /></g><g
               transform="translate(520.79999,669.23999)"
               id="g228"><path
                 id="path230"
                 style="fill:#ffffff;fill-opacity:1;fill-rule:nonzero;stroke:none"
                 d="M 0,0 0.96,0.12 1.26,-1.86 0.3,-1.98" /></g><g
               transform="translate(520.38,669.17999)"
               id="g232"><path
                 id="path234"
                 style="fill:#ffffff;fill-opacity:1;fill-rule:nonzero;stroke:none"
                 d="m 0,0 0.3,-1.98 0.42,0.06 -0.3,1.98" /></g><path
               id="path236"
               style="fill:#ffffff;fill-opacity:1;fill-rule:nonzero;stroke:none"
               d="m 519.96,667.86 h 1.98 v 0.96 h -1.98 z" /><path
               id="path238"
               style="fill:#ffffff;fill-opacity:1;fill-rule:nonzero;stroke:none"
               d="m 519.96,660.9 h 1.98 v 6.96 h -1.98 z" /><g
               transform="translate(520.91998,661.62)"
               id="g240"><path
                 id="path242"
                 style="fill:#ffffff;fill-opacity:1;fill-rule:evenodd;stroke:none"
                 d="M 0,0 -0.84,0.06 C -2.229,0.414 -3.514,1.206 -3.96,2.64 L -4.02,3.3 H 0 V 0" /></g><g
               transform="translate(520.79999,660.59998)"
               id="g244"><path
                 id="path246"
                 style="fill:#ffffff;fill-opacity:1;fill-rule:nonzero;stroke:none"
                 d="M 0,0 0.96,-0.12 1.26,1.86 0.3,1.98" /></g><g
               transform="translate(520.79999,660.59998)"
               id="g248"><path
                 id="path250"
                 style="fill:#ffffff;fill-opacity:1;fill-rule:nonzero;stroke:none"
                 d="M 0,0 -0.42,0.06 H -0.3 -0.72 L -1.02,0.12 -2.1,0.48 -2.28,0.6 -2.58,0.78 -2.52,0.72 -2.88,0.9 -3.06,1.02 -3.3,1.2 -3.6,1.44 -3.84,1.68 -4.02,1.98 -3.84,1.8 -4.08,2.04 C -4.463,2.326 -4.534,2.88 -4.74,3.3 l -0.06,0.18 1.98,0.3 -0.06,0.24 0.12,-0.3 0.12,-0.3 -0.12,0.12 0.18,-0.3 L -2.7,3.42 -2.46,3.18 -2.34,3 -2.16,2.7 -2.34,3 -2.04,2.76 H -2.1 l 0.24,-0.18 -0.12,0.12 0.36,-0.18 0.06,-0.06 0.3,-0.18 -0.24,0.06 1.08,-0.36 -0.3,0.06 h 0.6 L 0.3,1.98" /></g><g
               transform="translate(516,664.08002)"
               id="g252"><path
                 id="path254"
                 style="fill:#ffffff;fill-opacity:1;fill-rule:nonzero;stroke:none"
                 d="M 0,0 -0.06,0.36 V 0.54 H 1.92 V 0.66 L 1.98,0.3" /></g><path
               id="path256"
               style="fill:#ffffff;fill-opacity:1;fill-rule:nonzero;stroke:none"
               d="m 515.94,664.62 h 1.98 v 1.26 h -1.98 z" /><path
               id="path258"
               style="fill:#ffffff;fill-opacity:1;fill-rule:nonzero;stroke:none"
               d="m 531.24,663.9 h 0.96 v 1.98 h -0.96 z" /><path
               id="path260"
               style="fill:#ffffff;fill-opacity:1;fill-rule:nonzero;stroke:none"
               d="m 528,663.9 h 3.24 v 1.98 H 528 Z" /><g
               transform="translate(524.94,668.28003)"
               id="g262"><path
                 id="path264"
                 style="fill:#ffffff;fill-opacity:1;fill-rule:evenodd;stroke:none"
                 d="M 0,0 0.84,-0.06 C 2.483,-0.582 3.331,-0.911 3.96,-2.64 L 4.02,-3.36 H 0 V 0" /></g><g
               transform="translate(525.12,669.23999)"
               id="g266"><path
                 id="path268"
                 style="fill:#ffffff;fill-opacity:1;fill-rule:nonzero;stroke:none"
                 d="m 0,0 -0.96,0.12 -0.3,-1.98 0.96,-0.12" /></g><g
               transform="translate(525.12,669.23999)"
               id="g270"><path
                 id="path272"
                 style="fill:#ffffff;fill-opacity:1;fill-rule:nonzero;stroke:none"
                 d="M 0,0 0.42,-0.06 H 0.24 0.66 C 2.74,-0.486 3.919,-1.24 4.74,-3.24 L 4.8,-3.48 2.82,-3.78 2.88,-3.96 2.76,-3.66 2.64,-3.36 2.7,-3.54 2.52,-3.24 2.58,-3.3 2.4,-3.06 v -0.06 l -0.24,0.3 0.12,-0.06 -0.24,0.24 0.18,-0.12 -0.6,0.36 0.06,-0.06 -0.36,0.18 0.12,-0.06 -1.08,0.36 0.3,-0.06 H 0.12 l -0.42,0.06" /></g><g
               transform="translate(529.91998,665.76001)"
               id="g274"><path
                 id="path276"
                 style="fill:#ffffff;fill-opacity:1;fill-rule:nonzero;stroke:none"
                 d="M 0,0 0.06,-0.36 V -0.48 H -1.92 V -0.66 L -1.98,-0.3" /></g><path
               id="path278"
               style="fill:#ffffff;fill-opacity:1;fill-rule:nonzero;stroke:none"
               d="m 528,663.96 h 1.98 v 1.32 H 528 Z" /><path
               id="path280"
               style="fill:#ffffff;fill-opacity:1;fill-rule:nonzero;stroke:none"
               d="m 523.98,667.86 h 1.98 v 0.96 h -1.98 z" /><path
               id="path282"
               style="fill:#ffffff;fill-opacity:1;fill-rule:nonzero;stroke:none"
               d="m 523.98,660.9 h 1.98 v 6.96 h -1.98 z" /><g
               transform="translate(528.96002,664.91998)"
               id="g284"><path
                 id="path286"
                 style="fill:#ffffff;fill-opacity:1;fill-rule:evenodd;stroke:none"
                 d="M 0,0 -0.06,-0.66 C -0.689,-2.389 -1.537,-2.718 -3.18,-3.24 L -4.02,-3.3 V 0 H 0" /></g><path
               id="path288"
               style="fill:#ffffff;fill-opacity:1;fill-rule:nonzero;stroke:none"
               d="m 528,664.92 h 1.98 v 0.96 H 528 Z" /><g
               transform="translate(529.97998,664.91998)"
               id="g290"><path
                 id="path292"
                 style="fill:#ffffff;fill-opacity:1;fill-rule:nonzero;stroke:none"
                 d="m 0,0 v -0.3 c -0.245,-2.134 -1.882,-3.424 -3.9,-3.9 l -0.3,-0.06 v 1.98 l -0.3,-0.06 1.08,0.36 h -0.12 l 0.36,0.18 -0.06,-0.06 0.6,0.36 -0.18,-0.18 0.24,0.24 -0.12,-0.06 0.24,0.3 0.18,0.24 -0.06,-0.12 0.18,0.3 -0.06,-0.12 0.12,0.3 0.12,0.3 -0.06,-0.24 0.06,0.36 V -0.3 0" /></g><g
               transform="translate(525.78003,660.65997)"
               id="g294"><path
                 id="path296"
                 style="fill:#ffffff;fill-opacity:1;fill-rule:nonzero;stroke:none"
                 d="m 0,0 h -0.42 0.18 l -0.3,1.98 H 0" /></g><g
               transform="translate(525.12,660.59998)"
               id="g298"><path
                 id="path300"
                 style="fill:#ffffff;fill-opacity:1;fill-rule:nonzero;stroke:none"
                 d="m 0,0 -0.96,-0.12 -0.3,1.98 0.96,0.12" /></g><g
               transform="translate(525.53998,660.65997)"
               id="g302"><path
                 id="path304"
                 style="fill:#ffffff;fill-opacity:1;fill-rule:nonzero;stroke:none"
                 d="m 0,0 -0.3,1.98 -0.42,-0.06 0.3,-1.98" /></g></g></g></g></g><g
       id="g306"><g
         clip-path="url(#clipPath312)"
         id="g308"><g
           id="g314"><g
             clip-path="url(#clipPath320)"
             id="g316"><path
               id="path322"
               style="fill:#0000ff;fill-opacity:1;fill-rule:nonzero;stroke:none"
               d="m 70.98,436.98 h 36 v 36 h -36 z" /><path
               id="path324"
               style="fill:#0000ff;fill-opacity:1;fill-rule:nonzero;stroke:none"
               d="m 70.98,472.74 h 36.24 v 0.48 H 70.98 Z" /><path
               id="path326"
               style="fill:#0000ff;fill-opacity:1;fill-rule:nonzero;stroke:none"
               d="m 106.74,436.74 h 0.48 v 36.24 h -0.48 z" /><path
               id="path328"
               style="fill:#0000ff;fill-opacity:1;fill-rule:nonzero;stroke:none"
               d="m 70.74,436.74 h 36.24 v 0.48 H 70.74 Z" /><path
               id="path330"
               style="fill:#0000ff;fill-opacity:1;fill-rule:nonzero;stroke:none"
               d="m 70.74,436.98 h 0.48 v 36.24 h -0.48 z" /><text
               id="text334"
               style="font-variant:normal;font-weight:bold;font-stretch:normal;font-size:24px;font-family:'Times LT Std';-inkscape-font-specification:TimesLTStd-Bold;writing-mode:lr-tb;fill:#ffffff;fill-opacity:1;fill-rule:nonzero;stroke:none"
               transform="matrix(1,0,0,-1,82.2,447.96)"><tspan
                 id="tspan332"
                 y="0"
                 x="0">8</tspan></text>
</g></g></g></g><g
       id="g336"><g
         clip-path="url(#clipPath342)"
         id="g338"><g
           id="g344"><g
             clip-path="url(#clipPath350)"
             id="g346"><path
               id="path352"
               style="fill:#0000ff;fill-opacity:1;fill-rule:nonzero;stroke:none"
               d="m 504.96,436.98 h 36 v 36 h -36 z" /><path
               id="path354"
               style="fill:#0000ff;fill-opacity:1;fill-rule:nonzero;stroke:none"
               d="m 504.96,472.44 h 36.54 v 1.02 h -36.54 z" /><path
               id="path356"
               style="fill:#0000ff;fill-opacity:1;fill-rule:nonzero;stroke:none"
               d="m 540.48,436.44 h 1.02 v 36.54 h -1.02 z" /><path
               id="path358"
               style="fill:#0000ff;fill-opacity:1;fill-rule:nonzero;stroke:none"
               d="m 504.48,436.44 h 36.48 v 1.02 h -36.48 z" /><path
               id="path360"
               style="fill:#0000ff;fill-opacity:1;fill-rule:nonzero;stroke:none"
               d="m 504.48,436.98 h 1.02 v 36.48 h -1.02 z" /></g></g></g></g><g
       id="g362"><g
         clip-path="url(#clipPath368)"
         id="g364"><g
           id="g370"><g
             clip-path="url(#clipPath376)"
             id="g372"><g
               id="g378"><g
                 clip-path="url(#clipPath384)"
                 id="g380"><path
                   id="path386"
                   style="fill:#7e7e7e;fill-opacity:1;fill-rule:nonzero;stroke:none"
                   d="m 508.56,440.58 h 28.8 v 28.8 h -28.8 z" /><path
                   id="path388"
                   style="fill:#7e7e7e;fill-opacity:1;fill-rule:nonzero;stroke:none"
                   d="m 508.56,468.84 h 28.8 v 0.57 h -28.8 z" /><path
                   id="path390"
                   style="fill:#7e7e7e;fill-opacity:1;fill-rule:nonzero;stroke:none"
                   d="m 536.88,440.55 h 0.48 v 28.83 h -0.48 z" /><path
                   id="path392"
                   style="fill:#7e7e7e;fill-opacity:1;fill-rule:nonzero;stroke:none"
                   d="m 508.5,440.55 h 28.86 v 0.51 H 508.5 Z" /><path
                   id="path394"
                   style="fill:#7e7e7e;fill-opacity:1;fill-rule:nonzero;stroke:none"
                   d="m 508.5,440.58 h 0.6 v 28.83 h -0.6 z" /></g></g></g></g></g></g><g
       id="g396"><g
         clip-path="url(#clipPath402)"
         id="g398"><g
           id="g404"><g
             clip-path="url(#clipPath410)"
             id="g406"><path
               id="path412"
               style="fill:#0000ff;fill-opacity:1;fill-rule:nonzero;stroke:none"
               d="m 512.16,444.18 h 21.6 v 21.6 h -21.6 z" /><path
               id="path414"
               style="fill:#0000ff;fill-opacity:1;fill-rule:nonzero;stroke:none"
               d="m 512.16,465.24 h 22.14 v 1.02 h -22.14 z" /><path
               id="path416"
               style="fill:#0000ff;fill-opacity:1;fill-rule:nonzero;stroke:none"
               d="m 533.28,443.64 h 1.02 v 22.14 h -1.02 z" /><path
               id="path418"
               style="fill:#0000ff;fill-opacity:1;fill-rule:nonzero;stroke:none"
               d="m 511.68,443.64 h 22.08 v 1.02 h -22.08 z" /><path
               id="path420"
               style="fill:#0000ff;fill-opacity:1;fill-rule:nonzero;stroke:none"
               d="m 511.68,444.18 h 1.02 v 22.08 h -1.02 z" /><g
               transform="translate(528.47998,449.51999)"
               id="g422"><path
                 id="path424"
                 style="fill:#ffffff;fill-opacity:1;fill-rule:nonzero;stroke:none"
                 d="M 0,0 0.18,0.18 0.06,-0.06 0.24,0.18 H 0.18 L 0.3,0.36 0.24,0.18 0.36,0.42 0.3,0.3 0.42,0.6 0.6,0.96 0.42,0.6 0.48,0.9 0.54,0.96 0.6,1.2 0.54,0.78 V 2.04 1.8 L 0.48,2.1 0.42,2.46 0.36,2.82 0.3,3.18 0.42,2.94 0.3,3.24 0.24,3.3 0,4.02 0.06,3.84 -0.12,4.2 -0.3,4.56 -0.48,4.92 V 4.98 L -0.66,5.4 -0.54,5.16 -1.5,6.6 l 0.12,-0.12 -1.2,1.44 0.18,-0.24 -0.36,0.3 -0.18,0.24 -0.3,0.36 0.18,-0.24 -1.44,1.2 0.12,-0.06 -1.44,0.96 0.18,-0.12 1.32,2.7 0.12,-0.06 c 1.338,-0.824 2.101,-1.473 3.3,-2.46 l 0.3,-0.36 -0.24,0.18 0.36,-0.3 C 0.771,8.968 1.141,7.78 2.1,6.54 L 2.28,6.12 2.22,6.24 2.76,5.16 3.06,4.26 V 4.32 L 3.18,4.02 3.3,3.72 3.36,3.36 3.42,3 3.48,2.64 V 2.7 L 3.54,2.4 c 0,-0.64 0,-1.28 0,-1.92 L 3.48,0.24 V 0.3 L 3.42,0 3.3,-0.36 3.18,-0.6 v 0.12 L 3.06,-0.78 V -0.9 L 2.94,-1.14 2.7,-1.5 2.64,-1.56 2.46,-1.8 2.34,-1.98 2.16,-2.16" /></g><g
               transform="translate(522.84003,459.84)"
               id="g426"><path
                 id="path428"
                 style="fill:#ffffff;fill-opacity:1;fill-rule:nonzero;stroke:none"
                 d="m 0,0 -0.36,0.18 h 0.12 L -0.66,0.36 H -0.78 L -1.5,0.72 -1.32,0.66 -2.04,0.9 -2.1,0.96 -2.4,1.08 -2.1,0.96 -3.18,1.14 h -0.06 l -0.3,0.06 h 0.3 -1.26 0.36 L -4.38,1.14 H -4.44 L -4.74,1.08 -4.38,1.2 -4.62,1.08 h -0.12 l -0.3,-0.12 h 0.12 L -5.16,0.84 -4.98,0.96 -5.16,0.84 -5.1,0.9 -5.34,0.72 -5.16,0.84 -5.52,0.48 -5.4,0.6 -5.58,0.36 -5.4,0.66 -5.52,0.42 -5.7,0.12 l -0.18,-0.24 0.3,0.6 -0.06,-0.24 -0.12,-0.3 -0.12,-0.24 0.12,0.36 -0.12,-0.6 v 0.24 -0.54 l -0.06,-0.3 v 0.24 -0.3 0.36 l 0.06,-0.3 v -0.72 0.36 l 0.06,-0.3 -0.12,0.18 0.12,-0.36 0.12,-0.24 0.06,-0.36 -0.12,0.24 0.24,-0.72 -2.82,-0.96 -0.3,0.9 -0.06,0.36 0.06,-0.18 -0.18,0.54 -0.06,0.3 v 0.6 -0.24 l -0.06,0.3 v 0.9 l 0.06,0.3 V -0.6 0.06 l 0.06,0.3 0.06,0.3 0.3,0.6 -0.12,-0.3 0.06,0.24 0.24,0.48 0.18,0.24 -0.12,-0.18 0.12,0.24 c 0.422,0.831 1.164,1.337 1.98,1.74 l 0.3,0.12 -0.12,-0.06 0.6,0.3 0.3,0.06 -0.06,-0.06 0.24,0.06 c 0.541,0.032 1.437,-0.068 1.92,0.06 L -2.64,4.14 -2.7,4.08 -1.62,3.9 -1.32,3.84 -1.02,3.72 H -1.08 L -0.18,3.42 0.54,3.06 0.48,3.12 0.9,2.94 0.96,2.88 1.32,2.7" /></g><g
               transform="translate(517.32001,456.78)"
               id="g430"><path
                 id="path432"
                 style="fill:#ffffff;fill-opacity:1;fill-rule:nonzero;stroke:none"
                 d="M 0,0 0.12,-0.36 0.06,-0.18 0.6,-1.26 0.78,-1.62 0.72,-1.5 0.96,-1.86 1.68,-2.94 1.62,-2.76 2.82,-4.2 2.58,-4.02 2.94,-4.32 3.18,-4.5 3.48,-4.86 3.24,-4.68 4.68,-5.88 4.5,-5.76 5.94,-6.72 5.82,-6.66 7.26,-7.38 7.08,-7.32 8.16,-7.68 7.92,-7.62 8.28,-7.68 8.52,-7.74 8.88,-7.86 8.7,-7.74 9,-7.8 8.7,-7.86 h 0.36 l 0.3,0.06 0.3,-0.06 -0.3,-0.06 h 0.3 -0.24 l 0.36,0.06 h 0.48 l -0.3,0.06 0.6,0.12 -0.36,-0.18 0.24,0.12 0.3,0.12 0.72,-2.94 0.3,0.12 -0.24,-0.12 -0.36,-0.12 -0.6,-0.12 h -0.54 0.24 L 9.9,-10.86 H 9.06 l -0.3,0.06 H 9.06 8.4 l -0.3,0.06 -0.54,0.18 0.24,-0.06 -0.36,0.06 c -2.124,0.486 -4.823,2.227 -6.3,3.78 l -0.3,0.36 0.18,-0.24 -0.36,0.3 c -1.304,1.549 -2.619,3.13 -3.36,5.04 l -0.12,0.36" /></g><g
               transform="translate(528.06,449.16)"
               id="g434"><path
                 id="path436"
                 style="fill:#ffffff;fill-opacity:1;fill-rule:nonzero;stroke:none"
                 d="M 0,0 0.24,0.06 -0.06,-0.06 0.18,0.06 -0.06,-0.12 0.42,0.24 0.24,0.18 0.42,0.36 2.58,-1.8 2.4,-1.98 C 1.866,-2.312 1.586,-2.692 0.96,-2.88 L 0.72,-2.94" /></g><g
               transform="translate(524.15997,454.98001)"
               id="g438"><path
                 id="path440"
                 style="fill:#ffffff;fill-opacity:1;fill-rule:evenodd;stroke:none"
                 d="M 0,0 -0.06,0.48 -0.36,0.84 -0.72,1.14 -1.2,1.2 -1.62,1.14 -2.04,0.84 -2.28,0.48 -2.34,0 l 0.06,-0.42 0.24,-0.42 0.42,-0.24 0.42,-0.06 0.48,0.06 0.36,0.24 0.3,0.42 L 0,0" /></g><g
               transform="translate(523.91998,454.92001)"
               id="g442"><path
                 id="path444"
                 style="fill:#ffffff;fill-opacity:1;fill-rule:nonzero;stroke:none"
                 d="M 0,0 -0.06,0.48 0,0.36 -0.3,0.72 h 0.06 L -0.6,1.02 -0.48,0.96 -0.96,1.02 H -0.9 L -1.32,0.96 H -1.2 L -1.62,0.66 -1.56,0.78 -1.8,0.42 V 0.48 L -1.86,0 v 0.06 l 0.06,-0.42 v 0.12 l 0.24,-0.42 -0.12,0.06 0.42,-0.24 -0.06,0.06 0.42,-0.06 H -0.96 L -0.48,-0.78 -0.6,-0.84 -0.24,-0.6 -0.3,-0.66 0,-0.24 -0.06,-0.36 0,0.06 0.48,0 0.42,-0.42 V -0.54 L 0.12,-0.96 0,-1.02 -0.36,-1.26 H -0.42 L -0.9,-1.32 h -0.06 l -0.42,0.06 H -1.5 l -0.42,0.24 -0.06,0.12 -0.24,0.42 -0.06,0.06 L -2.34,0 v 0.06 l 0.06,0.48 0.06,0.12 0.24,0.36 0.06,0.06 0.42,0.3 0.12,0.06 0.42,0.06 H -0.9 L -0.42,1.44 -0.3,1.38 0.06,1.08 V 1.02 L 0.36,0.66 0.42,0.54 0.48,0.06" /></g><g
               transform="translate(523.91998,454.98001)"
               id="g446"><path
                 id="path448"
                 style="fill:#ffffff;fill-opacity:1;fill-rule:nonzero;stroke:none"
                 d="M 0,0 V -0.06 L 0.48,0 v -0.06" /></g></g></g></g></g></g></svg>