<?xml version="1.0" encoding="UTF-8"?>
<svg xmlns="http://www.w3.org/2000/svg" xmlns:xlink="http://www.w3.org/1999/xlink" width="37.105pt" height="37.023pt" viewBox="0 0 37.105 37.023" version="1.1">
<defs>
<clipPath id="clip1">
  <path d="M 0 0 L 37.105469 0 L 37.105469 2 L 0 2 Z M 0 0 "/>
</clipPath>
<clipPath id="clip2">
  <path d="M 36 0 L 37.105469 0 L 37.105469 37.023438 L 36 37.023438 Z M 36 0 "/>
</clipPath>
<clipPath id="clip3">
  <path d="M 0 36 L 37 36 L 37 37.023438 L 0 37.023438 Z M 0 36 "/>
</clipPath>
<clipPath id="clip4">
  <path d="M 4.152344 4.109375 L 32.949219 4.109375 L 32.949219 32.910156 L 4.152344 32.910156 Z M 4.152344 4.109375 "/>
</clipPath>
<clipPath id="clip5">
  <path d="M 4.152344 4.109375 L 32.949219 4.109375 L 32.949219 5 L 4.152344 5 Z M 4.152344 4.109375 "/>
</clipPath>
<clipPath id="clip6">
  <path d="M 32 4.109375 L 32.949219 4.109375 L 32.949219 32.910156 L 32 32.910156 Z M 32 4.109375 "/>
</clipPath>
<clipPath id="clip7">
  <path d="M 4.152344 32 L 32.949219 32 L 32.949219 32.910156 L 4.152344 32.910156 Z M 4.152344 32 "/>
</clipPath>
<clipPath id="clip8">
  <path d="M 4.152344 4.109375 L 5 4.109375 L 5 32.910156 L 4.152344 32.910156 Z M 4.152344 4.109375 "/>
</clipPath>
</defs>
<g id="surface1">
<path style=" stroke:none;fill-rule:nonzero;fill:rgb(0%,0%,100%);fill-opacity:1;" d="M 0.550781 36.511719 L 36.550781 36.511719 L 36.550781 0.511719 L 0.550781 0.511719 Z M 0.550781 36.511719 "/>
<g clip-path="url(#clip1)" clip-rule="nonzero">
<path style=" stroke:none;fill-rule:nonzero;fill:rgb(0%,0%,100%);fill-opacity:1;" d="M 0.550781 1.050781 L 37.089844 1.050781 L 37.089844 0.03125 L 0.550781 0.03125 Z M 0.550781 1.050781 "/>
</g>
<g clip-path="url(#clip2)" clip-rule="nonzero">
<path style=" stroke:none;fill-rule:nonzero;fill:rgb(0%,0%,100%);fill-opacity:1;" d="M 36.070312 37.050781 L 37.089844 37.050781 L 37.089844 0.511719 L 36.070312 0.511719 Z M 36.070312 37.050781 "/>
</g>
<g clip-path="url(#clip3)" clip-rule="nonzero">
<path style=" stroke:none;fill-rule:nonzero;fill:rgb(0%,0%,100%);fill-opacity:1;" d="M 0.0703125 37.050781 L 36.550781 37.050781 L 36.550781 36.03125 L 0.0703125 36.03125 Z M 0.0703125 37.050781 "/>
</g>
<path style=" stroke:none;fill-rule:nonzero;fill:rgb(0%,0%,100%);fill-opacity:1;" d="M 0.0703125 36.511719 L 1.089844 36.511719 L 1.089844 0.03125 L 0.0703125 0.03125 Z M 0.0703125 36.511719 "/>
<g clip-path="url(#clip4)" clip-rule="nonzero">
<path style=" stroke:none;fill-rule:nonzero;fill:rgb(49.598694%,49.598694%,49.598694%);fill-opacity:1;" d="M 4.152344 32.910156 L 32.949219 32.910156 L 32.949219 4.109375 L 4.152344 4.109375 Z M 4.152344 32.910156 "/>
</g>
<g clip-path="url(#clip5)" clip-rule="nonzero">
<path style=" stroke:none;fill-rule:nonzero;fill:rgb(49.598694%,49.598694%,49.598694%);fill-opacity:1;" d="M 4.152344 4.648438 L 32.949219 4.648438 L 32.949219 4.078125 L 4.152344 4.078125 Z M 4.152344 4.648438 "/>
</g>
<g clip-path="url(#clip6)" clip-rule="nonzero">
<path style=" stroke:none;fill-rule:nonzero;fill:rgb(49.598694%,49.598694%,49.598694%);fill-opacity:1;" d="M 32.472656 32.941406 L 32.949219 32.941406 L 32.949219 4.109375 L 32.472656 4.109375 Z M 32.472656 32.941406 "/>
</g>
<g clip-path="url(#clip7)" clip-rule="nonzero">
<path style=" stroke:none;fill-rule:nonzero;fill:rgb(49.598694%,49.598694%,49.598694%);fill-opacity:1;" d="M 4.089844 32.941406 L 32.949219 32.941406 L 32.949219 32.429688 L 4.089844 32.429688 Z M 4.089844 32.941406 "/>
</g>
<g clip-path="url(#clip8)" clip-rule="nonzero">
<path style=" stroke:none;fill-rule:nonzero;fill:rgb(49.598694%,49.598694%,49.598694%);fill-opacity:1;" d="M 4.089844 32.910156 L 4.691406 32.910156 L 4.691406 4.078125 L 4.089844 4.078125 Z M 4.089844 32.910156 "/>
</g>
<path style=" stroke:none;fill-rule:nonzero;fill:rgb(0%,0%,100%);fill-opacity:1;" d="M 7.75 29.308594 L 29.351562 29.308594 L 29.351562 7.710938 L 7.75 7.710938 Z M 7.75 29.308594 "/>
<path style=" stroke:none;fill-rule:nonzero;fill:rgb(0%,0%,100%);fill-opacity:1;" d="M 7.75 8.25 L 29.890625 8.25 L 29.890625 7.230469 L 7.75 7.230469 Z M 7.75 8.25 "/>
<path style=" stroke:none;fill-rule:nonzero;fill:rgb(0%,0%,100%);fill-opacity:1;" d="M 28.871094 29.851562 L 29.890625 29.851562 L 29.890625 7.710938 L 28.871094 7.710938 Z M 28.871094 29.851562 "/>
<path style=" stroke:none;fill-rule:nonzero;fill:rgb(0%,0%,100%);fill-opacity:1;" d="M 7.269531 29.851562 L 29.351562 29.851562 L 29.351562 28.828125 L 7.269531 28.828125 Z M 7.269531 29.851562 "/>
<path style=" stroke:none;fill-rule:nonzero;fill:rgb(0%,0%,100%);fill-opacity:1;" d="M 7.269531 29.308594 L 8.289062 29.308594 L 8.289062 7.230469 L 7.269531 7.230469 Z M 7.269531 29.308594 "/>
<path style=" stroke:none;fill-rule:nonzero;fill:rgb(100%,100%,100%);fill-opacity:1;" d="M 24.789062 24.808594 L 25.152344 24.390625 L 25.089844 24.449219 L 25.332031 24.03125 L 25.269531 24.03125 L 25.511719 23.488281 L 25.449219 23.671875 L 25.570312 23.128906 L 25.570312 23.191406 L 25.570312 21.929688 L 25.570312 21.988281 L 25.449219 21.328125 L 25.332031 20.609375 L 25.390625 20.730469 L 25.152344 20.070312 L 24.851562 19.351562 L 24.492188 18.570312 L 24.550781 18.628906 L 24.132812 17.910156 L 24.132812 18.03125 L 23.652344 17.308594 L 23.109375 16.589844 L 22.511719 15.871094 L 22.570312 15.871094 L 21.25 14.550781 L 21.25 14.609375 L 20.53125 14.011719 L 19.8125 13.46875 L 19.871094 13.53125 L 19.152344 13.050781 L 19.210938 12.988281 L 18.492188 12.570312 L 18.492188 12.628906 L 17.710938 12.269531 L 16.992188 11.96875 L 17.050781 11.96875 L 16.390625 11.730469 L 16.449219 11.789062 L 15.730469 11.609375 L 15.789062 11.609375 L 14.472656 11.488281 L 14.589844 11.488281 L 13.992188 11.550781 L 13.992188 11.488281 L 13.449219 11.609375 L 13.570312 11.609375 L 13.03125 11.789062 L 13.152344 11.789062 L 12.730469 12.089844 L 12.789062 12.03125 L 12.371094 12.390625 L 12.371094 12.328125 L 12.011719 12.75 L 12.070312 12.75 L 11.769531 13.171875 L 11.832031 12.988281 L 11.710938 13.53125 L 11.652344 13.46875 L 11.53125 14.011719 L 11.589844 13.949219 L 11.53125 14.550781 L 11.53125 14.488281 L 11.589844 15.148438 L 11.652344 15.808594 L 11.652344 15.75 L 11.769531 16.46875 L 11.769531 16.410156 L 12.011719 17.070312 L 12.011719 16.949219 L 11.050781 17.371094 L 10.8125 16.710938 L 10.632812 15.988281 C 10.488281 14.699219 10.351562 13.136719 11.289062 12.089844 L 11.652344 11.671875 L 11.652344 11.609375 C 13.082031 10.234375 14.863281 10.3125 16.691406 10.769531 L 16.75 10.828125 L 17.410156 11.070312 L 17.472656 11.011719 L 18.191406 11.308594 L 18.972656 11.671875 L 18.972656 11.730469 L 19.691406 12.148438 L 19.75 12.210938 L 20.472656 12.691406 L 21.191406 13.230469 L 21.910156 13.828125 L 21.972656 13.828125 L 23.289062 15.148438 L 23.289062 15.210938 L 23.890625 15.929688 L 24.429688 16.648438 L 24.492188 16.710938 L 24.972656 17.429688 L 25.390625 18.148438 L 25.449219 18.148438 L 25.8125 18.929688 L 26.109375 19.648438 L 26.109375 19.769531 L 26.351562 20.429688 L 26.351562 20.488281 L 26.472656 21.210938 L 26.589844 21.871094 L 26.589844 23.191406 C 26.589844 23.839844 26.265625 24.402344 25.929688 24.929688 L 25.871094 25.050781 L 25.511719 25.46875 "/>
<path style=" stroke:none;fill-rule:nonzero;fill:rgb(100%,100%,100%);fill-opacity:1;" d="M 12.011719 16.949219 L 12.3125 17.671875 L 12.671875 18.449219 L 12.609375 18.449219 L 13.03125 19.171875 L 13.511719 19.890625 L 13.449219 19.828125 L 13.992188 20.550781 L 14.589844 21.269531 L 14.589844 21.210938 L 15.910156 22.53125 L 15.851562 22.53125 L 16.570312 23.128906 L 17.289062 23.671875 L 18.011719 24.148438 L 17.949219 24.089844 L 18.671875 24.511719 L 19.390625 24.871094 L 19.390625 24.808594 L 20.109375 25.109375 L 19.992188 25.109375 L 20.710938 25.351562 L 21.429688 25.53125 L 21.371094 25.53125 L 22.03125 25.589844 L 21.972656 25.53125 L 23.171875 25.53125 L 23.050781 25.589844 L 23.652344 25.46875 L 23.53125 25.53125 L 24.492188 25.050781 L 24.371094 25.109375 L 24.789062 24.75 L 24.789062 24.808594 L 25.511719 25.46875 L 25.511719 25.53125 L 25.089844 25.890625 L 24.011719 26.429688 L 23.832031 26.429688 L 23.230469 26.550781 L 21.972656 26.550781 L 21.910156 26.609375 L 21.25 26.550781 L 21.191406 26.550781 L 20.472656 26.371094 L 20.410156 26.308594 L 19.691406 26.070312 L 19.632812 26.070312 L 18.910156 25.769531 L 18.191406 25.410156 L 18.191406 25.351562 L 17.472656 24.929688 L 17.410156 24.988281 L 16.691406 24.511719 C 14.445312 22.808594 12.460938 20.714844 11.351562 18.089844 L 11.050781 17.371094 "/>
<path style=" stroke:none;fill-rule:evenodd;fill:rgb(100%,100%,100%);fill-opacity:1;" d="M 19.449219 18.511719 L 19.390625 18.210938 L 19.210938 17.910156 L 18.910156 17.730469 L 18.550781 17.671875 L 18.25 17.730469 L 17.949219 17.910156 L 17.769531 18.210938 L 17.710938 18.511719 L 17.769531 18.871094 L 17.949219 19.171875 L 18.25 19.351562 L 18.550781 19.410156 L 18.910156 19.351562 L 19.210938 19.171875 L 19.390625 18.871094 L 19.449219 18.511719 "/>
<path style=" stroke:none;fill-rule:nonzero;fill:rgb(100%,100%,100%);fill-opacity:1;" d="M 19.332031 18.570312 L 19.269531 18.269531 L 19.332031 18.269531 L 19.152344 17.96875 L 19.152344 18.03125 L 18.851562 17.851562 L 18.910156 17.851562 L 18.550781 17.789062 L 18.609375 17.789062 L 18.3125 17.851562 L 18.011719 18.03125 L 18.070312 17.96875 L 17.890625 18.269531 L 17.832031 18.570312 L 17.832031 18.511719 L 17.890625 18.871094 L 17.890625 18.808594 L 18.070312 19.109375 L 18.011719 19.109375 L 18.3125 19.289062 L 18.3125 19.230469 L 18.609375 19.289062 L 18.550781 19.289062 L 18.910156 19.230469 L 18.851562 19.289062 L 19.152344 19.109375 L 19.332031 18.808594 L 19.269531 18.871094 L 19.332031 18.511719 L 19.570312 18.570312 L 19.511719 18.929688 L 19.332031 19.230469 L 19.269531 19.289062 L 18.972656 19.46875 L 18.609375 19.53125 L 18.550781 19.53125 L 18.25 19.46875 L 18.191406 19.46875 L 17.890625 19.289062 L 17.890625 19.230469 L 17.710938 18.929688 L 17.652344 18.929688 L 17.589844 18.570312 C 17.597656 18.023438 18.066406 17.558594 18.609375 17.550781 L 18.972656 17.609375 L 18.972656 17.671875 L 19.269531 17.851562 L 19.332031 17.851562 L 19.511719 18.148438 L 19.511719 18.210938 L 19.570312 18.511719 "/>
<path style=" stroke:none;fill-rule:nonzero;fill:rgb(100%,100%,100%);fill-opacity:1;" d="M 19.332031 18.511719 L 19.332031 18.570312 L 19.570312 18.511719 L 19.570312 18.570312 "/>
<path style=" stroke:none;fill-rule:nonzero;fill:rgb(100%,100%,100%);fill-opacity:1;" d="M 7.449219 14.851562 L 7.269531 14.96875 L 7.511719 15.390625 L 7.691406 15.269531 "/>
<path style=" stroke:none;fill-rule:nonzero;fill:rgb(100%,100%,100%);fill-opacity:1;" d="M 7.449219 14.851562 L 8.351562 14.25 C 10.722656 12.859375 12.761719 13.226562 14.832031 14.910156 L 16.03125 15.988281 L 15.730469 16.351562 L 14.53125 15.269531 L 14.53125 15.328125 L 13.332031 14.488281 L 12.730469 14.191406 L 12.789062 14.191406 L 12.132812 14.011719 L 12.191406 14.011719 L 11.53125 13.890625 L 10.871094 13.890625 L 10.929688 13.890625 L 10.210938 14.011719 L 9.371094 14.25 L 9.429688 14.25 L 8.589844 14.671875 L 7.691406 15.269531 "/>
<path style=" stroke:none;fill-rule:nonzero;fill:rgb(100%,100%,100%);fill-opacity:1;" d="M 16.03125 15.988281 L 17.351562 17.191406 L 17.050781 17.550781 L 15.730469 16.351562 "/>
<path style=" stroke:none;fill-rule:nonzero;fill:rgb(100%,100%,100%);fill-opacity:1;" d="M 18.851562 18.449219 L 19.03125 18.570312 L 18.730469 18.929688 L 18.550781 18.808594 "/>
<path style=" stroke:none;fill-rule:nonzero;fill:rgb(100%,100%,100%);fill-opacity:1;" d="M 17.351562 17.191406 L 17.050781 17.550781 L 18.550781 18.808594 L 18.851562 18.449219 "/>
<path style=" stroke:none;fill-rule:nonzero;fill:rgb(100%,100%,100%);fill-opacity:1;" d="M 21.191406 21.328125 L 21.3125 21.148438 L 21.25 21.148438 L 21.492188 20.671875 L 21.492188 20.851562 L 21.550781 20.609375 L 21.550781 20.671875 L 21.550781 20.128906 L 21.550781 20.25 L 21.429688 19.648438 L 21.429688 19.710938 L 21.191406 19.050781 L 21.25 19.109375 L 20.890625 18.449219 L 20.890625 18.570312 L 20.410156 17.910156 L 20.472656 17.910156 L 19.871094 17.25 L 19.871094 17.308594 L 19.210938 16.710938 L 19.269531 16.769531 L 18.609375 16.289062 L 18.671875 16.289062 L 18.011719 15.929688 L 18.070312 15.929688 L 17.410156 15.691406 L 17.53125 15.691406 L 16.929688 15.570312 L 16.992188 15.570312 L 16.449219 15.570312 L 16.511719 15.570312 L 16.210938 15.628906 L 16.332031 15.628906 L 16.152344 15.691406 L 16.210938 15.691406 L 15.972656 15.808594 L 16.089844 15.691406 L 15.730469 16.050781 L 15.789062 15.929688 L 15.671875 16.171875 L 15.730469 16.109375 L 15.609375 16.589844 L 15.609375 16.410156 L 15.609375 16.949219 L 15.609375 16.890625 L 15.730469 17.488281 L 15.730469 17.429688 L 15.972656 18.089844 L 15.972656 17.96875 L 16.332031 18.628906 L 16.269531 18.628906 L 16.75 19.289062 L 16.691406 19.230469 L 17.289062 19.890625 L 17.289062 19.828125 L 17.949219 20.429688 L 17.890625 20.429688 L 18.550781 20.910156 L 18.492188 20.851562 L 19.152344 21.210938 L 19.089844 21.210938 L 19.75 21.449219 L 19.691406 21.390625 L 19.992188 21.449219 L 19.8125 22.410156 L 19.511719 22.351562 L 19.390625 22.351562 L 18.730469 22.109375 L 18.671875 22.109375 L 18.011719 21.75 L 17.949219 21.75 L 17.289062 21.269531 L 17.230469 21.210938 L 16.570312 20.609375 L 16.570312 20.550781 L 15.972656 19.890625 L 15.910156 19.890625 L 15.429688 19.230469 L 15.429688 19.109375 C 14.65625 18.117188 14.101562 15.652344 15.492188 14.910156 L 15.730469 14.789062 L 15.851562 14.730469 C 17.546875 13.980469 20.296875 15.941406 21.191406 17.25 L 21.25 17.308594 L 21.730469 17.96875 L 21.789062 17.96875 L 22.152344 18.628906 L 22.152344 18.75 C 22.378906 19.179688 22.433594 19.660156 22.511719 20.128906 L 22.511719 20.671875 C 22.570312 21.042969 22.265625 21.304688 22.152344 21.628906 L 22.152344 21.75 L 22.03125 21.929688 "/>
<path style=" stroke:none;fill-rule:nonzero;fill:rgb(100%,100%,100%);fill-opacity:1;" d="M 19.992188 21.449219 L 20.292969 21.511719 L 20.171875 21.449219 L 20.710938 21.449219 L 20.589844 21.511719 L 20.832031 21.449219 L 20.710938 21.511719 L 21.070312 21.328125 L 21.3125 21.269531 L 21.070312 21.390625 L 21.25 21.210938 L 21.191406 21.328125 L 22.03125 21.929688 L 21.972656 21.929688 L 21.792969 22.109375 L 21.550781 22.289062 L 21.3125 22.351562 L 21.429688 22.289062 L 21.191406 22.410156 L 21.070312 22.46875 L 20.832031 22.53125 L 20.710938 22.46875 L 20.109375 22.46875 L 19.8125 22.410156 "/>
</g>
</svg>
