<?xml version="1.0" encoding="UTF-8" standalone="no"?>
<!-- Created with Inkscape (http://www.inkscape.org/) -->

<svg
   xmlns:dc="http://purl.org/dc/elements/1.1/"
   xmlns:cc="http://creativecommons.org/ns#"
   xmlns:rdf="http://www.w3.org/1999/02/22-rdf-syntax-ns#"
   xmlns:svg="http://www.w3.org/2000/svg"
   xmlns="http://www.w3.org/2000/svg"
   xmlns:sodipodi="http://sodipodi.sourceforge.net/DTD/sodipodi-0.dtd"
   xmlns:inkscape="http://www.inkscape.org/namespaces/inkscape"
   width="1.5555222in"
   height="1.063889in"
   viewBox="0 0 139.997 95.750012"
   id="svg21877"
   version="1.1"
   inkscape:version="0.91 r13725"
   sodipodi:docname="SingleInputNeuron.svg"
   inkscape:export-filename="/Users/mthagan/Dropbox/MyDocuments/NN_Book_New/Figures/Chapter 2/SingleInputNeuron.png"
   inkscape:export-xdpi="90"
   inkscape:export-ydpi="90">
  <defs
     id="defs21879" />
  <sodipodi:namedview
     id="base"
     pagecolor="#ffffff"
     bordercolor="#666666"
     borderopacity="1.0"
     inkscape:pageopacity="0.0"
     inkscape:pageshadow="2"
     inkscape:zoom="5.1800802"
     inkscape:cx="55.713006"
     inkscape:cy="70.318781"
     inkscape:document-units="in"
     inkscape:current-layer="layer1"
     showgrid="true"
     guidetolerance="20"
     inkscape:object-nodes="true"
     units="in"
     inkscape:snap-bbox="false"
     inkscape:window-width="1548"
     inkscape:window-height="975"
     inkscape:window-x="61"
     inkscape:window-y="7"
     inkscape:window-maximized="0"
     inkscape:snap-text-baseline="true"
     inkscape:snap-intersection-paths="true"
     fit-margin-top="0"
     fit-margin-left="0"
     fit-margin-right="0"
     fit-margin-bottom="0">
    <inkscape:grid
       type="xygrid"
       id="grid21885"
       spacingx="2.25"
       spacingy="2.25"
       originx="-67.000003"
       originy="-620.49998" />
  </sodipodi:namedview>
  <metadata
     id="metadata21882">
    <rdf:RDF>
      <cc:Work
         rdf:about="">
        <dc:format>image/svg+xml</dc:format>
        <dc:type
           rdf:resource="http://purl.org/dc/dcmitype/StillImage" />
        <dc:title />
      </cc:Work>
    </rdf:RDF>
  </metadata>
  <g
     inkscape:label="Layer 1"
     inkscape:groupmode="layer"
     id="layer1"
     transform="translate(-67,-336.11219)">
    <text
       xml:space="preserve"
       style="font-style:normal;font-variant:normal;font-weight:normal;font-stretch:normal;font-size:10px;line-height:125%;font-family:'Times New Roman';-inkscape-font-specification:'Times New Roman';text-align:start;letter-spacing:0px;word-spacing:0px;writing-mode:lr-tb;text-anchor:start;fill:#000000;fill-opacity:1;stroke:none;stroke-width:1px;stroke-linecap:butt;stroke-linejoin:miter;stroke-opacity:1"
       x="108"
       y="345.86218"
       id="text34968"
       sodipodi:linespacing="125%"><tspan
         sodipodi:role="line"
         id="tspan34970"
         x="108"
         y="345.86218" /></text>
    <text
       id="text6512"
       xml:space="preserve"
       font-size="10"
       style="font-size:10px;font-family:Helvetica;text-anchor:middle"
       x="81"
       y="345.86218"><tspan
         id="tspan6514">Inputs</tspan></text>
    <g
       id="g6516"
       transform="translate(-49.503,-270.6408)">
      <path
         id="path6518"
         d="M 184.506,657 202,657.004"
         inkscape:connector-curvature="0"
         style="fill:none;stroke:#000000;stroke-linecap:square" />
      <path
         id="path6520"
         d="m 201.5,653.006 10,4 -10,4"
         inkscape:connector-curvature="0" />
    </g>
    <g
       id="g6524"
       transform="translate(-49.503,-270.6408)">
      <path
         id="path6526"
         d="M 229.506,657 247,657.004"
         inkscape:connector-curvature="0"
         style="fill:none;stroke:#000000;stroke-linecap:square" />
      <path
         id="path6528"
         d="m 246.5,653.006 10,4 -10,4"
         inkscape:connector-curvature="0" />
    </g>
    <path
       id="path6530"
       d="m 112.5,431.3622 c -4.97,0 -9,-4.029 -9,-9 0,0 0,0 0,0"
       inkscape:connector-curvature="0"
       style="fill:none;stroke:#000000" />
    <path
       id="path6532"
       d="m 189,422.3622 c 0,4.971 -4.029,9 -9,9 0,0 0,0 0,0"
       inkscape:connector-curvature="0"
       style="fill:none;stroke:#000000" />
    <path
       id="path6534"
       d="m 112.5,431.3622 67.5,0"
       inkscape:connector-curvature="0"
       style="fill:none;stroke:#000000;stroke-linecap:square" />
    <text
       id="text6544"
       xml:space="preserve"
       font-size="10"
       font-style="italic"
       style="font-style:italic;font-size:10px;font-family:Times;text-anchor:middle"
       x="74.25"
       y="386.36221"><tspan
         id="tspan6546">p</tspan><tspan
         id="tspan6548"
         font-size="6"
         font-style="normal"
         style="font-style:normal;font-size:6px" /></text>
    <text
       id="text6550"
       xml:space="preserve"
       font-size="10"
       font-style="italic"
       style="font-style:italic;font-size:10px;font-family:Times;text-anchor:middle"
       x="191.383"
       y="383.36218"><tspan
         id="tspan6552">a</tspan></text>
    <text
       id="text6554"
       xml:space="preserve"
       font-size="10"
       font-style="italic"
       style="font-style:italic;font-size:10px;font-family:Times;text-anchor:middle"
       x="146.38499"
       y="383.36218"><tspan
         id="tspan6556">n</tspan></text>
    <path
       id="path6558"
       d="m 103.5,359.8622 c 0,-4.97 4.03,-9 9,-9"
       inkscape:connector-curvature="0"
       style="fill:none;stroke:#000000" />
    <path
       id="path6560"
       d="m 180,350.8622 c 4.971,0 9,4.03 9,9"
       inkscape:connector-curvature="0"
       style="fill:none;stroke:#000000" />
    <path
       id="path6562"
       d="m 112.5,350.8622 67.5,0"
       inkscape:connector-curvature="0"
       style="fill:none;stroke:#000000;stroke-linecap:square" />
    <path
       id="path6564"
       d="m 67.5,359.8622 c 0,-4.97 4.03,-9 9,-9"
       inkscape:connector-curvature="0"
       style="fill:none;stroke:#000000" />
    <path
       id="path6566"
       d="m 85.5,350.8622 c 4.971,0 9,4.03 9,9"
       inkscape:connector-curvature="0"
       style="fill:none;stroke:#000000" />
    <path
       id="path6568"
       d="m 76.5,350.8622 9,0"
       inkscape:connector-curvature="0"
       style="fill:none;stroke:#000000;stroke-linecap:square" />
    <path
       id="path6570"
       d="m 76.5,431.3622 c -4.97,0 -9,-4.029 -9,-9 0,0 0,0 0,0"
       inkscape:connector-curvature="0"
       style="fill:none;stroke:#000000" />
    <path
       id="path6572"
       d="m 94.5,422.3622 c 0,4.971 -4.029,9 -9,9 0,0 0,0 0,0"
       inkscape:connector-curvature="0"
       style="fill:none;stroke:#000000" />
    <path
       id="path6574"
       d="m 76.5,431.3622 9,0"
       inkscape:connector-curvature="0"
       style="fill:none;stroke:#000000;stroke-linecap:square" />
    <path
       id="path6580"
       d="m 85.5,386.3622 31.5,0"
       inkscape:connector-curvature="0"
       style="fill:none;stroke:#000000;stroke-linecap:square"
       sodipodi:nodetypes="cc" />
    <path
       id="path6584"
       d="m 162,377.3622 18,0 0,18 -18,0 z"
       inkscape:connector-curvature="0"
       style="fill:none;fill-rule:evenodd;stroke:#000000" />
    <path
       id="path6606"
       d="m 87.75,386.3622 c 0,1.243 -1.007,2.25 -2.25,2.25 -1.243,0 -2.25,-1.007 -2.25,-2.25 0,-1.243 1.007,-2.25 2.25,-2.25 1.243,0 2.25,1.007 2.25,2.25 z"
       inkscape:connector-curvature="0"
       style="fill-rule:evenodd;stroke:#000000" />
    <text
       id="text6622"
       xml:space="preserve"
       font-size="10"
       font-style="italic"
       style="font-style:italic;font-size:10px;font-family:Times"
       x="99"
       y="381.86221"><tspan
         id="tspan6624">w</tspan><tspan
         id="tspan6626"
         font-size="6"
         font-style="normal"
         style="font-style:normal;font-size:6px" /></text>
    <text
       id="text6630"
       xml:space="preserve"
       font-size="14"
       font-style="italic"
       style="font-style:italic;font-size:14px;font-family:Times"
       x="165.5"
       y="389.86218"><tspan
         id="tspan6632"> f</tspan></text>
    <g
       id="g6670"
       transform="translate(-49.503,-270.6408)">
      <path
         id="path6672"
         d="m 175.503,684.003 0,-18"
         inkscape:connector-curvature="0"
         style="fill:none;stroke:#000000;stroke-linecap:square" />
      <text
         id="text6674"
         xml:space="preserve"
         transform="translate(180.027,676.503)"
         font-size="10"
         font-style="italic"
         style="font-style:italic;font-size:10px;font-family:Times;text-anchor:middle"><tspan
           id="tspan6676">b</tspan></text>
      <path
         id="path6678"
         d="m 177.753,684.003 c 0,1.243 -1.007,2.25 -2.25,2.25 -1.243,0 -2.25,-1.007 -2.25,-2.25 0,-1.243 1.007,-2.25 2.25,-2.25 1.243,0 2.25,1.007 2.25,2.25 z"
         inkscape:connector-curvature="0"
         style="fill-rule:evenodd;stroke:#000000" />
      <text
         id="text6680"
         xml:space="preserve"
         transform="translate(175.638,699.003)"
         font-size="10"
         style="font-size:10px;font-family:Times;text-anchor:middle"><tspan
           id="tspan6682">1</tspan></text>
    </g>
    <path
       style="fill:none;fill-rule:evenodd;stroke:#000000"
       inkscape:connector-curvature="0"
       d="m 117,377.3622 18,0 0,18 -18,0 z"
       id="path6702" />
    <path
       style="fill-rule:evenodd"
       inkscape:connector-curvature="0"
       d="m 130.438,381.2372 0,2.25 -0.563,0 -1.687,-1.687 0,-0.563 z"
       id="path6704" />
    <path
       style="fill-rule:evenodd"
       inkscape:connector-curvature="0"
       d="m 130.438,391.9252 0,-2.25 -0.563,0 -1.687,1.687 0,0.563 z"
       id="path6706" />
    <path
       style="fill:#ffffff;fill-rule:evenodd"
       inkscape:connector-curvature="0"
       d="m 127.688,381.3002 c 0.932,0 1.687,0.755 1.687,1.687"
       id="path6708" />
    <path
       style="fill:#ffffff;fill-rule:evenodd"
       inkscape:connector-curvature="0"
       d="m 129.375,388.8932 c 0,0.932 -0.755,1.688 -1.687,1.688 0,0 0,0 0,0"
       id="path6710" />
    <path
       style="fill-rule:evenodd"
       inkscape:connector-curvature="0"
       d="m 130.438,392.4872 -9,0 0,-0.562 5.062,-5.063 -5.062,-5.062 0,-0.563 9,0 0,2.25 -0.563,0 0,-1.687 -6.187,0 4.5,4.5 -4.782,4.781 6.469,0 0,-1.688 0.563,0 z"
       id="path6712" />
    <text
       y="345.86218"
       x="146.25"
       style="font-size:10px;font-family:Helvetica;text-anchor:middle"
       font-size="10"
       xml:space="preserve"
       id="text4193"><tspan
         id="tspan4195">General Neuron</tspan></text>
  </g>
</svg>
