<?xml version="1.0" encoding="UTF-8" standalone="no"?>
<!-- Created with Inkscape (http://www.inkscape.org/) -->

<svg
   xmlns:dc="http://purl.org/dc/elements/1.1/"
   xmlns:cc="http://creativecommons.org/ns#"
   xmlns:rdf="http://www.w3.org/1999/02/22-rdf-syntax-ns#"
   xmlns:svg="http://www.w3.org/2000/svg"
   xmlns="http://www.w3.org/2000/svg"
   xmlns:sodipodi="http://sodipodi.sourceforge.net/DTD/sodipodi-0.dtd"
   xmlns:inkscape="http://www.inkscape.org/namespaces/inkscape"
   version="1.1"
   id="svg335"
   xml:space="preserve"
   width="188"
   height="149.33333"
   viewBox="0 0 188 149.33333"
   sodipodi:docname="nn2d1.svg"
   inkscape:version="0.92.1 r15371"><metadata
     id="metadata341"><rdf:RDF><cc:Work
         rdf:about=""><dc:format>image/svg+xml</dc:format><dc:type
           rdf:resource="http://purl.org/dc/dcmitype/StillImage" /><dc:title></dc:title></cc:Work></rdf:RDF></metadata><defs
     id="defs339"><clipPath
       clipPathUnits="userSpaceOnUse"
       id="clipPath405"><path
         d="m 953,489 v 181 h 181 V 489 Z"
         id="path403"
         inkscape:connector-curvature="0" /></clipPath></defs><sodipodi:namedview
     pagecolor="#ffffff"
     bordercolor="#666666"
     borderopacity="1"
     objecttolerance="10"
     gridtolerance="10"
     guidetolerance="10"
     inkscape:pageopacity="0"
     inkscape:pageshadow="2"
     inkscape:window-width="640"
     inkscape:window-height="480"
     id="namedview337"
     showgrid="false"
     inkscape:zoom="1.5803572"
     inkscape:cx="94"
     inkscape:cy="74.666664"
     inkscape:window-x="0"
     inkscape:window-y="0"
     inkscape:window-maximized="0"
     inkscape:current-layer="g343" /><g
     id="g343"
     inkscape:groupmode="layer"
     inkscape:label="ink_ext_XXXXXX"
     transform="matrix(1.3333333,0,0,-1.3333333,0,149.33333)"><g
       id="g345"
       transform="scale(0.1)"><g
         id="g347"
         transform="scale(10)"><text
           transform="matrix(1,0,0,-1,46.3961,104.238)"
           style="font-variant:normal;font-weight:normal;font-size:10px;font-family:Helvetica;-inkscape-font-specification:Helvetica;writing-mode:lr-tb;fill:#231f20;fill-opacity:1;fill-rule:nonzero;stroke:none"
           id="text351"><tspan
             x="0 7.7800002 13.34 18.9 24.459999 27.790001 33.349998 35.57 38.349998 45.57 51.130001 56.689999 60.02 65.580002"
             y="0"
             sodipodi:role="line"
             id="tspan349">General Neuron</tspan></text>
</g><path
         d="m 683.199,574.879 h 262.5 v 10 h -262.5 z"
         style="fill:#231f20;fill-opacity:1;fill-rule:nonzero;stroke:none"
         id="path353"
         inkscape:connector-curvature="0" /><path
         d="m 953.199,579.879 -70.5,-46.988 0.031,93.988"
         style="fill:#231f20;fill-opacity:1;fill-rule:nonzero;stroke:none"
         id="path355"
         inkscape:connector-curvature="0" /><path
         d="m 1133.2,574.879 h 262.5 v 10 h -262.5 z"
         style="fill:#231f20;fill-opacity:1;fill-rule:nonzero;stroke:none"
         id="path357"
         inkscape:connector-curvature="0" /><path
         d="m 1403.2,579.879 -70.5,-46.988 0.03,93.988"
         style="fill:#231f20;fill-opacity:1;fill-rule:nonzero;stroke:none"
         id="path359"
         inkscape:connector-curvature="0" /><path
         d="m 368.199,219.879 c 0,-49.719 40.321,-90 90,-90"
         style="fill:none;stroke:#231f20;stroke-width:10;stroke-linecap:butt;stroke-linejoin:miter;stroke-miterlimit:10;stroke-dasharray:none;stroke-opacity:1"
         id="path361"
         inkscape:connector-curvature="0" /><path
         d="m 1133.2,129.879 c 49.69,0 90,40.281 90,90"
         style="fill:none;stroke:#231f20;stroke-width:10;stroke-linecap:butt;stroke-linejoin:miter;stroke-miterlimit:10;stroke-dasharray:none;stroke-opacity:1"
         id="path363"
         inkscape:connector-curvature="0" /><g
         id="g365"
         transform="scale(10)"><text
           transform="matrix(1,0,0,-1,122.486,60.9879)"
           style="font-style:italic;font-variant:normal;font-size:10px;font-family:'Times New Roman';-inkscape-font-specification:Times-Italic;writing-mode:lr-tb;fill:#231f20;fill-opacity:1;fill-rule:nonzero;stroke:none"
           id="text369"><tspan
             x="0"
             y="0"
             id="tspan367">a</tspan></text>
</g><path
         d="m 598.199,309.879 v 180 h -10 v -180 z m -10,180 h 10 v 5 h -10 z m 0,-180 v -5 h 10 v 5"
         style="fill:#231f20;fill-opacity:1;fill-rule:nonzero;stroke:none"
         id="path371"
         inkscape:connector-curvature="0" /><g
         id="g373"
         transform="scale(10)"><text
           transform="matrix(1,0,0,-1,77.4711,60.9879)"
           style="font-style:italic;font-variant:normal;font-size:10px;font-family:'Times New Roman';-inkscape-font-specification:Times-Italic;writing-mode:lr-tb;fill:#231f20;fill-opacity:1;fill-rule:nonzero;stroke:none"
           id="text377"><tspan
             x="0"
             y="0"
             id="tspan375">n</tspan></text>
</g><path
         d="m 458.199,984.879 c -49.679,0 -90,-40.309 -90,-90"
         style="fill:none;stroke:#231f20;stroke-width:10;stroke-linecap:butt;stroke-linejoin:miter;stroke-miterlimit:10;stroke-dasharray:none;stroke-opacity:1"
         id="path379"
         inkscape:connector-curvature="0" /><path
         d="m 1223.2,894.879 c 0,49.691 -40.31,90 -90,90"
         style="fill:none;stroke:#231f20;stroke-width:10;stroke-linecap:butt;stroke-linejoin:miter;stroke-miterlimit:10;stroke-dasharray:none;stroke-opacity:1"
         id="path381"
         inkscape:connector-curvature="0" /><g
         id="g383"
         transform="scale(10)"><text
           transform="matrix(1,0,0,-1,2.28516,104.238)"
           style="font-variant:normal;font-weight:normal;font-size:10px;font-family:Helvetica;-inkscape-font-specification:Helvetica;writing-mode:lr-tb;fill:#231f20;fill-opacity:1;fill-rule:nonzero;stroke:none"
           id="text387"><tspan
             x="0 2.78 8.3400002 13.9 19.459999 22.24"
             y="0"
             sodipodi:role="line"
             id="tspan385">Inputs</tspan></text>
</g><path
         d="m 98.1992,984.879 c -49.6797,0 -89.99998,-40.309 -89.99998,-90"
         style="fill:none;stroke:#231f20;stroke-width:10;stroke-linecap:butt;stroke-linejoin:miter;stroke-miterlimit:10;stroke-dasharray:none;stroke-opacity:1"
         id="path389"
         inkscape:connector-curvature="0" /><path
         d="m 278.199,894.879 c 0,49.691 -40.308,90 -90,90"
         style="fill:none;stroke:#231f20;stroke-width:10;stroke-linecap:butt;stroke-linejoin:miter;stroke-miterlimit:10;stroke-dasharray:none;stroke-opacity:1"
         id="path391"
         inkscape:connector-curvature="0" /><path
         d="m 8.19922,219.879 c 0,-49.719 40.32028,-90 89.99998,-90"
         style="fill:none;stroke:#231f20;stroke-width:10;stroke-linecap:butt;stroke-linejoin:miter;stroke-miterlimit:10;stroke-dasharray:none;stroke-opacity:1"
         id="path393"
         inkscape:connector-curvature="0" /><path
         d="m 188.199,129.879 c 49.692,0 90,40.281 90,90"
         style="fill:none;stroke:#231f20;stroke-width:10;stroke-linecap:butt;stroke-linejoin:miter;stroke-miterlimit:10;stroke-dasharray:none;stroke-opacity:1"
         id="path395"
         inkscape:connector-curvature="0" /><path
         d="m 953.199,489.879 h 180 v 180 h -180 z"
         style="fill:#ffffff;fill-opacity:1;fill-rule:nonzero;stroke:none"
         id="path397"
         inkscape:connector-curvature="0" /><g
         id="g399"><g
           id="g401"
           clip-path="url(#clipPath405)"><g
             id="g407"
             transform="scale(10)"><text
               transform="matrix(1,0,0,-1,83.3199,29.3629)"
               style="font-variant:normal;font-weight:normal;font-size:24px;font-family:Arial;-inkscape-font-specification:ArialMT;writing-mode:lr-tb;fill:#ffffff;fill-opacity:1;fill-rule:nonzero;stroke:none"
               id="text413"><tspan
                 x="0 24.000193"
                 y="0"
                 sodipodi:role="line"
                 id="tspan409">AA</tspan><tspan
                 x="0 24.000193"
                 y="-24"
                 sodipodi:role="line"
                 id="tspan411">AA</tspan></text>
</g></g></g><path
         d="m 953.199,489.879 h 180 v 180 h -180 z"
         style="fill:none;stroke:#231f20;stroke-width:10;stroke-linecap:square;stroke-linejoin:miter;stroke-miterlimit:10;stroke-dasharray:none;stroke-opacity:1"
         id="path415"
         inkscape:connector-curvature="0" /><g
         id="g417"
         transform="scale(10)"><text
           transform="matrix(1,0,0,-1,9.94492,56.4879)"
           style="font-style:italic;font-variant:normal;font-size:10px;font-family:'Times New Roman';-inkscape-font-specification:Times-Italic;writing-mode:lr-tb;fill:#231f20;fill-opacity:1;fill-rule:nonzero;stroke:none"
           id="text421"><tspan
             x="0"
             y="0"
             id="tspan419">p</tspan></text>
</g><path
         d="m 210.699,579.879 c 0,-12.418 -10.078,-22.5 -22.5,-22.5 -12.418,0 -22.5,10.082 -22.5,22.5 0,12.43 10.082,22.5 22.5,22.5 12.422,0 22.5,-10.07 22.5,-22.5"
         style="fill:#231f20;fill-opacity:1;fill-rule:nonzero;stroke:none"
         id="path423"
         inkscape:connector-curvature="0" /><path
         d="m 210.699,579.879 c 0,-12.418 -10.078,-22.5 -22.5,-22.5 -12.418,0 -22.5,10.082 -22.5,22.5 0,12.43 10.082,22.5 22.5,22.5 12.422,0 22.5,-10.07 22.5,-22.5 z"
         style="fill:none;stroke:#231f20;stroke-width:10;stroke-linecap:square;stroke-linejoin:miter;stroke-miterlimit:1.41499996;stroke-dasharray:none;stroke-opacity:1"
         id="path425"
         inkscape:connector-curvature="0" /><g
         id="g427"
         transform="scale(10)"><text
           transform="matrix(1,0,0,-1,33.1379,61.2379)"
           style="font-style:italic;font-variant:normal;font-size:10px;font-family:'Times New Roman';-inkscape-font-specification:Times-Italic;writing-mode:lr-tb;fill:#231f20;fill-opacity:1;fill-rule:nonzero;stroke:none"
           id="text431"><tspan
             x="0"
             y="0"
             id="tspan429">w</tspan></text>
</g><path
         d="m 615.699,309.879 c 0,-12.418 -10.078,-22.5 -22.5,-22.5 -12.418,0 -22.5,10.082 -22.5,22.5 0,12.43 10.082,22.5 22.5,22.5 12.422,0 22.5,-10.07 22.5,-22.5"
         style="fill:#231f20;fill-opacity:1;fill-rule:nonzero;stroke:none"
         id="path433"
         inkscape:connector-curvature="0" /><path
         d="m 615.699,309.879 c 0,-12.418 -10.078,-22.5 -22.5,-22.5 -12.418,0 -22.5,10.082 -22.5,22.5 0,12.43 10.082,22.5 22.5,22.5 12.422,0 22.5,-10.07 22.5,-22.5 z"
         style="fill:none;stroke:#231f20;stroke-width:10;stroke-linecap:square;stroke-linejoin:miter;stroke-miterlimit:1.41499996;stroke-dasharray:none;stroke-opacity:1"
         id="path435"
         inkscape:connector-curvature="0" /><g
         id="g437"
         transform="scale(10)"><text
           transform="matrix(1,0,0,-1,57.5871,15.9879)"
           style="font-variant:normal;font-weight:normal;font-size:10px;font-family:'Times New Roman';-inkscape-font-specification:Times-Roman;writing-mode:lr-tb;fill:#231f20;fill-opacity:1;fill-rule:nonzero;stroke:none"
           id="text441"><tspan
             x="0"
             y="0"
             id="tspan439">1</tspan></text>
</g><path
         d="m 503.199,489.879 h 180 v 180 h -180 z"
         style="fill:#ffffff;fill-opacity:1;fill-rule:nonzero;stroke:none"
         id="path443"
         inkscape:connector-curvature="0" /><path
         d="m 503.199,489.879 h 180 v 180 h -180 z"
         style="fill:none;stroke:#231f20;stroke-width:10;stroke-linecap:square;stroke-linejoin:miter;stroke-miterlimit:10;stroke-dasharray:none;stroke-opacity:1"
         id="path445"
         inkscape:connector-curvature="0" /><g
         id="g447"
         transform="scale(10)"><text
           transform="matrix(1,0,0,-1,54.3961,52.2379)"
           style="font-variant:normal;font-weight:normal;font-size:18px;font-family:Symbol;-inkscape-font-specification:Symbol;writing-mode:lr-tb;fill:#231f20;fill-opacity:1;fill-rule:nonzero;stroke:none"
           id="text451"><tspan
             x="0"
             y="0"
             id="tspan449">Σ</tspan></text>
</g><path
         d="m 188.199,574.879 h 315 v 10 h -315 z m 315,10 v -10 h 5 v 10 z m -315,0 h -5 v -10 h 5"
         style="fill:#231f20;fill-opacity:1;fill-rule:nonzero;stroke:none"
         id="path453"
         inkscape:connector-curvature="0" /><g
         id="g455"
         transform="scale(10)"><text
           transform="matrix(1,0,0,-1,103.522,54.8629)"
           style="font-style:italic;font-variant:normal;font-size:12px;font-family:'Times New Roman';-inkscape-font-specification:Times-Italic;writing-mode:lr-tb;fill:#231f20;fill-opacity:1;fill-rule:nonzero;stroke:none"
           id="text459"><tspan
             x="0"
             y="0"
             id="tspan457">f</tspan></text>
</g><path
         d="M 98.1992,984.879 H 188.199"
         style="fill:none;stroke:#000000;stroke-width:10;stroke-linecap:butt;stroke-linejoin:miter;stroke-miterlimit:4;stroke-dasharray:none;stroke-opacity:1"
         id="path461"
         inkscape:connector-curvature="0" /><path
         d="M 98.1992,129.879 H 188.199"
         style="fill:none;stroke:#000000;stroke-width:10;stroke-linecap:butt;stroke-linejoin:miter;stroke-miterlimit:4;stroke-dasharray:none;stroke-opacity:1"
         id="path463"
         inkscape:connector-curvature="0" /><path
         d="M 458.199,129.879 H 1133.2"
         style="fill:none;stroke:#000000;stroke-width:10;stroke-linecap:butt;stroke-linejoin:miter;stroke-miterlimit:4;stroke-dasharray:none;stroke-opacity:1"
         id="path465"
         inkscape:connector-curvature="0" /><g
         id="g467"
         transform="scale(10)"><text
           transform="matrix(1,0,0,-1,53.0801,3.40508)"
           style="font-style:italic;font-variant:normal;font-size:10px;font-family:'Times New Roman';-inkscape-font-specification:Times-Italic;writing-mode:lr-tb;fill:#000000;fill-opacity:1;fill-rule:nonzero;stroke:none"
           id="text471"><tspan
             x="0"
             y="0"
             id="tspan469">a</tspan></text>
<text
           transform="matrix(1,0,0,-1,60.5801,3.40508)"
           style="font-variant:normal;font-weight:normal;font-size:10px;font-family:'Times New Roman';-inkscape-font-specification:Times-Roman;writing-mode:lr-tb;fill:#000000;fill-opacity:1;fill-rule:nonzero;stroke:none"
           id="text475"><tspan
             x="0 5.6399999"
             y="0"
             sodipodi:role="line"
             id="tspan473">= </tspan></text>
<text
           transform="matrix(1,0,0,-1,68.7199,3.40508)"
           style="font-style:italic;font-variant:normal;font-size:10px;font-family:'Times New Roman';-inkscape-font-specification:Times-Italic;writing-mode:lr-tb;fill:#000000;fill-opacity:1;fill-rule:nonzero;stroke:none"
           id="text479"><tspan
             x="0"
             y="0"
             id="tspan477">f</tspan></text>
<text
           transform="matrix(1,0,0,-1,71.49842,3.40508)"
           style="font-variant:normal;font-weight:normal;font-size:10px;font-family:'Times New Roman';-inkscape-font-specification:Times-Roman;writing-mode:lr-tb;fill:#000000;fill-opacity:1;fill-rule:nonzero;stroke:none"
           id="text483"><tspan
             x="0"
             y="0"
             id="tspan481">(</tspan></text>
<text
           transform="matrix(1,0,0,-1,74.8285,3.40508)"
           style="font-style:italic;font-variant:normal;font-size:10px;font-family:'Times New Roman';-inkscape-font-specification:Times-Italic;writing-mode:lr-tb;fill:#000000;fill-opacity:1;fill-rule:nonzero;stroke:none"
           id="text487"><tspan
             x="0 6.6700001"
             y="0"
             sodipodi:role="line"
             id="tspan485">wp</tspan></text>
<text
           transform="matrix(1,0,0,-1,88.9984,3.40508)"
           style="font-variant:normal;font-weight:normal;font-size:10px;font-family:'Times New Roman';-inkscape-font-specification:Times-Roman;writing-mode:lr-tb;fill:#000000;fill-opacity:1;fill-rule:nonzero;stroke:none"
           id="text491"><tspan
             x="0 5.6399999"
             y="0"
             sodipodi:role="line"
             id="tspan489">+ </tspan></text>
<text
           transform="matrix(1,0,0,-1,97.1382,3.40508)"
           style="font-style:italic;font-variant:normal;font-size:10px;font-family:'Times New Roman';-inkscape-font-specification:Times-Italic;writing-mode:lr-tb;fill:#000000;fill-opacity:1;fill-rule:nonzero;stroke:none"
           id="text495"><tspan
             x="0"
             y="0"
             id="tspan493">b</tspan></text>
<text
           transform="matrix(1,0,0,-1,102.1382,3.40508)"
           style="font-variant:normal;font-weight:normal;font-size:10px;font-family:'Times New Roman';-inkscape-font-specification:Times-Roman;writing-mode:lr-tb;fill:#000000;fill-opacity:1;fill-rule:nonzero;stroke:none"
           id="text499"><tspan
             x="0"
             y="0"
             id="tspan497">)</tspan></text>
</g><path
         d="M 458.199,984.879 H 1133.2"
         style="fill:none;stroke:#000000;stroke-width:10;stroke-linecap:butt;stroke-linejoin:miter;stroke-miterlimit:4;stroke-dasharray:none;stroke-opacity:1"
         id="path501"
         inkscape:connector-curvature="0" /></g></g></svg>