<?xml version="1.0" encoding="UTF-8"?>
<svg width="22" height="22" version="1.1" xmlns="http://www.w3.org/2000/svg">
 <defs>
  <linearGradient id="linearGradient4338" x2="0" y1="538.8" y2="519.8" gradientTransform="matrix(.6875 0 0 .86466 118.12 77.347)" gradientUnits="userSpaceOnUse">
   <stop stop-color="#2a2c2f" offset="0"/>
   <stop stop-color="#424649" offset="1"/>
  </linearGradient>
  <linearGradient id="linearGradient4346" x2="0" y1="542.8" y2="538.8" gradientTransform="matrix(.6875 0 0 .71429 120.18 158.37)" gradientUnits="userSpaceOnUse">
   <stop stop-color="#c6cdd1" offset="0"/>
   <stop stop-color="#e0e5e7" offset="1"/>
  </linearGradient>
  <linearGradient id="linearGradient4358" x2="0" y1="535.8" y2="520.8" gradientTransform="matrix(.85938 0 0 .85715 51.33 81.112)" gradientUnits="userSpaceOnUse">
   <stop stop-color="#60a5e7" stop-opacity="0" offset="0"/>
   <stop stop-color="#a6f3fb" stop-opacity=".25773" offset="1"/>
  </linearGradient>
  <linearGradient id="linearGradient4173" x1="393.57" x2="410.57" y1="519.8" y2="536.8" gradientTransform="matrix(.6875 0 0 .71429 120.18 156.94)" gradientUnits="userSpaceOnUse">
   <stop offset="0"/>
   <stop stop-opacity="0" offset="1"/>
  </linearGradient>
 </defs>
 <g transform="translate(-384.57 -525.8)">
  <rect x="384.57" y="526.8" width="22" height="16.429" fill="url(#linearGradient4338)" stroke-width=".70077"/>
  <rect x="393.51" y="543.23" width="4.125" height="2.8571" fill="url(#linearGradient4346)" stroke-width=".70077"/>
  <rect x="391.45" y="546.08" width="8.25" height=".71429" fill="#99a1a7" stroke-width=".70077"/>
  <path d="m385.26 540.37 2.75 2.8572h18.563v-15l-0.6875-0.71428z" fill="url(#linearGradient4173)" fill-rule="evenodd" opacity=".2" stroke-width=".70077"/>
  <rect x="385.26" y="527.51" width="20.625" height="12.857" fill="#fff" stroke-width=".70077"/>
  <rect x="385.26" y="527.51" width="20.625" height="12.857" fill="url(#linearGradient4358)" stroke-width=".70077"/>
  <path class="ColorScheme-Text" d="m389.57 530.32v7.4808h8.4v-1.8702l3.6 1.8702v-7.4808l-3.6 1.8702v-1.8702zm0.6 0.6234h7.2v6.234h-7.2zm10.8 0.38473v5.4645l-3-1.5585v-2.3475zm-6 0.23866v0.62341h1.8v-0.62341z" color="#eff0f1" fill="#232629"/>
 </g>
</svg>
