<?xml version="1.0" encoding="UTF-8"?>
<svg width="22" height="22" version="1.1" xmlns="http://www.w3.org/2000/svg" xmlns:xlink="http://www.w3.org/1999/xlink">
 <defs>
  <linearGradient id="linearGradient4149" x2="0" y1="545.8" y2="517.8" gradientTransform="translate(1.45e-4,5.74e-4)" gradientUnits="userSpaceOnUse">
   <stop stop-color="#1d1e1e" offset="0"/>
   <stop stop-color="#44484c" offset="1"/>
  </linearGradient>
  <linearGradient id="linearGradient4274" x1="8" x2="24" y1="24" y2="8" gradientUnits="userSpaceOnUse">
   <stop stop-color="#e81877" offset="0"/>
   <stop stop-color="#dd1d8c" offset=".3125"/>
   <stop stop-color="#6d57b1" offset=".5625"/>
   <stop stop-color="#2a78c1" offset=".75"/>
   <stop stop-color="#018dcb" offset="1"/>
  </linearGradient>
  <clipPath id="clipPath4534">
   <rect x="8" y="8" width="32" height="32" rx="16"/>
  </clipPath>
  <linearGradient id="linearGradient4278" x1="8" x2="24" y1="24" y2="8" gradientTransform="matrix(1 0 0 -1 384.57 547.8)" gradientUnits="userSpaceOnUse">
   <stop stop-color="#e51561" offset="0"/>
   <stop stop-color="#e4156c" offset=".3125"/>
   <stop stop-color="#e71e2c" offset=".5625"/>
   <stop stop-color="#e8301e" offset=".75"/>
   <stop stop-color="#e6320e" offset="1"/>
  </linearGradient>
  <clipPath id="clipPath4584">
   <rect x="392.57" y="507.8" width="32" height="32" rx="16"/>
  </clipPath>
  <linearGradient id="linearGradient4284" x1="8" x2="24" y1="24" y2="8" gradientTransform="matrix(-1 0 0 1 432.57 499.8)" gradientUnits="userSpaceOnUse">
   <stop stop-color="#bec900" offset="0"/>
   <stop stop-color="#9ec80a" offset=".3125"/>
   <stop stop-color="#71b93d" offset=".5625"/>
   <stop stop-color="#35a48f" offset=".75"/>
   <stop stop-color="#018fca" offset="1"/>
  </linearGradient>
  <clipPath id="clipPath4550">
   <rect x="392.57" y="507.8" width="32" height="32" rx="16"/>
  </clipPath>
  <linearGradient id="linearGradient4286" x1="8" x2="24" y1="24" y2="8" gradientTransform="rotate(180 216.29 273.9)" gradientUnits="userSpaceOnUse">
   <stop stop-color="#c1cc00" offset="0"/>
   <stop stop-color="#dfcd00" offset=".3125"/>
   <stop stop-color="#f0cc00" offset=".5625"/>
   <stop stop-color="#fd8c08" offset=".75"/>
   <stop stop-color="#f25c13" offset="1"/>
  </linearGradient>
  <clipPath id="clipPath4568">
   <rect x="392.57" y="507.8" width="32" height="32" rx="16"/>
  </clipPath>
  <clipPath id="clipPath4528">
   <rect x="8" y="8" width="32" height="32" rx="16"/>
  </clipPath>
  <filter id="filter4390" x="-.06" y="-.06" width="1.12" height="1.12" color-interpolation-filters="sRGB">
   <feGaussianBlur stdDeviation="0.4"/>
  </filter>
  <clipPath id="clipPath4578">
   <rect x="392.57" y="507.8" width="32" height="32" rx="16"/>
  </clipPath>
  <clipPath id="clipPath4562">
   <rect x="392.57" y="507.8" width="32" height="32" rx="16"/>
  </clipPath>
  <clipPath id="clipPath4544">
   <rect x="392.57" y="507.8" width="32" height="32" rx="16"/>
  </clipPath>
  <clipPath id="clipPath4528-1">
   <rect x="8" y="8" width="32" height="32" rx="16"/>
  </clipPath>
  <clipPath id="clipPath4578-8">
   <rect x="392.57" y="507.8" width="32" height="32" rx="16"/>
  </clipPath>
  <clipPath id="clipPath4562-8">
   <rect x="392.57" y="507.8" width="32" height="32" rx="16"/>
  </clipPath>
  <clipPath id="clipPath4544-1">
   <rect x="392.57" y="507.8" width="32" height="32" rx="16"/>
  </clipPath>
  <linearGradient id="linearGradient4314" x2="0" y1="543.8" y2="503.8" gradientTransform="matrix(.2 0 0 .2 318.86 -636.56)" gradientUnits="userSpaceOnUse">
   <stop stop-color="#2a2c2f" offset="0"/>
   <stop stop-color="#424649" offset="1"/>
  </linearGradient>
  <linearGradient id="linearGradient4917" x2="0" y1="524.8" y2="522.8" gradientTransform="translate(-8,8)" gradientUnits="userSpaceOnUse">
   <stop stop-color="#989a9b" offset="0"/>
   <stop stop-color="#f6f6f7" offset="1"/>
  </linearGradient>
  <linearGradient id="linearGradient4499" x1="393.57" x2="407.57" y1="524.8" y2="538.8" gradientTransform="translate(-384.57 -515.8)" gradientUnits="userSpaceOnUse">
   <stop stop-color="#292c2f" offset="0"/>
   <stop stop-opacity="0" offset="1"/>
  </linearGradient>
 </defs>
 <g transform="translate(-384.57 -525.8)">
  <g transform="matrix(.71429 0 0 .71429 109.45 156.94)">
   <rect x="386.57" y="517.8" width="28" height="28" rx="14" fill="url(#linearGradient4149)"/>
   <g transform="matrix(.66347 .17778 -.17778 .66347 222.62 111.64)" stroke-opacity=".55027" stroke-width="2.8">
    <path transform="translate(384.57 499.8)" d="m24 8c-8.864 0-16 7.136-16 16h16z" clip-path="url(#clipPath4534)" fill="url(#linearGradient4274)"/>
    <path d="m408.57 539.8c-8.864 0-16-7.136-16-16h16z" clip-path="url(#clipPath4584)" fill="url(#linearGradient4278)"/>
    <path d="m408.57 507.8c8.864 0 16 7.136 16 16h-16z" clip-path="url(#clipPath4550)" fill="url(#linearGradient4284)"/>
    <path d="m408.57 539.8c8.864 0 16-7.136 16-16h-16z" clip-path="url(#clipPath4568)" fill="url(#linearGradient4286)"/>
   </g>
   <g transform="matrix(.68688 0 0 .68688 119.93 172.01)" opacity=".7" stroke-opacity=".55027" stroke-width="2.8">
    <path transform="translate(384.57 499.8)" d="m24 8c-8.864 0-16 7.136-16 16h16z" clip-path="url(#clipPath4528)" fill="url(#linearGradient4274)" filter="url(#filter4390)" opacity="1"/>
    <path d="m408.57 539.8c-8.864 0-16-7.136-16-16h16z" clip-path="url(#clipPath4578)" fill="url(#linearGradient4278)" filter="url(#filter4390)" opacity="1"/>
    <path d="m408.57 539.8c8.864 0 16-7.136 16-16h-16z" clip-path="url(#clipPath4562)" fill="url(#linearGradient4286)" filter="url(#filter4390)" opacity="1"/>
    <path d="m408.57 507.8c8.864 0 16 7.136 16 16h-16z" clip-path="url(#clipPath4544)" fill="url(#linearGradient4284)" filter="url(#filter4390)" opacity="1"/>
   </g>
   <path transform="matrix(.48569 .48569 -.48569 .48569 400.57 508.48)" d="m24 8c-8.864 0-16 7.136-16 16h16z" clip-path="url(#clipPath4528)" fill="url(#linearGradient4274)" opacity=".35" stroke-opacity=".55027" stroke-width="2.8"/>
   <path transform="matrix(.48569 .48569 -.48569 .48569 456.54 78.951)" d="m408.57 539.8c-8.864 0-16-7.136-16-16h16z" clip-path="url(#clipPath4578)" fill="url(#linearGradient4278)" opacity=".35" stroke-opacity=".55027" stroke-width="2.8"/>
   <path transform="matrix(.48569 .48569 -.48569 .48569 456.54 78.951)" d="m408.57 539.8c8.864 0 16-7.136 16-16h-16z" clip-path="url(#clipPath4562)" fill="url(#linearGradient4286)" opacity=".35" stroke-opacity=".55027" stroke-width="2.8"/>
   <path transform="matrix(.48569 .48569 -.48569 .48569 456.54 78.951)" d="m408.57 507.8c8.864 0 16 7.136 16 16h-16z" clip-path="url(#clipPath4544)" fill="url(#linearGradient4284)" opacity=".35" stroke-opacity=".55027" stroke-width="2.8"/>
   <g transform="matrix(.17778 .66347 -.66347 .17778 675.46 167.6)" stroke-opacity=".55027" stroke-width="2.8">
    <path transform="translate(384.57 499.8)" d="m24 8c-8.864 0-16 7.136-16 16h16z" clip-path="url(#clipPath4528-1)" fill="url(#linearGradient4274)" opacity=".3"/>
    <path transform="translate(-6e-6,1e-5)" d="m408.57 539.8c-8.864 0-16-7.136-16-16h16z" clip-path="url(#clipPath4578-8)" fill="url(#linearGradient4278)" opacity=".3"/>
    <path transform="translate(-6e-6,1e-5)" d="m408.57 539.8c8.864 0 16-7.136 16-16h-16z" clip-path="url(#clipPath4562-8)" fill="url(#linearGradient4286)" opacity=".3"/>
    <path transform="translate(-6e-6,1e-5)" d="m408.57 507.8c8.864 0 16 7.136 16 16h-16z" clip-path="url(#clipPath4544-1)" fill="url(#linearGradient4284)" opacity=".3"/>
   </g>
   <path transform="translate(384.57 515.8)" d="m18.699 13-5.3496 6 9.3203 9.3203c2.4018-1.2982 4.3739-3.278 5.666-5.6836z" fill="url(#linearGradient4499)" fill-rule="evenodd" opacity=".2"/>
   <rect transform="scale(1,-1)" x="396.57" y="-535.8" width="8" height="8" rx="4" fill="url(#linearGradient4314)" stroke-opacity=".55027" stroke-width="2.8"/>
   <path d="m399.57 532.8 1-2 0.99999 2z" fill="url(#linearGradient4917)" fill-rule="evenodd"/>
  </g>
 </g>
</svg>
