<?xml version="1.0" encoding="UTF-8" standalone="no"?>
<svg
   xmlns:dc="http://purl.org/dc/elements/1.1/"
   xmlns:cc="http://creativecommons.org/ns#"
   xmlns:rdf="http://www.w3.org/1999/02/22-rdf-syntax-ns#"
   xmlns:svg="http://www.w3.org/2000/svg"
   xmlns="http://www.w3.org/2000/svg"
   xmlns:sodipodi="http://sodipodi.sourceforge.net/DTD/sodipodi-0.dtd"
   xmlns:inkscape="http://www.inkscape.org/namespaces/inkscape"
   viewBox="0 0 702.74309 133.70216"
   version="1.1"
   id="svg14"
   sodipodi:docname="aiidalab_logo.svg"
   inkscape:version="0.92.3 (2405546, 2018-03-11)"
   width="702.7431"
   height="133.70216">
  <metadata
     id="metadata18">
    <rdf:RDF>
      <cc:Work
         rdf:about="">
        <dc:format>image/svg+xml</dc:format>
        <dc:type
           rdf:resource="http://purl.org/dc/dcmitype/StillImage" />
        <dc:title>BLEU-fond-transparent-2</dc:title>
      </cc:Work>
    </rdf:RDF>
  </metadata>
  <sodipodi:namedview
     pagecolor="#ffffff"
     bordercolor="#666666"
     borderopacity="1"
     objecttolerance="10"
     gridtolerance="10"
     guidetolerance="10"
     inkscape:pageopacity="0"
     inkscape:pageshadow="2"
     inkscape:window-width="2560"
     inkscape:window-height="1337"
     id="namedview16"
     showgrid="false"
     inkscape:zoom="1.9781555"
     inkscape:cx="329.98388"
     inkscape:cy="25.198267"
     inkscape:window-x="0"
     inkscape:window-y="55"
     inkscape:window-maximized="1"
     inkscape:current-layer="svg14"
     fit-margin-top="2"
     fit-margin-left="2"
     fit-margin-right="2"
     fit-margin-bottom="2" />
  <defs
     id="defs4">
    <style
       id="style2">.cls-1{fill:#fff;}.cls-2{fill:#f8e14b;}</style>
    <clipPath
       id="clipPath4224"
       clipPathUnits="userSpaceOnUse">
      <rect
         style="opacity:1;fill:#ffffff;fill-opacity:1;stroke:none;stroke-width:0.5;stroke-linecap:square;stroke-linejoin:miter;stroke-miterlimit:4;stroke-dasharray:none;stroke-dashoffset:0;stroke-opacity:1"
         id="rect4226"
         width="1548.5715"
         height="934.28571"
         x="-691.42859"
         y="-941.92352" />
    </clipPath>
    <clipPath
       id="clipPath4230"
       clipPathUnits="userSpaceOnUse">
      <rect
         y="-590.40851"
         x="-979.91364"
         height="1051.2557"
         width="1825.5415"
         id="rect4232"
         style="opacity:1;fill:#ffffff;fill-opacity:1;stroke:#000000;stroke-width:0.67285109;stroke-linecap:square;stroke-linejoin:miter;stroke-miterlimit:4;stroke-dasharray:none;stroke-dashoffset:0;stroke-opacity:1" />
    </clipPath>
    <clipPath
       id="clipPath4250"
       clipPathUnits="userSpaceOnUse">
      <rect
         y="-937.26233"
         x="-277.13654"
         height="393.91031"
         width="888.41724"
         id="rect4252"
         style="opacity:1;fill:#ffffff;fill-opacity:1;stroke:none;stroke-width:20;stroke-linecap:square;stroke-linejoin:miter;stroke-miterlimit:4;stroke-dasharray:none;stroke-dashoffset:0;stroke-opacity:1" />
    </clipPath>
    <clipPath
       id="clipPath4262"
       clipPathUnits="userSpaceOnUse">
      <rect
         y="-663.26282"
         x="-640"
         height="696.875"
         width="1490.625"
         id="rect4264"
         style="opacity:1;fill:#ffffff;fill-opacity:1;stroke:none;stroke-width:20;stroke-linecap:square;stroke-linejoin:miter;stroke-miterlimit:4;stroke-dasharray:none;stroke-dashoffset:0;stroke-opacity:1" />
    </clipPath>
    <clipPath
       id="clipPath4341"
       clipPathUnits="userSpaceOnUse">
      <rect
         y="-610.65808"
         x="-556.14594"
         height="576.05365"
         width="1389.6031"
         id="rect4343"
         style="opacity:1;fill:#ffffff;fill-opacity:1;stroke:none;stroke-width:20;stroke-linecap:square;stroke-linejoin:miter;stroke-miterlimit:4;stroke-dasharray:none;stroke-dashoffset:0;stroke-opacity:1" />
    </clipPath>
    <clipPath
       id="clipPath4224-7"
       clipPathUnits="userSpaceOnUse">
      <rect
         style="opacity:1;fill:#ffffff;fill-opacity:1;stroke:none;stroke-width:0.5;stroke-linecap:square;stroke-linejoin:miter;stroke-miterlimit:4;stroke-dasharray:none;stroke-dashoffset:0;stroke-opacity:1"
         id="rect4226-5"
         width="1548.5715"
         height="934.28571"
         x="-691.42859"
         y="-941.92352" />
    </clipPath>
    <clipPath
       id="clipPath4230-3"
       clipPathUnits="userSpaceOnUse">
      <rect
         y="-590.40851"
         x="-979.91364"
         height="1051.2557"
         width="1825.5415"
         id="rect4232-5"
         style="opacity:1;fill:#ffffff;fill-opacity:1;stroke:#000000;stroke-width:0.67285109;stroke-linecap:square;stroke-linejoin:miter;stroke-miterlimit:4;stroke-dasharray:none;stroke-dashoffset:0;stroke-opacity:1" />
    </clipPath>
    <clipPath
       id="clipPath4250-6"
       clipPathUnits="userSpaceOnUse">
      <rect
         y="-937.26233"
         x="-277.13654"
         height="393.91031"
         width="888.41724"
         id="rect4252-2"
         style="opacity:1;fill:#ffffff;fill-opacity:1;stroke:none;stroke-width:20;stroke-linecap:square;stroke-linejoin:miter;stroke-miterlimit:4;stroke-dasharray:none;stroke-dashoffset:0;stroke-opacity:1" />
    </clipPath>
    <clipPath
       id="clipPath4262-9"
       clipPathUnits="userSpaceOnUse">
      <rect
         y="-663.26282"
         x="-640"
         height="696.875"
         width="1490.625"
         id="rect4264-1"
         style="opacity:1;fill:#ffffff;fill-opacity:1;stroke:none;stroke-width:20;stroke-linecap:square;stroke-linejoin:miter;stroke-miterlimit:4;stroke-dasharray:none;stroke-dashoffset:0;stroke-opacity:1" />
    </clipPath>
    <clipPath
       id="clipPath4341-2"
       clipPathUnits="userSpaceOnUse">
      <rect
         y="-610.65808"
         x="-556.14594"
         height="576.05365"
         width="1389.6031"
         id="rect4343-7"
         style="opacity:1;fill:#ffffff;fill-opacity:1;stroke:none;stroke-width:20;stroke-linecap:square;stroke-linejoin:miter;stroke-miterlimit:4;stroke-dasharray:none;stroke-dashoffset:0;stroke-opacity:1" />
    </clipPath>
  </defs>
  <title
     id="title6">BLEU-fond-transparent-2</title>
  <g
     id="g900"
     transform="matrix(1.2297185,0,0,1.2297185,-66.388654,-206.4612)">
    <text
       id="text2119"
       y="266.49448"
       x="463.10162"
       style="font-style:normal;font-weight:normal;font-size:109.12326813px;line-height:1.25em;font-family:sans-serif;letter-spacing:0px;word-spacing:0px;fill:#ff0000;fill-opacity:1;stroke:none;stroke-width:5.11515236px;stroke-linecap:butt;stroke-linejoin:miter;stroke-opacity:1"
       xml:space="preserve"><tspan
         style="font-style:normal;font-variant:normal;font-weight:500;font-stretch:normal;font-family:Futura;-inkscape-font-specification:'Futura Medium';fill:#b3b3b3;stroke:none;stroke-width:5.11515236px"
         y="266.49448"
         x="463.10162"
         id="tspan2117"
         sodipodi:role="line">lab</tspan></text>
    <path
       inkscape:connector-curvature="0"
       id="path4-9"
       d="m 111.19966,174.75593 c -0.80746,0 -1.61427,-6.4e-4 -2.33201,0.0891 l -0.35922,4.5764 c -2.15321,0.26915 -4.12775,0.80757 -6.01181,1.61502 l -2.600692,-3.67835 c -1.435476,0.62802 -2.781527,1.43484 -4.037568,2.33201 l 1.883712,4.12664 c -1.704629,1.25604 -3.140105,2.78188 -4.485863,4.39679 l -4.037569,-1.88371 c -0.897173,1.25604 -1.703986,2.60209 -2.332006,4.03757 l 3.678348,2.60069 c -0.807455,1.88406 -1.345874,3.94767 -1.615027,6.10089 l -4.485862,0.35922 c -0.179434,0.62802 -0.17961,1.43547 -0.17961,2.24293 0,0.80745 -6.42e-4,1.61427 0.08908,2.332 l 4.485863,0.35922 c 0.269152,2.15322 0.807573,4.21683 1.615027,6.10089 l -3.678349,2.60215 c 0.628021,1.43548 1.436293,2.78153 2.333466,4.03757 l 4.037569,-1.88517 c 1.256042,1.70463 2.781234,3.14075 4.485863,4.39679 l -1.885172,4.12664 c 1.256041,0.89717 2.602093,1.70545 4.037569,2.33347 l 2.602151,-3.67835 c 1.88406,0.80745 3.94686,1.34587 6.01035,1.61503 l 0.35923,4.57493 h 2.42254 c 0.80745,0 1.61427,6.5e-4 2.332,-0.0891 l 0.35922,-4.57639 c 2.0635,-0.26915 4.12776,-0.80758 6.01182,-1.61503 l 2.60069,3.76888 c 1.43547,-0.62802 2.78153,-1.43629 4.03757,-2.33346 l -1.88371,-4.21572 c 1.70462,-1.25605 3.14074,-2.69216 4.39678,-4.39679 l 4.12665,1.97424 c 0.89717,-1.25604 1.70398,-2.60209 2.332,-4.03756 l -3.67835,-2.60216 c 0.80746,-1.88406 1.34588,-3.94685 1.61503,-6.01035 l 4.5764,-0.44975 c 0.0897,-0.71774 0.0891,-1.52455 0.0891,-2.33201 0,-0.80746 6.4e-4,-1.61427 -0.0891,-2.33201 l -4.5764,-0.35921 c -0.26915,-2.15322 -0.80758,-4.12776 -1.61503,-6.01182 l 3.76888,-2.60069 c -0.62802,-1.43547 -1.43629,-2.78152 -2.33346,-4.03757 l -4.12665,1.88372 c -1.25604,-1.70463 -2.78188,-3.14075 -4.39679,-4.39679 l 1.97425,-4.12664 c -1.25604,-0.89717 -2.60209,-1.70399 -4.03757,-2.33201 l -2.69123,3.67835 c -1.88406,-0.80745 -3.94685,-1.34587 -6.01035,-1.61502 l -0.35922,-4.5764 c -0.80746,-0.0897 -1.61509,-0.0891 -2.42254,-0.0891 z m -8.4256,14.0081 7.52755,4.34276 7.52462,4.34714 -4.60852,2.66202 6.40754,11.09784 -5.83366,3.36439 -6.40608,-11.09491 -4.60999,2.66202 v -8.69282 z"
       style="fill:#ff7d17;stroke-width:0.89717251" />
    <path
       inkscape:connector-curvature="0"
       id="path8-9"
       d="m 153.62185,220.47222 -2.98059,3.49038 c -1.90019,-1.04788 -3.8129,-1.77207 -5.81176,-2.22622 l 0.0577,-4.50606 c -1.53047,-0.33567 -3.09407,-0.47264 -4.63757,-0.48509 l -0.90269,4.44599 c -2.11736,0.0142 -4.17453,0.40478 -6.21249,0.92025 l -2.1592,-3.89766 c -1.46411,0.48881 -2.90749,1.10306 -4.25932,1.89524 l 1.44653,4.26696 c -1.76067,1.04962 -3.40948,2.40194 -4.89286,3.98573 l -3.84054,-2.34547 c -0.5143,0.40261 -0.98814,1.05481 -1.46275,1.70806 -0.47461,0.65324 -0.94913,1.30666 -1.29842,1.94006 l 3.41831,2.92792 c -1.04788,1.90019 -1.82526,3.88632 -2.27944,5.88517 l -4.50603,-0.0577 c -0.33567,1.53047 -0.47264,3.09407 -0.4851,4.63757 l 4.37309,0.84812 c 0.0142,2.11735 0.40421,4.175 1.045,6.19311 l -3.94899,2.2318 c 0.48882,1.46411 1.10254,2.90885 1.89472,4.26068 l 4.26696,-1.44653 c 1.04962,1.76067 2.403,3.40817 3.91419,4.83881 l -2.40004,3.91344 1.95944,1.42317 c 0.65324,0.4746 1.30666,0.94913 1.94006,1.29841 l 2.9806,-3.49037 c 1.82761,0.99515 3.8129,1.77208 5.8118,2.22614 l -0.11033,4.57808 c 1.53046,0.33567 3.09406,0.47264 4.63756,0.4851 l 0.95538,-4.51805 c 2.11736,-0.0142 4.12232,-0.33215 6.14043,-0.97294 l 2.17805,4.02377 c 1.46411,-0.48881 2.90801,-1.10442 4.25985,-1.8966 l -1.44654,-4.26696 c 1.76067,-1.04963 3.40953,-2.40247 4.84018,-3.91367 l 3.96476,2.32745 c 0.49446,-0.52792 0.96929,-1.18092 1.44391,-1.83416 0.4746,-0.65325 0.94912,-1.30667 1.29841,-1.94007 l -3.49037,-2.9806 c 1.04788,-1.90019 1.77207,-3.81289 2.22613,-5.81179 l 4.57809,0.11034 c 0.33569,-1.53046 0.47263,-3.09406 0.48509,-4.63757 l -4.44462,-0.90217 c -0.0142,-2.11735 -0.40474,-4.17505 -0.97295,-6.14042 l 4.02241,-2.17858 c -0.48881,-1.4641 -1.10305,-2.90749 -1.89524,-4.25932 l -4.34038,1.39332 c -1.04963,-1.76067 -2.40248,-3.40953 -3.91368,-4.84017 l 2.39952,-3.91208 c -0.60044,-0.54704 -1.25291,-1.02183 -1.90616,-1.49644 -0.65324,-0.47461 -1.30666,-0.94913 -1.94007,-1.29843 z m -14.91175,14.13989 7.53359,4.33518 7.53068,4.33372 -7.51856,4.35617 -7.52148,4.35471 -0.007,-5.32258 -12.81507,0.0179 -0.007,-6.73317 12.81216,-0.0179 z"
       style="fill:#0096de;stroke-width:0.89717251"
       sodipodi:nodetypes="ccccccccccccsccccccccccccccccccccccccccccccccccccccsccccccccccc" />
    <path
       inkscape:connector-curvature="0"
       id="path1073-6"
       d="m 77.09876,217.24073 0.201908,4.58492 c -2.104362,0.52955 -3.998479,1.30492 -5.770082,2.336 l -3.030945,-3.33482 c -1.348239,0.79829 -2.585195,1.76449 -3.722537,2.80804 l 2.373324,3.86668 c -1.53885,1.45442 -2.778346,3.1436 -3.917265,4.91048 l -4.235987,-1.37854 c -0.737406,1.35603 -1.375467,2.79019 -1.823866,4.2915 l 3.967984,2.13412 c -0.571827,1.96842 -0.854059,4.08139 -0.858793,6.25136 l -4.408398,0.90387 c -0.10156,0.64521 -0.0033,1.44535 0.0951,2.24679 0.0984,0.80144 0.195641,1.60349 0.372159,2.30494 l 4.49683,-0.18994 c 0.529556,2.10436 1.315553,4.0871 2.346603,5.85872 l -3.333462,3.0304 c 0.79828,1.34824 1.763126,2.58574 2.806684,3.72308 l 3.778042,-2.36271 c 1.454421,1.53885 3.142968,2.77773 4.987961,3.81667 l -1.367387,4.32597 c 1.356015,0.73741 2.790176,1.37547 4.291487,1.82387 l 2.13412,-3.96799 c 1.968425,0.57184 4.081805,0.85374 6.162725,0.86941 l 0.915034,4.49839 2.403638,-0.29549 c 0.801435,-0.0984 1.602939,-0.197 2.304391,-0.37352 l -0.201907,-4.58492 c 2.015314,-0.51862 3.998482,-1.30492 5.770047,-2.33609 l 3.041556,3.42345 c 1.348239,-0.79828 2.585194,-1.76448 3.722536,-2.80804 l -2.383903,-3.95523 c 1.538847,-1.45442 2.788343,-3.05434 3.827283,-4.89933 l 4.33713,1.45738 c 0.73741,-1.35602 1.37492,-2.79153 1.82332,-4.29285 l -3.96798,-2.13412 c 0.57182,-1.96842 0.85373,-4.0818 0.8694,-6.16272 l 4.48832,-1.00231 c 0.002,-0.72333 -0.0978,-1.52418 -0.19625,-2.32562 -0.0984,-0.80144 -0.19563,-1.60349 -0.37215,-2.30494 l -4.58682,0.2011 c -0.52956,-2.10436 -1.30303,-3.99767 -2.33405,-5.7693 l 3.4221,-3.04101 c -0.79826,-1.34824 -1.76313,-2.58574 -2.80668,-3.72308 l -3.867226,2.37197 c -1.454422,-1.53885 -3.143383,-2.77741 -4.89933,-3.82728 l 1.456022,-4.33658 c -1.356017,-0.73742 -2.78963,-1.37412 -4.290943,-1.82252 l -2.222752,3.97859 c -1.968426,-0.57182 -4.082356,-0.85509 -6.163274,-0.87075 l -0.913134,-4.49758 c -0.81237,0.009 -1.614713,0.10765 -2.416151,0.20605 -0.801435,0.0984 -1.602938,0.19699 -2.304393,0.37351 z m 9.441859,13.23592 5.661222,3.64648 -6.934508,10.77254 4.47741,2.88312 -7.728664,3.97701 -7.725676,3.97569 0.418215,-8.67982 0.421332,-8.68114 4.474562,2.88151 z"
       style="fill:#30b808;stroke-width:0.89717251"
       sodipodi:nodetypes="ccccccccccccscccccccccccccccccccccccccsccccccccccccscccccccccccc" />
    <g
       transform="matrix(2.8111054,0,0,2.8111054,14.36633,147.0998)"
       id="g1320">
      <g
         transform="translate(-1.8975454,-46.168538)"
         id="g1330">
        <path
           id="path9-7"
           d="m 79.002,77.733 h -10.63 l 5.315,-12.099 z m 1.547,3.411 3.412,7.497 h 4.006 L 73.687,57.463 59.407,88.641 h 4.006 l 3.412,-7.497 z"
           inkscape:connector-curvature="0" />
        <rect
           id="rect11-9"
           height="18.563999"
           width="3.5710001"
           y="70.077003"
           x="90.862999" />
        <rect
           id="rect13-3"
           height="18.563999"
           width="3.5699999"
           y="70.077003"
           x="100.938" />
        <rect
           id="rect15-8"
           height="18.563999"
           width="3.5699999"
           y="70.077003"
           x="100.938" />
        <path
           sodipodi:nodetypes="cccccccccscccccccccc"
           inkscape:connector-curvature="0"
           id="path17-0"
           d="m 114.584,70.077 h -3.57 v 15.152 3.412 h 3.57 2.499 c 1.96114,0.02078 3.59163,-0.20017 5.382,-0.514 4.896,-1.142 8.915,-4.008 10.65,-8.853 1.747,-4.854 0.97,-11.409 -2.399,-15.254 -3.467,-3.978 -8.521,-5.221 -13.633,-5.221 h -6.069 v 3.412 c 1.68,0 3.359,0 5.038,0 3.988,-0.017 8.487,0.775 11.397,3.729 2.938,2.982 3.51,8.453 2.057,12.281 -1.521,4.008 -5.006,5.92 -9.051,6.645 -1.408,0.245 -2.869,0.37 -4.403,0.363 h -1.309 -0.159 z" />
        <path
           id="path19-2"
           d="m 152.692,77.733 h -10.631 l 5.315,-12.099 z m 1.547,3.411 3.411,7.497 h 4.007 l -14.28,-31.178 -14.28,31.178 h 4.007 l 3.411,-7.497 z"
           inkscape:connector-curvature="0" />
        <path
           id="path21-4"
           d="m 92.648,59.027 c 1.293,0 2.342,1.049 2.342,2.342 0,1.293 -1.049,2.342 -2.342,2.342 -1.293,0 -2.342,-1.048 -2.342,-2.342 0,-1.294 1.048,-2.342 2.342,-2.342"
           inkscape:connector-curvature="0"
           style="clip-rule:evenodd;fill-rule:evenodd" />
        <path
           id="path23-8"
           d="m 102.724,59.027 c 1.293,0 2.342,1.049 2.342,2.342 0,1.293 -1.049,2.342 -2.342,2.342 -1.294,0 -2.342,-1.048 -2.342,-2.342 0,-1.294 1.048,-2.342 2.342,-2.342"
           inkscape:connector-curvature="0"
           style="clip-rule:evenodd;fill-rule:evenodd" />
      </g>
    </g>
  </g>
</svg>
