<?xml version="1.0" encoding="UTF-8" standalone="no"?>
<svg
   xmlns:dc="http://purl.org/dc/elements/1.1/"
   xmlns:cc="http://creativecommons.org/ns#"
   xmlns:rdf="http://www.w3.org/1999/02/22-rdf-syntax-ns#"
   xmlns:svg="http://www.w3.org/2000/svg"
   xmlns="http://www.w3.org/2000/svg"
   xmlns:sodipodi="http://sodipodi.sourceforge.net/DTD/sodipodi-0.dtd"
   xmlns:inkscape="http://www.inkscape.org/namespaces/inkscape"
   viewBox="0 0 140.23042 121.85134"
   version="1.1"
   id="svg14"
   sodipodi:docname="favicon.svg"
   inkscape:version="0.92.3 (2405546, 2018-03-11)"
   width="140.23042"
   height="121.85134">
  <metadata
     id="metadata18">
    <rdf:RDF>
      <cc:Work
         rdf:about="">
        <dc:format>image/svg+xml</dc:format>
        <dc:type
           rdf:resource="http://purl.org/dc/dcmitype/StillImage" />
        <dc:title>BLEU-fond-transparent-2</dc:title>
      </cc:Work>
    </rdf:RDF>
  </metadata>
  <sodipodi:namedview
     pagecolor="#ffffff"
     bordercolor="#666666"
     borderopacity="1"
     objecttolerance="10"
     gridtolerance="10"
     guidetolerance="10"
     inkscape:pageopacity="0"
     inkscape:pageshadow="2"
     inkscape:window-width="2560"
     inkscape:window-height="1392"
     id="namedview16"
     showgrid="false"
     inkscape:zoom="1.9781555"
     inkscape:cx="132.8965"
     inkscape:cy="20.406149"
     inkscape:window-x="2560"
     inkscape:window-y="0"
     inkscape:window-maximized="1"
     inkscape:current-layer="svg14"
     fit-margin-top="2"
     fit-margin-left="2"
     fit-margin-right="2"
     fit-margin-bottom="2" />
  <defs
     id="defs4">
    <style
       id="style2">.cls-1{fill:#fff;}.cls-2{fill:#f8e14b;}</style>
    <clipPath
       id="clipPath4224"
       clipPathUnits="userSpaceOnUse">
      <rect
         style="opacity:1;fill:#ffffff;fill-opacity:1;stroke:none;stroke-width:0.5;stroke-linecap:square;stroke-linejoin:miter;stroke-miterlimit:4;stroke-dasharray:none;stroke-dashoffset:0;stroke-opacity:1"
         id="rect4226"
         width="1548.5715"
         height="934.28571"
         x="-691.42859"
         y="-941.92352" />
    </clipPath>
    <clipPath
       id="clipPath4230"
       clipPathUnits="userSpaceOnUse">
      <rect
         y="-590.40851"
         x="-979.91364"
         height="1051.2557"
         width="1825.5415"
         id="rect4232"
         style="opacity:1;fill:#ffffff;fill-opacity:1;stroke:#000000;stroke-width:0.67285109;stroke-linecap:square;stroke-linejoin:miter;stroke-miterlimit:4;stroke-dasharray:none;stroke-dashoffset:0;stroke-opacity:1" />
    </clipPath>
    <clipPath
       id="clipPath4250"
       clipPathUnits="userSpaceOnUse">
      <rect
         y="-937.26233"
         x="-277.13654"
         height="393.91031"
         width="888.41724"
         id="rect4252"
         style="opacity:1;fill:#ffffff;fill-opacity:1;stroke:none;stroke-width:20;stroke-linecap:square;stroke-linejoin:miter;stroke-miterlimit:4;stroke-dasharray:none;stroke-dashoffset:0;stroke-opacity:1" />
    </clipPath>
    <clipPath
       id="clipPath4262"
       clipPathUnits="userSpaceOnUse">
      <rect
         y="-663.26282"
         x="-640"
         height="696.875"
         width="1490.625"
         id="rect4264"
         style="opacity:1;fill:#ffffff;fill-opacity:1;stroke:none;stroke-width:20;stroke-linecap:square;stroke-linejoin:miter;stroke-miterlimit:4;stroke-dasharray:none;stroke-dashoffset:0;stroke-opacity:1" />
    </clipPath>
    <clipPath
       id="clipPath4341"
       clipPathUnits="userSpaceOnUse">
      <rect
         y="-610.65808"
         x="-556.14594"
         height="576.05365"
         width="1389.6031"
         id="rect4343"
         style="opacity:1;fill:#ffffff;fill-opacity:1;stroke:none;stroke-width:20;stroke-linecap:square;stroke-linejoin:miter;stroke-miterlimit:4;stroke-dasharray:none;stroke-dashoffset:0;stroke-opacity:1" />
    </clipPath>
    <clipPath
       id="clipPath4224-7"
       clipPathUnits="userSpaceOnUse">
      <rect
         style="opacity:1;fill:#ffffff;fill-opacity:1;stroke:none;stroke-width:0.5;stroke-linecap:square;stroke-linejoin:miter;stroke-miterlimit:4;stroke-dasharray:none;stroke-dashoffset:0;stroke-opacity:1"
         id="rect4226-5"
         width="1548.5715"
         height="934.28571"
         x="-691.42859"
         y="-941.92352" />
    </clipPath>
    <clipPath
       id="clipPath4230-3"
       clipPathUnits="userSpaceOnUse">
      <rect
         y="-590.40851"
         x="-979.91364"
         height="1051.2557"
         width="1825.5415"
         id="rect4232-5"
         style="opacity:1;fill:#ffffff;fill-opacity:1;stroke:#000000;stroke-width:0.67285109;stroke-linecap:square;stroke-linejoin:miter;stroke-miterlimit:4;stroke-dasharray:none;stroke-dashoffset:0;stroke-opacity:1" />
    </clipPath>
    <clipPath
       id="clipPath4250-6"
       clipPathUnits="userSpaceOnUse">
      <rect
         y="-937.26233"
         x="-277.13654"
         height="393.91031"
         width="888.41724"
         id="rect4252-2"
         style="opacity:1;fill:#ffffff;fill-opacity:1;stroke:none;stroke-width:20;stroke-linecap:square;stroke-linejoin:miter;stroke-miterlimit:4;stroke-dasharray:none;stroke-dashoffset:0;stroke-opacity:1" />
    </clipPath>
    <clipPath
       id="clipPath4262-9"
       clipPathUnits="userSpaceOnUse">
      <rect
         y="-663.26282"
         x="-640"
         height="696.875"
         width="1490.625"
         id="rect4264-1"
         style="opacity:1;fill:#ffffff;fill-opacity:1;stroke:none;stroke-width:20;stroke-linecap:square;stroke-linejoin:miter;stroke-miterlimit:4;stroke-dasharray:none;stroke-dashoffset:0;stroke-opacity:1" />
    </clipPath>
    <clipPath
       id="clipPath4341-2"
       clipPathUnits="userSpaceOnUse">
      <rect
         y="-610.65808"
         x="-556.14594"
         height="576.05365"
         width="1389.6031"
         id="rect4343-7"
         style="opacity:1;fill:#ffffff;fill-opacity:1;stroke:none;stroke-width:20;stroke-linecap:square;stroke-linejoin:miter;stroke-miterlimit:4;stroke-dasharray:none;stroke-dashoffset:0;stroke-opacity:1" />
    </clipPath>
  </defs>
  <title
     id="title6">BLEU-fond-transparent-2</title>
  <g
     id="g892"
     transform="translate(150.39942,-137.98876)">
    <path
       inkscape:connector-curvature="0"
       id="path4-9"
       d="m -80.311881,139.98878 c -0.992948,0 -1.985098,-7.8e-4 -2.867716,0.10957 l -0.441739,5.62768 c -2.647842,0.33098 -5.075971,0.99309 -7.392834,1.98602 l -3.198119,-4.52333 c -1.765232,0.77229 -3.420495,1.76445 -4.965072,2.86772 l 2.316435,5.0746 c -2.096214,1.54458 -3.861444,3.42093 -5.516344,5.40682 l -4.96508,-2.31644 c -1.10327,1.54458 -2.09542,3.19984 -2.86771,4.96508 l 4.52333,3.19811 c -0.99294,2.31687 -1.65504,4.85453 -1.98602,7.50238 l -5.51635,0.44174 c -0.22066,0.77229 -0.22087,1.76522 -0.22087,2.75817 0,0.99294 -7.9e-4,1.9851 0.10954,2.86771 l 5.51635,0.44174 c 0.33098,2.64785 0.99309,5.18551 1.98603,7.50237 l -4.52334,3.19991 c 0.77229,1.76524 1.76624,3.4205 2.86951,4.96508 l 4.96507,-2.31823 c 1.54458,2.09622 3.420139,3.86224 5.516353,5.40681 l -2.318231,5.07461 c 1.544577,1.10327 3.199842,2.09722 4.965074,2.86951 l 3.199913,-4.52333 c 2.316863,0.99293 4.853527,1.65504 7.391038,1.98603 l 0.441752,5.62587 h 2.979042 c 0.992937,0 1.985098,8e-4 2.867704,-0.10956 l 0.441739,-5.62767 c 2.537525,-0.33098 5.075983,-0.9931 7.392847,-1.98604 l 3.198116,4.63466 c 1.765224,-0.77228 3.420499,-1.76623 4.965075,-2.86949 l -2.316433,-5.18415 c 2.096203,-1.54459 3.862226,-3.3106 5.406801,-5.40682 l 5.074618,2.42776 c 1.103267,-1.54457 2.095416,-3.19984 2.867704,-4.96506 l -4.523335,-3.19992 c 0.992948,-2.31687 1.655053,-4.85352 1.986032,-7.39104 l 5.627684,-0.55307 c 0.110306,-0.88262 0.109568,-1.87477 0.109568,-2.86771 0,-0.99295 7.87e-4,-1.9851 -0.109568,-2.86772 l -5.627684,-0.44173 c -0.330979,-2.64785 -0.993096,-5.07598 -1.986032,-7.39284 l 4.634661,-3.19812 c -0.772288,-1.76522 -1.766232,-3.42049 -2.869499,-4.96507 l -5.074617,2.31644 c -1.544576,-2.09621 -3.42093,-3.86224 -5.406814,-5.40681 l 2.427771,-5.07461 c -1.544575,-1.10327 -3.199838,-2.09543 -4.965074,-2.86771 l -3.309456,4.52333 c -2.316863,-0.99294 -4.853514,-1.65504 -7.391038,-1.98602 l -0.44174,-5.62768 c -0.992948,-0.11031 -1.986106,-0.10957 -2.979042,-0.10957 z m -10.361116,17.22602 9.256767,5.34038 9.253165,5.34575 -5.667182,3.27354 7.87947,13.64722 -7.17376,4.13725 -7.877675,-13.64362 -5.66899,3.27354 v -10.68972 z"
       style="fill:#ff7d17;stroke-width:1.10326958" />
    <path
       inkscape:connector-curvature="0"
       id="path8-9"
       d="m -28.144529,196.20695 -3.665287,4.29219 c -2.336699,-1.2886 -4.688793,-2.17915 -7.146829,-2.73763 l 0.07096,-5.54118 c -1.882047,-0.41278 -3.804835,-0.58122 -5.702905,-0.59653 l -1.110055,5.46732 c -2.603757,0.0175 -5.133497,0.49776 -7.639614,1.13165 l -2.655208,-4.79303 c -1.800443,0.6011 -3.575394,1.35646 -5.237765,2.33061 l 1.778825,5.24716 c -2.165128,1.29074 -4.192701,2.95371 -6.01684,4.90133 l -4.722783,-2.88427 c -0.632445,0.4951 -1.215135,1.29712 -1.798771,2.10043 -0.583637,0.80331 -1.167163,1.60683 -1.596691,2.38573 l 4.203559,3.60052 c -1.288598,2.3367 -2.244556,4.77908 -2.80307,7.2371 l -5.541148,-0.071 c -0.41278,1.88204 -0.581214,3.80483 -0.596537,5.7029 l 5.37767,1.04295 c 0.01746,2.60375 0.497064,5.13408 1.285056,7.61578 l -4.856146,2.74449 c 0.601111,1.80044 1.355814,3.57707 2.329972,5.23944 l 5.24716,-1.77883 c 1.290737,2.16513 2.955013,4.19109 4.813351,5.95038 l -2.951373,4.81243 2.40956,1.75009 c 0.803301,0.58363 1.606823,1.16717 2.385727,1.59668 l 3.665299,-4.29217 c 2.247446,1.22375 4.688794,2.17916 7.146878,2.73753 l -0.135675,5.62975 c 1.882035,0.41277 3.804823,0.58121 5.702894,0.59653 l 1.174848,-5.55593 c 2.603757,-0.0175 5.069293,-0.40845 7.551,-1.19644 l 2.678389,4.9481 c 1.800443,-0.60109 3.576034,-1.35812 5.238416,-2.33228 l -1.778837,-5.24716 c 2.165129,-1.29075 4.192762,-2.95436 5.952059,-4.81271 l 4.875539,2.86211 c 0.608046,-0.6492 1.191954,-1.4522 1.775603,-2.2555 0.583624,-0.80332 1.16715,-1.60684 1.596678,-2.38574 l -4.292172,-3.6653 c 1.288597,-2.3367 2.179147,-4.68878 2.737513,-7.14687 l 5.629762,0.13569 c 0.412804,-1.88204 0.581202,-3.80482 0.596524,-5.70291 l -5.465631,-1.10941 c -0.01746,-2.60375 -0.497716,-5.13414 -1.196455,-7.55099 l 4.946432,-2.67904 c -0.601099,-1.80043 -1.356441,-3.57539 -2.330612,-5.23777 l -5.337445,1.7134 c -1.29075,-2.16513 -2.954374,-4.19277 -4.812725,-5.95205 l 2.950734,-4.81076 c -0.738372,-0.6727 -1.540726,-1.25656 -2.34404,-1.8402 -0.803301,-0.58363 -1.606824,-1.16716 -2.38574,-1.5967 z m -18.337255,17.38808 9.264195,5.33106 9.260617,5.32925 -9.245713,5.35686 -9.249303,5.35507 -0.0086,-6.54527 -15.758929,0.022 -0.0086,-8.2799 15.755351,-0.022 z"
       style="fill:#0096de;stroke-width:1.10326958"
       sodipodi:nodetypes="ccccccccccccsccccccccccccccccccccccccccccccccccccccsccccccccccc" />
    <path
       inkscape:connector-curvature="0"
       id="path1073-6"
       d="m -122.24639,192.23313 0.24829,5.63816 c -2.58777,0.6512 -4.917,1.60468 -7.09558,2.87262 l -3.7272,-4.10089 c -1.65796,0.98167 -3.17907,2.16983 -4.57768,3.4531 l 2.91852,4.75493 c -1.89235,1.78852 -3.41658,3.86574 -4.81713,6.03851 l -5.20907,-1.69522 c -0.9068,1.66753 -1.69144,3.43115 -2.24284,5.27734 l 4.8795,2.62436 c -0.70319,2.42061 -1.05025,5.01896 -1.05607,7.68742 l -5.42109,1.1115 c -0.12489,0.79343 -0.004,1.77738 0.11694,2.76292 0.12101,0.98555 0.24059,1.97184 0.45766,2.83443 l 5.52983,-0.23357 c 0.65121,2.58777 1.61776,5.02598 2.88566,7.20457 l -4.09922,3.72654 c 0.98166,1.65796 2.16815,3.17973 3.45143,4.57834 l 4.64593,-2.90547 c 1.78853,1.89236 3.86497,3.41583 6.13379,4.69343 l -1.6815,5.31973 c 1.66751,0.90681 3.43113,1.69144 5.27732,2.24285 l 2.62437,-4.87952 c 2.4206,0.70321 5.01947,1.04986 7.57841,1.06913 l 1.12524,5.53176 2.95579,-0.36337 c 0.98554,-0.12101 1.97117,-0.24226 2.83376,-0.45933 l -0.24829,-5.63816 c 2.47827,-0.63775 4.91701,-1.60468 7.09553,-2.87273 l 3.740259,4.20988 c 1.657955,-0.98166 3.179061,-2.16981 4.577672,-3.4531 l -2.93153,-4.86382 c 1.892349,-1.78853 3.428877,-3.75598 4.706481,-6.0248 l 5.333449,1.79217 c 0.906807,-1.66752 1.690764,-3.43279 2.24217,-5.279 l -4.879498,-2.62436 c 0.703177,-2.4206 1.049847,-5.01947 1.069117,-7.57841 l 5.51937,-1.23256 c 0.0025,-0.88949 -0.120266,-1.87431 -0.241332,-2.85986 -0.121004,-0.98555 -0.24057,-1.97184 -0.45764,-2.83443 l -5.640497,0.2473 c -0.65121,-2.58777 -1.60236,-4.91601 -2.870225,-7.09462 l 4.20822,-3.73958 c -0.981635,-1.65796 -2.168154,-3.17973 -3.451426,-4.57834 l -4.7556,2.91685 c -1.788529,-1.89235 -3.865476,-3.41543 -6.0248,-4.70647 l 1.790501,-5.33278 c -1.667521,-0.90682 -3.430461,-1.68978 -5.276651,-2.24118 l -2.73336,4.89254 c -2.42061,-0.70318 -5.02015,-1.05152 -7.57909,-1.07078 l -1.1229,-5.53075 c -0.99899,0.0111 -1.98564,0.13238 -2.97119,0.25338 -0.98554,0.12101 -1.97116,0.24224 -2.83375,0.45931 z m 11.61083,16.27645 6.96171,4.48415 -8.52749,13.24719 5.50595,3.54542 -9.50408,4.89061 -9.50041,4.88898 0.51429,-10.67374 0.51812,-10.67536 5.50245,3.54345 z"
       style="fill:#30b808;stroke-width:1.10326958"
       sodipodi:nodetypes="ccccccccccccscccccccccccccccccccccccccsccccccccccccscccccccccccc" />
  </g>
</svg>
