<?xml version="1.0" encoding="UTF-8"?>
<svg width="22" height="22" version="1.1" xmlns="http://www.w3.org/2000/svg">
 <g transform="translate(-326 -534.36)">
  <rect x="326.5" y="535.99" width="0" height="11" fill="#c4bb1b"/>
  <rect x="321.94" y="538.51" width="0" height="11" fill="#c4bb1b"/>
  <rect x="317.44" y="526.09" width="0" height="11" fill="#c4bb1b"/>
  <rect x="318.28" y="538.32" width="0" height="11" fill="#c4bb1b"/>
  <rect x="313.73" y="540.84" width="0" height="11" fill="#c4bb1b"/>
  <rect x="309.22" y="528.43" width="0" height="11" fill="#c4bb1b"/>
  <path d="m327 537.36v1.2308 0.61538 1.8462 0.2524 0.36058 8.988 0.2452 1.2308 0.51683 0.71394h20v-0.84616-0.38461-14.769h-1.25-13.75-0.62989-0.57128-1.9238-0.625zm1.25 1.2308h2.3901a1.875 1.8462 0 0 1 0.10987 0.61538 1.875 1.8462 0 0 1-1.875 1.8462 1.875 1.8462 0 0 1-0.625-0.10818v-2.3534zm3.6841 0h0.0659 13.75v13.538h-17.5v-0.089-0.10818-0.76682l2.9077-2.8293 1.7602-1.7284 1.9556 1.7452 1.377 1.3149 4.4995-4.1827 3.75 3.5577v-1.8366l-3.75-3.6923-4.4995 4.4303-3.2495-3.1995-4.751 4.6779v-7.2043a3.125 3.0769 0 0 0 0.625 0.0649 3.125 3.0769 0 0 0 3.125-3.0769 3.125 3.0769 0 0 0-0.0659-0.61539z" color="#000000" color-rendering="auto" fill="#232629" image-rendering="auto" shape-rendering="auto" solid-color="#000000" style="isolation:auto;mix-blend-mode:normal"/>
 </g>
</svg>
