<?xml version="1.0" encoding="UTF-8" standalone="no"?>
<svg
   xmlns:dc="http://purl.org/dc/elements/1.1/"
   xmlns:cc="http://creativecommons.org/ns#"
   xmlns:rdf="http://www.w3.org/1999/02/22-rdf-syntax-ns#"
   xmlns:svg="http://www.w3.org/2000/svg"
   xmlns="http://www.w3.org/2000/svg"
   width="702"
   height="128"
   viewBox="0 0 185.73749 33.866667"
   version="1.1"
   id="svg8">
  <defs
     id="defs2" />
  <metadata
     id="metadata5">
    <rdf:RDF>
      <cc:Work
         rdf:about="">
        <dc:format>image/svg+xml</dc:format>
        <dc:type
           rdf:resource="http://purl.org/dc/dcmitype/StillImage" />
        <dc:title></dc:title>
      </cc:Work>
    </rdf:RDF>
  </metadata>
  <g
     id="layer1"
     style="fill:#ffffff"
     transform="matrix(0.27586206,0,0,0.27586205,-1.7517243,-1.7517235)">
    <path
       id="path14"
       style="fill:#ffffff;stroke-width:0.0125286"
       d="M 67.745882,6.3499992 C 66.52916,6.349846 65.312607,6.4521951 65.037005,6.6564421 64.725068,6.8719502 64.437064,7.9753557 63.95852,10.780738 l -0.647503,3.836974 -2.038635,0.264066 c -1.127462,0.167901 -2.277117,0.312125 -2.541443,0.312125 -0.43094,0.02384 -0.742787,-0.527711 -2.038118,-3.356899 C 55.853487,9.9663298 54.942287,8.2888475 54.677961,8.1209511 54.270823,7.8565763 53.862858,7.905579 51.849714,8.4330754 c -1.67867,0.4560785 -2.4216,0.7677206 -2.613274,1.102261 -0.239272,0.4560757 0.04741,4.8680536 0.432015,7.2662226 0.144065,0.7192 0.09638,0.766668 -1.390611,1.366841 -0.815532,0.335789 -1.917988,0.766643 -2.397782,0.983402 l -0.886771,0.383441 -2.421552,-2.972947 c -1.34293,-1.655166 -2.613293,-3.046251 -2.828764,-3.093866 -0.456,-0.09646 -3.716706,1.534855 -4.530985,2.301667 -0.311928,0.264376 -0.551385,0.599016 -0.551385,0.743105 0,0.144093 0.598976,1.821837 1.319298,3.741376 0.71907,1.918285 1.319297,3.548294 1.319297,3.620968 0,0.120279 -2.109824,1.798218 -3.717081,2.94969 -0.191669,0.14409 -1.246252,-0.479761 -3.355865,-1.96577 -1.917935,-1.390792 -3.284646,-2.206586 -3.667987,-2.206586 -0.86313,0 -3.885029,3.022263 -3.885029,3.88555 0,0.359604 0.815592,1.726491 2.158522,3.62097 1.198871,1.655165 2.156971,3.069476 2.156971,3.140895 0,0.09521 -0.455936,0.719505 -1.030942,1.414899 -0.551205,0.671592 -1.222375,1.558597 -1.510502,1.942001 L 23.943443,37.35276 20.37054,35.982818 c -1.989346,-0.743006 -3.716413,-1.343072 -3.83542,-1.343071 -0.144065,0 -0.480029,0.23943 -0.743107,0.527615 -0.766675,0.839482 -2.397605,4.100968 -2.301149,4.555796 0.04761,0.215506 1.437963,1.48737 3.09283,2.829283 1.654863,1.343176 2.973003,2.518567 2.925401,2.613795 -0.0476,0.07142 -0.503574,1.151125 -1.007173,2.374014 l -0.934826,2.230357 -0.862995,-0.120408 c -0.479799,-0.07266 -2.253907,-0.264377 -3.932573,-0.407214 -2.589405,-0.239314 -3.1406277,-0.239383 -3.4049545,0.04753 -0.1678675,0.191704 -0.5985782,1.367093 -0.9343085,2.613797 -0.5274031,1.942087 -0.5514324,2.350759 -0.2883543,2.757971 0.1678656,0.264374 1.8467446,1.175378 3.7170803,2.014863 2.827424,1.295564 3.378632,1.607396 3.354829,2.03967 0,0.263104 -0.144254,1.414296 -0.312124,2.541963 l -0.264066,2.038636 -3.812166,0.648019 c -2.0858043,0.359603 -3.9326233,0.768186 -4.1242916,0.934831 -0.4547445,0.359602 -0.4785019,4.9628 -0.023771,5.562966 0.2154691,0.311992 1.3194149,0.600371 4.1242896,1.079003 l 3.835938,0.647507 0.264067,2.038637 c 0.167868,1.127663 0.312123,2.278103 0.312123,2.542477 0.02382,0.432272 -0.527702,0.742556 -3.356379,2.038118 -1.8703354,0.839486 -3.5486978,1.750494 -3.7165643,2.014865 -0.2643251,0.407215 -0.2157909,0.815779 0.3116095,2.829285 0.4559988,1.655166 0.7670356,2.422098 1.1027722,2.613798 0.4321943,0.215506 4.1953116,3.6e-5 7.1442586,-0.430986 l 0.862995,-0.120404 0.934825,2.230354 c 0.5036,1.222893 0.959565,2.278049 1.007172,2.374529 0.02382,0.07141 -1.270535,1.246293 -2.925398,2.61328 -1.654865,1.343171 -3.045228,2.614033 -3.092831,2.854606 -0.09646,0.432272 1.558276,3.692536 2.301149,4.53203 0.264328,0.28818 0.599011,0.5271 0.766877,0.5271 0.144064,0 1.797623,-0.59884 3.69176,-1.319306 1.894138,-0.719209 3.523984,-1.3193 3.620448,-1.3193 0.144062,0 1.725954,1.989796 2.972421,3.717616 0.144068,0.19169 -0.479504,1.24691 -1.96525,3.35689 -1.390539,1.91828 -2.206065,3.28511 -2.206065,3.6685 0,0.86332 3.02138,3.88402 3.884513,3.88402 0.35954,0 1.72631,-0.8156 3.620446,-2.15748 1.654866,-1.19911 3.069449,-2.1575 3.164661,-2.1575 0.167861,0 3.811821,2.90164 3.908282,3.09335 0.02382,0.0953 -0.52733,1.72648 -1.270206,3.62094 -0.719068,1.91833 -1.319297,3.57354 -1.319297,3.71764 0,0.16787 0.239456,0.50405 0.551389,0.76844 0.815525,0.76803 4.076239,2.39812 4.530984,2.30164 0.215468,-0.0474 1.487094,-1.43869 2.828762,-3.09386 l 2.421557,-2.97295 0.886765,0.38294 c 0.479801,0.2155 1.582251,0.64813 2.397783,0.98393 1.486997,0.60014 1.534677,0.64763 1.390611,1.36683 -0.0714,0.40719 -0.239343,2.18269 -0.407209,3.93307 -0.239276,2.68638 -0.215532,3.26123 0.04753,3.52435 0.191668,0.16789 1.366796,0.59902 2.613273,0.93483 1.94174,0.52748 2.35031,0.55116 2.757451,0.2868 0.264326,-0.1679 1.175022,-1.84641 2.014343,-3.71708 1.294078,-2.8292 1.605921,-3.38198 2.038117,-3.3569 0.264326,0 1.414499,0.14421 2.541961,0.31212 l 2.038116,0.26303 0.647504,3.83646 c 0.479794,2.80536 0.767071,3.90929 1.079004,4.12482 0.551205,0.4072 4.866547,0.4072 5.41775,0 0.311932,-0.21553 0.600457,-1.31946 1.079003,-4.12482 l 0.647503,-3.83646 2.038117,-0.26303 c 1.127462,-0.16791 2.277626,-0.31212 2.54196,-0.31212 0.430937,-0.0238 0.742784,0.5277 2.038108,3.3569 0.839332,1.87067 1.750023,3.54918 2.014349,3.71708 0.407133,0.26436 0.815616,0.21588 2.82876,-0.31161 1.629818,-0.45484 2.4216,-0.76698 2.613281,-1.10278 0.215461,-0.43102 -0.02384,-4.43692 -0.430986,-7.14582 l -0.120404,-0.86298 1.511018,-0.6253 c 0.839333,-0.33577 1.89418,-0.76787 2.397784,-0.98338 l 0.862985,-0.38347 2.445326,2.99673 c 1.342936,1.63011 2.613045,3.02122 2.853573,3.07008 0.43094,0.0965 3.692161,-1.55864 4.531494,-2.30165 0.28812,-0.26438 0.5271,-0.59901 0.5271,-0.74312 0,-0.12025 -0.60022,-1.84682 -1.343061,-3.7889 -0.719082,-1.96591 -1.295285,-3.64487 -1.246438,-3.76515 0.04749,-0.16789 1.774209,-1.63021 3.332609,-2.82929 0.31194,-0.26312 0.86272,0.0473 3.57239,1.96576 1.98937,1.41461 3.42886,2.27791 3.7884,2.27791 0.86314,0 3.88348,-3.04576 3.88348,-3.88402 0,-0.38339 -0.81549,-1.75022 -2.20605,-3.6685 -1.487,-2.10998 -2.10933,-3.1652 -1.96527,-3.35689 1.15127,-1.60629 2.8284,-3.717616 2.94868,-3.717616 0.0712,0 1.70251,0.59885 3.62042,1.3193 1.91796,0.719186 3.59679,1.319306 3.74085,1.319306 0.14407,0 0.47953,-0.23892 0.74261,-0.5271 0.74287,-0.839494 2.39812,-4.101018 2.30166,-4.53203 -0.0474,-0.239323 -1.4385,-1.511435 -3.09334,-2.854606 -1.65489,-1.366987 -2.9487,-2.541859 -2.92489,-2.61328 0.0474,-0.09647 0.50358,-1.151636 1.00717,-2.374529 l 0.9343,-2.230354 0.863,0.120404 c 0.47979,0.07141 2.25389,0.263121 3.93258,0.407215 2.58941,0.239313 3.14062,0.239376 3.40495,-0.04758 0.16789,-0.191699 0.59983,-1.367096 0.93432,-2.613797 0.52739,-1.965891 0.55163,-2.326914 0.28731,-2.781743 -0.19167,-0.264371 -1.79788,-1.151572 -3.71707,-2.014866 -2.85248,-1.270503 -3.37967,-1.582073 -3.35588,-2.014344 0,-0.264375 0.14375,-1.414814 0.31161,-2.542481 l 0.26457,-2.038635 3.83597,-0.647507 c 2.80485,-0.479888 3.90831,-0.767011 4.12374,-1.079002 0.40716,-0.551302 0.40716,-4.868005 0,-5.419307 -0.21543,-0.311991 -1.31889,-0.598602 -4.12374,-1.078491 l -3.83597,-0.648018 -0.26457,-2.038637 c -0.16786,-1.12767 -0.31161,-2.2776 -0.31161,-2.541963 -0.024,-0.431023 0.52718,-0.743075 3.35588,-2.038636 1.87032,-0.839484 3.54922,-1.75049 3.71707,-2.014866 0.26432,-0.407215 0.21529,-0.815776 -0.31213,-2.829285 -0.45473,-1.630106 -0.76778,-2.421572 -1.10225,-2.613276 -0.40714,-0.215509 -4.43633,0.02356 -7.14477,0.432014 l -0.863,0.120408 -0.9343,-2.230354 c -0.50359,-1.222888 -0.95958,-2.301861 -1.00718,-2.374532 -0.0474,-0.09647 1.27,-1.270103 2.92489,-2.613278 1.65358,-1.343175 3.04449,-2.613776 3.09334,-2.829284 0.0965,-0.456081 -1.535,-3.717565 -2.30166,-4.555794 -0.26432,-0.288182 -0.59978,-0.527616 -0.74261,-0.527616 -0.14406,0 -1.82164,0.598845 -3.74085,1.3193 -1.91917,0.720451 -3.54903,1.319298 -3.62042,1.319298 -0.12025,0 -1.79741,-2.109771 -2.94868,-3.716051 -0.14406,-0.19171 0.47952,-1.246925 1.96527,-3.356901 1.39056,-1.918289 2.20605,-3.285107 2.20605,-3.668511 0,-0.863291 -3.02034,-3.885551 -3.88348,-3.885551 -0.35954,0 -1.72631,0.815868 -3.62046,2.159041 -1.65487,1.175279 -3.06894,2.157491 -3.14037,2.157491 -0.0952,0 -0.7191,-0.455834 -1.41438,-1.030946 -0.67147,-0.551299 -1.558652,-1.247159 -1.941996,-1.511535 l -0.718819,-0.503329 1.366843,-3.573424 c 0.742872,-1.965902 1.366832,-3.692369 1.366832,-3.83646 0,-0.144094 -0.23948,-0.479986 -0.52761,-0.743105 -0.839331,-0.743007 -4.100044,-2.398147 -4.530984,-2.301671 -0.239269,0.04761 -1.511154,1.438226 -2.854081,3.069582 l -2.445326,2.997233 -0.862994,-0.383438 c -0.503603,-0.215509 -1.582249,-0.648128 -2.397784,-0.983919 -1.487002,-0.598917 -1.53468,-0.647642 -1.390613,-1.366842 0.07141,-0.407215 0.23934,-2.182706 0.407205,-3.933094 0.239286,-2.686357 0.215533,-3.2612104 -0.04758,-3.5243329 C 85.9928,9.1772235 84.817656,8.7460878 83.571191,8.4102923 81.62945,7.882795 81.220877,7.8588156 80.813744,8.121938 c -0.263076,0.1678982 -1.175017,1.8471468 -2.014349,3.716569 -1.29407,2.829189 -1.605919,3.381444 -2.038112,3.356385 -0.263074,0 -1.414499,-0.143712 -2.541961,-0.311608 L 72.181264,14.618745 71.533757,10.782286 C 71.053954,7.9769018 70.767202,6.8729833 70.45527,6.6574725 70.179665,6.4526129 68.962588,6.3501532 67.745878,6.3499982 Z m -0.09355,19.0500018 a 42.333276,42.333333 0 0 1 5.19e-4,0 42.333276,42.333333 0 0 1 0.08062,0 42.333276,42.333333 0 0 1 32.711139,15.461588 c -0.34356,0.12028 -0.695585,0.249135 -1.056273,0.386541 -0.689004,0.275605 -1.791448,0.533995 -3.307285,0.775144 -1.481375,0.206708 -3.169483,0.310062 -5.06428,0.310062 H 44.102903 c -1.894794,0 -3.582903,-0.103356 -5.064281,-0.310062 -1.481387,-0.241149 -2.583829,-0.499539 -3.307288,-0.775144 -0.269467,-0.10266 -0.529192,-0.195776 -0.7891,-0.28887 A 42.333276,42.333333 0 0 1 67.652345,25.400001 Z m -23.202165,25.4 h 14.816649 v 7.467246 a 12.699983,12.7 0 0 0 -4.233329,9.466089 12.699983,12.7 0 0 0 4.233329,9.466088 V 95.25 c 0,3.100583 -0.05168,5.42603 -0.155031,6.97633 -0.103342,1.55028 -0.36174,2.85943 -0.775143,3.9274 -0.303169,0.82683 -1.739835,1.22272 -4.620387,1.52497 a 42.333276,42.333333 0 0 1 -28.316057,-39.945364 42.333276,42.333333 0 0 1 0.06925,-2.410707 c 0.545658,0.410951 1.054219,0.749038 1.326016,0.810801 0.792369,0.172254 1.446939,0.258387 1.963702,0.258387 0.654564,0 1.033527,-0.189484 1.136882,-0.568443 0.620112,-3.858495 2.745056,-6.780131 5.122158,-9.708453 2.377108,-2.928319 6.538104,-5.31492 9.431969,-5.31492 z m 31.749959,0 h 14.816646 c 2.893865,0 7.054865,2.312188 9.431968,5.240506 2.41155,2.928322 4.53651,5.924372 5.12216,9.782867 0.10336,0.378959 0.48233,0.568443 1.13688,0.568443 0.55122,0 1.20579,-0.08614 1.96371,-0.258387 0.27185,-0.06178 0.78074,-0.399732 1.32653,-0.810801 a 42.333276,42.333333 0 0 1 0.0689,2.410707 42.333276,42.333333 0 0 1 -28.31658,39.945364 c -2.880253,-0.30224 -4.316761,-0.6982 -4.61991,-1.52497 -0.24115,-0.5512 -0.430636,-1.17134 -0.568439,-1.86035 -0.103343,-0.72347 -0.189483,-1.6192 -0.258383,-2.68717 -0.03446,-1.06798 -0.06892,-1.980941 -0.103344,-2.738856 V 95.25 77.199424 a 12.699983,12.7 0 0 0 4.233311,-9.466088 12.699983,12.7 0 0 0 -4.233331,-9.466089 z m -8.522467,10.583335 a 6.3499918,6.3500002 0 0 1 0.05581,0 6.3499918,6.3500002 0 0 1 6.34999,6.35 6.3499918,6.3500002 0 0 1 -6.34999,6.349999 6.3499918,6.3500002 0 0 1 -6.349992,-6.349999 6.3499918,6.3500002 0 0 1 6.29418,-6.35 z" />
    <g
       aria-label="T"
       id="text60"
       style="font-style:normal;font-weight:normal;font-size:105.83299999999999841px;line-height:1.25;font-family:sans-serif;fill:#ffffff;fill-opacity:1;stroke:none;stroke-width:0.264583" />
  </g>
  <g
     aria-label="Typed Settings"
     id="text843"
     style="font-style:normal;font-weight:normal;font-size:22.5778px;line-height:1.25;font-family:sans-serif;fill:#ffffff;fill-opacity:1;stroke:none;stroke-width:0.264583">
    <path
       d="M 51.302366,9.722416 H 50.523432 38.342708 v 3.578581 h 1.095024 c 0.248356,0.01129 0.395111,-0.06773 0.428978,-0.225778 0.02258,-0.158044 0.09031,-0.654756 0.2032,-1.501423 h 3.815649 V 24.26252 c -0.587023,0.112889 -1.004713,0.191911 -1.253068,0.248356 -0.248356,0.04516 -0.372534,0.191911 -0.372534,0.428978 v 0.970845 h 5.452539 v -0.970845 c 0,-0.237067 -0.09031,-0.372534 -0.248356,-0.406401 -0.158045,-0.03387 -0.530578,-0.1016 -1.106312,-0.214489 -0.180623,-0.04516 -0.282223,-0.05644 -0.282223,-0.05644 V 11.573796 h 3.80436 c 0.09031,0.835378 0.158044,1.343379 0.191911,1.501423 0.02258,0.158045 0.169333,0.237067 0.440267,0.237067 h 1.095023 V 9.7337049 Z"
       style="font-style:normal;font-variant:normal;font-weight:normal;font-stretch:normal;font-size:22.5778px;font-family:Aleo;-inkscape-font-specification:Aleo;fill:#ffffff;stroke-width:0.264583"
       id="path847" />
    <path
       d="M 62.208855,14.463754 H 57.964229 V 15.4346 c 0,0.237067 0.112889,0.372533 0.327378,0.417689 0.214489,0.04516 0.620889,0.135467 1.23049,0.248356 l -2.472269,5.971828 c -0.09031,0.237067 -0.2032,0.575734 -0.338667,1.016001 -0.07902,-0.361245 -0.180623,-0.699912 -0.304801,-1.004712 l -2.540002,-5.983117 c 0.711201,-0.135467 1.12889,-0.214489 1.253068,-0.248356 0.225778,-0.04516 0.338667,-0.180622 0.338667,-0.417689 V 14.463754 H 50.332932 V 15.4346 c 0,0.237067 0.112889,0.372533 0.338667,0.417689 0.135467,0.03387 0.474134,0.1016 1.02729,0.2032 l 4.018849,9.177876 -2.088447,4.538138 h 1.490135 c 0.327378,0 0.564445,-0.158045 0.711201,-0.496712 l 5.678316,-13.185435 c 0.06773,0 0.259645,-0.04516 0.587023,-0.112889 0.338667,-0.05645 0.530579,-0.1016 0.598312,-0.124178 0.225778,-0.04516 0.338667,-0.180622 0.338667,-0.417689 v -0.970846 z"
       style="font-style:normal;font-variant:normal;font-weight:normal;font-stretch:normal;font-size:22.5778px;font-family:Aleo;-inkscape-font-specification:Aleo;fill:#ffffff;stroke-width:0.264583"
       id="path849" />
    <path
       d="M 67.327313,16.236112 67.157979,14.881443 C 67.078957,14.61051 66.898335,14.463754 66.616112,14.463754 H 65.419489 63.793887 V 15.4346 c 0,0.237067 0.112889,0.372533 0.338667,0.417689 0.135467,0.03387 0.564445,0.124178 1.286935,0.259645 v 12.01139 l -1.286935,0.259644 c -0.225778,0.04516 -0.338667,0.191912 -0.338667,0.41769 v 0.970845 h 5.260628 v -0.970845 c 0,-0.225778 -0.112889,-0.372534 -0.338667,-0.41769 -0.06773,-0.01129 -0.293512,-0.05644 -0.677334,-0.135466 -0.383823,-0.06773 -0.587023,-0.112889 -0.609601,-0.124178 v -3.409248 c 0.801512,0.903112 1.907824,1.343379 3.307648,1.343379 1.399823,0 2.551291,-0.564445 3.454403,-1.715913 0.869246,-1.095023 1.309513,-2.506136 1.309513,-4.233338 0,-1.873957 -0.395112,-3.318936 -1.174046,-4.357515 -0.767645,-0.993423 -1.817513,-1.490135 -3.149603,-1.490135 -1.490135,0 -2.765781,0.666045 -3.849515,1.975558 z m 0.1016,6.908807 v -5.531562 c 0.869245,-1.151467 1.896535,-1.727201 3.08187,-1.727201 1.941691,0 2.912536,1.411112 2.912536,4.222048 0,1.411113 -0.293511,2.494847 -0.857956,3.251204 -0.575734,0.767645 -1.411113,1.140179 -2.494847,1.140179 -1.095024,0 -1.975558,-0.451556 -2.641603,-1.354668 z"
       style="font-style:normal;font-variant:normal;font-weight:normal;font-stretch:normal;font-size:22.5778px;font-family:Aleo;-inkscape-font-specification:Aleo;fill:#ffffff;stroke-width:0.264583"
       id="path851" />
    <path
       d="m 82.432567,14.283132 c -0.835379,0 -1.580446,0.146755 -2.235202,0.440267 -0.666045,0.293511 -1.23049,0.688623 -1.682046,1.196623 -0.462845,0.508001 -0.812801,1.106313 -1.061157,1.794935 -0.248356,0.699912 -0.361245,1.44498 -0.361245,2.235203 0,0.993423 0.135467,1.862668 0.4064,2.619025 0.270934,0.767645 0.643468,1.399823 1.128891,1.919113 0.485422,0.519289 1.061156,0.903112 1.727201,1.174045 0.666045,0.270934 1.399824,0.395112 2.190047,0.395112 0.4064,0 0.82409,-0.03387 1.253068,-0.1016 0.417689,-0.06773 0.82409,-0.180623 1.219201,-0.327378 0.395112,-0.135467 0.767645,-0.31609 1.117601,-0.541868 0.338667,-0.225778 0.643468,-0.485422 0.891823,-0.790223 l -0.564445,-0.733778 c -0.09031,-0.124178 -0.225778,-0.191911 -0.383822,-0.191911 -0.135467,0 -0.282223,0.06773 -0.462845,0.180622 -0.180623,0.112889 -0.395112,0.237067 -0.654756,0.372534 -0.270934,0.135466 -0.587023,0.270933 -0.948268,0.383822 -0.361245,0.112889 -0.801512,0.169334 -1.298224,0.169334 -0.541867,0 -1.038578,-0.07902 -1.467557,-0.259645 -0.440267,-0.180622 -0.8128,-0.440267 -1.12889,-0.801512 -0.316089,-0.361245 -0.564445,-0.801512 -0.745067,-1.343379 -0.180622,-0.530578 -0.282223,-1.162757 -0.293511,-1.885246 h 7.608718 c 0.180623,0 0.31609,-0.04516 0.383823,-0.158045 0.06773,-0.1016 0.1016,-0.316089 0.1016,-0.632178 0,-0.812801 -0.124178,-1.535291 -0.361245,-2.167469 -0.237067,-0.632179 -0.564445,-1.174046 -0.982134,-1.603024 -0.428978,-0.428978 -0.92569,-0.767645 -1.501424,-0.993423 -0.587023,-0.225778 -1.219201,-0.338667 -1.896535,-0.349956 z m 0.04516,1.478846 c 0.451556,0 0.857956,0.07902 1.219201,0.237067 0.361245,0.158044 0.666045,0.372533 0.914401,0.654756 0.248356,0.282222 0.428978,0.620889 0.564445,1.004712 0.124178,0.383823 0.191911,0.812801 0.191911,1.275646 h -6.220184 c 0.135467,-0.993424 0.474134,-1.761069 1.038579,-2.325514 0.553156,-0.564445 1.320801,-0.846667 2.291647,-0.846667 z"
       style="font-style:normal;font-variant:normal;font-weight:normal;font-stretch:normal;font-size:22.5778px;font-family:Aleo;-inkscape-font-specification:Aleo;fill:#ffffff;stroke-width:0.264583"
       id="path853" />
    <path
       d="m 93.745809,14.260554 c -1.512713,0 -2.720625,0.575734 -3.623737,1.715913 -0.880534,1.106312 -1.320801,2.517425 -1.320801,4.244626 0,1.885247 0.383822,3.330226 1.174045,4.346227 0.756357,0.993423 1.806224,1.490135 3.149603,1.490135 1.478846,0 2.754492,-0.654756 3.838227,-1.964269 l 0.180622,1.388535 c 0.06773,0.282222 0.248356,0.417689 0.541867,0.417689 h 2.822225 v -0.970845 c 0,-0.225778 -0.11289,-0.372534 -0.33867,-0.417689 -0.13546,-0.02258 -0.564442,-0.11289 -1.286931,-0.259645 V 9.27086 h -3.860804 v 0.970845 c 0,0.237067 0.112889,0.383823 0.349956,0.428979 0.225778,0.04516 0.733778,0.135466 1.501423,0.248355 v 4.696183 C 96.048745,14.71211 95.010166,14.260554 93.745809,14.260554 Z m 0.04516,10.171299 c -0.474134,0 -0.880535,-0.07902 -1.241779,-0.237067 -1.117602,-0.485422 -1.670758,-1.806224 -1.670758,-3.973693 0,-1.399823 0.282223,-2.483558 0.857957,-3.251203 0.564445,-0.756356 1.399823,-1.140179 2.494847,-1.140179 1.095023,0 1.975557,0.451556 2.630313,1.343379 v 5.531561 c -0.857956,1.151468 -1.885246,1.727202 -3.07058,1.727202 z"
       style="font-style:normal;font-variant:normal;font-weight:normal;font-stretch:normal;font-size:22.5778px;font-family:Aleo;-inkscape-font-specification:Aleo;fill:#ffffff;stroke-width:0.264583"
       id="path855" />
    <path
       d="m 114.36604,17.342424 c -0.54186,-0.225778 -1.47884,-0.575734 -2.83351,-1.02729 -0.47413,-0.158045 -0.89182,-0.338667 -1.25307,-0.553156 -0.8128,-0.462845 -1.2192,-1.095024 -1.2192,-1.885247 0,-0.733778 0.24836,-1.33209 0.76765,-1.783646 0.54186,-0.485423 1.28693,-0.733778 2.2352,-0.733778 0.76764,0 1.64818,0.146755 2.66418,0.428978 0.1016,1.298223 0.15804,1.964268 0.18062,2.009424 0.0339,0.259645 0.19191,0.383823 0.46285,0.383823 h 1.09502 v -3.714049 c -1.54658,-0.6096002 -3.05929,-0.9144005 -4.53814,-0.9256894 -1.47884,0 -2.67547,0.4628454 -3.60116,1.3659574 -0.86924,0.857956 -1.29822,1.885246 -1.29822,3.081869 0,1.286935 0.39511,2.291647 1.20791,3.014137 0.36125,0.327378 0.76765,0.598311 1.24178,0.801512 0.46285,0.2032 1.41111,0.530578 2.8448,0.970845 0.45156,0.158045 0.86925,0.338667 1.23049,0.541867 0.80152,0.474134 1.20792,1.12889 1.20792,1.986847 0,0.891823 -0.29352,1.603024 -0.86925,2.133602 -0.29351,0.270934 -0.63218,0.474134 -1.03858,0.609601 -0.4064,0.146755 -0.97084,0.214489 -1.67076,0.214489 -0.7112,0 -1.6256,-0.203201 -2.73191,-0.62089 0,0 -0.0339,-0.327378 -0.079,-0.982134 -0.0452,-0.643467 -0.079,-1.016001 -0.1016,-1.117601 -0.0564,-0.248356 -0.21449,-0.383823 -0.46285,-0.383823 h -1.09502 v 4.052715 l 0.64347,0.225778 c 0.42898,0.146756 1.03858,0.293512 1.81751,0.440267 0.77893,0.135467 1.524,0.21449 2.22391,0.21449 1.67076,0 3.00285,-0.496712 4.00756,-1.478846 0.93698,-0.936979 1.39983,-2.144891 1.41112,-3.623737 0,-1.693335 -0.82409,-2.901248 -2.4497,-3.646315 z"
       style="font-style:normal;font-variant:normal;font-weight:normal;font-stretch:normal;font-size:22.5778px;font-family:Aleo;-inkscape-font-specification:Aleo;fill:#ffffff;stroke-width:0.264583"
       id="path857" />
    <path
       d="m 123.13434,14.283132 c -0.83538,0 -1.58044,0.146755 -2.2352,0.440267 -0.66605,0.293511 -1.23049,0.688623 -1.68205,1.196623 -0.46284,0.508001 -0.8128,1.106313 -1.06115,1.794935 -0.24836,0.699912 -0.36125,1.44498 -0.36125,2.235203 0,0.993423 0.13547,1.862668 0.4064,2.619025 0.27094,0.767645 0.64347,1.399823 1.12889,1.919113 0.48542,0.519289 1.06116,0.903112 1.7272,1.174045 0.66605,0.270934 1.39983,0.395112 2.19005,0.395112 0.4064,0 0.82409,-0.03387 1.25307,-0.1016 0.41769,-0.06773 0.82409,-0.180623 1.2192,-0.327378 0.39511,-0.135467 0.76764,-0.31609 1.1176,-0.541868 0.33867,-0.225778 0.64347,-0.485422 0.89182,-0.790223 l -0.56444,-0.733778 c -0.0903,-0.124178 -0.22578,-0.191911 -0.38382,-0.191911 -0.13547,0 -0.28223,0.06773 -0.46285,0.180622 -0.18062,0.112889 -0.39511,0.237067 -0.65475,0.372534 -0.27094,0.135466 -0.58703,0.270933 -0.94827,0.383822 -0.36125,0.112889 -0.80151,0.169334 -1.29823,0.169334 -0.54186,0 -1.03857,-0.07902 -1.46755,-0.259645 -0.44027,-0.180622 -0.8128,-0.440267 -1.12889,-0.801512 -0.31609,-0.361245 -0.56445,-0.801512 -0.74507,-1.343379 -0.18062,-0.530578 -0.28222,-1.162757 -0.29351,-1.885246 h 7.60872 c 0.18062,0 0.31609,-0.04516 0.38382,-0.158045 0.0677,-0.1016 0.1016,-0.316089 0.1016,-0.632178 0,-0.812801 -0.12418,-1.535291 -0.36125,-2.167469 -0.23706,-0.632179 -0.56444,-1.174046 -0.98213,-1.603024 -0.42898,-0.428978 -0.92569,-0.767645 -1.50142,-0.993423 -0.58703,-0.225778 -1.2192,-0.338667 -1.89654,-0.349956 z m 0.0452,1.478846 c 0.45155,0 0.85795,0.07902 1.2192,0.237067 0.36124,0.158044 0.66604,0.372533 0.9144,0.654756 0.24836,0.282222 0.42898,0.620889 0.56444,1.004712 0.12418,0.383823 0.19192,0.812801 0.19192,1.275646 h -6.22019 c 0.13547,-0.993424 0.47414,-1.761069 1.03858,-2.325514 0.55316,-0.564445 1.3208,-0.846667 2.29165,-0.846667 z"
       style="font-style:normal;font-variant:normal;font-weight:normal;font-stretch:normal;font-size:22.5778px;font-family:Aleo;-inkscape-font-specification:Aleo;fill:#ffffff;stroke-width:0.264583"
       id="path859" />
    <path
       d="m 133.30988,26.080033 c 0.51929,0 1.02729,-0.09031 1.524,-0.270934 0.48543,-0.180622 0.90311,-0.440267 1.25307,-0.767645 l -0.58702,-0.959557 c -0.0903,-0.124178 -0.18062,-0.191911 -0.28222,-0.191911 -0.0677,0 -0.13547,0.03387 -0.21449,0.09031 -0.079,0.05645 -0.16934,0.112889 -0.28223,0.180623 -0.11289,0.06773 -0.24835,0.135466 -0.4064,0.191911 -0.15804,0.05644 -0.33866,0.07902 -0.54186,0.07902 -0.37254,0 -0.67734,-0.112889 -0.90312,-0.349956 -0.23706,-0.225778 -0.34995,-0.587023 -0.34995,-1.072445 V 16.1458 h 3.27378 v -1.456268 h -3.27378 v -3.939826 h -1.016 c -0.13547,0 -0.23707,0.04516 -0.31609,0.112889 -0.0903,0.06773 -0.13547,0.158045 -0.14676,0.270934 l -0.46284,3.533425 -1.87396,0.237067 v 0.801512 c 0,0.158045 0.0339,0.270934 0.12418,0.338667 0.079,0.06773 0.18062,0.1016 0.3048,0.1016 h 1.37724 v 6.999119 c 0,0.948267 0.23707,1.682046 0.72249,2.178757 0.48543,0.508001 1.17405,0.756357 2.07716,0.756357 z"
       style="font-style:normal;font-variant:normal;font-weight:normal;font-stretch:normal;font-size:22.5778px;font-family:Aleo;-inkscape-font-specification:Aleo;fill:#ffffff;stroke-width:0.264583"
       id="path861" />
    <path
       d="m 141.51197,26.080033 c 0.51929,0 1.02729,-0.09031 1.524,-0.270934 0.48542,-0.180622 0.90311,-0.440267 1.25307,-0.767645 l -0.58702,-0.959557 c -0.0903,-0.124178 -0.18063,-0.191911 -0.28223,-0.191911 -0.0677,0 -0.13546,0.03387 -0.21449,0.09031 -0.079,0.05645 -0.16933,0.112889 -0.28222,0.180623 -0.11289,0.06773 -0.24835,0.135466 -0.4064,0.191911 -0.15804,0.05644 -0.33867,0.07902 -0.54187,0.07902 -0.37253,0 -0.67733,-0.112889 -0.90311,-0.349956 -0.23707,-0.225778 -0.34995,-0.587023 -0.34995,-1.072445 V 16.1458 h 3.27378 v -1.456268 h -3.27378 v -3.939826 h -1.01601 c -0.13546,0 -0.23706,0.04516 -0.31608,0.112889 -0.0903,0.06773 -0.13547,0.158045 -0.14676,0.270934 l -0.46285,3.533425 -1.87395,0.237067 v 0.801512 c 0,0.158045 0.0339,0.270934 0.12418,0.338667 0.079,0.06773 0.18062,0.1016 0.3048,0.1016 h 1.37724 v 6.999119 c 0,0.948267 0.23707,1.682046 0.72249,2.178757 0.48542,0.508001 1.17405,0.756357 2.07716,0.756357 z"
       style="font-style:normal;font-variant:normal;font-weight:normal;font-stretch:normal;font-size:22.5778px;font-family:Aleo;-inkscape-font-specification:Aleo;fill:#ffffff;stroke-width:0.264583"
       id="path863" />
    <path
       d="m 147.17405,11.878596 c 0.13547,0.135467 0.28223,0.237067 0.45156,0.316089 0.16933,0.06773 0.34996,0.112889 0.55316,0.112889 0.19191,0 0.37253,-0.04516 0.55315,-0.112889 0.16934,-0.07902 0.32738,-0.180622 0.45156,-0.316089 0.13546,-0.135467 0.23706,-0.282223 0.31609,-0.451556 0.079,-0.169334 0.12417,-0.349956 0.12417,-0.541867 0,-0.2032 -0.0452,-0.383823 -0.12417,-0.564445 -0.079,-0.180623 -0.18063,-0.3273784 -0.31609,-0.4628452 -0.12418,-0.1354668 -0.28222,-0.2370669 -0.45156,-0.3048003 -0.18062,-0.079022 -0.36124,-0.112889 -0.55315,-0.112889 -0.2032,0 -0.38383,0.033867 -0.55316,0.112889 -0.16933,0.067733 -0.31609,0.1693335 -0.45156,0.3048003 -0.12417,0.1354668 -0.23706,0.2822222 -0.3048,0.4628452 -0.079,0.180622 -0.11289,0.361245 -0.11289,0.564445 0,0.191911 0.0339,0.372533 0.11289,0.541867 0.0677,0.169333 0.18063,0.316089 0.3048,0.451556 z m 3.28507,12.63228 c -0.2032,-0.03387 -1.28693,-0.248356 -1.28693,-0.248356 v -9.787477 h -3.63503 v 0.970846 c 0,0.2032 0.13547,0.372533 0.33867,0.417689 0.19191,0.03387 1.28693,0.248356 1.28693,0.248356 v 8.150586 c 0,0 -1.09502,0.214489 -1.28693,0.248356 -0.2032,0.04516 -0.33867,0.214489 -0.33867,0.417689 v 0.970845 h 5.26063 v -0.970845 c 0,-0.2032 -0.14676,-0.372534 -0.33867,-0.417689 z"
       style="font-style:normal;font-variant:normal;font-weight:normal;font-stretch:normal;font-size:22.5778px;font-family:Aleo;-inkscape-font-specification:Aleo;fill:#ffffff;stroke-width:0.264583"
       id="path865" />
    <path
       d="m 155.63085,16.123223 -0.15804,-1.24178 c -0.079,-0.270933 -0.25965,-0.417689 -0.54187,-0.417689 h -1.19662 -1.6256 V 15.4346 c 0,0.237067 0.11289,0.372533 0.33866,0.417689 0.13547,0.03387 0.56445,0.124178 1.28694,0.259645 v 8.139297 l -1.28694,0.259645 c -0.22577,0.04516 -0.33866,0.191911 -0.33866,0.417689 v 0.970845 h 5.27191 v -0.970845 c 0,-0.225778 -0.12418,-0.372534 -0.34995,-0.417689 -0.8128,-0.158045 -1.24178,-0.248356 -1.28694,-0.259645 v -6.77334 c 0.94827,-1.061157 1.97556,-1.591735 3.09316,-1.591735 1.60302,0 2.40454,0.914401 2.40454,2.731914 v 7.28134 h 3.64631 v -0.970845 c 0,-0.225778 -0.12418,-0.372534 -0.34995,-0.417689 -0.13547,-0.02258 -0.56445,-0.11289 -1.28694,-0.259645 V 18.61807 c 0,-1.320802 -0.32738,-2.37067 -0.97084,-3.138315 -0.67734,-0.790223 -1.62561,-1.196623 -2.8561,-1.196623 -1.4224,0 -2.68675,0.620889 -3.79307,1.840091 z"
       style="font-style:normal;font-variant:normal;font-weight:normal;font-stretch:normal;font-size:22.5778px;font-family:Aleo;-inkscape-font-specification:Aleo;fill:#ffffff;stroke-width:0.264583"
       id="path867" />
    <path
       d="m 170.67896,14.271843 c -0.63218,0 -1.2192,0.09031 -1.74978,0.259645 -0.53058,0.180622 -0.98213,0.428978 -1.36595,0.745067 -0.38383,0.316089 -0.68863,0.711201 -0.90312,1.162757 -0.21449,0.451556 -0.31609,0.959556 -0.31609,1.512712 0,0.699912 0.15805,1.320802 0.47414,1.840091 0.31609,0.51929 0.76764,0.936979 1.33209,1.253068 -0.24836,0.124178 -0.45156,0.259645 -0.63218,0.417689 -0.18062,0.158045 -0.33867,0.327379 -0.46285,0.496712 -0.12417,0.180622 -0.21448,0.349956 -0.27093,0.530578 -0.0677,0.180623 -0.0903,0.349956 -0.0903,0.508001 0,0.428978 0.0903,0.767645 0.28222,1.016001 0.19191,0.248356 0.45156,0.451556 0.77894,0.598312 -0.63218,0.237067 -1.1176,0.553156 -1.47885,0.948267 -0.36124,0.395112 -0.53058,0.869246 -0.53058,1.433691 0,0.4064 0.1016,0.790223 0.3048,1.151467 0.2032,0.361245 0.51929,0.688623 0.93698,0.959557 0.4064,0.282222 0.92569,0.508 1.55787,0.666045 0.63218,0.169334 1.36596,0.248356 2.20133,0.248356 0.83538,0 1.58045,-0.1016 2.2465,-0.316089 0.65475,-0.214489 1.2192,-0.496712 1.68204,-0.857957 0.45156,-0.361245 0.80151,-0.767645 1.04987,-1.23049 0.24836,-0.451556 0.37253,-0.92569 0.37253,-1.422401 0,-0.51929 -0.11289,-0.948268 -0.32737,-1.286935 -0.22578,-0.327378 -0.508,-0.587023 -0.86925,-0.778934 -0.36124,-0.180623 -0.77893,-0.316089 -1.23049,-0.406401 -0.46284,-0.07902 -0.93698,-0.135466 -1.41111,-0.169333 -0.47414,-0.03387 -0.94827,-0.05645 -1.39983,-0.07902 -0.46284,-0.01129 -0.86924,-0.04516 -1.23049,-0.112889 -0.36124,-0.05645 -0.65475,-0.158045 -0.86924,-0.293512 -0.22578,-0.135467 -0.32738,-0.349956 -0.32738,-0.620889 0,-0.158045 0.0564,-0.327378 0.18062,-0.508001 0.12418,-0.169333 0.3048,-0.327378 0.55316,-0.485423 0.47413,0.135467 0.97084,0.191912 1.51271,0.191912 0.62089,0 1.19662,-0.07902 1.71591,-0.259645 0.51929,-0.169333 0.97085,-0.417689 1.35467,-0.745067 0.38383,-0.31609 0.67734,-0.711201 0.89183,-1.162757 0.21448,-0.451556 0.32737,-0.959557 0.32737,-1.524002 0,-0.598311 -0.13546,-1.140179 -0.38382,-1.63689 l 1.29822,-0.180623 c 0.31609,-0.06773 0.47414,-0.225778 0.47414,-0.474133 V 14.91531 h -3.10445 c -0.36124,-0.2032 -0.75636,-0.361245 -1.18533,-0.474134 -0.42898,-0.112889 -0.89183,-0.158044 -1.38854,-0.169333 z m 3.56729,12.248457 c 0,0.3048 -0.079,0.575734 -0.23706,0.824089 -0.15805,0.248356 -0.39511,0.462845 -0.68863,0.643468 -0.29351,0.180622 -0.65475,0.327378 -1.08373,0.417689 -0.42898,0.1016 -0.9144,0.146756 -1.45627,0.146756 -0.56444,0 -1.04987,-0.04516 -1.45627,-0.135467 -0.4064,-0.09031 -0.74506,-0.225778 -1.016,-0.383823 -0.27093,-0.158044 -0.47413,-0.349955 -0.6096,-0.575734 -0.13546,-0.225778 -0.19191,-0.462844 -0.19191,-0.722489 0,-0.406401 0.12418,-0.756356 0.39511,-1.049868 0.27094,-0.293511 0.62089,-0.541867 1.04987,-0.745067 0.36124,0.06773 0.75636,0.1016 1.16276,0.124178 0.4064,0.02258 0.80151,0.04515 1.19662,0.06773 0.38382,0.02258 0.75636,0.04516 1.1176,0.09031 0.34996,0.04516 0.66605,0.124178 0.93698,0.214489 0.27093,0.09031 0.48542,0.225778 0.64347,0.395112 0.15804,0.180622 0.23706,0.4064 0.23706,0.688623 z m -3.56729,-6.208895 c -0.4064,0 -0.75635,-0.05645 -1.06116,-0.169334 -0.31608,-0.112889 -0.57573,-0.270934 -0.77893,-0.474134 -0.21449,-0.2032 -0.37253,-0.440267 -0.48542,-0.722489 -0.11289,-0.282223 -0.15805,-0.598312 -0.15805,-0.936979 0,-0.699912 0.2032,-1.253068 0.63218,-1.670757 0.42898,-0.406401 1.03858,-0.62089 1.85138,-0.62089 0.8128,0 1.4224,0.214489 1.85138,0.62089 0.42898,0.417689 0.64347,0.970845 0.64347,1.670757 0,0.338667 -0.0565,0.654756 -0.15805,0.936979 -0.11289,0.282222 -0.27093,0.519289 -0.47413,0.722489 -0.21449,0.2032 -0.47413,0.361245 -0.79022,0.474134 -0.31609,0.112889 -0.66605,0.169334 -1.07245,0.169334 z"
       style="font-style:normal;font-variant:normal;font-weight:normal;font-stretch:normal;font-size:22.5778px;font-family:Aleo;-inkscape-font-specification:Aleo;fill:#ffffff;stroke-width:0.264583"
       id="path869" />
    <path
       d="m 182.16683,14.283132 c -1.39983,0 -2.47227,0.338667 -3.21734,1.004712 -0.7112,0.620889 -1.06116,1.388535 -1.06116,2.314224 0,0.891824 0.3048,1.591735 0.92569,2.111025 0.27094,0.237067 0.62089,0.440267 1.02729,0.620889 0.4064,0.180623 1.1176,0.41769 2.11103,0.72249 0.36124,0.112889 0.67733,0.237067 0.95955,0.383823 0.27094,0.146755 0.49671,0.327378 0.66605,0.530578 0.16933,0.2032 0.25964,0.519289 0.25964,0.948268 0,0.428978 -0.19191,0.8128 -0.57573,1.151467 -0.42898,0.383823 -1.016,0.564445 -1.76107,0.564445 -0.90311,0 -1.68205,-0.146755 -2.32551,-0.451556 -0.079,-0.891823 -0.12418,-1.377245 -0.13547,-1.444979 -0.0452,-0.180622 -0.15804,-0.282222 -0.33867,-0.282222 h -0.80151 v 2.991558 c 1.2192,0.428978 2.44969,0.632179 3.69147,0.62089 1.23049,0 2.2352,-0.349956 3.01414,-1.049868 0.74507,-0.654756 1.1176,-1.524002 1.1176,-2.619025 0,-0.835378 -0.31609,-1.501424 -0.92569,-2.009424 -0.28222,-0.225778 -0.59831,-0.406401 -0.94827,-0.564445 -0.36124,-0.146756 -0.72249,-0.282223 -1.09502,-0.406401 -0.37254,-0.124177 -0.83538,-0.270933 -1.39983,-0.451556 -0.56444,-0.169333 -1.00471,-0.428978 -1.29822,-0.790223 -0.18062,-0.191911 -0.25964,-0.485422 -0.25964,-0.869245 0,-0.383823 0.19191,-0.72249 0.59831,-1.038579 0.39511,-0.316089 0.9144,-0.474134 1.55787,-0.485422 h 0.0226 c 0.48543,0 1.07245,0.07902 1.76107,0.237066 0.079,0.959557 0.12418,1.456269 0.13547,1.478846 0.0339,0.214489 0.15804,0.31609 0.38382,0.31609 h 0.89183 v -2.133603 -0.801512 c -1.19663,-0.395111 -2.19005,-0.587022 -2.98027,-0.598311 z"
       style="font-style:normal;font-variant:normal;font-weight:normal;font-stretch:normal;font-size:22.5778px;font-family:Aleo;-inkscape-font-specification:Aleo;fill:#ffffff;stroke-width:0.264583"
       id="path871" />
  </g>
</svg>
