<?xml version="1.0" encoding="UTF-8" standalone="no"?>
<svg
   xmlns:dc="http://purl.org/dc/elements/1.1/"
   xmlns:cc="http://creativecommons.org/ns#"
   xmlns:rdf="http://www.w3.org/1999/02/22-rdf-syntax-ns#"
   xmlns:svg="http://www.w3.org/2000/svg"
   xmlns="http://www.w3.org/2000/svg"
   xmlns:xlink="http://www.w3.org/1999/xlink"
   xmlns:sodipodi="http://sodipodi.sourceforge.net/DTD/sodipodi-0.dtd"
   xmlns:inkscape="http://www.inkscape.org/namespaces/inkscape"
   width="512"
   height="512"
   viewBox="0 0 135.46666 135.46667"
   version="1.1"
   id="svg8"
   inkscape:version="1.0.1 (c497b03c, 2020-09-10)"
   sodipodi:docname="typed-settings.svg"
   inkscape:export-filename="/Users/stefan/Projects/typed-settings/typed-settings.png"
   inkscape:export-xdpi="96"
   inkscape:export-ydpi="96">
  <defs
     id="defs2">
    <linearGradient
       inkscape:collect="always"
       id="linearGradient1614">
      <stop
         style="stop-color:#3812a2;stop-opacity:1"
         offset="0"
         id="stop1610" />
      <stop
         style="stop-color:#00aacc;stop-opacity:1"
         offset="1"
         id="stop1612" />
    </linearGradient>
    <linearGradient
       inkscape:collect="always"
       xlink:href="#linearGradient1614"
       id="linearGradient1616"
       x1="67.73333"
       y1="131.23334"
       x2="67.73333"
       y2="4.2333331"
       gradientUnits="userSpaceOnUse" />
  </defs>
  <sodipodi:namedview
     id="base"
     pagecolor="#ffffff"
     bordercolor="#666666"
     borderopacity="1.0"
     inkscape:pageopacity="0.0"
     inkscape:pageshadow="2"
     inkscape:zoom="0.35019661"
     inkscape:cx="137.64851"
     inkscape:cy="151.30405"
     inkscape:document-units="mm"
     inkscape:current-layer="layer1"
     inkscape:document-rotation="0"
     showgrid="false"
     units="px"
     inkscape:snap-bbox="true"
     inkscape:bbox-nodes="true"
     inkscape:window-width="1440"
     inkscape:window-height="855"
     inkscape:window-x="0"
     inkscape:window-y="23"
     inkscape:window-maximized="1"
     inkscape:snap-smooth-nodes="true"
     inkscape:snap-intersection-paths="true"
     inkscape:snap-bbox-edge-midpoints="true"
     inkscape:snap-bbox-midpoints="true"
     inkscape:bbox-paths="true">
    <inkscape:grid
       type="xygrid"
       id="grid56"
       spacingx="0.26458333"
       spacingy="0.26458333"
       empspacing="8" />
  </sodipodi:namedview>
  <metadata
     id="metadata5">
    <rdf:RDF>
      <cc:Work
         rdf:about="">
        <dc:format>image/svg+xml</dc:format>
        <dc:type
           rdf:resource="http://purl.org/dc/dcmitype/StillImage" />
        <dc:title />
      </cc:Work>
    </rdf:RDF>
  </metadata>
  <g
     inkscape:label="Ebene 1"
     inkscape:groupmode="layer"
     id="layer1">
    <rect
       style="display:inline;fill:url(#linearGradient1616);stroke-width:0.124797;fill-opacity:1"
       id="rect1559"
       width="127"
       height="127"
       x="4.2333331"
       y="4.2333331"
       ry="27.781248" />
    <path
       id="path14-3"
       style="fill:#000000;fill-opacity:0.5;stroke-width:0.0097745"
       d="m 68.536875,20.637501 c -0.949251,-1.19e-4 -1.898373,0.07973 -2.11339,0.239078 -0.243364,0.168134 -0.468058,1.02898 -0.841405,3.217662 l -0.505166,2.993502 -1.590485,0.206016 c -0.879615,0.130993 -1.776544,0.243512 -1.982764,0.243512 -0.336206,0.01859 -0.579502,-0.411705 -1.590085,-2.618961 -0.654823,-1.459448 -1.365717,-2.768173 -1.571935,-2.899161 -0.317638,-0.206258 -0.635923,-0.168028 -2.206521,0.24351 -1.309652,0.35582 -1.889268,0.598955 -2.038805,0.859954 -0.186675,0.355817 0.03699,3.79792 0.337046,5.668906 0.112395,0.5611 0.07519,0.598134 -1.084917,1.066373 -0.636254,0.261973 -1.496361,0.598113 -1.870682,0.767222 l -0.691835,0.29915 -1.889227,-2.319411 c -1.047719,-1.291314 -2.038821,-2.376601 -2.206926,-2.41375 -0.355759,-0.07525 -2.899672,1.197454 -3.53495,1.795698 -0.243357,0.206259 -0.430175,0.467336 -0.430175,0.57975 0,0.112417 0.467304,1.421347 1.029279,2.918919 0.561,1.496593 1.02928,2.768281 1.02928,2.824979 0,0.09384 -1.646026,1.40292 -2.899965,2.301267 -0.149534,0.112415 -0.972291,-0.374297 -2.618153,-1.53364 -1.49632,-1.085058 -2.56259,-1.721517 -2.861663,-1.721517 -0.67339,0 -3.030992,2.357885 -3.030992,3.031398 0,0.280553 0.636303,1.346962 1.684019,2.824981 0.935326,1.291315 1.68281,2.394721 1.68281,2.450441 0,0.07428 -0.35571,0.561336 -0.804313,1.103864 -0.430035,0.523958 -0.953663,1.215975 -1.178452,1.515095 L 34.363417,44.825 31.575937,43.756209 c -1.552033,-0.579673 -2.899443,-1.047828 -2.992289,-1.047827 -0.112395,0 -0.374506,0.186796 -0.579751,0.411631 -0.598139,0.654941 -1.870545,3.199462 -1.795293,3.554306 0.03714,0.168132 1.121859,1.160405 2.41294,2.207327 1.291079,1.047911 2.319455,1.964917 2.282317,2.039213 -0.03713,0.05572 -0.392874,0.898076 -0.785768,1.85214 l -0.729326,1.740062 -0.673285,-0.09394 c -0.374325,-0.0567 -1.758435,-0.20626 -3.068084,-0.317696 -2.020183,-0.186709 -2.450232,-0.186762 -2.656452,0.03708 -0.130966,0.149564 -0.466994,1.066567 -0.728922,2.039213 -0.411466,1.515162 -0.430212,1.833998 -0.224966,2.151692 0.130964,0.206258 1.440779,0.916998 2.899964,1.571941 2.205878,1.010766 2.635915,1.254047 2.617345,1.591296 0,0.205266 -0.112543,1.103395 -0.24351,1.983169 l -0.206018,1.590488 -2.974147,0.505567 c -1.627287,0.28055 -3.068124,0.599317 -3.217658,0.729329 -0.35478,0.28055 -0.373314,3.871839 -0.01854,4.340073 0.168102,0.243407 1.029371,0.468392 3.217657,0.841808 l 2.992693,0.505166 0.206019,1.590488 c 0.130965,0.879771 0.243509,1.777315 0.243509,1.983573 0.01859,0.337243 -0.411699,0.579319 -2.618554,1.590083 -1.459185,0.654944 -2.768597,1.365686 -2.899562,1.57194 -0.20622,0.3177 -0.168354,0.636446 0.243109,2.207332 0.355758,1.291311 0.598421,1.889651 0.860353,2.039211 0.337186,0.168132 3.273067,2.9e-5 5.573753,-0.336241 l 0.673286,-0.09394 0.729325,1.740059 c 0.392894,0.954068 0.748626,1.777277 0.785767,1.852545 0.01859,0.05572 -0.991237,0.972323 -2.282315,2.038806 -1.29108,1.047908 -2.375802,2.039397 -2.412941,2.227087 -0.07525,0.337245 1.215723,2.880811 1.795292,3.535759 0.206222,0.224836 0.467332,0.411227 0.598297,0.411227 0.112395,0 1.402455,-0.4672 2.880209,-1.02928 1.477754,-0.561106 2.749316,-1.029283 2.824574,-1.029283 0.112393,0 1.346542,1.552376 2.319002,2.900374 0.112397,0.14956 -0.374096,0.972803 -1.533234,2.618962 -1.084861,1.496595 -1.721111,2.562941 -1.721111,2.862071 0,0.67353 2.357198,3.0302 3.030589,3.0302 0.280503,0 1.34682,-0.63631 2.824572,-1.68321 1.291082,-0.93551 2.394701,-1.68323 2.468982,-1.68323 0.130961,0 2.973877,2.26379 3.049134,2.41336 0.01859,0.0743 -0.411408,1.34695 -0.990979,2.82496 -0.560997,1.49662 -1.02928,2.78797 -1.02928,2.90039 0,0.13098 0.186818,0.39325 0.430179,0.59952 0.63625,0.5992 3.18017,1.87094 3.534948,1.79568 0.168104,-0.037 1.160192,-1.12243 2.206922,-2.41375 l 1.889234,-2.31941 0.691829,0.29876 c 0.374329,0.16813 1.234429,0.50565 1.870684,0.76763 1.160115,0.46821 1.197315,0.50527 1.084919,1.06637 -0.05571,0.31767 -0.186731,1.70287 -0.317695,3.06847 -0.186677,2.09584 -0.168154,2.54432 0.03709,2.7496 0.149535,0.13098 1.066337,0.46735 2.038803,0.72932 1.514895,0.41154 1.833647,0.43001 2.151289,0.22376 0.20622,-0.13099 0.916718,-1.4405 1.571534,-2.89996 1.009605,-2.20727 1.252895,-2.63853 1.590083,-2.61896 0.206221,0 1.103551,0.11251 1.983167,0.2435 l 1.590083,0.20522 0.505166,2.99309 c 0.374321,2.18868 0.598448,3.04992 0.841809,3.21807 0.430035,0.31769 3.796745,0.31769 4.226778,0 0.243361,-0.16815 0.468462,-1.02939 0.841808,-3.21807 l 0.505166,-2.99309 1.590083,-0.20522 c 0.879616,-0.13099 1.776941,-0.2435 1.983168,-0.2435 0.336203,-0.0186 0.579498,0.41169 1.59008,2.61896 0.654822,1.45946 1.365314,2.76897 1.571537,2.89996 0.317635,0.20625 0.636319,0.16842 2.206923,-0.2431 1.271536,-0.35485 1.889265,-0.59839 2.038807,-0.86037 0.168099,-0.33627 -0.01861,-3.46155 -0.336242,-5.57497 l -0.09394,-0.67327 1.178854,-0.48784 c 0.654825,-0.26196 1.477788,-0.59907 1.870684,-0.76721 l 0.673283,-0.29917 1.907778,2.33796 c 1.04772,1.27177 2.038619,2.35707 2.226277,2.3952 0.336207,0.0753 2.88052,-1.21601 3.535349,-1.79569 0.224785,-0.20627 0.41123,-0.46733 0.41123,-0.57976 0,-0.0938 -0.468272,-1.44084 -1.047825,-2.956 -0.561005,-1.53374 -1.010546,-2.84362 -0.972435,-2.93746 0.03708,-0.13098 1.384191,-1.27185 2.600011,-2.20734 0.243368,-0.20528 0.67307,0.0369 2.787087,1.53364 1.552028,1.10364 2.675085,1.77716 2.955585,1.77716 0.67339,0 3.02976,-2.37622 3.02976,-3.0302 0,-0.29913 -0.63622,-1.365476 -1.72109,-2.862071 -1.1601,-1.646159 -1.64563,-2.469402 -1.53323,-2.618962 0.89817,-1.253177 2.20662,-2.900374 2.30045,-2.900374 0.0556,0 1.32825,0.467204 2.82457,1.029283 1.49633,0.561088 2.8061,1.02928 2.91849,1.02928 0.11241,0 0.37413,-0.186391 0.57937,-0.411227 0.57957,-0.654948 1.87096,-3.199495 1.7957,-3.535759 -0.037,-0.186714 -1.12228,-1.179179 -2.41335,-2.227087 -1.29109,-1.066483 -2.30049,-1.983089 -2.28191,-2.038806 0.037,-0.07526 0.39288,-0.898477 0.78575,-1.852545 l 0.72892,-1.740059 0.67329,0.09394 c 0.37433,0.05573 1.75843,0.205278 3.0681,0.317694 2.02019,0.186706 2.45023,0.186759 2.65645,-0.03709 0.13098,-0.149557 0.46797,-1.066573 0.72893,-2.039209 0.41146,-1.533737 0.43036,-1.815397 0.22415,-2.170237 -0.14953,-0.206261 -1.40266,-0.898428 -2.89996,-1.571944 -2.22542,-0.991213 -2.63672,-1.234293 -2.61815,-1.571536 0,-0.206258 0.11215,-1.103799 0.24309,-1.983573 l 0.20641,-1.590488 2.99271,-0.505168 c 2.18828,-0.374396 3.04916,-0.598399 3.21725,-0.841805 0.31765,-0.430113 0.31765,-3.797888 0,-4.227996 -0.16809,-0.243408 -1.02897,-0.467015 -3.21725,-0.84141 l -2.99271,-0.505565 -0.20641,-1.590487 c -0.13094,-0.87978 -0.24309,-1.776921 -0.24309,-1.983172 -0.0187,-0.33627 0.41128,-0.579724 2.61815,-1.590488 1.45918,-0.654942 2.769,-1.365682 2.89996,-1.571943 0.20621,-0.317696 0.16796,-0.636444 -0.24351,-2.207329 -0.35477,-1.271763 -0.599,-1.889243 -0.85995,-2.038806 -0.31764,-0.168135 -3.46111,0.01838 -5.57416,0.337047 l -0.67329,0.09394 -0.72891,-1.740062 c -0.39288,-0.954061 -0.74863,-1.795845 -0.78577,-1.852542 -0.037,-0.07526 0.99082,-0.9909 2.28191,-2.038808 1.29009,-1.04791 2.37523,-2.039196 2.41335,-2.20733 0.0753,-0.355822 -1.19756,-2.900342 -1.7957,-3.554305 -0.20621,-0.224831 -0.46792,-0.411631 -0.57937,-0.411631 -0.11239,0 -1.42119,0.467202 -2.91849,1.029281 -1.49729,0.562077 -2.76887,1.02928 -2.82457,1.02928 -0.0938,0 -1.40228,-1.645984 -2.30045,-2.89916 -0.1124,-0.149567 0.37411,-0.972817 1.53323,-2.618961 1.08487,-1.496597 1.72109,-2.56295 1.72109,-2.862072 0,-0.673516 -2.35637,-3.031399 -3.02976,-3.031399 -0.2805,0 -1.346821,0.636517 -2.824571,1.684424 -1.291084,0.91692 -2.394299,1.683215 -2.450028,1.683215 -0.07427,0 -0.561023,-0.35563 -1.103461,-0.804316 -0.523862,-0.430108 -1.216021,-0.972999 -1.515094,-1.179258 l -0.560799,-0.392683 1.06637,-2.787887 c 0.579567,-1.533742 1.066368,-2.880683 1.066368,-2.9931 0,-0.112418 -0.186833,-0.374471 -0.411629,-0.579751 -0.654827,-0.579674 -3.198741,-1.870969 -3.534949,-1.795699 -0.186675,0.03714 -1.178962,1.122063 -2.226681,2.394802 l -1.907781,2.338356 -0.673285,-0.299149 c -0.392897,-0.168133 -1.234429,-0.505651 -1.870685,-0.767626 -1.160115,-0.467258 -1.197314,-0.505272 -1.084917,-1.066372 0.05571,-0.317698 0.186729,-1.702888 0.317695,-3.068492 0.186681,-2.095821 0.168153,-2.544306 -0.03709,-2.749587 -0.149534,-0.130986 -1.066346,-0.467347 -2.038803,-0.729326 -1.514894,-0.411538 -1.833647,-0.430247 -2.151288,-0.224965 -0.205242,0.130989 -0.91671,1.441092 -1.571535,2.899565 -1.009603,2.207255 -1.252897,2.638108 -1.590083,2.618558 -0.205244,0 -1.103551,-0.11212 -1.983169,-0.243108 L 71.99724,27.088549 71.492072,24.095448 C 71.117743,21.906766 70.894027,21.045518 70.650667,20.877384 70.435648,20.717558 69.486117,20.63762 68.536873,20.6375 Z m -0.07299,14.862286 a 33.027257,33.027299 0 0 1 5.32e-4,0 33.027257,33.027299 0 0 1 0.0629,0 33.027257,33.027299 0 0 1 25.520329,12.062706 c -0.268035,0.09384 -0.542668,0.194367 -0.824068,0.301566 -0.537545,0.215022 -1.397642,0.416609 -2.580256,0.604747 -1.15573,0.161268 -2.472748,0.2419 -3.951015,0.2419 H 50.091275 c -1.478267,0 -2.795285,-0.08063 -3.951015,-0.2419 -1.155736,-0.188138 -2.015831,-0.389725 -2.580254,-0.604747 -0.210231,-0.08009 -0.412861,-0.152739 -0.615635,-0.225368 a 33.027257,33.027299 0 0 1 25.51953,-12.138904 z m -18.101688,19.81638 h 11.559542 v 5.825738 a 9.9081773,9.9081897 0 0 0 -3.302726,7.385182 9.9081773,9.9081897 0 0 0 3.302726,7.38518 v 14.082565 c 0,2.418985 -0.04033,4.233236 -0.12095,5.442733 -0.08063,1.20949 -0.282222,2.230856 -0.604745,3.064049 -0.236526,0.645069 -1.357372,0.953933 -3.6047,1.189737 A 33.027257,33.027299 0 0 1 35.499936,68.527087 33.027257,33.027299 0 0 1 35.553966,66.64632 c 0.425708,0.320613 0.822472,0.584379 1.034521,0.632565 0.618185,0.134387 1.128862,0.201587 1.532027,0.201587 0.510671,0 0.806328,-0.147831 0.886963,-0.443485 0.483795,-3.010291 2.141618,-5.28967 3.996167,-7.574266 1.854554,-2.284594 5.100848,-4.146554 7.358563,-4.146554 z m 24.770445,0 h 11.559542 c 2.257715,0 5.504008,1.803904 7.358563,4.088498 1.881425,2.284597 3.539255,4.622031 3.996169,7.632322 0.08065,0.295654 0.376299,0.443485 0.88696,0.443485 0.430049,0 0.940725,-0.0672 1.532034,-0.201587 0.21209,-0.04819 0.60911,-0.31186 1.03492,-0.632565 a 33.027257,33.027299 0 0 1 0.0537,1.880767 33.027257,33.027299 0 0 1 -22.091809,31.164264 c -2.247091,-0.235794 -3.367814,-0.544707 -3.604322,-1.189737 -0.18814,-0.430026 -0.335971,-0.913844 -0.443481,-1.451389 -0.08062,-0.56443 -0.147831,-1.263258 -0.201584,-2.09646 -0.02688,-0.833209 -0.05376,-1.545473 -0.08062,-2.136777 V 89.994832 75.912267 a 9.9081773,9.9081897 0 0 0 3.302725,-7.38518 9.9081773,9.9081897 0 0 0 -3.302725,-7.385182 z m -6.648994,8.256827 a 4.9540888,4.9540951 0 0 1 0.04354,0 4.9540888,4.9540951 0 0 1 4.954088,4.954093 4.9540888,4.9540951 0 0 1 -4.954088,4.954095 4.9540888,4.9540951 0 0 1 -4.954088,-4.954095 4.9540888,4.9540951 0 0 1 4.910546,-4.954093 z" />
    <path
       id="path14"
       style="fill:#ffffff;stroke-width:0.00972049"
       d="m 67.743065,20.108334 c -0.944008,-1.19e-4 -1.887886,0.07929 -2.101715,0.237757 -0.24202,0.167205 -0.465471,1.023295 -0.836756,3.199885 l -0.502373,2.976963 -1.581699,0.204879 c -0.874755,0.130268 -1.766728,0.242166 -1.971809,0.242166 -0.33435,0.01849 -0.5763,-0.409431 -1.581298,-2.604491 -0.651207,-1.451385 -1.358173,-2.75288 -1.563253,-2.883145 -0.315883,-0.205118 -0.632408,-0.167099 -2.19433,0.242166 -1.302416,0.353854 -1.878828,0.595645 -2.02754,0.855202 -0.185642,0.353852 0.03678,3.776938 0.335184,5.637587 0.111774,0.558 0.07478,0.594829 -1.078922,1.060481 -0.63274,0.260526 -1.488094,0.594809 -1.860348,0.762984 l -0.688012,0.297497 -1.87879,-2.306597 c -1.041929,-1.28418 -2.027555,-2.363471 -2.194731,-2.400414 -0.353793,-0.07484 -2.883651,1.190837 -3.515419,1.785777 -0.242013,0.205119 -0.427799,0.464754 -0.427799,0.576547 0,0.111796 0.464723,1.413494 1.023593,2.902792 0.5579,1.488325 1.023593,2.752987 1.023593,2.809372 0,0.09332 -1.636932,1.395169 -2.883942,2.288553 -0.148709,0.111794 -0.966919,-0.372229 -2.603688,-1.525167 -1.488053,-1.079063 -2.548432,-1.712006 -2.845852,-1.712006 -0.66967,0 -3.014246,2.344859 -3.014246,3.014651 0,0.279003 0.632787,1.339519 1.674715,2.809373 0.930158,1.28418 1.673512,2.38149 1.673512,2.436902 0,0.07387 -0.353744,0.558236 -0.799869,1.097766 -0.427659,0.521063 -0.948394,1.209257 -1.171941,1.506725 l -0.390914,0.539663 -2.772079,-1.062886 c -1.543458,-0.576471 -2.883424,-1.042039 -2.975757,-1.042038 -0.111774,0 -0.372436,0.185764 -0.576548,0.409357 -0.594834,0.651322 -1.86021,3.181785 -1.785374,3.534669 0.03694,0.167203 1.115661,1.153994 2.399609,2.195133 1.283945,1.04212 2.30664,1.954061 2.269707,2.027945 -0.03693,0.05541 -0.390703,0.893114 -0.781427,1.841908 l -0.725296,1.730449 -0.669565,-0.09342 c -0.372257,-0.05638 -1.74872,-0.20512 -3.051133,-0.315942 -2.009021,-0.185675 -2.436694,-0.185728 -2.641775,0.03688 -0.130242,0.148736 -0.464414,1.060675 -0.724895,2.027946 -0.409192,1.506792 -0.427835,1.823865 -0.223723,2.139805 0.130241,0.205118 1.432819,0.911931 2.883942,1.563256 2.19369,1.005179 2.621352,1.247118 2.602884,1.582503 0,0.204132 -0.111921,1.097298 -0.242165,1.972213 l -0.204879,1.5817 -2.957715,0.502774 c -1.618296,0.279002 -3.051173,0.596006 -3.199881,0.725299 -0.352819,0.279002 -0.371251,3.850449 -0.01844,4.316095 0.167174,0.242063 1.023684,0.465805 3.19988,0.837158 l 2.976158,0.502376 0.20488,1.581701 c 0.130242,0.874911 0.242164,1.767494 0.242164,1.972612 0.01848,0.335383 -0.409424,0.576121 -2.604087,1.5813 -1.451122,0.651324 -2.7533,1.358139 -2.883541,1.563256 -0.20508,0.315943 -0.167424,0.632929 0.241766,2.195136 0.353792,1.284178 0.595114,1.879211 0.855599,2.027944 0.335323,0.167205 3.254983,2.9e-5 5.542958,-0.334383 l 0.669566,-0.09342 0.725295,1.730448 c 0.390724,0.948795 0.74449,1.767456 0.781426,1.842308 0.01848,0.05541 -0.98576,0.966952 -2.269705,2.027544 -1.283947,1.042119 -2.362676,2.028127 -2.39961,2.21478 -0.07484,0.335383 1.209007,2.864896 1.785374,3.516226 0.205082,0.223595 0.46475,0.408957 0.594991,0.408957 0.111774,0 1.394707,-0.464621 2.864296,-1.023595 1.469589,-0.558007 2.734125,-1.023595 2.808968,-1.023595 0.111772,0 1.339102,1.543798 2.306189,2.884349 0.111776,0.14873 -0.372029,0.96743 -1.524763,2.60449 -1.078866,1.48832 -1.711602,2.54879 -1.711602,2.84625 0,0.66981 2.344174,3.01346 3.013846,3.01346 0.278953,0 1.339378,-0.63279 2.808966,-1.67391 1.283948,-0.93034 2.381469,-1.67392 2.455341,-1.67392 0.130237,0 2.957446,2.25127 3.032287,2.40002 0.01848,0.0739 -0.409135,1.33951 -0.985504,2.80935 -0.557898,1.48835 -1.023593,2.77257 -1.023593,2.88437 0,0.13025 0.185785,0.39107 0.427802,0.5962 0.632735,0.59589 3.162599,1.86061 3.515418,1.78576 0.167174,-0.0368 1.15378,-1.11623 2.194729,-2.40041 l 1.878794,-2.3066 0.688007,0.29711 c 0.37226,0.1672 1.227609,0.50286 1.860349,0.76339 1.153705,0.46563 1.190698,0.50248 1.078923,1.06048 -0.0554,0.31592 -0.185698,1.69346 -0.315938,3.05152 -0.185646,2.08426 -0.167224,2.53026 0.03688,2.73441 0.148708,0.13025 1.060445,0.46476 2.027539,0.72529 1.506523,0.40926 1.823517,0.42763 2.139401,0.22252 0.205081,-0.13027 0.911655,-1.43255 1.562853,-2.88394 1.004026,-2.19507 1.245973,-2.62395 1.581297,-2.60449 0.205081,0 1.097456,0.11189 1.972211,0.24216 l 1.581297,0.20408 0.502374,2.97656 c 0.372254,2.17658 0.595141,3.03307 0.837158,3.20029 0.427659,0.31593 3.775769,0.31593 4.203426,0 0.242017,-0.16722 0.465872,-1.02371 0.837158,-3.20029 l 0.502373,-2.97656 1.581298,-0.20408 c 0.874755,-0.13027 1.767123,-0.24216 1.97221,-0.24216 0.334347,-0.0185 0.576297,0.40942 1.581296,2.60449 0.651204,1.45139 1.357771,2.75367 1.562853,2.88394 0.315882,0.20511 0.632806,0.16749 2.194731,-0.24176 1.264508,-0.35289 1.878828,-0.59508 2.02754,-0.85561 0.167173,-0.33441 -0.0185,-3.44243 -0.334381,-5.54417 l -0.09342,-0.66955 1.17234,-0.48515 c 0.651207,-0.26051 1.469623,-0.59576 1.860349,-0.76297 l 0.669563,-0.29752 1.897236,2.32505 c 1.041931,1.26474 2.027358,2.34405 2.213977,2.38196 0.33435,0.0749 2.864606,-1.20929 3.515817,-1.78576 0.223542,-0.20513 0.408958,-0.46475 0.408958,-0.57656 0,-0.0933 -0.465687,-1.43288 -1.042036,-2.93967 -0.557904,-1.52527 -1.004964,-2.82791 -0.967061,-2.92123 0.03688,-0.13026 1.376542,-1.26482 2.585644,-2.19514 0.242022,-0.20415 0.669351,0.0367 2.771682,1.52516 1.543469,1.09754 2.660315,1.76734 2.93927,1.76734 0.669682,0 3.013042,-2.36309 3.013042,-3.01346 0,-0.29746 -0.63271,-1.35793 -1.71159,-2.84625 -1.153708,-1.63706 -1.636549,-2.45576 -1.524778,-2.60449 0.893228,-1.246254 2.194448,-2.884349 2.287768,-2.884349 0.0553,0 1.32091,0.464621 2.80895,1.023595 1.48807,0.557988 2.79061,1.023595 2.90238,1.023595 0.11178,0 0.37205,-0.185362 0.57616,-0.408957 0.57637,-0.65133 1.86062,-3.181817 1.78578,-3.516226 -0.0368,-0.18568 -1.11608,-1.172661 -2.40001,-2.21478 -1.28397,-1.060592 -2.28778,-1.972134 -2.26931,-2.027544 0.0368,-0.07485 0.39071,-0.893513 0.78142,-1.842308 l 0.72489,-1.730448 0.66957,0.09342 c 0.37225,0.05542 1.74871,0.204145 3.05114,0.315939 2.00903,0.185675 2.43669,0.185727 2.64177,-0.03688 0.13026,-0.14873 0.46539,-1.060679 0.72491,-2.027943 0.40918,-1.525264 0.42798,-1.805366 0.22291,-2.158247 -0.14871,-0.20512 -1.39491,-0.893463 -2.88394,-1.563258 -2.21313,-0.985738 -2.62215,-1.227473 -2.60369,-1.562856 0,-0.205118 0.11153,-1.0977 0.24176,-1.972614 l 0.20527,-1.5817 2.97618,-0.502376 c 2.17618,-0.372327 3.03231,-0.595095 3.19946,-0.837157 0.3159,-0.427734 0.3159,-3.776901 0,-4.204635 -0.16715,-0.242062 -1.02328,-0.464433 -3.19946,-0.83676 l -2.97618,-0.502773 -0.20527,-1.581701 c -0.13023,-0.874917 -0.24176,-1.767104 -0.24176,-1.972213 -0.0186,-0.334414 0.40901,-0.576524 2.60369,-1.5817 1.45112,-0.651325 2.75371,-1.358139 2.88394,-1.563259 0.20507,-0.315942 0.16703,-0.632929 -0.24217,-2.195135 -0.35281,-1.264737 -0.59569,-1.878806 -0.85519,-2.027542 -0.31589,-0.167205 -3.44199,0.01828 -5.54336,0.335184 l -0.66957,0.09342 -0.72489,-1.730448 c -0.39071,-0.948792 -0.7445,-1.785926 -0.78143,-1.842309 -0.0368,-0.07485 0.98534,-0.985425 2.26931,-2.027543 1.28295,-1.042119 2.3621,-2.02793 2.40001,-2.195135 0.0749,-0.353856 -1.19095,-2.884318 -1.78578,-3.534668 -0.20507,-0.223589 -0.46534,-0.409357 -0.57616,-0.409357 -0.11177,0 -1.41334,0.464621 -2.90238,1.023595 -1.48901,0.558971 -2.75356,1.023593 -2.80895,1.023593 -0.0933,0 -1.39454,-1.636891 -2.287768,-2.883143 -0.111771,-0.148741 0.372042,-0.967442 1.524778,-2.604492 1.07888,-1.488328 1.71159,-2.54879 1.71159,-2.846259 0,-0.669795 -2.34336,-3.014652 -3.013042,-3.014652 -0.278955,0 -1.33938,0.633001 -2.808972,1.675118 -1.283953,0.911855 -2.381072,1.673916 -2.436492,1.673916 -0.07386,0 -0.557924,-0.353665 -1.097365,-0.799872 -0.520967,-0.427732 -1.209302,-0.967624 -1.506724,-1.172743 l -0.557702,-0.390514 1.060479,-2.772484 c 0.576367,-1.525269 1.060479,-2.864769 1.060479,-2.976564 0,-0.111797 -0.185801,-0.372403 -0.409356,-0.576548 -0.651208,-0.576471 -3.181068,-1.860632 -3.515418,-1.785779 -0.185643,0.03694 -1.172448,1.115865 -2.214377,2.381572 l -1.897236,2.32544 -0.669565,-0.297496 c -0.390726,-0.167204 -1.227607,-0.502857 -1.860349,-0.763385 -1.153705,-0.464677 -1.1907,-0.502481 -1.078923,-1.060481 0.0554,-0.315942 0.185698,-1.693479 0.31594,-3.051539 0.18565,-2.084242 0.167223,-2.530249 -0.03688,-2.734396 -0.148709,-0.130263 -1.060456,-0.464765 -2.027539,-0.725296 -1.506525,-0.409265 -1.823518,-0.42787 -2.139403,-0.223723 -0.204108,0.130266 -0.911646,1.433131 -1.562853,2.883545 -1.004023,2.195061 -1.245975,2.623534 -1.581297,2.604092 -0.204109,0 -1.097456,-0.111501 -1.972211,-0.241765 l -1.581295,-0.205281 -0.502376,-2.976564 c -0.372261,-2.176591 -0.594741,-3.03308 -0.836757,-3.200286 -0.213831,-0.158943 -1.158115,-0.238438 -2.102114,-0.238558 z m -0.07258,14.780175 a 32.84478,32.84483 0 0 1 4.02e-4,0 32.84478,32.84483 0 0 1 0.06255,0 32.84478,32.84483 0 0 1 25.379329,11.996061 c -0.266557,0.09332 -0.539673,0.193294 -0.819517,0.299902 -0.534575,0.213832 -1.389918,0.414306 -2.565999,0.601405 -1.149345,0.160376 -2.459085,0.240565 -3.929184,0.240565 h -36.39869 c -1.470099,0 -2.779839,-0.08019 -3.929184,-0.240565 -1.149352,-0.187099 -2.004694,-0.387573 -2.565999,-0.601405 -0.209069,-0.07965 -0.41058,-0.151895 -0.612233,-0.224124 A 32.84478,32.84483 0 0 1 67.670493,34.888509 Z M 49.668806,54.595407 h 11.495675 v 5.793553 a 9.853434,9.8534489 0 0 0 -3.284479,7.34438 9.853434,9.8534489 0 0 0 3.284479,7.344379 v 14.00476 c 0,2.405621 -0.0401,4.20985 -0.120282,5.412661 -0.08018,1.20281 -0.280661,2.21853 -0.601404,3.04713 -0.235218,0.6415 -1.349872,0.94866 -3.584783,1.18316 a 32.84478,32.84483 0 0 1 -21.969353,-30.99209 32.84478,32.84483 0 0 1 0.05373,-1.870376 c 0.423355,0.318841 0.817928,0.58115 1.028805,0.62907 0.614769,0.133645 1.122625,0.200472 1.523562,0.200472 0.507851,0 0.801874,-0.147013 0.882063,-0.441033 0.481122,-2.99366 2.129785,-5.260447 3.974088,-7.532421 1.844308,-2.271972 5.072666,-4.123645 7.317906,-4.123645 z m 24.633587,0 h 11.495675 c 2.245241,0 5.4736,1.793939 7.317907,4.06591 1.871028,2.271974 3.519698,4.596496 3.974088,7.590156 0.08019,0.29402 0.37422,0.441033 0.882063,0.441033 0.427671,0 0.935532,-0.06683 1.523565,-0.200472 0.210924,-0.04793 0.605749,-0.310137 1.029209,-0.62907 a 32.84478,32.84483 0 0 1 0.0534,1.870376 32.84478,32.84483 0 0 1 -21.96976,30.99209 C 76.373863,98.49094 75.259332,98.18373 75.02413,97.54227 74.837031,97.11461 74.690016,96.63347 74.5831,96.09889 74.50292,95.53758 74.436087,94.84261 74.38263,94.01402 74.3559,93.185411 74.32916,92.477082 74.30245,91.889045 V 89.082479 75.077719 A 9.853434,9.8534489 0 0 0 77.586928,67.73334 9.853434,9.8534489 0 0 0 74.30245,60.38896 Z m -6.612258,8.211209 a 4.9267174,4.9267247 0 0 1 0.0433,0 4.9267174,4.9267247 0 0 1 4.926716,4.926724 4.9267174,4.9267247 0 0 1 -4.926716,4.926724 4.9267174,4.9267247 0 0 1 -4.926718,-4.926724 4.9267174,4.9267247 0 0 1 4.883415,-4.926724 z" />
    <g
       aria-label="T"
       id="text60"
       style="font-style:normal;font-weight:normal;font-size:105.833px;line-height:1.25;font-family:sans-serif;fill:#000000;fill-opacity:1;stroke:none;stroke-width:0.264583" />
    <text
       xml:space="preserve"
       style="font-style:normal;font-weight:normal;font-size:105.833px;line-height:1.25;font-family:sans-serif;fill:#000000;fill-opacity:1;stroke:none;stroke-width:0.264583"
       x="-178.3136"
       y="90.057983"
       id="text60-2"><tspan
         sodipodi:role="line"
         id="tspan58-4"
         x="-178.3136"
         y="90.057983"
         style="font-style:normal;font-variant:normal;font-weight:bold;font-stretch:normal;font-size:105.833px;font-family:'Crimson Text';-inkscape-font-specification:'Crimson Text Bold';stroke-width:0.264583">T</tspan></text>
    <path
       id="path14-8"
       style="stroke-width:0.0125286"
       d="m -253.98759,107.95 c -1.21673,-1.6e-4 -2.43328,0.10219 -2.70888,0.30644 -0.31194,0.21551 -0.59994,1.31891 -1.07849,4.12429 l -0.6475,3.83698 -2.03864,0.26406 c -1.12746,0.1679 -2.27712,0.31213 -2.54145,0.31213 -0.43094,0.0238 -0.74279,-0.52771 -2.03812,-3.3569 -0.83933,-1.87067 -1.75053,-3.54816 -2.01486,-3.71605 -0.40714,-0.26438 -0.8151,-0.21537 -2.82825,0.31212 -1.67867,0.45608 -2.4216,0.76772 -2.61328,1.10226 -0.23927,0.45608 0.0474,4.86805 0.43202,7.26622 0.14406,0.7192 0.0964,0.76667 -1.39062,1.36685 -0.81553,0.33579 -1.91799,0.76664 -2.39778,0.9834 l -0.88677,0.38344 -2.42156,-2.97295 c -1.34293,-1.65516 -2.6133,-3.04625 -2.82877,-3.09387 -0.456,-0.0965 -3.71671,1.53486 -4.53099,2.30167 -0.31192,0.26438 -0.55138,0.59902 -0.55138,0.74311 0,0.14409 0.59897,1.82183 1.3193,3.74137 0.71907,1.91829 1.3193,3.5483 1.3193,3.62097 0,0.12029 -2.10983,1.79822 -3.71709,2.94969 -0.19167,0.14409 -1.24625,-0.47976 -3.35587,-1.96577 -1.91794,-1.39079 -3.28465,-2.20658 -3.66799,-2.20658 -0.86314,0 -3.88504,3.02226 -3.88504,3.88555 0,0.3596 0.8156,1.72649 2.15853,3.62096 1.19887,1.65517 2.15697,3.06948 2.15697,3.1409 0,0.0952 -0.45593,0.71951 -1.03094,1.4149 -0.55121,0.67159 -1.22238,1.5586 -1.5105,1.942 l -0.50385,0.69556 -3.57291,-1.36994 c -1.98934,-0.74301 -3.71641,-1.34307 -3.83542,-1.34307 -0.14407,0 -0.48003,0.23943 -0.74311,0.52762 -0.76667,0.83948 -2.39761,4.10096 -2.30115,4.55579 0.0476,0.21551 1.43797,1.48737 3.09283,2.82929 1.65487,1.34317 2.97301,2.51856 2.92541,2.61379 -0.0476,0.0714 -0.50358,1.15113 -1.00718,2.37402 l -0.93482,2.23035 -0.863,-0.1204 c -0.4798,-0.0727 -2.25391,-0.26438 -3.93258,-0.40722 -2.58941,-0.23931 -3.14063,-0.23938 -3.40496,0.0476 -0.16786,0.1917 -0.59857,1.36709 -0.93431,2.61379 -0.5274,1.94209 -0.55143,2.35076 -0.28835,2.75797 0.16787,0.26438 1.84675,1.17538 3.71709,2.01487 2.82742,1.29556 3.37863,1.60739 3.35483,2.03967 0,0.26311 -0.14426,1.41429 -0.31213,2.54196 l -0.26406,2.03864 -3.81217,0.64802 c -2.08581,0.3596 -3.93263,0.76818 -4.1243,0.93482 -0.45474,0.35961 -0.4785,4.9628 -0.0238,5.56297 0.21547,0.31199 1.31942,0.60037 4.1243,1.079 l 3.83594,0.64751 0.26406,2.03864 c 0.16787,1.12766 0.31213,2.2781 0.31213,2.54248 0.0238,0.43227 -0.5277,0.74255 -3.35638,2.03812 -1.87034,0.83948 -3.54871,1.75048 -3.71657,2.01486 -0.26433,0.40721 -0.21579,0.81577 0.31161,2.82928 0.456,1.65517 0.76703,2.4221 1.10277,2.6138 0.43219,0.21551 4.19532,4e-5 7.14427,-0.43098 l 0.86299,-0.12041 0.93483,2.23035 c 0.5036,1.2229 0.95957,2.27806 1.00717,2.37454 0.0238,0.0714 -1.27053,1.24629 -2.9254,2.61327 -1.65487,1.34318 -3.04523,2.61403 -3.09283,2.85461 -0.0965,0.43227 1.55827,3.69253 2.30115,4.53202 0.26433,0.28819 0.59901,0.5271 0.76688,0.5271 0.14406,0 1.79762,-0.59884 3.69176,-1.3193 1.89414,-0.71921 3.52399,-1.3193 3.62045,-1.3193 0.14407,0 1.72596,1.98979 2.97243,3.71761 0.14406,0.1917 -0.47951,1.24691 -1.96525,3.3569 -1.39055,1.91828 -2.20607,3.28509 -2.20607,3.66851 0,0.86328 3.02138,3.884 3.88452,3.884 0.35954,0 1.72631,-0.81559 3.62045,-2.15749 1.65486,-1.1991 3.06945,-2.15749 3.16466,-2.15749 0.16786,0 3.81183,2.90164 3.90829,3.09335 0.0238,0.0952 -0.52733,1.72648 -1.27021,3.62097 -0.71907,1.91828 -1.3193,3.57351 -1.3193,3.7176 0,0.16788 0.23946,0.50405 0.55139,0.76843 0.81553,0.76805 4.07625,2.39814 4.53099,2.30167 0.21547,-0.0475 1.48709,-1.43869 2.82877,-3.09387 l 2.42156,-2.97295 0.88676,0.38293 c 0.47981,0.21551 1.58226,0.64813 2.39779,0.98392 1.487,0.60017 1.53468,0.64764 1.39061,1.36684 -0.0714,0.4072 -0.23934,2.18271 -0.40721,3.93309 -0.23927,2.68637 -0.21553,3.26121 0.0475,3.52433 0.19167,0.1679 1.3668,0.59904 2.61328,0.93483 1.94174,0.5275 2.35031,0.55118 2.75745,0.28681 0.26433,-0.16791 1.17502,-1.8464 2.01435,-3.71709 1.29408,-2.82919 1.60592,-3.38196 2.03812,-3.3569 0.26433,0 1.4145,0.14423 2.54196,0.31213 l 2.03812,0.26303 0.64751,3.83646 c 0.47979,2.80537 0.76707,3.9093 1.079,4.12481 0.55121,0.40721 4.86655,0.40721 5.41776,0 0.31193,-0.21551 0.60046,-1.31944 1.079,-4.12481 l 0.64751,-3.83646 2.03812,-0.26303 c 1.12746,-0.1679 2.27763,-0.31213 2.54196,-0.31213 0.43094,-0.0238 0.74278,0.52771 2.03812,3.3569 0.83933,1.87069 1.75002,3.54918 2.01435,3.71709 0.40713,0.26437 0.81561,0.21588 2.82876,-0.31161 1.62982,-0.45484 2.42161,-0.76698 2.61328,-1.10278 0.21547,-0.43102 -0.0238,-4.43691 -0.43098,-7.14582 l -0.12041,-0.86299 1.51102,-0.62529 c 0.83934,-0.33579 1.89419,-0.76788 2.39779,-0.9834 l 0.86299,-0.38344 2.44533,2.99672 c 1.34294,1.63011 2.61305,3.02123 2.85358,3.0701 0.43094,0.0965 3.69216,-1.55866 4.5315,-2.30167 0.28812,-0.26438 0.5271,-0.599 0.5271,-0.74311 0,-0.12028 -0.60021,-1.84683 -1.34307,-3.78892 -0.71907,-1.9659 -1.29529,-3.64485 -1.24643,-3.76514 0.0475,-0.1679 1.77421,-1.63021 3.33261,-2.82929 0.31194,-0.26312 0.86272,0.0474 3.57239,1.96578 1.98937,1.4146 3.42886,2.27789 3.78841,2.27789 0.86314,0 3.88348,-3.04577 3.88348,-3.884 0,-0.38342 -0.81552,-1.75023 -2.20607,-3.66851 -1.487,-2.10999 -2.10932,-3.1652 -1.96525,-3.3569 1.15127,-1.60628 2.82839,-3.71761 2.94866,-3.71761 0.0713,0 1.70252,0.59885 3.62045,1.3193 1.91794,0.71919 3.59677,1.3193 3.74085,1.3193 0.14407,0 0.47952,-0.23891 0.74259,-0.5271 0.74287,-0.83949 2.39814,-4.101 2.30167,-4.53202 -0.0475,-0.23932 -1.43849,-1.51143 -3.09335,-2.85461 -1.65488,-1.36698 -2.94869,-2.54186 -2.92489,-2.61327 0.0476,-0.0965 0.50359,-1.15164 1.00718,-2.37454 l 0.93431,-2.23035 0.86299,0.12041 c 0.47981,0.0714 2.25391,0.26312 3.93258,0.40721 2.58941,0.23931 3.14063,0.23938 3.40496,-0.0475 0.16787,-0.19171 0.59983,-1.3671 0.93431,-2.6138 0.52741,-1.96589 0.55164,-2.32691 0.28732,-2.78174 -0.19167,-0.26438 -1.79789,-1.15157 -3.71708,-2.01486 -2.8525,-1.27051 -3.37967,-1.58208 -3.35587,-2.01435 0,-0.26438 0.14375,-1.41481 0.31161,-2.54248 l 0.26458,-2.03864 3.83594,-0.6475 c 2.80487,-0.47989 3.90833,-0.76701 4.12378,-1.07901 0.40715,-0.5513 0.40715,-4.868 0,-5.4193 -0.21545,-0.31199 -1.31891,-0.5986 -4.12378,-1.07849 l -3.83594,-0.64802 -0.26458,-2.03864 c -0.16786,-1.12767 -0.31161,-2.27759 -0.31161,-2.54196 -0.024,-0.43102 0.52718,-0.74308 3.35587,-2.03864 1.87034,-0.83948 3.54922,-1.75049 3.71708,-2.01486 0.26432,-0.40722 0.21528,-0.81578 -0.31212,-2.82929 -0.45474,-1.6301 -0.76778,-2.42157 -1.10226,-2.61327 -0.40714,-0.21551 -4.43635,0.0236 -7.14479,0.43201 l -0.86299,0.12041 -0.93431,-2.23036 c -0.50359,-1.22289 -0.95957,-2.30186 -1.00718,-2.37453 -0.0475,-0.0965 1.27001,-1.2701 2.92489,-2.61328 1.6536,-1.34317 3.04451,-2.61377 3.09335,-2.82928 0.0965,-0.45608 -1.53499,-3.71757 -2.30167,-4.5558 -0.26432,-0.28818 -0.59978,-0.52761 -0.74259,-0.52761 -0.14408,0 -1.82165,0.59884 -3.74085,1.3193 -1.91918,0.72045 -3.54906,1.3193 -3.62045,1.3193 -0.12027,0 -1.79739,-2.10977 -2.94866,-3.71605 -0.14407,-0.19171 0.47951,-1.24692 1.96525,-3.3569 1.39055,-1.91829 2.20607,-3.28511 2.20607,-3.66852 0,-0.86329 -3.02034,-3.88555 -3.88348,-3.88555 -0.35955,0 -1.72633,0.81587 -3.62046,2.15904 -1.65488,1.17528 -3.06895,2.1575 -3.14038,2.1575 -0.0952,0 -0.7191,-0.45584 -1.41438,-1.03095 -0.67147,-0.5513 -1.55866,-1.24716 -1.942,-1.51153 l -0.71882,-0.50333 1.36684,-3.57343 c 0.74288,-1.9659 1.36684,-3.69237 1.36684,-3.83646 0,-0.14409 -0.23947,-0.47998 -0.52761,-0.7431 -0.83934,-0.74301 -4.10005,-2.39815 -4.53099,-2.30167 -0.23928,0.0476 -1.51116,1.43822 -2.85409,3.06958 l -2.44533,2.99723 -0.863,-0.38344 c -0.5036,-0.21551 -1.58225,-0.64813 -2.39778,-0.98392 -1.487,-0.59892 -1.53468,-0.64764 -1.39061,-1.36684 0.0714,-0.40722 0.23934,-2.18271 0.40721,-3.9331 0.23928,-2.68635 0.21553,-3.26121 -0.0476,-3.52433 -0.19166,-0.16789 -1.3668,-0.59903 -2.61327,-0.93483 -1.94175,-0.52749 -2.35032,-0.55147 -2.75746,-0.28835 -0.26307,0.1679 -1.17501,1.84715 -2.01434,3.71657 -1.29408,2.82919 -1.60593,3.38144 -2.03812,3.35638 -0.26308,0 -1.4145,-0.14371 -2.54197,-0.31161 l -2.03811,-0.26458 -0.64751,-3.83646 c -0.4798,-2.80538 -0.76655,-3.9093 -1.07849,-4.12481 -0.2756,-0.20486 -1.49267,-0.30732 -2.70939,-0.30747 z m -0.093,19.05 a 42.333331,42.333331 0 0 1 0.0806,0 42.333331,42.333331 0 0 1 42.33333,42.33333 A 42.333331,42.333331 0 0 1 -254,211.66667 42.333331,42.333331 0 0 1 -296.33333,169.33333 42.333331,42.333331 0 0 1 -254.08061,127 Z" />
    <g
       aria-label="T"
       id="text60-8"
       style="font-style:normal;font-weight:normal;font-size:105.833px;line-height:1.25;font-family:sans-serif;fill:#000000;fill-opacity:1;stroke:none;stroke-width:0.264583"
       transform="translate(-321.73333,101.6)">
      <path
         d="m 23.283333,63.499999 7.38369,-23.027012 c 0.482312,-0.206705 0.947399,-0.310058 1.39526,-0.310058 0.41341,0 0.947398,0.120578 1.601964,0.361734 0.654566,0.206705 1.343583,0.447861 2.067051,0.723468 0.723467,0.275607 1.825894,0.533988 3.307281,0.775144 1.481387,0.206705 3.169478,0.310058 5.064275,0.310058 h 46.913812 c 1.894797,0 3.582888,-0.103353 5.064275,-0.310058 1.515837,-0.241156 2.618264,-0.499537 3.307281,-0.775144 0.723468,-0.275607 1.412488,-0.516763 2.067058,-0.723468 0.65456,-0.241156 1.18855,-0.361734 1.60196,-0.361734 0.44786,0 0.91295,0.103353 1.39526,0.310058 l 7.73083,23.027012 c -0.17225,0.172255 -2.754,2.461176 -3.51192,2.63343 -0.75791,0.172254 -1.41248,0.258381 -1.9637,0.258381 -0.65456,0 -1.03352,-0.18948 -1.13687,-0.568439 -0.58566,-3.858495 -2.71062,-6.854471 -5.12217,-9.782793 -2.377109,-2.928322 -6.538132,-5.240579 -9.432004,-5.240579 H 76.199999 v 44.45 3.617339 c 0.03445,0.757919 0.0689,1.670862 0.103353,2.738842 0.0689,1.06797 0.155028,1.9637 0.258381,2.68717 0.137803,0.68901 0.327283,1.30913 0.568439,1.86034 0.378959,1.03353 2.488704,1.396 7.036216,1.74051 0.275607,0.41341 0.396184,1.13688 0.361733,2.17041 0,1.03352 -0.120578,1.73976 -0.361733,2.11872 -5.27098,-0.55121 -10.783116,-0.82682 -16.536407,-0.82682 -5.615488,0 -11.058722,0.27561 -16.329701,0.82682 -0.241156,-0.37896 -0.378959,-1.0852 -0.41341,-2.11872 0,-1.03353 0.137803,-1.757 0.41341,-2.17041 4.547512,-0.34451 6.657255,-0.70698 7.036214,-1.74051 0.41341,-1.06797 0.671791,-2.3771 0.775144,-3.92739 0.103352,-1.55029 0.155028,-3.875725 0.155028,-6.976301 v -44.45 H 44.449999 c -2.893871,0 -7.054892,2.386765 -9.432001,5.315087 -2.377108,2.928322 -4.502047,5.84979 -5.122162,9.708285 -0.103353,0.378959 -0.482312,0.568439 -1.136878,0.568439 -0.516763,0 -1.171329,-0.08613 -1.963698,-0.258381 -0.757919,-0.172254 -3.339672,-2.461175 -3.511927,-2.63343 z"
         style="font-style:normal;font-variant:normal;font-weight:bold;font-stretch:normal;font-size:105.833px;font-family:'Crimson Text';-inkscape-font-specification:'Crimson Text Bold';stroke-width:0.264583"
         id="path860-3"
         sodipodi:nodetypes="ccscscsscccsccssccscccccccccsccccsscsscscc" />
    </g>
    <circle
       style="fill:#000000;fill-opacity:1;stroke-width:0.264583"
       id="path863-5"
       cx="-254"
       cy="169.33333"
       r="12.7" />
    <circle
       style="fill:#ffffff;fill-opacity:1;stroke-width:0.15875"
       id="path865-2"
       cx="-254"
       cy="169.33333"
       r="6.3499999" />
  </g>
</svg>
