<?xml version="1.0" encoding="UTF-8" standalone="no"?>
<svg
   xmlns:dc="http://purl.org/dc/elements/1.1/"
   xmlns:cc="http://creativecommons.org/ns#"
   xmlns:rdf="http://www.w3.org/1999/02/22-rdf-syntax-ns#"
   xmlns:svg="http://www.w3.org/2000/svg"
   xmlns="http://www.w3.org/2000/svg"
   viewBox="0 0 856.53333 344.74667"
   height="344.74667"
   width="856.53333"
   xml:space="preserve"
   id="svg2"
   version="1.1"><metadata
     id="metadata8"><rdf:RDF><cc:Work
         rdf:about=""><dc:format>image/svg+xml</dc:format><dc:type
           rdf:resource="http://purl.org/dc/dcmitype/StillImage" /></cc:Work></rdf:RDF></metadata><defs
     id="defs6" /><g
     transform="matrix(1.3333333,0,0,-1.3333333,0,344.74667)"
     id="g10"><g
       transform="scale(0.1)"
       id="g12"><path
         id="path14"
         style="fill:#ffffff;fill-opacity:1;fill-rule:nonzero;stroke:none"
         d="M 0,0 H 6436 V 2590 H 0 Z" /><g
         transform="scale(0.999609,-1.00039)"
         id="g16"><path
           id="path18"
           style="fill:none;stroke:#000000;stroke-width:15.62069988;stroke-linecap:butt;stroke-linejoin:miter;stroke-miterlimit:4;stroke-dasharray:none;stroke-opacity:1"
           d="m 476.382,-1691.11 h 358.214 v -316.02 H 476.382 Z" /></g><g
         transform="matrix(0,-1.00039,-0.999609,0,0,0)"
         id="g20"><path
           id="path22"
           style="fill:none;stroke:#000000;stroke-width:15.62069988;stroke-linecap:butt;stroke-linejoin:miter;stroke-miterlimit:4;stroke-dasharray:none;stroke-opacity:1"
           d="m -1294.49,-3568.32 v 383.85" /></g><g
         transform="scale(0.999609,-1.00039)"
         id="g24"><path
           id="path26"
           style="fill:none;stroke:#000000;stroke-width:15.62069988;stroke-linecap:butt;stroke-linejoin:miter;stroke-miterlimit:4;stroke-dasharray:none;stroke-opacity:1"
           d="m 1462.58,-1691.11 h 358.22 v -316.02 h -358.22 z" /></g><path
         id="path28"
         style="fill:#000000;fill-opacity:1;fill-rule:nonzero;stroke:none"
         d="m 545,2092 v -2 h -33 v 2 h 2.719 c 2.937,0 5.484,0.96 6.922,2.89 0.691,1.3 1.359,4.3 1.359,9.11 v 51.98 c 0,4.07 -0.246,6.75 -0.734,8.05 -0.465,1.3 -1.153,1.82 -2.328,2.53 -1.981,1.1 -3.407,1.42 -5.219,1.42 H 512 v 2 h 33 v -2 h -2.766 c -3.203,0.01 -5.402,-0.96 -6.828,-2.89 -1.074,-0.96 -1.406,-4.29 -1.406,-9.11 V 2104 c 0,-4.06 0.242,-6.75 0.734,-8.05 0.129,-0.96 1.164,-1.82 2.375,-2.53 1.579,-0.76 3.321,-1.42 5.125,-1.42 H 545" /><path
         id="path30"
         style="fill:#000000;fill-opacity:1;fill-rule:nonzero;stroke:none"
         d="m 569,2133.83 c 6.313,7.49 12.332,11.15 18.063,11.15 2.914,0.01 5.46,-0.73 7.578,-2.18 1.91,-1.39 3.812,-3.87 5.062,-7.22 0.629,-2.19 1.297,-5.9 1.297,-10.74 V 2102 c 0,-3.4 0.266,-5.7 0.797,-6.91 0.148,-0.66 1.094,-1.73 2.031,-2.28 0.66,-0.48 2.66,-0.81 5.172,-0.81 v -2 h -26 v 2 h 1.031 c 2.289,0 3.91,0.38 4.828,1.14 0.641,1.05 1.567,1.88 1.922,3.36 -0.117,0.75 0.219,2.41 0.219,5.5 v 22.02 c 0,5.22 -0.633,8.44 -1.891,10.65 -1.289,2.32 -3.371,3.31 -6.359,3.31 -4.855,0.01 -9.187,-2.53 -13.75,-7.59 V 2102 c 0,-3.62 0.195,-5.87 0.594,-6.72 0.301,-0.9 1.187,-1.97 2.062,-2.5 0.657,-0.45 2.657,-0.78 5.344,-0.78 v -2 h -26 v 2 h 1.156 c 2.633,0 4.5,0.69 5.438,2.08 0.738,1.69 1.406,4.02 1.406,7.92 v 21 c 0,6.21 -0.133,9.98 -0.391,11.33 -0.464,1.58 -0.664,2.28 -1.203,2.78 -0.668,0.8 -1.246,0.77 -2.14,0.77 -1.059,0.03 -2.133,-0.3 -3.485,-0.9 l -0.781,2 15.578,6 H 569 v -11.15" /><path
         id="path32"
         style="fill:#000000;fill-opacity:1;fill-rule:nonzero;stroke:none"
         d="m 611,2138.98 15.859,6 H 629 v -12.18 c 2.75,4.58 5.508,7.66 8.281,9.47 2.688,2.05 5.703,2.71 8.766,2.71 5.336,0.01 9.812,-2.07 13.375,-6.23 4.242,-4.98 6.578,-11.67 6.578,-19.81 0,-9.1 -2.637,-16.65 -7.906,-22.61 -4.375,-4.67 -9.813,-7.33 -16.406,-7.33 -3.106,0 -5.36,0.45 -7.454,1.34 -1.632,0.87 -3.296,1.93 -5.234,3.86 V 2076 c 0,-3.58 0.195,-5.86 0.594,-6.83 0.195,-0.69 1.082,-1.74 2.062,-2.31 0.758,-0.52 2.758,-0.86 5.344,-0.86 v -2 h -28 v 2 h 1.578 c 2.11,-0.04 4.27,0.34 5.906,1.16 0.629,0.68 1.407,1.06 1.844,1.97 0.336,1.18 0.672,3.18 0.672,6.87 v 53 c 0,3.22 -0.141,5.26 -0.422,6.13 -0.465,1.16 -0.715,1.53 -1.328,1.98 -0.687,0.75 -1.422,0.69 -2.453,0.69 -1.102,0.06 -1.891,-0.28 -3.172,-0.82 z m 18,-9.56 v -19.64 c 0,-4.18 0.176,-7.05 0.531,-8.39 0.375,-2.01 1.895,-4.17 4.032,-5.86 1.957,-1.53 4.847,-2.53 8.109,-2.53 3.703,0 7.109,1.49 9.547,4.48 3.113,4.08 4.781,9.4 4.781,16.49 0,8.05 -1.809,14.22 -5.422,18.55 -2.715,3.14 -5.512,4.46 -8.969,4.46 -2.089,0.01 -3.75,-0.46 -5.593,-1.37 -1.422,-0.56 -3.758,-2.75 -7.016,-6.19" /><path
         id="path34"
         style="fill:#000000;fill-opacity:1;fill-rule:nonzero;stroke:none"
         d="M 721,2143.98 V 2111 c 0,-6.16 0.129,-9.92 0.391,-11.3 0.129,-1.27 0.675,-2.34 1.25,-2.89 0.359,-0.48 1.238,-0.81 2,-0.81 0.859,0 2.281,0.33 3.625,1 l 0.734,-2 -15.453,-6 H 711 v 11.16 c -4.617,-4.63 -8.137,-8 -10.562,-9.27 -2.575,-1.22 -4.997,-1.89 -7.704,-1.89 -3.257,0 -5.625,0.87 -7.843,2.61 -2.508,1.88 -3.746,3.99 -4.61,6.73 -0.949,2.96 -1.281,6.62 -1.281,11.63 v 24.01 c 0,2.47 -0.242,4.16 -0.719,5.11 -0.574,1.25 -1.195,1.68 -2.14,2.19 -0.996,0.75 -2.664,0.74 -5.141,0.7 v 2 h 18 v -35.82 c 0,-4.71 0.859,-8.27 2.578,-9.83 1.535,-1.33 3.813,-2.33 6.25,-2.33 1.379,0 3.535,0.52 5.641,1.58 1.957,1.19 4.625,3.05 7.531,6.01 v 30.39 c 0,3.09 -0.523,5.17 -1.562,6.25 -1.18,1.34 -3.18,1.67 -6.438,1.75 v 2 h 18" /><path
         id="path36"
         style="fill:#000000;fill-opacity:1;fill-rule:nonzero;stroke:none"
         d="m 749,2161.98 v -18 h 12.531 v -4 H 749 v -35.06 c 0,-3.48 0.457,-5.87 1.375,-7.09 0.801,-1.17 2.113,-1.83 3.563,-1.83 0.875,0 2.335,0.34 3.453,1.02 0.992,1 1.992,1.67 2.609,2.98 h 3 c -1.375,-3.65 -3.324,-6.39 -5.844,-8.23 -2.562,-1.77 -5.105,-2.77 -7.781,-2.77 -1.93,0 -3.57,0.5 -5.297,1.5 -1.758,1.18 -3.012,2.45 -3.844,4.33 -0.902,1.93 -1.234,4.77 -1.234,8.69 v 36.46 h -9 v 1.9 c 2.301,0.9 4.656,2.32 7.063,4.39 2.382,2.3 4.617,4.53 6.64,7.4 0.797,1.62 2.461,4.28 4.297,8.31 h 1" /><path
         id="path38"
         style="fill:#000000;fill-opacity:1;fill-rule:nonzero;stroke:none"
         d="M 803,2144.98 V 2127 h -2 c -1.5,5.41 -3.43,9.1 -5.781,11.05 -2.418,2.27 -5.336,2.93 -8.969,2.93 -2.855,0.01 -5.008,-0.69 -6.703,-2.09 -1.883,-1.35 -2.547,-2.92 -2.547,-4.61 0,-1.84 0.629,-3.87 1.891,-5.37 0.922,-1.52 3.703,-3.18 7.453,-4.91 l 8.64,-3.98 c 7.68,-3.48 12.016,-8.81 12.016,-15.02 0,-4.8 -1.875,-8.67 -5.625,-11.61 -3.875,-2.73 -7.949,-4.39 -12.594,-4.39 -3.593,0 -7.14,0.5 -11.422,1.5 -1.433,0.5 -2.386,0.5 -3.218,0.5 -0.953,0 -1.621,-0.67 -2.141,-2 h -2 v 18 h 2 c 1.102,-4.64 3.207,-8.13 6.313,-10.48 3.007,-2.19 6.601,-3.52 10.468,-3.52 2.457,0 4.93,0.77 6.641,2.31 1.578,1.77 2.578,3.4 2.578,5.57 0,2.66 -0.898,4.83 -2.687,6.62 -1.899,1.96 -5.563,4.01 -11.313,6.66 -5.75,2.93 -9.523,5.09 -11.312,7.31 -2.024,2.36 -2.688,4.95 -2.688,8.3 0,4.39 1.531,7.92 4.594,10.84 2.863,3.05 7.023,4.37 11.89,4.37 1.961,0.01 4.711,-0.4 7.766,-1.2 1.926,-0.46 3.352,-0.8 4.031,-0.8 0.532,0.01 1.114,0.12 1.469,0.36 0.102,0.47 0.77,0.8 1.25,1.64 h 2" /><path
         id="path40"
         style="fill:#000000;fill-opacity:1;fill-rule:nonzero;stroke:none"
         d="m 94.8594,1920.69 c 5.2426,-1.08 9.6716,-3.06 12.4216,-5.64 3.719,-3.29 5.719,-8.02 5.719,-13.24 0,-3.9 -1.246,-7.75 -3.734,-11.37 -2.571,-3.44 -5.883,-6.28 -10.2035,-7.94 C 94.7188,1881 88.1328,1880 79.25,1880 H 42 v 2 h 2.8594 c 2.8906,0 5.457,1.06 6.8437,3.19 0.6289,1.65 1.2969,4.32 1.2969,8.81 v 51.98 c 0,4.98 -0.543,8.11 -1.625,9.41 -1.5859,1.93 -3.6328,2.59 -6.5156,2.59 H 42 v 2 h 33.9375 c 6.0195,0.01 11.4102,-0.47 15.2344,-1.42 5.7226,-1.27 10.1951,-3.93 13.2501,-7.54 2.91,-3.29 4.578,-7.78 4.578,-12.47 0,-3.87 -1.195,-7.62 -3.578,-10.8 -2.527,-3.09 -5.9064,-5.53 -10.5626,-7.06 z M 64,1923.81 c 1.4453,-0.21 3.1016,-0.48 4.9688,-0.62 1.5507,0.13 3.9257,-0.21 6.1562,-0.21 5.6953,0.01 10.0508,0.62 12.9375,1.86 2.8633,1.3 4.9258,3.16 6.125,5.72 1.1445,2.72 1.8125,5.38 1.8125,8.42 0,4.71 -1.8516,8.71 -5.5469,12.02 -3.8398,3.32 -9.0781,4.98 -16.1718,4.98 -3.8985,0.01 -7.2305,-0.43 -10.2813,-1.29 z m 0,-38.22 c 4.6328,-0.93 9.2109,-1.59 13.7344,-1.59 6.9922,0 12.7578,1.6 16.5625,4.81 C 98,1892.09 100,1896 100,1900.73 c 0,3.21 -0.9609,6.11 -2.875,8.99 -1.9492,2.97 -4.7656,5.14 -8.5781,6.8 -3.9844,1.81 -8.5117,2.48 -14.125,2.48 -2.5781,0 -4.5235,-0.04 -6.25,-0.12 -1.7774,-0.04 -3.1094,-0.22 -4.1719,-0.41 v -32.88" /><path
         id="path42"
         style="fill:#000000;fill-opacity:1;fill-rule:nonzero;stroke:none"
         d="m 154,1887.95 c -5.531,-4.29 -9,-6.8 -10.406,-7.47 -2.324,-0.81 -4.383,-1.48 -6.766,-1.48 -4.008,0 -6.805,1.24 -9.219,3.73 -2.609,2.58 -3.609,5.77 -3.609,9.85 0,2.7 0.586,4.78 1.766,6.67 1.347,2.85 4.394,5.05 8.375,7.34 3.941,2.44 10.609,5.11 19.859,8.41 v 2.09 c 0,5.61 -0.855,8.95 -2.562,10.93 -1.856,2.3 -4.188,2.96 -7.438,2.96 -2.469,0.01 -4.43,-0.64 -5.875,-1.92 -1.543,-0.96 -2.25,-2.73 -2.25,-4.39 l 0.125,-3.26 c 0,-1.53 -0.465,-3.07 -1.391,-4 -1.132,-0.75 -2.14,-1.41 -3.64,-1.41 -1.781,0 -2.653,0.5 -3.578,1.5 -1.059,1.18 -1.391,2.39 -1.391,4.14 0,3.44 1.738,6.38 5.219,9.16 3.414,2.86 8.379,4.18 14.672,4.18 4.535,0.01 8.789,-0.8 11.875,-2.4 2.078,-1.07 4.054,-3.11 5.172,-5.69 0.394,-1.65 1.062,-5.12 1.062,-10.31 v -18.25 c 0,-4.9 0.094,-8.27 0.281,-9.42 0.102,-1.13 0.516,-1.94 0.953,-2.33 0.36,-0.25 0.942,-0.58 1.516,-0.58 0.363,0 1.148,0.11 1.609,0.34 0.68,0.66 2.348,1.66 4.641,3.66 v -2.8 c -4.406,-5.2 -8.617,-8.2 -12.625,-8.2 -2.055,0 -3.465,0.68 -4.609,2.03 -1.391,1.68 -1.727,3.66 -1.766,6.92 z m 0,3.61 V 1911 c -5.887,-2.23 -9.687,-3.81 -11.406,-4.73 -3.274,-1.39 -5.278,-3.35 -6.61,-5.13 -1.652,-1.5 -1.984,-3.73 -1.984,-5.84 0,-2.44 0.836,-4.89 2.516,-6.66 1.504,-1.64 3.601,-2.64 5.781,-2.64 2.867,0 6.867,1.85 11.703,5.56" /><path
         id="path44"
         style="fill:#000000;fill-opacity:1;fill-rule:nonzero;stroke:none"
         d="m 192,1923.83 c 6.313,7.49 12.332,11.15 18.063,11.15 2.914,0.01 5.46,-0.73 7.578,-2.18 1.91,-1.39 3.812,-3.87 5.062,-7.22 0.629,-2.19 1.297,-5.9 1.297,-10.74 V 1892 c 0,-3.4 0.266,-5.7 0.797,-6.91 0.148,-0.66 1.094,-1.73 2.031,-2.28 0.66,-0.48 2.66,-0.81 5.172,-0.81 v -2 h -26 v 2 h 1.031 c 2.289,0 3.91,0.38 4.828,1.14 0.641,1.05 1.567,1.88 1.922,3.36 -0.117,0.75 0.219,2.41 0.219,5.5 v 22.02 c 0,5.22 -0.633,8.44 -1.891,10.65 -1.289,2.32 -3.371,3.31 -6.359,3.31 -4.855,0.01 -9.187,-2.53 -13.75,-7.59 V 1892 c 0,-3.62 0.195,-5.87 0.594,-6.72 0.301,-0.9 1.187,-1.97 2.062,-2.5 0.657,-0.45 2.657,-0.78 5.344,-0.78 v -2 h -26 v 2 h 1.156 c 2.633,0 4.5,0.69 5.438,2.08 0.738,1.69 1.406,4.02 1.406,7.92 v 21 c 0,6.21 -0.133,9.98 -0.391,11.33 -0.464,1.58 -0.664,2.28 -1.203,2.78 -0.668,0.8 -1.246,0.77 -2.14,0.77 -1.059,0.03 -2.133,-0.3 -3.485,-0.9 l -0.781,2 15.578,6 H 192 v -11.15" /><path
         id="path46"
         style="fill:#000000;fill-opacity:1;fill-rule:nonzero;stroke:none"
         d="m 268,1887.95 c -5.531,-4.29 -9,-6.8 -10.406,-7.47 -2.324,-0.81 -4.383,-1.48 -6.766,-1.48 -4.008,0 -6.805,1.24 -9.219,3.73 -2.609,2.58 -3.609,5.77 -3.609,9.85 0,2.7 0.586,4.78 1.766,6.67 1.347,2.85 4.394,5.05 8.375,7.34 3.941,2.44 10.609,5.11 19.859,8.41 v 2.09 c 0,5.61 -0.855,8.95 -2.562,10.93 -1.856,2.3 -4.188,2.96 -7.438,2.96 -2.469,0.01 -4.43,-0.64 -5.875,-1.92 -1.543,-0.96 -2.25,-2.73 -2.25,-4.39 l 0.125,-3.26 c 0,-1.53 -0.465,-3.07 -1.391,-4 -1.132,-0.75 -2.14,-1.41 -3.64,-1.41 -1.781,0 -2.653,0.5 -3.578,1.5 -1.059,1.18 -1.391,2.39 -1.391,4.14 0,3.44 1.738,6.38 5.219,9.16 3.414,2.86 8.379,4.18 14.672,4.18 4.535,0.01 8.789,-0.8 11.875,-2.4 2.078,-1.07 4.054,-3.11 5.172,-5.69 0.394,-1.65 1.062,-5.12 1.062,-10.31 v -18.25 c 0,-4.9 0.094,-8.27 0.281,-9.42 0.102,-1.13 0.516,-1.94 0.953,-2.33 0.36,-0.25 0.942,-0.58 1.516,-0.58 0.363,0 1.148,0.11 1.609,0.34 0.68,0.66 2.348,1.66 4.641,3.66 v -2.8 c -4.406,-5.2 -8.617,-8.2 -12.625,-8.2 -2.055,0 -3.465,0.68 -4.609,2.03 -1.391,1.68 -1.727,3.66 -1.766,6.92 z m 0,3.61 V 1911 c -5.887,-2.23 -9.687,-3.81 -11.406,-4.73 -3.274,-1.39 -5.278,-3.35 -6.61,-5.13 -1.652,-1.5 -1.984,-3.73 -1.984,-5.84 0,-2.44 0.836,-4.89 2.516,-6.66 1.504,-1.64 3.601,-2.64 5.781,-2.64 2.867,0 6.867,1.85 11.703,5.56" /><path
         id="path48"
         style="fill:#000000;fill-opacity:1;fill-rule:nonzero;stroke:none"
         d="m 306,1923.83 c 6.313,7.49 12.332,11.15 18.063,11.15 2.914,0.01 5.46,-0.73 7.578,-2.18 1.91,-1.39 3.812,-3.87 5.062,-7.22 0.629,-2.19 1.297,-5.9 1.297,-10.74 V 1892 c 0,-3.4 0.266,-5.7 0.797,-6.91 0.148,-0.66 1.094,-1.73 2.031,-2.28 0.66,-0.48 2.66,-0.81 5.172,-0.81 v -2 h -26 v 2 h 1.031 c 2.289,0 3.91,0.38 4.828,1.14 0.641,1.05 1.567,1.88 1.922,3.36 -0.117,0.75 0.219,2.41 0.219,5.5 v 22.02 c 0,5.22 -0.633,8.44 -1.891,10.65 -1.289,2.32 -3.371,3.31 -6.359,3.31 -4.855,0.01 -9.187,-2.53 -13.75,-7.59 V 1892 c 0,-3.62 0.195,-5.87 0.594,-6.72 0.301,-0.9 1.187,-1.97 2.062,-2.5 0.657,-0.45 2.657,-0.78 5.344,-0.78 v -2 h -26 v 2 h 1.156 c 2.633,0 4.5,0.69 5.438,2.08 0.738,1.69 1.406,4.02 1.406,7.92 v 21 c 0,6.21 -0.133,9.98 -0.391,11.33 -0.464,1.58 -0.664,2.28 -1.203,2.78 -0.668,0.8 -1.246,0.77 -2.14,0.77 -1.059,0.03 -2.133,-0.3 -3.485,-0.9 l -0.781,2 15.578,6 H 306 v -11.15" /><path
         id="path50"
         style="fill:#000000;fill-opacity:1;fill-rule:nonzero;stroke:none"
         d="m 381,1887.95 c -5.531,-4.29 -9,-6.8 -10.406,-7.47 -2.324,-0.81 -4.383,-1.48 -6.766,-1.48 -4.008,0 -6.805,1.24 -9.219,3.73 -2.609,2.58 -3.609,5.77 -3.609,9.85 0,2.7 0.586,4.78 1.766,6.67 1.347,2.85 4.394,5.05 8.375,7.34 3.941,2.44 10.609,5.11 19.859,8.41 v 2.09 c 0,5.61 -0.855,8.95 -2.562,10.93 -1.856,2.3 -4.188,2.96 -7.438,2.96 -2.469,0.01 -4.43,-0.64 -5.875,-1.92 -1.543,-0.96 -2.25,-2.73 -2.25,-4.39 l 0.125,-3.26 c 0,-1.53 -0.465,-3.07 -1.391,-4 -1.132,-0.75 -2.14,-1.41 -3.64,-1.41 -1.781,0 -2.653,0.5 -3.578,1.5 -1.059,1.18 -1.391,2.39 -1.391,4.14 0,3.44 1.738,6.38 5.219,9.16 3.414,2.86 8.379,4.18 14.672,4.18 4.535,0.01 8.789,-0.8 11.875,-2.4 2.078,-1.07 4.054,-3.11 5.172,-5.69 0.394,-1.65 1.062,-5.12 1.062,-10.31 v -18.25 c 0,-4.9 0.094,-8.27 0.281,-9.42 0.102,-1.13 0.516,-1.94 0.953,-2.33 0.36,-0.25 0.942,-0.58 1.516,-0.58 0.363,0 1.148,0.11 1.609,0.34 0.68,0.66 2.348,1.66 4.641,3.66 v -2.8 c -4.406,-5.2 -8.617,-8.2 -12.625,-8.2 -2.055,0 -3.465,0.68 -4.609,2.03 -1.391,1.68 -1.727,3.66 -1.766,6.92 z m 0,3.61 V 1911 c -5.887,-2.23 -9.687,-3.81 -11.406,-4.73 -3.274,-1.39 -5.278,-3.35 -6.61,-5.13 -1.652,-1.5 -1.984,-3.73 -1.984,-5.84 0,-2.44 0.836,-4.89 2.516,-6.66 1.504,-1.64 3.601,-2.64 5.781,-2.64 2.867,0 6.867,1.85 11.703,5.56" /><path
         id="path52"
         style="fill:#000000;fill-opacity:1;fill-rule:nonzero;stroke:none"
         d="m 123,1821.98 v -27 h -2 c -0.648,5.33 -1.805,9.56 -3.469,12.71 -1.836,3.26 -4.027,5.66 -7.109,7.51 -3.215,2.12 -6.258,2.78 -9.547,2.78 -4.0117,0.01 -6.7969,-1.27 -9.2344,-3.82 C 89,1811.88 88,1808.7 88,1805.44 c 0,-2.31 0.7578,-4.76 2.2813,-6.81 2.1015,-2.9 7.4257,-7.05 15.6877,-12.07 6.414,-3.95 11.504,-7.22 14.297,-9.37 2.711,-1.89 4.957,-4.7 6.468,-7.63 1.266,-2.78 2.266,-5.99 2.266,-9.18 0,-5.89 -2.297,-11.36 -6.891,-15.77 -4.621,-4.28 -10.484,-6.61 -17.703,-6.61 -2.398,0 -4.39,0.2 -6.3904,0.58 -1.1953,0.36 -3.6523,1.01 -7.3906,2.37 -3.9492,1.38 -6.1094,2.05 -7.1094,2.05 -1.1328,0 -1.7187,-0.33 -2.2812,-0.98 C 80.6016,1741.7 80.2695,1740.03 80,1738 h -2 v 27 h 2 c 0.9766,-5.78 2.2969,-10.11 3.9531,-12.98 1.336,-2.55 4.1875,-5.27 7.5938,-7.18 3.2226,-1.84 7.1406,-2.84 11.2031,-2.84 4.457,0 8.426,1.33 11.156,3.98 2.426,2.68 4.094,5.82 4.094,9.44 0,2.21 -0.484,4.06 -1.453,6.11 -1.152,2.22 -2.477,3.98 -4.516,5.75 -1.386,1.45 -5.187,3.71 -11.437,7.52 -6.4377,3.86 -10.9299,6.84 -14.0627,9.14 -3.3047,2.32 -5.4961,4.84 -7.1094,7.62 -1.7578,2.93 -2.4219,5.84 -2.4219,9.17 0,5.88 2.1172,10.79 6.3594,14.97 4.1289,4.29 9.6484,6.28 16.2031,6.28 3.9065,0.01 8.4375,-1.13 13.0315,-3.39 1.914,-0.93 3.609,-1.61 4.484,-1.61 0.961,0.01 1.797,0.33 2.422,0.99 0.457,0.67 1.125,2 1.5,4.01 h 2" /><path
         id="path54"
         style="fill:#000000;fill-opacity:1;fill-rule:nonzero;stroke:none"
         d="m 156,1823.98 v -40.09 c 4.363,4.77 7.828,7.76 10.391,9.09 2.429,1.34 5.117,2 7.672,2 3.05,0.01 5.707,-0.84 7.906,-2.51 1.883,-1.5 3.844,-4.31 4.906,-7.89 0.457,-2.34 1.125,-7.03 1.125,-13.66 V 1752 c 0,-3.4 0.273,-5.71 0.828,-6.95 0.11,-0.62 1.047,-1.69 1.985,-2.24 0.675,-0.48 2.675,-0.81 5.187,-0.81 v -2 h -26 v 2 h 1.141 c 2.254,0 3.898,0.38 4.797,1.14 0.593,1.05 1.539,1.88 1.906,3.36 -0.18,0.79 0.156,2.46 0.156,5.5 v 18.97 c 0,5.86 -0.305,9.69 -0.906,11.51 -0.637,2.01 -1.574,3.21 -2.906,4.13 -1.387,1.05 -2.918,1.37 -4.782,1.37 -2.054,0.01 -3.914,-0.51 -5.984,-1.53 -2.203,-0.82 -4.539,-3.04 -7.422,-6.11 V 1752 c 0,-3.67 0.188,-5.95 0.563,-6.84 0.195,-0.62 1.085,-1.65 2.109,-2.25 0.805,-0.58 2.805,-0.91 5.328,-0.91 v -2 h -26 v 2 c 2.32,0 4.148,0.37 5.484,1.11 0.598,0.69 1.368,1.13 1.829,2.22 0.351,1.31 0.687,3.31 0.687,6.67 v 49.98 c 0,6.15 -0.133,9.91 -0.391,11.32 -0.464,1.64 -0.664,2.36 -1.203,2.86 -0.668,0.79 -1.246,0.76 -2.14,0.76 -0.821,0.03 -1.907,-0.31 -3.532,-0.94 l -0.734,2 15.406,6 H 156" /><path
         id="path56"
         style="fill:#000000;fill-opacity:1;fill-rule:nonzero;stroke:none"
         d="m 231,1747.95 c -5.531,-4.29 -9,-6.8 -10.406,-7.47 -2.324,-0.81 -4.383,-1.48 -6.766,-1.48 -4.008,0 -6.805,1.24 -9.219,3.73 -2.609,2.58 -3.609,5.77 -3.609,9.85 0,2.7 0.586,4.78 1.766,6.67 1.347,2.85 4.394,5.05 8.375,7.34 3.941,2.44 10.609,5.11 19.859,8.41 v 2.09 c 0,5.61 -0.855,8.95 -2.562,10.93 -1.856,2.3 -4.188,2.96 -7.438,2.96 -2.469,0.01 -4.43,-0.64 -5.875,-1.92 -1.543,-0.96 -2.25,-2.73 -2.25,-4.39 l 0.125,-3.26 c 0,-1.53 -0.465,-3.07 -1.391,-4 -1.132,-0.75 -2.14,-1.41 -3.64,-1.41 -1.781,0 -2.653,0.5 -3.578,1.5 -1.059,1.18 -1.391,2.39 -1.391,4.14 0,3.44 1.738,6.38 5.219,9.16 3.414,2.86 8.379,4.18 14.672,4.18 4.535,0.01 8.789,-0.8 11.875,-2.4 2.078,-1.07 4.054,-3.11 5.172,-5.69 0.394,-1.65 1.062,-5.12 1.062,-10.31 v -18.25 c 0,-4.9 0.094,-8.27 0.281,-9.42 0.102,-1.13 0.516,-1.94 0.953,-2.33 0.36,-0.25 0.942,-0.58 1.516,-0.58 0.363,0 1.148,0.11 1.609,0.34 0.68,0.66 2.348,1.66 4.641,3.66 v -2.8 c -4.406,-5.2 -8.617,-8.2 -12.625,-8.2 -2.055,0 -3.465,0.68 -4.609,2.03 -1.391,1.68 -1.727,3.66 -1.766,6.92 z m 0,3.61 V 1771 c -5.887,-2.23 -9.687,-3.81 -11.406,-4.73 -3.274,-1.39 -5.278,-3.35 -6.61,-5.13 -1.652,-1.5 -1.984,-3.73 -1.984,-5.84 0,-2.44 0.836,-4.89 2.516,-6.66 1.504,-1.64 3.601,-2.64 5.781,-2.64 2.867,0 6.867,1.85 11.703,5.56" /><path
         id="path58"
         style="fill:#000000;fill-opacity:1;fill-rule:nonzero;stroke:none"
         d="m 251,1788.98 15.859,6 H 269 v -12.18 c 2.75,4.58 5.508,7.66 8.281,9.47 2.688,2.05 5.703,2.71 8.766,2.71 5.336,0.01 9.812,-2.07 13.375,-6.23 4.242,-4.98 6.578,-11.67 6.578,-19.81 0,-9.1 -2.637,-16.65 -7.906,-22.61 -4.375,-4.67 -9.813,-7.33 -16.406,-7.33 -3.106,0 -5.36,0.45 -7.454,1.34 -1.632,0.87 -3.296,1.93 -5.234,3.86 V 1726 c 0,-3.58 0.195,-5.86 0.594,-6.83 0.195,-0.69 1.082,-1.74 2.062,-2.31 0.758,-0.52 2.758,-0.86 5.344,-0.86 v -2 h -28 v 2 h 1.578 c 2.11,-0.04 4.27,0.34 5.906,1.16 0.629,0.68 1.407,1.06 1.844,1.97 0.336,1.18 0.672,3.18 0.672,6.87 v 53 c 0,3.22 -0.141,5.26 -0.422,6.13 -0.465,1.16 -0.715,1.53 -1.328,1.98 -0.687,0.75 -1.422,0.69 -2.453,0.69 -1.102,0.06 -1.891,-0.28 -3.172,-0.82 z m 18,-9.56 v -19.64 c 0,-4.18 0.176,-7.05 0.531,-8.39 0.375,-2.01 1.895,-4.17 4.032,-5.86 1.957,-1.53 4.847,-2.53 8.109,-2.53 3.703,0 7.109,1.49 9.547,4.48 3.113,4.08 4.781,9.4 4.781,16.49 0,8.05 -1.809,14.22 -5.422,18.55 -2.715,3.14 -5.512,4.46 -8.969,4.46 -2.089,0.01 -3.75,-0.46 -5.593,-1.37 -1.422,-0.56 -3.758,-2.75 -7.016,-6.19" /><path
         id="path60"
         style="fill:#000000;fill-opacity:1;fill-rule:nonzero;stroke:none"
         d="m 323,1773 c -0.043,-7.49 1.875,-13.36 5.75,-17.61 3.625,-4.06 8.43,-6.39 13.672,-6.39 3.348,0 6.519,0.82 9.094,2.45 2.41,1.83 4.742,4.83 6.484,9.55 l 1,-1.09 c -0.812,-5.58 -3.18,-10.5 -7.094,-14.66 -4.211,-3.92 -8.804,-6.25 -14.687,-6.25 -6.461,0 -11.856,2.47 -16.406,7.41 -4.813,5.13 -6.813,11.57 -6.813,19.9 0,9.25 2.332,16.05 7,21.1 4.664,5.25 10.52,7.57 17.563,7.57 5.769,0.01 10.851,-1.99 14.687,-5.98 3.75,-3.99 5.75,-9.32 5.75,-16 z m 0,4 h 24 c -0.187,3.36 -0.586,5.73 -1.187,7.09 -1.219,2.45 -2.356,3.83 -4.219,5.05 -2.063,1.52 -3.821,1.84 -5.86,1.84 -3.382,0.01 -5.937,-1.23 -8.406,-3.7 -2.578,-2.23 -3.914,-5.9 -4.328,-10.28" /><path
         id="path62"
         style="fill:#000000;fill-opacity:1;fill-rule:nonzero;stroke:none"
         d="m 391,1759 h -2 c 0.207,4.85 0.785,8.87 1.734,12.05 0.704,3.49 3.082,7.59 6.407,13.25 2.39,4.58 4.019,7.72 4.75,10.09 0.441,2.59 1.109,4.8 1.109,7.24 0,5.12 -1.367,8.97 -4.094,11.92 -3.031,3.11 -6.074,4.43 -10.031,4.43 -3.812,0.01 -6.293,-0.81 -8.312,-2.43 -2.211,-1.47 -3.032,-3.38 -3.032,-5.28 -0.179,-1.22 0.578,-3.26 1.735,-5.39 1.066,-2.09 1.734,-3.75 1.734,-4.85 0,-1.1 -0.445,-2.62 -1.328,-3.59 -1.109,-0.78 -1.969,-1.46 -3.25,-1.46 -1.758,0.01 -3.09,0.84 -4.422,2.52 -1.336,1.85 -2,4.03 -2,7.03 0,4.74 1.891,8.63 5.672,12.16 3.555,3.63 8.91,5.29 15.391,5.29 8.007,0.01 13.937,-2.41 17.718,-7.23 2.551,-3.45 4.219,-7.45 4.219,-11.75 0,-2.93 -0.633,-5.94 -1.891,-9.03 -1.296,-3.09 -3.656,-6.65 -7.187,-10.66 -5.934,-6.08 -9.117,-10.79 -10.469,-13.42 -1.496,-2.6 -2.164,-6.26 -2.453,-10.89 z m -0.531,-7 c 1.664,0 3.363,-0.64 4.625,-1.91 1.238,-0.96 1.906,-2.8 1.906,-4.62 0,-1.61 -0.641,-3.31 -1.922,-4.58 -1.308,-1.22 -2.82,-1.89 -4.609,-1.89 -1.938,0 -3.309,0.63 -4.578,1.89 -1.559,1.31 -1.891,2.8 -1.891,4.58 0,2 0.629,3.36 1.891,4.62 0.972,1.57 2.797,1.91 4.578,1.91" /><path
         id="path64"
         style="fill:#000000;fill-opacity:1;fill-rule:nonzero;stroke:none"
         d="m 1570.42,2169.98 v -2 c -2.21,0.01 -3.76,-0.37 -5.04,-1.12 -1.41,-0.7 -2.52,-2.15 -3.69,-4.2 -1.01,-1.28 -2.01,-4.69 -3.69,-9.91 L 1535.31,2088 h -2.01 l -17.66,49.88 -16.48,-49.88 h -3.13 l -23.09,66.47 c -2.08,5.25 -2.88,8.07 -3.35,8.98 -0.98,1.71 -1.85,2.67 -3.2,3.41 -1.48,0.8 -3.17,1.12 -5.47,1.12 v 2 h 29.3 v -2 h -1.41 c -2.34,0.01 -3.65,-0.5 -4.75,-1.5 -1.11,-0.82 -1.64,-2.18 -1.64,-3.59 -0.14,-1.42 0.86,-4.8 2.58,-10.01 l 15.5,-45 12.34,37.9 -2.56,7.25 -1.87,5.6 c -0.96,2.17 -1.75,3.85 -2.77,5.42 -0.73,1.09 -1.14,1.43 -1.87,1.97 -1.24,1.06 -1.97,1.27 -2.94,1.59 -1.02,0.38 -1.92,0.37 -3.52,0.37 v 2 h 30.89 v -2 h -2.11 c -2.21,0.01 -3.79,-0.49 -4.81,-1.46 -1.1,-0.82 -1.51,-2.31 -1.51,-3.99 -0.26,-1.94 0.87,-5.73 2.64,-10.92 l 15.28,-43.17 15.56,44.04 c 1.63,5.16 2.58,8.45 2.58,10.38 -0.28,0.97 -0.29,1.79 -0.86,2.59 -0.89,0.99 -1.27,1.37 -2.13,1.69 -1.77,0.85 -3.43,0.84 -5.81,0.84 v 2 h 23.39" /><path
         id="path66"
         style="fill:#000000;fill-opacity:1;fill-rule:nonzero;stroke:none"
         d="m 1575,2123 c -0.04,-7.49 1.88,-13.36 5.75,-17.61 3.63,-4.06 8.43,-6.39 13.67,-6.39 3.35,0 6.52,0.82 9.1,2.45 2.41,1.83 4.74,4.83 6.48,9.55 l 1,-1.09 c -0.81,-5.58 -3.18,-10.5 -7.09,-14.66 -4.21,-3.92 -8.81,-6.25 -14.69,-6.25 -6.46,0 -11.86,2.47 -16.41,7.41 -4.81,5.13 -6.81,11.57 -6.81,19.9 0,9.25 2.33,16.05 7,21.1 4.66,5.25 10.52,7.57 17.56,7.57 5.77,0.01 10.85,-1.99 14.69,-5.98 3.75,-3.99 5.75,-9.32 5.75,-16 z m 0,4 h 24 c -0.19,3.36 -0.59,5.73 -1.19,7.09 -1.22,2.45 -2.35,3.83 -4.22,5.05 -2.06,1.52 -3.82,1.84 -5.86,1.84 -3.38,0.01 -5.93,-1.23 -8.4,-3.7 -2.58,-2.23 -3.92,-5.9 -4.33,-10.28" /><path
         id="path68"
         style="fill:#000000;fill-opacity:1;fill-rule:nonzero;stroke:none"
         d="m 1632.53,2173.98 c 1.61,0.01 3.32,-0.63 4.58,-1.89 1.22,-0.96 1.89,-2.79 1.89,-4.57 0,-1.64 -0.63,-3.33 -1.89,-4.61 -1.3,-1.25 -2.79,-1.93 -4.58,-1.93 -1.97,0.01 -3.33,0.65 -4.61,1.93 -1.59,1.31 -1.92,2.81 -1.92,4.61 0,1.95 0.63,3.31 1.89,4.57 0.96,1.57 2.81,1.89 4.64,1.89 z m 5.47,-29 V 2102 c 0,-3.36 0.24,-5.59 0.72,-6.7 0.24,-0.87 1.19,-1.94 2.12,-2.49 0.67,-0.48 2.67,-0.81 5.16,-0.81 v -2 h -26 v 2 c 2.55,0 4.27,0.25 5.14,0.75 0.83,0.59 1.57,1.35 2.08,2.52 0.44,1.42 0.78,3.42 0.78,6.73 v 21 c 0,5.91 -0.16,9.74 -0.47,11.48 -0.42,1.45 -0.62,2.15 -1.14,2.65 -0.65,0.78 -1.23,0.75 -2.12,0.75 -1.06,0.03 -2.15,-0.3 -3.54,-0.9 l -0.73,2 15.53,6 h 2.47" /><path
         id="path70"
         style="fill:#000000;fill-opacity:1;fill-rule:nonzero;stroke:none"
         d="m 1665.11,2109.39 c -3.29,1.8 -5.75,3.82 -7.5,6.69 -1.95,3.18 -2.61,6.05 -2.61,9.51 0,5.43 2,9.85 6.02,13.66 4,4.07 9.14,5.73 15.4,5.73 4.99,0.01 9.56,-1.33 13.31,-4 h 11.4 c 1.64,0.01 2.66,-0.03 2.93,-0.1 0.25,-0.04 0.46,-0.2 0.58,-0.38 0.02,-0.11 0.36,-0.75 0.36,-1.42 0,-0.47 -0.11,-1.31 -0.31,-1.61 -0.36,0.03 -0.35,-0.27 -0.66,-0.36 -0.31,0.21 -1.34,-0.13 -3.12,-0.13 h -7.19 c 1.94,-2.9 3.28,-6.62 3.28,-11.15 0,-5.13 -1.9,-9.63 -5.7,-13.31 -3.89,-3.52 -8.89,-5.52 -15.27,-5.52 -2.65,0 -5.33,0.41 -8.08,1.22 -2.25,-1.11 -3.25,-2.56 -3.93,-3.59 -0.69,-0.9 -1.02,-1.9 -1.02,-2.61 0,-0.28 0.34,-1.2 1.02,-1.79 0.68,-0.32 2.02,-0.98 4.01,-1.23 1.15,-0.12 4.06,-0.23 8.7,-0.33 8.29,-0.06 14.07,-0.39 16.6,-0.67 3.74,-0.52 6.92,-1.91 9.22,-4.16 2.11,-2.18 3.45,-5 3.45,-8.29 0,-4.38 -2.12,-8.79 -6.37,-12.77 -6.47,-5.78 -14.43,-8.78 -24.5,-8.78 -7.79,0 -14.28,1.71 -19.61,5.13 -3.19,2.25 -4.52,4 -4.52,6.12 0,1.19 0.2,1.88 0.61,2.83 0.44,1.76 1.96,3.47 3.94,6.06 0.08,0.64 2.16,2.48 5.72,6.36 -2.38,1.36 -3.9,2.27 -4.85,3.22 -1.09,1.04 -1.42,2.02 -1.42,3.22 0,1.36 0.6,2.92 1.8,4.73 0.93,1.93 3.97,4.4 8.31,7.72 z m 10.12,32.59 c -2.98,0.01 -5.34,-1.14 -7.29,-3.43 -2.28,-2.14 -2.94,-5.78 -2.94,-10.49 0,-5.8 1.33,-10.86 4,-14.23 2.04,-2.5 4.63,-3.83 7.77,-3.83 2.72,0 5.42,1.1 7.34,3.31 1.89,2.44 2.89,5.67 2.89,10.39 0,6.25 -1.36,10.96 -4.06,14.46 -2.31,2.83 -4.57,3.82 -7.71,3.82 z M 1664.42,2090 c -1.93,-2.01 -3.15,-3.88 -4.06,-5.61 -1.03,-1.52 -1.36,-3.32 -1.36,-4.78 0,-1.75 1.19,-3.54 3.58,-4.95 3.91,-2.32 10.03,-3.66 17.8,-3.66 7.26,0 12.84,1.28 16.35,3.83 3.27,2.6 5.27,5.26 5.27,8.15 0,2.09 -1.06,3.57 -3.17,4.46 -2.45,1.07 -6.45,1.4 -12.85,1.56 -9.67,0.18 -16.53,0.51 -21.56,1" /><path
         id="path72"
         style="fill:#000000;fill-opacity:1;fill-rule:nonzero;stroke:none"
         d="m 1727,2173.98 v -40.09 c 4.36,4.77 7.83,7.76 10.39,9.09 2.43,1.34 5.12,2 7.67,2 3.05,0.01 5.71,-0.84 7.91,-2.51 1.88,-1.5 3.84,-4.31 4.91,-7.89 0.45,-2.34 1.12,-7.03 1.12,-13.66 V 2102 c 0,-3.4 0.27,-5.71 0.83,-6.95 0.11,-0.62 1.05,-1.69 1.98,-2.24 0.68,-0.48 2.68,-0.81 5.19,-0.81 v -2 h -26 v 2 h 1.14 c 2.25,0 3.9,0.38 4.8,1.14 0.59,1.05 1.54,1.88 1.9,3.36 -0.18,0.79 0.16,2.46 0.16,5.5 v 18.97 c 0,5.86 -0.3,9.69 -0.91,11.51 -0.63,2.01 -1.57,3.21 -2.9,4.13 -1.39,1.05 -2.92,1.37 -4.78,1.37 -2.06,0.01 -3.92,-0.51 -5.99,-1.53 -2.2,-0.82 -4.54,-3.04 -7.42,-6.11 V 2102 c 0,-3.67 0.19,-5.95 0.56,-6.84 0.2,-0.62 1.09,-1.65 2.11,-2.25 0.81,-0.58 2.81,-0.91 5.33,-0.91 v -2 h -26 v 2 c 2.32,0 4.15,0.37 5.48,1.11 0.6,0.69 1.37,1.13 1.83,2.22 0.35,1.31 0.69,3.31 0.69,6.67 v 49.98 c 0,6.15 -0.13,9.91 -0.39,11.32 -0.47,1.64 -0.66,2.36 -1.2,2.86 -0.67,0.79 -1.25,0.76 -2.14,0.76 -0.82,0.03 -1.91,-0.31 -3.54,-0.94 l -0.73,2 15.41,6 h 2.59" /><path
         id="path74"
         style="fill:#000000;fill-opacity:1;fill-rule:nonzero;stroke:none"
         d="m 1787,2161.98 v -18 h 12.53 v -4 H 1787 v -35.06 c 0,-3.48 0.46,-5.87 1.38,-7.09 0.8,-1.17 2.11,-1.83 3.56,-1.83 0.87,0 2.33,0.34 3.45,1.02 0.99,1 1.99,1.67 2.61,2.98 h 3 c -1.37,-3.65 -3.32,-6.39 -5.84,-8.23 -2.57,-1.77 -5.11,-2.77 -7.78,-2.77 -1.93,0 -3.58,0.5 -5.3,1.5 -1.76,1.18 -3.01,2.45 -3.85,4.33 -0.9,1.93 -1.23,4.77 -1.23,8.69 v 36.46 h -9 v 1.9 c 2.3,0.9 4.66,2.32 7.06,4.39 2.39,2.3 4.62,4.53 6.64,7.4 0.8,1.62 2.46,4.28 4.3,8.31 h 1" /><path
         id="path76"
         style="fill:#000000;fill-opacity:1;fill-rule:nonzero;stroke:none"
         d="M 1841,2144.98 V 2127 h -2 c -1.5,5.41 -3.43,9.1 -5.78,11.05 -2.42,2.27 -5.34,2.93 -8.97,2.93 -2.86,0.01 -5.01,-0.69 -6.7,-2.09 -1.89,-1.35 -2.55,-2.92 -2.55,-4.61 0,-1.84 0.63,-3.87 1.89,-5.37 0.92,-1.52 3.7,-3.18 7.45,-4.91 l 8.64,-3.98 c 7.68,-3.48 12.02,-8.81 12.02,-15.02 0,-4.8 -1.87,-8.67 -5.62,-11.61 -3.88,-2.73 -7.95,-4.39 -12.6,-4.39 -3.59,0 -7.14,0.5 -11.42,1.5 -1.43,0.5 -2.39,0.5 -3.22,0.5 -0.95,0 -1.62,-0.67 -2.14,-2 h -2 v 18 h 2 c 1.1,-4.64 3.21,-8.13 6.31,-10.48 3.01,-2.19 6.6,-3.52 10.47,-3.52 2.46,0 4.93,0.77 6.64,2.31 1.58,1.77 2.58,3.4 2.58,5.57 0,2.66 -0.9,4.83 -2.69,6.62 -1.9,1.96 -5.56,4.01 -11.31,6.66 -5.75,2.93 -9.52,5.09 -11.31,7.31 -2.03,2.36 -2.69,4.95 -2.69,8.3 0,4.39 1.53,7.92 4.59,10.84 2.87,3.05 7.03,4.37 11.89,4.37 1.97,0.01 4.72,-0.4 7.77,-1.2 1.93,-0.46 3.35,-0.8 4.03,-0.8 0.53,0.01 1.11,0.12 1.47,0.36 0.1,0.47 0.77,0.8 1.25,1.64 h 2" /><g
         transform="scale(0.999609,-1.00039)"
         id="g78"><path
           id="path80"
           style="fill:none;stroke:#000000;stroke-width:15.62069988;stroke-linecap:butt;stroke-linejoin:miter;stroke-miterlimit:4;stroke-dasharray:none;stroke-opacity:1"
           d="M 476.382,-392.764 H 834.596 V -708.781 H 476.382 Z" /></g><path
         id="path82"
         style="fill:#000000;fill-opacity:1;fill-rule:nonzero;stroke:none"
         d="m 94.8594,620.688 c 5.2426,-1.075 9.6716,-3.059 12.4216,-5.641 3.719,-3.289 5.719,-8.016 5.719,-13.234 0,-3.899 -1.246,-7.75 -3.734,-11.375 C 106.695,587 103.383,584.164 99.0625,582.5 94.7188,581 88.1328,580 79.25,580 H 42 v 2 h 2.8594 c 2.8906,0 5.457,1.063 6.8437,3.188 C 52.332,586.844 53,589.508 53,594 v 51.984 c 0,4.973 -0.543,8.102 -1.625,9.407 -1.5859,1.929 -3.6328,2.593 -6.5156,2.593 H 42 v 2 h 33.9375 c 6.0195,0.004 11.4102,-0.476 15.2344,-1.421 5.7226,-1.274 10.1951,-3.934 13.2501,-7.547 2.91,-3.289 4.578,-7.774 4.578,-12.469 0,-3.871 -1.195,-7.621 -3.578,-10.797 -2.527,-3.094 -5.9064,-5.531 -10.5626,-7.062 z M 64,623.813 c 1.4453,-0.211 3.1016,-0.481 4.9688,-0.625 1.5507,0.132 3.9257,-0.204 6.1562,-0.204 5.6953,0.004 10.0508,0.618 12.9375,1.86 2.8633,1.301 4.9258,3.156 6.125,5.719 1.1445,2.718 1.8125,5.378 1.8125,8.421 0,4.704 -1.8516,8.704 -5.5469,12.016 -3.8398,3.32 -9.0781,4.984 -16.1718,4.984 -3.8985,0.004 -7.2305,-0.433 -10.2813,-1.296 z m 0,-38.219 c 4.6328,-0.93 9.2109,-1.594 13.7344,-1.594 6.9922,0 12.7578,1.602 16.5625,4.813 C 98,592.094 100,596.004 100,600.734 c 0,3.204 -0.9609,6.11 -2.875,8.985 -1.9492,2.969 -4.7656,5.14 -8.5781,6.797 -3.9844,1.816 -8.5117,2.484 -14.125,2.484 -2.5781,0 -4.5235,-0.043 -6.25,-0.125 -1.7774,-0.031 -3.1094,-0.211 -4.1719,-0.406 v -32.875" /><path
         id="path84"
         style="fill:#000000;fill-opacity:1;fill-rule:nonzero;stroke:none"
         d="m 154,587.953 c -5.531,-4.297 -9,-6.805 -10.406,-7.469 -2.324,-0.816 -4.383,-1.484 -6.766,-1.484 -4.008,0 -6.805,1.242 -9.219,3.734 -2.609,2.579 -3.609,5.77 -3.609,9.844 0,2.703 0.586,4.785 1.766,6.672 1.347,2.852 4.394,5.051 8.375,7.344 3.941,2.437 10.609,5.101 19.859,8.406 v 2.094 c 0,5.601 -0.855,8.941 -2.562,10.922 -1.856,2.304 -4.188,2.968 -7.438,2.968 -2.469,0.004 -4.43,-0.64 -5.875,-1.921 -1.543,-0.961 -2.25,-2.735 -2.25,-4.391 L 136,621.406 c 0,-1.531 -0.465,-3.062 -1.391,-4 -1.132,-0.742 -2.14,-1.406 -3.64,-1.406 -1.781,0 -2.653,0.5 -3.578,1.5 -1.059,1.176 -1.391,2.391 -1.391,4.141 0,3.441 1.738,6.375 5.219,9.156 3.414,2.859 8.379,4.187 14.672,4.187 4.535,0.004 8.789,-0.804 11.875,-2.406 2.078,-1.07 4.054,-3.105 5.172,-5.687 0.394,-1.653 1.062,-5.125 1.062,-10.313 v -18.25 c 0,-4.902 0.094,-8.265 0.281,-9.422 0.102,-1.125 0.516,-1.933 0.953,-2.328 0.36,-0.246 0.942,-0.578 1.516,-0.578 0.363,0 1.148,0.113 1.609,0.344 C 169.039,587 170.707,588 173,590 v -2.797 C 168.594,582 164.383,579 160.375,579 c -2.055,0 -3.465,0.68 -4.609,2.031 -1.391,1.676 -1.727,3.66 -1.766,6.922 z m 0,3.61 V 611 c -5.887,-2.23 -9.687,-3.809 -11.406,-4.734 -3.274,-1.391 -5.278,-3.344 -6.61,-5.125 -1.652,-1.496 -1.984,-3.731 -1.984,-5.844 0,-2.434 0.836,-4.887 2.516,-6.656 1.504,-1.641 3.601,-2.641 5.781,-2.641 2.867,0 6.867,1.852 11.703,5.563" /><path
         id="path86"
         style="fill:#000000;fill-opacity:1;fill-rule:nonzero;stroke:none"
         d="m 192,623.828 c 6.313,7.492 12.332,11.156 18.063,11.156 2.914,0.004 5.46,-0.73 7.578,-2.187 1.91,-1.391 3.812,-3.867 5.062,-7.219 0.629,-2.183 1.297,-5.902 1.297,-10.734 V 592 c 0,-3.398 0.266,-5.699 0.797,-6.906 0.148,-0.668 1.094,-1.731 2.031,-2.281 0.66,-0.481 2.66,-0.813 5.172,-0.813 v -2 h -26 v 2 h 1.031 c 2.289,0 3.91,0.379 4.828,1.141 0.641,1.047 1.567,1.879 1.922,3.359 -0.117,0.75 0.219,2.414 0.219,5.5 v 22.016 c 0,5.222 -0.633,8.445 -1.891,10.656 -1.289,2.316 -3.371,3.312 -6.359,3.312 -4.855,0.004 -9.187,-2.531 -13.75,-7.593 V 592 c 0,-3.625 0.195,-5.867 0.594,-6.719 0.301,-0.898 1.187,-1.968 2.062,-2.5 C 195.313,582.332 197.313,582 200,582 v -2 h -26 v 2 h 1.156 c 2.633,0 4.5,0.691 5.438,2.078 0.738,1.692 1.406,4.024 1.406,7.922 v 21 c 0,6.207 -0.133,9.984 -0.391,11.328 -0.464,1.578 -0.664,2.281 -1.203,2.781 -0.668,0.805 -1.246,0.766 -2.14,0.766 -1.059,0.039 -2.133,-0.297 -3.485,-0.891 l -0.781,2 15.578,6 H 192 v -11.156" /><path
         id="path88"
         style="fill:#000000;fill-opacity:1;fill-rule:nonzero;stroke:none"
         d="m 268,587.953 c -5.531,-4.297 -9,-6.805 -10.406,-7.469 -2.324,-0.816 -4.383,-1.484 -6.766,-1.484 -4.008,0 -6.805,1.242 -9.219,3.734 -2.609,2.579 -3.609,5.77 -3.609,9.844 0,2.703 0.586,4.785 1.766,6.672 1.347,2.852 4.394,5.051 8.375,7.344 3.941,2.437 10.609,5.101 19.859,8.406 v 2.094 c 0,5.601 -0.855,8.941 -2.562,10.922 -1.856,2.304 -4.188,2.968 -7.438,2.968 -2.469,0.004 -4.43,-0.64 -5.875,-1.921 -1.543,-0.961 -2.25,-2.735 -2.25,-4.391 L 250,621.406 c 0,-1.531 -0.465,-3.062 -1.391,-4 -1.132,-0.742 -2.14,-1.406 -3.64,-1.406 -1.781,0 -2.653,0.5 -3.578,1.5 -1.059,1.176 -1.391,2.391 -1.391,4.141 0,3.441 1.738,6.375 5.219,9.156 3.414,2.859 8.379,4.187 14.672,4.187 4.535,0.004 8.789,-0.804 11.875,-2.406 2.078,-1.07 4.054,-3.105 5.172,-5.687 0.394,-1.653 1.062,-5.125 1.062,-10.313 v -18.25 c 0,-4.902 0.094,-8.265 0.281,-9.422 0.102,-1.125 0.516,-1.933 0.953,-2.328 0.36,-0.246 0.942,-0.578 1.516,-0.578 0.363,0 1.148,0.113 1.609,0.344 C 283.039,587 284.707,588 287,590 v -2.797 C 282.594,582 278.383,579 274.375,579 c -2.055,0 -3.465,0.68 -4.609,2.031 -1.391,1.676 -1.727,3.66 -1.766,6.922 z m 0,3.61 V 611 c -5.887,-2.23 -9.687,-3.809 -11.406,-4.734 -3.274,-1.391 -5.278,-3.344 -6.61,-5.125 -1.652,-1.496 -1.984,-3.731 -1.984,-5.844 0,-2.434 0.836,-4.887 2.516,-6.656 1.504,-1.641 3.601,-2.641 5.781,-2.641 2.867,0 6.867,1.852 11.703,5.563" /><path
         id="path90"
         style="fill:#000000;fill-opacity:1;fill-rule:nonzero;stroke:none"
         d="m 306,623.828 c 6.313,7.492 12.332,11.156 18.063,11.156 2.914,0.004 5.46,-0.73 7.578,-2.187 1.91,-1.391 3.812,-3.867 5.062,-7.219 0.629,-2.183 1.297,-5.902 1.297,-10.734 V 592 c 0,-3.398 0.266,-5.699 0.797,-6.906 0.148,-0.668 1.094,-1.731 2.031,-2.281 0.66,-0.481 2.66,-0.813 5.172,-0.813 v -2 h -26 v 2 h 1.031 c 2.289,0 3.91,0.379 4.828,1.141 0.641,1.047 1.567,1.879 1.922,3.359 -0.117,0.75 0.219,2.414 0.219,5.5 v 22.016 c 0,5.222 -0.633,8.445 -1.891,10.656 -1.289,2.316 -3.371,3.312 -6.359,3.312 -4.855,0.004 -9.187,-2.531 -13.75,-7.593 L 306,592 c 0,-3.625 0.195,-5.867 0.594,-6.719 0.301,-0.898 1.187,-1.968 2.062,-2.5 C 309.313,582.332 311.313,582 314,582 v -2 h -26 v 2 h 1.156 c 2.633,0 4.5,0.691 5.438,2.078 0.738,1.692 1.406,4.024 1.406,7.922 v 21 c 0,6.207 -0.133,9.984 -0.391,11.328 -0.464,1.578 -0.664,2.281 -1.203,2.781 -0.668,0.805 -1.246,0.766 -2.14,0.766 -1.059,0.039 -2.133,-0.297 -3.485,-0.891 l -0.781,2 15.578,6 H 306 v -11.156" /><path
         id="path92"
         style="fill:#000000;fill-opacity:1;fill-rule:nonzero;stroke:none"
         d="m 381,587.953 c -5.531,-4.297 -9,-6.805 -10.406,-7.469 -2.324,-0.816 -4.383,-1.484 -6.766,-1.484 -4.008,0 -6.805,1.242 -9.219,3.734 -2.609,2.579 -3.609,5.77 -3.609,9.844 0,2.703 0.586,4.785 1.766,6.672 1.347,2.852 4.394,5.051 8.375,7.344 3.941,2.437 10.609,5.101 19.859,8.406 v 2.094 c 0,5.601 -0.855,8.941 -2.562,10.922 -1.856,2.304 -4.188,2.968 -7.438,2.968 -2.469,0.004 -4.43,-0.64 -5.875,-1.921 -1.543,-0.961 -2.25,-2.735 -2.25,-4.391 L 363,621.406 c 0,-1.531 -0.465,-3.062 -1.391,-4 -1.132,-0.742 -2.14,-1.406 -3.64,-1.406 -1.781,0 -2.653,0.5 -3.578,1.5 -1.059,1.176 -1.391,2.391 -1.391,4.141 0,3.441 1.738,6.375 5.219,9.156 3.414,2.859 8.379,4.187 14.672,4.187 4.535,0.004 8.789,-0.804 11.875,-2.406 2.078,-1.07 4.054,-3.105 5.172,-5.687 0.394,-1.653 1.062,-5.125 1.062,-10.313 v -18.25 c 0,-4.902 0.094,-8.265 0.281,-9.422 0.102,-1.125 0.516,-1.933 0.953,-2.328 0.36,-0.246 0.942,-0.578 1.516,-0.578 0.363,0 1.148,0.113 1.609,0.344 C 396.039,587 397.707,588 400,590 v -2.797 C 395.594,582 391.383,579 387.375,579 c -2.055,0 -3.465,0.68 -4.609,2.031 -1.391,1.676 -1.727,3.66 -1.766,6.922 z m 0,3.61 V 611 c -5.887,-2.23 -9.687,-3.809 -11.406,-4.734 -3.274,-1.391 -5.278,-3.344 -6.61,-5.125 -1.652,-1.496 -1.984,-3.731 -1.984,-5.844 0,-2.434 0.836,-4.887 2.516,-6.656 1.504,-1.641 3.601,-2.641 5.781,-2.641 2.867,0 6.867,1.852 11.703,5.563" /><path
         id="path94"
         style="fill:#000000;fill-opacity:1;fill-rule:nonzero;stroke:none"
         d="m 123,521.984 v -27 h -2 c -0.648,5.329 -1.805,9.555 -3.469,12.704 -1.836,3.257 -4.027,5.66 -7.109,7.515 -3.215,2.117 -6.258,2.781 -9.547,2.781 -4.0117,0.004 -6.7969,-1.277 -9.2344,-3.828 C 89,511.883 88,508.695 88,505.438 c 0,-2.305 0.7578,-4.762 2.2813,-6.813 2.1015,-2.898 7.4257,-7.043 15.6877,-12.062 6.414,-3.95 11.504,-7.219 14.297,-9.375 2.711,-1.887 4.957,-4.7 6.468,-7.625 1.266,-2.782 2.266,-5.993 2.266,-9.188 0,-5.887 -2.297,-11.352 -6.891,-15.766 -4.621,-4.277 -10.484,-6.609 -17.703,-6.609 -2.398,0 -4.39,0.195 -6.3904,0.578 -1.1953,0.36 -3.6523,1.012 -7.3906,2.375 -3.9492,1.379 -6.1094,2.047 -7.1094,2.047 -1.1328,0 -1.7187,-0.328 -2.2812,-0.984 C 80.6016,441.695 80.2695,440.031 80,438 h -2 v 27 h 2 c 0.9766,-5.781 2.2969,-10.109 3.9531,-12.984 1.336,-2.547 4.1875,-5.266 7.5938,-7.172 C 94.7695,443 98.6875,442 102.75,442 c 4.457,0 8.426,1.328 11.156,3.984 2.426,2.672 4.094,5.813 4.094,9.438 0,2.211 -0.484,4.055 -1.453,6.109 -1.152,2.219 -2.477,3.977 -4.516,5.75 -1.386,1.446 -5.187,3.711 -11.437,7.516 -6.4377,3.867 -10.9299,6.848 -14.0627,9.141 -3.3047,2.32 -5.4961,4.843 -7.1094,7.625 -1.7578,2.925 -2.4219,5.835 -2.4219,9.171 0,5.879 2.1172,10.782 6.3594,14.969 4.1289,4.285 9.6484,6.281 16.2031,6.281 3.9065,0.004 8.4375,-1.132 13.0315,-3.39 1.914,-0.938 3.609,-1.61 4.484,-1.61 0.961,0.004 1.797,0.329 2.422,0.985 0.457,0.676 1.125,2.004 1.5,4.015 h 2" /><path
         id="path96"
         style="fill:#000000;fill-opacity:1;fill-rule:nonzero;stroke:none"
         d="m 156,483.609 c 3.844,4.016 6.113,6.118 6.813,6.704 1.457,1.707 3.593,2.625 5.593,3.437 1.864,0.906 3.985,1.234 5.953,1.234 3.18,0.004 6.145,-0.976 8.532,-2.921 2.086,-1.625 3.984,-4.758 4.797,-8.454 3.726,4.797 7.296,7.727 10.015,9.188 2.492,1.523 5.535,2.187 8.422,2.187 2.758,0.004 5.285,-0.73 7.453,-2.187 1.973,-1.391 3.883,-3.844 5.156,-7.156 0.598,-2.133 1.266,-5.793 1.266,-10.625 L 220,452 c 0,-3.355 0.25,-5.656 0.75,-6.906 0.133,-0.555 1.098,-1.586 2.141,-2.188 C 223.645,442.332 225.645,442 228,442 v -2 h -26 v 2 h 1.031 c 2.114,0 3.782,0.445 4.969,1.344 0.832,0.844 1.426,1.617 1.781,2.984 -0.117,0.891 0.219,2.555 0.219,5.672 v 23.031 c 0,4.688 -0.508,7.438 -1.516,9.219 -1.632,2.738 -3.824,3.734 -7.062,3.734 -2.133,0.004 -3.992,-0.515 -6,-1.546 -2.152,-0.844 -4.449,-2.946 -7.313,-5.735 L 188,480.063 V 452 c 0,-3.668 0.188,-5.949 0.563,-6.844 0.187,-0.617 1.078,-1.648 2.109,-2.25 C 191.488,442.332 193.488,442 196,442 v -2 h -26 v 2 c 2.719,0 4.586,0.348 5.609,1.047 0.817,1.023 1.727,1.758 2.125,3.156 -0.07,0.93 0.266,2.598 0.266,5.797 v 23.031 c 0,4.688 -0.621,7.469 -1.859,9.313 -1.696,2.644 -3.953,3.64 -6.922,3.64 -2.094,0.004 -4.028,-0.554 -6.016,-1.656 -3.183,-1.445 -5.515,-3.543 -7.203,-5.625 V 452 c 0,-3.512 0.223,-5.793 0.672,-6.844 0.223,-0.773 1.109,-1.843 1.984,-2.375 C 159.313,442.332 161.313,442 164,442 v -2 h -26 v 2 c 2.414,0 4.102,0.258 5.063,0.781 0.937,0.602 1.687,1.367 2.187,2.516 0.414,1.391 0.75,3.391 0.75,6.703 v 21 c 0,5.914 -0.156,9.734 -0.469,11.453 -0.418,1.473 -0.621,2.18 -1.14,2.672 -0.653,0.789 -1.231,0.75 -2.125,0.75 -1.059,0.039 -2.133,-0.297 -3.485,-0.891 l -0.781,2 15.578,6 H 156 v -11.375" /><path
         id="path98"
         style="fill:#000000;fill-opacity:1;fill-rule:nonzero;stroke:none"
         d="m 243,473 c -0.043,-7.492 1.875,-13.359 5.75,-17.609 3.625,-4.059 8.43,-6.391 13.672,-6.391 3.348,0 6.519,0.816 9.094,2.453 2.41,1.828 4.742,4.828 6.484,9.547 l 1,-1.094 c -0.812,-5.574 -3.18,-10.492 -7.094,-14.656 -4.211,-3.918 -8.804,-6.25 -14.687,-6.25 -6.461,0 -11.856,2.469 -16.406,7.406 C 236,451.539 234,457.977 234,466.313 c 0,9.25 2.332,16.05 7,21.093 4.664,5.25 10.52,7.578 17.563,7.578 5.769,0.004 10.851,-1.996 14.687,-5.984 3.75,-3.992 5.75,-9.324 5.75,-16 z m 0,4 h 24 c -0.187,3.363 -0.586,5.727 -1.187,7.094 -1.219,2.445 -2.356,3.828 -4.219,5.047 -2.063,1.515 -3.821,1.843 -5.86,1.843 -3.382,0.004 -5.937,-1.234 -8.406,-3.703 C 244.75,485.051 243.414,481.383 243,477" /><path
         id="path100"
         style="fill:#000000;fill-opacity:1;fill-rule:nonzero;stroke:none"
         d="M 307,523.984 V 452 c 0,-3.355 0.223,-5.578 0.672,-6.672 0.223,-0.859 1.141,-1.914 2.078,-2.484 0.688,-0.512 2.688,-0.844 5.25,-0.844 v -2 h -26 v 2 c 2.488,0 4.188,0.25 5.094,0.75 0.875,0.594 1.613,1.348 2.125,2.516 0.445,1.422 0.781,3.422 0.781,6.734 v 49.984 c 0,6.129 -0.125,9.891 -0.375,11.297 -0.449,1.645 -0.637,2.364 -1.187,2.875 -0.688,0.789 -1.231,0.766 -2.063,0.766 -1.043,0.023 -2.078,-0.313 -3.484,-0.938 l -0.891,2 15.453,6 H 307" /><path
         id="path102"
         style="fill:#000000;fill-opacity:1;fill-rule:nonzero;stroke:none"
         d="M 340,523.984 V 452 c 0,-3.355 0.223,-5.578 0.672,-6.672 0.223,-0.859 1.141,-1.914 2.078,-2.484 0.688,-0.512 2.688,-0.844 5.25,-0.844 v -2 h -26 v 2 c 2.488,0 4.188,0.25 5.094,0.75 0.875,0.594 1.613,1.348 2.125,2.516 0.445,1.422 0.781,3.422 0.781,6.734 v 49.984 c 0,6.129 -0.125,9.891 -0.375,11.297 -0.449,1.645 -0.637,2.364 -1.187,2.875 -0.688,0.789 -1.231,0.766 -2.063,0.766 -1.043,0.023 -2.078,-0.313 -3.484,-0.938 l -0.891,2 15.453,6 H 340" /><path
         id="path104"
         style="fill:#000000;fill-opacity:1;fill-rule:nonzero;stroke:none"
         d="m 377,459 h -2 c 0.207,4.852 0.785,8.867 1.734,12.047 0.704,3.492 3.082,7.594 6.407,13.25 2.39,4.586 4.019,7.719 4.75,10.094 0.441,2.586 1.109,4.797 1.109,7.234 0,5.125 -1.367,8.973 -4.094,11.922 -3.031,3.109 -6.074,4.437 -10.031,4.437 -3.812,0.004 -6.293,-0.812 -8.312,-2.437 -2.211,-1.465 -3.032,-3.375 -3.032,-5.281 -0.179,-1.215 0.578,-3.258 1.735,-5.391 1.066,-2.086 1.734,-3.742 1.734,-4.844 0,-1.105 -0.445,-2.625 -1.328,-3.593 -1.109,-0.782 -1.969,-1.454 -3.25,-1.454 -1.758,0.004 -3.09,0.836 -4.422,2.516 -1.336,1.852 -2,4.031 -2,7.031 0,4.739 1.891,8.633 5.672,12.157 3.555,3.632 8.91,5.296 15.391,5.296 8.007,0.004 13.937,-2.414 17.718,-7.234 2.551,-3.449 4.219,-7.449 4.219,-11.75 0,-2.93 -0.633,-5.937 -1.891,-9.031 -1.296,-3.086 -3.656,-6.649 -7.187,-10.656 -5.934,-6.086 -9.117,-10.79 -10.469,-13.422 C 377.957,467.289 377.289,463.625 377,459 Z m -0.531,-7 c 1.664,0 3.363,-0.637 4.625,-1.906 1.238,-0.961 1.906,-2.805 1.906,-4.625 0,-1.606 -0.641,-3.309 -1.922,-4.578 -1.308,-1.223 -2.82,-1.891 -4.609,-1.891 -1.938,0 -3.309,0.633 -4.578,1.891 -1.559,1.304 -1.891,2.797 -1.891,4.578 0,2 0.629,3.363 1.891,4.625 0.972,1.57 2.797,1.906 4.578,1.906" /><g
         transform="matrix(0,-1.00039,-0.999609,0,0,0)"
         id="g106"><path
           id="path108"
           style="fill:none;stroke:#000000;stroke-width:15.62069988;stroke-linecap:butt;stroke-linejoin:miter;stroke-miterlimit:4;stroke-dasharray:none;stroke-opacity:1"
           d="m -550.773,-1456.43 v 612.874" /></g><g
         transform="scale(0.999609,-1.00039)"
         id="g110"><path
           id="path112"
           style="fill:none;stroke:#000000;stroke-width:15.62069988;stroke-linecap:butt;stroke-linejoin:miter;stroke-miterlimit:4;stroke-dasharray:none;stroke-opacity:1"
           d="M 1462.58,-392.764 H 1820.8 V -708.781 H 1462.58 Z" /></g><g
         transform="matrix(-0.358484,-0.641627,-0.641125,0.358764,0,0)"
         id="g114"><path
           id="path116"
           style="fill:none;stroke:#000000;stroke-width:21.25760078;stroke-linecap:butt;stroke-linejoin:miter;stroke-miterlimit:4;stroke-dasharray:none;stroke-opacity:1"
           d="M -3408.25,-2489.35 V -937.015" /></g><g
         transform="matrix(0.423014,-0.577046,-0.576595,-0.423345,0,0)"
         id="g118"><path
           id="path120"
           style="fill:none;stroke:#000000;stroke-width:21.83480072;stroke-linecap:butt;stroke-linejoin:miter;stroke-miterlimit:4;stroke-dasharray:none;stroke-opacity:1"
           d="m 887.934,-4245.28 10e-4,1745.59" /></g><g
         transform="scale(0.999609,-1.00039)"
         id="g122"><path
           id="path124"
           style="fill:none;stroke:#000000;stroke-width:15.62069988;stroke-linecap:butt;stroke-linejoin:miter;stroke-miterlimit:4;stroke-dasharray:none;stroke-opacity:1"
           d="m 2823.11,-1136.49 h 358.21 v -316.01 h -358.21 z" /></g><g
         transform="matrix(0,-1.00039,-0.999609,0,0,0)"
         id="g126"><path
           id="path128"
           style="fill:none;stroke:#000000;stroke-width:15.62069988;stroke-linecap:butt;stroke-linejoin:miter;stroke-miterlimit:4;stroke-dasharray:none;stroke-opacity:1"
           d="m -1360.15,-3054.97 v 145.56" /></g><g
         transform="matrix(-0.499804,-0.500196,-0.499804,0.500196,0,0)"
         id="g130"><path
           id="path132"
           style="fill:none;stroke:#000000;stroke-width:22.0909996;stroke-linecap:butt;stroke-linejoin:miter;stroke-miterlimit:4;stroke-dasharray:none;stroke-opacity:1"
           d="m -4273.86,-1717.38 -0.01,165.15" /></g><g
         transform="matrix(0.470815,-0.529207,-0.528793,-0.471184,0,0)"
         id="g134"><path
           id="path136"
           style="fill:none;stroke:#000000;stroke-width:22.05389977;stroke-linecap:butt;stroke-linejoin:miter;stroke-miterlimit:4;stroke-dasharray:none;stroke-opacity:1"
           d="m 1458,-4372.93 v 172.64" /></g><g
         transform="matrix(0,-1.00039,-0.999609,0,0,0)"
         id="g138"><path
           id="path140"
           style="fill:none;stroke:#000000;stroke-width:15.62069988;stroke-linecap:butt;stroke-linejoin:miter;stroke-miterlimit:4;stroke-dasharray:none;stroke-opacity:1"
           d="m -1209.96,-3054.97 v 145.56" /></g><g
         transform="scale(0.999609,-1.00039)"
         id="g142"><path
           id="path144"
           style="fill:none;stroke:#000000;stroke-width:15.62069988;stroke-linecap:butt;stroke-linejoin:miter;stroke-miterlimit:4;stroke-dasharray:none;stroke-opacity:1"
           d="m 4320.11,-1136.49 h 358.21 v -316.01 h -358.21 z" /></g><g
         transform="scale(0.999609,-1.00039)"
         id="g146"><path
           id="path148"
           style="fill:none;stroke:#000000;stroke-width:15.62069988;stroke-linecap:butt;stroke-linejoin:miter;stroke-miterlimit:4;stroke-dasharray:none;stroke-opacity:1"
           d="m 3571.61,-1136.49 h 358.21 v -316.01 h -358.21 z" /></g><g
         transform="matrix(0,-1.00039,-0.999609,0,0,0)"
         id="g150"><path
           id="path152"
           style="fill:none;stroke:#000000;stroke-width:15.62069988;stroke-linecap:butt;stroke-linejoin:miter;stroke-miterlimit:4;stroke-dasharray:none;stroke-opacity:1"
           d="m -1294.49,-4313.94 v 383.85" /></g><g
         transform="matrix(0,-1.00039,-0.999609,0,0,0)"
         id="g154"><path
           id="path156"
           style="fill:none;stroke:#000000;stroke-width:15.62069988;stroke-linecap:butt;stroke-linejoin:miter;stroke-miterlimit:4;stroke-dasharray:none;stroke-opacity:1"
           d="m -1849.12,-1466.44 v 632.895" /></g><g
         transform="scale(-0.999609,1.00039)"
         id="g158"><path
           id="path160"
           style="fill:none;stroke:#000000;stroke-width:15.62069988;stroke-linecap:butt;stroke-linejoin:miter;stroke-miterlimit:4;stroke-dasharray:none;stroke-opacity:1"
           d="M -3002.21,898.336 V 1137.18" /></g><g
         transform="scale(0.999609,-1.00039)"
         id="g162"><path
           id="path164"
           style="fill:none;stroke:#000000;stroke-width:15.62069988;stroke-linecap:butt;stroke-linejoin:miter;stroke-miterlimit:4;stroke-dasharray:none;stroke-opacity:1"
           d="m 2823.11,-578.379 h 358.21 V -894.4 h -358.21 z" /></g><g
         transform="scale(-0.999609,1.00039)"
         id="g166"><path
           id="path168"
           style="fill:none;stroke:#000000;stroke-width:15.62069988;stroke-linecap:butt;stroke-linejoin:miter;stroke-miterlimit:4;stroke-dasharray:none;stroke-opacity:1"
           d="M -3002.21,342.062 V 580.906" /></g><g
         transform="scale(-0.999609,1.00039)"
         id="g170"><path
           id="path172"
           style="fill:none;stroke:#000000;stroke-width:15.62069988;stroke-linecap:butt;stroke-linejoin:miter;stroke-miterlimit:4;stroke-dasharray:none;stroke-opacity:1"
           d="m -4499.21,1219.94 v 149.1" /></g><g
         transform="matrix(0,-1.00039,-0.999609,0,0,0)"
         id="g174"><path
           id="path176"
           style="fill:none;stroke:#000000;stroke-width:15.62069988;stroke-linecap:butt;stroke-linejoin:miter;stroke-miterlimit:4;stroke-dasharray:none;stroke-opacity:1"
           d="m -1370.17,-4607.95 v 118.75" /></g><g
         transform="matrix(0,-1.00039,-0.999609,0,0,0)"
         id="g178"><path
           id="path180"
           style="fill:none;stroke:#000000;stroke-width:15.62069988;stroke-linecap:butt;stroke-linejoin:miter;stroke-miterlimit:4;stroke-dasharray:none;stroke-opacity:1"
           d="m -1219.97,-4507.81 v 98.72" /></g><g
         transform="matrix(0,-1.00039,-0.999609,0,0,0)"
         id="g182"><path
           id="path184"
           style="fill:none;stroke:#000000;stroke-width:10.01329994;stroke-linecap:butt;stroke-linejoin:miter;stroke-miterlimit:4;stroke-dasharray:10.0133, 10.0133;stroke-dashoffset:0;stroke-opacity:1"
           d="m -1219.97,-4602.94 v 98.72" /></g><g
         transform="scale(0.999609,-1.00039)"
         id="g186"><path
           id="path188"
           style="fill:none;stroke:#000000;stroke-width:20.0265007;stroke-linecap:butt;stroke-linejoin:miter;stroke-miterlimit:4;stroke-dasharray:none;stroke-opacity:1"
           d="m 4690.35,-1294.49 h 546.78" /></g><path
         id="path190"
         style="fill:#000000;fill-opacity:1;fill-rule:nonzero;stroke:none"
         d="m 5225.08,1246.92 96.09,48.08 -96.09,48.08" /><g
         transform="scale(0.999609,-1.00039)"
         id="g192"><path
           id="path194"
           style="fill:none;stroke:#000000;stroke-width:15.62069988;stroke-linecap:butt;stroke-linejoin:miter;stroke-miterlimit:4;stroke-dasharray:none;stroke-opacity:1"
           d="m 5326.08,-1136.49 h 358.21 v -316.01 h -358.21 z" /></g><path
         id="path196"
         style="fill:#000000;fill-opacity:1;fill-rule:nonzero;stroke:none"
         d="m 5364.86,1570.69 c 5.24,-1.08 9.67,-3.06 12.42,-5.64 3.72,-3.29 5.72,-8.02 5.72,-13.24 0,-3.9 -1.25,-7.75 -3.73,-11.37 -2.57,-3.44 -5.89,-6.28 -10.21,-7.94 -4.34,-1.5 -10.93,-2.5 -19.81,-2.5 H 5312 v 2 h 2.86 c 2.89,0 5.46,1.06 6.84,3.19 0.63,1.65 1.3,4.32 1.3,8.81 v 51.98 c 0,4.98 -0.54,8.11 -1.62,9.41 -1.59,1.93 -3.64,2.59 -6.52,2.59 H 5312 v 2 h 33.94 c 6.02,0.01 11.41,-0.47 15.23,-1.42 5.72,-1.27 10.2,-3.93 13.25,-7.54 2.91,-3.29 4.58,-7.78 4.58,-12.47 0,-3.87 -1.2,-7.62 -3.58,-10.8 -2.53,-3.09 -5.9,-5.53 -10.56,-7.06 z m -30.86,3.12 c 1.45,-0.21 3.1,-0.48 4.97,-0.62 1.55,0.13 3.92,-0.21 6.16,-0.21 5.69,0.01 10.05,0.62 12.93,1.86 2.87,1.3 4.93,3.16 6.13,5.72 1.14,2.72 1.81,5.38 1.81,8.42 0,4.71 -1.85,8.71 -5.55,12.02 -3.84,3.32 -9.07,4.98 -16.17,4.98 -3.9,0.01 -7.23,-0.43 -10.28,-1.29 z m 0,-38.22 c 4.63,-0.93 9.21,-1.59 13.73,-1.59 7,0 12.76,1.6 16.57,4.81 3.7,3.28 5.7,7.19 5.7,11.92 0,3.21 -0.96,6.11 -2.87,8.99 -1.95,2.97 -4.77,5.14 -8.58,6.8 -3.99,1.81 -8.51,2.48 -14.13,2.48 -2.58,0 -4.52,-0.04 -6.25,-0.12 -1.78,-0.04 -3.11,-0.22 -4.17,-0.41 v -32.88" /><path
         id="path198"
         style="fill:#000000;fill-opacity:1;fill-rule:nonzero;stroke:none"
         d="m 5424,1537.95 c -5.53,-4.29 -9,-6.8 -10.41,-7.47 -2.32,-0.81 -4.38,-1.48 -6.76,-1.48 -4.01,0 -6.81,1.24 -9.22,3.73 -2.61,2.58 -3.61,5.77 -3.61,9.85 0,2.7 0.59,4.78 1.77,6.67 1.34,2.85 4.39,5.05 8.37,7.34 3.94,2.44 10.61,5.11 19.86,8.41 v 2.09 c 0,5.61 -0.86,8.95 -2.56,10.93 -1.86,2.3 -4.19,2.96 -7.44,2.96 -2.47,0.01 -4.43,-0.64 -5.87,-1.92 -1.55,-0.96 -2.25,-2.73 -2.25,-4.39 l 0.12,-3.26 c 0,-1.53 -0.46,-3.07 -1.39,-4 -1.13,-0.75 -2.14,-1.41 -3.64,-1.41 -1.78,0 -2.65,0.5 -3.58,1.5 -1.06,1.18 -1.39,2.39 -1.39,4.14 0,3.44 1.74,6.38 5.22,9.16 3.41,2.86 8.38,4.18 14.67,4.18 4.54,0.01 8.79,-0.8 11.88,-2.4 2.07,-1.07 4.05,-3.11 5.17,-5.69 0.39,-1.65 1.06,-5.12 1.06,-10.31 v -18.25 c 0,-4.9 0.09,-8.27 0.28,-9.42 0.1,-1.13 0.52,-1.94 0.95,-2.33 0.36,-0.25 0.95,-0.58 1.52,-0.58 0.36,0 1.15,0.11 1.61,0.34 0.68,0.66 2.35,1.66 4.64,3.66 v -2.8 c -4.41,-5.2 -8.62,-8.2 -12.62,-8.2 -2.06,0 -3.47,0.68 -4.61,2.03 -1.39,1.68 -1.73,3.66 -1.77,6.92 z m 0,3.61 V 1561 c -5.89,-2.23 -9.69,-3.81 -11.41,-4.73 -3.27,-1.39 -5.27,-3.35 -6.61,-5.13 -1.65,-1.5 -1.98,-3.73 -1.98,-5.84 0,-2.44 0.84,-4.89 2.52,-6.66 1.5,-1.64 3.6,-2.64 5.78,-2.64 2.86,0 6.86,1.85 11.7,5.56" /><path
         id="path200"
         style="fill:#000000;fill-opacity:1;fill-rule:nonzero;stroke:none"
         d="m 5462,1573.83 c 6.31,7.49 12.33,11.15 18.06,11.15 2.92,0.01 5.46,-0.73 7.58,-2.18 1.91,-1.39 3.81,-3.87 5.06,-7.22 0.63,-2.19 1.3,-5.9 1.3,-10.74 V 1542 c 0,-3.4 0.27,-5.7 0.8,-6.91 0.15,-0.66 1.09,-1.73 2.03,-2.28 0.66,-0.48 2.66,-0.81 5.17,-0.81 v -2 h -26 v 2 h 1.03 c 2.29,0 3.91,0.38 4.83,1.14 0.64,1.05 1.57,1.88 1.92,3.36 -0.12,0.75 0.22,2.41 0.22,5.5 v 22.02 c 0,5.22 -0.63,8.44 -1.89,10.65 -1.29,2.32 -3.37,3.31 -6.36,3.31 -4.86,0.01 -9.19,-2.53 -13.75,-7.59 V 1542 c 0,-3.62 0.2,-5.87 0.59,-6.72 0.3,-0.9 1.19,-1.97 2.07,-2.5 0.65,-0.45 2.65,-0.78 5.34,-0.78 v -2 h -26 v 2 h 1.16 c 2.63,0 4.5,0.69 5.43,2.08 0.74,1.69 1.41,4.02 1.41,7.92 v 21 c 0,6.21 -0.13,9.98 -0.39,11.33 -0.47,1.58 -0.66,2.28 -1.2,2.78 -0.67,0.8 -1.25,0.77 -2.14,0.77 -1.06,0.03 -2.14,-0.3 -3.49,-0.9 l -0.78,2 15.58,6 h 2.42 v -11.15" /><path
         id="path202"
         style="fill:#000000;fill-opacity:1;fill-rule:nonzero;stroke:none"
         d="m 5538,1537.95 c -5.53,-4.29 -9,-6.8 -10.41,-7.47 -2.32,-0.81 -4.38,-1.48 -6.76,-1.48 -4.01,0 -6.81,1.24 -9.22,3.73 -2.61,2.58 -3.61,5.77 -3.61,9.85 0,2.7 0.59,4.78 1.77,6.67 1.34,2.85 4.39,5.05 8.37,7.34 3.94,2.44 10.61,5.11 19.86,8.41 v 2.09 c 0,5.61 -0.86,8.95 -2.56,10.93 -1.86,2.3 -4.19,2.96 -7.44,2.96 -2.47,0.01 -4.43,-0.64 -5.87,-1.92 -1.55,-0.96 -2.25,-2.73 -2.25,-4.39 l 0.12,-3.26 c 0,-1.53 -0.46,-3.07 -1.39,-4 -1.13,-0.75 -2.14,-1.41 -3.64,-1.41 -1.78,0 -2.65,0.5 -3.58,1.5 -1.06,1.18 -1.39,2.39 -1.39,4.14 0,3.44 1.74,6.38 5.22,9.16 3.41,2.86 8.38,4.18 14.67,4.18 4.54,0.01 8.79,-0.8 11.88,-2.4 2.07,-1.07 4.05,-3.11 5.17,-5.69 0.39,-1.65 1.06,-5.12 1.06,-10.31 v -18.25 c 0,-4.9 0.09,-8.27 0.28,-9.42 0.1,-1.13 0.52,-1.94 0.95,-2.33 0.36,-0.25 0.95,-0.58 1.52,-0.58 0.36,0 1.15,0.11 1.61,0.34 0.68,0.66 2.35,1.66 4.64,3.66 v -2.8 c -4.41,-5.2 -8.62,-8.2 -12.62,-8.2 -2.06,0 -3.47,0.68 -4.61,2.03 -1.39,1.68 -1.73,3.66 -1.77,6.92 z m 0,3.61 V 1561 c -5.89,-2.23 -9.69,-3.81 -11.41,-4.73 -3.27,-1.39 -5.27,-3.35 -6.61,-5.13 -1.65,-1.5 -1.98,-3.73 -1.98,-5.84 0,-2.44 0.84,-4.89 2.52,-6.66 1.5,-1.64 3.6,-2.64 5.78,-2.64 2.86,0 6.86,1.85 11.7,5.56" /><path
         id="path204"
         style="fill:#000000;fill-opacity:1;fill-rule:nonzero;stroke:none"
         d="m 5576,1573.83 c 6.31,7.49 12.33,11.15 18.06,11.15 2.92,0.01 5.46,-0.73 7.58,-2.18 1.91,-1.39 3.81,-3.87 5.06,-7.22 0.63,-2.19 1.3,-5.9 1.3,-10.74 V 1542 c 0,-3.4 0.27,-5.7 0.8,-6.91 0.15,-0.66 1.09,-1.73 2.03,-2.28 0.66,-0.48 2.66,-0.81 5.17,-0.81 v -2 h -26 v 2 h 1.03 c 2.29,0 3.91,0.38 4.83,1.14 0.64,1.05 1.57,1.88 1.92,3.36 -0.12,0.75 0.22,2.41 0.22,5.5 v 22.02 c 0,5.22 -0.63,8.44 -1.89,10.65 -1.29,2.32 -3.37,3.31 -6.36,3.31 -4.86,0.01 -9.19,-2.53 -13.75,-7.59 V 1542 c 0,-3.62 0.2,-5.87 0.59,-6.72 0.3,-0.9 1.19,-1.97 2.07,-2.5 0.65,-0.45 2.65,-0.78 5.34,-0.78 v -2 h -26 v 2 h 1.16 c 2.63,0 4.5,0.69 5.43,2.08 0.74,1.69 1.41,4.02 1.41,7.92 v 21 c 0,6.21 -0.13,9.98 -0.39,11.33 -0.47,1.58 -0.66,2.28 -1.2,2.78 -0.67,0.8 -1.25,0.77 -2.14,0.77 -1.06,0.03 -2.14,-0.3 -3.49,-0.9 l -0.78,2 15.58,6 h 2.42 v -11.15" /><path
         id="path206"
         style="fill:#000000;fill-opacity:1;fill-rule:nonzero;stroke:none"
         d="m 5651,1537.95 c -5.53,-4.29 -9,-6.8 -10.41,-7.47 -2.32,-0.81 -4.38,-1.48 -6.76,-1.48 -4.01,0 -6.81,1.24 -9.22,3.73 -2.61,2.58 -3.61,5.77 -3.61,9.85 0,2.7 0.59,4.78 1.77,6.67 1.34,2.85 4.39,5.05 8.37,7.34 3.94,2.44 10.61,5.11 19.86,8.41 v 2.09 c 0,5.61 -0.86,8.95 -2.56,10.93 -1.86,2.3 -4.19,2.96 -7.44,2.96 -2.47,0.01 -4.43,-0.64 -5.87,-1.92 -1.55,-0.96 -2.25,-2.73 -2.25,-4.39 l 0.12,-3.26 c 0,-1.53 -0.46,-3.07 -1.39,-4 -1.13,-0.75 -2.14,-1.41 -3.64,-1.41 -1.78,0 -2.65,0.5 -3.58,1.5 -1.06,1.18 -1.39,2.39 -1.39,4.14 0,3.44 1.74,6.38 5.22,9.16 3.41,2.86 8.38,4.18 14.67,4.18 4.54,0.01 8.79,-0.8 11.88,-2.4 2.07,-1.07 4.05,-3.11 5.17,-5.69 0.39,-1.65 1.06,-5.12 1.06,-10.31 v -18.25 c 0,-4.9 0.09,-8.27 0.28,-9.42 0.1,-1.13 0.52,-1.94 0.95,-2.33 0.36,-0.25 0.95,-0.58 1.52,-0.58 0.36,0 1.15,0.11 1.61,0.34 0.68,0.66 2.35,1.66 4.64,3.66 v -2.8 c -4.41,-5.2 -8.62,-8.2 -12.62,-8.2 -2.06,0 -3.47,0.68 -4.61,2.03 -1.39,1.68 -1.73,3.66 -1.77,6.92 z m 0,3.61 V 1561 c -5.89,-2.23 -9.69,-3.81 -11.41,-4.73 -3.27,-1.39 -5.27,-3.35 -6.61,-5.13 -1.65,-1.5 -1.98,-3.73 -1.98,-5.84 0,-2.44 0.84,-4.89 2.52,-6.66 1.5,-1.64 3.6,-2.64 5.78,-2.64 2.86,0 6.86,1.85 11.7,5.56" /><path
         id="path208"
         style="fill:#000000;fill-opacity:1;fill-rule:nonzero;stroke:none"
         d="m 5697,1549 h -2 c 0.21,4.85 0.79,8.87 1.73,12.05 0.71,3.49 3.09,7.59 6.41,13.25 2.39,4.58 4.02,7.72 4.75,10.09 0.44,2.59 1.11,4.8 1.11,7.24 0,5.12 -1.37,8.97 -4.09,11.92 -3.03,3.11 -6.08,4.43 -10.03,4.43 -3.82,0.01 -6.3,-0.81 -8.32,-2.43 -2.21,-1.47 -3.03,-3.38 -3.03,-5.28 -0.18,-1.22 0.58,-3.26 1.74,-5.39 1.06,-2.09 1.73,-3.75 1.73,-4.85 0,-1.1 -0.45,-2.62 -1.33,-3.59 -1.11,-0.78 -1.97,-1.46 -3.25,-1.46 -1.76,0.01 -3.09,0.84 -4.42,2.52 -1.34,1.85 -2,4.03 -2,7.03 0,4.74 1.89,8.63 5.67,12.16 3.56,3.63 8.91,5.29 15.39,5.29 8.01,0.01 13.94,-2.41 17.72,-7.23 2.55,-3.45 4.22,-7.45 4.22,-11.75 0,-2.93 -0.63,-5.94 -1.89,-9.03 -1.3,-3.09 -3.66,-6.65 -7.19,-10.66 -5.93,-6.08 -9.12,-10.79 -10.47,-13.42 -1.49,-2.6 -2.16,-6.26 -2.45,-10.89 z m -0.53,-7 c 1.66,0 3.36,-0.64 4.62,-1.91 1.24,-0.96 1.91,-2.8 1.91,-4.62 0,-1.61 -0.64,-3.31 -1.92,-4.58 -1.31,-1.22 -2.82,-1.89 -4.61,-1.89 -1.94,0 -3.31,0.63 -4.58,1.89 -1.56,1.31 -1.89,2.8 -1.89,4.58 0,2 0.63,3.36 1.89,4.62 0.97,1.57 2.8,1.91 4.58,1.91" /></g></g></svg>