<?xml version="1.0" encoding="UTF-8" standalone="no"?>
<svg
   xmlns:dc="http://purl.org/dc/elements/1.1/"
   xmlns:cc="http://creativecommons.org/ns#"
   xmlns:rdf="http://www.w3.org/1999/02/22-rdf-syntax-ns#"
   xmlns:svg="http://www.w3.org/2000/svg"
   xmlns="http://www.w3.org/2000/svg"
   viewBox="0 0 856.53333 344.74667"
   height="344.74667"
   width="856.53333"
   xml:space="preserve"
   id="svg2"
   version="1.1"><metadata
     id="metadata8"><rdf:RDF><cc:Work
         rdf:about=""><dc:format>image/svg+xml</dc:format><dc:type
           rdf:resource="http://purl.org/dc/dcmitype/StillImage" /></cc:Work></rdf:RDF></metadata><defs
     id="defs6" /><g
     transform="matrix(1.3333333,0,0,-1.3333333,0,344.74667)"
     id="g10"><g
       transform="scale(0.1)"
       id="g12"><path
         id="path14"
         style="fill:#ffffff;fill-opacity:1;fill-rule:nonzero;stroke:none"
         d="M 0,0 H 6436 V 2590 H 0 Z" /><g
         transform="scale(0.999609,-1.00039)"
         id="g16"><path
           id="path18"
           style="fill:none;stroke:#000000;stroke-width:15.62069988;stroke-linecap:butt;stroke-linejoin:miter;stroke-miterlimit:4;stroke-dasharray:none;stroke-opacity:1"
           d="m 476.382,-2054.1 h 358.214 v -316.02 H 476.382 Z" /></g><g
         transform="scale(0.999609,-1.00039)"
         id="g20"><path
           id="path22"
           style="fill:none;stroke:#000000;stroke-width:15.62069988;stroke-linecap:butt;stroke-linejoin:miter;stroke-miterlimit:4;stroke-dasharray:none;stroke-opacity:1"
           d="m 1462.58,-2054.1 h 358.22 v -316.02 h -358.22 z" /></g><path
         id="path24"
         style="fill:#000000;fill-opacity:1;fill-rule:nonzero;stroke:none"
         d="m 535,2432 v -2 h -33 v 2 h 2.719 c 2.937,0 5.484,0.96 6.922,2.89 0.691,1.3 1.359,4.3 1.359,9.11 v 51.98 c 0,4.07 -0.246,6.75 -0.734,8.05 -0.465,1.3 -1.153,1.82 -2.328,2.53 -1.981,1.1 -3.407,1.42 -5.219,1.42 H 502 v 2 h 33 v -2 h -2.766 c -3.203,0.01 -5.402,-0.96 -6.828,-2.89 -1.074,-0.96 -1.406,-4.29 -1.406,-9.11 V 2444 c 0,-4.06 0.242,-6.75 0.734,-8.05 0.129,-0.96 1.164,-1.82 2.375,-2.53 1.579,-0.76 3.321,-1.42 5.125,-1.42 H 535" /><path
         id="path26"
         style="fill:#000000;fill-opacity:1;fill-rule:nonzero;stroke:none"
         d="m 559,2473.83 c 6.313,7.49 12.332,11.15 18.063,11.15 2.914,0.01 5.46,-0.73 7.578,-2.18 1.91,-1.39 3.812,-3.87 5.062,-7.22 0.629,-2.19 1.297,-5.9 1.297,-10.74 V 2442 c 0,-3.4 0.266,-5.7 0.797,-6.91 0.148,-0.66 1.094,-1.73 2.031,-2.28 0.66,-0.48 2.66,-0.81 5.172,-0.81 v -2 h -26 v 2 h 1.031 c 2.289,0 3.91,0.38 4.828,1.14 0.641,1.05 1.567,1.88 1.922,3.36 -0.117,0.75 0.219,2.41 0.219,5.5 v 22.02 c 0,5.22 -0.633,8.44 -1.891,10.65 -1.289,2.32 -3.371,3.31 -6.359,3.31 -4.855,0.01 -9.187,-2.53 -13.75,-7.59 V 2442 c 0,-3.62 0.195,-5.87 0.594,-6.72 0.301,-0.9 1.187,-1.97 2.062,-2.5 0.657,-0.45 2.657,-0.78 5.344,-0.78 v -2 h -26 v 2 h 1.156 c 2.633,0 4.5,0.69 5.438,2.08 0.738,1.69 1.406,4.02 1.406,7.92 v 21 c 0,6.21 -0.133,9.98 -0.391,11.33 -0.464,1.58 -0.664,2.28 -1.203,2.78 -0.668,0.8 -1.246,0.77 -2.14,0.77 -1.059,0.03 -2.133,-0.3 -3.485,-0.9 l -0.781,2 15.578,6 H 559 v -11.15" /><path
         id="path28"
         style="fill:#000000;fill-opacity:1;fill-rule:nonzero;stroke:none"
         d="m 601,2478.98 15.859,6 H 619 v -12.18 c 2.75,4.58 5.508,7.66 8.281,9.47 2.688,2.05 5.703,2.71 8.766,2.71 5.336,0.01 9.812,-2.07 13.375,-6.23 4.242,-4.98 6.578,-11.67 6.578,-19.81 0,-9.1 -2.637,-16.65 -7.906,-22.61 -4.375,-4.67 -9.813,-7.33 -16.406,-7.33 -3.106,0 -5.36,0.45 -7.454,1.34 -1.632,0.87 -3.296,1.93 -5.234,3.86 V 2416 c 0,-3.58 0.195,-5.86 0.594,-6.83 0.195,-0.69 1.082,-1.74 2.062,-2.31 0.758,-0.52 2.758,-0.86 5.344,-0.86 v -2 h -28 v 2 h 1.578 c 2.11,-0.04 4.27,0.34 5.906,1.16 0.629,0.68 1.407,1.06 1.844,1.97 0.336,1.18 0.672,3.18 0.672,6.87 v 53 c 0,3.22 -0.141,5.26 -0.422,6.13 -0.465,1.16 -0.715,1.53 -1.328,1.98 -0.687,0.75 -1.422,0.69 -2.453,0.69 -1.102,0.06 -1.891,-0.28 -3.172,-0.82 z m 18,-9.56 v -19.64 c 0,-4.18 0.176,-7.05 0.531,-8.39 0.375,-2.01 1.895,-4.17 4.032,-5.86 1.957,-1.53 4.847,-2.53 8.109,-2.53 3.703,0 7.109,1.49 9.547,4.48 3.113,4.08 4.781,9.4 4.781,16.49 0,8.05 -1.809,14.22 -5.422,18.55 -2.715,3.14 -5.512,4.46 -8.969,4.46 -2.089,0.01 -3.75,-0.46 -5.593,-1.37 -1.422,-0.56 -3.758,-2.75 -7.016,-6.19" /><path
         id="path30"
         style="fill:#000000;fill-opacity:1;fill-rule:nonzero;stroke:none"
         d="M 711,2483.98 V 2451 c 0,-6.16 0.129,-9.92 0.391,-11.3 0.129,-1.27 0.675,-2.34 1.25,-2.89 0.359,-0.48 1.238,-0.81 2,-0.81 0.859,0 2.281,0.33 3.625,1 l 0.734,-2 -15.453,-6 H 701 v 11.16 c -4.617,-4.63 -8.137,-8 -10.562,-9.27 -2.575,-1.22 -4.997,-1.89 -7.704,-1.89 -3.257,0 -5.625,0.87 -7.843,2.61 -2.508,1.88 -3.746,3.99 -4.61,6.73 -0.949,2.96 -1.281,6.62 -1.281,11.63 v 24.01 c 0,2.47 -0.242,4.16 -0.719,5.11 -0.574,1.25 -1.195,1.68 -2.14,2.19 -0.996,0.75 -2.664,0.74 -5.141,0.7 v 2 h 18 v -35.82 c 0,-4.71 0.859,-8.27 2.578,-9.83 1.535,-1.33 3.813,-2.33 6.25,-2.33 1.379,0 3.535,0.52 5.641,1.58 1.957,1.19 4.625,3.05 7.531,6.01 v 30.39 c 0,3.09 -0.523,5.17 -1.562,6.25 -1.18,1.34 -3.18,1.67 -6.438,1.75 v 2 h 18" /><path
         id="path32"
         style="fill:#000000;fill-opacity:1;fill-rule:nonzero;stroke:none"
         d="m 739,2501.98 v -18 h 12.531 v -4 H 739 v -35.06 c 0,-3.48 0.457,-5.87 1.375,-7.09 0.801,-1.17 2.113,-1.83 3.563,-1.83 0.875,0 2.335,0.34 3.453,1.02 0.992,1 1.992,1.67 2.609,2.98 h 3 c -1.375,-3.65 -3.324,-6.39 -5.844,-8.23 -2.562,-1.77 -5.105,-2.77 -7.781,-2.77 -1.93,0 -3.57,0.5 -5.297,1.5 -1.758,1.18 -3.012,2.45 -3.844,4.33 -0.902,1.93 -1.234,4.77 -1.234,8.69 v 36.46 h -9 v 1.9 c 2.301,0.9 4.656,2.32 7.063,4.39 2.382,2.3 4.617,4.53 6.64,7.4 0.797,1.62 2.461,4.28 4.297,8.31 h 1" /><path
         id="path34"
         style="fill:#000000;fill-opacity:1;fill-rule:nonzero;stroke:none"
         d="M 793,2484.98 V 2467 h -2 c -1.5,5.41 -3.43,9.1 -5.781,11.05 -2.418,2.27 -5.336,2.93 -8.969,2.93 -2.855,0.01 -5.008,-0.69 -6.703,-2.09 -1.883,-1.35 -2.547,-2.92 -2.547,-4.61 0,-1.84 0.629,-3.87 1.891,-5.37 0.922,-1.52 3.703,-3.18 7.453,-4.91 l 8.64,-3.98 c 7.68,-3.48 12.016,-8.81 12.016,-15.02 0,-4.8 -1.875,-8.67 -5.625,-11.61 -3.875,-2.73 -7.949,-4.39 -12.594,-4.39 -3.593,0 -7.14,0.5 -11.422,1.5 -1.433,0.5 -2.386,0.5 -3.218,0.5 -0.953,0 -1.621,-0.67 -2.141,-2 h -2 v 18 h 2 c 1.102,-4.64 3.207,-8.13 6.313,-10.48 3.007,-2.19 6.601,-3.52 10.468,-3.52 2.457,0 4.93,0.77 6.641,2.31 1.578,1.77 2.578,3.4 2.578,5.57 0,2.66 -0.898,4.83 -2.687,6.62 -1.899,1.96 -5.563,4.01 -11.313,6.66 -5.75,2.93 -9.523,5.09 -11.312,7.31 -2.024,2.36 -2.688,4.95 -2.688,8.3 0,4.39 1.531,7.92 4.594,10.84 2.863,3.05 7.023,4.37 11.89,4.37 1.961,0.01 4.711,-0.4 7.766,-1.2 1.926,-0.46 3.352,-0.8 4.031,-0.8 0.532,0.01 1.114,0.12 1.469,0.36 0.102,0.47 0.77,0.8 1.25,1.64 h 2" /><path
         id="path36"
         style="fill:#000000;fill-opacity:1;fill-rule:nonzero;stroke:none"
         d="m 163,2251.98 v -27 h -2 c -0.648,5.33 -1.805,9.56 -3.469,12.71 -1.836,3.26 -4.027,5.66 -7.109,7.51 -3.215,2.12 -6.258,2.78 -9.547,2.78 -4.012,0.01 -6.797,-1.27 -9.234,-3.82 -2.641,-2.28 -3.641,-5.46 -3.641,-8.72 0,-2.31 0.758,-4.76 2.281,-6.81 2.102,-2.9 7.426,-7.05 15.688,-12.07 6.414,-3.95 11.504,-7.22 14.297,-9.37 2.711,-1.89 4.957,-4.7 6.468,-7.63 1.266,-2.78 2.266,-5.99 2.266,-9.18 0,-5.89 -2.297,-11.36 -6.891,-15.77 -4.621,-4.28 -10.484,-6.61 -17.703,-6.61 -2.398,0 -4.39,0.2 -6.39,0.58 -1.196,0.36 -3.653,1.01 -7.391,2.37 -3.949,1.38 -6.109,2.05 -7.109,2.05 -1.133,0 -1.719,-0.33 -2.282,-0.98 -0.632,-0.32 -0.964,-1.99 -1.234,-4.02 h -2 v 27 h 2 c 0.977,-5.78 2.297,-10.11 3.953,-12.98 1.336,-2.55 4.188,-5.27 7.594,-7.18 3.223,-1.84 7.141,-2.84 11.203,-2.84 4.457,0 8.426,1.33 11.156,3.98 2.426,2.68 4.094,5.82 4.094,9.44 0,2.21 -0.484,4.06 -1.453,6.11 -1.152,2.22 -2.477,3.98 -4.516,5.75 -1.386,1.45 -5.187,3.71 -11.437,7.52 -6.438,3.86 -10.93,6.84 -14.063,9.14 -3.304,2.32 -5.496,4.84 -7.109,7.62 -1.758,2.93 -2.422,5.84 -2.422,9.17 0,5.88 2.117,10.79 6.359,14.97 4.129,4.29 9.649,6.28 16.204,6.28 3.906,0.01 8.437,-1.13 13.031,-3.39 1.914,-0.93 3.609,-1.61 4.484,-1.61 0.961,0.01 1.797,0.33 2.422,0.99 0.457,0.67 1.125,2 1.5,4.01 h 2" /><path
         id="path38"
         style="fill:#000000;fill-opacity:1;fill-rule:nonzero;stroke:none"
         d="m 196,2253.98 v -40.09 c 4.363,4.77 7.828,7.76 10.391,9.09 2.429,1.34 5.117,2 7.672,2 3.05,0.01 5.707,-0.84 7.906,-2.51 1.883,-1.5 3.844,-4.31 4.906,-7.89 0.457,-2.34 1.125,-7.03 1.125,-13.66 V 2182 c 0,-3.4 0.273,-5.71 0.828,-6.95 0.11,-0.62 1.047,-1.69 1.985,-2.24 0.675,-0.48 2.675,-0.81 5.187,-0.81 v -2 h -26 v 2 h 1.141 c 2.254,0 3.898,0.38 4.797,1.14 0.593,1.05 1.539,1.88 1.906,3.36 -0.18,0.79 0.156,2.46 0.156,5.5 v 18.97 c 0,5.86 -0.305,9.69 -0.906,11.51 -0.637,2.01 -1.574,3.21 -2.906,4.13 -1.387,1.05 -2.918,1.37 -4.782,1.37 -2.054,0.01 -3.914,-0.51 -5.984,-1.53 -2.203,-0.82 -4.539,-3.04 -7.422,-6.11 V 2182 c 0,-3.67 0.188,-5.95 0.563,-6.84 0.195,-0.62 1.085,-1.65 2.109,-2.25 0.805,-0.58 2.805,-0.91 5.328,-0.91 v -2 h -26 v 2 c 2.32,0 4.148,0.37 5.484,1.11 0.598,0.69 1.368,1.13 1.829,2.22 0.351,1.31 0.687,3.31 0.687,6.67 v 49.98 c 0,6.15 -0.133,9.91 -0.391,11.32 -0.464,1.64 -0.664,2.36 -1.203,2.86 -0.668,0.79 -1.246,0.76 -2.14,0.76 -0.821,0.03 -1.907,-0.31 -3.532,-0.94 l -0.734,2 15.406,6 H 196" /><path
         id="path40"
         style="fill:#000000;fill-opacity:1;fill-rule:nonzero;stroke:none"
         d="m 271,2177.95 c -5.531,-4.29 -9,-6.8 -10.406,-7.47 -2.324,-0.81 -4.383,-1.48 -6.766,-1.48 -4.008,0 -6.805,1.24 -9.219,3.73 -2.609,2.58 -3.609,5.77 -3.609,9.85 0,2.7 0.586,4.78 1.766,6.67 1.347,2.85 4.394,5.05 8.375,7.34 3.941,2.44 10.609,5.11 19.859,8.41 v 2.09 c 0,5.61 -0.855,8.95 -2.562,10.93 -1.856,2.3 -4.188,2.96 -7.438,2.96 -2.469,0.01 -4.43,-0.64 -5.875,-1.92 -1.543,-0.96 -2.25,-2.73 -2.25,-4.39 l 0.125,-3.26 c 0,-1.53 -0.465,-3.07 -1.391,-4 -1.132,-0.75 -2.14,-1.41 -3.64,-1.41 -1.781,0 -2.653,0.5 -3.578,1.5 -1.059,1.18 -1.391,2.39 -1.391,4.14 0,3.44 1.738,6.38 5.219,9.16 3.414,2.86 8.379,4.18 14.672,4.18 4.535,0.01 8.789,-0.8 11.875,-2.4 2.078,-1.07 4.054,-3.11 5.172,-5.69 0.394,-1.65 1.062,-5.12 1.062,-10.31 v -18.25 c 0,-4.9 0.094,-8.27 0.281,-9.42 0.102,-1.13 0.516,-1.94 0.953,-2.33 0.36,-0.25 0.942,-0.58 1.516,-0.58 0.363,0 1.148,0.11 1.609,0.34 0.68,0.66 2.348,1.66 4.641,3.66 v -2.8 c -4.406,-5.2 -8.617,-8.2 -12.625,-8.2 -2.055,0 -3.465,0.68 -4.609,2.03 -1.391,1.68 -1.727,3.66 -1.766,6.92 z m 0,3.61 V 2201 c -5.887,-2.23 -9.687,-3.81 -11.406,-4.73 -3.274,-1.39 -5.278,-3.35 -6.61,-5.13 -1.652,-1.5 -1.984,-3.73 -1.984,-5.84 0,-2.44 0.836,-4.89 2.516,-6.66 1.504,-1.64 3.601,-2.64 5.781,-2.64 2.867,0 6.867,1.85 11.703,5.56" /><path
         id="path42"
         style="fill:#000000;fill-opacity:1;fill-rule:nonzero;stroke:none"
         d="m 291,2218.98 15.859,6 H 309 v -12.18 c 2.75,4.58 5.508,7.66 8.281,9.47 2.688,2.05 5.703,2.71 8.766,2.71 5.336,0.01 9.812,-2.07 13.375,-6.23 4.242,-4.98 6.578,-11.67 6.578,-19.81 0,-9.1 -2.637,-16.65 -7.906,-22.61 -4.375,-4.67 -9.813,-7.33 -16.406,-7.33 -3.106,0 -5.36,0.45 -7.454,1.34 -1.632,0.87 -3.296,1.93 -5.234,3.86 V 2156 c 0,-3.58 0.195,-5.86 0.594,-6.83 0.195,-0.69 1.082,-1.74 2.062,-2.31 0.758,-0.52 2.758,-0.86 5.344,-0.86 v -2 h -28 v 2 h 1.578 c 2.11,-0.04 4.27,0.34 5.906,1.16 0.629,0.68 1.407,1.06 1.844,1.97 0.336,1.18 0.672,3.18 0.672,6.87 v 53 c 0,3.22 -0.141,5.26 -0.422,6.13 -0.465,1.16 -0.715,1.53 -1.328,1.98 -0.687,0.75 -1.422,0.69 -2.453,0.69 -1.102,0.06 -1.891,-0.28 -3.172,-0.82 z m 18,-9.56 v -19.64 c 0,-4.18 0.176,-7.05 0.531,-8.39 0.375,-2.01 1.895,-4.17 4.032,-5.86 1.957,-1.53 4.847,-2.53 8.109,-2.53 3.703,0 7.109,1.49 9.547,4.48 3.113,4.08 4.781,9.4 4.781,16.49 0,8.05 -1.809,14.22 -5.422,18.55 -2.715,3.14 -5.512,4.46 -8.969,4.46 -2.089,0.01 -3.75,-0.46 -5.593,-1.37 -1.422,-0.56 -3.758,-2.75 -7.016,-6.19" /><path
         id="path44"
         style="fill:#000000;fill-opacity:1;fill-rule:nonzero;stroke:none"
         d="m 363,2203 c -0.043,-7.49 1.875,-13.36 5.75,-17.61 3.625,-4.06 8.43,-6.39 13.672,-6.39 3.348,0 6.519,0.82 9.094,2.45 2.41,1.83 4.742,4.83 6.484,9.55 l 1,-1.09 c -0.812,-5.58 -3.18,-10.5 -7.094,-14.66 -4.211,-3.92 -8.804,-6.25 -14.687,-6.25 -6.461,0 -11.856,2.47 -16.406,7.41 -4.813,5.13 -6.813,11.57 -6.813,19.9 0,9.25 2.332,16.05 7,21.1 4.664,5.25 10.52,7.57 17.563,7.57 5.769,0.01 10.851,-1.99 14.687,-5.98 3.75,-3.99 5.75,-9.32 5.75,-16 z m 0,4 h 24 c -0.187,3.36 -0.586,5.73 -1.187,7.09 -1.219,2.45 -2.356,3.83 -4.219,5.05 -2.063,1.52 -3.821,1.84 -5.86,1.84 -3.382,0.01 -5.937,-1.23 -8.406,-3.7 -2.578,-2.23 -3.914,-5.9 -4.328,-10.28" /><path
         id="path46"
         style="fill:#000000;fill-opacity:1;fill-rule:nonzero;stroke:none"
         d="m 1570.42,2509.98 v -2 c -2.21,0.01 -3.76,-0.37 -5.04,-1.12 -1.41,-0.7 -2.52,-2.15 -3.69,-4.2 -1.01,-1.28 -2.01,-4.69 -3.69,-9.91 L 1535.31,2428 h -2.01 l -17.66,49.88 -16.48,-49.88 h -3.13 l -23.09,66.47 c -2.08,5.25 -2.88,8.07 -3.35,8.98 -0.98,1.71 -1.85,2.67 -3.2,3.41 -1.48,0.8 -3.17,1.12 -5.47,1.12 v 2 h 29.3 v -2 h -1.41 c -2.34,0.01 -3.65,-0.5 -4.75,-1.5 -1.11,-0.82 -1.64,-2.18 -1.64,-3.59 -0.14,-1.42 0.86,-4.8 2.58,-10.01 l 15.5,-45 12.34,37.9 -2.56,7.25 -1.87,5.6 c -0.96,2.17 -1.75,3.85 -2.77,5.42 -0.73,1.09 -1.14,1.43 -1.87,1.97 -1.24,1.06 -1.97,1.27 -2.94,1.59 -1.02,0.38 -1.92,0.37 -3.52,0.37 v 2 h 30.89 v -2 h -2.11 c -2.21,0.01 -3.79,-0.49 -4.81,-1.46 -1.1,-0.82 -1.51,-2.31 -1.51,-3.99 -0.26,-1.94 0.87,-5.73 2.64,-10.92 l 15.28,-43.17 15.56,44.04 c 1.63,5.16 2.58,8.45 2.58,10.38 -0.28,0.97 -0.29,1.79 -0.86,2.59 -0.89,0.99 -1.27,1.37 -2.13,1.69 -1.77,0.85 -3.43,0.84 -5.81,0.84 v 2 h 23.39" /><path
         id="path48"
         style="fill:#000000;fill-opacity:1;fill-rule:nonzero;stroke:none"
         d="m 1575,2463 c -0.04,-7.49 1.88,-13.36 5.75,-17.61 3.63,-4.06 8.43,-6.39 13.67,-6.39 3.35,0 6.52,0.82 9.1,2.45 2.41,1.83 4.74,4.83 6.48,9.55 l 1,-1.09 c -0.81,-5.58 -3.18,-10.5 -7.09,-14.66 -4.21,-3.92 -8.81,-6.25 -14.69,-6.25 -6.46,0 -11.86,2.47 -16.41,7.41 -4.81,5.13 -6.81,11.57 -6.81,19.9 0,9.25 2.33,16.05 7,21.1 4.66,5.25 10.52,7.57 17.56,7.57 5.77,0.01 10.85,-1.99 14.69,-5.98 3.75,-3.99 5.75,-9.32 5.75,-16 z m 0,4 h 24 c -0.19,3.36 -0.59,5.73 -1.19,7.09 -1.22,2.45 -2.35,3.83 -4.22,5.05 -2.06,1.52 -3.82,1.84 -5.86,1.84 -3.38,0.01 -5.93,-1.23 -8.4,-3.7 -2.58,-2.23 -3.92,-5.9 -4.33,-10.28" /><path
         id="path50"
         style="fill:#000000;fill-opacity:1;fill-rule:nonzero;stroke:none"
         d="m 1632.53,2513.98 c 1.61,0.01 3.32,-0.63 4.58,-1.89 1.22,-0.96 1.89,-2.79 1.89,-4.57 0,-1.64 -0.63,-3.33 -1.89,-4.61 -1.3,-1.25 -2.79,-1.93 -4.58,-1.93 -1.97,0.01 -3.33,0.65 -4.61,1.93 -1.59,1.31 -1.92,2.81 -1.92,4.61 0,1.95 0.63,3.31 1.89,4.57 0.96,1.57 2.81,1.89 4.64,1.89 z m 5.47,-29 V 2442 c 0,-3.36 0.24,-5.59 0.72,-6.7 0.24,-0.87 1.19,-1.94 2.12,-2.49 0.67,-0.48 2.67,-0.81 5.16,-0.81 v -2 h -26 v 2 c 2.55,0 4.27,0.25 5.14,0.75 0.83,0.59 1.57,1.35 2.08,2.52 0.44,1.42 0.78,3.42 0.78,6.73 v 21 c 0,5.91 -0.16,9.74 -0.47,11.48 -0.42,1.45 -0.62,2.15 -1.14,2.65 -0.65,0.78 -1.23,0.75 -2.12,0.75 -1.06,0.03 -2.15,-0.3 -3.54,-0.9 l -0.73,2 15.53,6 h 2.47" /><path
         id="path52"
         style="fill:#000000;fill-opacity:1;fill-rule:nonzero;stroke:none"
         d="m 1665.11,2449.39 c -3.29,1.8 -5.75,3.82 -7.5,6.69 -1.95,3.18 -2.61,6.05 -2.61,9.51 0,5.43 2,9.85 6.02,13.66 4,4.07 9.14,5.73 15.4,5.73 4.99,0.01 9.56,-1.33 13.31,-4 h 11.4 c 1.64,0.01 2.66,-0.03 2.93,-0.1 0.25,-0.04 0.46,-0.2 0.58,-0.38 0.02,-0.11 0.36,-0.75 0.36,-1.42 0,-0.47 -0.11,-1.31 -0.31,-1.61 -0.36,0.03 -0.35,-0.27 -0.66,-0.36 -0.31,0.21 -1.34,-0.13 -3.12,-0.13 h -7.19 c 1.94,-2.9 3.28,-6.62 3.28,-11.15 0,-5.13 -1.9,-9.63 -5.7,-13.31 -3.89,-3.52 -8.89,-5.52 -15.27,-5.52 -2.65,0 -5.33,0.41 -8.08,1.22 -2.25,-1.11 -3.25,-2.56 -3.93,-3.59 -0.69,-0.9 -1.02,-1.9 -1.02,-2.61 0,-0.28 0.34,-1.2 1.02,-1.79 0.68,-0.32 2.02,-0.98 4.01,-1.23 1.15,-0.12 4.06,-0.23 8.7,-0.33 8.29,-0.06 14.07,-0.39 16.6,-0.67 3.74,-0.52 6.92,-1.91 9.22,-4.16 2.11,-2.18 3.45,-5 3.45,-8.29 0,-4.38 -2.12,-8.79 -6.37,-12.77 -6.47,-5.78 -14.43,-8.78 -24.5,-8.78 -7.79,0 -14.28,1.71 -19.61,5.13 -3.19,2.25 -4.52,4 -4.52,6.12 0,1.19 0.2,1.88 0.61,2.83 0.44,1.76 1.96,3.47 3.94,6.06 0.08,0.64 2.16,2.48 5.72,6.36 -2.38,1.36 -3.9,2.27 -4.85,3.22 -1.09,1.04 -1.42,2.02 -1.42,3.22 0,1.36 0.6,2.92 1.8,4.73 0.93,1.93 3.97,4.4 8.31,7.72 z m 10.12,32.59 c -2.98,0.01 -5.34,-1.14 -7.29,-3.43 -2.28,-2.14 -2.94,-5.78 -2.94,-10.49 0,-5.8 1.33,-10.86 4,-14.23 2.04,-2.5 4.63,-3.83 7.77,-3.83 2.72,0 5.42,1.1 7.34,3.31 1.89,2.44 2.89,5.67 2.89,10.39 0,6.25 -1.36,10.96 -4.06,14.46 -2.31,2.83 -4.57,3.82 -7.71,3.82 z M 1664.42,2430 c -1.93,-2.01 -3.15,-3.88 -4.06,-5.61 -1.03,-1.52 -1.36,-3.32 -1.36,-4.78 0,-1.75 1.19,-3.54 3.58,-4.95 3.91,-2.32 10.03,-3.66 17.8,-3.66 7.26,0 12.84,1.28 16.35,3.83 3.27,2.6 5.27,5.26 5.27,8.15 0,2.09 -1.06,3.57 -3.17,4.46 -2.45,1.07 -6.45,1.4 -12.85,1.56 -9.67,0.18 -16.53,0.51 -21.56,1" /><path
         id="path54"
         style="fill:#000000;fill-opacity:1;fill-rule:nonzero;stroke:none"
         d="m 1727,2513.98 v -40.09 c 4.36,4.77 7.83,7.76 10.39,9.09 2.43,1.34 5.12,2 7.67,2 3.05,0.01 5.71,-0.84 7.91,-2.51 1.88,-1.5 3.84,-4.31 4.91,-7.89 0.45,-2.34 1.12,-7.03 1.12,-13.66 V 2442 c 0,-3.4 0.27,-5.71 0.83,-6.95 0.11,-0.62 1.05,-1.69 1.98,-2.24 0.68,-0.48 2.68,-0.81 5.19,-0.81 v -2 h -26 v 2 h 1.14 c 2.25,0 3.9,0.38 4.8,1.14 0.59,1.05 1.54,1.88 1.9,3.36 -0.18,0.79 0.16,2.46 0.16,5.5 v 18.97 c 0,5.86 -0.3,9.69 -0.91,11.51 -0.63,2.01 -1.57,3.21 -2.9,4.13 -1.39,1.05 -2.92,1.37 -4.78,1.37 -2.06,0.01 -3.92,-0.51 -5.99,-1.53 -2.2,-0.82 -4.54,-3.04 -7.42,-6.11 V 2442 c 0,-3.67 0.19,-5.95 0.56,-6.84 0.2,-0.62 1.09,-1.65 2.11,-2.25 0.81,-0.58 2.81,-0.91 5.33,-0.91 v -2 h -26 v 2 c 2.32,0 4.15,0.37 5.48,1.11 0.6,0.69 1.37,1.13 1.83,2.22 0.35,1.31 0.69,3.31 0.69,6.67 v 49.98 c 0,6.15 -0.13,9.91 -0.39,11.32 -0.47,1.64 -0.66,2.36 -1.2,2.86 -0.67,0.79 -1.25,0.76 -2.14,0.76 -0.82,0.03 -1.91,-0.31 -3.54,-0.94 l -0.73,2 15.41,6 h 2.59" /><path
         id="path56"
         style="fill:#000000;fill-opacity:1;fill-rule:nonzero;stroke:none"
         d="m 1787,2501.98 v -18 h 12.53 v -4 H 1787 v -35.06 c 0,-3.48 0.46,-5.87 1.38,-7.09 0.8,-1.17 2.11,-1.83 3.56,-1.83 0.87,0 2.33,0.34 3.45,1.02 0.99,1 1.99,1.67 2.61,2.98 h 3 c -1.37,-3.65 -3.32,-6.39 -5.84,-8.23 -2.57,-1.77 -5.11,-2.77 -7.78,-2.77 -1.93,0 -3.58,0.5 -5.3,1.5 -1.76,1.18 -3.01,2.45 -3.85,4.33 -0.9,1.93 -1.23,4.77 -1.23,8.69 v 36.46 h -9 v 1.9 c 2.3,0.9 4.66,2.32 7.06,4.39 2.39,2.3 4.62,4.53 6.64,7.4 0.8,1.62 2.46,4.28 4.3,8.31 h 1" /><path
         id="path58"
         style="fill:#000000;fill-opacity:1;fill-rule:nonzero;stroke:none"
         d="M 1841,2484.98 V 2467 h -2 c -1.5,5.41 -3.43,9.1 -5.78,11.05 -2.42,2.27 -5.34,2.93 -8.97,2.93 -2.86,0.01 -5.01,-0.69 -6.7,-2.09 -1.89,-1.35 -2.55,-2.92 -2.55,-4.61 0,-1.84 0.63,-3.87 1.89,-5.37 0.92,-1.52 3.7,-3.18 7.45,-4.91 l 8.64,-3.98 c 7.68,-3.48 12.02,-8.81 12.02,-15.02 0,-4.8 -1.87,-8.67 -5.62,-11.61 -3.88,-2.73 -7.95,-4.39 -12.6,-4.39 -3.59,0 -7.14,0.5 -11.42,1.5 -1.43,0.5 -2.39,0.5 -3.22,0.5 -0.95,0 -1.62,-0.67 -2.14,-2 h -2 v 18 h 2 c 1.1,-4.64 3.21,-8.13 6.31,-10.48 3.01,-2.19 6.6,-3.52 10.47,-3.52 2.46,0 4.93,0.77 6.64,2.31 1.58,1.77 2.58,3.4 2.58,5.57 0,2.66 -0.9,4.83 -2.69,6.62 -1.9,1.96 -5.56,4.01 -11.31,6.66 -5.75,2.93 -9.52,5.09 -11.31,7.31 -2.03,2.36 -2.69,4.95 -2.69,8.3 0,4.39 1.53,7.92 4.59,10.84 2.87,3.05 7.03,4.37 11.89,4.37 1.97,0.01 4.72,-0.4 7.77,-1.2 1.93,-0.46 3.35,-0.8 4.03,-0.8 0.53,0.01 1.11,0.12 1.47,0.36 0.1,0.47 0.77,0.8 1.25,1.64 h 2" /><g
         transform="scale(0.999609,-1.00039)"
         id="g60"><path
           id="path62"
           style="fill:none;stroke:#000000;stroke-width:15.62069988;stroke-linecap:butt;stroke-linejoin:miter;stroke-miterlimit:4;stroke-dasharray:none;stroke-opacity:1"
           d="m 476.382,-1655.67 h 358.214 v -316.02 H 476.382 Z" /></g><path
         id="path64"
         style="fill:#000000;fill-opacity:1;fill-rule:nonzero;stroke:none"
         d="M 161,667.719 V 644 c 0,-5.043 0.523,-8.18 1.578,-9.406 C 163.813,633 166.164,632 169.063,632 H 172 v -2 h -33 v 2 h 2.891 c 2.953,0 5.57,1.102 6.968,3.313 0.473,1.445 1.141,4.113 1.141,8.687 v 51.984 c 0,5.047 -0.512,8.176 -1.531,9.407 -1.637,1.929 -3.672,2.593 -6.578,2.593 H 139 v 2 h 29.344 c 7.051,0.004 12.816,-0.734 16.953,-2.203 4.035,-1.398 7.617,-3.949 10.453,-7.437 2.582,-3.262 4.25,-7.61 4.25,-12.391 0,-6.484 -2.203,-11.789 -6.609,-15.859 -4.528,-3.762 -10.61,-6.094 -18.641,-6.094 -2.219,0 -4.102,0.141 -6.391,0.422 -2.414,0.484 -4.746,0.723 -7.359,1.297 z m 0,3.469 c 2.188,-0.125 4.129,-0.696 5.828,-0.891 1.422,0.035 3.145,-0.297 4.344,-0.297 4.242,0 8.016,1.598 11.141,4.797 3.019,3.266 4.687,7.344 4.687,12.437 0,3.754 -0.746,6.75 -2.234,9.75 -1.746,3.016 -3.602,5.258 -6.328,6.75 -2.875,1.586 -5.836,2.25 -9.313,2.25 -2.148,0.004 -4.812,-0.382 -8.125,-1.14 v -33.656" /><path
         id="path66"
         style="fill:#000000;fill-opacity:1;fill-rule:nonzero;stroke:none"
         d="m 221.531,713.984 c 1.614,0.004 3.317,-0.632 4.578,-1.89 1.223,-0.961 1.891,-2.789 1.891,-4.578 0,-1.633 -0.633,-3.328 -1.891,-4.61 -1.296,-1.25 -2.789,-1.922 -4.578,-1.922 -1.968,0.004 -3.328,0.641 -4.609,1.922 -1.59,1.313 -1.922,2.817 -1.922,4.61 0,1.953 0.629,3.316 1.891,4.578 0.961,1.562 2.804,1.89 4.64,1.89 z m 5.469,-29 V 642 c 0,-3.355 0.238,-5.59 0.719,-6.703 0.238,-0.871 1.187,-1.934 2.125,-2.484 C 230.508,632.332 232.508,632 235,632 v -2 h -26 v 2 c 2.551,0 4.266,0.25 5.141,0.75 0.828,0.594 1.566,1.348 2.078,2.516 0.445,1.422 0.781,3.422 0.781,6.734 v 21 c 0,5.914 -0.156,9.742 -0.469,11.484 -0.418,1.442 -0.621,2.149 -1.14,2.641 -0.653,0.789 -1.231,0.75 -2.125,0.75 -1.059,0.039 -2.149,-0.297 -3.532,-0.891 l -0.734,2 15.531,6 H 227" /><path
         id="path68"
         style="fill:#000000;fill-opacity:1;fill-rule:nonzero;stroke:none"
         d="m 256,673.828 c 6.313,7.492 12.332,11.156 18.063,11.156 2.914,0.004 5.46,-0.73 7.578,-2.187 1.91,-1.391 3.812,-3.867 5.062,-7.219 0.629,-2.183 1.297,-5.902 1.297,-10.734 V 642 c 0,-3.398 0.266,-5.699 0.797,-6.906 0.148,-0.668 1.094,-1.731 2.031,-2.281 0.66,-0.481 2.66,-0.813 5.172,-0.813 v -2 h -26 v 2 h 1.031 c 2.289,0 3.91,0.379 4.828,1.141 0.641,1.047 1.567,1.879 1.922,3.359 -0.117,0.75 0.219,2.414 0.219,5.5 v 22.016 c 0,5.222 -0.633,8.445 -1.891,10.656 -1.289,2.316 -3.371,3.312 -6.359,3.312 -4.855,0.004 -9.187,-2.531 -13.75,-7.593 L 256,642 c 0,-3.625 0.195,-5.867 0.594,-6.719 0.301,-0.898 1.187,-1.968 2.062,-2.5 C 259.313,632.332 261.313,632 264,632 v -2 h -26 v 2 h 1.156 c 2.633,0 4.5,0.691 5.438,2.078 0.738,1.692 1.406,4.024 1.406,7.922 v 21 c 0,6.207 -0.133,9.984 -0.391,11.328 -0.464,1.578 -0.664,2.281 -1.203,2.781 -0.668,0.805 -1.246,0.766 -2.14,0.766 -1.059,0.039 -2.133,-0.297 -3.485,-0.891 l -0.781,2 15.578,6 H 256 v -11.156" /><path
         id="path70"
         style="fill:#000000;fill-opacity:1;fill-rule:nonzero;stroke:none"
         d="m 310,663 c -0.043,-7.492 1.875,-13.359 5.75,-17.609 3.625,-4.059 8.43,-6.391 13.672,-6.391 3.348,0 6.519,0.816 9.094,2.453 2.41,1.828 4.742,4.828 6.484,9.547 l 1,-1.094 c -0.812,-5.574 -3.18,-10.492 -7.094,-14.656 -4.211,-3.918 -8.804,-6.25 -14.687,-6.25 -6.461,0 -11.856,2.469 -16.406,7.406 C 303,641.539 301,647.977 301,656.313 c 0,9.25 2.332,16.05 7,21.093 4.664,5.25 10.52,7.578 17.563,7.578 5.769,0.004 10.851,-1.996 14.687,-5.984 3.75,-3.992 5.75,-9.324 5.75,-16 z m 0,4 h 24 c -0.187,3.363 -0.586,5.727 -1.187,7.094 -1.219,2.445 -2.356,3.828 -4.219,5.047 -2.063,1.515 -3.821,1.843 -5.86,1.843 -3.382,0.004 -5.937,-1.234 -8.406,-3.703 C 311.75,675.051 310.414,671.383 310,667" /><path
         id="path72"
         style="fill:#000000;fill-opacity:1;fill-rule:nonzero;stroke:none"
         d="m 144,497.953 c -5.531,-4.297 -9,-6.805 -10.406,-7.469 -2.324,-0.816 -4.383,-1.484 -6.766,-1.484 -4.008,0 -6.805,1.242 -9.219,3.734 -2.609,2.579 -3.609,5.77 -3.609,9.844 0,2.703 0.586,4.785 1.766,6.672 1.347,2.852 4.394,5.051 8.375,7.344 3.941,2.437 10.609,5.101 19.859,8.406 v 2.094 c 0,5.601 -0.855,8.941 -2.562,10.922 -1.856,2.304 -4.188,2.968 -7.438,2.968 -2.469,0.004 -4.43,-0.64 -5.875,-1.921 -1.543,-0.961 -2.25,-2.735 -2.25,-4.391 L 126,531.406 c 0,-1.531 -0.465,-3.062 -1.391,-4 -1.132,-0.742 -2.14,-1.406 -3.64,-1.406 -1.781,0 -2.653,0.5 -3.578,1.5 -1.059,1.176 -1.391,2.391 -1.391,4.141 0,3.441 1.738,6.375 5.219,9.156 3.414,2.859 8.379,4.187 14.672,4.187 4.535,0.004 8.789,-0.804 11.875,-2.406 2.078,-1.07 4.054,-3.105 5.172,-5.687 0.394,-1.653 1.062,-5.125 1.062,-10.313 v -18.25 c 0,-4.902 0.094,-8.265 0.281,-9.422 0.102,-1.125 0.516,-1.933 0.953,-2.328 0.36,-0.246 0.942,-0.578 1.516,-0.578 0.363,0 1.148,0.113 1.609,0.344 C 159.039,497 160.707,498 163,500 v -2.797 C 158.594,492 154.383,489 150.375,489 c -2.055,0 -3.465,0.68 -4.609,2.031 -1.391,1.676 -1.727,3.66 -1.766,6.922 z m 0,3.61 V 521 c -5.887,-2.23 -9.687,-3.809 -11.406,-4.734 -3.274,-1.391 -5.278,-3.344 -6.61,-5.125 -1.652,-1.496 -1.984,-3.731 -1.984,-5.844 0,-2.434 0.836,-4.887 2.516,-6.656 1.504,-1.641 3.601,-2.641 5.781,-2.641 2.867,0 6.867,1.852 11.703,5.563" /><path
         id="path74"
         style="fill:#000000;fill-opacity:1;fill-rule:nonzero;stroke:none"
         d="m 164,538.984 15.859,6 H 182 v -12.187 c 2.75,4.578 5.508,7.664 8.281,9.469 2.688,2.054 5.703,2.718 8.766,2.718 5.336,0.004 9.812,-2.078 13.375,-6.234 4.242,-4.98 6.578,-11.668 6.578,-19.812 0,-9.094 -2.637,-16.653 -7.906,-22.61 -4.375,-4.664 -9.813,-7.328 -16.406,-7.328 -3.106,0 -5.36,0.449 -7.454,1.344 -1.632,0.863 -3.296,1.929 -5.234,3.859 L 182,476 c 0,-3.582 0.195,-5.859 0.594,-6.828 0.195,-0.692 1.082,-1.738 2.062,-2.313 C 185.414,466.336 187.414,466 190,466 v -2 h -28 v 2 h 1.578 c 2.11,-0.039 4.27,0.344 5.906,1.156 0.629,0.688 1.407,1.063 1.844,1.969 0.336,1.188 0.672,3.188 0.672,6.875 v 53 c 0,3.219 -0.141,5.258 -0.422,6.125 -0.465,1.164 -0.715,1.535 -1.328,1.984 -0.687,0.754 -1.422,0.688 -2.453,0.688 -1.102,0.066 -1.891,-0.274 -3.172,-0.813 z m 18,-9.562 v -19.641 c 0,-4.179 0.176,-7.047 0.531,-8.39 0.375,-2.016 1.895,-4.172 4.032,-5.86 C 188.52,494 191.41,493 194.672,493 c 3.703,0 7.109,1.492 9.547,4.484 3.113,4.079 4.781,9.399 4.781,16.485 0,8.051 -1.809,14.222 -5.422,18.547 -2.715,3.14 -5.512,4.468 -8.969,4.468 -2.089,0.004 -3.75,-0.461 -5.593,-1.375 -1.422,-0.558 -3.758,-2.75 -7.016,-6.187" /><path
         id="path76"
         style="fill:#000000;fill-opacity:1;fill-rule:nonzero;stroke:none"
         d="m 224,538.984 15.859,6 H 242 v -12.187 c 2.75,4.578 5.508,7.664 8.281,9.469 2.688,2.054 5.703,2.718 8.766,2.718 5.336,0.004 9.812,-2.078 13.375,-6.234 4.242,-4.98 6.578,-11.668 6.578,-19.812 0,-9.094 -2.637,-16.653 -7.906,-22.61 -4.375,-4.664 -9.813,-7.328 -16.406,-7.328 -3.106,0 -5.36,0.449 -7.454,1.344 -1.632,0.863 -3.296,1.929 -5.234,3.859 L 242,476 c 0,-3.582 0.195,-5.859 0.594,-6.828 0.195,-0.692 1.082,-1.738 2.062,-2.313 C 245.414,466.336 247.414,466 250,466 v -2 h -28 v 2 h 1.578 c 2.11,-0.039 4.27,0.344 5.906,1.156 0.629,0.688 1.407,1.063 1.844,1.969 0.336,1.188 0.672,3.188 0.672,6.875 v 53 c 0,3.219 -0.141,5.258 -0.422,6.125 -0.465,1.164 -0.715,1.535 -1.328,1.984 -0.687,0.754 -1.422,0.688 -2.453,0.688 -1.102,0.066 -1.891,-0.274 -3.172,-0.813 z m 18,-9.562 v -19.641 c 0,-4.179 0.176,-7.047 0.531,-8.39 0.375,-2.016 1.895,-4.172 4.032,-5.86 C 248.52,494 251.41,493 254.672,493 c 3.703,0 7.109,1.492 9.547,4.484 3.113,4.079 4.781,9.399 4.781,16.485 0,8.051 -1.809,14.222 -5.422,18.547 -2.715,3.14 -5.512,4.468 -8.969,4.468 -2.089,0.004 -3.75,-0.461 -5.593,-1.375 -1.422,-0.558 -3.758,-2.75 -7.016,-6.187" /><path
         id="path78"
         style="fill:#000000;fill-opacity:1;fill-rule:nonzero;stroke:none"
         d="M 306,573.984 V 502 c 0,-3.355 0.223,-5.578 0.672,-6.672 0.223,-0.859 1.141,-1.914 2.078,-2.484 0.688,-0.512 2.688,-0.844 5.25,-0.844 v -2 h -26 v 2 c 2.488,0 4.188,0.25 5.094,0.75 0.875,0.594 1.613,1.348 2.125,2.516 0.445,1.422 0.781,3.422 0.781,6.734 v 49.984 c 0,6.129 -0.125,9.891 -0.375,11.297 -0.449,1.645 -0.637,2.364 -1.187,2.875 -0.688,0.789 -1.231,0.766 -2.063,0.766 -1.043,0.023 -2.078,-0.313 -3.484,-0.938 l -0.891,2 15.453,6 H 306" /><path
         id="path80"
         style="fill:#000000;fill-opacity:1;fill-rule:nonzero;stroke:none"
         d="m 330,523 c -0.043,-7.492 1.875,-13.359 5.75,-17.609 3.625,-4.059 8.43,-6.391 13.672,-6.391 3.348,0 6.519,0.816 9.094,2.453 2.41,1.828 4.742,4.828 6.484,9.547 l 1,-1.094 c -0.812,-5.574 -3.18,-10.492 -7.094,-14.656 -4.211,-3.918 -8.804,-6.25 -14.687,-6.25 -6.461,0 -11.856,2.469 -16.406,7.406 C 323,501.539 321,507.977 321,516.313 c 0,9.25 2.332,16.05 7,21.093 4.664,5.25 10.52,7.578 17.563,7.578 5.769,0.004 10.851,-1.996 14.687,-5.984 3.75,-3.992 5.75,-9.324 5.75,-16 z m 0,4 h 24 c -0.187,3.363 -0.586,5.727 -1.187,7.094 -1.219,2.445 -2.356,3.828 -4.219,5.047 -2.063,1.515 -3.821,1.843 -5.86,1.843 -3.382,0.004 -5.937,-1.234 -8.406,-3.703 C 331.75,535.051 330.414,531.383 330,527" /><path
         id="path82"
         style="fill:#000000;fill-opacity:1;fill-rule:nonzero;stroke:none"
         d="m 397,509 h -2 c 0.207,4.852 0.785,8.867 1.734,12.047 0.704,3.492 3.082,7.594 6.407,13.25 2.39,4.586 4.019,7.719 4.75,10.094 0.441,2.586 1.109,4.797 1.109,7.234 0,5.125 -1.367,8.973 -4.094,11.922 -3.031,3.109 -6.074,4.437 -10.031,4.437 -3.812,0.004 -6.293,-0.812 -8.312,-2.437 -2.211,-1.465 -3.032,-3.375 -3.032,-5.281 -0.179,-1.215 0.578,-3.258 1.735,-5.391 1.066,-2.086 1.734,-3.742 1.734,-4.844 0,-1.105 -0.445,-2.625 -1.328,-3.593 -1.109,-0.782 -1.969,-1.454 -3.25,-1.454 -1.758,0.004 -3.09,0.836 -4.422,2.516 -1.336,1.852 -2,4.031 -2,7.031 0,4.739 1.891,8.633 5.672,12.157 3.555,3.632 8.91,5.296 15.391,5.296 8.007,0.004 13.937,-2.414 17.718,-7.234 2.551,-3.449 4.219,-7.449 4.219,-11.75 0,-2.93 -0.633,-5.937 -1.891,-9.031 -1.296,-3.086 -3.656,-6.649 -7.187,-10.656 -5.934,-6.086 -9.117,-10.79 -10.469,-13.422 C 397.957,517.289 397.289,513.625 397,509 Z m -0.531,-7 c 1.664,0 3.363,-0.637 4.625,-1.906 1.238,-0.961 1.906,-2.805 1.906,-4.625 0,-1.606 -0.641,-3.309 -1.922,-4.578 -1.308,-1.223 -2.82,-1.891 -4.609,-1.891 -1.938,0 -3.309,0.633 -4.578,1.891 -1.559,1.304 -1.891,2.797 -1.891,4.578 0,2 0.629,3.363 1.891,4.625 0.972,1.57 2.797,1.906 4.578,1.906" /><g
         transform="matrix(0,-1.00039,-0.999609,0,0,0)"
         id="g84"><path
           id="path86"
           style="fill:none;stroke:#000000;stroke-width:15.62069988;stroke-linecap:butt;stroke-linejoin:miter;stroke-miterlimit:4;stroke-dasharray:none;stroke-opacity:1"
           d="m -600.242,-1459.28 v 632.898" /></g><g
         transform="scale(0.999609,-1.00039)"
         id="g88"><path
           id="path90"
           style="fill:none;stroke:#000000;stroke-width:15.62069988;stroke-linecap:butt;stroke-linejoin:miter;stroke-miterlimit:4;stroke-dasharray:none;stroke-opacity:1"
           d="m 1464.77,-472.479 h 358.21 v -316.017 h -358.21 z" /></g><g
         transform="matrix(-0.345832,-0.654288,-0.653777,0.346103,0,0)"
         id="g92"><path
           id="path94"
           style="fill:none;stroke:#000000;stroke-width:21.11190033;stroke-linecap:butt;stroke-linejoin:miter;stroke-miterlimit:4;stroke-dasharray:none;stroke-opacity:1"
           d="m -3326.43,-2550.41 v 1522.28" /></g><g
         transform="matrix(0.398892,-0.601187,-0.600716,-0.399205,0,0)"
         id="g96"><path
           id="path98"
           style="fill:none;stroke:#000000;stroke-width:21.65399933;stroke-linecap:butt;stroke-linejoin:miter;stroke-miterlimit:4;stroke-dasharray:none;stroke-opacity:1"
           d="m 671.2,-4254.39 v 1675.5" /></g><g
         transform="scale(0.999609,-1.00039)"
         id="g100"><path
           id="path102"
           style="fill:none;stroke:#000000;stroke-width:15.62069988;stroke-linecap:butt;stroke-linejoin:miter;stroke-miterlimit:4;stroke-dasharray:none;stroke-opacity:1"
           d="m 2823.11,-1136.49 h 358.21 v -316.01 h -358.21 z" /></g><g
         transform="matrix(0,-1.00039,-0.999609,0,0,0)"
         id="g104"><path
           id="path106"
           style="fill:none;stroke:#000000;stroke-width:15.62069988;stroke-linecap:butt;stroke-linejoin:miter;stroke-miterlimit:4;stroke-dasharray:none;stroke-opacity:1"
           d="m -1360.15,-3054.97 v 145.56" /></g><g
         transform="matrix(-0.499804,-0.500196,-0.499804,0.500196,0,0)"
         id="g108"><path
           id="path110"
           style="fill:none;stroke:#000000;stroke-width:22.0909996;stroke-linecap:butt;stroke-linejoin:miter;stroke-miterlimit:4;stroke-dasharray:none;stroke-opacity:1"
           d="m -4273.86,-1717.38 v 165.15" /></g><g
         transform="matrix(0.470816,-0.529207,-0.528793,-0.471184,0,0)"
         id="g112"><path
           id="path114"
           style="fill:none;stroke:#000000;stroke-width:22.05389977;stroke-linecap:butt;stroke-linejoin:miter;stroke-miterlimit:4;stroke-dasharray:none;stroke-opacity:1"
           d="m 1458,-4372.93 v 172.64" /></g><g
         transform="matrix(0,-1.00039,-0.999609,0,0,0)"
         id="g116"><path
           id="path118"
           style="fill:none;stroke:#000000;stroke-width:15.62069988;stroke-linecap:butt;stroke-linejoin:miter;stroke-miterlimit:4;stroke-dasharray:none;stroke-opacity:1"
           d="m -1209.95,-3054.97 v 145.56" /></g><g
         transform="scale(0.999609,-1.00039)"
         id="g120"><path
           id="path122"
           style="fill:none;stroke:#000000;stroke-width:15.62069988;stroke-linecap:butt;stroke-linejoin:miter;stroke-miterlimit:4;stroke-dasharray:none;stroke-opacity:1"
           d="m 4320.11,-1136.49 h 358.21 v -316.01 h -358.21 z" /></g><g
         transform="matrix(0,-1.00039,-0.999609,0,0,0)"
         id="g124"><path
           id="path126"
           style="fill:none;stroke:#000000;stroke-width:15.62069988;stroke-linecap:butt;stroke-linejoin:miter;stroke-miterlimit:4;stroke-dasharray:none;stroke-opacity:1"
           d="m -1294.49,-4313.94 v 1135.02" /></g><g
         transform="matrix(0,-1.00039,-0.999609,0,0,0)"
         id="g128"><path
           id="path130"
           style="fill:none;stroke:#000000;stroke-width:15.62069988;stroke-linecap:butt;stroke-linejoin:miter;stroke-miterlimit:4;stroke-dasharray:none;stroke-opacity:1"
           d="m -2212.11,-1466.44 v 632.895" /></g><g
         transform="scale(0.999609,-1.00039)"
         id="g132"><path
           id="path134"
           style="fill:none;stroke:#000000;stroke-width:15.62069988;stroke-linecap:butt;stroke-linejoin:miter;stroke-miterlimit:4;stroke-dasharray:none;stroke-opacity:1"
           d="m 2823.11,-151.488 h 358.21 v -316.017 h -358.21 z" /></g><g
         transform="matrix(-0.737561,0.262253,0.262048,0.738138,0,0)"
         id="g136"><path
           id="path138"
           style="fill:none;stroke:#000000;stroke-width:19.94890022;stroke-linecap:butt;stroke-linejoin:miter;stroke-miterlimit:4;stroke-dasharray:none;stroke-opacity:1"
           d="m -4860.82,3366.84 v 229.18" /></g><g
         transform="matrix(0,-1.00039,-0.999609,0,0,0)"
         id="g140"><path
           id="path142"
           style="fill:none;stroke:#000000;stroke-width:15.62069988;stroke-linecap:butt;stroke-linejoin:miter;stroke-miterlimit:4;stroke-dasharray:none;stroke-opacity:1"
           d="m -1380.18,-4597.93 v 78.69" /></g><g
         transform="matrix(0,-1.00039,-0.999609,0,0,0)"
         id="g144"><path
           id="path146"
           style="fill:none;stroke:#000000;stroke-width:15.62069988;stroke-linecap:butt;stroke-linejoin:miter;stroke-miterlimit:4;stroke-dasharray:none;stroke-opacity:1"
           d="m -1209.96,-4477.77 v 68.68" /></g><g
         transform="matrix(0,-1.00039,-0.999609,0,0,0)"
         id="g148"><path
           id="path150"
           style="fill:none;stroke:#000000;stroke-width:10.01329994;stroke-linecap:butt;stroke-linejoin:miter;stroke-miterlimit:4;stroke-dasharray:10.0133, 10.0133;stroke-dashoffset:0;stroke-opacity:1"
           d="m -1294.49,-4597.93 v 188.84" /></g><g
         transform="scale(0.999609,-1.00039)"
         id="g152"><path
           id="path154"
           style="fill:none;stroke:#000000;stroke-width:20.0265007;stroke-linecap:butt;stroke-linejoin:miter;stroke-miterlimit:4;stroke-dasharray:none;stroke-opacity:1"
           d="m 4690.35,-1294.49 h 546.78" /></g><path
         id="path156"
         style="fill:#000000;fill-opacity:1;fill-rule:nonzero;stroke:none"
         d="m 5225.08,1246.92 96.09,48.08 -96.09,48.08" /><g
         transform="scale(0.999609,-1.00039)"
         id="g158"><path
           id="path160"
           style="fill:none;stroke:#000000;stroke-width:15.62069988;stroke-linecap:butt;stroke-linejoin:miter;stroke-miterlimit:4;stroke-dasharray:none;stroke-opacity:1"
           d="m 5326.08,-1136.49 h 358.21 v -316.01 h -358.21 z" /></g><path
         id="path162"
         style="fill:#000000;fill-opacity:1;fill-rule:nonzero;stroke:none"
         d="m 5420.42,619.984 v -2 c -2.21,0.004 -3.76,-0.375 -5.04,-1.125 -1.41,-0.703 -2.52,-2.152 -3.69,-4.203 -1.01,-1.273 -2.01,-4.687 -3.69,-9.906 L 5385.31,538 h -2.01 L 5365.64,587.875 5349.16,538 h -3.13 l -23.09,66.469 c -2.08,5.25 -2.88,8.066 -3.35,8.984 -0.98,1.711 -1.85,2.664 -3.2,3.406 -1.48,0.797 -3.17,1.125 -5.47,1.125 v 2 h 29.3 v -2 h -1.41 c -2.34,0.004 -3.65,-0.5 -4.75,-1.5 -1.11,-0.82 -1.64,-2.187 -1.64,-3.593 -0.14,-1.422 0.86,-4.797 2.58,-10.016 l 15.5,-45 12.34,37.906 -2.56,7.25 -1.87,5.594 c -0.96,2.176 -1.75,3.859 -2.77,5.422 -0.73,1.098 -1.14,1.437 -1.87,1.969 -1.24,1.066 -1.97,1.269 -2.94,1.593 -1.02,0.379 -1.92,0.375 -3.52,0.375 v 2 h 30.89 v -2 h -2.11 c -2.21,0.004 -3.79,-0.492 -4.81,-1.468 -1.1,-0.821 -1.51,-2.309 -1.51,-3.985 -0.26,-1.937 0.87,-5.734 2.64,-10.922 l 15.28,-43.171 15.56,44.046 c 1.63,5.161 2.58,8.446 2.58,10.375 -0.28,0.973 -0.29,1.789 -0.86,2.594 -0.89,0.985 -1.27,1.363 -2.13,1.688 -1.77,0.847 -3.43,0.843 -5.81,0.843 v 2 h 23.39" /><path
         id="path164"
         style="fill:#000000;fill-opacity:1;fill-rule:nonzero;stroke:none"
         d="m 5425,573 c -0.04,-7.492 1.88,-13.359 5.75,-17.609 3.63,-4.059 8.43,-6.391 13.67,-6.391 3.35,0 6.52,0.816 9.1,2.453 2.41,1.828 4.74,4.828 6.48,9.547 l 1,-1.094 c -0.81,-5.574 -3.18,-10.492 -7.09,-14.656 -4.21,-3.918 -8.81,-6.25 -14.69,-6.25 -6.46,0 -11.86,2.469 -16.41,7.406 -4.81,5.133 -6.81,11.571 -6.81,19.907 0,9.25 2.33,16.05 7,21.093 4.66,5.25 10.52,7.578 17.56,7.578 5.77,0.004 10.85,-1.996 14.69,-5.984 3.75,-3.992 5.75,-9.324 5.75,-16 z m 0,4 h 24 c -0.19,3.363 -0.59,5.727 -1.19,7.094 -1.22,2.445 -2.35,3.828 -4.22,5.047 -2.06,1.515 -3.82,1.843 -5.86,1.843 -3.38,0.004 -5.93,-1.234 -8.4,-3.703 -2.58,-2.23 -3.92,-5.898 -4.33,-10.281" /><path
         id="path166"
         style="fill:#000000;fill-opacity:1;fill-rule:nonzero;stroke:none"
         d="m 5482.53,623.984 c 1.61,0.004 3.32,-0.632 4.58,-1.89 1.22,-0.961 1.89,-2.789 1.89,-4.578 0,-1.633 -0.63,-3.328 -1.89,-4.61 -1.3,-1.25 -2.79,-1.922 -4.58,-1.922 -1.97,0.004 -3.33,0.641 -4.61,1.922 -1.59,1.313 -1.92,2.817 -1.92,4.61 0,1.953 0.63,3.316 1.89,4.578 0.96,1.562 2.81,1.89 4.64,1.89 z m 5.47,-29 V 552 c 0,-3.355 0.24,-5.59 0.72,-6.703 0.24,-0.871 1.19,-1.934 2.12,-2.484 0.67,-0.481 2.67,-0.813 5.16,-0.813 v -2 h -26 v 2 c 2.55,0 4.27,0.25 5.14,0.75 0.83,0.594 1.57,1.348 2.08,2.516 0.44,1.422 0.78,3.422 0.78,6.734 v 21 c 0,5.914 -0.16,9.742 -0.47,11.484 -0.42,1.442 -0.62,2.149 -1.14,2.641 -0.65,0.789 -1.23,0.75 -2.12,0.75 -1.06,0.039 -2.15,-0.297 -3.54,-0.891 l -0.73,2 15.53,6 h 2.47" /><path
         id="path168"
         style="fill:#000000;fill-opacity:1;fill-rule:nonzero;stroke:none"
         d="m 5515.11,559.391 c -3.29,1.797 -5.75,3.82 -7.5,6.687 -1.95,3.18 -2.61,6.047 -2.61,9.516 0,5.426 2,9.844 6.02,13.656 4,4.07 9.14,5.734 15.4,5.734 4.99,0.004 9.56,-1.336 13.31,-4 h 11.4 c 1.64,0.004 2.66,-0.039 2.93,-0.109 0.25,-0.031 0.46,-0.199 0.58,-0.375 0.02,-0.105 0.36,-0.746 0.36,-1.422 0,-0.465 -0.11,-1.308 -0.31,-1.609 -0.36,0.031 -0.35,-0.266 -0.66,-0.36 -0.31,0.211 -1.34,-0.125 -3.12,-0.125 h -7.19 c 1.94,-2.902 3.28,-6.625 3.28,-11.156 0,-5.133 -1.9,-9.625 -5.7,-13.312 -3.89,-3.516 -8.89,-5.516 -15.27,-5.516 -2.65,0 -5.33,0.406 -8.08,1.219 -2.25,-1.106 -3.25,-2.563 -3.93,-3.594 -0.69,-0.898 -1.02,-1.891 -1.02,-2.609 0,-0.278 0.34,-1.2 1.02,-1.782 0.68,-0.32 2.02,-0.984 4.01,-1.234 1.15,-0.125 4.06,-0.234 8.7,-0.328 8.29,-0.059 14.07,-0.391 16.6,-0.672 3.74,-0.523 6.92,-1.906 9.22,-4.156 2.11,-2.188 3.45,-5.004 3.45,-8.297 0,-4.379 -2.12,-8.785 -6.37,-12.766 C 5543.16,517 5535.2,514 5525.13,514 c -7.79,0 -14.28,1.711 -19.61,5.125 -3.19,2.25 -4.52,4 -4.52,6.125 0,1.188 0.2,1.883 0.61,2.828 0.44,1.758 1.96,3.469 3.94,6.063 0.08,0.64 2.16,2.476 5.72,6.359 -2.38,1.363 -3.9,2.27 -4.85,3.219 -1.09,1.039 -1.42,2.019 -1.42,3.219 0,1.363 0.6,2.921 1.8,4.734 0.93,1.93 3.97,4.394 8.31,7.719 z m 10.12,32.593 c -2.98,0.004 -5.34,-1.148 -7.29,-3.437 -2.28,-2.133 -2.94,-5.777 -2.94,-10.484 0,-5.805 1.33,-10.86 4,-14.235 2.04,-2.496 4.63,-3.828 7.77,-3.828 2.72,0 5.42,1.102 7.34,3.313 1.89,2.437 2.89,5.671 2.89,10.39 0,6.242 -1.36,10.961 -4.06,14.453 -2.31,2.832 -4.57,3.828 -7.71,3.828 z M 5514.42,540 c -1.93,-2.008 -3.15,-3.879 -4.06,-5.609 -1.03,-1.524 -1.36,-3.321 -1.36,-4.782 0,-1.754 1.19,-3.535 3.58,-4.953 3.91,-2.32 10.03,-3.656 17.8,-3.656 7.26,0 12.84,1.277 16.35,3.828 3.27,2.602 5.27,5.262 5.27,8.156 0,2.09 -1.06,3.571 -3.17,4.454 -2.45,1.074 -6.45,1.406 -12.85,1.562 -9.67,0.18 -16.53,0.512 -21.56,1" /><path
         id="path170"
         style="fill:#000000;fill-opacity:1;fill-rule:nonzero;stroke:none"
         d="m 5577,623.984 v -40.093 c 4.36,4.765 7.83,7.757 10.39,9.093 2.43,1.336 5.12,2 7.67,2 3.05,0.004 5.71,-0.839 7.91,-2.515 1.88,-1.5 3.84,-4.309 4.91,-7.891 0.45,-2.34 1.12,-7.031 1.12,-13.656 V 552 c 0,-3.398 0.27,-5.715 0.83,-6.953 0.11,-0.621 1.05,-1.684 1.98,-2.234 0.68,-0.481 2.68,-0.813 5.19,-0.813 v -2 h -26 v 2 h 1.14 c 2.25,0 3.9,0.379 4.8,1.141 0.59,1.047 1.54,1.879 1.9,3.359 -0.18,0.789 0.16,2.457 0.16,5.5 v 18.969 c 0,5.863 -0.3,9.691 -0.91,11.515 -0.63,2.004 -1.57,3.207 -2.9,4.125 -1.39,1.047 -2.92,1.375 -4.78,1.375 -2.06,0.004 -3.92,-0.511 -5.99,-1.531 -2.2,-0.828 -4.54,-3.047 -7.42,-6.109 V 552 c 0,-3.668 0.19,-5.949 0.56,-6.844 0.2,-0.617 1.09,-1.648 2.11,-2.25 0.81,-0.574 2.81,-0.906 5.33,-0.906 v -2 h -26 v 2 c 2.32,0 4.15,0.367 5.48,1.109 0.6,0.692 1.37,1.133 1.83,2.219 0.35,1.317 0.69,3.317 0.69,6.672 v 49.984 c 0,6.141 -0.13,9.907 -0.39,11.313 -0.47,1.641 -0.66,2.359 -1.2,2.859 -0.67,0.789 -1.25,0.766 -2.14,0.766 -0.82,0.023 -1.91,-0.313 -3.54,-0.938 l -0.73,2 15.41,6 h 2.59" /><path
         id="path172"
         style="fill:#000000;fill-opacity:1;fill-rule:nonzero;stroke:none"
         d="m 5637,611.984 v -18 h 12.53 v -4 H 5637 v -35.062 c 0,-3.484 0.46,-5.875 1.38,-7.094 0.8,-1.164 2.11,-1.828 3.56,-1.828 0.87,0 2.33,0.336 3.45,1.016 0.99,1.004 1.99,1.672 2.61,2.984 h 3 c -1.37,-3.648 -3.32,-6.391 -5.84,-8.234 -2.57,-1.766 -5.11,-2.766 -7.78,-2.766 -1.93,0 -3.58,0.5 -5.3,1.5 -1.76,1.176 -3.01,2.453 -3.85,4.328 -0.9,1.93 -1.23,4.77 -1.23,8.688 v 36.468 h -9 v 1.891 c 2.3,0.906 4.66,2.328 7.06,4.391 2.39,2.304 4.62,4.531 6.64,7.406 0.8,1.617 2.46,4.281 4.3,8.312 h 1" /><g
         transform="scale(0.999609,-1.00039)"
         id="g174"><path
           id="path176"
           style="fill:none;stroke:#000000;stroke-width:15.62069988;stroke-linecap:butt;stroke-linejoin:miter;stroke-miterlimit:4;stroke-dasharray:none;stroke-opacity:1"
           d="m 476.382,-1256.15 h 358.214 v -316.01 H 476.382 Z" /></g><g
         transform="scale(0.999609,-1.00039)"
         id="g178"><path
           id="path180"
           style="fill:none;stroke:#000000;stroke-width:15.62069988;stroke-linecap:butt;stroke-linejoin:miter;stroke-miterlimit:4;stroke-dasharray:none;stroke-opacity:1"
           d="M 476.382,-442.233 H 834.596 V -758.25 H 476.382 Z" /></g><path
         id="path182"
         style="fill:#000000;fill-opacity:1;fill-rule:nonzero;stroke:none"
         d="m 149,1809.98 1,-17.64 h -2.234 c -0.684,3.5 -1.016,5.63 -1.766,7.04 -1.211,2.46 -2.824,3.92 -4.844,5 -2.062,1.28 -4.664,1.6 -7.953,1.6 H 122 V 1744 c 0,-5.05 0.52,-8.2 1.563,-9.45 1.269,-1.55 3.703,-2.55 6.734,-2.55 H 133 v -2 h -33 v 2 h 2.75 c 3.031,0 5.609,1.05 6.984,3.16 0.598,1.57 1.266,4.23 1.266,8.84 v 61.98 h -9.359 c -3.8597,0.01 -6.2347,-0.27 -7.766,-0.81 -2.2812,-0.46 -3.6953,-2.17 -5.1094,-4.28 -1.6718,-2.07 -2.2617,-4.95 -2.5312,-8.55 H 84 l 1,17.64 h 64" /><path
         id="path184"
         style="fill:#000000;fill-opacity:1;fill-rule:nonzero;stroke:none"
         d="m 158,1763 c -0.043,-7.49 1.875,-13.36 5.75,-17.61 3.625,-4.06 8.43,-6.39 13.672,-6.39 3.348,0 6.519,0.82 9.094,2.45 2.41,1.83 4.742,4.83 6.484,9.55 l 1,-1.09 c -0.812,-5.58 -3.18,-10.5 -7.094,-14.66 -4.211,-3.92 -8.804,-6.25 -14.687,-6.25 -6.461,0 -11.856,2.47 -16.406,7.41 -4.813,5.13 -6.813,11.57 -6.813,19.9 0,9.25 2.332,16.05 7,21.1 4.664,5.25 10.52,7.57 17.563,7.57 5.769,0.01 10.851,-1.99 14.687,-5.98 3.75,-3.99 5.75,-9.32 5.75,-16 z m 0,4 h 24 c -0.187,3.36 -0.586,5.73 -1.187,7.09 -1.219,2.45 -2.356,3.83 -4.219,5.05 -2.063,1.52 -3.821,1.84 -5.86,1.84 -3.382,0.01 -5.937,-1.23 -8.406,-3.7 -2.578,-2.23 -3.914,-5.9 -4.328,-10.28" /><path
         id="path186"
         style="fill:#000000;fill-opacity:1;fill-rule:nonzero;stroke:none"
         d="m 199,1783.98 h 24 v -2 c -1.48,0.01 -2.516,-0.27 -3.109,-0.82 -0.891,-0.28 -0.891,-1.28 -0.891,-2.19 0,-0.94 0.852,-2.41 2.563,-4.38 0.351,-0.57 1.347,-1.82 2.421,-3.32 l 5.282,-6.69 4.64,5.67 c 3.164,4.47 5.164,6.94 5.094,8.17 0,1.19 -0.387,1.85 -1.156,2.53 -1.055,0.71 -2.016,1.03 -3.735,1.03 v 2 H 253 v -2 c -1.949,-0.12 -3.641,-0.7 -5.078,-1.73 -2.258,-1.21 -4.887,-4.63 -8.813,-9.52 l -7.828,-9.54 13.719,-18.92 c 3.156,-4.55 5.406,-7.68 6.75,-8.64 1.102,-0.85 3.102,-1.52 5.25,-1.63 v -2 h -25.797 v 2 c 1.891,0 3.477,0.38 4.563,1.13 0.566,0.81 1.234,1.2 1.234,2.06 0,1.13 -1.266,3.03 -3.797,6.5 L 225,1753.5 215.484,1741.89 C 213,1738.46 212,1736.36 212,1735.72 c 0,-0.83 0.5,-1.75 1.5,-2.5 0.832,-0.48 2.5,-1.15 4.5,-1.22 v -2 h -18 v 2 c 1.383,0.2 2.594,0.69 3.625,1.48 1.25,1.32 3.914,4.07 7.375,8.79 l 11.547,14.11 -11.547,15.95 c -2.742,4.48 -4.859,6.93 -6.359,8.01 -1.715,1.32 -3.383,1.64 -5.641,1.64 v 2" /><path
         id="path188"
         style="fill:#000000;fill-opacity:1;fill-rule:nonzero;stroke:none"
         d="m 277,1801.98 v -18 h 12.531 v -4 H 277 v -35.06 c 0,-3.48 0.457,-5.87 1.375,-7.09 0.801,-1.17 2.113,-1.83 3.563,-1.83 0.875,0 2.335,0.34 3.453,1.02 0.992,1 1.992,1.67 2.609,2.98 h 3 c -1.375,-3.65 -3.324,-6.39 -5.844,-8.23 -2.562,-1.77 -5.105,-2.77 -7.781,-2.77 -1.93,0 -3.57,0.5 -5.297,1.5 -1.758,1.18 -3.012,2.45 -3.844,4.33 -0.902,1.93 -1.234,4.77 -1.234,8.69 v 36.46 h -9 v 1.9 c 2.301,0.9 4.656,2.32 7.063,4.39 2.382,2.3 4.617,4.53 6.64,7.4 0.797,1.62 2.461,4.28 4.297,8.31 h 1" /><path
         id="path190"
         style="fill:#000000;fill-opacity:1;fill-rule:nonzero;stroke:none"
         d="M 343,1783.98 V 1751 c 0,-6.16 0.129,-9.92 0.391,-11.3 0.129,-1.27 0.675,-2.34 1.25,-2.89 0.359,-0.48 1.238,-0.81 2,-0.81 0.859,0 2.281,0.33 3.625,1 l 0.734,-2 -15.453,-6 H 333 v 11.16 c -4.617,-4.63 -8.137,-8 -10.562,-9.27 -2.575,-1.22 -4.997,-1.89 -7.704,-1.89 -3.257,0 -5.625,0.87 -7.843,2.61 -2.508,1.88 -3.746,3.99 -4.61,6.73 -0.949,2.96 -1.281,6.62 -1.281,11.63 v 24.01 c 0,2.47 -0.242,4.16 -0.719,5.11 -0.574,1.25 -1.195,1.68 -2.14,2.19 -0.996,0.75 -2.664,0.74 -5.141,0.7 v 2 h 18 v -35.82 c 0,-4.71 0.859,-8.27 2.578,-9.83 1.535,-1.33 3.813,-2.33 6.25,-2.33 1.379,0 3.535,0.52 5.641,1.58 1.957,1.19 4.625,3.05 7.531,6.01 v 30.39 c 0,3.09 -0.523,5.17 -1.562,6.25 -1.18,1.34 -3.18,1.67 -6.438,1.75 v 2 h 18" /><path
         id="path192"
         style="fill:#000000;fill-opacity:1;fill-rule:nonzero;stroke:none"
         d="m 371,1784.98 v -13.09 c 4.438,8.77 8.988,13.09 13.656,13.09 1.895,0.01 3.864,-0.71 5.25,-2.14 1.094,-1.36 2.094,-3.06 2.094,-4.93 0,-1.63 -0.465,-3.06 -1.391,-4.21 -1.132,-1.04 -2.039,-1.7 -3.328,-1.7 -1.343,0 -2.746,0.83 -4.484,2.48 -2.008,1.84 -3.031,2.5 -3.875,2.5 -1.027,0.01 -1.5,-0.43 -2.344,-1.28 -1.996,-1.64 -3.664,-4.6 -5.578,-8.59 V 1742 c 0,-2.82 0.395,-4.96 1.188,-6.41 0.476,-0.86 1.5,-1.85 2.875,-2.54 1.351,-0.39 3.351,-1.05 5.937,-1.05 v -2 h -28 v 2 c 2.594,0 4.52,0.43 5.781,1.3 0.664,0.86 1.571,1.62 1.938,3 -0.055,0.9 0.281,2.56 0.281,5.7 v 21 c 0,6.38 -0.117,10.18 -0.344,11.39 -0.437,1.41 -0.636,2.09 -1.25,2.64 -0.742,0.88 -1.355,0.85 -2.25,0.85 -1.125,0.03 -2.289,-0.3 -3.64,-0.9 l -0.516,2 15.625,6 H 371" /><path
         id="path194"
         style="fill:#000000;fill-opacity:1;fill-rule:nonzero;stroke:none"
         d="m 405,1763 c -0.043,-7.49 1.875,-13.36 5.75,-17.61 3.625,-4.06 8.43,-6.39 13.672,-6.39 3.348,0 6.519,0.82 9.094,2.45 2.41,1.83 4.742,4.83 6.484,9.55 l 1,-1.09 c -0.812,-5.58 -3.18,-10.5 -7.094,-14.66 -4.211,-3.92 -8.804,-6.25 -14.687,-6.25 -6.461,0 -11.856,2.47 -16.406,7.41 -4.813,5.13 -6.813,11.57 -6.813,19.9 0,9.25 2.332,16.05 7,21.1 4.664,5.25 10.52,7.57 17.563,7.57 5.769,0.01 10.851,-1.99 14.687,-5.98 3.75,-3.99 5.75,-9.32 5.75,-16 z m 0,4 h 24 c -0.187,3.36 -0.586,5.73 -1.187,7.09 -1.219,2.45 -2.356,3.83 -4.219,5.05 -2.063,1.52 -3.821,1.84 -5.86,1.84 -3.382,0.01 -5.937,-1.23 -8.406,-3.7 -2.578,-2.23 -3.914,-5.9 -4.328,-10.28" /><path
         id="path196"
         style="fill:#000000;fill-opacity:1;fill-rule:nonzero;stroke:none"
         d="m 192.422,1359.98 v -2 c -2.215,0.01 -3.758,-0.37 -5.047,-1.12 -1.406,-0.7 -2.512,-2.15 -3.687,-4.2 -1.012,-1.28 -2.012,-4.69 -3.688,-9.91 L 157.313,1278 h -2.016 l -17.656,49.88 -16.485,-49.88 h -3.125 l -23.0935,66.47 c -2.0742,5.25 -2.875,8.07 -3.3437,8.98 -0.9805,1.71 -1.8516,2.67 -3.2032,3.41 -1.4765,0.8 -3.1679,1.12 -5.4687,1.12 v 2 h 29.2971 v -2 h -1.406 c -2.344,0.01 -3.657,-0.5 -4.75,-1.5 -1.118,-0.82 -1.641,-2.18 -1.641,-3.59 -0.141,-1.42 0.859,-4.8 2.578,-10.01 l 15.5,-45 12.344,37.9 -2.563,7.25 -1.875,5.6 c -0.961,2.17 -1.746,3.85 -2.765,5.42 -0.727,1.09 -1.137,1.43 -1.875,1.97 -1.235,1.06 -1.961,1.27 -2.938,1.59 -1.015,0.38 -1.914,0.37 -3.515,0.37 v 2 h 30.89 v -2 h -2.109 c -2.219,0.01 -3.793,-0.49 -4.813,-1.46 -1.105,-0.82 -1.515,-2.31 -1.515,-3.99 -0.258,-1.94 0.879,-5.73 2.64,-10.92 l 15.282,-43.17 15.562,44.04 c 1.633,5.16 2.578,8.45 2.578,10.38 -0.277,0.97 -0.289,1.79 -0.859,2.59 -0.887,0.99 -1.274,1.37 -2.125,1.69 -1.774,0.85 -3.43,0.84 -5.813,0.84 v 2 h 23.391" /><path
         id="path198"
         style="fill:#000000;fill-opacity:1;fill-rule:nonzero;stroke:none"
         d="m 197,1313 c -0.043,-7.49 1.875,-13.36 5.75,-17.61 3.625,-4.06 8.43,-6.39 13.672,-6.39 3.348,0 6.519,0.82 9.094,2.45 2.41,1.83 4.742,4.83 6.484,9.55 l 1,-1.09 c -0.812,-5.58 -3.18,-10.5 -7.094,-14.66 -4.211,-3.92 -8.804,-6.25 -14.687,-6.25 -6.461,0 -11.856,2.47 -16.406,7.41 -4.813,5.13 -6.813,11.57 -6.813,19.9 0,9.25 2.332,16.05 7,21.1 4.664,5.25 10.52,7.57 17.563,7.57 5.769,0.01 10.851,-1.99 14.687,-5.98 3.75,-3.99 5.75,-9.32 5.75,-16 z m 0,4 h 24 c -0.187,3.36 -0.586,5.73 -1.187,7.09 -1.219,2.45 -2.356,3.83 -4.219,5.05 -2.063,1.52 -3.821,1.84 -5.86,1.84 -3.382,0.01 -5.937,-1.23 -8.406,-3.7 -2.578,-2.23 -3.914,-5.9 -4.328,-10.28" /><path
         id="path200"
         style="fill:#000000;fill-opacity:1;fill-rule:nonzero;stroke:none"
         d="m 254.531,1363.98 c 1.614,0.01 3.317,-0.63 4.578,-1.89 1.223,-0.96 1.891,-2.79 1.891,-4.57 0,-1.64 -0.633,-3.33 -1.891,-4.61 -1.296,-1.25 -2.789,-1.93 -4.578,-1.93 -1.968,0.01 -3.328,0.65 -4.609,1.93 -1.59,1.31 -1.922,2.81 -1.922,4.61 0,1.95 0.629,3.31 1.891,4.57 0.961,1.57 2.804,1.89 4.64,1.89 z m 5.469,-29 V 1292 c 0,-3.36 0.238,-5.59 0.719,-6.7 0.238,-0.87 1.187,-1.94 2.125,-2.49 0.664,-0.48 2.664,-0.81 5.156,-0.81 v -2 h -26 v 2 c 2.551,0 4.266,0.25 5.141,0.75 0.828,0.59 1.566,1.35 2.078,2.52 0.445,1.42 0.781,3.42 0.781,6.73 v 21 c 0,5.91 -0.156,9.74 -0.469,11.48 -0.418,1.45 -0.621,2.15 -1.14,2.65 -0.653,0.78 -1.231,0.75 -2.125,0.75 -1.059,0.03 -2.149,-0.3 -3.532,-0.9 l -0.734,2 15.531,6 H 260" /><path
         id="path202"
         style="fill:#000000;fill-opacity:1;fill-rule:nonzero;stroke:none"
         d="m 287.109,1299.39 c -3.289,1.8 -5.75,3.82 -7.5,6.69 -1.945,3.18 -2.609,6.05 -2.609,9.51 0,5.43 2.004,9.85 6.016,13.66 4.004,4.07 9.144,5.73 15.406,5.73 4.984,0.01 9.562,-1.33 13.312,-4 h 11.391 c 1.645,0.01 2.664,-0.03 2.938,-0.1 0.25,-0.04 0.46,-0.2 0.578,-0.38 0.023,-0.11 0.359,-0.75 0.359,-1.42 0,-0.47 -0.105,-1.31 -0.312,-1.61 -0.356,0.03 -0.344,-0.27 -0.657,-0.36 -0.312,0.21 -1.343,-0.13 -3.125,-0.13 h -7.187 c 1.945,-2.9 3.281,-6.62 3.281,-11.15 0,-5.13 -1.902,-9.63 -5.703,-13.31 -3.891,-3.52 -8.883,-5.52 -15.266,-5.52 -2.648,0 -5.328,0.41 -8.078,1.22 -2.258,-1.11 -3.25,-2.56 -3.937,-3.59 -0.684,-0.9 -1.016,-1.9 -1.016,-2.61 0,-0.28 0.336,-1.2 1.016,-1.79 0.679,-0.32 2.023,-0.98 4.015,-1.23 1.145,-0.12 4.055,-0.23 8.703,-0.33 8.286,-0.06 14.063,-0.39 16.594,-0.67 3.742,-0.52 6.926,-1.91 9.219,-4.16 2.117,-2.18 3.453,-5 3.453,-8.29 0,-4.38 -2.125,-8.79 -6.375,-12.77 -6.469,-5.78 -14.43,-8.78 -24.5,-8.78 -7.781,0 -14.277,1.71 -19.609,5.13 -3.184,2.25 -4.516,4 -4.516,6.12 0,1.19 0.203,1.88 0.609,2.83 0.442,1.76 1.957,3.47 3.938,6.06 0.078,0.64 2.164,2.48 5.719,6.36 -2.371,1.36 -3.899,2.27 -4.844,3.22 -1.09,1.04 -1.422,2.02 -1.422,3.22 0,1.36 0.598,2.92 1.797,4.73 0.93,1.93 3.969,4.4 8.312,7.72 z m 10.125,32.59 c -2.984,0.01 -5.339,-1.14 -7.296,-3.43 -2.274,-2.14 -2.938,-5.78 -2.938,-10.49 0,-5.8 1.332,-10.86 4,-14.23 2.039,-2.5 4.629,-3.83 7.766,-3.83 2.722,0 5.425,1.1 7.343,3.31 1.891,2.44 2.891,5.67 2.891,10.39 0,6.25 -1.355,10.96 -4.062,14.46 -2.313,2.83 -4.571,3.82 -7.704,3.82 z M 286.422,1280 c -1.934,-2.01 -3.149,-3.88 -4.063,-5.61 -1.027,-1.52 -1.359,-3.32 -1.359,-4.78 0,-1.75 1.191,-3.54 3.578,-4.95 3.91,-2.32 10.035,-3.66 17.797,-3.66 7.27,0 12.848,1.28 16.359,3.83 3.266,2.6 5.266,5.26 5.266,8.15 0,2.09 -1.059,3.57 -3.172,4.46 -2.445,1.07 -6.449,1.4 -12.844,1.56 -9.671,0.18 -16.531,0.51 -21.562,1" /><path
         id="path204"
         style="fill:#000000;fill-opacity:1;fill-rule:nonzero;stroke:none"
         d="m 349,1363.98 v -40.09 c 4.363,4.77 7.828,7.76 10.391,9.09 2.429,1.34 5.117,2 7.672,2 3.05,0.01 5.707,-0.84 7.906,-2.51 1.883,-1.5 3.844,-4.31 4.906,-7.89 0.457,-2.34 1.125,-7.03 1.125,-13.66 V 1292 c 0,-3.4 0.273,-5.71 0.828,-6.95 0.11,-0.62 1.047,-1.69 1.985,-2.24 0.675,-0.48 2.675,-0.81 5.187,-0.81 v -2 h -26 v 2 h 1.141 c 2.254,0 3.898,0.38 4.797,1.14 0.593,1.05 1.539,1.88 1.906,3.36 -0.18,0.79 0.156,2.46 0.156,5.5 v 18.97 c 0,5.86 -0.305,9.69 -0.906,11.51 -0.637,2.01 -1.574,3.21 -2.906,4.13 -1.387,1.05 -2.918,1.37 -4.782,1.37 -2.054,0.01 -3.914,-0.51 -5.984,-1.53 -2.203,-0.82 -4.539,-3.04 -7.422,-6.11 V 1292 c 0,-3.67 0.188,-5.95 0.563,-6.84 0.195,-0.62 1.085,-1.65 2.109,-2.25 0.805,-0.58 2.805,-0.91 5.328,-0.91 v -2 h -26 v 2 c 2.32,0 4.148,0.37 5.484,1.11 0.598,0.69 1.368,1.13 1.829,2.22 0.351,1.31 0.687,3.31 0.687,6.67 v 49.98 c 0,6.15 -0.133,9.91 -0.391,11.32 -0.464,1.64 -0.664,2.36 -1.203,2.86 -0.668,0.79 -1.246,0.76 -2.14,0.76 -0.821,0.03 -1.907,-0.31 -3.532,-0.94 l -0.734,2 15.406,6 H 349" /><path
         id="path206"
         style="fill:#000000;fill-opacity:1;fill-rule:nonzero;stroke:none"
         d="m 410,1351.98 v -18 h 12.531 v -4 H 410 v -35.06 c 0,-3.48 0.457,-5.87 1.375,-7.09 0.801,-1.17 2.113,-1.83 3.563,-1.83 0.875,0 2.335,0.34 3.453,1.02 0.992,1 1.992,1.67 2.609,2.98 h 3 c -1.375,-3.65 -3.324,-6.39 -5.844,-8.23 -2.562,-1.77 -5.105,-2.77 -7.781,-2.77 -1.93,0 -3.57,0.5 -5.297,1.5 -1.758,1.18 -3.012,2.45 -3.844,4.33 -0.902,1.93 -1.234,4.77 -1.234,8.69 v 36.46 h -9 v 1.9 c 2.301,0.9 4.656,2.32 7.063,4.39 2.382,2.3 4.617,4.53 6.64,7.4 0.797,1.62 2.461,4.28 4.297,8.31 h 1" /><g
         transform="scale(0.999609,-1.00039)"
         id="g208"><path
           id="path210"
           style="fill:none;stroke:#000000;stroke-width:15.62069988;stroke-linecap:butt;stroke-linejoin:miter;stroke-miterlimit:4;stroke-dasharray:none;stroke-opacity:1"
           d="M 1462.58,-859.746 H 1820.8 V -1175.77 H 1462.58 Z" /></g><g
         transform="scale(0.999609,-1.00039)"
         id="g212"><path
           id="path214"
           style="fill:none;stroke:#000000;stroke-width:15.62069988;stroke-linecap:butt;stroke-linejoin:miter;stroke-miterlimit:4;stroke-dasharray:none;stroke-opacity:1"
           d="m 1464.77,-85.2128 h 358.21 V -401.23 h -358.21 z" /></g><g
         transform="scale(0.999609,-1.00039)"
         id="g216"><path
           id="path218"
           style="fill:none;stroke:#000000;stroke-width:15.62069988;stroke-linecap:butt;stroke-linejoin:miter;stroke-miterlimit:4;stroke-dasharray:none;stroke-opacity:1"
           d="m 1462.58,-1256.15 h 358.22 v -316.01 h -358.22 z" /></g><g
         transform="scale(0.999609,-1.00039)"
         id="g220"><path
           id="path222"
           style="fill:none;stroke:#000000;stroke-width:15.62069988;stroke-linecap:butt;stroke-linejoin:miter;stroke-miterlimit:4;stroke-dasharray:none;stroke-opacity:1"
           d="m 1462.58,-1655.67 h 358.22 v -316.02 h -358.22 z" /></g><g
         transform="matrix(0.392374,-0.60771,-0.607235,-0.392681,0,0)"
         id="g224"><path
           id="path226"
           style="fill:none;stroke:#000000;stroke-width:21.59770012;stroke-linecap:butt;stroke-linejoin:miter;stroke-miterlimit:4;stroke-dasharray:none;stroke-opacity:1"
           d="m -75.5526,-2443.94 0.003,1004.1" /></g><g
         transform="matrix(-0.366003,-0.634102,-0.633606,0.366289,0,0)"
         id="g228"><path
           id="path230"
           style="fill:none;stroke:#000000;stroke-width:21.33950043;stroke-linecap:butt;stroke-linejoin:miter;stroke-miterlimit:4;stroke-dasharray:none;stroke-opacity:1"
           d="m -1279.45,-1579.27 v 985.885" /></g><g
         transform="matrix(0,-1.00039,-0.999609,0,0,0)"
         id="g232"><path
           id="path234"
           style="fill:none;stroke:#000000;stroke-width:15.62069988;stroke-linecap:butt;stroke-linejoin:miter;stroke-miterlimit:4;stroke-dasharray:none;stroke-opacity:1"
           d="m -1813.68,-1459.28 v 632.898" /></g><g
         transform="matrix(0,-1.00039,-0.999609,0,0,0)"
         id="g236"><path
           id="path238"
           style="fill:none;stroke:#000000;stroke-width:15.62069988;stroke-linecap:butt;stroke-linejoin:miter;stroke-miterlimit:4;stroke-dasharray:none;stroke-opacity:1"
           d="m -1415.26,-1459.28 v 632.898" /></g><g
         transform="scale(0.999609,-1.00039)"
         id="g240"><path
           id="path242"
           style="fill:none;stroke:#000000;stroke-width:15.62069988;stroke-linecap:butt;stroke-linejoin:miter;stroke-miterlimit:4;stroke-dasharray:none;stroke-opacity:1"
           d="m 2823.11,-2048.27 h 358.21 v -316.02 h -358.21 z" /></g><g
         transform="matrix(0,-1.00039,-0.999609,0,0,0)"
         id="g244"><path
           id="path246"
           style="fill:none;stroke:#000000;stroke-width:15.62069988;stroke-linecap:butt;stroke-linejoin:miter;stroke-miterlimit:4;stroke-dasharray:none;stroke-opacity:1"
           d="m -2280,-3075 v 145.57" /></g><g
         transform="matrix(-0.499804,-0.500196,-0.499804,0.500196,0,0)"
         id="g248"><path
           id="path250"
           style="fill:none;stroke:#000000;stroke-width:22.0909996;stroke-linecap:butt;stroke-linejoin:miter;stroke-miterlimit:4;stroke-dasharray:none;stroke-opacity:1"
           d="m -5210.57,-826.37 v 165.149" /></g><g
         transform="matrix(0.470816,-0.529207,-0.528793,-0.471184,0,0)"
         id="g252"><path
           id="path254"
           style="fill:none;stroke:#000000;stroke-width:22.05389977;stroke-linecap:butt;stroke-linejoin:miter;stroke-miterlimit:4;stroke-dasharray:none;stroke-opacity:1"
           d="m 523.744,-5247.94 -0.003,172.64" /></g><g
         transform="matrix(0,-1.00039,-0.999609,0,0,0)"
         id="g256"><path
           id="path258"
           style="fill:none;stroke:#000000;stroke-width:15.62069988;stroke-linecap:butt;stroke-linejoin:miter;stroke-miterlimit:4;stroke-dasharray:none;stroke-opacity:1"
           d="m -2115.38,-3075 v 145.57" /></g><g
         transform="matrix(0,-1.00039,-0.999609,0,0,0)"
         id="g260"><path
           id="path262"
           style="fill:none;stroke:#000000;stroke-width:15.62069988;stroke-linecap:butt;stroke-linejoin:miter;stroke-miterlimit:4;stroke-dasharray:none;stroke-opacity:1"
           d="m -223.768,-3075 v 145.57" /></g><g
         transform="matrix(0,-1.00039,-0.999609,0,0,0)"
         id="g264"><path
           id="path266"
           style="fill:none;stroke:#000000;stroke-width:15.62069988;stroke-linecap:butt;stroke-linejoin:miter;stroke-miterlimit:4;stroke-dasharray:none;stroke-opacity:1"
           d="m -393.202,-3075 v 145.57" /></g><g
         transform="matrix(-0.499804,-0.500196,-0.499804,0.500196,0,0)"
         id="g268"><path
           id="path270"
           style="fill:none;stroke:#000000;stroke-width:22.0909996;stroke-linecap:butt;stroke-linejoin:miter;stroke-miterlimit:4;stroke-dasharray:none;stroke-opacity:1"
           d="m -3328.58,-2718.37 v 165.15" /></g><g
         transform="matrix(0.499804,-0.500196,-0.499804,-0.500196,0,0)"
         id="g272"><path
           id="path274"
           style="fill:none;stroke:#000000;stroke-width:22.0909996;stroke-linecap:butt;stroke-linejoin:miter;stroke-miterlimit:4;stroke-dasharray:none;stroke-opacity:1"
           d="m 2707.74,-3327.94 v 162.63" /></g><g
         transform="matrix(0,-1.00039,-0.999609,0,0,0)"
         id="g276"><path
           id="path278"
           style="fill:none;stroke:#000000;stroke-width:15.62069988;stroke-linecap:butt;stroke-linejoin:miter;stroke-miterlimit:4;stroke-dasharray:none;stroke-opacity:1"
           d="m -2212.11,-2824.39 v 995.19" /></g><g
         transform="matrix(0.0744679,-0.925865,-0.925141,-0.0745262,0,0)"
         id="g280"><path
           id="path282"
           style="fill:none;stroke:#000000;stroke-width:16.82360077;stroke-linecap:butt;stroke-linejoin:miter;stroke-miterlimit:4;stroke-dasharray:none;stroke-opacity:1"
           d="m -88.1925,-3058.83 -0.0011,1075.3" /></g><g
         transform="matrix(-0.523495,-0.476487,-0.476114,0.523904,0,0)"
         id="g284"><path
           id="path286"
           style="fill:none;stroke:#000000;stroke-width:22.06620026;stroke-linecap:butt;stroke-linejoin:miter;stroke-miterlimit:4;stroke-dasharray:none;stroke-opacity:1"
           d="m -3236.23,-2367.37 0.01,2106.472" /></g><g
         transform="matrix(0.543626,-0.45634,-0.455983,-0.544051,0,0)"
         id="g288"><path
           id="path290"
           style="fill:none;stroke:#000000;stroke-width:22.00659943;stroke-linecap:butt;stroke-linejoin:miter;stroke-miterlimit:4;stroke-dasharray:none;stroke-opacity:1"
           d="m 1053.72,-4925.52 0.01,2199.29" /></g><g
         transform="matrix(0,-1.00039,-0.999609,0,0,0)"
         id="g292"><path
           id="path294"
           style="fill:none;stroke:#000000;stroke-width:15.62069988;stroke-linecap:butt;stroke-linejoin:miter;stroke-miterlimit:4;stroke-dasharray:none;stroke-opacity:1"
           d="m -2205.5,-4313.94 v 1135.02" /></g><g
         transform="matrix(0,-1.00039,-0.999609,0,0,0)"
         id="g296"><path
           id="path298"
           style="fill:none;stroke:#000000;stroke-width:15.62069988;stroke-linecap:butt;stroke-linejoin:miter;stroke-miterlimit:4;stroke-dasharray:none;stroke-opacity:1"
           d="m -309.496,-4313.94 v 1135.02" /></g><g
         transform="scale(0.999609,-1.00039)"
         id="g300"><path
           id="path302"
           style="fill:none;stroke:#000000;stroke-width:15.62069988;stroke-linecap:butt;stroke-linejoin:miter;stroke-miterlimit:4;stroke-dasharray:none;stroke-opacity:1"
           d="m 4320.11,-151.488 h 358.21 v -316.017 h -358.21 z" /></g><g
         transform="scale(0.999609,-1.00039)"
         id="g304"><path
           id="path306"
           style="fill:none;stroke:#000000;stroke-width:15.62069988;stroke-linecap:butt;stroke-linejoin:miter;stroke-miterlimit:4;stroke-dasharray:none;stroke-opacity:1"
           d="m 4320.11,-2054.1 h 358.21 v -316.02 h -358.21 z" /></g><g
         transform="matrix(0,-1.00039,-0.999609,0,0,0)"
         id="g308"><path
           id="path310"
           style="fill:none;stroke:#000000;stroke-width:10.01329994;stroke-linecap:butt;stroke-linejoin:miter;stroke-miterlimit:4;stroke-dasharray:10.0133, 10.0133;stroke-dashoffset:0;stroke-opacity:1"
           d="m -309.496,-4593.63 v 188.84" /></g><g
         transform="matrix(0,-1.00039,-0.999609,0,0,0)"
         id="g312"><path
           id="path314"
           style="fill:none;stroke:#000000;stroke-width:10.01329994;stroke-linecap:butt;stroke-linejoin:miter;stroke-miterlimit:4;stroke-dasharray:10.0133, 10.0133;stroke-dashoffset:0;stroke-opacity:1"
           d="m -2212.11,-4597.93 v 188.84" /></g><g
         transform="matrix(-0.737561,0.262253,0.262048,0.738138,0,0)"
         id="g316"><path
           id="path318"
           style="fill:none;stroke:#000000;stroke-width:19.94890022;stroke-linecap:butt;stroke-linejoin:miter;stroke-miterlimit:4;stroke-dasharray:none;stroke-opacity:1"
           d="m -4473.68,4472.9 v 229.19" /></g><g
         transform="matrix(0,-1.00039,-0.999609,0,0,0)"
         id="g320"><path
           id="path322"
           style="fill:none;stroke:#000000;stroke-width:15.62069988;stroke-linecap:butt;stroke-linejoin:miter;stroke-miterlimit:4;stroke-dasharray:none;stroke-opacity:1"
           d="m -2296.15,-4609.72 v 78.69" /></g><g
         transform="matrix(0,-1.00039,-0.999609,0,0,0)"
         id="g324"><path
           id="path326"
           style="fill:none;stroke:#000000;stroke-width:15.62069988;stroke-linecap:butt;stroke-linejoin:miter;stroke-miterlimit:4;stroke-dasharray:none;stroke-opacity:1"
           d="m -2123.19,-4477.77 v 68.68" /></g><g
         transform="matrix(-0.737561,0.262253,0.262048,0.738138,0,0)"
         id="g328"><path
           id="path330"
           style="fill:none;stroke:#000000;stroke-width:19.94890022;stroke-linecap:butt;stroke-linejoin:miter;stroke-miterlimit:4;stroke-dasharray:none;stroke-opacity:1"
           d="m -5281.96,2181.5 v 229.17" /></g><g
         transform="matrix(0,-1.00039,-0.999609,0,0,0)"
         id="g332"><path
           id="path334"
           style="fill:none;stroke:#000000;stroke-width:15.62069988;stroke-linecap:butt;stroke-linejoin:miter;stroke-miterlimit:4;stroke-dasharray:none;stroke-opacity:1"
           d="m -395.404,-4599.71 v 78.7" /></g><g
         transform="matrix(0,-1.00039,-0.999609,0,0,0)"
         id="g336"><path
           id="path338"
           style="fill:none;stroke:#000000;stroke-width:15.62069988;stroke-linecap:butt;stroke-linejoin:miter;stroke-miterlimit:4;stroke-dasharray:none;stroke-opacity:1"
           d="m -224.955,-4477.77 v 68.68" /></g><path
         id="path340"
         style="fill:#000000;fill-opacity:1;fill-rule:nonzero;stroke:none"
         d="m 4767,1859.98 1,-17.64 h -2.23 c -0.69,3.5 -1.02,5.63 -1.77,7.04 -1.21,2.46 -2.82,3.92 -4.84,5 -2.07,1.28 -4.67,1.6 -7.96,1.6 H 4740 V 1794 c 0,-5.05 0.52,-8.2 1.56,-9.45 1.27,-1.55 3.71,-2.55 6.74,-2.55 h 2.7 v -2 h -33 v 2 h 2.75 c 3.03,0 5.61,1.05 6.98,3.16 0.6,1.57 1.27,4.23 1.27,8.84 v 61.98 h -9.36 c -3.86,0.01 -6.23,-0.27 -7.76,-0.81 -2.29,-0.46 -3.7,-2.17 -5.11,-4.28 -1.68,-2.07 -2.27,-4.95 -2.54,-8.55 H 4702 l 1,17.64 h 64" /><path
         id="path342"
         style="fill:#000000;fill-opacity:1;fill-rule:nonzero;stroke:none"
         d="m 4776,1813 c -0.04,-7.49 1.88,-13.36 5.75,-17.61 3.63,-4.06 8.43,-6.39 13.67,-6.39 3.35,0 6.52,0.82 9.1,2.45 2.41,1.83 4.74,4.83 6.48,9.55 l 1,-1.09 c -0.81,-5.58 -3.18,-10.5 -7.09,-14.66 -4.21,-3.92 -8.81,-6.25 -14.69,-6.25 -6.46,0 -11.86,2.47 -16.41,7.41 -4.81,5.13 -6.81,11.57 -6.81,19.9 0,9.25 2.33,16.05 7,21.1 4.66,5.25 10.52,7.57 17.56,7.57 5.77,0.01 10.85,-1.99 14.69,-5.98 3.75,-3.99 5.75,-9.32 5.75,-16 z m 0,4 h 24 c -0.19,3.36 -0.59,5.73 -1.19,7.09 -1.22,2.45 -2.35,3.83 -4.22,5.05 -2.06,1.52 -3.82,1.84 -5.86,1.84 -3.38,0.01 -5.93,-1.23 -8.4,-3.7 -2.58,-2.23 -3.92,-5.9 -4.33,-10.28" /><path
         id="path344"
         style="fill:#000000;fill-opacity:1;fill-rule:nonzero;stroke:none"
         d="m 4817,1833.98 h 24 v -2 c -1.48,0.01 -2.52,-0.27 -3.11,-0.82 -0.89,-0.28 -0.89,-1.28 -0.89,-2.19 0,-0.94 0.85,-2.41 2.56,-4.38 0.35,-0.57 1.35,-1.82 2.42,-3.32 l 5.29,-6.69 4.64,5.67 c 3.16,4.47 5.16,6.94 5.09,8.17 0,1.19 -0.39,1.85 -1.16,2.53 -1.05,0.71 -2.01,1.03 -3.73,1.03 v 2 H 4871 v -2 c -1.95,-0.12 -3.64,-0.7 -5.08,-1.73 -2.26,-1.21 -4.88,-4.63 -8.81,-9.52 l -7.83,-9.54 13.72,-18.92 c 3.16,-4.55 5.41,-7.68 6.75,-8.64 1.1,-0.85 3.1,-1.52 5.25,-1.63 v -2 h -25.8 v 2 c 1.89,0 3.48,0.38 4.57,1.13 0.56,0.81 1.23,1.2 1.23,2.06 0,1.13 -1.27,3.03 -3.8,6.5 l -8.2,11.81 -9.52,-11.61 c -2.48,-3.43 -3.48,-5.53 -3.48,-6.17 0,-0.83 0.5,-1.75 1.5,-2.5 0.83,-0.48 2.5,-1.15 4.5,-1.22 v -2 h -18 v 2 c 1.38,0.2 2.59,0.69 3.63,1.48 1.25,1.32 3.91,4.07 7.37,8.79 l 11.55,14.11 -11.55,15.95 c -2.74,4.48 -4.86,6.93 -6.36,8.01 -1.71,1.32 -3.38,1.64 -5.64,1.64 v 2" /><path
         id="path346"
         style="fill:#000000;fill-opacity:1;fill-rule:nonzero;stroke:none"
         d="m 4895,1851.98 v -18 h 12.53 v -4 H 4895 v -35.06 c 0,-3.48 0.46,-5.87 1.38,-7.09 0.8,-1.17 2.11,-1.83 3.56,-1.83 0.87,0 2.33,0.34 3.45,1.02 0.99,1 1.99,1.67 2.61,2.98 h 3 c -1.37,-3.65 -3.32,-6.39 -5.84,-8.23 -2.57,-1.77 -5.11,-2.77 -7.78,-2.77 -1.93,0 -3.58,0.5 -5.3,1.5 -1.76,1.18 -3.01,2.45 -3.85,4.33 -0.9,1.93 -1.23,4.77 -1.23,8.69 v 36.46 h -9 v 1.9 c 2.3,0.9 4.66,2.32 7.06,4.39 2.39,2.3 4.62,4.53 6.64,7.4 0.8,1.62 2.46,4.28 4.3,8.31 h 1" /><path
         id="path348"
         style="fill:#000000;fill-opacity:1;fill-rule:nonzero;stroke:none"
         d="M 4961,1833.98 V 1801 c 0,-6.16 0.13,-9.92 0.39,-11.3 0.13,-1.27 0.68,-2.34 1.25,-2.89 0.36,-0.48 1.24,-0.81 2,-0.81 0.86,0 2.28,0.33 3.63,1 l 0.73,-2 -15.45,-6 H 4951 v 11.16 c -4.62,-4.63 -8.14,-8 -10.56,-9.27 -2.58,-1.22 -5,-1.89 -7.71,-1.89 -3.25,0 -5.62,0.87 -7.84,2.61 -2.51,1.88 -3.75,3.99 -4.61,6.73 -0.95,2.96 -1.28,6.62 -1.28,11.63 v 24.01 c 0,2.47 -0.24,4.16 -0.72,5.11 -0.57,1.25 -1.19,1.68 -2.14,2.19 -1,0.75 -2.66,0.74 -5.14,0.7 v 2 h 18 v -35.82 c 0,-4.71 0.86,-8.27 2.58,-9.83 1.53,-1.33 3.81,-2.33 6.25,-2.33 1.38,0 3.53,0.52 5.64,1.58 1.96,1.19 4.62,3.05 7.53,6.01 v 30.39 c 0,3.09 -0.52,5.17 -1.56,6.25 -1.18,1.34 -3.18,1.67 -6.44,1.75 v 2 h 18" /><path
         id="path350"
         style="fill:#000000;fill-opacity:1;fill-rule:nonzero;stroke:none"
         d="m 4989,1834.98 v -13.09 c 4.44,8.77 8.99,13.09 13.66,13.09 1.89,0.01 3.86,-0.71 5.25,-2.14 1.09,-1.36 2.09,-3.06 2.09,-4.93 0,-1.63 -0.46,-3.06 -1.39,-4.21 -1.13,-1.04 -2.04,-1.7 -3.33,-1.7 -1.34,0 -2.74,0.83 -4.48,2.48 -2.01,1.84 -3.03,2.5 -3.88,2.5 -1.03,0.01 -1.5,-0.43 -2.34,-1.28 -2,-1.64 -3.67,-4.6 -5.58,-8.59 V 1792 c 0,-2.82 0.39,-4.96 1.19,-6.41 0.47,-0.86 1.5,-1.85 2.87,-2.54 1.35,-0.39 3.35,-1.05 5.94,-1.05 v -2 h -28 v 2 c 2.59,0 4.52,0.43 5.78,1.3 0.67,0.86 1.57,1.62 1.94,3 -0.06,0.9 0.28,2.56 0.28,5.7 v 21 c 0,6.38 -0.12,10.18 -0.34,11.39 -0.44,1.41 -0.64,2.09 -1.25,2.64 -0.75,0.88 -1.36,0.85 -2.25,0.85 -1.13,0.03 -2.29,-0.3 -3.64,-0.9 l -0.52,2 15.63,6 h 2.37" /><path
         id="path352"
         style="fill:#000000;fill-opacity:1;fill-rule:nonzero;stroke:none"
         d="m 5023,1813 c -0.04,-7.49 1.88,-13.36 5.75,-17.61 3.63,-4.06 8.43,-6.39 13.67,-6.39 3.35,0 6.52,0.82 9.1,2.45 2.41,1.83 4.74,4.83 6.48,9.55 l 1,-1.09 c -0.81,-5.58 -3.18,-10.5 -7.09,-14.66 -4.21,-3.92 -8.81,-6.25 -14.69,-6.25 -6.46,0 -11.86,2.47 -16.41,7.41 -4.81,5.13 -6.81,11.57 -6.81,19.9 0,9.25 2.33,16.05 7,21.1 4.66,5.25 10.52,7.57 17.56,7.57 5.77,0.01 10.85,-1.99 14.69,-5.98 3.75,-3.99 5.75,-9.32 5.75,-16 z m 0,4 h 24 c -0.19,3.36 -0.59,5.73 -1.19,7.09 -1.22,2.45 -2.35,3.83 -4.22,5.05 -2.06,1.52 -3.82,1.84 -5.86,1.84 -3.38,0.01 -5.93,-1.23 -8.4,-3.7 -2.58,-2.23 -3.92,-5.9 -4.33,-10.28" /><g
         transform="scale(0.999609,-1.00039)"
         id="g354"><path
           id="path356"
           style="fill:none;stroke:#000000;stroke-width:20.0265007;stroke-linecap:butt;stroke-linejoin:miter;stroke-miterlimit:4;stroke-dasharray:none;stroke-opacity:1"
           d="m 4690.35,-2212.11 h 546.78" /></g><path
         id="path358"
         style="fill:#000000;fill-opacity:1;fill-rule:nonzero;stroke:none"
         d="m 5225.08,2164.89 96.09,48.08 -96.09,48.08" /><g
         transform="scale(0.999609,-1.00039)"
         id="g360"><path
           id="path362"
           style="fill:none;stroke:#000000;stroke-width:20.0265007;stroke-linecap:butt;stroke-linejoin:miter;stroke-miterlimit:4;stroke-dasharray:none;stroke-opacity:1"
           d="m 4670.33,-309.496 h 546.78" /></g><path
         id="path364"
         style="fill:#000000;fill-opacity:1;fill-rule:nonzero;stroke:none"
         d="m 5205.06,261.535 96.09,48.082 -96.09,48.082" /><g
         transform="scale(0.999609,-1.00039)"
         id="g366"><path
           id="path368"
           style="fill:none;stroke:#000000;stroke-width:15.62069988;stroke-linecap:butt;stroke-linejoin:miter;stroke-miterlimit:4;stroke-dasharray:none;stroke-opacity:1"
           d="m 5314.44,-151.488 h 358.22 v -316.017 h -358.22 z" /></g><g
         transform="scale(0.999609,-1.00039)"
         id="g370"><path
           id="path372"
           style="fill:none;stroke:#000000;stroke-width:15.62069988;stroke-linecap:butt;stroke-linejoin:miter;stroke-miterlimit:4;stroke-dasharray:none;stroke-opacity:1"
           d="m 5326.08,-2054.1 h 358.21 v -316.02 h -358.21 z" /></g><path
         id="path374"
         style="fill:#000000;fill-opacity:1;fill-rule:nonzero;stroke:none"
         d="m 5403,2511.98 v -27 h -2 c -0.65,5.33 -1.8,9.56 -3.47,12.71 -1.83,3.26 -4.03,5.66 -7.11,7.51 -3.21,2.12 -6.26,2.78 -9.54,2.78 -4.02,0.01 -6.8,-1.27 -9.24,-3.82 -2.64,-2.28 -3.64,-5.46 -3.64,-8.72 0,-2.31 0.76,-4.76 2.28,-6.81 2.1,-2.9 7.43,-7.05 15.69,-12.07 6.41,-3.95 11.5,-7.22 14.3,-9.37 2.71,-1.89 4.95,-4.7 6.46,-7.63 1.27,-2.78 2.27,-5.99 2.27,-9.18 0,-5.89 -2.3,-11.36 -6.89,-15.77 -4.62,-4.28 -10.48,-6.61 -17.7,-6.61 -2.4,0 -4.39,0.2 -6.39,0.58 -1.2,0.36 -3.66,1.01 -7.39,2.37 -3.95,1.38 -6.11,2.05 -7.11,2.05 -1.14,0 -1.72,-0.33 -2.29,-0.98 -0.63,-0.32 -0.96,-1.99 -1.23,-4.02 h -2 v 27 h 2 c 0.98,-5.78 2.3,-10.11 3.95,-12.98 1.34,-2.55 4.19,-5.27 7.6,-7.18 3.22,-1.84 7.14,-2.84 11.2,-2.84 4.46,0 8.43,1.33 11.16,3.98 2.42,2.68 4.09,5.82 4.09,9.44 0,2.21 -0.48,4.06 -1.45,6.11 -1.16,2.22 -2.48,3.98 -4.52,5.75 -1.39,1.45 -5.19,3.71 -11.44,7.52 -6.43,3.86 -10.93,6.84 -14.06,9.14 -3.3,2.32 -5.49,4.84 -7.11,7.62 -1.76,2.93 -2.42,5.84 -2.42,9.17 0,5.88 2.12,10.79 6.36,14.97 4.13,4.29 9.65,6.28 16.2,6.28 3.91,0.01 8.44,-1.13 13.03,-3.39 1.92,-0.93 3.61,-1.61 4.49,-1.61 0.96,0.01 1.8,0.33 2.42,0.99 0.46,0.67 1.13,2 1.5,4.01 h 2" /><path
         id="path376"
         style="fill:#000000;fill-opacity:1;fill-rule:nonzero;stroke:none"
         d="m 5436,2513.98 v -40.09 c 4.36,4.77 7.83,7.76 10.39,9.09 2.43,1.34 5.12,2 7.67,2 3.05,0.01 5.71,-0.84 7.91,-2.51 1.88,-1.5 3.84,-4.31 4.91,-7.89 0.45,-2.34 1.12,-7.03 1.12,-13.66 V 2442 c 0,-3.4 0.27,-5.71 0.83,-6.95 0.11,-0.62 1.05,-1.69 1.98,-2.24 0.68,-0.48 2.68,-0.81 5.19,-0.81 v -2 h -26 v 2 h 1.14 c 2.25,0 3.9,0.38 4.8,1.14 0.59,1.05 1.54,1.88 1.9,3.36 -0.18,0.79 0.16,2.46 0.16,5.5 v 18.97 c 0,5.86 -0.3,9.69 -0.91,11.51 -0.63,2.01 -1.57,3.21 -2.9,4.13 -1.39,1.05 -2.92,1.37 -4.78,1.37 -2.06,0.01 -3.92,-0.51 -5.99,-1.53 -2.2,-0.82 -4.54,-3.04 -7.42,-6.11 V 2442 c 0,-3.67 0.19,-5.95 0.56,-6.84 0.2,-0.62 1.09,-1.65 2.11,-2.25 0.81,-0.58 2.81,-0.91 5.33,-0.91 v -2 h -26 v 2 c 2.32,0 4.15,0.37 5.48,1.11 0.6,0.69 1.37,1.13 1.83,2.22 0.35,1.31 0.69,3.31 0.69,6.67 v 49.98 c 0,6.15 -0.13,9.91 -0.39,11.32 -0.47,1.64 -0.66,2.36 -1.2,2.86 -0.67,0.79 -1.25,0.76 -2.14,0.76 -0.82,0.03 -1.91,-0.31 -3.54,-0.94 l -0.73,2 15.41,6 h 2.59" /><path
         id="path378"
         style="fill:#000000;fill-opacity:1;fill-rule:nonzero;stroke:none"
         d="m 5511,2437.95 c -5.53,-4.29 -9,-6.8 -10.41,-7.47 -2.32,-0.81 -4.38,-1.48 -6.76,-1.48 -4.01,0 -6.81,1.24 -9.22,3.73 -2.61,2.58 -3.61,5.77 -3.61,9.85 0,2.7 0.59,4.78 1.77,6.67 1.34,2.85 4.39,5.05 8.37,7.34 3.94,2.44 10.61,5.11 19.86,8.41 v 2.09 c 0,5.61 -0.86,8.95 -2.56,10.93 -1.86,2.3 -4.19,2.96 -7.44,2.96 -2.47,0.01 -4.43,-0.64 -5.87,-1.92 -1.55,-0.96 -2.25,-2.73 -2.25,-4.39 l 0.12,-3.26 c 0,-1.53 -0.46,-3.07 -1.39,-4 -1.13,-0.75 -2.14,-1.41 -3.64,-1.41 -1.78,0 -2.65,0.5 -3.58,1.5 -1.06,1.18 -1.39,2.39 -1.39,4.14 0,3.44 1.74,6.38 5.22,9.16 3.41,2.86 8.38,4.18 14.67,4.18 4.54,0.01 8.79,-0.8 11.88,-2.4 2.07,-1.07 4.05,-3.11 5.17,-5.69 0.39,-1.65 1.06,-5.12 1.06,-10.31 v -18.25 c 0,-4.9 0.09,-8.27 0.28,-9.42 0.1,-1.13 0.52,-1.94 0.95,-2.33 0.36,-0.25 0.95,-0.58 1.52,-0.58 0.36,0 1.15,0.11 1.61,0.34 0.68,0.66 2.35,1.66 4.64,3.66 v -2.8 c -4.41,-5.2 -8.62,-8.2 -12.62,-8.2 -2.06,0 -3.47,0.68 -4.61,2.03 -1.39,1.68 -1.73,3.66 -1.77,6.92 z m 0,3.61 V 2461 c -5.89,-2.23 -9.69,-3.81 -11.41,-4.73 -3.27,-1.39 -5.27,-3.35 -6.61,-5.13 -1.65,-1.5 -1.98,-3.73 -1.98,-5.84 0,-2.44 0.84,-4.89 2.52,-6.66 1.5,-1.64 3.6,-2.64 5.78,-2.64 2.86,0 6.86,1.85 11.7,5.56" /><path
         id="path380"
         style="fill:#000000;fill-opacity:1;fill-rule:nonzero;stroke:none"
         d="m 5531,2478.98 15.86,6 h 2.14 v -12.18 c 2.75,4.58 5.51,7.66 8.28,9.47 2.69,2.05 5.7,2.71 8.77,2.71 5.33,0.01 9.81,-2.07 13.37,-6.23 4.24,-4.98 6.58,-11.67 6.58,-19.81 0,-9.1 -2.64,-16.65 -7.91,-22.61 -4.37,-4.67 -9.81,-7.33 -16.4,-7.33 -3.11,0 -5.36,0.45 -7.46,1.34 -1.63,0.87 -3.29,1.93 -5.23,3.86 V 2416 c 0,-3.58 0.2,-5.86 0.59,-6.83 0.2,-0.69 1.09,-1.74 2.07,-2.31 0.75,-0.52 2.75,-0.86 5.34,-0.86 v -2 h -28 v 2 h 1.58 c 2.11,-0.04 4.27,0.34 5.9,1.16 0.63,0.68 1.41,1.06 1.85,1.97 0.33,1.18 0.67,3.18 0.67,6.87 v 53 c 0,3.22 -0.14,5.26 -0.42,6.13 -0.47,1.16 -0.72,1.53 -1.33,1.98 -0.69,0.75 -1.42,0.69 -2.45,0.69 -1.1,0.06 -1.89,-0.28 -3.17,-0.82 z m 18,-9.56 v -19.64 c 0,-4.18 0.18,-7.05 0.53,-8.39 0.38,-2.01 1.9,-4.17 4.03,-5.86 1.96,-1.53 4.85,-2.53 8.11,-2.53 3.71,0 7.11,1.49 9.55,4.48 3.11,4.08 4.78,9.4 4.78,16.49 0,8.05 -1.81,14.22 -5.42,18.55 -2.72,3.14 -5.51,4.46 -8.97,4.46 -2.09,0.01 -3.75,-0.46 -5.59,-1.37 -1.43,-0.56 -3.76,-2.75 -7.02,-6.19" /><path
         id="path382"
         style="fill:#000000;fill-opacity:1;fill-rule:nonzero;stroke:none"
         d="m 5603,2463 c -0.04,-7.49 1.88,-13.36 5.75,-17.61 3.63,-4.06 8.43,-6.39 13.67,-6.39 3.35,0 6.52,0.82 9.1,2.45 2.41,1.83 4.74,4.83 6.48,9.55 l 1,-1.09 c -0.81,-5.58 -3.18,-10.5 -7.09,-14.66 -4.21,-3.92 -8.81,-6.25 -14.69,-6.25 -6.46,0 -11.86,2.47 -16.41,7.41 -4.81,5.13 -6.81,11.57 -6.81,19.9 0,9.25 2.33,16.05 7,21.1 4.66,5.25 10.52,7.57 17.56,7.57 5.77,0.01 10.85,-1.99 14.69,-5.98 3.75,-3.99 5.75,-9.32 5.75,-16 z m 0,4 h 24 c -0.19,3.36 -0.59,5.73 -1.19,7.09 -1.22,2.45 -2.35,3.83 -4.22,5.05 -2.06,1.52 -3.82,1.84 -5.86,1.84 -3.38,0.01 -5.93,-1.23 -8.4,-3.7 -2.58,-2.23 -3.92,-5.9 -4.33,-10.28" /><path
         id="path384"
         style="fill:#000000;fill-opacity:1;fill-rule:nonzero;stroke:none"
         d="m 5387,1599.98 1,-17.64 h -2.23 c -0.69,3.5 -1.02,5.63 -1.77,7.04 -1.21,2.46 -2.82,3.92 -4.84,5 -2.07,1.28 -4.67,1.6 -7.96,1.6 H 5360 V 1534 c 0,-5.05 0.52,-8.2 1.56,-9.45 1.27,-1.55 3.71,-2.55 6.74,-2.55 h 2.7 v -2 h -33 v 2 h 2.75 c 3.03,0 5.61,1.05 6.98,3.16 0.6,1.57 1.27,4.23 1.27,8.84 v 61.98 h -9.36 c -3.86,0.01 -6.23,-0.27 -7.76,-0.81 -2.29,-0.46 -3.7,-2.17 -5.11,-4.28 -1.68,-2.07 -2.27,-4.95 -2.54,-8.55 H 5322 l 1,17.64 h 64" /><path
         id="path386"
         style="fill:#000000;fill-opacity:1;fill-rule:nonzero;stroke:none"
         d="m 5396,1553 c -0.04,-7.49 1.88,-13.36 5.75,-17.61 3.63,-4.06 8.43,-6.39 13.67,-6.39 3.35,0 6.52,0.82 9.1,2.45 2.41,1.83 4.74,4.83 6.48,9.55 l 1,-1.09 c -0.81,-5.58 -3.18,-10.5 -7.09,-14.66 -4.21,-3.92 -8.81,-6.25 -14.69,-6.25 -6.46,0 -11.86,2.47 -16.41,7.41 -4.81,5.13 -6.81,11.57 -6.81,19.9 0,9.25 2.33,16.05 7,21.1 4.66,5.25 10.52,7.57 17.56,7.57 5.77,0.01 10.85,-1.99 14.69,-5.98 3.75,-3.99 5.75,-9.32 5.75,-16 z m 0,4 h 24 c -0.19,3.36 -0.59,5.73 -1.19,7.09 -1.22,2.45 -2.35,3.83 -4.22,5.05 -2.06,1.52 -3.82,1.84 -5.86,1.84 -3.38,0.01 -5.93,-1.23 -8.4,-3.7 -2.58,-2.23 -3.92,-5.9 -4.33,-10.28" /><path
         id="path388"
         style="fill:#000000;fill-opacity:1;fill-rule:nonzero;stroke:none"
         d="m 5437,1573.98 h 24 v -2 c -1.48,0.01 -2.52,-0.27 -3.11,-0.82 -0.89,-0.28 -0.89,-1.28 -0.89,-2.19 0,-0.94 0.85,-2.41 2.56,-4.38 0.35,-0.57 1.35,-1.82 2.42,-3.32 l 5.29,-6.69 4.64,5.67 c 3.16,4.47 5.16,6.94 5.09,8.17 0,1.19 -0.39,1.85 -1.16,2.53 -1.05,0.71 -2.01,1.03 -3.73,1.03 v 2 H 5491 v -2 c -1.95,-0.12 -3.64,-0.7 -5.08,-1.73 -2.26,-1.21 -4.88,-4.63 -8.81,-9.52 l -7.83,-9.54 13.72,-18.92 c 3.16,-4.55 5.41,-7.68 6.75,-8.64 1.1,-0.85 3.1,-1.52 5.25,-1.63 v -2 h -25.8 v 2 c 1.89,0 3.48,0.38 4.57,1.13 0.56,0.81 1.23,1.2 1.23,2.06 0,1.13 -1.27,3.03 -3.8,6.5 l -8.2,11.81 -9.52,-11.61 c -2.48,-3.43 -3.48,-5.53 -3.48,-6.17 0,-0.83 0.5,-1.75 1.5,-2.5 0.83,-0.48 2.5,-1.15 4.5,-1.22 v -2 h -18 v 2 c 1.38,0.2 2.59,0.69 3.63,1.48 1.25,1.32 3.91,4.07 7.37,8.79 l 11.55,14.11 -11.55,15.95 c -2.74,4.48 -4.86,6.93 -6.36,8.01 -1.71,1.32 -3.38,1.64 -5.64,1.64 v 2" /><path
         id="path390"
         style="fill:#000000;fill-opacity:1;fill-rule:nonzero;stroke:none"
         d="m 5515,1591.98 v -18 h 12.53 v -4 H 5515 v -35.06 c 0,-3.48 0.46,-5.87 1.38,-7.09 0.8,-1.17 2.11,-1.83 3.56,-1.83 0.87,0 2.33,0.34 3.45,1.02 0.99,1 1.99,1.67 2.61,2.98 h 3 c -1.37,-3.65 -3.32,-6.39 -5.84,-8.23 -2.57,-1.77 -5.11,-2.77 -7.78,-2.77 -1.93,0 -3.58,0.5 -5.3,1.5 -1.76,1.18 -3.01,2.45 -3.85,4.33 -0.9,1.93 -1.23,4.77 -1.23,8.69 v 36.46 h -9 v 1.9 c 2.3,0.9 4.66,2.32 7.06,4.39 2.39,2.3 4.62,4.53 6.64,7.4 0.8,1.62 2.46,4.28 4.3,8.31 h 1" /><path
         id="path392"
         style="fill:#000000;fill-opacity:1;fill-rule:nonzero;stroke:none"
         d="M 5581,1573.98 V 1541 c 0,-6.16 0.13,-9.92 0.39,-11.3 0.13,-1.27 0.68,-2.34 1.25,-2.89 0.36,-0.48 1.24,-0.81 2,-0.81 0.86,0 2.28,0.33 3.63,1 l 0.73,-2 -15.45,-6 H 5571 v 11.16 c -4.62,-4.63 -8.14,-8 -10.56,-9.27 -2.58,-1.22 -5,-1.89 -7.71,-1.89 -3.25,0 -5.62,0.87 -7.84,2.61 -2.51,1.88 -3.75,3.99 -4.61,6.73 -0.95,2.96 -1.28,6.62 -1.28,11.63 v 24.01 c 0,2.47 -0.24,4.16 -0.72,5.11 -0.57,1.25 -1.19,1.68 -2.14,2.19 -1,0.75 -2.66,0.74 -5.14,0.7 v 2 h 18 v -35.82 c 0,-4.71 0.86,-8.27 2.58,-9.83 1.53,-1.33 3.81,-2.33 6.25,-2.33 1.38,0 3.53,0.52 5.64,1.58 1.96,1.19 4.62,3.05 7.53,6.01 v 30.39 c 0,3.09 -0.52,5.17 -1.56,6.25 -1.18,1.34 -3.18,1.67 -6.44,1.75 v 2 h 18" /><path
         id="path394"
         style="fill:#000000;fill-opacity:1;fill-rule:nonzero;stroke:none"
         d="m 5609,1574.98 v -13.09 c 4.44,8.77 8.99,13.09 13.66,13.09 1.89,0.01 3.86,-0.71 5.25,-2.14 1.09,-1.36 2.09,-3.06 2.09,-4.93 0,-1.63 -0.46,-3.06 -1.39,-4.21 -1.13,-1.04 -2.04,-1.7 -3.33,-1.7 -1.34,0 -2.74,0.83 -4.48,2.48 -2.01,1.84 -3.03,2.5 -3.88,2.5 -1.03,0.01 -1.5,-0.43 -2.34,-1.28 -2,-1.64 -3.67,-4.6 -5.58,-8.59 V 1532 c 0,-2.82 0.39,-4.96 1.19,-6.41 0.47,-0.86 1.5,-1.85 2.87,-2.54 1.35,-0.39 3.35,-1.05 5.94,-1.05 v -2 h -28 v 2 c 2.59,0 4.52,0.43 5.78,1.3 0.67,0.86 1.57,1.62 1.94,3 -0.06,0.9 0.28,2.56 0.28,5.7 v 21 c 0,6.38 -0.12,10.18 -0.34,11.39 -0.44,1.41 -0.64,2.09 -1.25,2.64 -0.75,0.88 -1.36,0.85 -2.25,0.85 -1.13,0.03 -2.29,-0.3 -3.64,-0.9 l -0.52,2 15.63,6 h 2.37" /><path
         id="path396"
         style="fill:#000000;fill-opacity:1;fill-rule:nonzero;stroke:none"
         d="m 5643,1553 c -0.04,-7.49 1.88,-13.36 5.75,-17.61 3.63,-4.06 8.43,-6.39 13.67,-6.39 3.35,0 6.52,0.82 9.1,2.45 2.41,1.83 4.74,4.83 6.48,9.55 l 1,-1.09 c -0.81,-5.58 -3.18,-10.5 -7.09,-14.66 -4.21,-3.92 -8.81,-6.25 -14.69,-6.25 -6.46,0 -11.86,2.47 -16.41,7.41 -4.81,5.13 -6.81,11.57 -6.81,19.9 0,9.25 2.33,16.05 7,21.1 4.66,5.25 10.52,7.57 17.56,7.57 5.77,0.01 10.85,-1.99 14.69,-5.98 3.75,-3.99 5.75,-9.32 5.75,-16 z m 0,4 h 24 c -0.19,3.36 -0.59,5.73 -1.19,7.09 -1.22,2.45 -2.35,3.83 -4.22,5.05 -2.06,1.52 -3.82,1.84 -5.86,1.84 -3.38,0.01 -5.93,-1.23 -8.4,-3.7 -2.58,-2.23 -3.92,-5.9 -4.33,-10.28" /></g></g></svg>