<?xml version="1.0" encoding="UTF-8" standalone="no"?>
<svg
   xmlns:dc="http://purl.org/dc/elements/1.1/"
   xmlns:cc="http://creativecommons.org/ns#"
   xmlns:rdf="http://www.w3.org/1999/02/22-rdf-syntax-ns#"
   xmlns:svg="http://www.w3.org/2000/svg"
   xmlns="http://www.w3.org/2000/svg"
   viewBox="0 0 856.53333 344.74667"
   height="344.74667"
   width="856.53333"
   xml:space="preserve"
   id="svg2"
   version="1.1"><metadata
     id="metadata8"><rdf:RDF><cc:Work
         rdf:about=""><dc:format>image/svg+xml</dc:format><dc:type
           rdf:resource="http://purl.org/dc/dcmitype/StillImage" /></cc:Work></rdf:RDF></metadata><defs
     id="defs6" /><g
     transform="matrix(1.3333333,0,0,-1.3333333,0,344.74667)"
     id="g10"><g
       transform="scale(0.1)"
       id="g12"><path
         id="path14"
         style="fill:#ffffff;fill-opacity:1;fill-rule:nonzero;stroke:none"
         d="M 0,0 H 6436 V 2590 H 0 Z" /><g
         transform="scale(0.999609,-1.00039)"
         id="g16"><path
           id="path18"
           style="fill:none;stroke:#000000;stroke-width:15.62069988;stroke-linecap:butt;stroke-linejoin:miter;stroke-miterlimit:4;stroke-dasharray:none;stroke-opacity:1"
           d="m 122.36,-2090.53 h 6010.36 v -316.02 H 122.36 Z" /></g><g
         transform="scale(0.999609,-1.00039)"
         id="g20"><path
           id="path22"
           style="fill:none;stroke:#000000;stroke-width:15.62069988;stroke-linecap:butt;stroke-linejoin:miter;stroke-miterlimit:4;stroke-dasharray:none;stroke-opacity:1"
           d="M 162.415,-1485.33 H 1073.92" /></g><g
         transform="scale(0.999609,-1.00039)"
         id="g24"><path
           id="path26"
           style="fill:none;stroke:#000000;stroke-width:15.62069988;stroke-linecap:butt;stroke-linejoin:miter;stroke-miterlimit:4;stroke-dasharray:none;stroke-opacity:1"
           d="M 162.415,-1285.06 H 1073.92" /></g><g
         transform="scale(0.999609,-1.00039)"
         id="g28"><path
           id="path30"
           style="fill:none;stroke:#000000;stroke-width:15.62069988;stroke-linecap:butt;stroke-linejoin:miter;stroke-miterlimit:4;stroke-dasharray:none;stroke-opacity:1"
           d="m 1073.62,-1483.42 1.9,-242.23" /></g><g
         transform="scale(0.999609,-1.00039)"
         id="g32"><path
           id="path34"
           style="fill:none;stroke:#000000;stroke-width:15.62069988;stroke-linecap:butt;stroke-linejoin:miter;stroke-miterlimit:4;stroke-dasharray:none;stroke-opacity:1"
           d="m 1063.61,-1725.65 424.66,1.91" /></g><g
         transform="scale(0.999609,-1.00039)"
         id="g36"><path
           id="path38"
           style="fill:none;stroke:#000000;stroke-width:15.62069988;stroke-linecap:butt;stroke-linejoin:miter;stroke-miterlimit:4;stroke-dasharray:none;stroke-opacity:1"
           d="m 1484.17,-1725.65 3.8,679.61" /></g><g
         transform="scale(0.999609,-1.00039)"
         id="g40"><path
           id="path42"
           style="fill:none;stroke:#000000;stroke-width:15.62069988;stroke-linecap:butt;stroke-linejoin:miter;stroke-miterlimit:4;stroke-dasharray:none;stroke-opacity:1"
           d="m 1063.61,-1054.76 h 429.97" /></g><g
         transform="scale(0.999609,-1.00039)"
         id="g44"><path
           id="path46"
           style="fill:none;stroke:#000000;stroke-width:15.62069988;stroke-linecap:butt;stroke-linejoin:miter;stroke-miterlimit:4;stroke-dasharray:none;stroke-opacity:1"
           d="m 1073.62,-1052.85 1.9,-242.23" /></g><g
         transform="scale(0.999609,-1.00039)"
         id="g48"><path
           id="path50"
           style="fill:none;stroke:#000000;stroke-width:15.62069988;stroke-linecap:butt;stroke-linejoin:miter;stroke-miterlimit:4;stroke-dasharray:none;stroke-opacity:1"
           d="m 2050.97,-1177.72 369.49,-600.8 369.49,600.8 z" /></g><g
         transform="scale(0.999609,-1.00039)"
         id="g52"><path
           id="path54"
           style="fill:none;stroke:#000000;stroke-width:15.62069988;stroke-linecap:butt;stroke-linejoin:miter;stroke-miterlimit:4;stroke-dasharray:none;stroke-opacity:1"
           d="m 4528.2,-1775.71 7.91,689.31" /></g><g
         transform="scale(0.999609,-1.00039)"
         id="g56"><path
           id="path58"
           style="fill:none;stroke:#000000;stroke-width:15.62069988;stroke-linecap:butt;stroke-linejoin:miter;stroke-miterlimit:4;stroke-dasharray:none;stroke-opacity:1"
           d="m 4528.2,-1089 1608.32,-15.82" /></g><g
         transform="scale(0.999609,-1.00039)"
         id="g60"><path
           id="path62"
           style="fill:none;stroke:#000000;stroke-width:15.62069988;stroke-linecap:butt;stroke-linejoin:miter;stroke-miterlimit:4;stroke-dasharray:none;stroke-opacity:1"
           d="m 6130.31,-1097.41 v -237.72" /></g><g
         transform="scale(0.999609,-1.00039)"
         id="g64"><path
           id="path66"
           style="fill:none;stroke:#000000;stroke-width:15.62069988;stroke-linecap:butt;stroke-linejoin:miter;stroke-miterlimit:4;stroke-dasharray:none;stroke-opacity:1"
           d="m 6134.72,-1325.11 -1045.78,7.91" /></g><g
         transform="scale(0.999609,-1.00039)"
         id="g68"><path
           id="path70"
           style="fill:none;stroke:#000000;stroke-width:15.62069988;stroke-linecap:butt;stroke-linejoin:miter;stroke-miterlimit:4;stroke-dasharray:none;stroke-opacity:1"
           d="m 5088.94,-1317.7 v -237.72" /></g><g
         transform="scale(0.999609,-1.00039)"
         id="g72"><path
           id="path74"
           style="fill:none;stroke:#000000;stroke-width:15.62069988;stroke-linecap:butt;stroke-linejoin:miter;stroke-miterlimit:4;stroke-dasharray:none;stroke-opacity:1"
           d="m 6134.72,-1555.42 -1045.78,7.91" /></g><g
         transform="scale(0.999609,-1.00039)"
         id="g76"><path
           id="path78"
           style="fill:none;stroke:#000000;stroke-width:15.62069988;stroke-linecap:butt;stroke-linejoin:miter;stroke-miterlimit:4;stroke-dasharray:none;stroke-opacity:1"
           d="m 6130.31,-1548.01 v -237.71" /></g><g
         transform="scale(0.999609,-1.00039)"
         id="g80"><path
           id="path82"
           style="fill:none;stroke:#000000;stroke-width:15.62069988;stroke-linecap:butt;stroke-linejoin:miter;stroke-miterlimit:4;stroke-dasharray:none;stroke-opacity:1"
           d="m 4528.2,-1769.9 1608.32,-15.82" /></g><g
         transform="scale(0.999609,-1.00039)"
         id="g84"><path
           id="path86"
           style="fill:none;stroke:#000000;stroke-width:15.62069988;stroke-linecap:butt;stroke-linejoin:miter;stroke-miterlimit:4;stroke-dasharray:none;stroke-opacity:1"
           d="m 1163.74,-1298.68 h 58.28 v -266.75 h 116.55 v 266.75 h 58.28 l -116.56,116.55 z" /></g><g
         transform="scale(0.999609,-1.00039)"
         id="g88"><path
           id="path90"
           style="fill:none;stroke:#000000;stroke-width:15.62069988;stroke-linecap:butt;stroke-linejoin:miter;stroke-miterlimit:4;stroke-dasharray:none;stroke-opacity:1"
           d="m 4891.47,-1508.96 h -58.27 v 266.75 h -116.56 v -266.75 h -58.27 l 116.55,-116.55 z" /></g><g
         transform="scale(0.999609,-1.00039)"
         id="g92"><path
           id="path94"
           style="fill:none;stroke:#000000;stroke-width:15.62069988;stroke-linecap:butt;stroke-linejoin:miter;stroke-miterlimit:4;stroke-dasharray:none;stroke-opacity:1"
           d="m 1864.67,-2086.12 6.31,544.52" /></g><g
         transform="scale(0.999609,-1.00039)"
         id="g96"><path
           id="path98"
           style="fill:none;stroke:#000000;stroke-width:15.62069988;stroke-linecap:butt;stroke-linejoin:miter;stroke-miterlimit:4;stroke-dasharray:none;stroke-opacity:1"
           d="m 1674.42,-2086.12 v 698.42" /></g><g
         transform="scale(0.999609,-1.00039)"
         id="g100"><path
           id="path102"
           style="fill:none;stroke:#000000;stroke-width:15.62069988;stroke-linecap:butt;stroke-linejoin:miter;stroke-miterlimit:4;stroke-dasharray:none;stroke-opacity:1"
           d="m 1764.54,-2086.12 3.7,624.63" /></g><g
         transform="matrix(0.987419,-0.0121997,-0.0121901,-0.988191,0,0)"
         id="g104"><path
           id="path106"
           style="fill:none;stroke:#000000;stroke-width:15.81229973;stroke-linecap:butt;stroke-linejoin:miter;stroke-miterlimit:4;stroke-dasharray:none;stroke-opacity:1"
           d="m 1869.89,-1585.04 418.01,-5.16" /></g><g
         transform="scale(0.999609,-1.00039)"
         id="g108"><path
           id="path110"
           style="fill:none;stroke:#000000;stroke-width:15.62069988;stroke-linecap:butt;stroke-linejoin:miter;stroke-miterlimit:4;stroke-dasharray:none;stroke-opacity:1"
           d="m 1760.73,-1469.26 h 462.21" /></g><g
         transform="matrix(0.991481,-0.0081334,-0.00812704,-0.992258,0,0)"
         id="g112"><path
           id="path114"
           style="fill:none;stroke:#000000;stroke-width:15.74820042;stroke-linecap:butt;stroke-linejoin:miter;stroke-miterlimit:4;stroke-dasharray:none;stroke-opacity:1"
           d="m 1676.51,-1418.5 510.49,-4.19" /></g><g
         transform="scale(0.999609,-1.00039)"
         id="g116"><path
           id="path118"
           style="fill:none;stroke:#000000;stroke-width:15.62069988;stroke-linecap:butt;stroke-linejoin:miter;stroke-miterlimit:4;stroke-dasharray:none;stroke-opacity:1"
           d="m 2552.69,-1547.61 h 875.9" /></g><g
         transform="matrix(0.986671,-0.0129484,-0.0129383,-0.987443,0,0)"
         id="g120"><path
           id="path122"
           style="fill:none;stroke:#000000;stroke-width:15.82419968;stroke-linecap:butt;stroke-linejoin:miter;stroke-miterlimit:4;stroke-dasharray:none;stroke-opacity:1"
           d="m 2629.91,-1523.01 759.82,-9.96" /></g><g
         transform="matrix(0.995889,-0.00372239,-0.00371948,-0.996669,0,0)"
         id="g124"><path
           id="path126"
           style="fill:none;stroke:#000000;stroke-width:15.67889977;stroke-linecap:butt;stroke-linejoin:miter;stroke-miterlimit:4;stroke-dasharray:none;stroke-opacity:1"
           d="m 2673.54,-1408.53 673.52,-2.52" /></g><g
         transform="matrix(0.998041,-0.00156941,-0.00156819,-0.998822,0,0)"
         id="g128"><path
           id="path130"
           style="fill:none;stroke:#000000;stroke-width:15.64519978;stroke-linecap:butt;stroke-linejoin:miter;stroke-miterlimit:4;stroke-dasharray:none;stroke-opacity:1"
           d="m 3761.17,-1477.48 768.12,-1.2" /></g><g
         transform="scale(0.999609,-1.00039)"
         id="g132"><path
           id="path134"
           style="fill:none;stroke:#000000;stroke-width:15.62069988;stroke-linecap:butt;stroke-linejoin:miter;stroke-miterlimit:4;stroke-dasharray:none;stroke-opacity:1"
           d="m 422.759,-402.495 c 0,-72.694 58.879,-131.574 131.575,-131.574 72.696,0 131.575,58.88 131.575,131.574 0,72.698 -58.879,131.577 -131.575,131.577 -72.696,0 -131.575,-58.879 -131.575,-131.577 v 0" /></g><g
         transform="scale(0.999609,-1.00039)"
         id="g136"><path
           id="path138"
           style="fill:none;stroke:#000000;stroke-width:15.62069988;stroke-linecap:butt;stroke-linejoin:miter;stroke-miterlimit:4;stroke-dasharray:none;stroke-opacity:1"
           d="m 5980.12,-373.053 c 0,-72.296 58.87,-130.973 131.57,-130.973 72.7,0 131.58,58.677 131.58,130.973 0,72.296 -58.88,130.972 -131.58,130.972 -72.7,0 -131.57,-58.676 -131.57,-130.972 v 0" /></g><g
         transform="scale(0.999609,-1.00039)"
         id="g140"><path
           id="path142"
           style="fill:none;stroke:#000000;stroke-width:15.62069988;stroke-linecap:butt;stroke-linejoin:miter;stroke-miterlimit:4;stroke-dasharray:none;stroke-opacity:1"
           d="m 552.931,-534.069 5557.359,22.531" /></g><g
         transform="scale(0.999609,-1.00039)"
         id="g144"><path
           id="path146"
           style="fill:none;stroke:#000000;stroke-width:15.62069988;stroke-linecap:butt;stroke-linejoin:miter;stroke-miterlimit:4;stroke-dasharray:none;stroke-opacity:1"
           d="m 552.931,-263.709 5557.359,22.53" /></g><g
         transform="scale(0.999609,-1.00039)"
         id="g148"><path
           id="path150"
           style="fill:none;stroke:#000000;stroke-width:15.62069988;stroke-linecap:butt;stroke-linejoin:miter;stroke-miterlimit:4;stroke-dasharray:none;stroke-opacity:1"
           d="m 2161.52,-420.964 c 0,-8.911 7.3,-16.221 16.22,-16.221 h 485.44 c 8.91,0 16.22,7.31 16.22,16.221 v 64.884 c 0,8.915 -7.31,16.225 -16.22,16.225 h -485.44 c -8.92,0 -16.22,-7.31 -16.22,-16.225 v -64.884" /></g><path
         id="path152"
         style="fill:#000000;fill-opacity:1;fill-rule:nonzero;stroke:none"
         d="m 444,2285.98 v -33 h 14 c 3.52,0.01 6.098,0.79 7.734,2.38 1.391,1.8 2.723,4.46 3.266,8.62 h 2 V 2238 h -2 c -0.043,3.04 -0.469,5.27 -1.281,6.7 -1.043,1.53 -1.922,2.5 -3.36,3.22 -1.546,0.74 -3.546,1.08 -6.359,1.08 h -14 v -25 c 0,-4.06 0.242,-6.75 0.734,-8.05 0.129,-0.96 1.161,-1.82 2.36,-2.53 1.613,-0.76 3.363,-1.42 5.156,-1.42 H 455 v -2 h -33 v 2 h 2.719 c 2.937,0 5.484,0.96 6.922,2.89 0.691,1.3 1.359,4.3 1.359,9.11 v 51.98 c 0,4.07 -0.246,6.75 -0.734,8.05 -0.465,1.3 -1.153,1.82 -2.328,2.53 -1.938,1.1 -3.368,1.42 -5.219,1.42 H 422 v 2 h 59 l 1,-17 h -3 c -0.867,3.68 -1.871,6.38 -3.016,8.1 -1.464,2.02 -2.714,2.96 -4.734,3.73 -2.094,0.85 -5.133,1.17 -9.359,1.17 H 444" /><path
         id="path154"
         style="fill:#000000;fill-opacity:1;fill-rule:nonzero;stroke:none"
         d="m 504.531,2293.98 c 1.614,0.01 3.317,-0.63 4.578,-1.89 1.223,-0.96 1.891,-2.79 1.891,-4.57 0,-1.64 -0.633,-3.33 -1.891,-4.61 -1.296,-1.25 -2.789,-1.93 -4.578,-1.93 -1.968,0.01 -3.328,0.65 -4.609,1.93 -1.59,1.31 -1.922,2.81 -1.922,4.61 0,1.95 0.629,3.31 1.891,4.57 0.961,1.57 2.804,1.89 4.64,1.89 z m 5.469,-29 V 2222 c 0,-3.36 0.238,-5.59 0.719,-6.7 0.238,-0.87 1.187,-1.94 2.125,-2.49 0.664,-0.48 2.664,-0.81 5.156,-0.81 v -2 h -26 v 2 c 2.551,0 4.266,0.25 5.141,0.75 0.828,0.59 1.566,1.35 2.078,2.52 0.445,1.42 0.781,3.42 0.781,6.73 v 21 c 0,5.91 -0.156,9.74 -0.469,11.48 -0.418,1.45 -0.621,2.15 -1.14,2.65 -0.653,0.78 -1.231,0.75 -2.125,0.75 -1.059,0.03 -2.149,-0.3 -3.532,-0.9 l -0.734,2 15.531,6 H 510" /><path
         id="path156"
         style="fill:#000000;fill-opacity:1;fill-rule:nonzero;stroke:none"
         d="m 539,2264.98 v -13.09 c 4.438,8.77 8.988,13.09 13.656,13.09 1.895,0.01 3.864,-0.71 5.25,-2.14 1.094,-1.36 2.094,-3.06 2.094,-4.93 0,-1.63 -0.465,-3.06 -1.391,-4.21 -1.132,-1.04 -2.039,-1.7 -3.328,-1.7 -1.343,0 -2.746,0.83 -4.484,2.48 -2.008,1.84 -3.031,2.5 -3.875,2.5 -1.027,0.01 -1.5,-0.43 -2.344,-1.28 -1.996,-1.64 -3.664,-4.6 -5.578,-8.59 V 2222 c 0,-2.82 0.395,-4.96 1.188,-6.41 0.476,-0.86 1.5,-1.85 2.875,-2.54 1.351,-0.39 3.351,-1.05 5.937,-1.05 v -2 h -28 v 2 c 2.594,0 4.52,0.43 5.781,1.3 0.664,0.86 1.571,1.62 1.938,3 -0.055,0.9 0.281,2.56 0.281,5.7 v 21 c 0,6.38 -0.117,10.18 -0.344,11.39 -0.437,1.41 -0.636,2.09 -1.25,2.64 -0.742,0.88 -1.355,0.85 -2.25,0.85 -1.125,0.03 -2.289,-0.3 -3.64,-0.9 l -0.516,2 15.625,6 H 539" /><path
         id="path158"
         style="fill:#000000;fill-opacity:1;fill-rule:nonzero;stroke:none"
         d="M 599,2264.98 V 2247 h -2 c -1.5,5.41 -3.43,9.1 -5.781,11.05 -2.418,2.27 -5.336,2.93 -8.969,2.93 -2.855,0.01 -5.008,-0.69 -6.703,-2.09 -1.883,-1.35 -2.547,-2.92 -2.547,-4.61 0,-1.84 0.629,-3.87 1.891,-5.37 0.922,-1.52 3.703,-3.18 7.453,-4.91 l 8.64,-3.98 c 7.68,-3.48 12.016,-8.81 12.016,-15.02 0,-4.8 -1.875,-8.67 -5.625,-11.61 -3.875,-2.73 -7.949,-4.39 -12.594,-4.39 -3.593,0 -7.14,0.5 -11.422,1.5 -1.433,0.5 -2.386,0.5 -3.218,0.5 -0.953,0 -1.621,-0.67 -2.141,-2 h -2 v 18 h 2 c 1.102,-4.64 3.207,-8.13 6.313,-10.48 3.007,-2.19 6.601,-3.52 10.468,-3.52 2.457,0 4.93,0.77 6.641,2.31 1.578,1.77 2.578,3.4 2.578,5.57 0,2.66 -0.898,4.83 -2.687,6.62 -1.899,1.96 -5.563,4.01 -11.313,6.66 -5.75,2.93 -9.523,5.09 -11.312,7.31 -2.024,2.36 -2.688,4.95 -2.688,8.3 0,4.39 1.531,7.92 4.594,10.84 2.863,3.05 7.023,4.37 11.89,4.37 1.961,0.01 4.711,-0.4 7.766,-1.2 1.926,-0.46 3.352,-0.8 4.031,-0.8 0.532,0.01 1.114,0.12 1.469,0.36 0.102,0.47 0.77,0.8 1.25,1.64 h 2" /><path
         id="path160"
         style="fill:#000000;fill-opacity:1;fill-rule:nonzero;stroke:none"
         d="m 626,2281.98 v -18 h 12.531 v -4 H 626 v -35.06 c 0,-3.48 0.457,-5.87 1.375,-7.09 0.801,-1.17 2.113,-1.83 3.563,-1.83 0.875,0 2.335,0.34 3.453,1.02 0.992,1 1.992,1.67 2.609,2.98 h 3 c -1.375,-3.65 -3.324,-6.39 -5.844,-8.23 -2.562,-1.77 -5.105,-2.77 -7.781,-2.77 -1.93,0 -3.57,0.5 -5.297,1.5 -1.758,1.18 -3.012,2.45 -3.844,4.33 -0.902,1.93 -1.234,4.77 -1.234,8.69 v 36.46 h -9 v 1.9 c 2.301,0.9 4.656,2.32 7.063,4.39 2.382,2.3 4.617,4.53 6.64,7.4 0.797,1.62 2.461,4.28 4.297,8.31 h 1" /><path
         id="path162"
         style="fill:#000000;fill-opacity:1;fill-rule:nonzero;stroke:none"
         d="m 723,2291.98 v -27 h -2 c -0.648,5.33 -1.805,9.56 -3.469,12.71 -1.836,3.26 -4.027,5.66 -7.109,7.51 -3.215,2.12 -6.258,2.78 -9.547,2.78 -4.012,0.01 -6.797,-1.27 -9.234,-3.82 -2.641,-2.28 -3.641,-5.46 -3.641,-8.72 0,-2.31 0.758,-4.76 2.281,-6.81 2.102,-2.9 7.426,-7.05 15.688,-12.07 6.414,-3.95 11.504,-7.22 14.297,-9.37 2.711,-1.89 4.957,-4.7 6.468,-7.63 1.266,-2.78 2.266,-5.99 2.266,-9.18 0,-5.89 -2.297,-11.36 -6.891,-15.77 -4.621,-4.28 -10.484,-6.61 -17.703,-6.61 -2.398,0 -4.39,0.2 -6.39,0.58 -1.196,0.36 -3.653,1.01 -7.391,2.37 -3.949,1.38 -6.109,2.05 -7.109,2.05 -1.133,0 -1.719,-0.33 -2.282,-0.98 -0.632,-0.32 -0.964,-1.99 -1.234,-4.02 h -2 v 27 h 2 c 0.977,-5.78 2.297,-10.11 3.953,-12.98 1.336,-2.55 4.188,-5.27 7.594,-7.18 3.223,-1.84 7.141,-2.84 11.203,-2.84 4.457,0 8.426,1.33 11.156,3.98 2.426,2.68 4.094,5.82 4.094,9.44 0,2.21 -0.484,4.06 -1.453,6.11 -1.152,2.22 -2.477,3.98 -4.516,5.75 -1.386,1.45 -5.187,3.71 -11.437,7.52 -6.438,3.86 -10.93,6.84 -14.063,9.14 -3.304,2.32 -5.496,4.84 -7.109,7.62 -1.758,2.93 -2.422,5.84 -2.422,9.17 0,5.88 2.117,10.79 6.359,14.97 4.129,4.29 9.649,6.28 16.204,6.28 3.906,0.01 8.437,-1.13 13.031,-3.39 1.914,-0.93 3.609,-1.61 4.484,-1.61 0.961,0.01 1.797,0.33 2.422,0.99 0.457,0.67 1.125,2 1.5,4.01 h 2" /><path
         id="path164"
         style="fill:#000000;fill-opacity:1;fill-rule:nonzero;stroke:none"
         d="m 786,2231.22 c -1.437,-7.21 -4.258,-13.04 -8.453,-16.72 -4.383,-3.5 -8.844,-5.5 -13.938,-5.5 -6.265,0 -11.351,2.52 -15.859,7.55 -4.75,5.19 -6.75,11.84 -6.75,20.42 0,8.31 2.469,15.05 7.406,20.23 4.801,5.46 10.864,7.78 17.782,7.78 5.125,0.01 9.453,-1.4 12.796,-4.21 3.016,-2.74 5.016,-5.73 5.016,-8.75 0,-1.17 -0.465,-2.7 -1.391,-3.63 -1.121,-0.73 -2.203,-1.39 -3.859,-1.39 -2.48,0 -3.742,0.74 -4.531,2.23 -1.055,1.08 -1.574,2.39 -1.781,4.69 -0.344,2.34 -0.961,4.08 -2.282,5.3 -1.375,1.44 -3.152,1.76 -5.484,1.76 -3.984,0.01 -6.793,-1.38 -9.094,-4.15 -3.246,-3.6 -4.578,-8.5 -4.578,-14.53 0,-5.91 1.566,-11.56 4.703,-16.25 2.91,-4.39 7.391,-7.05 12.735,-7.05 3.675,0 7.253,1.07 10.296,3.22 1.899,1.97 4.235,4.97 6.266,9.78 l 1,-0.78" /><path
         id="path166"
         style="fill:#000000;fill-opacity:1;fill-rule:nonzero;stroke:none"
         d="m 824,2217.95 c -5.531,-4.29 -9,-6.8 -10.406,-7.47 -2.324,-0.81 -4.383,-1.48 -6.766,-1.48 -4.008,0 -6.805,1.24 -9.219,3.73 -2.609,2.58 -3.609,5.77 -3.609,9.85 0,2.7 0.586,4.78 1.766,6.67 1.347,2.85 4.394,5.05 8.375,7.34 3.941,2.44 10.609,5.11 19.859,8.41 v 2.09 c 0,5.61 -0.855,8.95 -2.562,10.93 -1.856,2.3 -4.188,2.96 -7.438,2.96 -2.469,0.01 -4.43,-0.64 -5.875,-1.92 -1.543,-0.96 -2.25,-2.73 -2.25,-4.39 l 0.125,-3.26 c 0,-1.53 -0.465,-3.07 -1.391,-4 -1.132,-0.75 -2.14,-1.41 -3.64,-1.41 -1.781,0 -2.653,0.5 -3.578,1.5 -1.059,1.18 -1.391,2.39 -1.391,4.14 0,3.44 1.738,6.38 5.219,9.16 3.414,2.86 8.379,4.18 14.672,4.18 4.535,0.01 8.789,-0.8 11.875,-2.4 2.078,-1.07 4.054,-3.11 5.172,-5.69 0.394,-1.65 1.062,-5.12 1.062,-10.31 v -18.25 c 0,-4.9 0.094,-8.27 0.281,-9.42 0.102,-1.13 0.516,-1.94 0.953,-2.33 0.36,-0.25 0.942,-0.58 1.516,-0.58 0.363,0 1.148,0.11 1.609,0.34 0.68,0.66 2.348,1.66 4.641,3.66 v -2.8 c -4.406,-5.2 -8.617,-8.2 -12.625,-8.2 -2.055,0 -3.465,0.68 -4.609,2.03 -1.391,1.68 -1.727,3.66 -1.766,6.92 z m 0,3.61 V 2241 c -5.887,-2.23 -9.687,-3.81 -11.406,-4.73 -3.274,-1.39 -5.278,-3.35 -6.61,-5.13 -1.652,-1.5 -1.984,-3.73 -1.984,-5.84 0,-2.44 0.836,-4.89 2.516,-6.66 1.504,-1.64 3.601,-2.64 5.781,-2.64 2.867,0 6.867,1.85 11.703,5.56" /><path
         id="path168"
         style="fill:#000000;fill-opacity:1;fill-rule:nonzero;stroke:none"
         d="m 863,2253.83 c 6.313,7.49 12.332,11.15 18.063,11.15 2.914,0.01 5.46,-0.73 7.578,-2.18 1.91,-1.39 3.812,-3.87 5.062,-7.22 0.629,-2.19 1.297,-5.9 1.297,-10.74 V 2222 c 0,-3.4 0.266,-5.7 0.797,-6.91 0.148,-0.66 1.094,-1.73 2.031,-2.28 0.66,-0.48 2.66,-0.81 5.172,-0.81 v -2 h -26 v 2 h 1.031 c 2.289,0 3.91,0.38 4.828,1.14 0.641,1.05 1.567,1.88 1.922,3.36 -0.117,0.75 0.219,2.41 0.219,5.5 v 22.02 c 0,5.22 -0.633,8.44 -1.891,10.65 -1.289,2.32 -3.371,3.31 -6.359,3.31 -4.855,0.01 -9.187,-2.53 -13.75,-7.59 V 2222 c 0,-3.62 0.195,-5.87 0.594,-6.72 0.301,-0.9 1.187,-1.97 2.062,-2.5 0.657,-0.45 2.657,-0.78 5.344,-0.78 v -2 h -26 v 2 h 1.156 c 2.633,0 4.5,0.69 5.438,2.08 0.738,1.69 1.406,4.02 1.406,7.92 v 21 c 0,6.21 -0.133,9.98 -0.391,11.33 -0.464,1.58 -0.664,2.28 -1.203,2.78 -0.668,0.8 -1.246,0.77 -2.14,0.77 -1.059,0.03 -2.133,-0.3 -3.485,-0.9 l -0.781,2 15.578,6 H 863 v -11.15" /><path
         id="path170"
         style="fill:#000000;fill-opacity:1;fill-rule:nonzero;stroke:none"
         d="m 923,2253.83 c 6.313,7.49 12.332,11.15 18.063,11.15 2.914,0.01 5.46,-0.73 7.578,-2.18 1.91,-1.39 3.812,-3.87 5.062,-7.22 0.629,-2.19 1.297,-5.9 1.297,-10.74 V 2222 c 0,-3.4 0.266,-5.7 0.797,-6.91 0.148,-0.66 1.094,-1.73 2.031,-2.28 0.66,-0.48 2.66,-0.81 5.172,-0.81 v -2 h -26 v 2 h 1.031 c 2.289,0 3.91,0.38 4.828,1.14 0.641,1.05 1.567,1.88 1.922,3.36 -0.117,0.75 0.219,2.41 0.219,5.5 v 22.02 c 0,5.22 -0.633,8.44 -1.891,10.65 -1.289,2.32 -3.371,3.31 -6.359,3.31 -4.855,0.01 -9.187,-2.53 -13.75,-7.59 V 2222 c 0,-3.62 0.195,-5.87 0.594,-6.72 0.301,-0.9 1.187,-1.97 2.062,-2.5 0.657,-0.45 2.657,-0.78 5.344,-0.78 v -2 h -26 v 2 h 1.156 c 2.633,0 4.5,0.69 5.438,2.08 0.738,1.69 1.406,4.02 1.406,7.92 v 21 c 0,6.21 -0.133,9.98 -0.391,11.33 -0.464,1.58 -0.664,2.28 -1.203,2.78 -0.668,0.8 -1.246,0.77 -2.14,0.77 -1.059,0.03 -2.133,-0.3 -3.485,-0.9 l -0.781,2 15.578,6 H 923 v -11.15" /><path
         id="path172"
         style="fill:#000000;fill-opacity:1;fill-rule:nonzero;stroke:none"
         d="m 977,2243 c -0.043,-7.49 1.875,-13.36 5.75,-17.61 3.625,-4.06 8.43,-6.39 13.672,-6.39 3.348,0 6.518,0.82 9.098,2.45 2.41,1.83 4.74,4.83 6.48,9.55 l 1,-1.09 c -0.81,-5.58 -3.18,-10.5 -7.09,-14.66 -4.21,-3.92 -8.808,-6.25 -14.691,-6.25 -6.461,0 -11.856,2.47 -16.406,7.41 -4.813,5.13 -6.813,11.57 -6.813,19.9 0,9.25 2.332,16.05 7,21.1 4.664,5.25 10.52,7.57 17.563,7.57 5.769,0.01 10.847,-1.99 14.687,-5.98 3.75,-3.99 5.75,-9.32 5.75,-16 z m 0,4 h 24 c -0.19,3.36 -0.59,5.73 -1.187,7.09 -1.219,2.45 -2.356,3.83 -4.219,5.05 -2.063,1.52 -3.821,1.84 -5.86,1.84 -3.382,0.01 -5.937,-1.23 -8.406,-3.7 -2.578,-2.23 -3.914,-5.9 -4.328,-10.28" /><path
         id="path174"
         style="fill:#000000;fill-opacity:1;fill-rule:nonzero;stroke:none"
         d="m 1036,2264.98 v -13.09 c 4.44,8.77 8.99,13.09 13.66,13.09 1.89,0.01 3.86,-0.71 5.25,-2.14 1.09,-1.36 2.09,-3.06 2.09,-4.93 0,-1.63 -0.46,-3.06 -1.39,-4.21 -1.13,-1.04 -2.04,-1.7 -3.33,-1.7 -1.34,0 -2.74,0.83 -4.48,2.48 -2.01,1.84 -3.03,2.5 -3.88,2.5 -1.03,0.01 -1.5,-0.43 -2.34,-1.28 -2,-1.64 -3.67,-4.6 -5.58,-8.59 V 2222 c 0,-2.82 0.39,-4.96 1.19,-6.41 0.47,-0.86 1.5,-1.85 2.87,-2.54 1.35,-0.39 3.35,-1.05 5.94,-1.05 v -2 h -28 v 2 c 2.59,0 4.52,0.43 5.78,1.3 0.67,0.86 1.57,1.62 1.94,3 -0.06,0.9 0.28,2.56 0.28,5.7 v 21 c 0,6.38 -0.12,10.18 -0.34,11.39 -0.44,1.41 -0.64,2.09 -1.25,2.64 -0.75,0.88 -1.36,0.85 -2.25,0.85 -1.13,0.03 -2.29,-0.3 -3.64,-0.9 l -0.52,2 15.63,6 h 2.37" /><path
         id="path176"
         style="fill:#000000;fill-opacity:1;fill-rule:nonzero;stroke:none"
         d="m 1104.5,2264.98 c 1.63,0.01 3.32,-0.63 4.59,-1.9 1.24,-0.97 1.91,-2.81 1.91,-4.6 0,-1.62 -0.64,-3.32 -1.91,-4.59 -1.3,-1.23 -2.8,-1.89 -4.59,-1.89 -1.96,0 -3.32,0.63 -4.59,1.89 -1.58,1.31 -1.91,2.8 -1.91,4.59 0,1.97 0.63,3.32 1.91,4.6 0.97,1.58 2.8,1.9 4.59,1.9 z m -0.03,-42.98 c 1.66,0 3.36,-0.64 4.62,-1.92 1.24,-0.98 1.91,-2.82 1.91,-4.61 0,-1.61 -0.64,-3.31 -1.92,-4.58 -1.31,-1.22 -2.82,-1.89 -4.61,-1.89 -1.94,0 -3.31,0.63 -4.58,1.89 -1.56,1.31 -1.89,2.8 -1.89,4.58 0,1.97 0.63,3.33 1.89,4.61 0.97,1.58 2.8,1.92 4.58,1.92" /><path
         id="path178"
         style="fill:#000000;fill-opacity:1;fill-rule:nonzero;stroke:none"
         d="m 5314.86,1660.69 c 5.24,-1.08 9.67,-3.06 12.42,-5.64 3.72,-3.29 5.72,-8.02 5.72,-13.24 0,-3.9 -1.25,-7.75 -3.73,-11.37 -2.57,-3.44 -5.89,-6.28 -10.21,-7.94 -4.34,-1.5 -10.93,-2.5 -19.81,-2.5 H 5262 v 2 h 2.86 c 2.89,0 5.46,1.06 6.84,3.19 0.63,1.65 1.3,4.32 1.3,8.81 v 51.98 c 0,4.98 -0.54,8.11 -1.62,9.41 -1.59,1.93 -3.64,2.59 -6.52,2.59 H 5262 v 2 h 33.94 c 6.02,0.01 11.41,-0.47 15.23,-1.42 5.72,-1.27 10.2,-3.93 13.25,-7.54 2.91,-3.29 4.58,-7.78 4.58,-12.47 0,-3.87 -1.2,-7.62 -3.58,-10.8 -2.53,-3.09 -5.9,-5.53 -10.56,-7.06 z m -30.86,3.12 c 1.45,-0.21 3.1,-0.48 4.97,-0.62 1.55,0.13 3.92,-0.21 6.16,-0.21 5.69,0.01 10.05,0.62 12.93,1.86 2.87,1.3 4.93,3.16 6.13,5.72 1.14,2.72 1.81,5.38 1.81,8.42 0,4.71 -1.85,8.71 -5.55,12.02 -3.84,3.32 -9.07,4.98 -16.17,4.98 -3.9,0.01 -7.23,-0.43 -10.28,-1.29 z m 0,-38.22 c 4.63,-0.93 9.21,-1.59 13.73,-1.59 7,0 12.76,1.6 16.57,4.81 3.7,3.28 5.7,7.19 5.7,11.92 0,3.21 -0.96,6.11 -2.87,8.99 -1.95,2.97 -4.77,5.14 -8.58,6.8 -3.99,1.81 -8.51,2.48 -14.13,2.48 -2.58,0 -4.52,-0.04 -6.25,-0.12 -1.78,-0.04 -3.11,-0.22 -4.17,-0.41 v -32.88" /><path
         id="path180"
         style="fill:#000000;fill-opacity:1;fill-rule:nonzero;stroke:none"
         d="m 5374,1627.95 c -5.53,-4.29 -9,-6.8 -10.41,-7.47 -2.32,-0.81 -4.38,-1.48 -6.76,-1.48 -4.01,0 -6.81,1.24 -9.22,3.73 -2.61,2.58 -3.61,5.77 -3.61,9.85 0,2.7 0.59,4.78 1.77,6.67 1.34,2.85 4.39,5.05 8.37,7.34 3.94,2.44 10.61,5.11 19.86,8.41 v 2.09 c 0,5.61 -0.86,8.95 -2.56,10.93 -1.86,2.3 -4.19,2.96 -7.44,2.96 -2.47,0.01 -4.43,-0.64 -5.87,-1.92 -1.55,-0.96 -2.25,-2.73 -2.25,-4.39 l 0.12,-3.26 c 0,-1.53 -0.46,-3.07 -1.39,-4 -1.13,-0.75 -2.14,-1.41 -3.64,-1.41 -1.78,0 -2.65,0.5 -3.58,1.5 -1.06,1.18 -1.39,2.39 -1.39,4.14 0,3.44 1.74,6.38 5.22,9.16 3.41,2.86 8.38,4.18 14.67,4.18 4.54,0.01 8.79,-0.8 11.88,-2.4 2.07,-1.07 4.05,-3.11 5.17,-5.69 0.39,-1.65 1.06,-5.12 1.06,-10.31 v -18.25 c 0,-4.9 0.09,-8.27 0.28,-9.42 0.1,-1.13 0.52,-1.94 0.95,-2.33 0.36,-0.25 0.95,-0.58 1.52,-0.58 0.36,0 1.15,0.11 1.61,0.34 0.68,0.66 2.35,1.66 4.64,3.66 v -2.8 c -4.41,-5.2 -8.62,-8.2 -12.62,-8.2 -2.06,0 -3.47,0.68 -4.61,2.03 -1.39,1.68 -1.73,3.66 -1.77,6.92 z m 0,3.61 V 1651 c -5.89,-2.23 -9.69,-3.81 -11.41,-4.73 -3.27,-1.39 -5.27,-3.35 -6.61,-5.13 -1.65,-1.5 -1.98,-3.73 -1.98,-5.84 0,-2.44 0.84,-4.89 2.52,-6.66 1.5,-1.64 3.6,-2.64 5.78,-2.64 2.86,0 6.86,1.85 11.7,5.56" /><path
         id="path182"
         style="fill:#000000;fill-opacity:1;fill-rule:nonzero;stroke:none"
         d="m 5412,1663.83 c 6.31,7.49 12.33,11.15 18.06,11.15 2.92,0.01 5.46,-0.73 7.58,-2.18 1.91,-1.39 3.81,-3.87 5.06,-7.22 0.63,-2.19 1.3,-5.9 1.3,-10.74 V 1632 c 0,-3.4 0.27,-5.7 0.8,-6.91 0.15,-0.66 1.09,-1.73 2.03,-2.28 0.66,-0.48 2.66,-0.81 5.17,-0.81 v -2 h -26 v 2 h 1.03 c 2.29,0 3.91,0.38 4.83,1.14 0.64,1.05 1.57,1.88 1.92,3.36 -0.12,0.75 0.22,2.41 0.22,5.5 v 22.02 c 0,5.22 -0.63,8.44 -1.89,10.65 -1.29,2.32 -3.37,3.31 -6.36,3.31 -4.86,0.01 -9.19,-2.53 -13.75,-7.59 V 1632 c 0,-3.62 0.2,-5.87 0.59,-6.72 0.3,-0.9 1.19,-1.97 2.07,-2.5 0.65,-0.45 2.65,-0.78 5.34,-0.78 v -2 h -26 v 2 h 1.16 c 2.63,0 4.5,0.69 5.43,2.08 0.74,1.69 1.41,4.02 1.41,7.92 v 21 c 0,6.21 -0.13,9.98 -0.39,11.33 -0.47,1.58 -0.66,2.28 -1.2,2.78 -0.67,0.8 -1.25,0.77 -2.14,0.77 -1.06,0.03 -2.14,-0.3 -3.49,-0.9 l -0.78,2 15.58,6 h 2.42 v -11.15" /><path
         id="path184"
         style="fill:#000000;fill-opacity:1;fill-rule:nonzero;stroke:none"
         d="m 5488,1627.95 c -5.53,-4.29 -9,-6.8 -10.41,-7.47 -2.32,-0.81 -4.38,-1.48 -6.76,-1.48 -4.01,0 -6.81,1.24 -9.22,3.73 -2.61,2.58 -3.61,5.77 -3.61,9.85 0,2.7 0.59,4.78 1.77,6.67 1.34,2.85 4.39,5.05 8.37,7.34 3.94,2.44 10.61,5.11 19.86,8.41 v 2.09 c 0,5.61 -0.86,8.95 -2.56,10.93 -1.86,2.3 -4.19,2.96 -7.44,2.96 -2.47,0.01 -4.43,-0.64 -5.87,-1.92 -1.55,-0.96 -2.25,-2.73 -2.25,-4.39 l 0.12,-3.26 c 0,-1.53 -0.46,-3.07 -1.39,-4 -1.13,-0.75 -2.14,-1.41 -3.64,-1.41 -1.78,0 -2.65,0.5 -3.58,1.5 -1.06,1.18 -1.39,2.39 -1.39,4.14 0,3.44 1.74,6.38 5.22,9.16 3.41,2.86 8.38,4.18 14.67,4.18 4.54,0.01 8.79,-0.8 11.88,-2.4 2.07,-1.07 4.05,-3.11 5.17,-5.69 0.39,-1.65 1.06,-5.12 1.06,-10.31 v -18.25 c 0,-4.9 0.09,-8.27 0.28,-9.42 0.1,-1.13 0.52,-1.94 0.95,-2.33 0.36,-0.25 0.95,-0.58 1.52,-0.58 0.36,0 1.15,0.11 1.61,0.34 0.68,0.66 2.35,1.66 4.64,3.66 v -2.8 c -4.41,-5.2 -8.62,-8.2 -12.62,-8.2 -2.06,0 -3.47,0.68 -4.61,2.03 -1.39,1.68 -1.73,3.66 -1.77,6.92 z m 0,3.61 V 1651 c -5.89,-2.23 -9.69,-3.81 -11.41,-4.73 -3.27,-1.39 -5.27,-3.35 -6.61,-5.13 -1.65,-1.5 -1.98,-3.73 -1.98,-5.84 0,-2.44 0.84,-4.89 2.52,-6.66 1.5,-1.64 3.6,-2.64 5.78,-2.64 2.86,0 6.86,1.85 11.7,5.56" /><path
         id="path186"
         style="fill:#000000;fill-opacity:1;fill-rule:nonzero;stroke:none"
         d="m 5526,1663.83 c 6.31,7.49 12.33,11.15 18.06,11.15 2.92,0.01 5.46,-0.73 7.58,-2.18 1.91,-1.39 3.81,-3.87 5.06,-7.22 0.63,-2.19 1.3,-5.9 1.3,-10.74 V 1632 c 0,-3.4 0.27,-5.7 0.8,-6.91 0.15,-0.66 1.09,-1.73 2.03,-2.28 0.66,-0.48 2.66,-0.81 5.17,-0.81 v -2 h -26 v 2 h 1.03 c 2.29,0 3.91,0.38 4.83,1.14 0.64,1.05 1.57,1.88 1.92,3.36 -0.12,0.75 0.22,2.41 0.22,5.5 v 22.02 c 0,5.22 -0.63,8.44 -1.89,10.65 -1.29,2.32 -3.37,3.31 -6.36,3.31 -4.86,0.01 -9.19,-2.53 -13.75,-7.59 V 1632 c 0,-3.62 0.2,-5.87 0.59,-6.72 0.3,-0.9 1.19,-1.97 2.07,-2.5 0.65,-0.45 2.65,-0.78 5.34,-0.78 v -2 h -26 v 2 h 1.16 c 2.63,0 4.5,0.69 5.43,2.08 0.74,1.69 1.41,4.02 1.41,7.92 v 21 c 0,6.21 -0.13,9.98 -0.39,11.33 -0.47,1.58 -0.66,2.28 -1.2,2.78 -0.67,0.8 -1.25,0.77 -2.14,0.77 -1.06,0.03 -2.14,-0.3 -3.49,-0.9 l -0.78,2 15.58,6 h 2.42 v -11.15" /><path
         id="path188"
         style="fill:#000000;fill-opacity:1;fill-rule:nonzero;stroke:none"
         d="m 5601,1627.95 c -5.53,-4.29 -9,-6.8 -10.41,-7.47 -2.32,-0.81 -4.38,-1.48 -6.76,-1.48 -4.01,0 -6.81,1.24 -9.22,3.73 -2.61,2.58 -3.61,5.77 -3.61,9.85 0,2.7 0.59,4.78 1.77,6.67 1.34,2.85 4.39,5.05 8.37,7.34 3.94,2.44 10.61,5.11 19.86,8.41 v 2.09 c 0,5.61 -0.86,8.95 -2.56,10.93 -1.86,2.3 -4.19,2.96 -7.44,2.96 -2.47,0.01 -4.43,-0.64 -5.87,-1.92 -1.55,-0.96 -2.25,-2.73 -2.25,-4.39 l 0.12,-3.26 c 0,-1.53 -0.46,-3.07 -1.39,-4 -1.13,-0.75 -2.14,-1.41 -3.64,-1.41 -1.78,0 -2.65,0.5 -3.58,1.5 -1.06,1.18 -1.39,2.39 -1.39,4.14 0,3.44 1.74,6.38 5.22,9.16 3.41,2.86 8.38,4.18 14.67,4.18 4.54,0.01 8.79,-0.8 11.88,-2.4 2.07,-1.07 4.05,-3.11 5.17,-5.69 0.39,-1.65 1.06,-5.12 1.06,-10.31 v -18.25 c 0,-4.9 0.09,-8.27 0.28,-9.42 0.1,-1.13 0.52,-1.94 0.95,-2.33 0.36,-0.25 0.95,-0.58 1.52,-0.58 0.36,0 1.15,0.11 1.61,0.34 0.68,0.66 2.35,1.66 4.64,3.66 v -2.8 c -4.41,-5.2 -8.62,-8.2 -12.62,-8.2 -2.06,0 -3.47,0.68 -4.61,2.03 -1.39,1.68 -1.73,3.66 -1.77,6.92 z m 0,3.61 V 1651 c -5.89,-2.23 -9.69,-3.81 -11.41,-4.73 -3.27,-1.39 -5.27,-3.35 -6.61,-5.13 -1.65,-1.5 -1.98,-3.73 -1.98,-5.84 0,-2.44 0.84,-4.89 2.52,-6.66 1.5,-1.64 3.6,-2.64 5.78,-2.64 2.86,0 6.86,1.85 11.7,5.56" /><path
         id="path190"
         style="fill:#000000;fill-opacity:1;fill-rule:nonzero;stroke:none"
         d="m 444,1435.98 v -33 h 14 c 3.52,0.01 6.098,0.79 7.734,2.38 1.391,1.8 2.723,4.46 3.266,8.62 h 2 V 1388 h -2 c -0.043,3.04 -0.469,5.27 -1.281,6.7 -1.043,1.53 -1.922,2.5 -3.36,3.22 -1.546,0.74 -3.546,1.08 -6.359,1.08 h -14 v -25 c 0,-4.06 0.242,-6.75 0.734,-8.05 0.129,-0.96 1.161,-1.82 2.36,-2.53 1.613,-0.76 3.363,-1.42 5.156,-1.42 H 455 v -2 h -33 v 2 h 2.719 c 2.937,0 5.484,0.96 6.922,2.89 0.691,1.3 1.359,4.3 1.359,9.11 v 51.98 c 0,4.07 -0.246,6.75 -0.734,8.05 -0.465,1.3 -1.153,1.82 -2.328,2.53 -1.938,1.1 -3.368,1.42 -5.219,1.42 H 422 v 2 h 59 l 1,-17 h -3 c -0.867,3.68 -1.871,6.38 -3.016,8.1 -1.464,2.02 -2.714,2.96 -4.734,3.73 -2.094,0.85 -5.133,1.17 -9.359,1.17 H 444" /><path
         id="path192"
         style="fill:#000000;fill-opacity:1;fill-rule:nonzero;stroke:none"
         d="m 506,1414.98 v -13.09 c 4.438,8.77 8.988,13.09 13.656,13.09 1.895,0.01 3.864,-0.71 5.25,-2.14 1.094,-1.36 2.094,-3.06 2.094,-4.93 0,-1.63 -0.465,-3.06 -1.391,-4.21 -1.132,-1.04 -2.039,-1.7 -3.328,-1.7 -1.343,0 -2.746,0.83 -4.484,2.48 -2.008,1.84 -3.031,2.5 -3.875,2.5 -1.027,0.01 -1.5,-0.43 -2.344,-1.28 -1.996,-1.64 -3.664,-4.6 -5.578,-8.59 V 1372 c 0,-2.82 0.395,-4.96 1.188,-6.41 0.476,-0.86 1.5,-1.85 2.875,-2.54 1.351,-0.39 3.351,-1.05 5.937,-1.05 v -2 h -28 v 2 c 2.594,0 4.52,0.43 5.781,1.3 0.664,0.86 1.571,1.62 1.938,3 -0.055,0.9 0.281,2.56 0.281,5.7 v 21 c 0,6.38 -0.117,10.18 -0.344,11.39 -0.437,1.41 -0.636,2.09 -1.25,2.64 -0.742,0.88 -1.355,0.85 -2.25,0.85 -1.125,0.03 -2.289,-0.3 -3.64,-0.9 l -0.516,2 15.625,6 H 506" /><path
         id="path194"
         style="fill:#000000;fill-opacity:1;fill-rule:nonzero;stroke:none"
         d="M 578,1413.98 V 1381 c 0,-6.16 0.129,-9.92 0.391,-11.3 0.129,-1.27 0.675,-2.34 1.25,-2.89 0.359,-0.48 1.238,-0.81 2,-0.81 0.859,0 2.281,0.33 3.625,1 l 0.734,-2 -15.453,-6 H 568 v 11.16 c -4.617,-4.63 -8.137,-8 -10.562,-9.27 -2.575,-1.22 -4.997,-1.89 -7.704,-1.89 -3.257,0 -5.625,0.87 -7.843,2.61 -2.508,1.88 -3.746,3.99 -4.61,6.73 -0.949,2.96 -1.281,6.62 -1.281,11.63 v 24.01 c 0,2.47 -0.242,4.16 -0.719,5.11 -0.574,1.25 -1.195,1.68 -2.14,2.19 -0.996,0.75 -2.664,0.74 -5.141,0.7 v 2 h 18 v -35.82 c 0,-4.71 0.859,-8.27 2.578,-9.83 1.535,-1.33 3.813,-2.33 6.25,-2.33 1.379,0 3.535,0.52 5.641,1.58 1.957,1.19 4.625,3.05 7.531,6.01 v 30.39 c 0,3.09 -0.523,5.17 -1.562,6.25 -1.18,1.34 -3.18,1.67 -6.438,1.75 v 2 h 18" /><path
         id="path196"
         style="fill:#000000;fill-opacity:1;fill-rule:nonzero;stroke:none"
         d="m 604.531,1443.98 c 1.614,0.01 3.317,-0.63 4.578,-1.89 1.223,-0.96 1.891,-2.79 1.891,-4.57 0,-1.64 -0.633,-3.33 -1.891,-4.61 -1.296,-1.25 -2.789,-1.93 -4.578,-1.93 -1.968,0.01 -3.328,0.65 -4.609,1.93 -1.59,1.31 -1.922,2.81 -1.922,4.61 0,1.95 0.629,3.31 1.891,4.57 0.961,1.57 2.804,1.89 4.64,1.89 z m 5.469,-29 V 1372 c 0,-3.36 0.238,-5.59 0.719,-6.7 0.238,-0.87 1.187,-1.94 2.125,-2.49 0.664,-0.48 2.664,-0.81 5.156,-0.81 v -2 h -26 v 2 c 2.551,0 4.266,0.25 5.141,0.75 0.828,0.59 1.566,1.35 2.078,2.52 0.445,1.42 0.781,3.42 0.781,6.73 v 21 c 0,5.91 -0.156,9.74 -0.469,11.48 -0.418,1.45 -0.621,2.15 -1.14,2.65 -0.653,0.78 -1.231,0.75 -2.125,0.75 -1.059,0.03 -2.149,-0.3 -3.532,-0.9 l -0.734,2 15.531,6 H 610" /><path
         id="path198"
         style="fill:#000000;fill-opacity:1;fill-rule:nonzero;stroke:none"
         d="m 639,1431.98 v -18 h 12.531 v -4 H 639 v -35.06 c 0,-3.48 0.457,-5.87 1.375,-7.09 0.801,-1.17 2.113,-1.83 3.563,-1.83 0.875,0 2.335,0.34 3.453,1.02 0.992,1 1.992,1.67 2.609,2.98 h 3 c -1.375,-3.65 -3.324,-6.39 -5.844,-8.23 -2.562,-1.77 -5.105,-2.77 -7.781,-2.77 -1.93,0 -3.57,0.5 -5.297,1.5 -1.758,1.18 -3.012,2.45 -3.844,4.33 -0.902,1.93 -1.234,4.77 -1.234,8.69 v 36.46 h -9 v 1.9 c 2.301,0.9 4.656,2.32 7.063,4.39 2.382,2.3 4.617,4.53 6.64,7.4 0.797,1.62 2.461,4.28 4.297,8.31 h 1" /><path
         id="path200"
         style="fill:#000000;fill-opacity:1;fill-rule:nonzero;stroke:none"
         d="M 693,1414.98 V 1397 h -2 c -1.5,5.41 -3.43,9.1 -5.781,11.05 -2.418,2.27 -5.336,2.93 -8.969,2.93 -2.855,0.01 -5.008,-0.69 -6.703,-2.09 -1.883,-1.35 -2.547,-2.92 -2.547,-4.61 0,-1.84 0.629,-3.87 1.891,-5.37 0.922,-1.52 3.703,-3.18 7.453,-4.91 l 8.64,-3.98 c 7.68,-3.48 12.016,-8.81 12.016,-15.02 0,-4.8 -1.875,-8.67 -5.625,-11.61 -3.875,-2.73 -7.949,-4.39 -12.594,-4.39 -3.593,0 -7.14,0.5 -11.422,1.5 -1.433,0.5 -2.386,0.5 -3.218,0.5 -0.953,0 -1.621,-0.67 -2.141,-2 h -2 v 18 h 2 c 1.102,-4.64 3.207,-8.13 6.313,-10.48 3.007,-2.19 6.601,-3.52 10.468,-3.52 2.457,0 4.93,0.77 6.641,2.31 1.578,1.77 2.578,3.4 2.578,5.57 0,2.66 -0.898,4.83 -2.687,6.62 -1.899,1.96 -5.563,4.01 -11.313,6.66 -5.75,2.93 -9.523,5.09 -11.312,7.31 -2.024,2.36 -2.688,4.95 -2.688,8.3 0,4.39 1.531,7.92 4.594,10.84 2.863,3.05 7.023,4.37 11.89,4.37 1.961,0.01 4.711,-0.4 7.766,-1.2 1.926,-0.46 3.352,-0.8 4.031,-0.8 0.532,0.01 1.114,0.12 1.469,0.36 0.102,0.47 0.77,0.8 1.25,1.64 h 2" /><path
         id="path202"
         style="fill:#000000;fill-opacity:1;fill-rule:nonzero;stroke:none"
         d="m 5334.27,1261.98 c 10.39,0.01 19.55,-3.96 27.21,-11.87 7.52,-7.62 11.52,-17.8 11.52,-29.64 0,-12.02 -3.87,-22.33 -11.61,-30.39 -7.86,-7.75 -17.09,-12.08 -28.06,-12.08 -11.22,0 -20.44,3.93 -28,11.78 -7.67,7.94 -11.33,18.04 -11.33,30.52 0,12.98 4.36,23.15 13.09,31.2 7.54,7.16 16.63,10.48 27.18,10.48 z m -1.13,-4 c -7.44,0.01 -13.33,-2.68 -17.8,-8.04 -5.68,-6.67 -8.34,-16.47 -8.34,-29.35 0,-13.06 2.88,-23.36 8.66,-30.48 4.2,-5.11 10.27,-8.11 17.54,-8.11 7.68,0 14.15,2.96 19.21,8.89 4.92,5.96 7.59,15.27 7.59,28.03 0,13.86 -2.78,24.15 -8.34,30.96 -4.69,5.44 -10.64,8.1 -18.52,8.1" /><path
         id="path204"
         style="fill:#000000;fill-opacity:1;fill-rule:nonzero;stroke:none"
         d="m 5396,1251.98 v -18 h 12.53 v -4 H 5396 v -35.06 c 0,-3.48 0.46,-5.87 1.38,-7.09 0.8,-1.17 2.11,-1.83 3.56,-1.83 0.87,0 2.33,0.34 3.45,1.02 0.99,1 1.99,1.67 2.61,2.98 h 3 c -1.37,-3.65 -3.32,-6.39 -5.84,-8.23 -2.57,-1.77 -5.11,-2.77 -7.78,-2.77 -1.93,0 -3.58,0.5 -5.3,1.5 -1.76,1.18 -3.01,2.45 -3.85,4.33 -0.9,1.93 -1.23,4.77 -1.23,8.69 v 36.46 h -9 v 1.9 c 2.3,0.9 4.66,2.32 7.06,4.39 2.39,2.3 4.62,4.53 6.64,7.4 0.8,1.62 2.46,4.28 4.3,8.31 h 1" /><path
         id="path206"
         style="fill:#000000;fill-opacity:1;fill-rule:nonzero;stroke:none"
         d="m 5429,1263.98 v -40.09 c 4.36,4.77 7.83,7.76 10.39,9.09 2.43,1.34 5.12,2 7.67,2 3.05,0.01 5.71,-0.84 7.91,-2.51 1.88,-1.5 3.84,-4.31 4.91,-7.89 0.45,-2.34 1.12,-7.03 1.12,-13.66 V 1192 c 0,-3.4 0.27,-5.71 0.83,-6.95 0.11,-0.62 1.05,-1.69 1.98,-2.24 0.68,-0.48 2.68,-0.81 5.19,-0.81 v -2 h -26 v 2 h 1.14 c 2.25,0 3.9,0.38 4.8,1.14 0.59,1.05 1.54,1.88 1.9,3.36 -0.18,0.79 0.16,2.46 0.16,5.5 v 18.97 c 0,5.86 -0.3,9.69 -0.91,11.51 -0.63,2.01 -1.57,3.21 -2.9,4.13 -1.39,1.05 -2.92,1.37 -4.78,1.37 -2.06,0.01 -3.92,-0.51 -5.99,-1.53 -2.2,-0.82 -4.54,-3.04 -7.42,-6.11 V 1192 c 0,-3.67 0.19,-5.95 0.56,-6.84 0.2,-0.62 1.09,-1.65 2.11,-2.25 0.81,-0.58 2.81,-0.91 5.33,-0.91 v -2 h -26 v 2 c 2.32,0 4.15,0.37 5.48,1.11 0.6,0.69 1.37,1.13 1.83,2.22 0.35,1.31 0.69,3.31 0.69,6.67 v 49.98 c 0,6.15 -0.13,9.91 -0.39,11.32 -0.47,1.64 -0.66,2.36 -1.2,2.86 -0.67,0.79 -1.25,0.76 -2.14,0.76 -0.82,0.03 -1.91,-0.31 -3.54,-0.94 l -0.73,2 15.41,6 h 2.59" /><path
         id="path208"
         style="fill:#000000;fill-opacity:1;fill-rule:nonzero;stroke:none"
         d="m 5483,1213 c -0.04,-7.49 1.88,-13.36 5.75,-17.61 3.63,-4.06 8.43,-6.39 13.67,-6.39 3.35,0 6.52,0.82 9.1,2.45 2.41,1.83 4.74,4.83 6.48,9.55 l 1,-1.09 c -0.81,-5.58 -3.18,-10.5 -7.09,-14.66 -4.21,-3.92 -8.81,-6.25 -14.69,-6.25 -6.46,0 -11.86,2.47 -16.41,7.41 -4.81,5.13 -6.81,11.57 -6.81,19.9 0,9.25 2.33,16.05 7,21.1 4.66,5.25 10.52,7.57 17.56,7.57 5.77,0.01 10.85,-1.99 14.69,-5.98 3.75,-3.99 5.75,-9.32 5.75,-16 z m 0,4 h 24 c -0.19,3.36 -0.59,5.73 -1.19,7.09 -1.22,2.45 -2.35,3.83 -4.22,5.05 -2.06,1.52 -3.82,1.84 -5.86,1.84 -3.38,0.01 -5.93,-1.23 -8.4,-3.7 -2.58,-2.23 -3.92,-5.9 -4.33,-10.28" /><path
         id="path210"
         style="fill:#000000;fill-opacity:1;fill-rule:nonzero;stroke:none"
         d="m 5542,1234.98 v -13.09 c 4.44,8.77 8.99,13.09 13.66,13.09 1.89,0.01 3.86,-0.71 5.25,-2.14 1.09,-1.36 2.09,-3.06 2.09,-4.93 0,-1.63 -0.46,-3.06 -1.39,-4.21 -1.13,-1.04 -2.04,-1.7 -3.33,-1.7 -1.34,0 -2.74,0.83 -4.48,2.48 -2.01,1.84 -3.03,2.5 -3.88,2.5 -1.03,0.01 -1.5,-0.43 -2.34,-1.28 -2,-1.64 -3.67,-4.6 -5.58,-8.59 V 1192 c 0,-2.82 0.39,-4.96 1.19,-6.41 0.47,-0.86 1.5,-1.85 2.87,-2.54 1.35,-0.39 3.35,-1.05 5.94,-1.05 v -2 h -28 v 2 c 2.59,0 4.52,0.43 5.78,1.3 0.67,0.86 1.57,1.62 1.94,3 -0.06,0.9 0.28,2.56 0.28,5.7 v 21 c 0,6.38 -0.12,10.18 -0.34,11.39 -0.44,1.41 -0.64,2.09 -1.25,2.64 -0.75,0.88 -1.36,0.85 -2.25,0.85 -1.13,0.03 -2.29,-0.3 -3.64,-0.9 l -0.52,2 15.63,6 h 2.37" /><g
         transform="scale(0.999609,-1.00039)"
         id="g212"><path
           id="path214"
           style="fill:none;stroke:#000000;stroke-width:15.62069988;stroke-linecap:butt;stroke-linejoin:miter;stroke-miterlimit:4;stroke-dasharray:none;stroke-opacity:1"
           d="m 3199.83,-1177.72 369.49,-600.8 369.49,600.8 z" /></g><g
         transform="matrix(0.998041,-0.00156941,-0.00156819,-0.998822,0,0)"
         id="g216"><path
           id="path218"
           style="fill:none;stroke:#000000;stroke-width:15.64519978;stroke-linecap:butt;stroke-linejoin:miter;stroke-miterlimit:4;stroke-dasharray:none;stroke-opacity:1"
           d="m 3699.65,-1559.71 841.03,-1.33" /></g><g
         transform="matrix(0.998041,-0.00156941,-0.00156819,-0.998822,0,0)"
         id="g220"><path
           id="path222"
           style="fill:none;stroke:#000000;stroke-width:15.64519978;stroke-linecap:butt;stroke-linejoin:miter;stroke-miterlimit:4;stroke-dasharray:none;stroke-opacity:1"
           d="m 3808.82,-1401.52 732.11,-1.15" /></g><path
         id="path224"
         style="fill:#000000;fill-opacity:1;fill-rule:nonzero;stroke:none"
         d="m 2134.86,1910.69 c 5.24,-1.08 9.67,-3.06 12.42,-5.64 3.72,-3.29 5.72,-8.02 5.72,-13.24 0,-3.9 -1.25,-7.75 -3.73,-11.37 -2.57,-3.44 -5.89,-6.28 -10.21,-7.94 -4.34,-1.5 -10.93,-2.5 -19.81,-2.5 H 2082 v 2 h 2.86 c 2.89,0 5.46,1.06 6.84,3.19 0.63,1.65 1.3,4.32 1.3,8.81 v 51.98 c 0,4.98 -0.54,8.11 -1.62,9.41 -1.59,1.93 -3.64,2.59 -6.52,2.59 H 2082 v 2 h 33.94 c 6.02,0.01 11.41,-0.47 15.23,-1.42 5.72,-1.27 10.2,-3.93 13.25,-7.54 2.91,-3.29 4.58,-7.78 4.58,-12.47 0,-3.87 -1.2,-7.62 -3.58,-10.8 -2.53,-3.09 -5.9,-5.53 -10.56,-7.06 z m -30.86,3.12 c 1.45,-0.21 3.1,-0.48 4.97,-0.62 1.55,0.13 3.92,-0.21 6.16,-0.21 5.69,0.01 10.05,0.62 12.93,1.86 2.87,1.3 4.93,3.16 6.13,5.72 1.14,2.72 1.81,5.38 1.81,8.42 0,4.71 -1.85,8.71 -5.55,12.02 -3.84,3.32 -9.07,4.98 -16.17,4.98 -3.9,0.01 -7.23,-0.43 -10.28,-1.29 z m 0,-38.22 c 4.63,-0.93 9.21,-1.59 13.73,-1.59 7,0 12.76,1.6 16.57,4.81 3.7,3.28 5.7,7.19 5.7,11.92 0,3.21 -0.96,6.11 -2.87,8.99 -1.95,2.97 -4.77,5.14 -8.58,6.8 -3.99,1.81 -8.51,2.48 -14.13,2.48 -2.58,0 -4.52,-0.04 -6.25,-0.12 -1.78,-0.04 -3.11,-0.22 -4.17,-0.41 v -32.88" /><path
         id="path226"
         style="fill:#000000;fill-opacity:1;fill-rule:nonzero;stroke:none"
         d="m 2194,1877.95 c -5.53,-4.29 -9,-6.8 -10.41,-7.47 -2.32,-0.81 -4.38,-1.48 -6.76,-1.48 -4.01,0 -6.81,1.24 -9.22,3.73 -2.61,2.58 -3.61,5.77 -3.61,9.85 0,2.7 0.59,4.78 1.77,6.67 1.34,2.85 4.39,5.05 8.37,7.34 3.94,2.44 10.61,5.11 19.86,8.41 v 2.09 c 0,5.61 -0.86,8.95 -2.56,10.93 -1.86,2.3 -4.19,2.96 -7.44,2.96 -2.47,0.01 -4.43,-0.64 -5.87,-1.92 -1.55,-0.96 -2.25,-2.73 -2.25,-4.39 l 0.12,-3.26 c 0,-1.53 -0.46,-3.07 -1.39,-4 -1.13,-0.75 -2.14,-1.41 -3.64,-1.41 -1.78,0 -2.65,0.5 -3.58,1.5 -1.06,1.18 -1.39,2.39 -1.39,4.14 0,3.44 1.74,6.38 5.22,9.16 3.41,2.86 8.38,4.18 14.67,4.18 4.54,0.01 8.79,-0.8 11.88,-2.4 2.07,-1.07 4.05,-3.11 5.17,-5.69 0.39,-1.65 1.06,-5.12 1.06,-10.31 v -18.25 c 0,-4.9 0.09,-8.27 0.28,-9.42 0.1,-1.13 0.52,-1.94 0.95,-2.33 0.36,-0.25 0.95,-0.58 1.52,-0.58 0.36,0 1.15,0.11 1.61,0.34 0.68,0.66 2.35,1.66 4.64,3.66 v -2.8 c -4.41,-5.2 -8.62,-8.2 -12.62,-8.2 -2.06,0 -3.47,0.68 -4.61,2.03 -1.39,1.68 -1.73,3.66 -1.77,6.92 z m 0,3.61 V 1901 c -5.89,-2.23 -9.69,-3.81 -11.41,-4.73 -3.27,-1.39 -5.27,-3.35 -6.61,-5.13 -1.65,-1.5 -1.98,-3.73 -1.98,-5.84 0,-2.44 0.84,-4.89 2.52,-6.66 1.5,-1.64 3.6,-2.64 5.78,-2.64 2.86,0 6.86,1.85 11.7,5.56" /><path
         id="path228"
         style="fill:#000000;fill-opacity:1;fill-rule:nonzero;stroke:none"
         d="m 2232,1913.83 c 6.31,7.49 12.33,11.15 18.06,11.15 2.92,0.01 5.46,-0.73 7.58,-2.18 1.91,-1.39 3.81,-3.87 5.06,-7.22 0.63,-2.19 1.3,-5.9 1.3,-10.74 V 1882 c 0,-3.4 0.27,-5.7 0.8,-6.91 0.15,-0.66 1.09,-1.73 2.03,-2.28 0.66,-0.48 2.66,-0.81 5.17,-0.81 v -2 h -26 v 2 h 1.03 c 2.29,0 3.91,0.38 4.83,1.14 0.64,1.05 1.57,1.88 1.92,3.36 -0.12,0.75 0.22,2.41 0.22,5.5 v 22.02 c 0,5.22 -0.63,8.44 -1.89,10.65 -1.29,2.32 -3.37,3.31 -6.36,3.31 -4.86,0.01 -9.19,-2.53 -13.75,-7.59 V 1882 c 0,-3.62 0.2,-5.87 0.59,-6.72 0.3,-0.9 1.19,-1.97 2.07,-2.5 0.65,-0.45 2.65,-0.78 5.34,-0.78 v -2 h -26 v 2 h 1.16 c 2.63,0 4.5,0.69 5.43,2.08 0.74,1.69 1.41,4.02 1.41,7.92 v 21 c 0,6.21 -0.13,9.98 -0.39,11.33 -0.47,1.58 -0.66,2.28 -1.2,2.78 -0.67,0.8 -1.25,0.77 -2.14,0.77 -1.06,0.03 -2.14,-0.3 -3.49,-0.9 l -0.78,2 15.58,6 h 2.42 v -11.15" /><path
         id="path230"
         style="fill:#000000;fill-opacity:1;fill-rule:nonzero;stroke:none"
         d="m 2308,1877.95 c -5.53,-4.29 -9,-6.8 -10.41,-7.47 -2.32,-0.81 -4.38,-1.48 -6.76,-1.48 -4.01,0 -6.81,1.24 -9.22,3.73 -2.61,2.58 -3.61,5.77 -3.61,9.85 0,2.7 0.59,4.78 1.77,6.67 1.34,2.85 4.39,5.05 8.37,7.34 3.94,2.44 10.61,5.11 19.86,8.41 v 2.09 c 0,5.61 -0.86,8.95 -2.56,10.93 -1.86,2.3 -4.19,2.96 -7.44,2.96 -2.47,0.01 -4.43,-0.64 -5.87,-1.92 -1.55,-0.96 -2.25,-2.73 -2.25,-4.39 l 0.12,-3.26 c 0,-1.53 -0.46,-3.07 -1.39,-4 -1.13,-0.75 -2.14,-1.41 -3.64,-1.41 -1.78,0 -2.65,0.5 -3.58,1.5 -1.06,1.18 -1.39,2.39 -1.39,4.14 0,3.44 1.74,6.38 5.22,9.16 3.41,2.86 8.38,4.18 14.67,4.18 4.54,0.01 8.79,-0.8 11.88,-2.4 2.07,-1.07 4.05,-3.11 5.17,-5.69 0.39,-1.65 1.06,-5.12 1.06,-10.31 v -18.25 c 0,-4.9 0.09,-8.27 0.28,-9.42 0.1,-1.13 0.52,-1.94 0.95,-2.33 0.36,-0.25 0.95,-0.58 1.52,-0.58 0.36,0 1.15,0.11 1.61,0.34 0.68,0.66 2.35,1.66 4.64,3.66 v -2.8 c -4.41,-5.2 -8.62,-8.2 -12.62,-8.2 -2.06,0 -3.47,0.68 -4.61,2.03 -1.39,1.68 -1.73,3.66 -1.77,6.92 z m 0,3.61 V 1901 c -5.89,-2.23 -9.69,-3.81 -11.41,-4.73 -3.27,-1.39 -5.27,-3.35 -6.61,-5.13 -1.65,-1.5 -1.98,-3.73 -1.98,-5.84 0,-2.44 0.84,-4.89 2.52,-6.66 1.5,-1.64 3.6,-2.64 5.78,-2.64 2.86,0 6.86,1.85 11.7,5.56" /><path
         id="path232"
         style="fill:#000000;fill-opacity:1;fill-rule:nonzero;stroke:none"
         d="m 2346,1913.83 c 6.31,7.49 12.33,11.15 18.06,11.15 2.92,0.01 5.46,-0.73 7.58,-2.18 1.91,-1.39 3.81,-3.87 5.06,-7.22 0.63,-2.19 1.3,-5.9 1.3,-10.74 V 1882 c 0,-3.4 0.27,-5.7 0.8,-6.91 0.15,-0.66 1.09,-1.73 2.03,-2.28 0.66,-0.48 2.66,-0.81 5.17,-0.81 v -2 h -26 v 2 h 1.03 c 2.29,0 3.91,0.38 4.83,1.14 0.64,1.05 1.57,1.88 1.92,3.36 -0.12,0.75 0.22,2.41 0.22,5.5 v 22.02 c 0,5.22 -0.63,8.44 -1.89,10.65 -1.29,2.32 -3.37,3.31 -6.36,3.31 -4.86,0.01 -9.19,-2.53 -13.75,-7.59 V 1882 c 0,-3.62 0.2,-5.87 0.59,-6.72 0.3,-0.9 1.19,-1.97 2.07,-2.5 0.65,-0.45 2.65,-0.78 5.34,-0.78 v -2 h -26 v 2 h 1.16 c 2.63,0 4.5,0.69 5.43,2.08 0.74,1.69 1.41,4.02 1.41,7.92 v 21 c 0,6.21 -0.13,9.98 -0.39,11.33 -0.47,1.58 -0.66,2.28 -1.2,2.78 -0.67,0.8 -1.25,0.77 -2.14,0.77 -1.06,0.03 -2.14,-0.3 -3.49,-0.9 l -0.78,2 15.58,6 h 2.42 v -11.15" /><path
         id="path234"
         style="fill:#000000;fill-opacity:1;fill-rule:nonzero;stroke:none"
         d="m 2421,1877.95 c -5.53,-4.29 -9,-6.8 -10.41,-7.47 -2.32,-0.81 -4.38,-1.48 -6.76,-1.48 -4.01,0 -6.81,1.24 -9.22,3.73 -2.61,2.58 -3.61,5.77 -3.61,9.85 0,2.7 0.59,4.78 1.77,6.67 1.34,2.85 4.39,5.05 8.37,7.34 3.94,2.44 10.61,5.11 19.86,8.41 v 2.09 c 0,5.61 -0.86,8.95 -2.56,10.93 -1.86,2.3 -4.19,2.96 -7.44,2.96 -2.47,0.01 -4.43,-0.64 -5.87,-1.92 -1.55,-0.96 -2.25,-2.73 -2.25,-4.39 l 0.12,-3.26 c 0,-1.53 -0.46,-3.07 -1.39,-4 -1.13,-0.75 -2.14,-1.41 -3.64,-1.41 -1.78,0 -2.65,0.5 -3.58,1.5 -1.06,1.18 -1.39,2.39 -1.39,4.14 0,3.44 1.74,6.38 5.22,9.16 3.41,2.86 8.38,4.18 14.67,4.18 4.54,0.01 8.79,-0.8 11.88,-2.4 2.07,-1.07 4.05,-3.11 5.17,-5.69 0.39,-1.65 1.06,-5.12 1.06,-10.31 v -18.25 c 0,-4.9 0.09,-8.27 0.28,-9.42 0.1,-1.13 0.52,-1.94 0.95,-2.33 0.36,-0.25 0.95,-0.58 1.52,-0.58 0.36,0 1.15,0.11 1.61,0.34 0.68,0.66 2.35,1.66 4.64,3.66 v -2.8 c -4.41,-5.2 -8.62,-8.2 -12.62,-8.2 -2.06,0 -3.47,0.68 -4.61,2.03 -1.39,1.68 -1.73,3.66 -1.77,6.92 z m 0,3.61 V 1901 c -5.89,-2.23 -9.69,-3.81 -11.41,-4.73 -3.27,-1.39 -5.27,-3.35 -6.61,-5.13 -1.65,-1.5 -1.98,-3.73 -1.98,-5.84 0,-2.44 0.84,-4.89 2.52,-6.66 1.5,-1.64 3.6,-2.64 5.78,-2.64 2.86,0 6.86,1.85 11.7,5.56" /><path
         id="path236"
         style="fill:#000000;fill-opacity:1;fill-rule:nonzero;stroke:none"
         d="m 2523,1951.98 v -27 h -2 c -0.65,5.33 -1.8,9.56 -3.47,12.71 -1.83,3.26 -4.03,5.66 -7.11,7.51 -3.21,2.12 -6.26,2.78 -9.54,2.78 -4.02,0.01 -6.8,-1.27 -9.24,-3.82 -2.64,-2.28 -3.64,-5.46 -3.64,-8.72 0,-2.31 0.76,-4.76 2.28,-6.81 2.1,-2.9 7.43,-7.05 15.69,-12.07 6.41,-3.95 11.5,-7.22 14.3,-9.37 2.71,-1.89 4.95,-4.7 6.46,-7.63 1.27,-2.78 2.27,-5.99 2.27,-9.18 0,-5.89 -2.3,-11.36 -6.89,-15.77 -4.62,-4.28 -10.48,-6.61 -17.7,-6.61 -2.4,0 -4.39,0.2 -6.39,0.58 -1.2,0.36 -3.66,1.01 -7.39,2.37 -3.95,1.38 -6.11,2.05 -7.11,2.05 -1.14,0 -1.72,-0.33 -2.29,-0.98 -0.63,-0.32 -0.96,-1.99 -1.23,-4.02 h -2 v 27 h 2 c 0.98,-5.78 2.3,-10.11 3.95,-12.98 1.34,-2.55 4.19,-5.27 7.6,-7.18 3.22,-1.84 7.14,-2.84 11.2,-2.84 4.46,0 8.43,1.33 11.16,3.98 2.42,2.68 4.09,5.82 4.09,9.44 0,2.21 -0.48,4.06 -1.45,6.11 -1.16,2.22 -2.48,3.98 -4.52,5.75 -1.39,1.45 -5.19,3.71 -11.44,7.52 -6.43,3.86 -10.93,6.84 -14.06,9.14 -3.3,2.32 -5.49,4.84 -7.11,7.62 -1.76,2.93 -2.42,5.84 -2.42,9.17 0,5.88 2.12,10.79 6.36,14.97 4.13,4.29 9.65,6.28 16.2,6.28 3.91,0.01 8.44,-1.13 13.03,-3.39 1.92,-0.93 3.61,-1.61 4.49,-1.61 0.96,0.01 1.8,0.33 2.42,0.99 0.46,0.67 1.13,2 1.5,4.01 h 2" /><path
         id="path238"
         style="fill:#000000;fill-opacity:1;fill-rule:nonzero;stroke:none"
         d="m 2556,1953.98 v -40.09 c 4.36,4.77 7.83,7.76 10.39,9.09 2.43,1.34 5.12,2 7.67,2 3.05,0.01 5.71,-0.84 7.91,-2.51 1.88,-1.5 3.84,-4.31 4.91,-7.89 0.45,-2.34 1.12,-7.03 1.12,-13.66 V 1882 c 0,-3.4 0.27,-5.71 0.83,-6.95 0.11,-0.62 1.05,-1.69 1.98,-2.24 0.68,-0.48 2.68,-0.81 5.19,-0.81 v -2 h -26 v 2 h 1.14 c 2.25,0 3.9,0.38 4.8,1.14 0.59,1.05 1.54,1.88 1.9,3.36 -0.18,0.79 0.16,2.46 0.16,5.5 v 18.97 c 0,5.86 -0.3,9.69 -0.91,11.51 -0.63,2.01 -1.57,3.21 -2.9,4.13 -1.39,1.05 -2.92,1.37 -4.78,1.37 -2.06,0.01 -3.92,-0.51 -5.99,-1.53 -2.2,-0.82 -4.54,-3.04 -7.42,-6.11 V 1882 c 0,-3.67 0.19,-5.95 0.56,-6.84 0.2,-0.62 1.09,-1.65 2.11,-2.25 0.81,-0.58 2.81,-0.91 5.33,-0.91 v -2 h -26 v 2 c 2.32,0 4.15,0.37 5.48,1.11 0.6,0.69 1.37,1.13 1.83,2.22 0.35,1.31 0.69,3.31 0.69,6.67 v 49.98 c 0,6.15 -0.13,9.91 -0.39,11.32 -0.47,1.64 -0.66,2.36 -1.2,2.86 -0.67,0.79 -1.25,0.76 -2.14,0.76 -0.82,0.03 -1.91,-0.31 -3.54,-0.94 l -0.73,2 15.41,6 h 2.59" /><path
         id="path240"
         style="fill:#000000;fill-opacity:1;fill-rule:nonzero;stroke:none"
         d="m 2631,1877.95 c -5.53,-4.29 -9,-6.8 -10.41,-7.47 -2.32,-0.81 -4.38,-1.48 -6.76,-1.48 -4.01,0 -6.81,1.24 -9.22,3.73 -2.61,2.58 -3.61,5.77 -3.61,9.85 0,2.7 0.59,4.78 1.77,6.67 1.34,2.85 4.39,5.05 8.37,7.34 3.94,2.44 10.61,5.11 19.86,8.41 v 2.09 c 0,5.61 -0.86,8.95 -2.56,10.93 -1.86,2.3 -4.19,2.96 -7.44,2.96 -2.47,0.01 -4.43,-0.64 -5.87,-1.92 -1.55,-0.96 -2.25,-2.73 -2.25,-4.39 l 0.12,-3.26 c 0,-1.53 -0.46,-3.07 -1.39,-4 -1.13,-0.75 -2.14,-1.41 -3.64,-1.41 -1.78,0 -2.65,0.5 -3.58,1.5 -1.06,1.18 -1.39,2.39 -1.39,4.14 0,3.44 1.74,6.38 5.22,9.16 3.41,2.86 8.38,4.18 14.67,4.18 4.54,0.01 8.79,-0.8 11.88,-2.4 2.07,-1.07 4.05,-3.11 5.17,-5.69 0.39,-1.65 1.06,-5.12 1.06,-10.31 v -18.25 c 0,-4.9 0.09,-8.27 0.28,-9.42 0.1,-1.13 0.52,-1.94 0.95,-2.33 0.36,-0.25 0.95,-0.58 1.52,-0.58 0.36,0 1.15,0.11 1.61,0.34 0.68,0.66 2.35,1.66 4.64,3.66 v -2.8 c -4.41,-5.2 -8.62,-8.2 -12.62,-8.2 -2.06,0 -3.47,0.68 -4.61,2.03 -1.39,1.68 -1.73,3.66 -1.77,6.92 z m 0,3.61 V 1901 c -5.89,-2.23 -9.69,-3.81 -11.41,-4.73 -3.27,-1.39 -5.27,-3.35 -6.61,-5.13 -1.65,-1.5 -1.98,-3.73 -1.98,-5.84 0,-2.44 0.84,-4.89 2.52,-6.66 1.5,-1.64 3.6,-2.64 5.78,-2.64 2.86,0 6.86,1.85 11.7,5.56" /><path
         id="path242"
         style="fill:#000000;fill-opacity:1;fill-rule:nonzero;stroke:none"
         d="m 2651,1918.98 15.86,6 h 2.14 v -12.18 c 2.75,4.58 5.51,7.66 8.28,9.47 2.69,2.05 5.7,2.71 8.77,2.71 5.33,0.01 9.81,-2.07 13.37,-6.23 4.24,-4.98 6.58,-11.67 6.58,-19.81 0,-9.1 -2.64,-16.65 -7.91,-22.61 -4.37,-4.67 -9.81,-7.33 -16.4,-7.33 -3.11,0 -5.36,0.45 -7.46,1.34 -1.63,0.87 -3.29,1.93 -5.23,3.86 V 1856 c 0,-3.58 0.2,-5.86 0.59,-6.83 0.2,-0.69 1.09,-1.74 2.07,-2.31 0.75,-0.52 2.75,-0.86 5.34,-0.86 v -2 h -28 v 2 h 1.58 c 2.11,-0.04 4.27,0.34 5.9,1.16 0.63,0.68 1.41,1.06 1.85,1.97 0.33,1.18 0.67,3.18 0.67,6.87 v 53 c 0,3.22 -0.14,5.26 -0.42,6.13 -0.47,1.16 -0.72,1.53 -1.33,1.98 -0.69,0.75 -1.42,0.69 -2.45,0.69 -1.1,0.06 -1.89,-0.28 -3.17,-0.82 z m 18,-9.56 v -19.64 c 0,-4.18 0.18,-7.05 0.53,-8.39 0.38,-2.01 1.9,-4.17 4.03,-5.86 1.96,-1.53 4.85,-2.53 8.11,-2.53 3.71,0 7.11,1.49 9.55,4.48 3.11,4.08 4.78,9.4 4.78,16.49 0,8.05 -1.81,14.22 -5.42,18.55 -2.72,3.14 -5.51,4.46 -8.97,4.46 -2.09,0.01 -3.75,-0.46 -5.59,-1.37 -1.43,-0.56 -3.76,-2.75 -7.02,-6.19" /><path
         id="path244"
         style="fill:#000000;fill-opacity:1;fill-rule:nonzero;stroke:none"
         d="m 2723,1903 c -0.04,-7.49 1.88,-13.36 5.75,-17.61 3.63,-4.06 8.43,-6.39 13.67,-6.39 3.35,0 6.52,0.82 9.1,2.45 2.41,1.83 4.74,4.83 6.48,9.55 l 1,-1.09 c -0.81,-5.58 -3.18,-10.5 -7.09,-14.66 -4.21,-3.92 -8.81,-6.25 -14.69,-6.25 -6.46,0 -11.86,2.47 -16.41,7.41 -4.81,5.13 -6.81,11.57 -6.81,19.9 0,9.25 2.33,16.05 7,21.1 4.66,5.25 10.52,7.57 17.56,7.57 5.77,0.01 10.85,-1.99 14.69,-5.98 3.75,-3.99 5.75,-9.32 5.75,-16 z m 0,4 h 24 c -0.19,3.36 -0.59,5.73 -1.19,7.09 -1.22,2.45 -2.35,3.83 -4.22,5.05 -2.06,1.52 -3.82,1.84 -5.86,1.84 -3.38,0.01 -5.93,-1.23 -8.4,-3.7 -2.58,-2.23 -3.92,-5.9 -4.33,-10.28" /><path
         id="path246"
         style="fill:#000000;fill-opacity:1;fill-rule:nonzero;stroke:none"
         d="m 2791,1889 h -2 c 0.21,4.85 0.79,8.87 1.73,12.05 0.71,3.49 3.09,7.59 6.41,13.25 2.39,4.58 4.02,7.72 4.75,10.09 0.44,2.59 1.11,4.8 1.11,7.24 0,5.12 -1.37,8.97 -4.09,11.92 -3.03,3.11 -6.08,4.43 -10.03,4.43 -3.82,0.01 -6.3,-0.81 -8.32,-2.43 -2.21,-1.47 -3.03,-3.38 -3.03,-5.28 -0.18,-1.22 0.58,-3.26 1.74,-5.39 1.06,-2.09 1.73,-3.75 1.73,-4.85 0,-1.1 -0.45,-2.62 -1.33,-3.59 -1.11,-0.78 -1.97,-1.46 -3.25,-1.46 -1.76,0.01 -3.09,0.84 -4.42,2.52 -1.34,1.85 -2,4.03 -2,7.03 0,4.74 1.89,8.63 5.67,12.16 3.56,3.63 8.91,5.29 15.39,5.29 8.01,0.01 13.94,-2.41 17.72,-7.23 2.55,-3.45 4.22,-7.45 4.22,-11.75 0,-2.93 -0.63,-5.94 -1.89,-9.03 -1.3,-3.09 -3.66,-6.65 -7.19,-10.66 -5.93,-6.08 -9.12,-10.79 -10.47,-13.42 -1.49,-2.6 -2.16,-6.26 -2.45,-10.89 z m -0.53,-7 c 1.66,0 3.36,-0.64 4.62,-1.91 1.24,-0.96 1.91,-2.8 1.91,-4.62 0,-1.61 -0.64,-3.31 -1.92,-4.58 -1.31,-1.22 -2.82,-1.89 -4.61,-1.89 -1.94,0 -3.31,0.63 -4.58,1.89 -1.56,1.31 -1.89,2.8 -1.89,4.58 0,2 0.63,3.36 1.89,4.62 0.97,1.57 2.8,1.91 4.58,1.91" /><path
         id="path248"
         style="fill:#000000;fill-opacity:1;fill-rule:nonzero;stroke:none"
         d="m 3321.86,1910.69 c 5.24,-1.08 9.67,-3.06 12.42,-5.64 3.72,-3.29 5.72,-8.02 5.72,-13.24 0,-3.9 -1.25,-7.75 -3.73,-11.37 -2.57,-3.44 -5.89,-6.28 -10.21,-7.94 -4.34,-1.5 -10.93,-2.5 -19.81,-2.5 H 3269 v 2 h 2.86 c 2.89,0 5.46,1.06 6.84,3.19 0.63,1.65 1.3,4.32 1.3,8.81 v 51.98 c 0,4.98 -0.54,8.11 -1.62,9.41 -1.59,1.93 -3.64,2.59 -6.52,2.59 H 3269 v 2 h 33.94 c 6.02,0.01 11.41,-0.47 15.23,-1.42 5.72,-1.27 10.2,-3.93 13.25,-7.54 2.91,-3.29 4.58,-7.78 4.58,-12.47 0,-3.87 -1.2,-7.62 -3.58,-10.8 -2.53,-3.09 -5.9,-5.53 -10.56,-7.06 z m -30.86,3.12 c 1.45,-0.21 3.1,-0.48 4.97,-0.62 1.55,0.13 3.92,-0.21 6.16,-0.21 5.69,0.01 10.05,0.62 12.93,1.86 2.87,1.3 4.93,3.16 6.13,5.72 1.14,2.72 1.81,5.38 1.81,8.42 0,4.71 -1.85,8.71 -5.55,12.02 -3.84,3.32 -9.07,4.98 -16.17,4.98 -3.9,0.01 -7.23,-0.43 -10.28,-1.29 z m 0,-38.22 c 4.63,-0.93 9.21,-1.59 13.73,-1.59 7,0 12.76,1.6 16.57,4.81 3.7,3.28 5.7,7.19 5.7,11.92 0,3.21 -0.96,6.11 -2.87,8.99 -1.95,2.97 -4.77,5.14 -8.58,6.8 -3.99,1.81 -8.51,2.48 -14.13,2.48 -2.58,0 -4.52,-0.04 -6.25,-0.12 -1.78,-0.04 -3.11,-0.22 -4.17,-0.41 v -32.88" /><path
         id="path250"
         style="fill:#000000;fill-opacity:1;fill-rule:nonzero;stroke:none"
         d="m 3382,1877.95 c -5.53,-4.29 -9,-6.8 -10.41,-7.47 -2.32,-0.81 -4.38,-1.48 -6.76,-1.48 -4.01,0 -6.81,1.24 -9.22,3.73 -2.61,2.58 -3.61,5.77 -3.61,9.85 0,2.7 0.59,4.78 1.77,6.67 1.34,2.85 4.39,5.05 8.37,7.34 3.94,2.44 10.61,5.11 19.86,8.41 v 2.09 c 0,5.61 -0.86,8.95 -2.56,10.93 -1.86,2.3 -4.19,2.96 -7.44,2.96 -2.47,0.01 -4.43,-0.64 -5.87,-1.92 -1.55,-0.96 -2.25,-2.73 -2.25,-4.39 l 0.12,-3.26 c 0,-1.53 -0.46,-3.07 -1.39,-4 -1.13,-0.75 -2.14,-1.41 -3.64,-1.41 -1.78,0 -2.65,0.5 -3.58,1.5 -1.06,1.18 -1.39,2.39 -1.39,4.14 0,3.44 1.74,6.38 5.22,9.16 3.41,2.86 8.38,4.18 14.67,4.18 4.54,0.01 8.79,-0.8 11.88,-2.4 2.07,-1.07 4.05,-3.11 5.17,-5.69 0.39,-1.65 1.06,-5.12 1.06,-10.31 v -18.25 c 0,-4.9 0.09,-8.27 0.28,-9.42 0.1,-1.13 0.52,-1.94 0.95,-2.33 0.36,-0.25 0.95,-0.58 1.52,-0.58 0.36,0 1.15,0.11 1.61,0.34 0.68,0.66 2.35,1.66 4.64,3.66 v -2.8 c -4.41,-5.2 -8.62,-8.2 -12.62,-8.2 -2.06,0 -3.47,0.68 -4.61,2.03 -1.39,1.68 -1.73,3.66 -1.77,6.92 z m 0,3.61 V 1901 c -5.89,-2.23 -9.69,-3.81 -11.41,-4.73 -3.27,-1.39 -5.27,-3.35 -6.61,-5.13 -1.65,-1.5 -1.98,-3.73 -1.98,-5.84 0,-2.44 0.84,-4.89 2.52,-6.66 1.5,-1.64 3.6,-2.64 5.78,-2.64 2.86,0 6.86,1.85 11.7,5.56" /><path
         id="path252"
         style="fill:#000000;fill-opacity:1;fill-rule:nonzero;stroke:none"
         d="m 3420,1913.83 c 6.31,7.49 12.33,11.15 18.06,11.15 2.92,0.01 5.46,-0.73 7.58,-2.18 1.91,-1.39 3.81,-3.87 5.06,-7.22 0.63,-2.19 1.3,-5.9 1.3,-10.74 V 1882 c 0,-3.4 0.27,-5.7 0.8,-6.91 0.15,-0.66 1.09,-1.73 2.03,-2.28 0.66,-0.48 2.66,-0.81 5.17,-0.81 v -2 h -26 v 2 h 1.03 c 2.29,0 3.91,0.38 4.83,1.14 0.64,1.05 1.57,1.88 1.92,3.36 -0.12,0.75 0.22,2.41 0.22,5.5 v 22.02 c 0,5.22 -0.63,8.44 -1.89,10.65 -1.29,2.32 -3.37,3.31 -6.36,3.31 -4.86,0.01 -9.19,-2.53 -13.75,-7.59 V 1882 c 0,-3.62 0.2,-5.87 0.59,-6.72 0.3,-0.9 1.19,-1.97 2.07,-2.5 0.65,-0.45 2.65,-0.78 5.34,-0.78 v -2 h -26 v 2 h 1.16 c 2.63,0 4.5,0.69 5.43,2.08 0.74,1.69 1.41,4.02 1.41,7.92 v 21 c 0,6.21 -0.13,9.98 -0.39,11.33 -0.47,1.58 -0.66,2.28 -1.2,2.78 -0.67,0.8 -1.25,0.77 -2.14,0.77 -1.06,0.03 -2.14,-0.3 -3.49,-0.9 l -0.78,2 15.58,6 h 2.42 v -11.15" /><path
         id="path254"
         style="fill:#000000;fill-opacity:1;fill-rule:nonzero;stroke:none"
         d="m 3495,1877.95 c -5.53,-4.29 -9,-6.8 -10.41,-7.47 -2.32,-0.81 -4.38,-1.48 -6.76,-1.48 -4.01,0 -6.81,1.24 -9.22,3.73 -2.61,2.58 -3.61,5.77 -3.61,9.85 0,2.7 0.59,4.78 1.77,6.67 1.34,2.85 4.39,5.05 8.37,7.34 3.94,2.44 10.61,5.11 19.86,8.41 v 2.09 c 0,5.61 -0.86,8.95 -2.56,10.93 -1.86,2.3 -4.19,2.96 -7.44,2.96 -2.47,0.01 -4.43,-0.64 -5.87,-1.92 -1.55,-0.96 -2.25,-2.73 -2.25,-4.39 l 0.12,-3.26 c 0,-1.53 -0.46,-3.07 -1.39,-4 -1.13,-0.75 -2.14,-1.41 -3.64,-1.41 -1.78,0 -2.65,0.5 -3.58,1.5 -1.06,1.18 -1.39,2.39 -1.39,4.14 0,3.44 1.74,6.38 5.22,9.16 3.41,2.86 8.38,4.18 14.67,4.18 4.54,0.01 8.79,-0.8 11.88,-2.4 2.07,-1.07 4.05,-3.11 5.17,-5.69 0.39,-1.65 1.06,-5.12 1.06,-10.31 v -18.25 c 0,-4.9 0.09,-8.27 0.28,-9.42 0.1,-1.13 0.52,-1.94 0.95,-2.33 0.36,-0.25 0.95,-0.58 1.52,-0.58 0.36,0 1.15,0.11 1.61,0.34 0.68,0.66 2.35,1.66 4.64,3.66 v -2.8 c -4.41,-5.2 -8.62,-8.2 -12.62,-8.2 -2.06,0 -3.47,0.68 -4.61,2.03 -1.39,1.68 -1.73,3.66 -1.77,6.92 z m 0,3.61 V 1901 c -5.89,-2.23 -9.69,-3.81 -11.41,-4.73 -3.27,-1.39 -5.27,-3.35 -6.61,-5.13 -1.65,-1.5 -1.98,-3.73 -1.98,-5.84 0,-2.44 0.84,-4.89 2.52,-6.66 1.5,-1.64 3.6,-2.64 5.78,-2.64 2.86,0 6.86,1.85 11.7,5.56" /><path
         id="path256"
         style="fill:#000000;fill-opacity:1;fill-rule:nonzero;stroke:none"
         d="m 3533,1913.83 c 6.31,7.49 12.33,11.15 18.06,11.15 2.92,0.01 5.46,-0.73 7.58,-2.18 1.91,-1.39 3.81,-3.87 5.06,-7.22 0.63,-2.19 1.3,-5.9 1.3,-10.74 V 1882 c 0,-3.4 0.27,-5.7 0.8,-6.91 0.15,-0.66 1.09,-1.73 2.03,-2.28 0.66,-0.48 2.66,-0.81 5.17,-0.81 v -2 h -26 v 2 h 1.03 c 2.29,0 3.91,0.38 4.83,1.14 0.64,1.05 1.57,1.88 1.92,3.36 -0.12,0.75 0.22,2.41 0.22,5.5 v 22.02 c 0,5.22 -0.63,8.44 -1.89,10.65 -1.29,2.32 -3.37,3.31 -6.36,3.31 -4.86,0.01 -9.19,-2.53 -13.75,-7.59 V 1882 c 0,-3.62 0.2,-5.87 0.59,-6.72 0.3,-0.9 1.19,-1.97 2.07,-2.5 0.65,-0.45 2.65,-0.78 5.34,-0.78 v -2 h -26 v 2 h 1.16 c 2.63,0 4.5,0.69 5.43,2.08 0.74,1.69 1.41,4.02 1.41,7.92 v 21 c 0,6.21 -0.13,9.98 -0.39,11.33 -0.47,1.58 -0.66,2.28 -1.2,2.78 -0.67,0.8 -1.25,0.77 -2.14,0.77 -1.06,0.03 -2.14,-0.3 -3.49,-0.9 l -0.78,2 15.58,6 h 2.42 v -11.15" /><path
         id="path258"
         style="fill:#000000;fill-opacity:1;fill-rule:nonzero;stroke:none"
         d="m 3608,1877.95 c -5.53,-4.29 -9,-6.8 -10.41,-7.47 -2.32,-0.81 -4.38,-1.48 -6.76,-1.48 -4.01,0 -6.81,1.24 -9.22,3.73 -2.61,2.58 -3.61,5.77 -3.61,9.85 0,2.7 0.59,4.78 1.77,6.67 1.34,2.85 4.39,5.05 8.37,7.34 3.94,2.44 10.61,5.11 19.86,8.41 v 2.09 c 0,5.61 -0.86,8.95 -2.56,10.93 -1.86,2.3 -4.19,2.96 -7.44,2.96 -2.47,0.01 -4.43,-0.64 -5.87,-1.92 -1.55,-0.96 -2.25,-2.73 -2.25,-4.39 l 0.12,-3.26 c 0,-1.53 -0.46,-3.07 -1.39,-4 -1.13,-0.75 -2.14,-1.41 -3.64,-1.41 -1.78,0 -2.65,0.5 -3.58,1.5 -1.06,1.18 -1.39,2.39 -1.39,4.14 0,3.44 1.74,6.38 5.22,9.16 3.41,2.86 8.38,4.18 14.67,4.18 4.54,0.01 8.79,-0.8 11.88,-2.4 2.07,-1.07 4.05,-3.11 5.17,-5.69 0.39,-1.65 1.06,-5.12 1.06,-10.31 v -18.25 c 0,-4.9 0.09,-8.27 0.28,-9.42 0.1,-1.13 0.52,-1.94 0.95,-2.33 0.36,-0.25 0.95,-0.58 1.52,-0.58 0.36,0 1.15,0.11 1.61,0.34 0.68,0.66 2.35,1.66 4.64,3.66 v -2.8 c -4.41,-5.2 -8.62,-8.2 -12.62,-8.2 -2.06,0 -3.47,0.68 -4.61,2.03 -1.39,1.68 -1.73,3.66 -1.77,6.92 z m 0,3.61 V 1901 c -5.89,-2.23 -9.69,-3.81 -11.41,-4.73 -3.27,-1.39 -5.27,-3.35 -6.61,-5.13 -1.65,-1.5 -1.98,-3.73 -1.98,-5.84 0,-2.44 0.84,-4.89 2.52,-6.66 1.5,-1.64 3.6,-2.64 5.78,-2.64 2.86,0 6.86,1.85 11.7,5.56" /><path
         id="path260"
         style="fill:#000000;fill-opacity:1;fill-rule:nonzero;stroke:none"
         d="m 3711,1951.98 v -27 h -2 c -0.65,5.33 -1.8,9.56 -3.47,12.71 -1.83,3.26 -4.03,5.66 -7.11,7.51 -3.21,2.12 -6.26,2.78 -9.54,2.78 -4.02,0.01 -6.8,-1.27 -9.24,-3.82 -2.64,-2.28 -3.64,-5.46 -3.64,-8.72 0,-2.31 0.76,-4.76 2.28,-6.81 2.1,-2.9 7.43,-7.05 15.69,-12.07 6.41,-3.95 11.5,-7.22 14.3,-9.37 2.71,-1.89 4.95,-4.7 6.46,-7.63 1.27,-2.78 2.27,-5.99 2.27,-9.18 0,-5.89 -2.3,-11.36 -6.89,-15.77 -4.62,-4.28 -10.48,-6.61 -17.7,-6.61 -2.4,0 -4.39,0.2 -6.39,0.58 -1.2,0.36 -3.66,1.01 -7.39,2.37 -3.95,1.38 -6.11,2.05 -7.11,2.05 -1.14,0 -1.72,-0.33 -2.29,-0.98 -0.63,-0.32 -0.96,-1.99 -1.23,-4.02 h -2 v 27 h 2 c 0.98,-5.78 2.3,-10.11 3.95,-12.98 1.34,-2.55 4.19,-5.27 7.6,-7.18 3.22,-1.84 7.14,-2.84 11.2,-2.84 4.46,0 8.43,1.33 11.16,3.98 2.42,2.68 4.09,5.82 4.09,9.44 0,2.21 -0.48,4.06 -1.45,6.11 -1.16,2.22 -2.48,3.98 -4.52,5.75 -1.39,1.45 -5.19,3.71 -11.44,7.52 -6.43,3.86 -10.93,6.84 -14.06,9.14 -3.3,2.32 -5.49,4.84 -7.11,7.62 -1.76,2.93 -2.42,5.84 -2.42,9.17 0,5.88 2.12,10.79 6.36,14.97 4.13,4.29 9.65,6.28 16.2,6.28 3.91,0.01 8.44,-1.13 13.03,-3.39 1.92,-0.93 3.61,-1.61 4.49,-1.61 0.96,0.01 1.8,0.33 2.42,0.99 0.46,0.67 1.13,2 1.5,4.01 h 2" /><path
         id="path262"
         style="fill:#000000;fill-opacity:1;fill-rule:nonzero;stroke:none"
         d="m 3743,1913.61 c 3.84,4.02 6.11,6.12 6.81,6.7 1.46,1.71 3.6,2.63 5.6,3.44 1.86,0.91 3.98,1.23 5.95,1.23 3.18,0.01 6.14,-0.97 8.53,-2.92 2.09,-1.62 3.99,-4.76 4.8,-8.45 3.72,4.8 7.29,7.73 10.01,9.19 2.5,1.52 5.54,2.18 8.43,2.18 2.75,0.01 5.28,-0.73 7.45,-2.18 1.97,-1.39 3.88,-3.85 5.15,-7.16 0.6,-2.13 1.27,-5.79 1.27,-10.62 V 1882 c 0,-3.36 0.25,-5.66 0.75,-6.91 0.13,-0.55 1.1,-1.58 2.14,-2.18 0.75,-0.58 2.75,-0.91 5.11,-0.91 v -2 h -26 v 2 h 1.03 c 2.11,0 3.78,0.45 4.97,1.34 0.83,0.85 1.43,1.62 1.78,2.99 -0.12,0.89 0.22,2.55 0.22,5.67 v 23.03 c 0,4.69 -0.51,7.44 -1.52,9.22 -1.63,2.74 -3.82,3.73 -7.06,3.73 -2.13,0.01 -3.99,-0.51 -6,-1.54 -2.15,-0.85 -4.45,-2.95 -7.31,-5.74 l -0.11,-0.64 V 1882 c 0,-3.67 0.19,-5.95 0.56,-6.84 0.19,-0.62 1.08,-1.65 2.11,-2.25 0.82,-0.58 2.82,-0.91 5.33,-0.91 v -2 h -26 v 2 c 2.72,0 4.59,0.35 5.61,1.05 0.82,1.02 1.73,1.75 2.12,3.15 -0.07,0.93 0.27,2.6 0.27,5.8 v 23.03 c 0,4.69 -0.62,7.47 -1.86,9.31 -1.69,2.65 -3.95,3.64 -6.92,3.64 -2.09,0.01 -4.03,-0.55 -6.02,-1.65 -3.18,-1.45 -5.51,-3.54 -7.2,-5.63 V 1882 c 0,-3.51 0.22,-5.79 0.67,-6.84 0.22,-0.78 1.11,-1.85 1.99,-2.38 0.65,-0.45 2.65,-0.78 5.34,-0.78 v -2 h -26 v 2 c 2.41,0 4.1,0.26 5.06,0.78 0.94,0.6 1.69,1.37 2.19,2.52 0.41,1.39 0.75,3.39 0.75,6.7 v 21 c 0,5.91 -0.16,9.73 -0.47,11.45 -0.42,1.48 -0.62,2.18 -1.14,2.68 -0.65,0.78 -1.23,0.75 -2.12,0.75 -1.06,0.03 -2.14,-0.3 -3.49,-0.9 l -0.78,2 15.58,6 h 2.42 v -11.37" /><path
         id="path264"
         style="fill:#000000;fill-opacity:1;fill-rule:nonzero;stroke:none"
         d="m 3831,1903 c -0.04,-7.49 1.88,-13.36 5.75,-17.61 3.63,-4.06 8.43,-6.39 13.67,-6.39 3.35,0 6.52,0.82 9.1,2.45 2.41,1.83 4.74,4.83 6.48,9.55 l 1,-1.09 c -0.81,-5.58 -3.18,-10.5 -7.09,-14.66 -4.21,-3.92 -8.81,-6.25 -14.69,-6.25 -6.46,0 -11.86,2.47 -16.41,7.41 -4.81,5.13 -6.81,11.57 -6.81,19.9 0,9.25 2.33,16.05 7,21.1 4.66,5.25 10.52,7.57 17.56,7.57 5.77,0.01 10.85,-1.99 14.69,-5.98 3.75,-3.99 5.75,-9.32 5.75,-16 z m 0,4 h 24 c -0.19,3.36 -0.59,5.73 -1.19,7.09 -1.22,2.45 -2.35,3.83 -4.22,5.05 -2.06,1.52 -3.82,1.84 -5.86,1.84 -3.38,0.01 -5.93,-1.23 -8.4,-3.7 -2.58,-2.23 -3.92,-5.9 -4.33,-10.28" /><path
         id="path266"
         style="fill:#000000;fill-opacity:1;fill-rule:nonzero;stroke:none"
         d="M 3894,1953.98 V 1882 c 0,-3.36 0.22,-5.58 0.67,-6.67 0.22,-0.86 1.14,-1.92 2.08,-2.49 0.69,-0.51 2.69,-0.84 5.25,-0.84 v -2 h -26 v 2 c 2.49,0 4.19,0.25 5.09,0.75 0.88,0.59 1.62,1.35 2.13,2.52 0.44,1.42 0.78,3.42 0.78,6.73 v 49.98 c 0,6.13 -0.12,9.9 -0.37,11.3 -0.45,1.65 -0.64,2.36 -1.19,2.88 -0.69,0.79 -1.23,0.76 -2.06,0.76 -1.05,0.03 -2.08,-0.31 -3.49,-0.94 l -0.89,2 15.45,6 h 2.55" /><path
         id="path268"
         style="fill:#000000;fill-opacity:1;fill-rule:nonzero;stroke:none"
         d="M 3927,1953.98 V 1882 c 0,-3.36 0.22,-5.58 0.67,-6.67 0.22,-0.86 1.14,-1.92 2.08,-2.49 0.69,-0.51 2.69,-0.84 5.25,-0.84 v -2 h -26 v 2 c 2.49,0 4.19,0.25 5.09,0.75 0.88,0.59 1.62,1.35 2.13,2.52 0.44,1.42 0.78,3.42 0.78,6.73 v 49.98 c 0,6.13 -0.12,9.9 -0.37,11.3 -0.45,1.65 -0.64,2.36 -1.19,2.88 -0.69,0.79 -1.23,0.76 -2.06,0.76 -1.05,0.03 -2.08,-0.31 -3.49,-0.94 l -0.89,2 15.45,6 h 2.55" /><path
         id="path270"
         style="fill:#000000;fill-opacity:1;fill-rule:nonzero;stroke:none"
         d="m 3965,1889 h -2 c 0.21,4.85 0.79,8.87 1.73,12.05 0.71,3.49 3.09,7.59 6.41,13.25 2.39,4.58 4.02,7.72 4.75,10.09 0.44,2.59 1.11,4.8 1.11,7.24 0,5.12 -1.37,8.97 -4.09,11.92 -3.03,3.11 -6.08,4.43 -10.03,4.43 -3.82,0.01 -6.3,-0.81 -8.32,-2.43 -2.21,-1.47 -3.03,-3.38 -3.03,-5.28 -0.18,-1.22 0.58,-3.26 1.74,-5.39 1.06,-2.09 1.73,-3.75 1.73,-4.85 0,-1.1 -0.45,-2.62 -1.33,-3.59 -1.11,-0.78 -1.97,-1.46 -3.25,-1.46 -1.76,0.01 -3.09,0.84 -4.42,2.52 -1.34,1.85 -2,4.03 -2,7.03 0,4.74 1.89,8.63 5.67,12.16 3.56,3.63 8.91,5.29 15.39,5.29 8.01,0.01 13.94,-2.41 17.72,-7.23 2.55,-3.45 4.22,-7.45 4.22,-11.75 0,-2.93 -0.63,-5.94 -1.89,-9.03 -1.3,-3.09 -3.66,-6.65 -7.19,-10.66 -5.93,-6.08 -9.12,-10.79 -10.47,-13.42 -1.49,-2.6 -2.16,-6.26 -2.45,-10.89 z m -0.53,-7 c 1.66,0 3.36,-0.64 4.62,-1.91 1.24,-0.96 1.91,-2.8 1.91,-4.62 0,-1.61 -0.64,-3.31 -1.92,-4.58 -1.31,-1.22 -2.82,-1.89 -4.61,-1.89 -1.94,0 -3.31,0.63 -4.58,1.89 -1.56,1.31 -1.89,2.8 -1.89,4.58 0,2 0.63,3.36 1.89,4.62 0.97,1.57 2.8,1.91 4.58,1.91" /><g
         transform="scale(0.999609,-1.00039)"
         id="g272"><path
           id="path274"
           style="fill:none;stroke:#000000;stroke-width:15.62069988;stroke-linecap:butt;stroke-linejoin:miter;stroke-miterlimit:4;stroke-dasharray:none;stroke-opacity:1"
           d="m 3310.38,-417.11 c 0,-8.911 7.31,-16.221 16.22,-16.221 h 485.44 c 8.91,0 16.23,7.31 16.23,16.221 v 64.888 c 0,8.911 -7.32,16.221 -16.23,16.221 H 3326.6 c -8.91,0 -16.22,-7.31 -16.22,-16.221 v -64.888" /></g><path
         id="path276"
         style="fill:#60d836;fill-opacity:1;fill-rule:nonzero;stroke:none"
         d="m 4680.4,1322.25 c 15.44,-40.35 54.89,-45.61 74.26,-34.61 3.29,-1.85 11.53,-7.08 16.74,-15.38 -1.02,-3.76 -1.74,-7.69 -2.22,-11.82 -12.47,9.01 -41.82,23.84 -72.06,-6.73 -38.97,-39.4 1.01,-108.61 20.87,-127.72 16.17,-15.55 39.94,-19.06 57.08,-9.35 17.52,-9.03 41.13,-4.59 56.68,11.59 19.09,19.89 56.3,90.63 15.81,128.47 -30.7,28.67 -58.85,14.07 -71.42,4.53 3.9,17.26 13.87,31.54 30.17,42.42 3.16,2.18 -4.27,8.67 -8.17,5.97 -12.75,-9.6 -20.52,-19.79 -24.91,-31.66 -6.06,7.92 -14,12.63 -16.87,14.17 -1.97,6.58 -8.13,22.39 -23,27.64 -23.48,8.3 -27.58,-7.67 -52.96,2.48 z" /><path
         id="path278"
         style="fill:#000000;fill-opacity:1;fill-rule:nonzero;stroke:none"
         d="m 1311.8,2312.98 h 12.48 l 55.7,-122.98 h -18.01 l -16.49,36 h -52.25 l -15.17,-36 H 1260 Z m 26.61,-71 -19.93,44.02 -18.53,-44.02 h 38.46" /><path
         id="path280"
         style="fill:#000000;fill-opacity:1;fill-rule:nonzero;stroke:none"
         d="m 1451.98,2208 v -15.58 c -8.34,-2.75 -15.84,-4.42 -23.5,-4.42 -12.78,0 -22.69,3.8 -30.21,11.41 -7.61,7.8 -11.27,17.79 -11.27,30.56 0,12.88 3.7,23.26 11.09,31.16 7.37,8.19 17.13,11.85 29.21,11.85 4.11,0.01 7.97,-0.4 11.31,-1.2 3.13,-0.73 7.46,-2.3 12.37,-4.5 v -17.3 c -8.54,6.01 -15.84,9 -22.85,9 -7.38,0.01 -13.36,-2.68 -18.07,-8.03 -4.73,-5.34 -7.06,-12.17 -7.06,-20.45 0,-8.56 2.5,-15.66 7.52,-20.8 4.84,-5.04 11.78,-7.7 20.28,-7.7 5.88,0 13.2,2 21.18,6" /><path
         id="path282"
         style="fill:#000000;fill-opacity:1;fill-rule:nonzero;stroke:none"
         d="m 1459,2258.56 30,29.42 v -17 h 26 v -14 h -26 v -40.71 c 0,-9.27 3.88,-14.27 11.63,-14.27 5.59,0 11.92,2 18.35,6 v -14.84 c -6.5,-3.16 -12.92,-5.16 -20.23,-5.16 -7.62,0 -13.51,2.18 -18.41,6.53 -1.64,1.46 -2.8,2.77 -3.81,4.41 -1.18,1.66 -1.84,3.79 -2.51,6.44 -0.69,2.86 -1.02,7.7 -1.02,15.15 v 36.45 h -14 v 1.58" /><path
         id="path284"
         style="fill:#000000;fill-opacity:1;fill-rule:nonzero;stroke:none"
         d="m 1539.38,2304.98 c 2.51,0.01 4.91,-0.91 6.79,-2.75 1.83,-1.57 2.83,-4.05 2.83,-6.7 0,-2.44 -0.95,-4.83 -2.83,-6.72 -1.94,-1.82 -4.15,-2.83 -6.79,-2.83 -2.61,0.01 -4.67,0.96 -6.55,2.88 -2.17,1.96 -2.83,4.14 -2.83,6.67 0,2.63 0.94,4.66 2.83,6.58 1.61,2.21 4.06,2.87 6.55,2.87 z m -8.38,-34 h 16 V 2190 h -16 v 80.98" /><path
         id="path286"
         style="fill:#000000;fill-opacity:1;fill-rule:nonzero;stroke:none"
         d="m 1620.66,2270.98 h 17.32 l -35,-82.98 h -6.59 l -36.39,82.98 h 17.5 l 22,-50.17 21.16,50.17" /><path
         id="path288"
         style="fill:#000000;fill-opacity:1;fill-rule:nonzero;stroke:none"
         d="M 1713.98,2229 H 1657 c 0.41,-8.25 3.04,-14.81 7.86,-19.69 4.53,-4.65 11.05,-7.31 18.67,-7.31 10.47,0 20.46,3.33 29.45,10 v -15.16 c -5.28,-3.12 -9.87,-5.45 -14.75,-6.81 -4.94,-1.03 -10.57,-2.03 -17.1,-2.03 -9.03,0 -16.25,1.88 -21.8,5.63 -5.67,3.87 -10,8.78 -13.33,15.12 -3.34,6.43 -5,13.68 -5,22.02 0,12.56 3.49,22.64 10.47,30.46 6.83,8.09 16.06,11.75 27.22,11.75 10.5,0.01 19.29,-3.8 25.69,-11.4 6.28,-7.45 9.6,-17.78 9.6,-30.53 z m -56.98,9.98 h 40.98 c -0.74,6.41 -2.33,11.34 -5.75,14.8 -3.49,3.54 -8.01,5.2 -13.79,5.2 -5.94,0.01 -10.53,-1.73 -14.22,-5.2 -3.76,-3.39 -6.09,-8.39 -7.22,-14.8" /></g></g></svg>