<?xml version="1.0" encoding="UTF-8"?>
<svg xmlns="http://www.w3.org/2000/svg" xmlns:xlink="http://www.w3.org/1999/xlink" width="37.501pt" height="38.408pt" viewBox="0 0 37.501 38.408" version="1.1">
<defs>
<clipPath id="clip1">
  <path d="M 0 0.167969 L 37.5 0.167969 L 37.5 38.148438 L 0 38.148438 Z M 0 0.167969 "/>
</clipPath>
<clipPath id="clip2">
  <path d="M 0 0.167969 L 37.5 0.167969 L 37.5 1 L 0 1 Z M 0 0.167969 "/>
</clipPath>
<clipPath id="clip3">
  <path d="M 37 0.167969 L 37.5 0.167969 L 37.5 38.148438 L 37 38.148438 Z M 37 0.167969 "/>
</clipPath>
<clipPath id="clip4">
  <path d="M 0 37 L 37.5 37 L 37.5 38.148438 L 0 38.148438 Z M 0 37 "/>
</clipPath>
<clipPath id="clip5">
  <path d="M 0 0.167969 L 1 0.167969 L 1 38.148438 L 0 38.148438 Z M 0 0.167969 "/>
</clipPath>
<clipPath id="clip6">
  <path d="M 4.855469 5.265625 L 33.652344 5.265625 L 33.652344 34.066406 L 4.855469 34.066406 Z M 4.855469 5.265625 "/>
</clipPath>
<clipPath id="clip7">
  <path d="M 4.855469 5.265625 L 33.652344 5.265625 L 33.652344 6 L 4.855469 6 Z M 4.855469 5.265625 "/>
</clipPath>
<clipPath id="clip8">
  <path d="M 33 5.265625 L 33.652344 5.265625 L 33.652344 34.066406 L 33 34.066406 Z M 33 5.265625 "/>
</clipPath>
<clipPath id="clip9">
  <path d="M 4.855469 33 L 33.652344 33 L 33.652344 34.066406 L 4.855469 34.066406 Z M 4.855469 33 "/>
</clipPath>
<clipPath id="clip10">
  <path d="M 4.855469 5.265625 L 6 5.265625 L 6 34.066406 L 4.855469 34.066406 Z M 4.855469 5.265625 "/>
</clipPath>
</defs>
<g id="surface1">
<g clip-path="url(#clip1)" clip-rule="nonzero">
<path style=" stroke:none;fill-rule:nonzero;fill:rgb(0%,0%,100%);fill-opacity:1;" d="M -0.246094 38.148438 L 37.792969 38.148438 L 37.792969 0.167969 L -0.246094 0.167969 Z M -0.246094 38.148438 "/>
</g>
<g clip-path="url(#clip2)" clip-rule="nonzero">
<path style=" stroke:none;fill-rule:nonzero;fill:rgb(0%,0%,100%);fill-opacity:1;" d="M -0.246094 0.707031 L 37.792969 0.707031 L 37.792969 0.136719 L -0.246094 0.136719 Z M -0.246094 0.707031 "/>
</g>
<g clip-path="url(#clip3)" clip-rule="nonzero">
<path style=" stroke:none;fill-rule:nonzero;fill:rgb(0%,0%,100%);fill-opacity:1;" d="M 37.3125 38.175781 L 37.792969 38.175781 L 37.792969 0.167969 L 37.3125 0.167969 Z M 37.3125 38.175781 "/>
</g>
<g clip-path="url(#clip4)" clip-rule="nonzero">
<path style=" stroke:none;fill-rule:nonzero;fill:rgb(0%,0%,100%);fill-opacity:1;" d="M -0.304688 38.175781 L 37.792969 38.175781 L 37.792969 37.667969 L -0.304688 37.667969 Z M -0.304688 38.175781 "/>
</g>
<g clip-path="url(#clip5)" clip-rule="nonzero">
<path style=" stroke:none;fill-rule:nonzero;fill:rgb(0%,0%,100%);fill-opacity:1;" d="M -0.304688 38.148438 L 0.292969 38.148438 L 0.292969 0.136719 L -0.304688 0.136719 Z M -0.304688 38.148438 "/>
</g>
<g clip-path="url(#clip6)" clip-rule="nonzero">
<path style=" stroke:none;fill-rule:nonzero;fill:rgb(49.598694%,49.598694%,49.598694%);fill-opacity:1;" d="M 4.855469 34.066406 L 33.652344 34.066406 L 33.652344 5.265625 L 4.855469 5.265625 Z M 4.855469 34.066406 "/>
</g>
<g clip-path="url(#clip7)" clip-rule="nonzero">
<path style=" stroke:none;fill-rule:nonzero;fill:rgb(49.598694%,49.598694%,49.598694%);fill-opacity:1;" d="M 4.855469 5.808594 L 33.652344 5.808594 L 33.652344 5.238281 L 4.855469 5.238281 Z M 4.855469 5.808594 "/>
</g>
<g clip-path="url(#clip8)" clip-rule="nonzero">
<path style=" stroke:none;fill-rule:nonzero;fill:rgb(49.598694%,49.598694%,49.598694%);fill-opacity:1;" d="M 33.175781 34.097656 L 33.652344 34.097656 L 33.652344 5.265625 L 33.175781 5.265625 Z M 33.175781 34.097656 "/>
</g>
<g clip-path="url(#clip9)" clip-rule="nonzero">
<path style=" stroke:none;fill-rule:nonzero;fill:rgb(49.598694%,49.598694%,49.598694%);fill-opacity:1;" d="M 4.792969 34.097656 L 33.652344 34.097656 L 33.652344 33.585938 L 4.792969 33.585938 Z M 4.792969 34.097656 "/>
</g>
<g clip-path="url(#clip10)" clip-rule="nonzero">
<path style=" stroke:none;fill-rule:nonzero;fill:rgb(49.598694%,49.598694%,49.598694%);fill-opacity:1;" d="M 4.792969 34.066406 L 5.394531 34.066406 L 5.394531 5.238281 L 4.792969 5.238281 Z M 4.792969 34.066406 "/>
</g>
<path style=" stroke:none;fill-rule:nonzero;fill:rgb(0%,0%,100%);fill-opacity:1;" d="M 8.453125 30.46875 L 30.054688 30.46875 L 30.054688 8.867188 L 8.453125 8.867188 Z M 8.453125 30.46875 "/>
<path style=" stroke:none;fill-rule:nonzero;fill:rgb(0%,0%,100%);fill-opacity:1;" d="M 8.453125 9.40625 L 30.59375 9.40625 L 30.59375 8.386719 L 8.453125 8.386719 Z M 8.453125 9.40625 "/>
<path style=" stroke:none;fill-rule:nonzero;fill:rgb(0%,0%,100%);fill-opacity:1;" d="M 29.574219 31.007813 L 30.59375 31.007813 L 30.59375 8.867188 L 29.574219 8.867188 Z M 29.574219 31.007813 "/>
<path style=" stroke:none;fill-rule:nonzero;fill:rgb(0%,0%,100%);fill-opacity:1;" d="M 7.972656 31.007813 L 30.054688 31.007813 L 30.054688 29.988281 L 7.972656 29.988281 Z M 7.972656 31.007813 "/>
<path style=" stroke:none;fill-rule:nonzero;fill:rgb(0%,0%,100%);fill-opacity:1;" d="M 7.972656 30.46875 L 8.992188 30.46875 L 8.992188 8.386719 L 7.972656 8.386719 Z M 7.972656 30.46875 "/>
<path style=" stroke:none;fill-rule:nonzero;fill:rgb(49.598694%,49.598694%,49.598694%);fill-opacity:1;" d="M 9.894531 28.308594 L 9.535156 28.667969 L 10.253906 29.386719 L 10.613281 29.027344 "/>
<path style=" stroke:none;fill-rule:nonzero;fill:rgb(49.598694%,49.598694%,49.598694%);fill-opacity:1;" d="M 27.894531 10.308594 L 28.253906 9.945313 L 28.972656 10.667969 L 28.613281 11.027344 "/>
<path style=" stroke:none;fill-rule:nonzero;fill:rgb(49.598694%,49.598694%,49.598694%);fill-opacity:1;" d="M 9.894531 28.308594 L 10.613281 29.027344 L 28.613281 11.027344 L 27.894531 10.308594 "/>
<path style=" stroke:none;fill-rule:evenodd;fill:rgb(100%,100%,100%);fill-opacity:1;" d="M 18.113281 17.386719 L 18.113281 17.148438 L 18.054688 16.96875 C 17.597656 15.980469 16.191406 16.101563 16.015625 17.148438 L 15.953125 17.386719 L 16.015625 17.566406 C 16.136719 18.535156 17.46875 18.796875 18.054688 17.808594 L 18.113281 17.566406 L 18.113281 17.386719 "/>
<path style=" stroke:none;fill-rule:nonzero;fill:rgb(100%,100%,100%);fill-opacity:1;" d="M 17.632813 17.386719 L 17.632813 17.148438 L 17.632813 17.328125 L 17.574219 17.148438 L 17.632813 17.265625 L 17.515625 17.085938 L 17.394531 16.90625 L 17.574219 17.027344 L 17.214844 16.785156 L 17.335938 16.847656 L 17.152344 16.785156 L 17.273438 16.847656 L 16.855469 16.847656 L 16.972656 16.785156 L 16.734375 16.847656 L 16.914063 16.785156 L 16.554688 17.027344 L 16.675781 16.90625 L 16.554688 17.085938 L 16.613281 16.96875 L 16.554688 17.148438 L 16.492188 17.328125 L 16.492188 17.265625 L 16.433594 17.507813 L 16.433594 17.265625 L 16.492188 17.445313 L 16.554688 17.6875 L 16.613281 17.867188 L 16.492188 17.628906 L 16.613281 17.746094 L 16.554688 17.6875 L 16.914063 17.925781 L 16.734375 17.867188 L 16.972656 17.925781 L 17.035156 17.925781 L 17.214844 17.988281 L 16.914063 17.988281 L 17.152344 17.925781 L 17.335938 17.867188 L 17.214844 17.925781 L 17.574219 17.6875 L 17.453125 17.746094 L 17.574219 17.628906 L 17.515625 17.746094 L 17.632813 17.566406 L 17.574219 17.6875 L 17.632813 17.445313 L 17.632813 17.566406 L 17.632813 17.386719 L 18.652344 17.386719 L 18.652344 17.566406 L 18.59375 17.6875 C 18.535156 18.289063 17.988281 18.710938 17.453125 18.886719 L 17.394531 18.886719 L 17.152344 18.945313 L 16.914063 18.945313 L 16.734375 18.886719 L 16.492188 18.828125 L 16.375 18.765625 L 16.015625 18.527344 L 15.894531 18.46875 L 15.773438 18.347656 L 15.652344 18.167969 L 15.59375 17.988281 L 15.59375 17.925781 L 15.535156 17.6875 L 15.535156 17.746094 L 15.472656 17.566406 L 15.472656 17.265625 C 15.5625 16.582031 16.03125 15.953125 16.734375 15.828125 L 17.035156 15.828125 C 17.835938 15.714844 18.351563 16.34375 18.59375 17.027344 L 18.652344 17.148438 L 18.652344 17.386719 "/>
<path style=" stroke:none;fill-rule:evenodd;fill:rgb(100%,100%,100%);fill-opacity:1;" d="M 16.613281 28.246094 L 16.613281 28.007813 L 16.554688 27.828125 C 16.097656 26.84375 14.691406 26.964844 14.515625 28.007813 L 14.453125 28.246094 L 14.515625 28.425781 L 14.574219 28.667969 L 14.632813 28.847656 L 14.753906 29.027344 L 14.933594 29.148438 L 15.113281 29.207031 L 15.355469 29.265625 L 15.535156 29.328125 L 15.773438 29.265625 L 16.132813 29.148438 L 16.3125 29.027344 L 16.554688 28.667969 L 16.613281 28.425781 L 16.613281 28.246094 "/>
<path style=" stroke:none;fill-rule:nonzero;fill:rgb(100%,100%,100%);fill-opacity:1;" d="M 16.132813 28.246094 L 16.132813 28.007813 L 16.132813 28.1875 L 16.074219 28.007813 L 16.132813 28.128906 L 15.894531 27.765625 L 16.074219 27.886719 L 15.714844 27.648438 L 15.835938 27.707031 L 15.652344 27.648438 L 15.773438 27.707031 L 15.355469 27.707031 L 15.472656 27.648438 L 15.234375 27.707031 L 15.414063 27.648438 L 15.054688 27.886719 L 15.175781 27.765625 L 15.054688 27.945313 L 15.113281 27.828125 L 15.054688 28.007813 L 14.992188 28.1875 L 14.992188 28.128906 L 14.933594 28.367188 L 14.933594 28.128906 L 14.992188 28.308594 L 15.054688 28.546875 L 15.113281 28.726563 L 15.054688 28.605469 L 15.175781 28.785156 L 15.054688 28.605469 L 15.234375 28.726563 L 15.113281 28.667969 L 15.292969 28.726563 L 15.234375 28.726563 L 15.472656 28.785156 L 15.535156 28.785156 L 15.714844 28.847656 L 15.414063 28.847656 L 15.652344 28.785156 L 15.835938 28.726563 L 16.015625 28.667969 L 15.894531 28.726563 L 16.074219 28.605469 L 15.894531 28.785156 L 16.015625 28.605469 L 16.132813 28.425781 L 16.074219 28.546875 L 16.132813 28.308594 L 16.132813 28.425781 L 16.132813 28.246094 L 17.152344 28.246094 L 17.152344 28.425781 L 17.09375 28.546875 C 16.984375 29.183594 16.585938 29.613281 15.953125 29.746094 L 15.894531 29.746094 L 15.652344 29.808594 C 15.097656 29.804688 14.199219 29.503906 14.09375 28.847656 L 14.09375 28.785156 L 14.035156 28.546875 L 14.035156 28.605469 L 13.972656 28.425781 L 13.972656 28.128906 C 14.0625 27.441406 14.53125 26.8125 15.234375 26.6875 L 15.535156 26.6875 C 16.335938 26.574219 16.851563 27.203125 17.09375 27.886719 L 17.152344 28.007813 L 17.152344 28.246094 "/>
<path style=" stroke:none;fill-rule:evenodd;fill:rgb(100%,100%,100%);fill-opacity:1;" d="M 28.195313 16.246094 L 28.132813 16.007813 L 28.074219 15.828125 C 27.699219 14.816406 26.285156 15 26.035156 16.007813 L 26.035156 16.425781 C 26.160156 17.453125 27.757813 17.617188 28.074219 16.667969 L 28.132813 16.425781 L 28.195313 16.246094 "/>
<path style=" stroke:none;fill-rule:nonzero;fill:rgb(100%,100%,100%);fill-opacity:1;" d="M 27.714844 16.367188 L 27.652344 16.128906 L 27.652344 16.1875 L 27.535156 15.828125 L 27.652344 16.007813 L 27.472656 15.828125 L 27.355469 15.707031 L 27.472656 15.765625 L 27.292969 15.648438 L 27.414063 15.707031 L 27.175781 15.648438 L 27.292969 15.707031 L 26.875 15.707031 L 27.054688 15.648438 L 26.875 15.707031 L 26.992188 15.648438 L 26.632813 15.886719 L 26.753906 15.765625 L 26.515625 16.128906 L 26.574219 16.007813 L 26.515625 16.1875 L 26.574219 16.007813 L 26.574219 16.425781 L 26.515625 16.308594 L 26.574219 16.546875 L 26.515625 16.425781 L 26.632813 16.605469 L 26.753906 16.785156 L 26.632813 16.605469 L 26.8125 16.726563 L 26.695313 16.667969 L 27.054688 16.785156 L 26.992188 16.785156 L 27.234375 16.847656 L 26.992188 16.847656 L 27.175781 16.785156 L 27.414063 16.726563 L 27.59375 16.667969 L 27.355469 16.785156 L 27.652344 16.488281 L 27.535156 16.726563 L 27.59375 16.546875 L 27.652344 16.308594 L 27.714844 16.128906 L 28.675781 16.425781 L 28.613281 16.605469 L 28.613281 16.546875 L 28.554688 16.785156 L 28.554688 16.847656 L 28.492188 17.027344 L 28.375 17.207031 L 28.074219 17.507813 L 27.894531 17.628906 L 27.714844 17.6875 L 27.652344 17.6875 L 27.414063 17.746094 L 27.472656 17.746094 L 27.292969 17.808594 L 26.992188 17.808594 C 25.808594 17.636719 25.25 16.6875 25.675781 15.585938 L 25.914063 15.226563 C 26.632813 14.320313 28.253906 14.535156 28.554688 15.707031 L 28.613281 15.886719 L 28.675781 16.128906 "/>
<path style=" stroke:none;fill-rule:nonzero;fill:rgb(100%,100%,100%);fill-opacity:1;" d="M 27.714844 16.128906 L 27.714844 16.367188 L 28.675781 16.128906 L 28.675781 16.425781 "/>
</g>
</svg>
