<?xml version="1.0" encoding="UTF-8" standalone="no"?>
<!-- Created with Inkscape (http://www.inkscape.org/) -->

<svg
   xmlns:dc="http://purl.org/dc/elements/1.1/"
   xmlns:cc="http://creativecommons.org/ns#"
   xmlns:rdf="http://www.w3.org/1999/02/22-rdf-syntax-ns#"
   xmlns:svg="http://www.w3.org/2000/svg"
   xmlns="http://www.w3.org/2000/svg"
   xmlns:sodipodi="http://sodipodi.sourceforge.net/DTD/sodipodi-0.dtd"
   xmlns:inkscape="http://www.inkscape.org/namespaces/inkscape"
   version="1.1"
   id="svg10"
   xml:space="preserve"
   width="50.066666"
   height="50.186668"
   viewBox="0 0 50.066666 50.186668"
   sodipodi:docname="Logo_Ch_6.svg"
   inkscape:version="0.92.1 r15371"><metadata
     id="metadata16"><rdf:RDF><cc:Work
         rdf:about=""><dc:format>image/svg+xml</dc:format><dc:type
           rdf:resource="http://purl.org/dc/dcmitype/StillImage" /><dc:title></dc:title></cc:Work></rdf:RDF></metadata><defs
     id="defs14"><clipPath
       clipPathUnits="userSpaceOnUse"
       id="clipPath28"><path
         d=""
         id="path26"
         inkscape:connector-curvature="0"
         style="clip-rule:evenodd" /></clipPath><clipPath
       clipPathUnits="userSpaceOnUse"
       id="clipPath36"><path
         d=""
         id="path34"
         inkscape:connector-curvature="0"
         style="clip-rule:evenodd" /></clipPath><clipPath
       clipPathUnits="userSpaceOnUse"
       id="clipPath54"><path
         d="m 43.1484,44.8906 h 288 v 288 h -288 z"
         id="path52"
         inkscape:connector-curvature="0"
         style="clip-rule:evenodd" /></clipPath></defs><sodipodi:namedview
     pagecolor="#ffffff"
     bordercolor="#666666"
     borderopacity="1"
     objecttolerance="10"
     gridtolerance="10"
     guidetolerance="10"
     inkscape:pageopacity="0"
     inkscape:pageshadow="2"
     inkscape:window-width="1920"
     inkscape:window-height="1017"
     id="namedview12"
     showgrid="false"
     inkscape:zoom="16.896918"
     inkscape:cx="25.033333"
     inkscape:cy="25.093334"
     inkscape:window-x="-8"
     inkscape:window-y="-8"
     inkscape:window-maximized="1"
     inkscape:current-layer="g18" /><g
     id="g18"
     inkscape:groupmode="layer"
     inkscape:label="ink_ext_XXXXXX"
     transform="matrix(1.3333333,0,0,-1.3333333,0,50.186667)"><g
       id="g20"
       transform="scale(0.1)"><g
         id="g22"><g
           id="g24"
           clip-path="url(#clipPath28)" /></g><g
         id="g30"><g
           id="g32"
           clip-path="url(#clipPath36)" /></g><path
         d="m 7.14844,8.89063 h 360 v 360 h -360 z"
         style="fill:#394ca8;fill-opacity:1;fill-rule:nonzero;stroke:none"
         id="path38"
         inkscape:connector-curvature="0" /><path
         d="m 7.14844,363.488 h 365.398 v 10.2031 H 7.14844 Z"
         style="fill:#394ca8;fill-opacity:1;fill-rule:nonzero;stroke:none"
         id="path40"
         inkscape:connector-curvature="0" /><path
         d="m 362.348,3.48828 h 10.1992 v 365.402 H 362.348 Z"
         style="fill:#394ca8;fill-opacity:1;fill-rule:nonzero;stroke:none"
         id="path42"
         inkscape:connector-curvature="0" /><path
         d="m 2.34766,3.48828 h 364.801 v 10.2031 H 2.34766 Z"
         style="fill:#394ca8;fill-opacity:1;fill-rule:nonzero;stroke:none"
         id="path44"
         inkscape:connector-curvature="0" /><path
         d="m 2.34766,8.89063 h 10.1992 v 364.801 H 2.34766 Z"
         style="fill:#394ca8;fill-opacity:1;fill-rule:nonzero;stroke:none"
         id="path46"
         inkscape:connector-curvature="0" /><g
         id="g48"><g
           id="g50"
           clip-path="url(#clipPath54)"><path
             d="m 43.1484,44.8906 h 288 v 288 h -288 z"
             style="fill:#908e8f;fill-opacity:1;fill-rule:nonzero;stroke:none"
             id="path56"
             inkscape:connector-curvature="0" /><path
             d="m 43.1484,327.488 h 288 v 5.70313 h -288 z"
             style="fill:#908e8f;fill-opacity:1;fill-rule:nonzero;stroke:none"
             id="path58"
             inkscape:connector-curvature="0" /><path
             d="m 326.348,44.5898 h 4.80078 v 288.301 H 326.348 Z"
             style="fill:#908e8f;fill-opacity:1;fill-rule:nonzero;stroke:none"
             id="path60"
             inkscape:connector-curvature="0" /><path
             d="m 42.5469,44.5898 h 288.602 v 5.10156 H 42.5469 Z"
             style="fill:#908e8f;fill-opacity:1;fill-rule:nonzero;stroke:none"
             id="path62"
             inkscape:connector-curvature="0" /><path
             d="m 42.5469,44.8906 h 6 v 288.301 h -6 z"
             style="fill:#908e8f;fill-opacity:1;fill-rule:nonzero;stroke:none"
             id="path64"
             inkscape:connector-curvature="0" /></g></g><path
         d="m 79.1484,80.8906 h 216 v 216 h -216 z"
         style="fill:#394ca8;fill-opacity:1;fill-rule:nonzero;stroke:none"
         id="path66"
         inkscape:connector-curvature="0" /><path
         d="m 79.1484,291.488 h 221.398 v 10.2031 H 79.1484 Z"
         style="fill:#394ca8;fill-opacity:1;fill-rule:nonzero;stroke:none"
         id="path68"
         inkscape:connector-curvature="0" /><path
         d="m 290.348,75.4883 h 10.2031 v 221.402 H 290.348 Z"
         style="fill:#394ca8;fill-opacity:1;fill-rule:nonzero;stroke:none"
         id="path70"
         inkscape:connector-curvature="0" /><path
         d="m 74.3477,75.4883 h 220.801 V 85.6914 H 74.3477 Z"
         style="fill:#394ca8;fill-opacity:1;fill-rule:nonzero;stroke:none"
         id="path72"
         inkscape:connector-curvature="0" /><path
         d="m 74.3477,80.8906 h 10.1992 v 220.801 H 74.3477 Z"
         style="fill:#394ca8;fill-opacity:1;fill-rule:nonzero;stroke:none"
         id="path74"
         inkscape:connector-curvature="0" /><path
         d="m 249.547,162.488 5.402,-13.797 25.797,9.598 -4.797,13.801"
         style="fill:#ffffff;fill-opacity:1;fill-rule:nonzero;stroke:none"
         id="path76"
         inkscape:connector-curvature="0" /><path
         d="m 259.148,158.289 -0.601,1.199 -1.199,1.203 c -3.7,5.168 -13.239,1.368 -12.602,-4.8 v -3 l 1.203,-1.2 0.598,-1.203 1.199,-1.199 2.402,-1.199 h 3 l 1.2,0.601 1.8,0.598 1.2,0.602 0.597,1.199 0.602,1.199 0.601,1.801 0.598,1.199 -0.598,1.199 v 1.801"
         style="fill:#ffffff;fill-opacity:1;fill-rule:evenodd;stroke:none"
         id="path78"
         inkscape:connector-curvature="0" /><path
         d="m 254.949,184.691 -6,-14.402 26.399,-12 10.199,4.199 3,6.602 -7.199,3.601"
         style="fill:#ffffff;fill-opacity:1;fill-rule:nonzero;stroke:none"
         id="path80"
         inkscape:connector-curvature="0" /><path
         d="m 285.547,162.488 -13.801,5.403 -12,-27 13.801,-5.403"
         style="fill:#ffffff;fill-opacity:1;fill-rule:nonzero;stroke:none"
         id="path82"
         inkscape:connector-curvature="0" /><path
         d="m 112.148,100.691 -0.601,2.399 -1.801,2.398 c -4.226,4.371 -9.269,2.383 -11.996,-2.398 l -0.6016,-2.399 0.6016,-2.9996 c 2.727,-4.7812 7.77,-6.7695 11.996,-2.4023 l 1.801,2.4023 0.601,2.9996"
         style="fill:#ffffff;fill-opacity:1;fill-rule:nonzero;stroke:none"
         id="path84"
         inkscape:connector-curvature="0" /><path
         d="m 259.746,155.891 -0.598,2.398 -1.8,2.402 c -4.231,4.368 -9.27,2.387 -12,-2.402 l -0.602,-2.398 0.602,-3 c 2.73,-4.789 7.769,-6.77 12,-2.403 l 1.8,2.403 0.598,3"
         style="fill:#ffffff;fill-opacity:1;fill-rule:nonzero;stroke:none"
         id="path86"
         inkscape:connector-curvature="0" /><path
         d="m 101.949,107.289 5.399,-13.8007 147.601,55.2027 -5.402,13.797"
         style="fill:#ffffff;fill-opacity:1;fill-rule:nonzero;stroke:none"
         id="path88"
         inkscape:connector-curvature="0" /><path
         d="m 137.348,252.488 15,-3.597 7.199,27.597 -15,3.602"
         style="fill:#ffffff;fill-opacity:1;fill-rule:nonzero;stroke:none"
         id="path90"
         inkscape:connector-curvature="0" /><path
         d="m 146.348,257.891 -1.2,0.597 h -1.8 l -3.602,-1.797 -1.199,-1.203 -0.598,-1.199 -0.601,-1.199 v -1.801 c 0.058,-4.16 -0.61,-2.988 2.398,-6 l 1.203,-1.199 1.797,-0.602 h 3 l 3.602,1.801 1.199,1.199 0.601,1.203 0.598,1.2 0.602,1.8 -0.602,1.2 v 1.199 l -0.598,1.801 -0.601,1.199 -1.199,0.601 -1.2,1.2 h -1.8"
         style="fill:#ffffff;fill-opacity:1;fill-rule:evenodd;stroke:none"
         id="path92"
         inkscape:connector-curvature="0" /><path
         d="m 122.949,270.488 7.199,-13.199 25.2,14.402 3,10.2 -3.602,6.597 -6.598,-3.597"
         style="fill:#ffffff;fill-opacity:1;fill-rule:nonzero;stroke:none"
         id="path94"
         inkscape:connector-curvature="0" /><path
         d="m 158.348,281.891 -13.2,-7.2 15,-25.8 13.2,7.199"
         style="fill:#ffffff;fill-opacity:1;fill-rule:nonzero;stroke:none"
         id="path96"
         inkscape:connector-curvature="0" /><path
         d="m 112.148,100.691 -0.601,2.399 -1.801,2.398 c -4.226,4.371 -9.269,2.383 -11.996,-2.398 l -0.6016,-2.399 0.6016,-2.9996 c 2.727,-4.7812 7.77,-6.7695 11.996,-2.4023 l 1.801,2.4023 0.601,2.9996"
         style="fill:#ffffff;fill-opacity:1;fill-rule:nonzero;stroke:none"
         id="path98"
         inkscape:connector-curvature="0" /><path
         d="m 152.348,250.691 -0.602,2.399 -1.797,2.398 c -4.242,4.371 -9.273,2.383 -12,-2.398 l -0.601,-2.399 0.601,-3 c 2.727,-4.781 7.77,-6.769 12,-2.402 l 1.797,2.402 0.602,3"
         style="fill:#ffffff;fill-opacity:1;fill-rule:nonzero;stroke:none"
         id="path100"
         inkscape:connector-curvature="0" /><path
         d="m 97.1484,102.488 14.3986,-3.5974 40.199,150.0004 -14.398,3.597"
         style="fill:#ffffff;fill-opacity:1;fill-rule:nonzero;stroke:none"
         id="path102"
         inkscape:connector-curvature="0" /><path
         d="m 130.148,190.09 -0.601,1.801 -1.801,0.597 -1.797,-0.597 -0.601,-1.801 0.601,-1.801 1.797,-0.598 1.801,0.598 0.601,1.801"
         style="fill:#ffffff;fill-opacity:1;fill-rule:nonzero;stroke:none"
         id="path104"
         inkscape:connector-curvature="0" /><path
         d="m 127.746,192.488 h 6.602 l 12,-2.398 h 0.601 l 5.399,-1.801 v -0.598 l 4.8,-3 c 15.418,-6.582 24.5,-20.75 30,-36 l 1.2,-5.402 -4.801,-1.199 -1.199,5.398 0.601,-0.597 -4.801,10.8 -6,9.598 v -0.598 l -8.402,8.399 0.602,-0.602 -4.2,3 -5.402,3 -4.797,3 h 0.598 l -5.399,1.801 -12,2.402 h 0.598 -6"
         style="fill:#ffffff;fill-opacity:1;fill-rule:nonzero;stroke:none"
         id="path106"
         inkscape:connector-curvature="0" /><path
         d="m 188.348,143.289 1.199,-6 v -0.598 h -4.801 v -0.601 l -1.199,6"
         style="fill:#ffffff;fill-opacity:1;fill-rule:nonzero;stroke:none"
         id="path108"
         inkscape:connector-curvature="0" /><path
         d="m 189.547,130.09 -0.598,1.801 -1.801,0.597 -1.8,-0.597 -0.602,-1.801 0.602,-1.801 1.8,-0.598 1.801,0.598 0.598,1.801"
         style="fill:#ffffff;fill-opacity:1;fill-rule:nonzero;stroke:none"
         id="path110"
         inkscape:connector-curvature="0" /><path
         d="m 184.746,130.09 h 4.80078 v 6.60156 H 184.746 Z"
         style="fill:#ffffff;fill-opacity:1;fill-rule:nonzero;stroke:none"
         id="path112"
         inkscape:connector-curvature="0" /></g></g></svg>