<?xml version="1.0" encoding="UTF-8" standalone="no"?>
<!-- Created with Inkscape (http://www.inkscape.org/) -->

<svg
   xmlns:dc="http://purl.org/dc/elements/1.1/"
   xmlns:cc="http://creativecommons.org/ns#"
   xmlns:rdf="http://www.w3.org/1999/02/22-rdf-syntax-ns#"
   xmlns:svg="http://www.w3.org/2000/svg"
   xmlns="http://www.w3.org/2000/svg"
   xmlns:sodipodi="http://sodipodi.sourceforge.net/DTD/sodipodi-0.dtd"
   xmlns:inkscape="http://www.inkscape.org/namespaces/inkscape"
   version="1.1"
   id="svg754"
   xml:space="preserve"
   width="49.666668"
   height="49.746666"
   viewBox="0 0 49.666668 49.746666"
   sodipodi:docname="Logo_Ch_19.svg"
   inkscape:version="0.92.1 r15371"><metadata
     id="metadata760"><rdf:RDF><cc:Work
         rdf:about=""><dc:format>image/svg+xml</dc:format><dc:type
           rdf:resource="http://purl.org/dc/dcmitype/StillImage" /><dc:title></dc:title></cc:Work></rdf:RDF></metadata><defs
     id="defs758"><clipPath
       clipPathUnits="userSpaceOnUse"
       id="clipPath772"><path
         d=""
         id="path770"
         inkscape:connector-curvature="0"
         style="clip-rule:evenodd" /></clipPath><clipPath
       clipPathUnits="userSpaceOnUse"
       id="clipPath790"><path
         d="m 43.0352,42.6563 h 288 v 288 h -288 z"
         id="path788"
         inkscape:connector-curvature="0"
         style="clip-rule:evenodd" /></clipPath><clipPath
       clipPathUnits="userSpaceOnUse"
       id="clipPath872"><path
         d=""
         id="path870"
         inkscape:connector-curvature="0"
         style="clip-rule:evenodd" /></clipPath></defs><sodipodi:namedview
     pagecolor="#ffffff"
     bordercolor="#666666"
     borderopacity="1"
     objecttolerance="10"
     gridtolerance="10"
     guidetolerance="10"
     inkscape:pageopacity="0"
     inkscape:pageshadow="2"
     inkscape:window-width="640"
     inkscape:window-height="480"
     id="namedview756"
     showgrid="false"
     inkscape:zoom="4.7440365"
     inkscape:cx="24.833334"
     inkscape:cy="24.873333"
     inkscape:window-x="0"
     inkscape:window-y="0"
     inkscape:window-maximized="0"
     inkscape:current-layer="g762" /><g
     id="g762"
     inkscape:groupmode="layer"
     inkscape:label="ink_ext_XXXXXX"
     transform="matrix(1.3333333,0,0,-1.3333333,0,49.746667)"><g
       id="g764"
       transform="scale(0.1)"><g
         id="g766"><g
           id="g768"
           clip-path="url(#clipPath772)" /></g><path
         d="m 6.43359,6.65625 h 360 v 360 h -360 z"
         style="fill:#394ca8;fill-opacity:1;fill-rule:nonzero;stroke:none"
         id="path774"
         inkscape:connector-curvature="0" /><path
         d="m 6.43359,361.254 h 365.402 v 10.2031 H 6.43359 Z"
         style="fill:#394ca8;fill-opacity:1;fill-rule:nonzero;stroke:none"
         id="path776"
         inkscape:connector-curvature="0" /><path
         d="m 361.637,1.25391 h 10.1992 v 365.402 H 361.637 Z"
         style="fill:#394ca8;fill-opacity:1;fill-rule:nonzero;stroke:none"
         id="path778"
         inkscape:connector-curvature="0" /><path
         d="m 1.63672,1.25391 h 364.797 v 10.1992 H 1.63672 Z"
         style="fill:#394ca8;fill-opacity:1;fill-rule:nonzero;stroke:none"
         id="path780"
         inkscape:connector-curvature="0" /><path
         d="m 1.63672,6.65625 h 10.1992 v 364.797 H 1.63672 Z"
         style="fill:#394ca8;fill-opacity:1;fill-rule:nonzero;stroke:none"
         id="path782"
         inkscape:connector-curvature="0" /><g
         id="g784"><g
           id="g786"
           clip-path="url(#clipPath790)"><path
             d="m 43.0352,42.6563 h 288 v 288 h -288 z"
             style="fill:#908e8f;fill-opacity:1;fill-rule:nonzero;stroke:none"
             id="path792"
             inkscape:connector-curvature="0" /><path
             d="m 43.0352,325.254 h 288 v 5.70313 h -288 z"
             style="fill:#908e8f;fill-opacity:1;fill-rule:nonzero;stroke:none"
             id="path794"
             inkscape:connector-curvature="0" /><path
             d="m 326.234,42.3555 h 4.80078 v 288.301 H 326.234 Z"
             style="fill:#908e8f;fill-opacity:1;fill-rule:nonzero;stroke:none"
             id="path796"
             inkscape:connector-curvature="0" /><path
             d="m 42.4336,42.3555 h 288.602 v 5.09766 H 42.4336 Z"
             style="fill:#908e8f;fill-opacity:1;fill-rule:nonzero;stroke:none"
             id="path798"
             inkscape:connector-curvature="0" /><path
             d="m 42.4336,42.6563 h 6 v 288.301 h -6 z"
             style="fill:#908e8f;fill-opacity:1;fill-rule:nonzero;stroke:none"
             id="path800"
             inkscape:connector-curvature="0" /></g></g><path
         d="m 79.0352,78.6563 h 216 v 216 h -216 z"
         style="fill:#394ca8;fill-opacity:1;fill-rule:nonzero;stroke:none"
         id="path802"
         inkscape:connector-curvature="0" /><path
         d="m 79.0352,289.254 h 221.398 v 10.2031 H 79.0352 Z"
         style="fill:#394ca8;fill-opacity:1;fill-rule:nonzero;stroke:none"
         id="path804"
         inkscape:connector-curvature="0" /><path
         d="m 290.234,73.2539 h 10.1992 v 221.402 H 290.234 Z"
         style="fill:#394ca8;fill-opacity:1;fill-rule:nonzero;stroke:none"
         id="path806"
         inkscape:connector-curvature="0" /><path
         d="m 74.2344,73.2539 h 220.801 V 83.4531 H 74.2344 Z"
         style="fill:#394ca8;fill-opacity:1;fill-rule:nonzero;stroke:none"
         id="path808"
         inkscape:connector-curvature="0" /><path
         d="m 74.2344,78.6563 h 10.1992 v 220.801 H 74.2344 Z"
         style="fill:#394ca8;fill-opacity:1;fill-rule:nonzero;stroke:none"
         id="path810"
         inkscape:connector-curvature="0" /><path
         d="m 175.035,226.254 -2.398,0.601 -1.203,-4.8 2.402,-0.602"
         style="fill:#ffffff;fill-opacity:1;fill-rule:nonzero;stroke:none"
         id="path812"
         inkscape:connector-curvature="0" /><path
         d="m 175.035,226.254 6,-1.801 0.602,-0.598 c 5.25,-1.859 10.226,-5.468 13.199,-10.199 l 1.801,-4.203 1.797,-4.199 v -10.199 l -1.797,-9.602 v -0.598 l -4.203,-9 -4.2,2.399 v -0.598 l 4.2,9 -0.598,-0.601 1.801,9.597 v 9.004 l 0.597,-1.203 -1.8,4.203 -1.797,4.199 v -0.601 l -3,3 h 0.597 l -4.199,3.601 v -0.601 l -4.801,2.402 h 0.602 l -6,1.797"
         style="fill:#ffffff;fill-opacity:1;fill-rule:nonzero;stroke:none"
         id="path814"
         inkscape:connector-curvature="0" /><path
         d="m 192.434,175.855 -4.797,-9 -0.602,-0.601 -3.601,3 4.8,9"
         style="fill:#ffffff;fill-opacity:1;fill-rule:nonzero;stroke:none"
         id="path816"
         inkscape:connector-curvature="0" /><path
         d="m 180.434,159.055 -1.2,-1.801 -3.601,3 1.203,1.801"
         style="fill:#ffffff;fill-opacity:1;fill-rule:nonzero;stroke:none"
         id="path818"
         inkscape:connector-curvature="0" /><path
         d="m 187.035,166.254 -3.601,3 -6.598,-7.199 3.598,-3"
         style="fill:#ffffff;fill-opacity:1;fill-rule:nonzero;stroke:none"
         id="path820"
         inkscape:connector-curvature="0" /><path
         d="m 185.234,272.453 h 2.40234 v 4.80078 H 185.234 Z"
         style="fill:#ffffff;fill-opacity:1;fill-rule:nonzero;stroke:none"
         id="path822"
         inkscape:connector-curvature="0" /><path
         d="m 185.234,272.453 -13.199,-0.598 h 0.602 l -11.403,-3 h 0.602 l -9.602,-3.601 -8.398,-5.399 0.598,0.598 -6.598,-6 -5.402,-7.199 0.601,0.601 -4.199,-7.8 v 0.597 l -2.402,-8.398 -1.2,-9.598 -0.597,-9 v 0.598 l 0.597,-10.199 1.801,-9.602 v 0.602 l 2.399,-9.602 3.601,-10.199 4.199,-9.602 4.2,-8.996 v 0.598 l 13.203,-24 5.398,-9.598 4.801,-8.402 h -0.602 l 4.801,-6.598 v 0.598 l 5.399,-4.199 h -0.598 l 6,-3.602 -0.602,0.602 7.801,-1.2 h -0.601 3 l 3.601,0.598 -0.601,-0.598 6.601,3 h -0.601 l 6,5.399 h -0.598 l 6.598,6.601 v -0.601 l 6.601,8.402 6.602,9.598 13.199,21 7.801,12.601 6.597,12 v -0.601 l 5.403,12 h -0.602 l 4.199,11.402 3,10.797 v -0.598 l 1.801,10.2 v 10.199 -0.598 l -1.199,8.996 0.598,-0.597 -3,7.8 -2.399,3.598 v -0.598 l 3.602,3 h 0.597 l 2.403,-3.601 v -0.598 c 4.66,-8.601 4.41,-18.742 4.199,-28.203 l -1.801,-10.199 -3,-10.801 v -0.598 l -4.199,-11.402 -5.402,-12 -6.598,-12 -7.801,-12.598 -13.199,-21 v -0.601 l -6.602,-9.602 h -0.597 l -6.602,-8.398 -6.601,-6.602 -6,-5.398 -0.598,-0.5977 -6.602,-3 h -0.597 l -3.602,-0.6016 h -3.601 l -7.797,1.1992 h -1.203 l -6,3.6011 v 0.598 l -5.399,4.199 h -0.601 l -4.797,6.602 v 0.601 l -4.801,8.399 -5.402,9.601 -13.2,24 -4.199,9 -4.199,9.598 h -0.602 l -3.597,10.203 v 0.598 c -5.223,18.512 -6.043,29.32 -3,48.601 v 0.598 l 2.398,8.402 0.602,0.598 4.199,7.801 5.398,7.199 0.602,0.602 6.598,6 8.402,5.398 h 0.598 l 9.601,3.602 v 0.601 l 11.399,3 h 0.601 l 13.199,0.598"
         style="fill:#ffffff;fill-opacity:1;fill-rule:nonzero;stroke:none"
         id="path824"
         inkscape:connector-curvature="0" /><path
         d="m 259.035,250.855 -6,7.2 h 0.602 l -3.602,3 v -0.602 l -8.398,4.801 h 0.597 l -11.398,4.199 h 0.598 l -12.598,2.402 -15.602,1.2 v 4.8 h 0.602 l 15.598,-1.199 12.601,-2.402 h 0.602 l 11.398,-4.199 v -0.602 l 8.399,-4.797 h 0.601 l 3.602,-3 v -0.601 l 6,-7.2"
         style="fill:#ffffff;fill-opacity:1;fill-rule:nonzero;stroke:none"
         id="path826"
         inkscape:connector-curvature="0" /><path
         d="m 182.836,272.453 h 2.39844 v 4.80078 H 182.836 Z"
         style="fill:#ffffff;fill-opacity:1;fill-rule:nonzero;stroke:none"
         id="path828"
         inkscape:connector-curvature="0" /><path
         d="m 203.234,273.055 v 4.8 l -18,-0.601 v -4.801"
         style="fill:#ffffff;fill-opacity:1;fill-rule:nonzero;stroke:none"
         id="path830"
         inkscape:connector-curvature="0" /><path
         d="m 170.836,228.055 v 2.398 l 0.598,-1.199 -1.2,1.801 v -0.602 l -1.8,1.801 0.601,-0.598 -2.398,1.199 h 0.597 l -5.398,2.399 h 0.598 l -7.2,0.601 h 0.602 l -7.199,-0.601 h 0.597 l -5.398,-2.399 -2.402,-1.199 0.601,0.598 -1.801,-1.801 0.602,0.602 -1.199,-1.801 v 1.199 -4.199 1.199 l 1.199,-1.801 -0.602,0.602 1.801,-1.801 h -0.601 l 2.402,-1.199 5.398,-2.399 -0.597,0.598 7.199,-0.598 h -0.602 l 7.2,0.598 -0.598,-0.598 5.398,2.399 h -0.597 l 2.398,1.199 h -0.601 l 1.8,1.801 v -0.602 l 1.2,1.801 -0.598,-1.199 v 1.801 h 4.801 v -3 l -1.203,-1.801 c -4.43,-5.27 -11.809,-7.688 -18.598,-7.199 h -0.602 l -7.199,0.601 h -0.601 l -5.399,2.399 h -0.601 l -2.399,1.199 -2.398,2.402 v 0.598 l -1.203,1.801 -0.598,1.199 v 4.199 l 0.598,1.203 c 3.113,6.649 6.05,3.996 12,7.797 l 0.601,0.602 7.199,0.597 h 0.602 l 7.199,-0.597 0.602,-0.602 5.398,-2.398 2.399,-1.2 h 0.601 l 1.801,-1.8 0.598,-0.602 1.203,-1.797 v -3.601"
         style="fill:#ffffff;fill-opacity:1;fill-rule:nonzero;stroke:none"
         id="path832"
         inkscape:connector-curvature="0" /><path
         d="m 170.836,228.055 h 4.801"
         style="fill:#ffffff;fill-opacity:1;fill-rule:nonzero;stroke:none"
         id="path834"
         inkscape:connector-curvature="0" /><path
         d="m 246.434,236.453 -1.797,0.602 -2.403,0.601 h 0.602 -4.801 1.199 l -5.398,-3 0.598,0.598 -6,-4.199 v 0.601 l -4.2,-5.402 0.602,0.601 -2.402,-6 -0.598,-2.402 v 0.602 -2.399 0.598 l 0.598,-1.801 -0.598,0.602 1.199,-1.801 -0.601,1.199 1.8,-1.199 h -0.597 l 1.797,-0.598 h -0.598 2.398 -0.597 l 2.398,0.598 6,2.402 h -0.601 l 5.402,4.199 -0.602,-0.601 4.2,6 -0.598,-0.598 3,5.399 v -1.2 4.801 -0.601 l -0.602,2.398 -0.597,1.801 4.797,1.199 0.601,-1.797 0.602,-2.402 v -5.399 l -0.602,-1.199 -3,-5.402 -4.199,-6 v -0.598 l -5.402,-4.203 -0.598,-0.598 -6,-2.402 h -0.602 l -2.398,-0.598 h -0.602 c -6.648,-0.66 -10.859,3.551 -10.199,10.2 v 0.601 l 0.602,2.399 h 0.597 l 2.403,6 v 1.199 l 4.199,5.402 0.598,0.598 6,4.199 5.402,3 h 6.598 l 2.402,-0.598 1.801,-0.601"
         style="fill:#ffffff;fill-opacity:1;fill-rule:nonzero;stroke:none"
         id="path836"
         inkscape:connector-curvature="0" /><path
         d="m 244.637,238.254 1.797,-1.801 1.203,4.801 1.797,-1.801"
         style="fill:#ffffff;fill-opacity:1;fill-rule:nonzero;stroke:none"
         id="path838"
         inkscape:connector-curvature="0" /><path
         d="m 181.035,162.656 h -2.402 l -0.598,-4.801 h 2.399"
         style="fill:#ffffff;fill-opacity:1;fill-rule:nonzero;stroke:none"
         id="path840"
         inkscape:connector-curvature="0" /><path
         d="m 181.035,162.656 13.199,-1.203 6,-1.199 h 0.602 l 5.398,-1.801 v -0.598 l 4.2,-2.402 h 0.601 l 3,-2.398 -3.601,-3.602 h 0.601 l -3,2.402 v -0.601 l -4.199,2.402 h 0.598 l -5.399,1.797 -6,1.203 h 0.598 l -13.199,1.199"
         style="fill:#ffffff;fill-opacity:1;fill-rule:nonzero;stroke:none"
         id="path842"
         inkscape:connector-curvature="0" /><path
         d="m 214.035,153.055 2.399,-2.403 0.601,-1.199 -4.801,-1.199 0.602,-1.199 -2.402,2.398"
         style="fill:#ffffff;fill-opacity:1;fill-rule:nonzero;stroke:none"
         id="path844"
         inkscape:connector-curvature="0" /><path
         d="m 217.637,146.453 0.597,-2.398 -4.8,-1.2 -0.598,2.399"
         style="fill:#ffffff;fill-opacity:1;fill-rule:nonzero;stroke:none"
         id="path846"
         inkscape:connector-curvature="0" /><path
         d="m 217.035,149.453 -4.801,-1.199 0.602,-3 4.801,1.199"
         style="fill:#ffffff;fill-opacity:1;fill-rule:nonzero;stroke:none"
         id="path848"
         inkscape:connector-curvature="0" /><path
         d="m 159.434,228.055 -0.598,3 -2.402,1.199 -2.399,-1.199 -0.601,-3 0.601,-2.403 2.399,-1.199 2.402,1.199 0.598,2.403"
         style="fill:#ffffff;fill-opacity:1;fill-rule:evenodd;stroke:none"
         id="path850"
         inkscape:connector-curvature="0" /><path
         d="m 158.234,227.453 -0.597,3 0.597,-0.598 -2.398,1.2 h 1.199 l -2.398,-1.2 0.597,0.598 -0.597,-3 v 0.602 l 0.597,-2.403 -0.597,1.203 2.398,-1.203 h -1.199 l 2.398,1.203 -0.597,-1.203 0.597,2.403 2.403,-0.602 -0.602,-2.398 -0.601,-0.602 -2.399,-1.199 h -1.199 l -2.402,1.199 -0.598,0.602 -0.602,2.398 v 0.602 l 0.602,3 0.598,1.199 2.402,1.199 h 1.199 l 2.399,-1.199 0.601,-1.199 0.602,-3"
         style="fill:#ffffff;fill-opacity:1;fill-rule:nonzero;stroke:none"
         id="path852"
         inkscape:connector-curvature="0" /><path
         d="m 158.234,228.055 v -0.602 l 2.403,0.602 v -0.602"
         style="fill:#ffffff;fill-opacity:1;fill-rule:nonzero;stroke:none"
         id="path854"
         inkscape:connector-curvature="0" /><path
         d="m 235.637,225.055 -0.602,3 -2.398,0.601 -2.403,-0.601 -0.597,-3 0.597,-2.399 2.403,-1.203 2.398,1.203 0.602,2.399"
         style="fill:#ffffff;fill-opacity:1;fill-rule:evenodd;stroke:none"
         id="path856"
         inkscape:connector-curvature="0" /><path
         d="m 234.434,224.453 -0.598,3 1.199,-0.598 -2.398,0.598 h 0.597 l -2.398,-0.598 0.598,0.598 -0.598,-3 v 0.602 l 0.598,-2.399 -0.598,1.199 2.398,-1.199 h -1.199 l 2.399,1.199 -0.598,-1.199 0.598,2.399 2.402,-0.602 -0.602,-2.398 -0.597,-0.602 -2.403,-1.199 h -1.199 l -2.398,1.199 -0.602,0.602 -0.601,2.398 v 0.602 l 0.601,3 1.199,1.199 2.403,0.601 h 0.597 l 2.403,-0.601 0.597,-1.199 0.602,-3"
         style="fill:#ffffff;fill-opacity:1;fill-rule:nonzero;stroke:none"
         id="path858"
         inkscape:connector-curvature="0" /><path
         d="m 234.434,225.055 v -0.602 l 2.402,0.602 v -0.602"
         style="fill:#ffffff;fill-opacity:1;fill-rule:nonzero;stroke:none"
         id="path860"
         inkscape:connector-curvature="0" /><path
         d="m 182.836,126.656 1.801,2.399 v -1.801 l -0.602,3 -1.199,3.601 v -0.601 l -2.402,3.601 1.199,-0.601 -3.598,2.398 0.598,-0.597 -3.598,1.8 h 0.598 -2.996 0.597 l -2.398,-1.203 1.801,1.203 -1.801,-3 v 1.797 l 0.598,-3 1.203,-3.597 v 0.601 l 2.398,-3 -0.601,0.598 3.601,-3 -1.199,0.601 3.598,-1.199 h -0.598 3 -1.203 l 2.402,1.199 1.801,-4.8 -2.402,-1.2 h -4.2 l -3.601,1.2 -0.598,0.597 -3.601,3.004 h -0.598 l -2.402,3 -0.598,1.199 -1.203,3.598 -0.598,3 v 1.801 l 1.801,3 1.199,1.199 2.399,1.203 h 5.402 l 3.598,-1.801 3.601,-2.402 1.199,-1.199 2.403,-3.602 v -0.597 l 1.199,-3.602 0.598,-3 -0.598,-2.398 -1.801,-2.403"
         style="fill:#ffffff;fill-opacity:1;fill-rule:nonzero;stroke:none"
         id="path862"
         inkscape:connector-curvature="0" /><path
         d="m 184.035,127.855 -1.199,-1.203 4.199,-3 -1.199,-0.597"
         style="fill:#ffffff;fill-opacity:1;fill-rule:nonzero;stroke:none"
         id="path864"
         inkscape:connector-curvature="0" /><g
         id="g866"><g
           id="g868"
           clip-path="url(#clipPath872)" /></g></g></g></svg>