<?xml version="1.0" encoding="UTF-8" standalone="no"?>
<!-- Created with Inkscape (http://www.inkscape.org/) -->

<svg
   xmlns:dc="http://purl.org/dc/elements/1.1/"
   xmlns:cc="http://creativecommons.org/ns#"
   xmlns:rdf="http://www.w3.org/1999/02/22-rdf-syntax-ns#"
   xmlns:svg="http://www.w3.org/2000/svg"
   xmlns="http://www.w3.org/2000/svg"
   xmlns:sodipodi="http://sodipodi.sourceforge.net/DTD/sodipodi-0.dtd"
   xmlns:inkscape="http://www.inkscape.org/namespaces/inkscape"
   version="1.1"
   id="svg490"
   xml:space="preserve"
   width="49.813332"
   height="49.813332"
   viewBox="0 0 49.813332 49.813332"
   sodipodi:docname="Logo_Ch_11.svg"
   inkscape:version="0.92.1 r15371"><metadata
     id="metadata496"><rdf:RDF><cc:Work
         rdf:about=""><dc:format>image/svg+xml</dc:format><dc:type
           rdf:resource="http://purl.org/dc/dcmitype/StillImage" /><dc:title></dc:title></cc:Work></rdf:RDF></metadata><defs
     id="defs494"><clipPath
       clipPathUnits="userSpaceOnUse"
       id="clipPath508"><path
         d=""
         id="path506"
         inkscape:connector-curvature="0"
         style="clip-rule:evenodd" /></clipPath><clipPath
       clipPathUnits="userSpaceOnUse"
       id="clipPath526"><path
         d="m 42.9258,43.3086 h 288 v 288 h -288 z"
         id="path524"
         inkscape:connector-curvature="0"
         style="clip-rule:evenodd" /></clipPath><clipPath
       clipPathUnits="userSpaceOnUse"
       id="clipPath566"><path
         d=""
         id="path564"
         inkscape:connector-curvature="0"
         style="clip-rule:evenodd" /></clipPath></defs><sodipodi:namedview
     pagecolor="#ffffff"
     bordercolor="#666666"
     borderopacity="1"
     objecttolerance="10"
     gridtolerance="10"
     guidetolerance="10"
     inkscape:pageopacity="0"
     inkscape:pageshadow="2"
     inkscape:window-width="640"
     inkscape:window-height="480"
     id="namedview492"
     showgrid="false"
     inkscape:zoom="4.7376875"
     inkscape:cx="24.906666"
     inkscape:cy="24.906666"
     inkscape:window-x="0"
     inkscape:window-y="0"
     inkscape:window-maximized="0"
     inkscape:current-layer="g498" /><g
     id="g498"
     inkscape:groupmode="layer"
     inkscape:label="ink_ext_XXXXXX"
     transform="matrix(1.3333333,0,0,-1.3333333,0,49.813333)"><g
       id="g500"
       transform="scale(0.1)"><g
         id="g502"><g
           id="g504"
           clip-path="url(#clipPath508)" /></g><path
         d="m 6.32422,7.30859 h 360 v 360 h -360 z"
         style="fill:#394ca8;fill-opacity:1;fill-rule:nonzero;stroke:none"
         id="path510"
         inkscape:connector-curvature="0" /><path
         d="m 6.32422,361.91 h 365.402 v 10.1992 H 6.32422 Z"
         style="fill:#394ca8;fill-opacity:1;fill-rule:nonzero;stroke:none"
         id="path512"
         inkscape:connector-curvature="0" /><path
         d="m 361.527,1.91016 h 10.1992 v 365.398 H 361.527 Z"
         style="fill:#394ca8;fill-opacity:1;fill-rule:nonzero;stroke:none"
         id="path514"
         inkscape:connector-curvature="0" /><path
         d="m 1.52734,1.91016 h 364.797 v 10.1992 H 1.52734 Z"
         style="fill:#394ca8;fill-opacity:1;fill-rule:nonzero;stroke:none"
         id="path516"
         inkscape:connector-curvature="0" /><path
         d="m 1.52734,7.30859 h 10.1992 v 364.801 H 1.52734 Z"
         style="fill:#394ca8;fill-opacity:1;fill-rule:nonzero;stroke:none"
         id="path518"
         inkscape:connector-curvature="0" /><g
         id="g520"><g
           id="g522"
           clip-path="url(#clipPath526)"><path
             d="m 42.9258,43.3086 h 288 v 288 h -288 z"
             style="fill:#908e8f;fill-opacity:1;fill-rule:nonzero;stroke:none"
             id="path528"
             inkscape:connector-curvature="0" /><path
             d="m 42.9258,325.91 h 288 v 5.69922 h -288 z"
             style="fill:#908e8f;fill-opacity:1;fill-rule:nonzero;stroke:none"
             id="path530"
             inkscape:connector-curvature="0" /><path
             d="m 326.125,43.0078 h 4.80078 v 288.301 H 326.125 Z"
             style="fill:#908e8f;fill-opacity:1;fill-rule:nonzero;stroke:none"
             id="path532"
             inkscape:connector-curvature="0" /><path
             d="m 42.3242,43.0078 h 288.602 v 5.10156 H 42.3242 Z"
             style="fill:#908e8f;fill-opacity:1;fill-rule:nonzero;stroke:none"
             id="path534"
             inkscape:connector-curvature="0" /><path
             d="m 42.3242,43.3086 h 6 v 288.301 h -6 z"
             style="fill:#908e8f;fill-opacity:1;fill-rule:nonzero;stroke:none"
             id="path536"
             inkscape:connector-curvature="0" /></g></g><path
         d="m 78.9258,79.3086 h 216 v 216 h -216 z"
         style="fill:#394ca8;fill-opacity:1;fill-rule:nonzero;stroke:none"
         id="path538"
         inkscape:connector-curvature="0" /><path
         d="m 78.9258,289.91 h 221.398 v 10.1992 H 78.9258 Z"
         style="fill:#394ca8;fill-opacity:1;fill-rule:nonzero;stroke:none"
         id="path540"
         inkscape:connector-curvature="0" /><path
         d="m 290.125,73.9102 h 10.2031 v 221.398 H 290.125 Z"
         style="fill:#394ca8;fill-opacity:1;fill-rule:nonzero;stroke:none"
         id="path542"
         inkscape:connector-curvature="0" /><path
         d="M 74.125,73.9102 H 294.926 V 84.1094 H 74.125 Z"
         style="fill:#394ca8;fill-opacity:1;fill-rule:nonzero;stroke:none"
         id="path544"
         inkscape:connector-curvature="0" /><path
         d="m 74.125,79.3086 h 10.2031 v 220.801 H 74.125 Z"
         style="fill:#394ca8;fill-opacity:1;fill-rule:nonzero;stroke:none"
         id="path546"
         inkscape:connector-curvature="0" /><path
         d="m 86.7266,181.91 h 4.80078 v 10.1992 H 86.7266 Z"
         style="fill:#d3d2d3;fill-opacity:1;fill-rule:nonzero;stroke:none"
         id="path548"
         inkscape:connector-curvature="0" /><path
         d="m 91.5273,181.91 h 196.797 v 10.1992 H 91.5273 Z"
         style="fill:#d3d2d3;fill-opacity:1;fill-rule:nonzero;stroke:none"
         id="path550"
         inkscape:connector-curvature="0" /><path
         d="M 89.125,102.711 H 79.5273 L 80.125,82.9063 h 9.6016"
         style="fill:#ffffff;fill-opacity:1;fill-rule:nonzero;stroke:none"
         id="path552"
         inkscape:connector-curvature="0" /><path
         d="m 89.125,102.711 20.402,0.598 h 9.598 -1.199 l 9,1.199 4.801,0.601 4.199,0.602 3.601,0.598 h -1.203 l 4.203,1.199 -0.601,-0.598 3.601,1.199 h -1.203 l 7.203,3.602 -0.601,-0.602 3,1.797 -1.199,-0.597 6,4.8 -0.602,-1.203 3,3.004 -1.199,-0.601 2.398,3 v -0.598 l 2.403,3.598 -0.602,-0.598 2.402,4.195 -0.601,-1.195 1.801,4.195 3.597,9.602 -0.597,-1.797 2.398,12 1.199,6 v -1.203 l 0.602,7.203 0.601,7.199 0.598,7.801 v -0.602 17.399 l 0.602,7.801 v -0.598 8.398 l 1.199,7.2 v -0.598 l 0.597,6 v 1.797 l 1.801,6 v -0.598 l 1.203,5.399 0.598,1.199 1.801,5.402 v 0.598 l 1.801,4.801 1.8,4.199 0.598,1.203 2.402,4.199 0.598,0.598 2.398,3.601 v 0.602 l 2.403,2.996 1.199,0.602 3,3 13.801,-13.801 -3,-3 0.601,0.601 -2.402,-3 0.602,1.2 -2.403,-3.598 0.602,0.598 -2.399,-4.2 v 0.602 l -1.8,-4.203 0.597,0.601 -1.797,-4.8 v 0.597 l -1.8,-5.398 v 0.601 l -1.2,-5.398 v -0.602 l -1.8,-6 0.597,1.797 -0.597,-5.996 v -0.601 l -1.2,-7.2 v 1.801 -8.402 l -0.601,-7.797 v 1.199 -8.402 C 194.508,127.719 184.094,86.5391 119.125,83.5078 h -9.598 0.598 L 89.7266,82.9063"
         style="fill:#ffffff;fill-opacity:1;fill-rule:nonzero;stroke:none"
         id="path554"
         inkscape:connector-curvature="0" /><path
         d="m 200.125,268.309 3,3 0.602,1.199 3,2.402 1.8,1.199 10.797,5.399 h 1.203 l 3.598,1.199 0.602,0.602 8.398,2.398 h 1.199 l 4.203,0.602 h -1.203 l 4.203,1.199 h 1.797 l 19.203,1.199 10.2,0.602 h 0.597 v -19.801 h 0.602 l -10.199,-0.598 -19.2,-1.203 2.399,0.602 -4.199,-1.2 -1.2,-0.601 -4.203,-0.602 1.203,0.602 -8.402,-2.399 -3.598,-1.203 1.797,0.602 -10.797,-5.399 1.797,1.2 -3,-2.399 0.602,0.598 -3,-3"
         style="fill:#ffffff;fill-opacity:1;fill-rule:nonzero;stroke:none"
         id="path556"
         inkscape:connector-curvature="0" /><path
         d="m 273.324,269.508 h 20.4023 v 19.8008 H 273.324 Z"
         style="fill:#ffffff;fill-opacity:1;fill-rule:nonzero;stroke:none"
         id="path558"
         inkscape:connector-curvature="0" /><g
         id="g560"><g
           id="g562"
           clip-path="url(#clipPath566)" /></g></g></g></svg>