<?xml version="1.0" encoding="UTF-8" standalone="no"?>
<!-- Created with Inkscape (http://www.inkscape.org/) -->

<svg
   xmlns:dc="http://purl.org/dc/elements/1.1/"
   xmlns:cc="http://creativecommons.org/ns#"
   xmlns:rdf="http://www.w3.org/1999/02/22-rdf-syntax-ns#"
   xmlns:svg="http://www.w3.org/2000/svg"
   xmlns="http://www.w3.org/2000/svg"
   xmlns:sodipodi="http://sodipodi.sourceforge.net/DTD/sodipodi-0.dtd"
   xmlns:inkscape="http://www.inkscape.org/namespaces/inkscape"
   version="1.1"
   id="svg558"
   xml:space="preserve"
   width="51.053333"
   height="51.053333"
   viewBox="0 0 51.053333 51.053333"
   sodipodi:docname="Logo_Ch_17.svg"
   inkscape:version="0.92.1 r15371"><metadata
     id="metadata564"><rdf:RDF><cc:Work
         rdf:about=""><dc:format>image/svg+xml</dc:format><dc:type
           rdf:resource="http://purl.org/dc/dcmitype/StillImage" /><dc:title></dc:title></cc:Work></rdf:RDF></metadata><defs
     id="defs562"><clipPath
       clipPathUnits="userSpaceOnUse"
       id="clipPath576"><path
         d=""
         id="path574"
         inkscape:connector-curvature="0"
         style="clip-rule:evenodd" /></clipPath><clipPath
       clipPathUnits="userSpaceOnUse"
       id="clipPath584"><path
         d="m 1.63672,1.47266 h 380.398 v 379.801 H 1.63672 Z"
         id="path582"
         inkscape:connector-curvature="0"
         style="clip-rule:evenodd" /></clipPath><clipPath
       clipPathUnits="userSpaceOnUse"
       id="clipPath602"><path
         d="m 50.2344,42.2734 h 288 v 288 h -288 z"
         id="path600"
         inkscape:connector-curvature="0"
         style="clip-rule:evenodd" /></clipPath><clipPath
       clipPathUnits="userSpaceOnUse"
       id="clipPath648"><path
         d=""
         id="path646"
         inkscape:connector-curvature="0"
         style="clip-rule:evenodd" /></clipPath></defs><sodipodi:namedview
     pagecolor="#ffffff"
     bordercolor="#666666"
     borderopacity="1"
     objecttolerance="10"
     gridtolerance="10"
     guidetolerance="10"
     inkscape:pageopacity="0"
     inkscape:pageshadow="2"
     inkscape:window-width="640"
     inkscape:window-height="480"
     id="namedview560"
     showgrid="false"
     inkscape:zoom="4.6226169"
     inkscape:cx="25.526667"
     inkscape:cy="25.526667"
     inkscape:window-x="0"
     inkscape:window-y="0"
     inkscape:window-maximized="0"
     inkscape:current-layer="g566" /><g
     id="g566"
     inkscape:groupmode="layer"
     inkscape:label="ink_ext_XXXXXX"
     transform="matrix(1.3333333,0,0,-1.3333333,0,51.053333)"><g
       id="g568"
       transform="scale(0.1)"><g
         id="g570"><g
           id="g572"
           clip-path="url(#clipPath576)" /></g><g
         id="g578"><g
           id="g580"
           clip-path="url(#clipPath584)"><path
             d="m 1.63672,1.47266 h 380.398 v 379.801 H 1.63672 Z"
             style="fill:#394ca8;fill-opacity:1;fill-rule:nonzero;stroke:none"
             id="path586"
             inkscape:connector-curvature="0" /><path
             d="m 1.63672,375.875 h 380.398 v 5.69922 H 1.63672 Z"
             style="fill:#394ca8;fill-opacity:1;fill-rule:nonzero;stroke:none"
             id="path588"
             inkscape:connector-curvature="0" /><path
             d="m 377.234,1.17578 h 4.80078 v 380.098 H 377.234 Z"
             style="fill:#394ca8;fill-opacity:1;fill-rule:nonzero;stroke:none"
             id="path590"
             inkscape:connector-curvature="0" /><path
             d="m 1.03516,1.17578 h 381 v 5.09766 h -381 z"
             style="fill:#394ca8;fill-opacity:1;fill-rule:nonzero;stroke:none"
             id="path592"
             inkscape:connector-curvature="0" /><path
             d="m 1.03516,1.47266 h 6 v 380.102 h -6 z"
             style="fill:#394ca8;fill-opacity:1;fill-rule:nonzero;stroke:none"
             id="path594"
             inkscape:connector-curvature="0" /></g></g><g
         id="g596"><g
           id="g598"
           clip-path="url(#clipPath602)"><path
             d="m 50.2344,42.2734 h 288 v 288 h -288 z"
             style="fill:#908e8f;fill-opacity:1;fill-rule:nonzero;stroke:none"
             id="path604"
             inkscape:connector-curvature="0" /><path
             d="m 50.2344,324.875 h 288 v 5.69922 h -288 z"
             style="fill:#908e8f;fill-opacity:1;fill-rule:nonzero;stroke:none"
             id="path606"
             inkscape:connector-curvature="0" /><path
             d="m 333.434,41.9727 h 4.80078 v 288.301 H 333.434 Z"
             style="fill:#908e8f;fill-opacity:1;fill-rule:nonzero;stroke:none"
             id="path608"
             inkscape:connector-curvature="0" /><path
             d="m 49.6367,41.9727 h 288.598 v 5.10156 H 49.6367 Z"
             style="fill:#908e8f;fill-opacity:1;fill-rule:nonzero;stroke:none"
             id="path610"
             inkscape:connector-curvature="0" /><path
             d="m 49.6367,42.2734 h 6 v 288.301 h -6 z"
             style="fill:#908e8f;fill-opacity:1;fill-rule:nonzero;stroke:none"
             id="path612"
             inkscape:connector-curvature="0" /></g></g><path
         d="m 86.2344,78.2734 h 216 v 216 h -216 z"
         style="fill:#394ca8;fill-opacity:1;fill-rule:nonzero;stroke:none"
         id="path614"
         inkscape:connector-curvature="0" /><path
         d="m 86.2344,288.875 h 221.402 v 10.1992 H 86.2344 Z"
         style="fill:#394ca8;fill-opacity:1;fill-rule:nonzero;stroke:none"
         id="path616"
         inkscape:connector-curvature="0" /><path
         d="m 297.434,72.8711 h 10.2031 v 221.402 H 297.434 Z"
         style="fill:#394ca8;fill-opacity:1;fill-rule:nonzero;stroke:none"
         id="path618"
         inkscape:connector-curvature="0" /><path
         d="m 81.4336,72.8711 h 220.801 V 83.0742 H 81.4336 Z"
         style="fill:#394ca8;fill-opacity:1;fill-rule:nonzero;stroke:none"
         id="path620"
         inkscape:connector-curvature="0" /><path
         d="m 81.4336,78.2734 h 10.2031 v 220.801 H 81.4336 Z"
         style="fill:#394ca8;fill-opacity:1;fill-rule:nonzero;stroke:none"
         id="path622"
         inkscape:connector-curvature="0" /><path
         d="m 92.8359,121.473 -9.6015,-2.399 4.8008,-19.199 9.6015,2.398"
         style="fill:#ffffff;fill-opacity:1;fill-rule:nonzero;stroke:none"
         id="path624"
         inkscape:connector-curvature="0" /><path
         d="m 92.8359,121.473 2.3985,0.601 h 4.8006 -2.3983 l 2.3983,0.602 2.399,0.597 -1.797,-0.597 2.398,1.199 -1.199,-1.199 3.598,2.398 1.203,1.199 2.398,1.2 -2.398,-2.399 1.797,1.801 -1.2,-1.199 1.2,1.797 1.203,1.203 1.797,1.797 -1.2,-0.598 1.801,2.398 v -0.601 l 1.199,1.801 -1.199,-1.2 1.199,2.399 0.602,0.601 3,5.403 -0.602,-1.203 2.403,5.402 -0.602,-1.199 1.801,5.996 0.598,1.199 2.402,6.004 -0.602,-1.199 1.801,6.597 3.602,13.801 v -0.601 l 3,14.402 v 0.598 l 3.597,13.8 1.801,7.2 0.602,0.601 2.398,6.602 -0.601,-0.602 1.8,6.598 0.602,1.199 2.398,6.004 v 0.598 l 3,6 v -0.602 l 2.403,6.004 1.199,2.398 3.598,4.801 -1.2,-1.801 1.2,2.399 1.203,1.801 1.797,2.398 1.8,1.805 2.403,1.797 -0.602,-1.2 1.801,1.801 c 4.57,5.59 11.289,10.262 18.598,11.399 l 3,0.601 3.601,-19.203 -3,-0.598 h 0.602 l -2.403,-0.601 2.403,0.601 -4.801,-2.398 1.199,1.199 -2.398,-1.801 -2.403,-1.8 1.2,0.601 -3.598,-3.601 -1.199,-0.598 -2.403,-1.801 1.801,1.801 -1.801,-2.402 1.2,1.203 -1.2,-2.403 -1.199,-1.199 -3.601,-4.801 1.8,2.399 -2.398,-5.996 -3.602,-7.203 0.602,1.199 -2.402,-5.996 v 0.597 l -1.797,-6.597 v -0.602 l -2.403,-6.601 v 1.199 l -1.8,-7.199 -3.598,-13.797 -3,-14.403 -3.602,-13.8 v -0.598 l -1.8,-6.602 v -0.601 l -2.399,-5.996 v 0.597 l -1.801,-6 c -3.898,-9.55 -6.187,-13.679 -12,-21.601 l -1.8,-1.797 1.203,1.797 -2.403,-3.598 -1.8,-1.801 -2.399,-1.8 -2.398,-1.2 0.597,0.602 -1.8,-1.199 c -3.95,-3.66 -9.438,-3.973 -14.399,-5.403 h -2.3983 l 2.3983,0.598 -2.3983,-0.598"
         style="fill:#ffffff;fill-opacity:1;fill-rule:nonzero;stroke:none"
         id="path626"
         inkscape:connector-curvature="0" /><path
         d="m 183.434,272.074 3,0.602 c 15.32,2.156 32.269,-1.074 43.203,-12.602 l 1.797,-1.801 -1.2,1.2 2.403,-1.797 1.797,-1.805 3.601,-4.797 1.199,-1.801 1.2,-2.398 -1.2,1.801 1.801,-2.403 c 15.121,-24.308 17.75,-57.41 24.602,-84.601 l 1.199,-6.598 v 0.602 l 3.598,-12 -0.598,1.199 4.801,-10.801 v 0.598 l 1.199,-2.399 -1.801,2.399 1.801,-1.801 1.801,-2.398 1.199,-2.399 -1.801,2.399 1.801,-1.797 1.199,-1.203 1.199,-1.797 -1.199,1.199 1.801,-1.801 -1.801,1.199 1.801,-1.199 -0.602,1.199 2.403,-1.199 0.597,-1.199 -10.8,-16.199 1.203,-0.602 -2.403,1.199 c -2.328,0.813 -6.148,4.481 -7.199,6.602 l -1.199,1.797 1.199,-1.797 -4.199,4.199 -1.199,2.399 2.398,-2.399 -1.801,1.797 -2.398,2.402 -1.199,2.403 v 0.597 l -4.801,10.801 -0.602,1.199 -3.597,12 v 1.2 l -1.203,6.601 v -0.601 l -3,13.8 -3,14.403 -3,13.797 -1.797,7.199 v -0.598 l -1.801,6.602 0.598,-0.602 -2.399,6.602 -4.801,12 v -1.203 l -3,6 1.2,-1.2 -1.797,2.399 -1.203,1.199 -1.2,2.402 1.2,-1.199 -3.598,4.801 1.801,-1.801 -2.403,1.801 -0.597,0.598 -1.801,1.8 0.598,-0.597 -7.2,5.398 1.801,-1.199 -2.398,1.199 0.597,-0.601 -3,1.199 h 1.2 l -2.399,0.601 h 0.602 l -3,0.598 0.597,-0.598 -3.597,0.598 -0.602,0.602 -3,0.601 1.801,-0.601 h -6.602 l 1.801,0.601 -6,-1.203"
         style="fill:#ffffff;fill-opacity:1;fill-rule:nonzero;stroke:none"
         id="path628"
         inkscape:connector-curvature="0" /><path
         d="m 284.234,123.875 1.801,-1.203 -0.601,1.203 2.402,-1.203 -2.402,0.601 2.402,-0.601 2.398,-0.598 h -2.398 4.801 l -4.801,-19.203 2.398,-0.598 h -2.398 c -5.16,1.422 -7.852,1.43 -12.602,4.2 l -1.8,1.199"
         style="fill:#ffffff;fill-opacity:1;fill-rule:nonzero;stroke:none"
         id="path630"
         inkscape:connector-curvature="0" /><path
         d="m 295.035,121.473 9.602,-2.399 -4.801,-19.199 -9.602,2.398"
         style="fill:#ffffff;fill-opacity:1;fill-rule:nonzero;stroke:none"
         id="path632"
         inkscape:connector-curvature="0" /><path
         d="m 292.637,122.074 -4.801,-19.203 2.398,-0.598 4.801,19.2"
         style="fill:#ffffff;fill-opacity:1;fill-rule:nonzero;stroke:none"
         id="path634"
         inkscape:connector-curvature="0" /><path
         d="m 84.4336,106.473 h 4.80078 v 10.2031 H 84.4336 Z"
         style="fill:#d3d2d3;fill-opacity:1;fill-rule:nonzero;stroke:none"
         id="path636"
         inkscape:connector-curvature="0" /><path
         d="m 298.637,105.875 h 4.79688 v 10.1992 H 298.637 Z"
         style="fill:#d3d2d3;fill-opacity:1;fill-rule:nonzero;stroke:none"
         id="path638"
         inkscape:connector-curvature="0" /><path
         d="m 89.2344,116.672 v -10.199 l 209.4026,-0.602 v 10.203"
         style="fill:#d3d2d3;fill-opacity:1;fill-rule:nonzero;stroke:none"
         id="path640"
         inkscape:connector-curvature="0" /><g
         id="g642"><g
           id="g644"
           clip-path="url(#clipPath648)" /></g></g></g></svg>