<?xml version="1.0" encoding="UTF-8" standalone="no"?>
<!-- Created with Inkscape (http://www.inkscape.org/) -->

<svg
   xmlns:dc="http://purl.org/dc/elements/1.1/"
   xmlns:cc="http://creativecommons.org/ns#"
   xmlns:rdf="http://www.w3.org/1999/02/22-rdf-syntax-ns#"
   xmlns:svg="http://www.w3.org/2000/svg"
   xmlns="http://www.w3.org/2000/svg"
   xmlns:sodipodi="http://sodipodi.sourceforge.net/DTD/sodipodi-0.dtd"
   xmlns:inkscape="http://www.inkscape.org/namespaces/inkscape"
   version="1.1"
   id="svg292"
   xml:space="preserve"
   width="49.599998"
   height="49.666668"
   viewBox="0 0 49.599998 49.666668"
   sodipodi:docname="Logo_Ch_15.svg"
   inkscape:version="0.92.1 r15371"><metadata
     id="metadata298"><rdf:RDF><cc:Work
         rdf:about=""><dc:format>image/svg+xml</dc:format><dc:type
           rdf:resource="http://purl.org/dc/dcmitype/StillImage" /><dc:title></dc:title></cc:Work></rdf:RDF></metadata><defs
     id="defs296"><clipPath
       clipPathUnits="userSpaceOnUse"
       id="clipPath310"><path
         d=""
         id="path308"
         inkscape:connector-curvature="0"
         style="clip-rule:evenodd" /></clipPath><clipPath
       clipPathUnits="userSpaceOnUse"
       id="clipPath328"><path
         d="m 42.3789,42.7656 h 288.004 v 288 H 42.3789 Z"
         id="path326"
         inkscape:connector-curvature="0"
         style="clip-rule:evenodd" /></clipPath><clipPath
       clipPathUnits="userSpaceOnUse"
       id="clipPath448"><path
         d=""
         id="path446"
         inkscape:connector-curvature="0"
         style="clip-rule:evenodd" /></clipPath></defs><sodipodi:namedview
     pagecolor="#ffffff"
     bordercolor="#666666"
     borderopacity="1"
     objecttolerance="10"
     gridtolerance="10"
     guidetolerance="10"
     inkscape:pageopacity="0"
     inkscape:pageshadow="2"
     inkscape:window-width="1920"
     inkscape:window-height="1017"
     id="namedview294"
     showgrid="false"
     inkscape:zoom="4.7516777"
     inkscape:cx="24.799999"
     inkscape:cy="24.833334"
     inkscape:window-x="-8"
     inkscape:window-y="-8"
     inkscape:window-maximized="1"
     inkscape:current-layer="g300" /><g
     id="g300"
     inkscape:groupmode="layer"
     inkscape:label="ink_ext_XXXXXX"
     transform="matrix(1.3333333,0,0,-1.3333333,0,49.666667)"><g
       id="g302"
       transform="scale(0.1)"><g
         id="g304"><g
           id="g306"
           clip-path="url(#clipPath310)" /></g><path
         d="m 5.78125,6.76563 h 360 v 360 h -360 z"
         style="fill:#394ca8;fill-opacity:1;fill-rule:nonzero;stroke:none"
         id="path312"
         inkscape:connector-curvature="0" /><path
         d="m 5.78125,361.363 h 365.398 v 10.2031 H 5.78125 Z"
         style="fill:#394ca8;fill-opacity:1;fill-rule:nonzero;stroke:none"
         id="path314"
         inkscape:connector-curvature="0" /><path
         d="m 360.98,1.36328 h 10.1992 v 365.402 H 360.98 Z"
         style="fill:#394ca8;fill-opacity:1;fill-rule:nonzero;stroke:none"
         id="path316"
         inkscape:connector-curvature="0" /><path
         d="M 0.980469,1.36328 H 365.78147 v 10.2031 H 0.980469 Z"
         style="fill:#394ca8;fill-opacity:1;fill-rule:nonzero;stroke:none"
         id="path318"
         inkscape:connector-curvature="0" /><path
         d="m 0.980469,6.76563 h 10.1992 v 364.797 h -10.1992 z"
         style="fill:#394ca8;fill-opacity:1;fill-rule:nonzero;stroke:none"
         id="path320"
         inkscape:connector-curvature="0" /><g
         id="g322"><g
           id="g324"
           clip-path="url(#clipPath328)"><path
             d="m 42.3789,42.7656 h 288.004 v 288 H 42.3789 Z"
             style="fill:#908e8f;fill-opacity:1;fill-rule:nonzero;stroke:none"
             id="path330"
             inkscape:connector-curvature="0" /><path
             d="m 42.3789,325.363 h 288.004 v 5.70313 H 42.3789 Z"
             style="fill:#908e8f;fill-opacity:1;fill-rule:nonzero;stroke:none"
             id="path332"
             inkscape:connector-curvature="0" /><path
             d="m 325.582,42.4648 h 4.80078 v 288.301 H 325.582 Z"
             style="fill:#908e8f;fill-opacity:1;fill-rule:nonzero;stroke:none"
             id="path334"
             inkscape:connector-curvature="0" /><path
             d="m 41.7813,42.4648 h 288.602 v 5.09766 H 41.7813 Z"
             style="fill:#908e8f;fill-opacity:1;fill-rule:nonzero;stroke:none"
             id="path336"
             inkscape:connector-curvature="0" /><path
             d="m 41.7813,42.7656 h 6 v 288.301 h -6 z"
             style="fill:#908e8f;fill-opacity:1;fill-rule:nonzero;stroke:none"
             id="path338"
             inkscape:connector-curvature="0" /></g></g><path
         d="m 77.7813,78.7656 h 216 v 216 h -216 z"
         style="fill:#394ca8;fill-opacity:1;fill-rule:nonzero;stroke:none"
         id="path340"
         inkscape:connector-curvature="0" /><path
         d="m 77.7813,289.363 h 221.398 v 10.1992 H 77.7813 Z"
         style="fill:#394ca8;fill-opacity:1;fill-rule:nonzero;stroke:none"
         id="path342"
         inkscape:connector-curvature="0" /><path
         d="m 288.98,73.3633 h 10.1992 v 221.402 H 288.98 Z"
         style="fill:#394ca8;fill-opacity:1;fill-rule:nonzero;stroke:none"
         id="path344"
         inkscape:connector-curvature="0" /><path
         d="m 72.9805,73.3633 h 220.801 V 83.5664 H 72.9805 Z"
         style="fill:#394ca8;fill-opacity:1;fill-rule:nonzero;stroke:none"
         id="path346"
         inkscape:connector-curvature="0" /><path
         d="m 72.9805,78.7656 h 10.1992 v 220.797 H 72.9805 Z"
         style="fill:#394ca8;fill-opacity:1;fill-rule:nonzero;stroke:none"
         id="path348"
         inkscape:connector-curvature="0" /><path
         d="m 232.582,138.766 h 54 v 21.5977 h -54 z"
         style="fill:#ffffff;fill-opacity:1;fill-rule:nonzero;stroke:none"
         id="path350"
         inkscape:connector-curvature="0" /><path
         d="m 232.582,157.965 h 56.3984 v 4.80078 H 232.582 Z"
         style="fill:#ffffff;fill-opacity:1;fill-rule:nonzero;stroke:none"
         id="path352"
         inkscape:connector-curvature="0" /><path
         d="m 284.18,136.363 h 4.80078 v 24 H 284.18 Z"
         style="fill:#ffffff;fill-opacity:1;fill-rule:nonzero;stroke:none"
         id="path354"
         inkscape:connector-curvature="0" /><path
         d="m 230.18,136.363 h 56.4023 v 4.80078 H 230.18 Z"
         style="fill:#ffffff;fill-opacity:1;fill-rule:nonzero;stroke:none"
         id="path356"
         inkscape:connector-curvature="0" /><path
         d="m 230.18,138.766 h 4.80078 v 24 H 230.18 Z"
         style="fill:#ffffff;fill-opacity:1;fill-rule:nonzero;stroke:none"
         id="path358"
         inkscape:connector-curvature="0" /><path
         d="m 243.379,149.563 -0.598,6 -1.801,6.601 c -13.039,28.731 -54.46,24.711 -61.8,-6.601 l -0.602,-6 0.602,-6.598 c 7.832,-32.871 51.289,-33.801 61.8,-6 l 1.801,6 0.598,6.598"
         style="fill:#ffffff;fill-opacity:1;fill-rule:evenodd;stroke:none"
         id="path360"
         inkscape:connector-curvature="0" /><path
         d="m 240.98,148.965 -0.601,6 -1.801,6.598 0.602,-0.598 -3,5.398 v -0.597 l -3.602,4.797 h 0.602 l -4.801,3.601 v -0.601 l -6,3 h 0.601 l -6,1.8 h 0.598 l -6.598,1.2 h 0.602 l -6.004,-1.2 -6.598,-1.8 h 0.598 l -5.398,-3 0.601,0.601 -4.801,-3.601 -3.601,-4.797 0.601,0.597 -3,-5.398 -2.398,-6.602 v 0.602 l -0.602,-6 v 0.598 l 0.602,-6.598 v 0.598 l 2.398,-6 v 0.601 l 3,-6 h -0.601 l 3.601,-4.801 v 0.602 l 4.801,-3.602 h -0.601 l 5.398,-3 -0.598,0.602 6.598,-1.801 6.004,-0.601 h -0.602 l 6.598,0.601 h -0.598 l 6,1.801 -0.601,-0.602 6,3 4.801,3.602 -0.602,-0.602 3.602,4.801 3,6 -0.602,-0.601 1.801,6 v -0.598 l 0.601,6.598 4.801,-0.598 -0.601,-6.602 -1.801,-6 v -0.597 l -3,-6 -0.598,-0.602 -3.601,-4.801 -4.801,-3.597 -0.598,-0.602 -6,-3 h -0.601 c -8.18,-3.469 -18.149,-2.93 -26.399,0 h -0.601 l -5.399,3 v 0.602 l -4.801,3.597 h -0.601 c -10.891,15.012 -14.66,28.25 -3.598,44.403 l 3.598,4.797 0.601,0.601 4.801,3.602 5.399,3 0.601,0.597 6.598,1.801 6,1.199 h 1.203 l 6.598,-1.199 c 5.73,-1.328 13.558,-5.141 18,-9 v -0.601 l 3.601,-4.797 h 0.598 l 3,-5.403 v -0.597 l 1.801,-6.602 v -0.601 l 0.601,-6"
         style="fill:#ffffff;fill-opacity:1;fill-rule:nonzero;stroke:none"
         id="path362"
         inkscape:connector-curvature="0" /><path
         d="m 240.98,149.563 v -0.598 l 4.801,0.598 v -0.598"
         style="fill:#ffffff;fill-opacity:1;fill-rule:nonzero;stroke:none"
         id="path364"
         inkscape:connector-curvature="0" /><path
         d="m 178.582,197.563 0.598,8.402 c 2.742,13.289 11.101,30.64 25.8,33.598 l 6,1.203 v -43.203 h -32.398"
         style="fill:#ffffff;fill-opacity:1;fill-rule:evenodd;stroke:none"
         id="path366"
         inkscape:connector-curvature="0" /><path
         d="m 176.18,197.563 v -2.399 l 4.8,-0.601 v 2.402"
         style="fill:#ffffff;fill-opacity:1;fill-rule:nonzero;stroke:none"
         id="path368"
         inkscape:connector-curvature="0" /><path
         d="m 176.18,197.563 0.601,8.402 v 0.598 l 2.399,8.402 h 0.601 l 3,7.199 v 0.602 l 3.598,6 4.801,5.398 0.601,0.602 5.399,4.199 0.601,0.598 1.797,-4.797 0.602,0.597 -5.399,-4.199 -4.801,-5.398 0.598,0.597 -3.598,-6 -3,-7.199 v 0.602 l -2.398,-8.403 -0.602,-8.398"
         style="fill:#ffffff;fill-opacity:1;fill-rule:nonzero;stroke:none"
         id="path370"
         inkscape:connector-curvature="0" /><path
         d="m 197.781,239.563 6.598,2.402 1.199,-4.801 h 0.602 l -6.602,-2.398"
         style="fill:#ffffff;fill-opacity:1;fill-rule:nonzero;stroke:none"
         id="path372"
         inkscape:connector-curvature="0" /><path
         d="m 210.383,243.164 2.398,0.602 1.199,-4.801 -2.398,-0.602"
         style="fill:#ffffff;fill-opacity:1;fill-rule:nonzero;stroke:none"
         id="path374"
         inkscape:connector-curvature="0" /><path
         d="m 204.383,241.965 1.199,-4.801 6,1.199 -1.199,4.801"
         style="fill:#ffffff;fill-opacity:1;fill-rule:nonzero;stroke:none"
         id="path376"
         inkscape:connector-curvature="0" /><path
         d="m 210.98,240.766 6.598,-1.203 c 14.723,-3.86 23.442,-19.458 25.203,-33.598 l 0.598,-8.402 H 210.98 v 43.203"
         style="fill:#ffffff;fill-opacity:1;fill-rule:evenodd;stroke:none"
         id="path378"
         inkscape:connector-curvature="0" /><path
         d="m 211.582,243.164 h -2.402 l -0.602,-4.801 h 2.402"
         style="fill:#ffffff;fill-opacity:1;fill-rule:nonzero;stroke:none"
         id="path380"
         inkscape:connector-curvature="0" /><path
         d="m 211.582,243.164 6.598,-1.199 0.601,-0.602 6,-2.398 h 0.598 l 6,-4.199 v -0.602 l 4.801,-5.398 h 0.601 l 3.598,-6 v -0.602 l 3,-7.199 -4.801,-1.199 0.602,-0.602 -3,7.199 -3.602,6 v -0.597 l -4.797,5.398 0.598,-0.601 -6,4.203 h 0.601 l -6,2.398 h 0.598 l -6.598,1.199"
         style="fill:#ffffff;fill-opacity:1;fill-rule:nonzero;stroke:none"
         id="path382"
         inkscape:connector-curvature="0" /><path
         d="m 243.379,214.965 1.801,-8.402 v -0.598 l -4.801,-0.602 -1.801,8.403"
         style="fill:#ffffff;fill-opacity:1;fill-rule:nonzero;stroke:none"
         id="path384"
         inkscape:connector-curvature="0" /><path
         d="m 245.781,197.563 v -2.399 l -4.801,-0.601 v 2.402"
         style="fill:#ffffff;fill-opacity:1;fill-rule:nonzero;stroke:none"
         id="path386"
         inkscape:connector-curvature="0" /><path
         d="m 245.18,205.965 -4.797,-0.602 0.597,-8.398 4.801,0.598"
         style="fill:#ffffff;fill-opacity:1;fill-rule:nonzero;stroke:none"
         id="path388"
         inkscape:connector-curvature="0" /><path
         d="m 176.18,195.164 h 2.40234 v 4.80078 H 176.18 Z"
         style="fill:#ffffff;fill-opacity:1;fill-rule:nonzero;stroke:none"
         id="path390"
         inkscape:connector-curvature="0" /><path
         d="m 178.582,195.164 h 67.1992 v 4.80078 H 178.582 Z"
         style="fill:#ffffff;fill-opacity:1;fill-rule:nonzero;stroke:none"
         id="path392"
         inkscape:connector-curvature="0" /><path
         d="m 200.18,208.363 h 21.6016 v 64.8008 H 200.18 Z"
         style="fill:#ffffff;fill-opacity:1;fill-rule:nonzero;stroke:none"
         id="path394"
         inkscape:connector-curvature="0" /><path
         d="m 200.18,270.766 h 24 v 4.79688 h -24 z"
         style="fill:#ffffff;fill-opacity:1;fill-rule:nonzero;stroke:none"
         id="path396"
         inkscape:connector-curvature="0" /><path
         d="m 219.383,205.965 h 4.79688 v 67.1992 H 219.383 Z"
         style="fill:#ffffff;fill-opacity:1;fill-rule:nonzero;stroke:none"
         id="path398"
         inkscape:connector-curvature="0" /><path
         d="m 197.781,205.965 h 24 v 4.80078 h -24 z"
         style="fill:#ffffff;fill-opacity:1;fill-rule:nonzero;stroke:none"
         id="path400"
         inkscape:connector-curvature="0" /><path
         d="m 197.781,208.363 h 4.79688 v 67.1992 H 197.781 Z"
         style="fill:#ffffff;fill-opacity:1;fill-rule:nonzero;stroke:none"
         id="path402"
         inkscape:connector-curvature="0" /><path
         d="m 117.383,149.563 1.199,6 c 3.52,15.113 19.379,23.261 33.598,25.203 l 8.398,1.199 v -32.402 h -43.195"
         style="fill:#ffffff;fill-opacity:1;fill-rule:evenodd;stroke:none"
         id="path404"
         inkscape:connector-curvature="0" /><path
         d="m 114.98,150.164 -0.601,-2.398 4.801,-1.203 0.601,2.402"
         style="fill:#ffffff;fill-opacity:1;fill-rule:nonzero;stroke:none"
         id="path406"
         inkscape:connector-curvature="0" /><path
         d="m 114.98,150.164 1.2,6 2.402,6.602 0.598,0.597 4.199,5.403 v 0.597 l 4.801,4.801 h 0.601 l 6.602,3.602 h 0.597 l 7.2,3 v 0.597 l 1.199,-4.8 h 0.601 l -7.199,-3 -6.601,-3.598 0.601,0.598 -4.801,-4.797 -4.199,-5.403 0.598,0.602 -2.399,-6.602 v 0.602 l -1.199,-6"
         style="fill:#ffffff;fill-opacity:1;fill-rule:nonzero;stroke:none"
         id="path408"
         inkscape:connector-curvature="0" /><path
         d="m 143.18,181.363 8.402,1.801 h 0.598 l 0.601,-4.801 -8.398,-1.8"
         style="fill:#ffffff;fill-opacity:1;fill-rule:nonzero;stroke:none"
         id="path410"
         inkscape:connector-curvature="0" /><path
         d="m 160.582,184.363 h 2.398 l 0.602,-4.8 h -2.402"
         style="fill:#ffffff;fill-opacity:1;fill-rule:nonzero;stroke:none"
         id="path412"
         inkscape:connector-curvature="0" /><path
         d="m 152.18,183.164 0.601,-4.801 8.399,1.2 -0.602,4.8"
         style="fill:#ffffff;fill-opacity:1;fill-rule:nonzero;stroke:none"
         id="path414"
         inkscape:connector-curvature="0" /><path
         d="m 160.582,117.164 -8.402,0.602 c -15.399,2.488 -28.809,9.328 -33.598,25.199 l -1.199,6.598 h 43.199 v -32.399"
         style="fill:#ffffff;fill-opacity:1;fill-rule:evenodd;stroke:none"
         id="path416"
         inkscape:connector-curvature="0" /><path
         d="m 160.582,114.766 h 2.398 l 0.602,4.797 h -2.402"
         style="fill:#ffffff;fill-opacity:1;fill-rule:nonzero;stroke:none"
         id="path418"
         inkscape:connector-curvature="0" /><path
         d="m 160.582,114.766 -8.402,0.597 c -12.942,1.879 -26.778,7.289 -33,19.801 v 0.602 l 4.199,1.797 v 0.601 l 4.199,-6 -0.598,0.602 4.801,-4.801 h -0.601 l 6.601,-3.602 7.199,-3 -0.601,0.602 8.402,-1.801 8.399,-0.601"
         style="fill:#ffffff;fill-opacity:1;fill-rule:nonzero;stroke:none"
         id="path420"
         inkscape:connector-curvature="0" /><path
         d="m 119.18,135.766 -2.399,6 -0.601,0.597 4.8,0.602 v 0.598 l 2.399,-6"
         style="fill:#ffffff;fill-opacity:1;fill-rule:nonzero;stroke:none"
         id="path422"
         inkscape:connector-curvature="0" /><path
         d="m 114.98,148.965 v 2.398 l 4.801,0.602 v -2.402"
         style="fill:#ffffff;fill-opacity:1;fill-rule:nonzero;stroke:none"
         id="path424"
         inkscape:connector-curvature="0" /><path
         d="m 116.18,142.363 4.8,0.602 -1.199,6.598 -4.801,-0.598"
         style="fill:#ffffff;fill-opacity:1;fill-rule:nonzero;stroke:none"
         id="path426"
         inkscape:connector-curvature="0" /><path
         d="m 158.18,181.965 h 4.80078 v 2.39844 H 158.18 Z"
         style="fill:#ffffff;fill-opacity:1;fill-rule:nonzero;stroke:none"
         id="path428"
         inkscape:connector-curvature="0" /><path
         d="m 158.18,114.766 h 4.80078 v 67.1992 H 158.18 Z"
         style="fill:#ffffff;fill-opacity:1;fill-rule:nonzero;stroke:none"
         id="path430"
         inkscape:connector-curvature="0" /><path
         d="m 84.9805,138.766 h 64.8008 v 21.5977 H 84.9805 Z"
         style="fill:#ffffff;fill-opacity:1;fill-rule:nonzero;stroke:none"
         id="path432"
         inkscape:connector-curvature="0" /><path
         d="m 84.9805,157.965 h 67.1992 v 4.80078 H 84.9805 Z"
         style="fill:#ffffff;fill-opacity:1;fill-rule:nonzero;stroke:none"
         id="path434"
         inkscape:connector-curvature="0" /><path
         d="m 147.383,136.363 h 4.79688 v 24 H 147.383 Z"
         style="fill:#ffffff;fill-opacity:1;fill-rule:nonzero;stroke:none"
         id="path436"
         inkscape:connector-curvature="0" /><path
         d="m 82.582,136.363 h 67.1992 v 4.80078 H 82.582 Z"
         style="fill:#ffffff;fill-opacity:1;fill-rule:nonzero;stroke:none"
         id="path438"
         inkscape:connector-curvature="0" /><path
         d="m 82.582,138.766 h 4.79688 v 24 H 82.582 Z"
         style="fill:#ffffff;fill-opacity:1;fill-rule:nonzero;stroke:none"
         id="path440"
         inkscape:connector-curvature="0" /><g
         id="g442"><g
           id="g444"
           clip-path="url(#clipPath448)" /></g></g></g></svg>