<?xml version="1.0" encoding="UTF-8" standalone="no"?>
<!-- Created with Inkscape (http://www.inkscape.org/) -->

<svg
   xmlns:dc="http://purl.org/dc/elements/1.1/"
   xmlns:cc="http://creativecommons.org/ns#"
   xmlns:rdf="http://www.w3.org/1999/02/22-rdf-syntax-ns#"
   xmlns:svg="http://www.w3.org/2000/svg"
   xmlns="http://www.w3.org/2000/svg"
   xmlns:sodipodi="http://sodipodi.sourceforge.net/DTD/sodipodi-0.dtd"
   xmlns:inkscape="http://www.inkscape.org/namespaces/inkscape"
   version="1.1"
   id="svg450"
   xml:space="preserve"
   width="49.746666"
   height="49.599998"
   viewBox="0 0 49.746666 49.599998"
   sodipodi:docname="Logo_Ch_16.svg"
   inkscape:version="0.92.1 r15371"><metadata
     id="metadata456"><rdf:RDF><cc:Work
         rdf:about=""><dc:format>image/svg+xml</dc:format><dc:type
           rdf:resource="http://purl.org/dc/dcmitype/StillImage" /><dc:title></dc:title></cc:Work></rdf:RDF></metadata><defs
     id="defs454"><clipPath
       clipPathUnits="userSpaceOnUse"
       id="clipPath468"><path
         d=""
         id="path466"
         inkscape:connector-curvature="0"
         style="clip-rule:evenodd" /></clipPath><clipPath
       clipPathUnits="userSpaceOnUse"
       id="clipPath476"><path
         d=""
         id="path474"
         inkscape:connector-curvature="0"
         style="clip-rule:evenodd" /></clipPath><clipPath
       clipPathUnits="userSpaceOnUse"
       id="clipPath494"><path
         d="m 42.9258,41.6172 h 288 v 288 h -288 z"
         id="path492"
         inkscape:connector-curvature="0"
         style="clip-rule:evenodd" /></clipPath></defs><sodipodi:namedview
     pagecolor="#ffffff"
     bordercolor="#666666"
     borderopacity="1"
     objecttolerance="10"
     gridtolerance="10"
     guidetolerance="10"
     inkscape:pageopacity="0"
     inkscape:pageshadow="2"
     inkscape:window-width="640"
     inkscape:window-height="480"
     id="namedview452"
     showgrid="false"
     inkscape:zoom="4.7580647"
     inkscape:cx="24.873333"
     inkscape:cy="24.799999"
     inkscape:window-x="0"
     inkscape:window-y="0"
     inkscape:window-maximized="0"
     inkscape:current-layer="g458" /><g
     id="g458"
     inkscape:groupmode="layer"
     inkscape:label="ink_ext_XXXXXX"
     transform="matrix(1.3333333,0,0,-1.3333333,0,49.6)"><g
       id="g460"
       transform="scale(0.1)"><g
         id="g462"><g
           id="g464"
           clip-path="url(#clipPath468)" /></g><g
         id="g470"><g
           id="g472"
           clip-path="url(#clipPath476)" /></g><path
         d="m 6.32422,5.61719 h 360 v 360 h -360 z"
         style="fill:#394ca8;fill-opacity:1;fill-rule:nonzero;stroke:none"
         id="path478"
         inkscape:connector-curvature="0" /><path
         d="m 6.32422,360.219 h 365.402 v 10.1992 H 6.32422 Z"
         style="fill:#394ca8;fill-opacity:1;fill-rule:nonzero;stroke:none"
         id="path480"
         inkscape:connector-curvature="0" /><path
         d="m 361.527,0.21875 h 10.1992 v 365.398 H 361.527 Z"
         style="fill:#394ca8;fill-opacity:1;fill-rule:nonzero;stroke:none"
         id="path482"
         inkscape:connector-curvature="0" /><path
         d="m 1.52734,0.21875 h 364.797 v 10.1992 H 1.52734 Z"
         style="fill:#394ca8;fill-opacity:1;fill-rule:nonzero;stroke:none"
         id="path484"
         inkscape:connector-curvature="0" /><path
         d="m 1.52734,5.61719 h 10.1992 v 364.801 H 1.52734 Z"
         style="fill:#394ca8;fill-opacity:1;fill-rule:nonzero;stroke:none"
         id="path486"
         inkscape:connector-curvature="0" /><g
         id="g488"><g
           id="g490"
           clip-path="url(#clipPath494)"><path
             d="m 42.9258,41.6172 h 288 v 288 h -288 z"
             style="fill:#908e8f;fill-opacity:1;fill-rule:nonzero;stroke:none"
             id="path496"
             inkscape:connector-curvature="0" /><path
             d="m 42.9258,324.219 h 288 v 5.69922 h -288 z"
             style="fill:#908e8f;fill-opacity:1;fill-rule:nonzero;stroke:none"
             id="path498"
             inkscape:connector-curvature="0" /><path
             d="m 326.125,41.3203 h 4.80078 v 288.297 H 326.125 Z"
             style="fill:#908e8f;fill-opacity:1;fill-rule:nonzero;stroke:none"
             id="path500"
             inkscape:connector-curvature="0" /><path
             d="m 42.3242,41.3203 h 288.602 v 5.09766 H 42.3242 Z"
             style="fill:#908e8f;fill-opacity:1;fill-rule:nonzero;stroke:none"
             id="path502"
             inkscape:connector-curvature="0" /><path
             d="m 42.3242,41.6172 h 6 v 288.301 h -6 z"
             style="fill:#908e8f;fill-opacity:1;fill-rule:nonzero;stroke:none"
             id="path504"
             inkscape:connector-curvature="0" /></g></g><path
         d="m 78.9258,77.6172 h 216 v 216 h -216 z"
         style="fill:#394ca8;fill-opacity:1;fill-rule:nonzero;stroke:none"
         id="path506"
         inkscape:connector-curvature="0" /><path
         d="m 78.9258,288.219 h 221.398 v 10.1992 H 78.9258 Z"
         style="fill:#394ca8;fill-opacity:1;fill-rule:nonzero;stroke:none"
         id="path508"
         inkscape:connector-curvature="0" /><path
         d="m 290.125,72.2188 h 10.2031 v 221.402 H 290.125 Z"
         style="fill:#394ca8;fill-opacity:1;fill-rule:nonzero;stroke:none"
         id="path510"
         inkscape:connector-curvature="0" /><path
         d="M 74.125,72.2188 H 294.926 V 82.418 H 74.125 Z"
         style="fill:#394ca8;fill-opacity:1;fill-rule:nonzero;stroke:none"
         id="path512"
         inkscape:connector-curvature="0" /><path
         d="m 74.125,77.6172 h 10.2031 v 220.801 H 74.125 Z"
         style="fill:#394ca8;fill-opacity:1;fill-rule:nonzero;stroke:none"
         id="path514"
         inkscape:connector-curvature="0" /><path
         d="m 147.926,202.418 v 3 l -0.602,3 c -7.258,33.691 -55.2381,30.992 -58.7967,-3 l -0.6015,-3 0.6015,-3 c 3.5586,-33.988 51.5387,-36.688 58.7967,-3 l 0.602,3 v 3"
         style="fill:#ffffff;fill-opacity:1;fill-rule:evenodd;stroke:none"
         id="path516"
         inkscape:connector-curvature="0" /><path
         d="m 143.125,202.418 v 3 -1.199 l -0.598,3 -0.601,3 0.601,-1.199 -1.203,2.398 -0.597,0.602 -1.2,3 0.598,-0.602 -1.199,2.402 v -0.601 l -1.801,2.398 0.602,-0.597 -4.2,4.199 1.2,-1.199 -2.403,1.199 -0.597,0.601 -2.403,1.797 0.602,-0.597 -2.399,1.199 h 0.598 l -3,1.199 1.199,-0.598 -6,1.2 h 0.602 -6 1.199 l -6,-1.2 1.199,0.598 -4.797,-2.398 h 0.598 l -3,-1.801 v 0.601 l -1.801,-1.203 0.602,0.602 -4.1994,-4.199 0.6015,0.597 -3.6015,-4.797 0.5976,1.2 -1.1992,-3 v 0.597 l -0.5977,-2.398 v -0.602 l -1.2031,-3 0.6016,1.801 v -4.199 l -0.6016,-3 v 1.801 l 0.6016,-3 v -3.602 l -0.6016,1.801 1.2031,-3 v -0.602 l 0.5977,-2.398 v 0.601 l 1.1992,-3 -0.5976,1.2 3.6015,-4.801 -0.6015,0.601 4.1994,-4.203 -0.602,0.602 -5.3982,-8.399 -1.1992,0.598 c -3.3516,3.133 -9.8594,9.691 -10.1993,14.402 l -0.6015,2.399 v -0.602 l -1.1992,3 v 4.801 -1.199 l -0.6016,3 v 1.801 l 0.6016,3 v -0.602 4.801 l 1.1992,3 v -0.602 l 0.6015,2.403 v 0.597 c 3.0469,8.551 10.5079,14.922 18.5977,18.602 l 2.402,1.199 1.797,0.602 c 8.524,2.191 18.953,1.929 26.403,-3 h 0.597 l 2.403,-1.801 h -0.602 l 3.602,-1.801 4.8,-4.801 1.797,-2.398 0.602,-0.602 1.199,-2.398 v -0.602 l 1.199,-3 v 0.602 l 1.203,-2.399 0.598,-1.8 0.602,-3 0.597,-3 v -3.602"
         style="fill:#ffffff;fill-opacity:1;fill-rule:nonzero;stroke:none"
         id="path518"
         inkscape:connector-curvature="0" /><path
         d="m 102.324,183.219 1.801,-1.199 3,-1.801 h -0.598 l 4.797,-2.399 -1.199,0.598 6,-1.199 h -1.199 6 -0.602 l 6,1.199 h -1.199 l 3,1.199 -0.598,-0.597 2.399,1.199 h -0.602 l 2.403,1.801 h 0.597 l 2.403,1.199 -1.2,-0.602 4.2,4.203 -0.602,-0.601 1.801,2.398 v -0.597 l 1.199,2.398 -0.598,-0.598 1.2,3 0.597,0.598 1.203,2.402 -0.601,-1.8 0.601,3 0.598,3 v -0.602 3 h 10.199 v -4.199 l -0.597,-3 -0.602,-3 -0.598,-1.199 -1.203,-2.403 v 0.602 l -1.199,-3 c 0.031,-3.239 -7.57,-9.821 -9.598,-12 l -2.402,-1.199 0.602,0.597 -2.403,-1.797 -0.597,-0.601 c -4.723,-2.059 -7.289,-3.469 -12.602,-4.199 h -4.199 c -3.321,-0.442 -11.149,1.109 -13.801,3 l -2.398,1.199 -3.0004,1.801 v 0.597 l -1.8008,1.203"
         style="fill:#ffffff;fill-opacity:1;fill-rule:nonzero;stroke:none"
         id="path520"
         inkscape:connector-curvature="0" /><path
         d="m 127.527,171.82 16.2,-32.402 13.199,5.402 -16.801,33.598"
         style="fill:#ffffff;fill-opacity:1;fill-rule:evenodd;stroke:none"
         id="path522"
         inkscape:connector-curvature="0" /><path
         d="m 128.727,172.418 16.199,-32.398 -0.602,-1.801 -1.199,2.398 13.199,5.403 1.801,-0.602 -2.398,-1.199 -16.801,33.601 0.601,1.797 1.2,0.602 18,-36 -1.2,-0.602 -13.203,-5.398 -1.199,-0.602 -16.801,33.602"
         style="fill:#ffffff;fill-opacity:1;fill-rule:nonzero;stroke:none"
         id="path524"
         inkscape:connector-curvature="0" /><path
         d="m 140.727,177.219 -12.602,-6.602 -1.801,0.602 -0.597,1.199 1.199,0.602 12.601,6.597"
         style="fill:#ffffff;fill-opacity:1;fill-rule:nonzero;stroke:none"
         id="path526"
         inkscape:connector-curvature="0" /><path
         d="m 201.926,204.82 -0.602,3 -1.797,3 -3,1.797 -3,0.602 -3.601,-0.602 -2.399,-1.797 -1.8,-3 -0.602,-3 0.602,-3.601 c 3.148,-5.719 9,-6.199 13.8,-2.399 l 1.797,2.399 0.602,3.601"
         style="fill:#ffffff;fill-opacity:1;fill-rule:evenodd;stroke:none"
         id="path528"
         inkscape:connector-curvature="0" /><path
         d="m 200.727,204.219 -0.602,3 h 0.602 l -1.801,3 v -0.602 l -3,1.801 h 0.601 l -3,0.602 h 0.598 l -3.598,-0.602 -2.402,-1.801 0.602,0.602 -1.801,-3 -0.602,-3 v 0.601 l 0.602,-3.601 v 0.601 l 1.801,-2.402 h -0.602 l 2.402,-1.801 v 0.602 l 3.598,-0.602 h -0.598 l 3,0.602 -0.601,-0.602 3,1.801 1.801,2.402 -0.602,-0.601 0.602,3.601 2.398,-0.601 -0.598,-3.602 -1.8,-2.398 -0.602,-0.602 -3,-1.797 -3,-0.601 h -0.598 l -3.601,0.601 h -0.602 l -2.398,1.797 v 0.602 l -1.801,2.398 h -0.598 l -0.601,3.602 c 0.121,5.109 4.629,10.801 10.199,10.199 l 3,-0.598 v -0.601 l 3,-1.801 h 0.602 l 1.8,-3 v -0.598 l 0.598,-3"
         style="fill:#ffffff;fill-opacity:1;fill-rule:nonzero;stroke:none"
         id="path530"
         inkscape:connector-curvature="0" /><path
         d="m 200.727,204.82 v -0.601 l 2.398,0.601 v -0.601"
         style="fill:#ffffff;fill-opacity:1;fill-rule:nonzero;stroke:none"
         id="path532"
         inkscape:connector-curvature="0" /><path
         d="m 164.125,216.219 h -1.199 l -0.602,-2.399 h 1.199"
         style="fill:#ffffff;fill-opacity:1;fill-rule:nonzero;stroke:none"
         id="path534"
         inkscape:connector-curvature="0" /><path
         d="m 176.727,213.82 h 1.199 l -0.602,-2.402 h -1.199"
         style="fill:#ffffff;fill-opacity:1;fill-rule:nonzero;stroke:none"
         id="path536"
         inkscape:connector-curvature="0" /><path
         d="m 164.125,216.219 -0.602,-2.399 12.602,-2.402 0.602,2.402"
         style="fill:#ffffff;fill-opacity:1;fill-rule:nonzero;stroke:none"
         id="path538"
         inkscape:connector-curvature="0" /><path
         d="m 162.926,201.219 h -1.199 l 0.597,-2.399 h 1.203"
         style="fill:#ffffff;fill-opacity:1;fill-rule:nonzero;stroke:none"
         id="path540"
         inkscape:connector-curvature="0" /><path
         d="m 176.727,203.02 h 1.199 l 0.601,-2.403 h -1.203"
         style="fill:#ffffff;fill-opacity:1;fill-rule:nonzero;stroke:none"
         id="path542"
         inkscape:connector-curvature="0" /><path
         d="m 162.926,201.219 0.601,-2.399 13.797,1.797 -0.597,2.403"
         style="fill:#ffffff;fill-opacity:1;fill-rule:nonzero;stroke:none"
         id="path544"
         inkscape:connector-curvature="0" /><path
         d="m 286.527,202.418 -0.601,3 v 3 c -9.039,34.051 -55.02,30.82 -59.399,-3 v -6 c 4.379,-33.82 50.36,-37.051 59.399,-3 v 3 l 0.601,3"
         style="fill:#ffffff;fill-opacity:1;fill-rule:evenodd;stroke:none"
         id="path546"
         inkscape:connector-curvature="0" /><path
         d="m 281.727,201.219 -0.602,3 v 4.199 -1.801 l -1.199,3 v 0.602 l -0.602,2.398 v -0.597 l -1.199,3 0.602,-1.2 -3.602,4.797 0.602,-0.597 -4.2,4.199 1.2,-0.602 -1.801,1.203 v -0.601 l -3,1.801 -2.399,1.199 h 0.598 l -3,1.199 h 0.602 l -2.403,0.602 0.602,-0.602 -3,0.602 h 0.601 -6.601 1.199 l -3,-0.602 v 0.602 l -2.398,-0.602 h 0.597 l -3,-1.199 h 0.602 l -2.399,-1.199 0.598,0.597 -2.398,-1.797 -0.602,-0.601 -2.398,-1.199 1.199,1.199 -4.199,-4.199 0.597,0.597 -1.797,-2.398 0.598,0.601 -1.199,-2.402 v -0.598 l -1.801,-3 v 1.797 l -0.598,-2.398 h 0.598 l -0.598,-3 -0.601,-3 v 1.199 -6 0.602 l 0.601,-3 0.598,-3 -0.598,0.597 0.598,-2.398 v 1.199 l 1.801,-3 1.199,-2.398 -0.598,0.597 1.797,-2.398 -0.597,0.601 4.199,-4.203 -1.199,0.602 -4.801,-9 -6,6 -1.801,2.398 v 0.602 l -1.199,2.398 v -0.597 l -1.801,3 -0.598,1.8 c -1.703,6.2 -2.691,12.848 -1.203,19.2 l 0.602,3 v 0.597 l 0.601,2.403 0.598,1.199 1.801,3 1.199,2.398 v 0.602 l 1.801,2.398 4.801,4.801 3.597,1.801 h -0.597 l 2.398,1.801 h 0.602 c 7.16,4.808 18.238,5.32 26.398,3 h 0.602 l 3,-1.2 0.597,-0.601 2.403,-1.199 h 0.597 l 3,-1.801 1.801,-1.199 3,-3 c 2,-1.672 5.621,-6.262 6.602,-8.403 l 1.199,-3 v -0.597 l 0.601,-2.403 v 0.602 l 1.2,-3 0.597,-1.801 v -3 0.602 l 0.602,-3"
         style="fill:#ffffff;fill-opacity:1;fill-rule:nonzero;stroke:none"
         id="path548"
         inkscape:connector-curvature="0" /><path
         d="m 239.727,183.219 2.398,-1.199 h 0.602 l 2.398,-1.801 h -0.598 l 2.399,-1.199 -0.602,0.597 3,-1.199 h -0.597 l 2.398,-0.598 3,-0.601 h -1.199 6.601 -0.601 l 3,0.601 h -0.602 l 2.403,0.598 h -0.602 l 3,1.199 -0.598,-0.597 2.399,1.199 3,1.801 1.801,1.199 -1.2,-0.602 4.2,4.203 -0.602,-0.601 3.602,4.801 -0.602,-1.2 1.199,3 v -0.601 l 0.602,2.398 v 0.602 l 1.199,3 v -1.801 3.602 l 0.602,3 v -1.801 l 10.199,1.801 v -1.801 l -0.602,-3 v 1.199 -3 l -0.597,-1.801 -1.2,-3 v 0.602 l -0.601,-2.399 c -0.461,-5.09 -7.262,-11.609 -10.801,-15 l -1.801,-1.203 v -0.597 l -3,-1.801 h -0.597 l -2.403,-1.199 h -0.597 l -3,-1.2 h -0.602 l -2.398,-0.601 v -0.602 l -3,-0.597 h -8.403 l -3,0.597 -0.597,0.602 -2.403,0.601 h -0.597 l -3,1.2 h -0.602 l -2.398,1.199 -0.602,0.601 -2.398,1.797 0.597,-0.597 -2.398,1.199"
         style="fill:#ffffff;fill-opacity:1;fill-rule:nonzero;stroke:none"
         id="path550"
         inkscape:connector-curvature="0" /><path
         d="m 246.926,171.82 -16.199,-32.402 -13.2,5.402 16.797,33.598"
         style="fill:#ffffff;fill-opacity:1;fill-rule:evenodd;stroke:none"
         id="path552"
         inkscape:connector-curvature="0" /><path
         d="m 248.125,171.219 -16.801,-33.602 -1.199,0.602 -13.199,5.398 -1.199,0.602 18,36 1.199,-0.602 0.601,-1.797 -16.8,-33.601 -2.403,1.199 1.801,0.602 13.199,-5.403 -1.199,-2.398 -0.598,1.801 16.2,32.398"
         style="fill:#ffffff;fill-opacity:1;fill-rule:nonzero;stroke:none"
         id="path554"
         inkscape:connector-curvature="0" /><path
         d="m 234.926,179.617 12.601,-6.597 1.2,-0.602 -0.602,-1.199 -1.801,-0.602 -12.597,6.602"
         style="fill:#ffffff;fill-opacity:1;fill-rule:nonzero;stroke:none"
         id="path556"
         inkscape:connector-curvature="0" /></g></g></svg>