<?xml version="1.0" encoding="UTF-8" standalone="no"?>
<!-- Created with Inkscape (http://www.inkscape.org/) -->

<svg
   xmlns:dc="http://purl.org/dc/elements/1.1/"
   xmlns:cc="http://creativecommons.org/ns#"
   xmlns:rdf="http://www.w3.org/1999/02/22-rdf-syntax-ns#"
   xmlns:svg="http://www.w3.org/2000/svg"
   xmlns="http://www.w3.org/2000/svg"
   xmlns:sodipodi="http://sodipodi.sourceforge.net/DTD/sodipodi-0.dtd"
   xmlns:inkscape="http://www.inkscape.org/namespaces/inkscape"
   version="1.1"
   id="svg874"
   xml:space="preserve"
   width="49.746666"
   height="49.666668"
   viewBox="0 0 49.746666 49.666668"
   sodipodi:docname="Logo_Ch_20.svg"
   inkscape:version="0.92.1 r15371"><metadata
     id="metadata880"><rdf:RDF><cc:Work
         rdf:about=""><dc:format>image/svg+xml</dc:format><dc:type
           rdf:resource="http://purl.org/dc/dcmitype/StillImage" /><dc:title></dc:title></cc:Work></rdf:RDF></metadata><defs
     id="defs878"><clipPath
       clipPathUnits="userSpaceOnUse"
       id="clipPath892"><path
         d=""
         id="path890"
         inkscape:connector-curvature="0"
         style="clip-rule:evenodd" /></clipPath><clipPath
       clipPathUnits="userSpaceOnUse"
       id="clipPath900"><path
         d=""
         id="path898"
         inkscape:connector-curvature="0"
         style="clip-rule:evenodd" /></clipPath><clipPath
       clipPathUnits="userSpaceOnUse"
       id="clipPath918"><path
         d="m 42.3789,42.875 h 288.004 v 288 H 42.3789 Z"
         id="path916"
         inkscape:connector-curvature="0"
         style="clip-rule:evenodd" /></clipPath></defs><sodipodi:namedview
     pagecolor="#ffffff"
     bordercolor="#666666"
     borderopacity="1"
     objecttolerance="10"
     gridtolerance="10"
     guidetolerance="10"
     inkscape:pageopacity="0"
     inkscape:pageshadow="2"
     inkscape:window-width="640"
     inkscape:window-height="480"
     id="namedview876"
     showgrid="false"
     inkscape:zoom="4.7516777"
     inkscape:cx="24.873333"
     inkscape:cy="24.833334"
     inkscape:window-x="0"
     inkscape:window-y="0"
     inkscape:window-maximized="0"
     inkscape:current-layer="g882" /><g
     id="g882"
     inkscape:groupmode="layer"
     inkscape:label="ink_ext_XXXXXX"
     transform="matrix(1.3333333,0,0,-1.3333333,0,49.666667)"><g
       id="g884"
       transform="scale(0.1)"><g
         id="g886"><g
           id="g888"
           clip-path="url(#clipPath892)" /></g><g
         id="g894"><g
           id="g896"
           clip-path="url(#clipPath900)" /></g><path
         d="m 5.78125,6.875 h 360 v 360 h -360 z"
         style="fill:#394ca8;fill-opacity:1;fill-rule:nonzero;stroke:none"
         id="path902"
         inkscape:connector-curvature="0" /><path
         d="m 5.78125,361.473 h 365.398 v 10.2031 H 5.78125 Z"
         style="fill:#394ca8;fill-opacity:1;fill-rule:nonzero;stroke:none"
         id="path904"
         inkscape:connector-curvature="0" /><path
         d="m 360.98,1.47266 h 10.1992 v 365.402 H 360.98 Z"
         style="fill:#394ca8;fill-opacity:1;fill-rule:nonzero;stroke:none"
         id="path906"
         inkscape:connector-curvature="0" /><path
         d="M 0.980469,1.47266 H 365.78147 v 10.2031 H 0.980469 Z"
         style="fill:#394ca8;fill-opacity:1;fill-rule:nonzero;stroke:none"
         id="path908"
         inkscape:connector-curvature="0" /><path
         d="m 0.980469,6.875 h 10.1992 v 364.801 h -10.1992 z"
         style="fill:#394ca8;fill-opacity:1;fill-rule:nonzero;stroke:none"
         id="path910"
         inkscape:connector-curvature="0" /><g
         id="g912"><g
           id="g914"
           clip-path="url(#clipPath918)"><path
             d="m 42.3789,42.875 h 288.004 v 288 H 42.3789 Z"
             style="fill:#908e8f;fill-opacity:1;fill-rule:nonzero;stroke:none"
             id="path920"
             inkscape:connector-curvature="0" /><path
             d="m 42.3789,325.473 h 288.004 v 5.70313 H 42.3789 Z"
             style="fill:#908e8f;fill-opacity:1;fill-rule:nonzero;stroke:none"
             id="path922"
             inkscape:connector-curvature="0" /><path
             d="m 325.582,42.5742 h 4.80078 v 288.301 H 325.582 Z"
             style="fill:#908e8f;fill-opacity:1;fill-rule:nonzero;stroke:none"
             id="path924"
             inkscape:connector-curvature="0" /><path
             d="m 41.7813,42.5742 h 288.602 v 5.10156 H 41.7813 Z"
             style="fill:#908e8f;fill-opacity:1;fill-rule:nonzero;stroke:none"
             id="path926"
             inkscape:connector-curvature="0" /><path
             d="m 41.7813,42.875 h 6 v 288.301 h -6 z"
             style="fill:#908e8f;fill-opacity:1;fill-rule:nonzero;stroke:none"
             id="path928"
             inkscape:connector-curvature="0" /></g></g><path
         d="m 78.3789,78.875 h 216 v 216 h -216 z"
         style="fill:#394ca8;fill-opacity:1;fill-rule:nonzero;stroke:none"
         id="path930"
         inkscape:connector-curvature="0" /><path
         d="m 78.3789,289.473 h 221.402 v 10.2031 H 78.3789 Z"
         style="fill:#394ca8;fill-opacity:1;fill-rule:nonzero;stroke:none"
         id="path932"
         inkscape:connector-curvature="0" /><path
         d="m 289.582,73.4727 h 10.1992 v 221.402 H 289.582 Z"
         style="fill:#394ca8;fill-opacity:1;fill-rule:nonzero;stroke:none"
         id="path934"
         inkscape:connector-curvature="0" /><path
         d="M 73.582,73.4727 H 294.383 V 83.6758 H 73.582 Z"
         style="fill:#394ca8;fill-opacity:1;fill-rule:nonzero;stroke:none"
         id="path936"
         inkscape:connector-curvature="0" /><path
         d="M 73.582,78.875 H 83.7812 V 299.676 H 73.582 Z"
         style="fill:#394ca8;fill-opacity:1;fill-rule:nonzero;stroke:none"
         id="path938"
         inkscape:connector-curvature="0" /><path
         d="m 87.3789,95.0742 v 7.1988 l 1.8008,19.801 v 1.199 l 2.4023,12 1.1993,6.602 0.5976,1.199 1.8008,5.399 -0.5977,-0.598 1.7969,6 0.6016,0.598 1.8008,5.402 v 0.598 l 2.3987,6 v 0.601 l 2.402,4.801 v -0.602 l 2.398,5.403 v 0.597 c 5.833,11.071 14.5,24.141 24,32.403 l 4.2,4.199 c 10.14,9.32 22.519,16.598 36,19.801 h 1.199 l 4.801,0.597 3,-19.8 h -0.598 l -4.801,-0.598 1.797,0.598 -8.398,-2.399 1.199,0.602 -4.199,-1.801 h 0.601 l -12.601,-7.199 1.8,1.199 -7.199,-6 0.602,0.598 -10.801,-10.797 1.199,1.199 -3,-4.199 -3,-4.203 v 0.601 l -6,-9.601 0.598,0.601 -2.399,-4.801 v 0.602 l -2.398,-5.402 v -0.598 l -2.402,-4.801 0.601,1.199 -2.398,-6 v 0.602 l -1.805,-5.402 -1.797,-6 -1.801,-5.399 v 1.199 l -1.199,-6.597 -2.402,-12 0.601,0.597 -0.601,-6.597 -0.598,-6.602 -0.601,-6.601 v 1.203 -6.6018"
         style="fill:#ffffff;fill-opacity:1;fill-rule:nonzero;stroke:none"
         id="path940"
         inkscape:connector-curvature="0" /><path
         d="m 176.18,234.273 4.203,0.602 h 1.199 v -19.801 h 1.797 l -4.199,-0.601"
         style="fill:#ffffff;fill-opacity:1;fill-rule:nonzero;stroke:none"
         id="path942"
         inkscape:connector-curvature="0" /><path
         d="m 181.582,215.074 h 4.79688 v 19.8008 H 181.582 Z"
         style="fill:#ffffff;fill-opacity:1;fill-rule:nonzero;stroke:none"
         id="path944"
         inkscape:connector-curvature="0" /><path
         d="m 186.383,234.875 h 6.597 l 4.2,-0.602 h -0.598 l 4.801,-0.597 h 1.797 c 11.941,-2.531 18.261,-7.731 28.8,-13.801 l 7.2,-6 c 13.179,-12.371 15.652,-15.941 24.601,-31.199 l 0.602,-0.602 2.398,-4.801 v 0.602 l 3,-5.402 0.602,-1.2 1.797,-4.8 2.398,-6 v -0.598 l 1.805,-5.402 v -0.598 l 1.797,-6 v 0.598 l 1.8,-5.399 c 0.461,-8.531 4.5,-19.14 4.801,-27.601 l 0.602,-6.598 -19.801,-1.801 -0.602,6.602 -0.597,6.597 v -0.597 l -2.403,12 -1.199,6.597 0.602,-1.199 -1.805,5.399 h -0.598 l -1.8,6 h 0.601 l -1.801,5.402 v -0.602 l -2.398,6 -1.801,4.801 0.602,-1.199 -3,5.398 h -0.602 l -2.398,4.801 0.597,-0.601 -6,9.601 0.602,-0.601 -6,8.402 1.199,-1.199 -10.801,10.797 0.602,-0.598 -7.199,6 1.199,-1.199 -12.602,7.199 h 1.2 l -4.2,1.801 1.2,-0.602 -8.399,2.399 1.199,-0.598 -4.8,0.598 -4.2,0.601 h 1.2 -4.797"
         style="fill:#ffffff;fill-opacity:1;fill-rule:nonzero;stroke:none"
         id="path946"
         inkscape:connector-curvature="0" /><path
         d="m 285.383,108.875 0.597,-6.602 v -0.597 h -19.8 v -1.203 l -0.602,6.601"
         style="fill:#ffffff;fill-opacity:1;fill-rule:nonzero;stroke:none"
         id="path948"
         inkscape:connector-curvature="0" /><path
         d="m 266.18,95.0742 h 19.8008 v 6.60156 H 266.18 Z"
         style="fill:#ffffff;fill-opacity:1;fill-rule:nonzero;stroke:none"
         id="path950"
         inkscape:connector-curvature="0" /><path
         d="m 204.98,259.473 v 3.601 l -1.199,3.602 c -7.101,16.617 -32.148,14 -36,-3.602 v -7.801 c 5.071,-16.898 26.578,-20.871 36,-3.597 l 1.199,3.597 v 4.2"
         style="fill:#ffffff;fill-opacity:1;fill-rule:evenodd;stroke:none"
         id="path952"
         inkscape:connector-curvature="0" /><path
         d="m 200.18,259.473 v 3.601 -1.801 l -1.2,3.602 0.598,-1.199 -1.797,3 0.598,-0.602 -2.399,3 -2.398,2.399 2.398,-1.2 -7.199,2.403 0.602,-0.602 -3.602,0.602 h 1.801 l -3.602,-0.602 0.598,0.602 -3.598,-1.203 -3,-1.2 1.801,0.602 -3,-2.402 0.602,0.601 -2.403,-3 0.602,0.602 -1.801,-3 v 1.199 l -1.199,-3.602 0.598,1.801 v -7.801 l -0.598,1.2 1.199,-3.598 v 1.199 l 1.801,-3 -1.199,1.199 2.398,-2.398 3,-2.402 -0.601,0.601 3,-1.801 -1.2,0.602 3.598,-1.199 h -0.598 l 3.602,-0.602 h -1.801 l 3.602,0.602 h -0.602 l 3.602,1.199 -1.203,-0.602 3.601,1.801 -1.199,-0.601 4.797,4.8 -0.598,-1.199 1.797,3 -0.598,-1.199 1.2,3.598 v -1.2 4.2 h 10.203 v -4.2 l -0.602,-1.8 -1.199,-3.598 v -1.199 l -1.801,-3 -1.199,-0.602 -6.004,-6 -3.598,-1.801 h -0.597 l -3.602,-1.199 -0.601,-0.601 -3.598,-0.598 h -1.801 l -3.601,0.598 -0.598,0.601 -3.602,1.199 h -1.199 l -3,1.801 -0.601,0.602 -3,2.398 -3,3 -0.598,0.602 -1.801,3 -0.601,1.199 -1.2,3.598 v 10.8 c 2.403,8.692 9.59,16.422 18.602,18 h 0.598 l 3.601,0.602 h 1.801 l 3.598,-0.602 h 0.601 l 7.199,-2.398 1.801,-1.199 3,-3 2.399,-3 0.601,-0.602 1.801,-3 v -1.199 l 1.199,-3.602 0.602,-1.199 v -3.601"
         style="fill:#ffffff;fill-opacity:1;fill-rule:nonzero;stroke:none"
         id="path954"
         inkscape:connector-curvature="0" /><path
         d="m 200.18,259.473 h 10.203"
         style="fill:#ffffff;fill-opacity:1;fill-rule:nonzero;stroke:none"
         id="path956"
         inkscape:connector-curvature="0" /></g></g></svg>