<?xml version="1.0" encoding="UTF-8" standalone="no"?>
<!-- Created with Inkscape (http://www.inkscape.org/) -->

<svg
   xmlns:dc="http://purl.org/dc/elements/1.1/"
   xmlns:cc="http://creativecommons.org/ns#"
   xmlns:rdf="http://www.w3.org/1999/02/22-rdf-syntax-ns#"
   xmlns:svg="http://www.w3.org/2000/svg"
   xmlns="http://www.w3.org/2000/svg"
   xmlns:sodipodi="http://sodipodi.sourceforge.net/DTD/sodipodi-0.dtd"
   xmlns:inkscape="http://www.inkscape.org/namespaces/inkscape"
   version="1.1"
   id="svg958"
   xml:space="preserve"
   width="49.813332"
   height="49.893333"
   viewBox="0 0 49.813332 49.893333"
   sodipodi:docname="Logo_Ch_21.svg"
   inkscape:version="0.92.1 r15371"><metadata
     id="metadata964"><rdf:RDF><cc:Work
         rdf:about=""><dc:format>image/svg+xml</dc:format><dc:type
           rdf:resource="http://purl.org/dc/dcmitype/StillImage" /><dc:title></dc:title></cc:Work></rdf:RDF></metadata><defs
     id="defs962"><clipPath
       clipPathUnits="userSpaceOnUse"
       id="clipPath976"><path
         d=""
         id="path974"
         inkscape:connector-curvature="0"
         style="clip-rule:evenodd" /></clipPath><clipPath
       clipPathUnits="userSpaceOnUse"
       id="clipPath994"><path
         d="m 42.9258,43.3086 h 288 v 288 h -288 z"
         id="path992"
         inkscape:connector-curvature="0"
         style="clip-rule:evenodd" /></clipPath><clipPath
       clipPathUnits="userSpaceOnUse"
       id="clipPath1042"><path
         d=""
         id="path1040"
         inkscape:connector-curvature="0"
         style="clip-rule:evenodd" /></clipPath></defs><sodipodi:namedview
     pagecolor="#ffffff"
     bordercolor="#666666"
     borderopacity="1"
     objecttolerance="10"
     gridtolerance="10"
     guidetolerance="10"
     inkscape:pageopacity="0"
     inkscape:pageshadow="2"
     inkscape:window-width="640"
     inkscape:window-height="480"
     id="namedview960"
     showgrid="false"
     inkscape:zoom="4.7300909"
     inkscape:cx="24.906666"
     inkscape:cy="24.946667"
     inkscape:window-x="0"
     inkscape:window-y="0"
     inkscape:window-maximized="0"
     inkscape:current-layer="g966" /><g
     id="g966"
     inkscape:groupmode="layer"
     inkscape:label="ink_ext_XXXXXX"
     transform="matrix(1.3333333,0,0,-1.3333333,0,49.893333)"><g
       id="g968"
       transform="scale(0.1)"><g
         id="g970"><g
           id="g972"
           clip-path="url(#clipPath976)" /></g><path
         d="m 6.32422,7.30859 h 360 v 360 h -360 z"
         style="fill:#394ca8;fill-opacity:1;fill-rule:nonzero;stroke:none"
         id="path978"
         inkscape:connector-curvature="0" /><path
         d="m 6.32422,361.91 h 365.402 v 10.1992 H 6.32422 Z"
         style="fill:#394ca8;fill-opacity:1;fill-rule:nonzero;stroke:none"
         id="path980"
         inkscape:connector-curvature="0" /><path
         d="m 361.527,1.91016 h 10.1992 v 365.398 H 361.527 Z"
         style="fill:#394ca8;fill-opacity:1;fill-rule:nonzero;stroke:none"
         id="path982"
         inkscape:connector-curvature="0" /><path
         d="m 1.52734,1.91016 h 364.797 v 10.1992 H 1.52734 Z"
         style="fill:#394ca8;fill-opacity:1;fill-rule:nonzero;stroke:none"
         id="path984"
         inkscape:connector-curvature="0" /><path
         d="m 1.52734,7.30859 h 10.1992 v 364.801 H 1.52734 Z"
         style="fill:#394ca8;fill-opacity:1;fill-rule:nonzero;stroke:none"
         id="path986"
         inkscape:connector-curvature="0" /><g
         id="g988"><g
           id="g990"
           clip-path="url(#clipPath994)"><path
             d="m 42.9258,43.3086 h 288 v 288 h -288 z"
             style="fill:#908e8f;fill-opacity:1;fill-rule:nonzero;stroke:none"
             id="path996"
             inkscape:connector-curvature="0" /><path
             d="m 42.9258,325.91 h 288 v 5.69922 h -288 z"
             style="fill:#908e8f;fill-opacity:1;fill-rule:nonzero;stroke:none"
             id="path998"
             inkscape:connector-curvature="0" /><path
             d="m 326.125,43.0117 h 4.80078 v 288.297 H 326.125 Z"
             style="fill:#908e8f;fill-opacity:1;fill-rule:nonzero;stroke:none"
             id="path1000"
             inkscape:connector-curvature="0" /><path
             d="m 42.3242,43.0117 h 288.602 v 5.09766 H 42.3242 Z"
             style="fill:#908e8f;fill-opacity:1;fill-rule:nonzero;stroke:none"
             id="path1002"
             inkscape:connector-curvature="0" /><path
             d="m 42.3242,43.3086 h 6 v 288.301 h -6 z"
             style="fill:#908e8f;fill-opacity:1;fill-rule:nonzero;stroke:none"
             id="path1004"
             inkscape:connector-curvature="0" /></g></g><path
         d="m 78.9258,79.3086 h 216 v 216 h -216 z"
         style="fill:#394ca8;fill-opacity:1;fill-rule:nonzero;stroke:none"
         id="path1006"
         inkscape:connector-curvature="0" /><path
         d="m 78.9258,289.91 h 221.398 v 10.1992 H 78.9258 Z"
         style="fill:#394ca8;fill-opacity:1;fill-rule:nonzero;stroke:none"
         id="path1008"
         inkscape:connector-curvature="0" /><path
         d="m 290.125,73.9102 h 10.2031 v 221.398 H 290.125 Z"
         style="fill:#394ca8;fill-opacity:1;fill-rule:nonzero;stroke:none"
         id="path1010"
         inkscape:connector-curvature="0" /><path
         d="M 74.125,73.9102 H 294.926 V 84.1094 H 74.125 Z"
         style="fill:#394ca8;fill-opacity:1;fill-rule:nonzero;stroke:none"
         id="path1012"
         inkscape:connector-curvature="0" /><path
         d="m 74.125,79.3086 h 10.2031 v 220.801 H 74.125 Z"
         style="fill:#394ca8;fill-opacity:1;fill-rule:nonzero;stroke:none"
         id="path1014"
         inkscape:connector-curvature="0" /><path
         d="m 122.727,255.109 67.8,-130.199 v -4.801 l -9.004,4.801 66.004,130.199 4.2,2.403 h 8.398 l -3.602,-7.203 -65.996,-130.2 -4.8,-9 -4.204,9 -67.796,130.2"
         style="fill:#ffffff;fill-opacity:1;fill-rule:nonzero;stroke:none"
         id="path1016"
         inkscape:connector-curvature="0" /><path
         d="M 251.727,247.309 H 117.926 l -4.199,3 -3.602,7.199 h 141.602"
         style="fill:#ffffff;fill-opacity:1;fill-rule:nonzero;stroke:none"
         id="path1018"
         inkscape:connector-curvature="0" /><path
         d="m 156.926,153.711 v 3.598 -1.797 l -1.199,3.597 0.597,-0.601 -1.797,3.601 0.598,-1.199 -2.398,2.399 0.597,-0.598 -3,2.398 0.602,-0.601 -3,1.801 h 1.199 l -3.598,1.199 1.2,-0.598 h -7.2 l 1.797,0.598 -3.597,-1.199 h 0.597 l -3.597,-1.801 1.199,1.203 -4.801,-4.801 1.199,1.199 -1.797,-3.601 v 0.601 l -1.203,-3.597 0.602,1.797 v -7.2 l -0.602,1.2 1.203,-3.598 v 1.199 l 1.797,-3 -0.597,0.598 2.398,-3 -0.598,0.601 2.399,-2.398 -1.199,0.598 3.597,-1.797 -0.597,0.597 3.597,-1.199 h -1.797 7.2 -1.2 l 3.598,1.199 -1.199,-0.597 3,1.797 -0.602,-0.598 3,2.398 -0.597,-0.601 2.398,3 -0.598,-0.598 1.797,3 -0.597,-1.199 1.199,3.598 v -1.2 3.602 h 10.199 v -3.602 l -0.598,-1.8 c -5.632,-24.84 -40.312,-24.809 -46.8,0 v 5.402 c -0.493,28.758 41.089,32.32 46.8,4.797 l 0.598,-1.199 v -3.598"
         style="fill:#ffffff;fill-opacity:1;fill-rule:nonzero;stroke:none"
         id="path1020"
         inkscape:connector-curvature="0" /><path
         d="m 156.926,153.711 h 10.199"
         style="fill:#ffffff;fill-opacity:1;fill-rule:nonzero;stroke:none"
         id="path1022"
         inkscape:connector-curvature="0" /><path
         d="m 182.125,247.91 h 10.1992 v 4.80078 H 182.125 Z"
         style="fill:#ffffff;fill-opacity:1;fill-rule:nonzero;stroke:none"
         id="path1024"
         inkscape:connector-curvature="0" /><path
         d="m 182.125,252.711 h 10.1992 v 39.5977 H 182.125 Z"
         style="fill:#ffffff;fill-opacity:1;fill-rule:nonzero;stroke:none"
         id="path1026"
         inkscape:connector-curvature="0" /><path
         d="m 138.324,95.5117 h 10.2031 v 4.79688 H 138.324 Z"
         style="fill:#ffffff;fill-opacity:1;fill-rule:nonzero;stroke:none"
         id="path1028"
         inkscape:connector-curvature="0" /><path
         d="m 138.324,100.309 h 10.2031 v 39.6016 H 138.324 Z"
         style="fill:#ffffff;fill-opacity:1;fill-rule:nonzero;stroke:none"
         id="path1030"
         inkscape:connector-curvature="0" /><path
         d="m 180.926,87.1094 h 10.1992 v 4.80078 H 180.926 Z"
         style="fill:#ffffff;fill-opacity:1;fill-rule:nonzero;stroke:none"
         id="path1032"
         inkscape:connector-curvature="0" /><path
         d="m 180.926,91.9102 h 10.1992 v 36.5977 H 180.926 Z"
         style="fill:#ffffff;fill-opacity:1;fill-rule:nonzero;stroke:none"
         id="path1034"
         inkscape:connector-curvature="0" /><g
         id="g1036"><g
           id="g1038"
           clip-path="url(#clipPath1042)" /></g></g></g></svg>