<?xml version="1.0" encoding="UTF-8" standalone="no"?>
<!-- Created with Inkscape (http://www.inkscape.org/) -->

<svg
   xmlns:dc="http://purl.org/dc/elements/1.1/"
   xmlns:cc="http://creativecommons.org/ns#"
   xmlns:rdf="http://www.w3.org/1999/02/22-rdf-syntax-ns#"
   xmlns:svg="http://www.w3.org/2000/svg"
   xmlns="http://www.w3.org/2000/svg"
   xmlns:sodipodi="http://sodipodi.sourceforge.net/DTD/sodipodi-0.dtd"
   xmlns:inkscape="http://www.inkscape.org/namespaces/inkscape"
   version="1.1"
   id="svg410"
   xml:space="preserve"
   width="49.813332"
   height="49.893333"
   viewBox="0 0 49.813332 49.893333"
   sodipodi:docname="Logo_Ch_10.svg"
   inkscape:version="0.92.1 r15371"><metadata
     id="metadata416"><rdf:RDF><cc:Work
         rdf:about=""><dc:format>image/svg+xml</dc:format><dc:type
           rdf:resource="http://purl.org/dc/dcmitype/StillImage" /><dc:title></dc:title></cc:Work></rdf:RDF></metadata><defs
     id="defs414"><clipPath
       clipPathUnits="userSpaceOnUse"
       id="clipPath428"><path
         d=""
         id="path426"
         inkscape:connector-curvature="0"
         style="clip-rule:evenodd" /></clipPath><clipPath
       clipPathUnits="userSpaceOnUse"
       id="clipPath436"><path
         d=""
         id="path434"
         inkscape:connector-curvature="0"
         style="clip-rule:evenodd" /></clipPath><clipPath
       clipPathUnits="userSpaceOnUse"
       id="clipPath454"><path
         d="m 42.3242,43.582 h 288 v 288 h -288 z"
         id="path452"
         inkscape:connector-curvature="0"
         style="clip-rule:evenodd" /></clipPath></defs><sodipodi:namedview
     pagecolor="#ffffff"
     bordercolor="#666666"
     borderopacity="1"
     objecttolerance="10"
     gridtolerance="10"
     guidetolerance="10"
     inkscape:pageopacity="0"
     inkscape:pageshadow="2"
     inkscape:window-width="640"
     inkscape:window-height="480"
     id="namedview412"
     showgrid="false"
     inkscape:zoom="4.7300909"
     inkscape:cx="24.906666"
     inkscape:cy="24.946667"
     inkscape:window-x="0"
     inkscape:window-y="0"
     inkscape:window-maximized="0"
     inkscape:current-layer="g418" /><g
     id="g418"
     inkscape:groupmode="layer"
     inkscape:label="ink_ext_XXXXXX"
     transform="matrix(1.3333333,0,0,-1.3333333,0,49.893333)"><g
       id="g420"
       transform="scale(0.1)"><g
         id="g422"><g
           id="g424"
           clip-path="url(#clipPath428)" /></g><g
         id="g430"><g
           id="g432"
           clip-path="url(#clipPath436)" /></g><path
         d="m 6.32422,7.58203 h 360 v 360 h -360 z"
         style="fill:#394ca8;fill-opacity:1;fill-rule:nonzero;stroke:none"
         id="path438"
         inkscape:connector-curvature="0" /><path
         d="m 6.32422,362.184 h 365.402 v 10.1992 H 6.32422 Z"
         style="fill:#394ca8;fill-opacity:1;fill-rule:nonzero;stroke:none"
         id="path440"
         inkscape:connector-curvature="0" /><path
         d="m 361.527,2.18359 h 10.1992 v 365.398 H 361.527 Z"
         style="fill:#394ca8;fill-opacity:1;fill-rule:nonzero;stroke:none"
         id="path442"
         inkscape:connector-curvature="0" /><path
         d="m 1.52734,2.18359 h 364.797 v 10.1992 H 1.52734 Z"
         style="fill:#394ca8;fill-opacity:1;fill-rule:nonzero;stroke:none"
         id="path444"
         inkscape:connector-curvature="0" /><path
         d="m 1.52734,7.58203 h 10.1992 v 364.801 H 1.52734 Z"
         style="fill:#394ca8;fill-opacity:1;fill-rule:nonzero;stroke:none"
         id="path446"
         inkscape:connector-curvature="0" /><g
         id="g448"><g
           id="g450"
           clip-path="url(#clipPath454)"><path
             d="m 42.3242,43.582 h 288 v 288 h -288 z"
             style="fill:#908e8f;fill-opacity:1;fill-rule:nonzero;stroke:none"
             id="path456"
             inkscape:connector-curvature="0" /><path
             d="m 42.3242,326.184 h 288 v 5.69922 h -288 z"
             style="fill:#908e8f;fill-opacity:1;fill-rule:nonzero;stroke:none"
             id="path458"
             inkscape:connector-curvature="0" /><path
             d="m 325.527,43.2813 h 4.79688 v 288.301 H 325.527 Z"
             style="fill:#908e8f;fill-opacity:1;fill-rule:nonzero;stroke:none"
             id="path460"
             inkscape:connector-curvature="0" /><path
             d="m 41.7266,43.2813 h 288.598 v 5.10156 H 41.7266 Z"
             style="fill:#908e8f;fill-opacity:1;fill-rule:nonzero;stroke:none"
             id="path462"
             inkscape:connector-curvature="0" /><path
             d="m 41.7266,43.582 h 6 v 288.301 h -6 z"
             style="fill:#908e8f;fill-opacity:1;fill-rule:nonzero;stroke:none"
             id="path464"
             inkscape:connector-curvature="0" /></g></g><path
         d="m 78.3242,79.582 h 216 v 216 h -216 z"
         style="fill:#394ca8;fill-opacity:1;fill-rule:nonzero;stroke:none"
         id="path466"
         inkscape:connector-curvature="0" /><path
         d="m 78.3242,290.184 h 221.402 v 10.1992 H 78.3242 Z"
         style="fill:#394ca8;fill-opacity:1;fill-rule:nonzero;stroke:none"
         id="path468"
         inkscape:connector-curvature="0" /><path
         d="m 289.527,74.1836 h 10.1992 v 221.398 H 289.527 Z"
         style="fill:#394ca8;fill-opacity:1;fill-rule:nonzero;stroke:none"
         id="path470"
         inkscape:connector-curvature="0" /><path
         d="m 73.5273,74.1836 h 220.797 V 84.3828 H 73.5273 Z"
         style="fill:#394ca8;fill-opacity:1;fill-rule:nonzero;stroke:none"
         id="path472"
         inkscape:connector-curvature="0" /><path
         d="M 73.5273,79.582 H 83.7265 V 300.383 H 73.5273 Z"
         style="fill:#394ca8;fill-opacity:1;fill-rule:nonzero;stroke:none"
         id="path474"
         inkscape:connector-curvature="0" /><path
         d="m 96.9258,182.184 h 4.80078 v 10.1992 H 96.9258 Z"
         style="fill:#d3d2d3;fill-opacity:1;fill-rule:nonzero;stroke:none"
         id="path476"
         inkscape:connector-curvature="0" /><path
         d="m 101.727,182.184 h 174.598 v 10.1992 H 101.727 Z"
         style="fill:#d3d2d3;fill-opacity:1;fill-rule:nonzero;stroke:none"
         id="path478"
         inkscape:connector-curvature="0" /><path
         d="m 94.5273,191.184 -1.2031,-8.403 17.4028,-3 1.199,8.403"
         style="fill:#ffffff;fill-opacity:1;fill-rule:nonzero;stroke:none"
         id="path480"
         inkscape:connector-curvature="0" /><path
         d="m 94.5273,191.184 1.8008,10.199 v 0.601 l 2.3985,9 1.8004,8.399 v 0.597 l 2.399,7.801 1.801,6.602 0.597,0.597 2.403,6.004 v 0.598 l 2.398,5.402 2.402,4.797 v -0.597 l 1.797,4.199 c 5.871,12.719 22.133,24.918 36.602,16.801 l 2.398,-1.2 h -0.597 l 3,-1.203 3,-1.797 2.398,-2.402 -1.199,0.602 2.398,-1.801 1.203,-0.602 6,-6 2.399,-3 v -0.597 l 5.398,-7.2 c 11.703,-15.101 21.543,-32.043 32.403,-48 l 10.8,-14.402 -0.601,1.199 3.601,-3.597 2.399,-3 -0.602,0.597 5.403,-5.398 -1.2,0.597 3,-2.398 2.399,-1.801 -1.801,1.203 3,-1.203 h 0.602 l -7.801,-15.597 0.601,-0.602 -3,1.199 c -4.722,2.942 -11.562,7.782 -14.402,12.602 l -2.398,3 0.597,-1.199 -3,3 -0.597,1.199 -10.801,14.398 -0.602,0.602 -5.398,8.398 v -0.597 l -5.399,7.796 v 0.602 l -10.8,16.801 v -0.602 l -5.403,7.801 h 0.602 l -10.801,14.402 -2.398,3 0.597,-1.203 -5.398,5.403 1.199,-0.602 -2.398,1.801 -1.2,0.601 -2.402,2.399 3,-1.801 -3,1.199 -0.598,0.602 -4.8,2.398 1.8,-0.597 -2.402,0.597 1.801,-0.597 h -2.399 l 1.797,0.597 -3,-0.597 h 0.602 l -2.399,-0.602 3,1.199 -4.8,-3.597 1.199,0.597 -2.399,-2.398 0.598,1.199 -2.398,-3 v 0.602 l -2.403,-3.602 1.203,1.199 -1.8,-4.199 -0.602,-0.598 -2.398,-4.8 0.597,0.597 -2.398,-5.398 -2.399,-6 v 1.199 l -1.8,-6.598 v -0.601 l -2.403,-7.801 v 1.199 l -1.797,-8.398 v -0.602 l -2.402,-9 0.602,0.602 -1.801,-10.199"
         style="fill:#ffffff;fill-opacity:1;fill-rule:nonzero;stroke:none"
         id="path482"
         inkscape:connector-curvature="0" /><path
         d="m 236.727,170.781 2.398,-1.199 -2.398,0.602 3,-0.602 h 0.597 l 2.403,-0.602 h -2.403 2.403 -1.801 l 3,0.602 -1.801,-0.602 2.402,1.204 -1.203,-1.204 2.403,1.801 0.597,0.602 3,1.801 -2.398,-1.801 4.801,6 -0.602,-0.602 2.402,3.602 -0.601,-1.199 2.398,4.796 15.602,-7.796 -2.399,-4.801 c -3.261,-4.59 -5.66,-9.141 -10.203,-13.199 l -3,-1.801 0.602,0.601 -2.399,-1.8 c -9.519,-4.621 -12.511,-4.141 -22.203,-1.204 l -2.398,1.204"
         style="fill:#ffffff;fill-opacity:1;fill-rule:nonzero;stroke:none"
         id="path484"
         inkscape:connector-curvature="0" /><path
         d="m 257.727,188.781 3.597,7.801 15.602,-7.801 -3.602,-7.801"
         style="fill:#ffffff;fill-opacity:1;fill-rule:nonzero;stroke:none"
         id="path486"
         inkscape:connector-curvature="0" /><path
         d="m 255.324,183.984 15.602,-7.8 2.398,4.8 -15.597,7.797"
         style="fill:#ffffff;fill-opacity:1;fill-rule:nonzero;stroke:none"
         id="path488"
         inkscape:connector-curvature="0" /></g></g></svg>