<?xml version="1.0" encoding="UTF-8" standalone="no"?>
<!-- Created with Inkscape (http://www.inkscape.org/) -->

<svg
   xmlns:dc="http://purl.org/dc/elements/1.1/"
   xmlns:cc="http://creativecommons.org/ns#"
   xmlns:rdf="http://www.w3.org/1999/02/22-rdf-syntax-ns#"
   xmlns:svg="http://www.w3.org/2000/svg"
   xmlns="http://www.w3.org/2000/svg"
   xmlns:sodipodi="http://sodipodi.sourceforge.net/DTD/sodipodi-0.dtd"
   xmlns:inkscape="http://www.inkscape.org/namespaces/inkscape"
   version="1.1"
   id="svg21"
   xml:space="preserve"
   width="60.360001"
   height="60.360001"
   viewBox="0 0 60.360001 60.360001"
   sodipodi:docname="Logo_Ch_13.svg"
   inkscape:version="0.92.1 r15371"><metadata
     id="metadata27"><rdf:RDF><cc:Work
         rdf:about=""><dc:format>image/svg+xml</dc:format><dc:type
           rdf:resource="http://purl.org/dc/dcmitype/StillImage" /><dc:title></dc:title></cc:Work></rdf:RDF></metadata><defs
     id="defs25" /><sodipodi:namedview
     pagecolor="#ffffff"
     bordercolor="#666666"
     borderopacity="1"
     objecttolerance="10"
     gridtolerance="10"
     guidetolerance="10"
     inkscape:pageopacity="0"
     inkscape:pageshadow="2"
     inkscape:window-width="1920"
     inkscape:window-height="1017"
     id="namedview23"
     showgrid="false"
     inkscape:zoom="3.909874"
     inkscape:cx="30.18"
     inkscape:cy="30.18"
     inkscape:window-x="-8"
     inkscape:window-y="-8"
     inkscape:window-maximized="1"
     inkscape:current-layer="g29" /><g
     id="g29"
     inkscape:groupmode="layer"
     inkscape:label="ink_ext_XXXXXX"
     transform="matrix(1.3333333,0,0,-1.3333333,0,60.36)"><g
       id="g31"
       transform="scale(0.1)"><path
         d="m 1.63672,1.63672 h 450 v 450 h -450 z"
         style="fill:#ee2834;fill-opacity:1;fill-rule:evenodd;stroke:none"
         id="path33"
         inkscape:connector-curvature="0" /><path
         d="m 1.63672,1.63672 h 450 v 450 h -450 z"
         style="fill:none;stroke:#c5c6c6;stroke-width:1.73000002;stroke-linecap:butt;stroke-linejoin:miter;stroke-miterlimit:4;stroke-dasharray:none;stroke-opacity:1"
         id="path35"
         inkscape:connector-curvature="0" /><path
         d="m 46.6367,46.6367 h 360 v 360 h -360 z"
         style="fill:#21265f;fill-opacity:1;fill-rule:nonzero;stroke:none"
         id="path37"
         inkscape:connector-curvature="0" /><path
         d="M 91.6367,91.6367 361.637,361.637"
         style="fill:none;stroke:#efed06;stroke-width:16.00079918;stroke-linecap:butt;stroke-linejoin:miter;stroke-miterlimit:4;stroke-dasharray:none;stroke-opacity:1"
         id="path39"
         inkscape:connector-curvature="0" /><path
         d="m 181.637,294.137 c 12.461,0 22.5,-10.039 22.5,-22.5 0,-20.039 -24.223,-30.078 -38.403,-15.899 -14.179,14.18 -4.136,38.399 15.903,38.399"
         style="fill:#efed06;fill-opacity:1;fill-rule:evenodd;stroke:none"
         id="path41"
         inkscape:connector-curvature="0" /><path
         d="m 181.637,294.137 c 12.461,0 22.5,-10.039 22.5,-22.5 0,-20.039 -24.223,-30.078 -38.403,-15.899 -14.179,14.18 -4.136,38.399 15.903,38.399 z"
         style="fill:none;stroke:#efed06;stroke-width:1.72800004;stroke-linecap:butt;stroke-linejoin:miter;stroke-miterlimit:4;stroke-dasharray:none;stroke-opacity:1"
         id="path43"
         inkscape:connector-curvature="0" /><path
         d="m 316.637,249.137 c 12.461,0 22.5,-10.039 22.5,-22.5 0,-20.039 -24.219,-30.078 -38.403,-15.899 -14.179,14.18 -4.136,38.399 15.903,38.399"
         style="fill:#efed06;fill-opacity:1;fill-rule:evenodd;stroke:none"
         id="path45"
         inkscape:connector-curvature="0" /><path
         d="m 316.637,249.137 c 12.461,0 22.5,-10.039 22.5,-22.5 0,-20.039 -24.219,-30.078 -38.403,-15.899 -14.179,14.18 -4.136,38.399 15.903,38.399 z"
         style="fill:none;stroke:#efed06;stroke-width:1.72800004;stroke-linecap:butt;stroke-linejoin:miter;stroke-miterlimit:4;stroke-dasharray:none;stroke-opacity:1"
         id="path47"
         inkscape:connector-curvature="0" /><path
         d="m 181.637,114.137 c 12.461,0 22.5,-10.039 22.5,-22.5003 0,-20.039 -24.223,-30.0781 -38.403,-15.8984 -14.179,14.1797 -4.136,38.3987 15.903,38.3987"
         style="fill:#efed06;fill-opacity:1;fill-rule:evenodd;stroke:none"
         id="path49"
         inkscape:connector-curvature="0" /><path
         d="m 181.637,114.137 c 12.461,0 22.5,-10.039 22.5,-22.5003 0,-20.039 -24.223,-30.0781 -38.403,-15.8984 -14.179,14.1797 -4.136,38.3987 15.903,38.3987 z"
         style="fill:none;stroke:#efed06;stroke-width:1.72800004;stroke-linecap:butt;stroke-linejoin:miter;stroke-miterlimit:4;stroke-dasharray:none;stroke-opacity:1"
         id="path51"
         inkscape:connector-curvature="0" /></g></g></svg>