<?xml version="1.0" encoding="UTF-8"?>
<svg xmlns="http://www.w3.org/2000/svg" xmlns:xlink="http://www.w3.org/1999/xlink" width="37.091pt" height="37.091pt" viewBox="0 0 37.091 37.091" version="1.1">
<defs>
<clipPath id="clip1">
  <path d="M 0 0 L 37.089844 0 L 37.089844 2 L 0 2 Z M 0 0 "/>
</clipPath>
<clipPath id="clip2">
  <path d="M 36 0 L 37.089844 0 L 37.089844 37.089844 L 36 37.089844 Z M 36 0 "/>
</clipPath>
<clipPath id="clip3">
  <path d="M 0 36 L 37 36 L 37 37.089844 L 0 37.089844 Z M 0 36 "/>
</clipPath>
<clipPath id="clip4">
  <path d="M 4.128906 4.128906 L 32.929688 4.128906 L 32.929688 32.929688 L 4.128906 32.929688 Z M 4.128906 4.128906 "/>
</clipPath>
<clipPath id="clip5">
  <path d="M 4.128906 4.128906 L 32.929688 4.128906 L 32.929688 5 L 4.128906 5 Z M 4.128906 4.128906 "/>
</clipPath>
<clipPath id="clip6">
  <path d="M 32 4.128906 L 32.929688 4.128906 L 32.929688 32.929688 L 32 32.929688 Z M 32 4.128906 "/>
</clipPath>
<clipPath id="clip7">
  <path d="M 4.128906 32 L 32.929688 32 L 32.929688 32.929688 L 4.128906 32.929688 Z M 4.128906 32 "/>
</clipPath>
<clipPath id="clip8">
  <path d="M 4.128906 4.128906 L 5 4.128906 L 5 32.929688 L 4.128906 32.929688 Z M 4.128906 4.128906 "/>
</clipPath>
</defs>
<g id="surface1">
<path style=" stroke:none;fill-rule:nonzero;fill:rgb(0%,0%,100%);fill-opacity:1;" d="M 0.527344 36.527344 L 36.527344 36.527344 L 36.527344 0.527344 L 0.527344 0.527344 Z M 0.527344 36.527344 "/>
<g clip-path="url(#clip1)" clip-rule="nonzero">
<path style=" stroke:none;fill-rule:nonzero;fill:rgb(0%,0%,100%);fill-opacity:1;" d="M 0.527344 1.070312 L 37.070312 1.070312 L 37.070312 0.0507812 L 0.527344 0.0507812 Z M 0.527344 1.070312 "/>
</g>
<g clip-path="url(#clip2)" clip-rule="nonzero">
<path style=" stroke:none;fill-rule:nonzero;fill:rgb(0%,0%,100%);fill-opacity:1;" d="M 36.050781 37.070312 L 37.070312 37.070312 L 37.070312 0.527344 L 36.050781 0.527344 Z M 36.050781 37.070312 "/>
</g>
<g clip-path="url(#clip3)" clip-rule="nonzero">
<path style=" stroke:none;fill-rule:nonzero;fill:rgb(0%,0%,100%);fill-opacity:1;" d="M 0.0507812 37.070312 L 36.527344 37.070312 L 36.527344 36.050781 L 0.0507812 36.050781 Z M 0.0507812 37.070312 "/>
</g>
<path style=" stroke:none;fill-rule:nonzero;fill:rgb(0%,0%,100%);fill-opacity:1;" d="M 0.0507812 36.527344 L 1.070312 36.527344 L 1.070312 0.0507812 L 0.0507812 0.0507812 Z M 0.0507812 36.527344 "/>
<g clip-path="url(#clip4)" clip-rule="nonzero">
<path style=" stroke:none;fill-rule:nonzero;fill:rgb(49.598694%,49.598694%,49.598694%);fill-opacity:1;" d="M 4.128906 32.929688 L 32.929688 32.929688 L 32.929688 4.128906 L 4.128906 4.128906 Z M 4.128906 32.929688 "/>
</g>
<g clip-path="url(#clip5)" clip-rule="nonzero">
<path style=" stroke:none;fill-rule:nonzero;fill:rgb(49.598694%,49.598694%,49.598694%);fill-opacity:1;" d="M 4.128906 4.667969 L 32.929688 4.667969 L 32.929688 4.097656 L 4.128906 4.097656 Z M 4.128906 4.667969 "/>
</g>
<g clip-path="url(#clip6)" clip-rule="nonzero">
<path style=" stroke:none;fill-rule:nonzero;fill:rgb(49.598694%,49.598694%,49.598694%);fill-opacity:1;" d="M 32.449219 32.960938 L 32.929688 32.960938 L 32.929688 4.128906 L 32.449219 4.128906 Z M 32.449219 32.960938 "/>
</g>
<g clip-path="url(#clip7)" clip-rule="nonzero">
<path style=" stroke:none;fill-rule:nonzero;fill:rgb(49.598694%,49.598694%,49.598694%);fill-opacity:1;" d="M 4.070312 32.960938 L 32.929688 32.960938 L 32.929688 32.449219 L 4.070312 32.449219 Z M 4.070312 32.960938 "/>
</g>
<g clip-path="url(#clip8)" clip-rule="nonzero">
<path style=" stroke:none;fill-rule:nonzero;fill:rgb(49.598694%,49.598694%,49.598694%);fill-opacity:1;" d="M 4.070312 32.929688 L 4.667969 32.929688 L 4.667969 4.097656 L 4.070312 4.097656 Z M 4.070312 32.929688 "/>
</g>
<path style=" stroke:none;fill-rule:nonzero;fill:rgb(0%,0%,100%);fill-opacity:1;" d="M 7.730469 29.328125 L 29.328125 29.328125 L 29.328125 7.730469 L 7.730469 7.730469 Z M 7.730469 29.328125 "/>
<path style=" stroke:none;fill-rule:nonzero;fill:rgb(0%,0%,100%);fill-opacity:1;" d="M 7.730469 8.269531 L 29.867188 8.269531 L 29.867188 7.25 L 7.730469 7.25 Z M 7.730469 8.269531 "/>
<path style=" stroke:none;fill-rule:nonzero;fill:rgb(0%,0%,100%);fill-opacity:1;" d="M 28.847656 29.867188 L 29.867188 29.867188 L 29.867188 7.730469 L 28.847656 7.730469 Z M 28.847656 29.867188 "/>
<path style=" stroke:none;fill-rule:nonzero;fill:rgb(0%,0%,100%);fill-opacity:1;" d="M 7.25 29.867188 L 29.328125 29.867188 L 29.328125 28.847656 L 7.25 28.847656 Z M 7.25 29.867188 "/>
<path style=" stroke:none;fill-rule:nonzero;fill:rgb(0%,0%,100%);fill-opacity:1;" d="M 7.25 29.328125 L 8.269531 29.328125 L 8.269531 7.25 L 7.25 7.25 Z M 7.25 29.328125 "/>
<path style=" stroke:none;fill-rule:nonzero;fill:rgb(100%,100%,100%);fill-opacity:1;" d="M 17.027344 14.6875 L 20.027344 14.6875 L 20.027344 13.1875 L 17.027344 13.1875 Z M 17.027344 14.6875 "/>
<path style=" stroke:none;fill-rule:nonzero;fill:rgb(100%,100%,100%);fill-opacity:1;" d="M 17.027344 28.1875 L 20.027344 28.1875 L 20.027344 14.6875 L 17.027344 14.6875 Z M 17.027344 28.1875 "/>
<path style=" stroke:none;fill-rule:nonzero;fill:rgb(100%,100%,100%);fill-opacity:1;" d="M 21.589844 28.1875 L 24.589844 28.1875 L 24.589844 26.6875 L 21.589844 26.6875 Z M 21.589844 28.1875 "/>
<path style=" stroke:none;fill-rule:nonzero;fill:rgb(100%,100%,100%);fill-opacity:1;" d="M 21.589844 26.6875 L 21.589844 18.347656 L 21.648438 17.328125 L 21.648438 17.390625 L 21.648438 16.609375 L 21.710938 16.308594 L 21.828125 15.710938 L 21.769531 16.007812 L 21.769531 15.769531 C 21.804688 15.300781 21.941406 15.101562 22.070312 14.6875 L 22.128906 14.570312 L 22.070312 14.75 L 22.128906 14.570312 L 22.488281 14.027344 L 22.550781 13.96875 L 22.667969 13.847656 L 22.730469 13.789062 L 23.089844 13.488281 L 23.210938 13.429688 L 23.867188 13.25 L 23.988281 13.25 L 23.328125 13.429688 L 23.449219 13.367188 L 24.109375 13.1875 L 24.109375 16.1875 L 24.769531 16.070312 L 24.648438 16.128906 L 23.988281 16.25 L 23.867188 16.25 L 24.527344 16.128906 L 24.410156 16.1875 L 24.828125 15.890625 L 24.589844 16.128906 L 24.949219 15.527344 L 24.890625 15.710938 L 24.828125 15.890625 L 24.769531 16.007812 L 24.828125 15.828125 L 24.769531 16.007812 L 24.828125 15.890625 L 24.769531 16.128906 L 24.769531 15.769531 L 24.769531 16.308594 L 24.648438 16.910156 L 24.648438 16.609375 L 24.648438 17.507812 L 24.589844 18.527344 L 24.589844 18.410156 L 24.589844 26.6875 "/>
<path style=" stroke:none;fill-rule:nonzero;fill:rgb(100%,100%,100%);fill-opacity:1;" d="M 24.109375 16.1875 L 24.230469 16.1875 L 24.230469 13.1875 L 24.109375 13.1875 Z M 24.109375 16.1875 "/>
<path style=" stroke:none;fill-rule:nonzero;fill:rgb(100%,100%,100%);fill-opacity:1;" d="M 24.230469 16.1875 L 26.328125 16.1875 L 26.328125 13.1875 L 24.230469 13.1875 Z M 24.230469 16.1875 "/>
<path style=" stroke:none;fill-rule:nonzero;fill:rgb(100%,100%,100%);fill-opacity:1;" d="M 12.46875 28.1875 L 15.46875 28.1875 L 15.46875 26.6875 L 12.46875 26.6875 Z M 12.46875 28.1875 "/>
<path style=" stroke:none;fill-rule:nonzero;fill:rgb(100%,100%,100%);fill-opacity:1;" d="M 12.46875 26.6875 L 12.46875 22.609375 L 12.46875 22.667969 L 12.410156 19.609375 L 12.410156 18.410156 L 12.410156 18.527344 L 12.347656 17.507812 L 12.347656 16.609375 L 12.347656 16.789062 L 12.289062 16.1875 L 12.347656 16.367188 L 12.230469 15.890625 L 12.289062 16.007812 L 12.230469 15.828125 L 12.289062 16.007812 L 12.230469 15.890625 L 12.167969 15.710938 L 12.109375 15.527344 L 12.46875 16.128906 L 12.230469 15.890625 L 12.589844 16.1875 L 12.46875 16.128906 L 13.128906 16.25 L 13.070312 16.25 L 12.410156 16.128906 L 12.289062 16.070312 L 12.949219 16.1875 L 12.949219 13.1875 L 13.609375 13.367188 L 13.730469 13.429688 L 13.070312 13.25 L 13.128906 13.25 L 13.789062 13.429688 L 13.910156 13.488281 L 14.328125 13.789062 L 14.570312 14.027344 L 14.929688 14.570312 L 14.988281 14.75 L 14.929688 14.570312 L 14.988281 14.6875 C 15.308594 15.527344 15.292969 15.648438 15.347656 16.609375 L 15.347656 17.390625 L 15.347656 17.328125 L 15.410156 18.347656 L 15.410156 19.550781 L 15.46875 22.609375 L 15.46875 26.6875 "/>
<path style=" stroke:none;fill-rule:nonzero;fill:rgb(100%,100%,100%);fill-opacity:1;" d="M 12.769531 16.1875 L 12.949219 16.1875 L 12.949219 13.1875 L 12.769531 13.1875 Z M 12.769531 16.1875 "/>
<path style=" stroke:none;fill-rule:nonzero;fill:rgb(100%,100%,100%);fill-opacity:1;" d="M 10.667969 16.1875 L 12.769531 16.1875 L 12.769531 13.1875 L 10.667969 13.1875 Z M 10.667969 16.1875 "/>
<path style=" stroke:none;fill-rule:nonzero;fill:rgb(100%,100%,100%);fill-opacity:1;" d="M 9.109375 12.167969 L 10.609375 12.167969 L 10.609375 9.167969 L 9.109375 9.167969 Z M 9.109375 12.167969 "/>
<path style=" stroke:none;fill-rule:nonzero;fill:rgb(100%,100%,100%);fill-opacity:1;" d="M 10.609375 12.167969 L 27.828125 12.167969 L 27.828125 9.167969 L 10.609375 9.167969 Z M 10.609375 12.167969 "/>
</g>
</svg>
