<?xml version="1.0" encoding="utf-8"?>
<!-- Generator: Adobe Illustrator 21.0.0, SVG Export Plug-In . SVG Version: 6.00 Build 0)  -->
<svg version="1.0" id="Layer_1" xmlns="http://www.w3.org/2000/svg" xmlns:xlink="http://www.w3.org/1999/xlink" x="0px" y="0px"
	 viewBox="0 0 651 213" style="enable-background:new 0 0 651 213;" xml:space="preserve">
<style type="text/css">
	.st0{fill:#F6C544;}
	.st1{fill:none;stroke:#282D33;stroke-width:4;}
	.st2{fill:none;stroke:#282D33;stroke-width:4;stroke-dasharray:4;}
	.st3{fill:none;stroke:#282D33;stroke-width:4;stroke-miterlimit:10;}
	.st4{fill:#FFFFFF;}
	.st5{fill:#F6C544;stroke:#282D33;stroke-width:4;stroke-miterlimit:10;}
	.st6{fill:none;stroke:#282D33;stroke-width:4;stroke-linejoin:bevel;}
</style>
<path class="st0" d="M267.5,134.9c-4,4.6-13.2,12.7-28.3,16.2c-6.9,1.6-12.8,1.9-19.9,1.9h-48.7V28.8h39.6c3.9,0,7.6,0,11.3,0.2
	c5.3,0.4,26,0.9,41.1,13.4c2.3,1.8,6,5.1,9.8,11.3c4.4,6.9,9.3,17.9,9.3,36.2C281.8,113.2,274.2,127.1,267.5,134.9z M243.6,65.2
	c-1.8-2.1-5.5-6.3-12.1-8.4c-5.8-1.9-11.1-1.8-17.1-1.8h-12.5v73h9.5c9.1,0,19.7-0.5,27.8-6.5c6.3-4.7,11.4-13.7,11.4-30.6
	C250.7,81.4,249.6,72.8,243.6,65.2z"/>
<path class="st0" d="M301.5,153.5V29.4h91.8v23.9h-60.8V76h56.8v23.6h-56.8v29.5h66.5v24.4H301.5z"/>
<path class="st0" d="M420.2,153.5V29.4H512v23.9h-60.8V76h56.8v23.6h-56.8v29.5h66.5v24.4H420.2z"/>
<path class="st1" d="M272.9,53.6c4.4,6.9,9.3,17.9,9.3,36.2c0,23.4-7.6,37.3-14.2,45c-4,4.6-13.2,12.7-28.3,16.2
	c-6.9,1.6-12.8,1.9-19.9,1.9h-98"/>
<g>
	<g>
		<path class="st1" d="M440.1,129.1l-51.6,0c-0.7-3.6-2-5.8-3.8-8.8l6.5-7.6l-7.7-7.7l-7.4,6.3c-2.9-2-6.2-3.4-9.7-4.3l-0.8-10
			h-10.9l-0.8,9.7c-3.6,0.7-6.9,2-9.9,3.8l-7.6-6.5l-7.7,7.7l6.3,7.4c-2,2.9-3.4,5.4-4.3,8.9h-13.5"/>
		<path class="st1" d="M338.5,135.7c0-11.5,9.3-20.9,20.9-20.9"/>
		<path class="st1" d="M347.3,135.7c0-6.7,5.4-12.1,12.1-12.1c6.7,0,12.1,5.4,12.1,12.1"/>
	</g>
</g>
<g>
	<g>
		<line class="st1" x1="350.5" y1="52.1" x2="433.6" y2="52.1"/>
		<line class="st1" x1="326.9" y1="62" x2="384.2" y2="62"/>
	</g>
</g>
<g>
	<g>
		<line class="st1" x1="302" y1="154.6" x2="495.3" y2="154.6"/>
	</g>
</g>
<g>
	<path class="st0" d="M628.9,42.2c8.7,7.6,13.1,18.3,13.1,32.2c0,14.6-4.4,26-13.1,34.1c-8.7,8.1-21,12.1-36.8,12.1h-22.1V155h-32.4
		V30.8H592C607.9,30.8,620.1,34.6,628.9,42.2z M605.8,89.8c3.6-3.3,5.4-8.1,5.4-14.3c0-6-1.8-10.7-5.4-13.9
		c-3.6-3.2-8.7-4.9-15.3-4.9h-20.5v38.1h20.5C597.1,94.7,602.2,93.1,605.8,89.8z"/>
	<path class="st2" d="M592,30.8c15.8,0,28.1,3.8,36.8,11.4c8.7,7.6,13.1,18.3,13.1,32.2c0,14.6-4.4,26-13.1,34.1
		c-8.7,8.1-21,12.1-36.8,12.1h-22.1"/>
</g>
<rect x="42.2" y="52" class="st0" width="24.1" height="24.1"/>
<rect x="41.5" y="51.3" class="st3" width="49.5" height="50.9"/>
<g>
	<g>
		<line class="st1" x1="590" y1="97.8" x2="494" y2="97.8"/>
	</g>
</g>
<g>
	<g>
		<line class="st1" x1="517.8" y1="85.9" x2="471.4" y2="85.9"/>
	</g>
</g>
<line class="st3" x1="67" y1="50.6" x2="67" y2="101.5"/>
<line class="st3" x1="91.8" y1="76.8" x2="40.9" y2="76.8"/>
<rect x="42.2" y="102.9" class="st0" width="24.1" height="24.1"/>
<rect x="41.5" y="102.2" class="st3" width="49.5" height="50.9"/>
<line class="st3" x1="67" y1="101.5" x2="67" y2="152.4"/>
<line class="st3" x1="91.8" y1="127.6" x2="40.9" y2="127.6"/>
<rect x="17.4" y="52" class="st0" width="24.1" height="24.1"/>
<rect x="16.7" y="51.3" class="st3" width="24.7" height="50.9"/>
<line class="st3" x1="42.1" y1="76.8" x2="16.1" y2="76.8"/>
<rect x="17.4" y="102.9" class="st0" width="24.1" height="24.1"/>
<rect x="16.7" y="102.2" class="st3" width="24.7" height="50.9"/>
<line class="st3" x1="42.1" y1="127.6" x2="16.1" y2="127.6"/>
<rect x="91.8" y="52" class="st4" width="24.1" height="24.1"/>
<rect x="91.1" y="51.3" class="st5" width="49.5" height="50.9"/>
<line class="st3" x1="116.5" y1="50.6" x2="116.5" y2="101.5"/>
<rect x="42.2" y="29.3" class="st0" width="24.1" height="24.1"/>
<rect x="41.5" y="28.7" class="st3" width="49.5" height="22.8"/>
<line class="st3" x1="67" y1="28" x2="67" y2="50.8"/>
<rect x="17.4" y="29.3" class="st0" width="24.1" height="24.1"/>
<rect x="16.7" y="28.7" class="st3" width="24.7" height="22.8"/>
<rect x="91.8" y="29.3" class="st4" width="24.1" height="24.1"/>
<rect x="91.1" y="28.7" class="st5" width="49.5" height="22.8"/>
<line class="st3" x1="116.5" y1="28" x2="116.5" y2="50.8"/>
<line class="st3" x1="141.3" y1="76.8" x2="90.4" y2="76.8"/>
<rect x="91.8" y="102.9" class="st4" width="24.1" height="24.1"/>
<rect x="91.1" y="102.2" class="st3" width="49.5" height="50.9"/>
<line class="st3" x1="116.5" y1="101.5" x2="116.5" y2="152.4"/>
<line class="st3" x1="141.3" y1="127.6" x2="90.4" y2="127.6"/>
<line class="st1" x1="141.3" y1="128" x2="252.3" y2="128"/>
<g>
	<line class="st6" x1="208.5" y1="56" x2="214.7" y2="56"/>
	<line class="st6" x1="204.7" y1="50.1" x2="207.8" y2="44.7"/>
	<line class="st6" x1="197.7" y1="50.5" x2="194.6" y2="45.1"/>
	<line class="st6" x1="194.5" y1="56.7" x2="188.3" y2="56.7"/>
	<line class="st6" x1="198.3" y1="62.6" x2="195.2" y2="68"/>
	<line class="st6" x1="205.3" y1="62.2" x2="208.4" y2="67.6"/>
</g>
<g>
	<line class="st1" x1="104.8" y1="176" x2="25.2" y2="176"/>
	<line class="st1" x1="109.5" y1="176" x2="114.2" y2="176"/>
	<line class="st1" x1="15.2" y1="176" x2="20" y2="176"/>
	<line class="st1" x1="94.9" y1="170.2" x2="94.9" y2="181.8"/>
	<line class="st1" x1="104.8" y1="187.3" x2="25.2" y2="187.3"/>
	<line class="st1" x1="109.5" y1="187.3" x2="114.2" y2="187.3"/>
	<line class="st1" x1="15.2" y1="187.3" x2="20" y2="187.3"/>
	<line class="st1" x1="40.1" y1="181.5" x2="40.1" y2="193.1"/>
	<line class="st1" x1="104.8" y1="198.6" x2="25.2" y2="198.6"/>
	<line class="st1" x1="109.5" y1="198.6" x2="114.2" y2="198.6"/>
	<line class="st1" x1="15.2" y1="198.6" x2="20" y2="198.6"/>
	<line class="st1" x1="71.8" y1="192.8" x2="71.8" y2="204.4"/>
</g>
<g>
	<line class="st1" x1="514.1" y1="5" x2="514.1" y2="12.1"/>
	<line class="st1" x1="514.1" y1="5" x2="514.1" y2="12.1"/>
	<line class="st1" x1="491.9" y1="17.8" x2="498" y2="21.4"/>
	<line class="st1" x1="491.9" y1="43.5" x2="498" y2="40"/>
	<line class="st1" x1="514.1" y1="56.3" x2="514.1" y2="49.3"/>
	<line class="st1" x1="536.3" y1="43.5" x2="530.2" y2="40"/>
	<line class="st1" x1="536.3" y1="17.8" x2="530.2" y2="21.4"/>
</g>
</svg>
