<?xml version="1.0" encoding="UTF-8" standalone="no"?>
<!-- Created with Inkscape (http://www.inkscape.org/) -->

<svg
   xmlns:dc="http://purl.org/dc/elements/1.1/"
   xmlns:cc="http://creativecommons.org/ns#"
   xmlns:rdf="http://www.w3.org/1999/02/22-rdf-syntax-ns#"
   xmlns:svg="http://www.w3.org/2000/svg"
   xmlns="http://www.w3.org/2000/svg"
   xmlns:sodipodi="http://sodipodi.sourceforge.net/DTD/sodipodi-0.dtd"
   xmlns:inkscape="http://www.inkscape.org/namespaces/inkscape"
   version="1.1"
   id="svg240"
   xml:space="preserve"
   width="50.066666"
   height="50.066666"
   viewBox="0 0 50.066666 50.066666"
   sodipodi:docname="Logo_Ch_8.svg"
   inkscape:version="0.92.1 r15371"><metadata
     id="metadata246"><rdf:RDF><cc:Work
         rdf:about=""><dc:format>image/svg+xml</dc:format><dc:type
           rdf:resource="http://purl.org/dc/dcmitype/StillImage" /><dc:title></dc:title></cc:Work></rdf:RDF></metadata><defs
     id="defs244"><clipPath
       clipPathUnits="userSpaceOnUse"
       id="clipPath258"><path
         d=""
         id="path256"
         inkscape:connector-curvature="0"
         style="clip-rule:evenodd" /></clipPath><clipPath
       clipPathUnits="userSpaceOnUse"
       id="clipPath266"><path
         d=""
         id="path264"
         inkscape:connector-curvature="0"
         style="clip-rule:evenodd" /></clipPath><clipPath
       clipPathUnits="userSpaceOnUse"
       id="clipPath284"><path
         d="m 43.1484,44.8906 h 288 v 288 h -288 z"
         id="path282"
         inkscape:connector-curvature="0"
         style="clip-rule:evenodd" /></clipPath></defs><sodipodi:namedview
     pagecolor="#ffffff"
     bordercolor="#666666"
     borderopacity="1"
     objecttolerance="10"
     gridtolerance="10"
     guidetolerance="10"
     inkscape:pageopacity="0"
     inkscape:pageshadow="2"
     inkscape:window-width="640"
     inkscape:window-height="480"
     id="namedview242"
     showgrid="false"
     inkscape:zoom="4.7137151"
     inkscape:cx="25.033333"
     inkscape:cy="25.033333"
     inkscape:window-x="0"
     inkscape:window-y="0"
     inkscape:window-maximized="0"
     inkscape:current-layer="g248" /><g
     id="g248"
     inkscape:groupmode="layer"
     inkscape:label="ink_ext_XXXXXX"
     transform="matrix(1.3333333,0,0,-1.3333333,0,50.066667)"><g
       id="g250"
       transform="scale(0.1)"><g
         id="g252"><g
           id="g254"
           clip-path="url(#clipPath258)" /></g><g
         id="g260"><g
           id="g262"
           clip-path="url(#clipPath266)" /></g><path
         d="m 7.14844,8.89063 h 360 v 360 h -360 z"
         style="fill:#394ca8;fill-opacity:1;fill-rule:nonzero;stroke:none"
         id="path268"
         inkscape:connector-curvature="0" /><path
         d="m 7.14844,363.488 h 365.398 v 10.2031 H 7.14844 Z"
         style="fill:#394ca8;fill-opacity:1;fill-rule:nonzero;stroke:none"
         id="path270"
         inkscape:connector-curvature="0" /><path
         d="m 362.348,3.48828 h 10.1992 v 365.402 H 362.348 Z"
         style="fill:#394ca8;fill-opacity:1;fill-rule:nonzero;stroke:none"
         id="path272"
         inkscape:connector-curvature="0" /><path
         d="m 2.34766,3.48828 h 364.801 v 10.2031 H 2.34766 Z"
         style="fill:#394ca8;fill-opacity:1;fill-rule:nonzero;stroke:none"
         id="path274"
         inkscape:connector-curvature="0" /><path
         d="m 2.34766,8.89063 h 10.1992 v 364.801 H 2.34766 Z"
         style="fill:#394ca8;fill-opacity:1;fill-rule:nonzero;stroke:none"
         id="path276"
         inkscape:connector-curvature="0" /><g
         id="g278"><g
           id="g280"
           clip-path="url(#clipPath284)"><path
             d="m 43.1484,44.8906 h 288 v 288 h -288 z"
             style="fill:#908e8f;fill-opacity:1;fill-rule:nonzero;stroke:none"
             id="path286"
             inkscape:connector-curvature="0" /><path
             d="m 43.1484,327.488 h 288 v 5.70313 h -288 z"
             style="fill:#908e8f;fill-opacity:1;fill-rule:nonzero;stroke:none"
             id="path288"
             inkscape:connector-curvature="0" /><path
             d="m 326.348,44.5898 h 4.80078 v 288.301 H 326.348 Z"
             style="fill:#908e8f;fill-opacity:1;fill-rule:nonzero;stroke:none"
             id="path290"
             inkscape:connector-curvature="0" /><path
             d="m 42.5469,44.5898 h 288.602 v 5.10156 H 42.5469 Z"
             style="fill:#908e8f;fill-opacity:1;fill-rule:nonzero;stroke:none"
             id="path292"
             inkscape:connector-curvature="0" /><path
             d="m 42.5469,44.8906 h 6 v 288.297 h -6 z"
             style="fill:#908e8f;fill-opacity:1;fill-rule:nonzero;stroke:none"
             id="path294"
             inkscape:connector-curvature="0" /></g></g><path
         d="m 79.1484,80.8906 h 216 v 216 h -216 z"
         style="fill:#394ca8;fill-opacity:1;fill-rule:nonzero;stroke:none"
         id="path296"
         inkscape:connector-curvature="0" /><path
         d="m 79.1484,291.488 h 221.398 v 10.1992 H 79.1484 Z"
         style="fill:#394ca8;fill-opacity:1;fill-rule:nonzero;stroke:none"
         id="path298"
         inkscape:connector-curvature="0" /><path
         d="m 290.348,75.4883 h 10.2031 v 221.402 H 290.348 Z"
         style="fill:#394ca8;fill-opacity:1;fill-rule:nonzero;stroke:none"
         id="path300"
         inkscape:connector-curvature="0" /><path
         d="m 74.3477,75.4883 h 220.801 V 85.6914 H 74.3477 Z"
         style="fill:#394ca8;fill-opacity:1;fill-rule:nonzero;stroke:none"
         id="path302"
         inkscape:connector-curvature="0" /><path
         d="m 74.3477,80.8906 h 10.1992 v 220.797 H 74.3477 Z"
         style="fill:#394ca8;fill-opacity:1;fill-rule:nonzero;stroke:none"
         id="path304"
         inkscape:connector-curvature="0" /><path
         d="m 242.348,134.289 1.8,1.801 -1.199,-2.402 1.797,2.402 h -0.598 l 1.2,1.801 -0.602,-1.801 1.203,2.398 -0.601,-1.199 1.199,3 1.801,3.602 -1.801,-3.602 0.601,3 0.598,0.602 0.602,2.398 -0.602,-4.199 v 12.598 -2.399 l -0.598,3 -0.601,3.602 -0.598,3.597 -0.601,3.602 1.199,-2.402 -1.199,3 -0.602,0.601 -2.398,7.199 0.601,-1.8 -1.801,3.601 -1.8,3.602 -1.801,3.597 v 0.602 l -1.801,4.199 1.203,-2.398 -9.601,14.398 1.199,-1.199 -12,14.398 1.801,-2.398 -3.602,3 -1.797,2.398 -3,3.602 1.797,-2.402 -14.398,12 1.199,-0.598 -14.399,9.598 1.801,-1.2 13.199,27 1.2,-0.597 c 13.379,-8.243 21.007,-14.731 33,-24.602 l 3,-3.601 -2.399,1.8 3.598,-3 c 12.512,-10.519 16.211,-22.398 25.801,-34.8 l 1.8,-4.2 -0.601,1.2 5.402,-10.797 3,-9 v 0.597 l 1.199,-3 1.2,-3 0.601,-3.597 0.598,-3.602 0.601,-3.601 v 0.601 l 0.598,-3 c 0,-6.398 0,-12.801 0,-19.199 l -0.598,-2.402 v 0.601 l -0.601,-3 -1.199,-3.601 -1.2,-2.399 v 1.199 l -1.199,-3 v -1.199 l -1.203,-2.398 -2.398,-3.602 -0.602,-0.601 -1.797,-2.399 -1.203,-1.801 -1.797,-1.8"
         style="fill:#ffffff;fill-opacity:1;fill-rule:nonzero;stroke:none"
         id="path306"
         inkscape:connector-curvature="0" /><path
         d="m 185.949,237.488 -3.601,1.801 h 1.199 l -4.199,1.801 h -1.2 l -7.199,3.598 1.797,-0.598 -7.199,2.398 -0.598,0.602 -3,1.199 3,-1.199 -10.801,1.801 h -0.601 l -3,0.597 h 3 -12.598 3.598 l -2.399,-0.597 h -0.601 l -3,-0.602 3.601,1.199 -2.402,-1.199 h -1.199 l -3,-1.199 h 1.199 l -2.398,-1.199 1.8,1.199 -1.8,-1.199 0.601,0.597 -2.402,-1.8 1.801,1.203 -3.602,-3.602 1.203,1.199 -1.801,-2.398 1.801,3 -1.203,-2.402 -1.797,-2.997 -1.801,-2.402 3,6 -0.601,-2.398 -1.199,-3 -1.2,-2.403 1.2,3.602 -1.2,-6 v 2.398 -5.398 l -0.601,-3 v 2.398 -3 3.602 l 0.601,-3 v -7.199 3.597 l 0.598,-3 -1.199,1.801 1.199,-3.601 1.203,-2.399 0.598,-3.601 -1.199,2.402 2.398,-7.199 -28.199,-9.602 -3.0001,9 -0.5977,3.602 0.5977,-1.801 -1.7969,5.398 -0.6016,3 v 6 -2.398 l -0.6015,3 v 9 l 0.6015,3 v -3.602 6.602 l 0.6016,3 0.5977,3 3.0003,6 -1.2,-3 0.598,2.398 2.402,4.801 1.801,2.399 -1.203,-1.797 1.203,2.398 c 4.219,8.309 11.641,13.371 19.797,17.399 l 3,1.203 -1.199,-0.602 6,3 3,0.602 -0.598,-0.602 2.399,0.602 c 5.41,0.32 14.371,-0.68 19.199,0.597 l 3,-0.597 -0.598,-0.602 10.797,-1.801 3,-0.597 3,-1.203 h -0.598 l 9,-3 7.2,-3.598 -0.602,0.601 4.203,-1.8 0.598,-0.602 3.601,-1.801"
         style="fill:#ffffff;fill-opacity:1;fill-rule:nonzero;stroke:none"
         id="path308"
         inkscape:connector-curvature="0" /><path
         d="m 130.746,206.891 1.203,-3.602 -0.601,1.801 5.398,-10.801 1.801,-3.601 -0.598,1.203 2.399,-3.602 7.199,-10.801 -0.598,1.801 12,-14.398 -2.402,1.797 3.601,-2.997 2.399,-1.8 3,-3.602 -2.399,1.801 14.399,-12 -1.801,1.199 14.402,-9.598 -1.199,0.598 14.399,-7.199 -1.801,0.601 10.801,-3.601 -2.399,0.598 3.598,-0.598 2.402,-0.602 3.598,-1.199 -1.801,1.199 3,-0.597 -3,-0.602 h 3.602 l 3,0.602 3,-0.602 -3,-0.601 h 3 -2.399 l 3.598,0.601 h 4.801 l -3,0.602 6,1.199 -3.602,-1.801 2.402,1.199 3,1.2 7.2,-29.399 3,1.199 -2.399,-1.199 -3.601,-1.199 -6,-1.1994 h -5.399 2.399 l -3.602,-0.6015 h -8.398 l -3,0.6015 h 3 -6.602 l -3,0.5977 -5.398,1.8007 2.398,-0.601 -3.598,0.601 c -21.242,4.859 -48.23,22.27 -63,37.801 l -3,3.598 1.801,-2.399 -3.601,3 c -13.039,15.492 -26.192,31.301 -33.602,50.402 l -1.199,3.598"
         style="fill:#ffffff;fill-opacity:1;fill-rule:nonzero;stroke:none"
         id="path310"
         inkscape:connector-curvature="0" /><path
         d="m 238.148,130.691 2.399,0.598 -3,-1.199 2.402,1.199 -2.402,-1.801 4.801,3.602 -1.801,-0.602 1.801,1.801 21.601,-21.601 -1.801,-1.797 c -5.339,-3.321 -8.14,-7.121 -14.402,-9 l -2.398,-0.602"
         style="fill:#ffffff;fill-opacity:1;fill-rule:nonzero;stroke:none"
         id="path312"
         inkscape:connector-curvature="0" /><path
         d="m 199.148,188.891 -0.601,4.8 -3,3.598 -3.598,3 -4.801,0.602 -4.203,-0.602 -4.199,-3 -2.398,-3.598 -0.602,-4.8 0.602,-4.2 2.398,-4.203 4.199,-2.398 4.203,-0.602 4.801,0.602 3.598,2.398 3,4.203 0.601,4.2"
         style="fill:#ffffff;fill-opacity:1;fill-rule:evenodd;stroke:none"
         id="path314"
         inkscape:connector-curvature="0" /><path
         d="m 196.746,188.289 -0.598,4.801 0.598,-1.199 -3,3.597 h 0.602 l -3.602,3 1.203,-0.597 -4.801,0.597 h 0.598 l -4.199,-0.597 h 1.199 l -4.199,-3 0.601,1.199 -2.402,-3.602 v 0.602 l -0.598,-4.801 v 0.602 l 0.598,-4.2 v 1.2 l 2.402,-4.2 -1.199,0.598 4.199,-2.398 -0.601,0.597 4.199,-0.597 h -0.598 l 4.801,0.597 -1.203,-0.597 3.602,2.398 -0.602,-0.598 3,4.2 -0.598,-1.2 0.598,4.2 4.801,-0.602 -0.598,-4.199 v -1.199 l -3,-4.2 -1.203,-0.601 -3.598,-2.399 h -0.601 l -4.801,-0.601 h -0.598 l -4.199,0.601 h -1.203 l -4.199,2.399 -0.598,1.199 -2.402,4.199 -0.598,0.602 -0.601,4.199 v 0.602 l 0.601,4.8 0.598,1.2 2.402,3.597 0.598,0.602 4.199,3 1.203,0.598 4.199,0.601 h 0.598 l 4.801,-0.601 1.199,-0.598 3.602,-3 v -0.602 l 3,-3.597 0.601,-1.2 0.598,-4.8"
         style="fill:#ffffff;fill-opacity:1;fill-rule:nonzero;stroke:none"
         id="path316"
         inkscape:connector-curvature="0" /><path
         d="m 196.746,188.891 v -0.602 l 4.801,0.602 v -0.602"
         style="fill:#ffffff;fill-opacity:1;fill-rule:nonzero;stroke:none"
         id="path318"
         inkscape:connector-curvature="0" /></g></g></svg>