<?xml version="1.0" encoding="UTF-8" standalone="no"?>
<!-- Created with Inkscape (http://www.inkscape.org/) -->

<svg
   xmlns:dc="http://purl.org/dc/elements/1.1/"
   xmlns:cc="http://creativecommons.org/ns#"
   xmlns:rdf="http://www.w3.org/1999/02/22-rdf-syntax-ns#"
   xmlns:svg="http://www.w3.org/2000/svg"
   xmlns="http://www.w3.org/2000/svg"
   xmlns:sodipodi="http://sodipodi.sourceforge.net/DTD/sodipodi-0.dtd"
   xmlns:inkscape="http://www.inkscape.org/namespaces/inkscape"
   version="1.1"
   id="svg114"
   xml:space="preserve"
   width="50.186668"
   height="50.186668"
   viewBox="0 0 50.186668 50.186668"
   sodipodi:docname="Logo_Ch_7.svg"
   inkscape:version="0.92.1 r15371"><metadata
     id="metadata120"><rdf:RDF><cc:Work
         rdf:about=""><dc:format>image/svg+xml</dc:format><dc:type
           rdf:resource="http://purl.org/dc/dcmitype/StillImage" /><dc:title></dc:title></cc:Work></rdf:RDF></metadata><defs
     id="defs118"><clipPath
       clipPathUnits="userSpaceOnUse"
       id="clipPath132"><path
         d=""
         id="path130"
         inkscape:connector-curvature="0"
         style="clip-rule:evenodd" /></clipPath><clipPath
       clipPathUnits="userSpaceOnUse"
       id="clipPath150"><path
         d="m 43.9648,46.0352 h 288 v 288 h -288 z"
         id="path148"
         inkscape:connector-curvature="0"
         style="clip-rule:evenodd" /></clipPath><clipPath
       clipPathUnits="userSpaceOnUse"
       id="clipPath238"><path
         d=""
         id="path236"
         inkscape:connector-curvature="0"
         style="clip-rule:evenodd" /></clipPath></defs><sodipodi:namedview
     pagecolor="#ffffff"
     bordercolor="#666666"
     borderopacity="1"
     objecttolerance="10"
     gridtolerance="10"
     guidetolerance="10"
     inkscape:pageopacity="0"
     inkscape:pageshadow="2"
     inkscape:window-width="1920"
     inkscape:window-height="1017"
     id="namedview116"
     showgrid="false"
     inkscape:zoom="4.702444"
     inkscape:cx="25.093334"
     inkscape:cy="25.093334"
     inkscape:window-x="-8"
     inkscape:window-y="-8"
     inkscape:window-maximized="1"
     inkscape:current-layer="g122" /><g
     id="g122"
     inkscape:groupmode="layer"
     inkscape:label="ink_ext_XXXXXX"
     transform="matrix(1.3333333,0,0,-1.3333333,0,50.186667)"><g
       id="g124"
       transform="scale(0.1)"><g
         id="g126"><g
           id="g128"
           clip-path="url(#clipPath132)" /></g><path
         d="m 7.96484,10.0352 h 360 v 360 h -360 z"
         style="fill:#394ca8;fill-opacity:1;fill-rule:nonzero;stroke:none"
         id="path134"
         inkscape:connector-curvature="0" /><path
         d="m 7.96484,364.637 h 365.402 v 10.1992 H 7.96484 Z"
         style="fill:#394ca8;fill-opacity:1;fill-rule:nonzero;stroke:none"
         id="path136"
         inkscape:connector-curvature="0" /><path
         d="m 363.168,4.63672 h 10.1992 v 365.398 H 363.168 Z"
         style="fill:#394ca8;fill-opacity:1;fill-rule:nonzero;stroke:none"
         id="path138"
         inkscape:connector-curvature="0" /><path
         d="m 3.16797,4.63672 h 364.797 v 10.1992 H 3.16797 Z"
         style="fill:#394ca8;fill-opacity:1;fill-rule:nonzero;stroke:none"
         id="path140"
         inkscape:connector-curvature="0" /><path
         d="m 3.16797,10.0352 h 10.1992 v 364.801 H 3.16797 Z"
         style="fill:#394ca8;fill-opacity:1;fill-rule:nonzero;stroke:none"
         id="path142"
         inkscape:connector-curvature="0" /><g
         id="g144"><g
           id="g146"
           clip-path="url(#clipPath150)"><path
             d="m 43.9648,46.0352 h 288 v 288 h -288 z"
             style="fill:#908e8f;fill-opacity:1;fill-rule:nonzero;stroke:none"
             id="path152"
             inkscape:connector-curvature="0" /><path
             d="m 43.9648,328.637 h 288 v 5.69922 h -288 z"
             style="fill:#908e8f;fill-opacity:1;fill-rule:nonzero;stroke:none"
             id="path154"
             inkscape:connector-curvature="0" /><path
             d="m 327.164,45.7344 h 4.80078 v 288.301 H 327.164 Z"
             style="fill:#908e8f;fill-opacity:1;fill-rule:nonzero;stroke:none"
             id="path156"
             inkscape:connector-curvature="0" /><path
             d="m 43.3672,45.7344 h 288.598 v 5.10156 H 43.3672 Z"
             style="fill:#908e8f;fill-opacity:1;fill-rule:nonzero;stroke:none"
             id="path158"
             inkscape:connector-curvature="0" /><path
             d="m 43.3672,46.0352 h 6 v 288.301 h -6 z"
             style="fill:#908e8f;fill-opacity:1;fill-rule:nonzero;stroke:none"
             id="path160"
             inkscape:connector-curvature="0" /></g></g><path
         d="m 79.9648,82.0352 h 216 v 216 h -216 z"
         style="fill:#394ca8;fill-opacity:1;fill-rule:nonzero;stroke:none"
         id="path162"
         inkscape:connector-curvature="0" /><path
         d="m 79.9648,292.637 h 221.402 v 10.1992 H 79.9648 Z"
         style="fill:#394ca8;fill-opacity:1;fill-rule:nonzero;stroke:none"
         id="path164"
         inkscape:connector-curvature="0" /><path
         d="m 291.168,76.6367 h 10.1992 v 221.398 H 291.168 Z"
         style="fill:#394ca8;fill-opacity:1;fill-rule:nonzero;stroke:none"
         id="path166"
         inkscape:connector-curvature="0" /><path
         d="m 75.1641,76.6367 h 220.801 V 86.8359 H 75.1641 Z"
         style="fill:#394ca8;fill-opacity:1;fill-rule:nonzero;stroke:none"
         id="path168"
         inkscape:connector-curvature="0" /><path
         d="m 75.1641,82.0352 h 10.2031 v 220.801 H 75.1641 Z"
         style="fill:#394ca8;fill-opacity:1;fill-rule:nonzero;stroke:none"
         id="path170"
         inkscape:connector-curvature="0" /><path
         d="m 95.5664,178.637 h 9.59766 v 19.8008 H 95.5664 Z"
         style="fill:#ffffff;fill-opacity:1;fill-rule:nonzero;stroke:none"
         id="path172"
         inkscape:connector-curvature="0" /><path
         d="m 105.164,178.637 h 31.8008 v 19.8008 H 105.164 Z"
         style="fill:#ffffff;fill-opacity:1;fill-rule:nonzero;stroke:none"
         id="path174"
         inkscape:connector-curvature="0" /><path
         d="m 127.367,188.836 0.598,7.199 c 4.461,14.352 17.312,22.262 31.199,25.801 l 8.402,0.598 v -33.598 h -40.199"
         style="fill:#ffffff;fill-opacity:1;fill-rule:evenodd;stroke:none"
         id="path176"
         inkscape:connector-curvature="0" /><path
         d="m 117.766,179.234 h 19.8008 v 9.60156 H 117.766 Z"
         style="fill:#ffffff;fill-opacity:1;fill-rule:nonzero;stroke:none"
         id="path178"
         inkscape:connector-curvature="0" /><path
         d="m 117.766,188.836 v 4.801 l 0.601,3.597 0.598,2.403 1.199,3 1.203,3 0.598,1.199 1.801,3 4.199,4.199 -1.801,-1.801 1.801,3 2.402,3 3,2.403 2.399,1.797 1.8,1.203 3.598,1.797 -0.598,-0.598 3,1.801 12.598,4.199 3,0.598 v -19.797 l 3,0.597 -10.797,-3.597 2.399,1.199 -3,-1.801 -0.602,-0.601 -3.598,-1.797 1.2,1.199 -2.399,-1.801 h 0.598 l -3,-2.398 1.801,2.398 -1.801,-3 -1.199,-1.801 -2.399,-2.398 1.199,1.801 -1.8,-3 1.199,1.797 -1.199,-3 -1.2,-3 0.598,1.8 -0.598,-3.597 v 1.797 -3.598"
         style="fill:#ffffff;fill-opacity:1;fill-rule:nonzero;stroke:none"
         id="path180"
         inkscape:connector-curvature="0" /><path
         d="m 159.164,231.438 h 4.203 -1.203 l 3,-19.801 h -6"
         style="fill:#ffffff;fill-opacity:1;fill-rule:nonzero;stroke:none"
         id="path182"
         inkscape:connector-curvature="0" /><path
         d="m 166.367,232.035 9.598,1.199 3,-19.8 -9.598,-1.2"
         style="fill:#ffffff;fill-opacity:1;fill-rule:nonzero;stroke:none"
         id="path184"
         inkscape:connector-curvature="0" /><path
         d="m 162.164,231.438 3,-19.801 4.203,0.597 -3,19.801"
         style="fill:#ffffff;fill-opacity:1;fill-rule:nonzero;stroke:none"
         id="path186"
         inkscape:connector-curvature="0" /><path
         d="m 157.965,218.234 h 19.8008 v 9.60156 H 157.965 Z"
         style="fill:#ffffff;fill-opacity:1;fill-rule:nonzero;stroke:none"
         id="path188"
         inkscape:connector-curvature="0" /><path
         d="m 157.965,148.637 h 19.8008 v 69.5977 H 157.965 Z"
         style="fill:#ffffff;fill-opacity:1;fill-rule:nonzero;stroke:none"
         id="path190"
         inkscape:connector-curvature="0" /><path
         d="m 167.566,155.836 -8.402,0.602 c -13.887,3.539 -26.738,11.457 -31.199,25.796 l -0.598,6.602 h 40.199 v -33"
         style="fill:#ffffff;fill-opacity:1;fill-rule:evenodd;stroke:none"
         id="path192"
         inkscape:connector-curvature="0" /><path
         d="m 166.367,145.637 9.598,-1.203 3,19.8 -9.598,1.2"
         style="fill:#ffffff;fill-opacity:1;fill-rule:nonzero;stroke:none"
         id="path194"
         inkscape:connector-curvature="0" /><path
         d="m 166.367,145.637 -4.203,0.597 h 1.199 -4.199 l -3,0.602 -10.797,3.598 -1.801,1.203 -3,1.797 0.598,-0.598 -3.598,1.801 -1.8,1.199 -2.403,1.801 -2.996,2.398 -2.402,2.399 -1.801,3 1.801,-1.797 -2.399,2.398 c -3.832,2.86 -4.543,8.399 -6.601,12.602 l -0.602,1.797 19.801,3 -0.598,2.402 1.2,-3 1.199,-3 -1.199,1.199 1.8,-3 -1.199,1.801 2.399,-2.402 1.199,-1.797 1.801,-3 -1.801,3 3,-2.403 h -0.598 l 2.399,-1.8 -1.2,1.203 3.598,-1.801 0.602,-0.602 3,-1.8 -2.399,0.601 10.797,-3.601 -3,0.601 h 6 l 4.203,-0.601"
         style="fill:#ffffff;fill-opacity:1;fill-rule:nonzero;stroke:none"
         id="path196"
         inkscape:connector-curvature="0" /><path
         d="m 118.367,180.438 -0.601,3.597 v 1.801 h 19.8 v 1.199 l 0.598,-3.597"
         style="fill:#ffffff;fill-opacity:1;fill-rule:nonzero;stroke:none"
         id="path198"
         inkscape:connector-curvature="0" /><path
         d="m 117.766,185.836 h 19.8008 v 12.6016 H 117.766 Z"
         style="fill:#ffffff;fill-opacity:1;fill-rule:nonzero;stroke:none"
         id="path200"
         inkscape:connector-curvature="0" /><path
         d="m 270.766,178.637 h 9.60156 v 19.8008 H 270.766 Z"
         style="fill:#ffffff;fill-opacity:1;fill-rule:nonzero;stroke:none"
         id="path202"
         inkscape:connector-curvature="0" /><path
         d="m 238.367,178.637 h 32.3984 v 19.8008 H 238.367 Z"
         style="fill:#ffffff;fill-opacity:1;fill-rule:nonzero;stroke:none"
         id="path204"
         inkscape:connector-curvature="0" /><path
         d="m 207.766,222.438 8.398,-0.602 c 16.434,-5.219 24.91,-8.512 31.203,-25.801 l 0.598,-7.199 h -40.199 v 33.602"
         style="fill:#ffffff;fill-opacity:1;fill-rule:evenodd;stroke:none"
         id="path206"
         inkscape:connector-curvature="0" /><path
         d="m 209.566,232.035 -9.601,1.199 -3,-19.8 9.601,-1.2"
         style="fill:#ffffff;fill-opacity:1;fill-rule:nonzero;stroke:none"
         id="path208"
         inkscape:connector-curvature="0" /><path
         d="m 209.566,232.035 4.2,-0.601 h -1.801 4.199 c 20.801,-4.258 32.59,-11.797 40.801,-31.797 l 0.601,-2.403 -19.8,-3 0.597,-1.8 -1.199,3 -1.199,3 0.601,-1.797 -1.8,3 0.601,-0.602 -1.801,2.399 v -0.598 l -2.402,3 1.203,-0.602 -2.402,2.403 1.801,-1.199 -6,3.597 0.601,-0.601 -3.601,1.8 1.199,-0.597 -10.797,3.597 2.996,-0.597 h -5.398 l -4.2,0.597"
         style="fill:#ffffff;fill-opacity:1;fill-rule:nonzero;stroke:none"
         id="path210"
         inkscape:connector-curvature="0" /><path
         d="m 257.566,197.234 0.602,-3.597 v -1.203 h -19.805 v -1.797 l -0.597,3.597"
         style="fill:#ffffff;fill-opacity:1;fill-rule:nonzero;stroke:none"
         id="path212"
         inkscape:connector-curvature="0" /><path
         d="m 238.367,179.234 h 19.8008 v 13.2031 H 238.367 Z"
         style="fill:#ffffff;fill-opacity:1;fill-rule:nonzero;stroke:none"
         id="path214"
         inkscape:connector-curvature="0" /><path
         d="m 198.168,218.234 h 19.7969 v 9.60156 H 198.168 Z"
         style="fill:#ffffff;fill-opacity:1;fill-rule:nonzero;stroke:none"
         id="path216"
         inkscape:connector-curvature="0" /><path
         d="m 198.168,148.637 h 19.7969 v 69.5977 H 198.168 Z"
         style="fill:#ffffff;fill-opacity:1;fill-rule:nonzero;stroke:none"
         id="path218"
         inkscape:connector-curvature="0" /><path
         d="m 247.965,188.836 -0.598,-6.602 c -6.293,-17.289 -14.769,-20.578 -31.203,-25.8 l -8.398,-0.598 v 33 h 40.199"
         style="fill:#ffffff;fill-opacity:1;fill-rule:evenodd;stroke:none"
         id="path220"
         inkscape:connector-curvature="0" /><path
         d="m 238.367,188.836 h 19.8008 v 9.60156 H 238.367 Z"
         style="fill:#ffffff;fill-opacity:1;fill-rule:nonzero;stroke:none"
         id="path222"
         inkscape:connector-curvature="0" /><path
         d="m 258.168,188.836 v -3 c -2.453,-21.34 -18.82,-34.242 -39.004,-39 l -3,-0.602 v 19.801 l -2.996,-0.601 10.797,3.601 h -1.199 l 3.597,1.801 -0.597,-0.602 6,3.602 -1.801,-1.801 2.402,2.403 -1.203,-0.602 2.402,3 1.801,2.398 -0.601,-1.199 1.8,3 -0.601,-1.199 1.199,3 1.199,3 -0.597,-2.402 0.597,3.601 v -1.199 3"
         style="fill:#ffffff;fill-opacity:1;fill-rule:nonzero;stroke:none"
         id="path224"
         inkscape:connector-curvature="0" /><path
         d="m 216.164,146.234 h -4.199 1.801 l -3,19.801 h 5.398"
         style="fill:#ffffff;fill-opacity:1;fill-rule:nonzero;stroke:none"
         id="path226"
         inkscape:connector-curvature="0" /><path
         d="m 209.566,145.637 -9.601,-1.203 -3,19.8 9.601,1.2"
         style="fill:#ffffff;fill-opacity:1;fill-rule:nonzero;stroke:none"
         id="path228"
         inkscape:connector-curvature="0" /><path
         d="m 213.766,146.234 -3,19.801 -4.2,-0.601 3,-19.797"
         style="fill:#ffffff;fill-opacity:1;fill-rule:nonzero;stroke:none"
         id="path230"
         inkscape:connector-curvature="0" /><g
         id="g232"><g
           id="g234"
           clip-path="url(#clipPath238)" /></g></g></g></svg>