<?xml version="1.0" encoding="UTF-8" standalone="no"?>
<!-- Created with Inkscape (http://www.inkscape.org/) -->

<svg
   xmlns:dc="http://purl.org/dc/elements/1.1/"
   xmlns:cc="http://creativecommons.org/ns#"
   xmlns:rdf="http://www.w3.org/1999/02/22-rdf-syntax-ns#"
   xmlns:svg="http://www.w3.org/2000/svg"
   xmlns="http://www.w3.org/2000/svg"
   xmlns:sodipodi="http://sodipodi.sourceforge.net/DTD/sodipodi-0.dtd"
   xmlns:inkscape="http://www.inkscape.org/namespaces/inkscape"
   version="1.1"
   id="svg320"
   xml:space="preserve"
   width="50.066666"
   height="50.186668"
   viewBox="0 0 50.066666 50.186668"
   sodipodi:docname="Logo_Ch_9.svg"
   inkscape:version="0.92.1 r15371"><metadata
     id="metadata326"><rdf:RDF><cc:Work
         rdf:about=""><dc:format>image/svg+xml</dc:format><dc:type
           rdf:resource="http://purl.org/dc/dcmitype/StillImage" /><dc:title></dc:title></cc:Work></rdf:RDF></metadata><defs
     id="defs324"><clipPath
       clipPathUnits="userSpaceOnUse"
       id="clipPath338"><path
         d=""
         id="path336"
         inkscape:connector-curvature="0"
         style="clip-rule:evenodd" /></clipPath><clipPath
       clipPathUnits="userSpaceOnUse"
       id="clipPath356"><path
         d="m 43.1484,44.3984 h 288 v 288.004 h -288 z"
         id="path354"
         inkscape:connector-curvature="0"
         style="clip-rule:evenodd" /></clipPath><clipPath
       clipPathUnits="userSpaceOnUse"
       id="clipPath408"><path
         d=""
         id="path406"
         inkscape:connector-curvature="0"
         style="clip-rule:evenodd" /></clipPath></defs><sodipodi:namedview
     pagecolor="#ffffff"
     bordercolor="#666666"
     borderopacity="1"
     objecttolerance="10"
     gridtolerance="10"
     guidetolerance="10"
     inkscape:pageopacity="0"
     inkscape:pageshadow="2"
     inkscape:window-width="640"
     inkscape:window-height="480"
     id="namedview322"
     showgrid="false"
     inkscape:zoom="4.702444"
     inkscape:cx="25.033333"
     inkscape:cy="25.093334"
     inkscape:window-x="0"
     inkscape:window-y="0"
     inkscape:window-maximized="0"
     inkscape:current-layer="g328" /><g
     id="g328"
     inkscape:groupmode="layer"
     inkscape:label="ink_ext_XXXXXX"
     transform="matrix(1.3333333,0,0,-1.3333333,0,50.186667)"><g
       id="g330"
       transform="scale(0.1)"><g
         id="g332"><g
           id="g334"
           clip-path="url(#clipPath338)" /></g><path
         d="m 7.14844,8.39844 h 360 v 360 h -360 z"
         style="fill:#394ca8;fill-opacity:1;fill-rule:nonzero;stroke:none"
         id="path340"
         inkscape:connector-curvature="0" /><path
         d="m 7.14844,363 h 365.398 v 10.1992 H 7.14844 Z"
         style="fill:#394ca8;fill-opacity:1;fill-rule:nonzero;stroke:none"
         id="path342"
         inkscape:connector-curvature="0" /><path
         d="m 362.348,3 h 10.1992 V 368.398 H 362.348 Z"
         style="fill:#394ca8;fill-opacity:1;fill-rule:nonzero;stroke:none"
         id="path344"
         inkscape:connector-curvature="0" /><path
         d="m 2.34766,3 h 364.801 V 13.1992 H 2.34766 Z"
         style="fill:#394ca8;fill-opacity:1;fill-rule:nonzero;stroke:none"
         id="path346"
         inkscape:connector-curvature="0" /><path
         d="m 2.34766,8.39844 h 10.1992 v 364.801 H 2.34766 Z"
         style="fill:#394ca8;fill-opacity:1;fill-rule:nonzero;stroke:none"
         id="path348"
         inkscape:connector-curvature="0" /><g
         id="g350"><g
           id="g352"
           clip-path="url(#clipPath356)"><path
             d="m 43.1484,44.3984 h 288 v 288.004 h -288 z"
             style="fill:#908e8f;fill-opacity:1;fill-rule:nonzero;stroke:none"
             id="path358"
             inkscape:connector-curvature="0" /><path
             d="m 43.1484,327 h 288 v 5.69922 h -288 z"
             style="fill:#908e8f;fill-opacity:1;fill-rule:nonzero;stroke:none"
             id="path360"
             inkscape:connector-curvature="0" /><path
             d="m 326.348,44.1016 h 4.80078 v 288.301 H 326.348 Z"
             style="fill:#908e8f;fill-opacity:1;fill-rule:nonzero;stroke:none"
             id="path362"
             inkscape:connector-curvature="0" /><path
             d="m 42.5469,44.1016 h 288.602 v 5.09766 H 42.5469 Z"
             style="fill:#908e8f;fill-opacity:1;fill-rule:nonzero;stroke:none"
             id="path364"
             inkscape:connector-curvature="0" /><path
             d="m 42.5469,44.3984 h 6 v 288.301 h -6 z"
             style="fill:#908e8f;fill-opacity:1;fill-rule:nonzero;stroke:none"
             id="path366"
             inkscape:connector-curvature="0" /></g></g><path
         d="m 79.1484,80.3984 h 216 v 216 h -216 z"
         style="fill:#394ca8;fill-opacity:1;fill-rule:nonzero;stroke:none"
         id="path368"
         inkscape:connector-curvature="0" /><path
         d="m 79.1484,291 h 221.398 v 10.1992 H 79.1484 Z"
         style="fill:#394ca8;fill-opacity:1;fill-rule:nonzero;stroke:none"
         id="path370"
         inkscape:connector-curvature="0" /><path
         d="m 290.348,75 h 10.2031 V 296.402 H 290.348 Z"
         style="fill:#394ca8;fill-opacity:1;fill-rule:nonzero;stroke:none"
         id="path372"
         inkscape:connector-curvature="0" /><path
         d="m 74.3477,75 h 220.801 V 85.1992 H 74.3477 Z"
         style="fill:#394ca8;fill-opacity:1;fill-rule:nonzero;stroke:none"
         id="path374"
         inkscape:connector-curvature="0" /><path
         d="m 74.3477,80.3984 h 10.1992 v 220.801 H 74.3477 Z"
         style="fill:#394ca8;fill-opacity:1;fill-rule:nonzero;stroke:none"
         id="path376"
         inkscape:connector-curvature="0" /><path
         d="m 249.547,125.398 3.601,4.204 -0.601,-0.602 2.402,4.199 h -0.601 l 2.398,5.403 -0.598,-1.801 1.2,5.398 v -0.597 12.597 -0.597 l -1.2,6.597 -1.199,7.199 0.598,-1.199 -2.399,6.602 -3,7.199 -3.601,7.801 0.601,-0.602 -4.199,7.199 v -1.199 l -4.801,7.199 -5.402,7.204 -6,7.199 h 0.602 L 214.148,228 v -0.602 l -7.199,6 -7.203,5.403 0.602,-0.602 -7.2,4.801 0.598,0.602 -7.199,4.199 v -0.602 l -7.801,3.602 -7.199,3 h 0.601 l -6.601,2.398 0.601,-0.597 -7.199,1.796 h 0.598 l -13.199,1.204 h 1.199 l -6,-0.602 v 0.602 l -5.399,-1.204 h 1.2 l -5.399,-1.796 h 1.199 l -4.199,-3 0.598,0.597 -4.199,-3.597 v 0.597 L 121.746,246 h 0.602 l -3,-4.199 0.601,1.801 -1.203,-5.403 -0.598,0.602 -1.199,-5.403 0.598,0.602 -0.598,-6 v 0.602 l 0.598,-6.602 0.601,-6.602 V 216 l 1.2,-7.199 v 0.597 l 2.398,-6.597 V 204 l -9.598,-4.199 -2.402,6.597 -1.797,7.204 c -1.441,12.91 -2.793,28.539 6.598,39 l 3.601,4.199 v 0.597 c 14.301,13.762 32.141,12.993 50.399,8.403 l 0.601,-0.602 6.598,-2.398 0.602,0.597 7.199,-3 7.801,-3.597 v -0.602 l 7.199,-4.199 0.601,-0.602 7.2,-4.796 7.199,-5.403 7.199,-6 h 0.602 L 234.547,222 v -0.602 l 6,-7.199 5.402,-7.199 0.598,-0.602 4.801,-7.199 4.199,-7.199 h 0.601 l 3.598,-7.801 3,-7.199 v -1.199 l 2.402,-6.602 v -0.597 l 1.2,-7.204 1.199,-6.597 v -13.199 c 0,-6.481 -3.258,-12.122 -6.598,-17.403 l -0.601,-1.199 -3.602,-4.199"
         style="fill:#ffffff;fill-opacity:1;fill-rule:nonzero;stroke:none"
         id="path378"
         inkscape:connector-curvature="0" /><path
         d="m 121.746,204 3,-7.199 3.602,-7.801 h -0.602 l 4.203,-7.199 4.797,-7.199 -0.598,0.597 5.399,-7.199 6,-7.199 v 0.597 l 13.199,-13.199 h -0.598 l 7.2,-6 7.199,-5.398 7.199,-4.801 -0.598,0.602 7.2,-4.204 7.199,-3.597 v 0.597 l 7.199,-3 h -1.199 l 7.199,-2.398 7.203,-1.801 h -0.601 l 6.601,-0.597 -0.601,0.597 h 12 l -1.2,-0.597 6,1.199 -1.199,-0.602 9.598,4.801 -1.199,-0.602 4.199,3.602 v -0.602 l 7.199,-6.597 v -0.602 l -4.199,-3.597 -10.801,-5.403 h -1.797 l -6,-1.199 h -12.601 l -0.602,-0.602 -6.598,0.602 h -0.601 l -7.199,1.801 -0.602,0.597 -7.199,2.403 h -0.598 l -7.203,3 -7.199,3.597 V 120 l -7.199,4.199 -0.602,-0.597 -7.199,4.796 c -22.438,17 -42.289,37.973 -53.399,64.204 l -3,7.199"
         style="fill:#ffffff;fill-opacity:1;fill-rule:nonzero;stroke:none"
         id="path380"
         inkscape:connector-curvature="0" /><path
         d="m 196.148,188.398 -0.601,3 -1.801,3 -3,1.801 -3.598,0.602 -3,-0.602 -3,-1.801 -1.8,-3 -0.602,-3 0.602,-3.597 1.8,-3 3,-1.801 3,-0.602 3.598,0.602 3,1.801 1.801,3 0.601,3.597"
         style="fill:#ffffff;fill-opacity:1;fill-rule:evenodd;stroke:none"
         id="path382"
         inkscape:connector-curvature="0" /><path
         d="m 194.949,187.801 -0.601,3 h 0.601 l -1.801,3 v -0.602 l -3,1.801 h 0.598 l -3.598,0.602 h 0.598 l -3,-0.602 -3,-1.801 0.602,0.602 -1.801,-3 -0.598,-3 v 0.597 l 0.598,-3.597 v 0.597 l 1.801,-3 h -0.602 l 3,-1.796 v 0.597 l 3,-0.597 h -0.598 l 3.598,0.597 -0.598,-0.597 3,1.796 1.801,3 -0.601,-0.597 0.601,3.597 2.399,-0.597 -0.602,-3.602 -1.797,-3 -0.601,-0.597 -3,-1.801 -3.602,-0.602 h -0.598 l -3,0.602 h -0.601 l -3,1.801 v 0.597 l -1.801,3 h -0.598 l -0.601,3.602 c 0.07,5.461 4.742,10.129 10.199,10.199 l 3.602,-0.602 v -0.597 l 3,-1.801 h 0.601 l 1.797,-3 v -0.602 l 0.602,-3"
         style="fill:#ffffff;fill-opacity:1;fill-rule:nonzero;stroke:none"
         id="path384"
         inkscape:connector-curvature="0" /><path
         d="m 194.949,188.398 v -0.597 l 2.399,0.597 v -0.597"
         style="fill:#ffffff;fill-opacity:1;fill-rule:nonzero;stroke:none"
         id="path386"
         inkscape:connector-curvature="0" /><path
         d="m 76.1484,225 -1.8007,-1.199 2.3984,-4.199 1.8008,1.199"
         style="fill:#ffffff;fill-opacity:1;fill-rule:nonzero;stroke:none"
         id="path388"
         inkscape:connector-curvature="0" /><path
         d="m 76.1484,225 9,6 c 23.7186,13.898 44.1216,10.23 64.8006,-6.602 l 12,-10.796 -3,-3.602 -12,10.801 v -0.602 l -12,8.403 -6,3 h 0.598 l -6.598,1.796 h 0.598 l -6.598,1.204 h -6.601 0.601 L 103.746,233.398 95.3477,231 h 0.6015 l -8.4023,-4.199 -9,-6"
         style="fill:#ffffff;fill-opacity:1;fill-rule:nonzero;stroke:none"
         id="path390"
         inkscape:connector-curvature="0" /><path
         d="m 161.949,213.602 13.199,-12 -3,-3.602 -13.199,12"
         style="fill:#ffffff;fill-opacity:1;fill-rule:nonzero;stroke:none"
         id="path392"
         inkscape:connector-curvature="0" /><path
         d="m 190.148,189 1.801,-1.199 -3,-3.602 -1.801,1.199"
         style="fill:#ffffff;fill-opacity:1;fill-rule:nonzero;stroke:none"
         id="path394"
         inkscape:connector-curvature="0" /><path
         d="m 175.148,201.602 -3,-3.602 15,-12.602 3,3.602"
         style="fill:#ffffff;fill-opacity:1;fill-rule:nonzero;stroke:none"
         id="path396"
         inkscape:connector-curvature="0" /><path
         d="m 213.547,160.199 1.199,1.801 h -0.598 l 1.2,2.398 1.199,2.403 V 165 l 0.601,2.398 v -0.597 5.398 V 171 l -1.199,6 v -0.602 l -2.402,6.602 0.601,-0.602 -3.601,6.602 v -1.199 l -4.801,6.597 h 0.602 l -6,6.602 v -0.602 l -6.602,6 0.602,-0.597 -6.602,4.801 h 0.602 l -6.602,3.597 h 0.602 l -6.602,2.403 h 1.203 l -6,1.199 h 0.598 -5.399 0.598 l -3,-0.602 h 1.203 l -1.801,-0.597 h 0.598 l -2.398,-1.204 1.199,1.204 -3.598,-3.602 0.598,1.199 -1.199,-2.398 0.601,0.597 -1.203,-4.796 v 1.796 -5.398 0.598 l 1.203,-5.996 v 0.597 l 2.399,-6.597 v 1.199 l 3.601,-6.602 h -0.601 l 4.8,-6.597 -0.601,0.597 6,-6.601 v 0.601 l 6.601,-6 h -0.601 l 6.601,-4.801 -0.601,0.602 6.601,-3.602 h -0.601 l 6.601,-2.398 -0.601,0.598 3,-0.598 -1.801,-9.602 -3,0.602 h -1.199 l -6.598,2.398 h -0.601 L 181.746,156 h -0.598 l -6.601,4.801 -0.598,0.597 -6.601,6 V 168 l -6,6.598 h -0.602 l -4.797,6.601 v 1.199 c -7.75,9.93 -13.293,34.563 0.598,42 l 2.402,1.204 1.199,0.597 c 16.938,7.492 44.461,-12.109 53.399,-25.199 l 0.601,-0.602 4.801,-6.597 h 0.598 l 3.601,-6.602 V 186 c 2.27,-4.281 2.84,-9.121 3.598,-13.801 v -5.398 c 0.602,-3.731 -2.437,-6.332 -3.598,-9.602 V 156 l -1.199,-1.801"
         style="fill:#ffffff;fill-opacity:1;fill-rule:nonzero;stroke:none"
         id="path398"
         inkscape:connector-curvature="0" /><path
         d="m 201.547,159 3,-0.602 -1.199,0.602 h 5.398 l -1.199,-0.602 2.402,0.602 -1.203,-0.602 3.602,1.801 2.398,0.602 -2.398,-1.199 1.8,1.796 -0.601,-1.199 8.402,-6 h -0.601 l -1.801,-1.801 -2.399,-1.796 -2.402,-0.602 1.203,0.602 -2.402,-1.204 -1.199,-0.597 -2.399,-0.602 -1.203,0.602 h -6 l -3,0.597"
         style="fill:#ffffff;fill-opacity:1;fill-rule:nonzero;stroke:none"
         id="path400"
         inkscape:connector-curvature="0" /><g
         id="g402"><g
           id="g404"
           clip-path="url(#clipPath408)" /></g></g></g></svg>