<?xml version="1.0" encoding="UTF-8" standalone="no"?>
<!-- Created with Inkscape (http://www.inkscape.org/) -->

<svg
   xmlns:dc="http://purl.org/dc/elements/1.1/"
   xmlns:cc="http://creativecommons.org/ns#"
   xmlns:rdf="http://www.w3.org/1999/02/22-rdf-syntax-ns#"
   xmlns:svg="http://www.w3.org/2000/svg"
   xmlns="http://www.w3.org/2000/svg"
   xmlns:sodipodi="http://sodipodi.sourceforge.net/DTD/sodipodi-0.dtd"
   xmlns:inkscape="http://www.inkscape.org/namespaces/inkscape"
   version="1.1"
   id="svg650"
   xml:space="preserve"
   width="49.533333"
   height="49.599998"
   viewBox="0 0 49.533333 49.599998"
   sodipodi:docname="Logo_Ch_18.svg"
   inkscape:version="0.92.1 r15371"><metadata
     id="metadata656"><rdf:RDF><cc:Work
         rdf:about=""><dc:format>image/svg+xml</dc:format><dc:type
           rdf:resource="http://purl.org/dc/dcmitype/StillImage" /><dc:title></dc:title></cc:Work></rdf:RDF></metadata><defs
     id="defs654"><clipPath
       clipPathUnits="userSpaceOnUse"
       id="clipPath668"><path
         d=""
         id="path666"
         inkscape:connector-curvature="0"
         style="clip-rule:evenodd" /></clipPath><clipPath
       clipPathUnits="userSpaceOnUse"
       id="clipPath676"><path
         d=""
         id="path674"
         inkscape:connector-curvature="0"
         style="clip-rule:evenodd" /></clipPath><clipPath
       clipPathUnits="userSpaceOnUse"
       id="clipPath694"><path
         d="m 41.8359,42.1641 h 288 v 288 h -288 z"
         id="path692"
         inkscape:connector-curvature="0"
         style="clip-rule:evenodd" /></clipPath></defs><sodipodi:namedview
     pagecolor="#ffffff"
     bordercolor="#666666"
     borderopacity="1"
     objecttolerance="10"
     gridtolerance="10"
     guidetolerance="10"
     inkscape:pageopacity="0"
     inkscape:pageshadow="2"
     inkscape:window-width="640"
     inkscape:window-height="480"
     id="namedview652"
     showgrid="false"
     inkscape:zoom="4.7580647"
     inkscape:cx="24.766666"
     inkscape:cy="24.799999"
     inkscape:window-x="0"
     inkscape:window-y="0"
     inkscape:window-maximized="0"
     inkscape:current-layer="g658" /><g
     id="g658"
     inkscape:groupmode="layer"
     inkscape:label="ink_ext_XXXXXX"
     transform="matrix(1.3333333,0,0,-1.3333333,0,49.6)"><g
       id="g660"
       transform="scale(0.1)"><g
         id="g662"><g
           id="g664"
           clip-path="url(#clipPath668)" /></g><g
         id="g670"><g
           id="g672"
           clip-path="url(#clipPath676)" /></g><path
         d="m 5.23438,6.16406 h 360 v 360 h -360 z"
         style="fill:#394ca8;fill-opacity:1;fill-rule:nonzero;stroke:none"
         id="path678"
         inkscape:connector-curvature="0" /><path
         d="m 5.23438,360.766 h 365.402 v 10.1992 H 5.23438 Z"
         style="fill:#394ca8;fill-opacity:1;fill-rule:nonzero;stroke:none"
         id="path680"
         inkscape:connector-curvature="0" /><path
         d="m 360.434,0.765625 h 10.2031 V 366.16362 H 360.434 Z"
         style="fill:#394ca8;fill-opacity:1;fill-rule:nonzero;stroke:none"
         id="path682"
         inkscape:connector-curvature="0" /><path
         d="M 0.433594,0.765625 H 365.23459 v 10.1992 H 0.433594 Z"
         style="fill:#394ca8;fill-opacity:1;fill-rule:nonzero;stroke:none"
         id="path684"
         inkscape:connector-curvature="0" /><path
         d="m 0.433594,6.16406 h 10.2031 v 364.801 h -10.2031 z"
         style="fill:#394ca8;fill-opacity:1;fill-rule:nonzero;stroke:none"
         id="path686"
         inkscape:connector-curvature="0" /><g
         id="g688"><g
           id="g690"
           clip-path="url(#clipPath694)"><path
             d="m 41.8359,42.1641 h 288 v 288 h -288 z"
             style="fill:#908e8f;fill-opacity:1;fill-rule:nonzero;stroke:none"
             id="path696"
             inkscape:connector-curvature="0" /><path
             d="m 41.8359,324.766 h 288 v 5.69922 h -288 z"
             style="fill:#908e8f;fill-opacity:1;fill-rule:nonzero;stroke:none"
             id="path698"
             inkscape:connector-curvature="0" /><path
             d="m 325.035,41.8633 h 4.80078 v 288.301 H 325.035 Z"
             style="fill:#908e8f;fill-opacity:1;fill-rule:nonzero;stroke:none"
             id="path700"
             inkscape:connector-curvature="0" /><path
             d="m 41.2344,41.8633 h 288.602 v 5.10156 H 41.2344 Z"
             style="fill:#908e8f;fill-opacity:1;fill-rule:nonzero;stroke:none"
             id="path702"
             inkscape:connector-curvature="0" /><path
             d="m 41.2344,42.1641 h 6 v 288.301 h -6 z"
             style="fill:#908e8f;fill-opacity:1;fill-rule:nonzero;stroke:none"
             id="path704"
             inkscape:connector-curvature="0" /></g></g><path
         d="m 77.8359,78.1641 h 216 v 216 h -216 z"
         style="fill:#394ca8;fill-opacity:1;fill-rule:nonzero;stroke:none"
         id="path706"
         inkscape:connector-curvature="0" /><path
         d="m 77.8359,288.766 h 221.398 v 10.1992 H 77.8359 Z"
         style="fill:#394ca8;fill-opacity:1;fill-rule:nonzero;stroke:none"
         id="path708"
         inkscape:connector-curvature="0" /><path
         d="m 289.035,72.7656 h 10.1992 v 221.398 H 289.035 Z"
         style="fill:#394ca8;fill-opacity:1;fill-rule:nonzero;stroke:none"
         id="path710"
         inkscape:connector-curvature="0" /><path
         d="m 73.0352,72.7656 h 220.801 V 82.9648 H 73.0352 Z"
         style="fill:#394ca8;fill-opacity:1;fill-rule:nonzero;stroke:none"
         id="path712"
         inkscape:connector-curvature="0" /><path
         d="m 73.0352,78.1641 h 10.1992 v 220.801 H 73.0352 Z"
         style="fill:#394ca8;fill-opacity:1;fill-rule:nonzero;stroke:none"
         id="path714"
         inkscape:connector-curvature="0" /><path
         d="m 260.836,185.566 -0.602,8.399 v -0.602 l -1.199,7.801 -1.801,7.801 v -1.199 l -6,14.398 0.602,-0.598 -4.199,6.598 -4.203,6 0.601,-0.598 -10.801,10.797 1.2,-0.597 -13.2,8.398 v -0.598 l -6.597,3.598 h 1.199 l -7.199,2.402 v -0.601 l -7.801,1.801 h 0.598 l -7.797,1.199 h 0.597 l -8.398,0.601 h 0.598 l -8.399,-0.601 h 0.602 l -7.801,-1.199 v 0.597 l -7.199,-1.797 h 0.597 l -7.8,-2.402 h 0.601 l -6.601,-3.598 0.601,0.598 -6.601,-4.199 -6,-4.199 h 0.601 l -6,-5.403 0.602,0.602 -4.801,-5.399 -4.801,-6 v 0.598 l -4.199,-6.598 0.598,0.598 -6,-14.398 0.601,1.199 -1.801,-7.801 -1.199,-7.801 v 0.602 l -0.601,-8.399 v 0.598 l 0.601,-7.801 v 0.602 l 1.199,-7.801 v 0.602 l 1.801,-7.801 -0.601,0.601 6,-14.402 -0.598,0.602 4.199,-6.602 v 0.602 l 9.602,-12 -0.602,0.597 6,-4.797 -6.601,-7.8 -6,4.8 c -35.4379,35.047 -33.5277,94.739 6,126 v 0.598 l 6,4.199 h 0.601 c 21.699,16.52 54.879,17.77 79.801,8.403 l 0.598,-0.602 6.601,-3.598 h 0.602 c 15.457,-9.429 12.566,-7.57 25.199,-20.402 l 4.199,-6 v -0.598 c 4.961,-6.082 12.52,-22.953 13.199,-30.601 l 1.2,-7.801 v -0.598 l 0.601,-8.402"
         style="fill:#ffffff;fill-opacity:1;fill-rule:nonzero;stroke:none"
         id="path716"
         inkscape:connector-curvature="0" /><path
         d="m 139.035,128.566 6,-4.8 -1.199,0.597 13.199,-7.199 -0.601,0.602 7.8,-2.403 7.2,-2.398 h -0.598 l 7.801,-1.199 h -1.203 16.8 -0.597 l 7.797,1.199 h -0.598 l 7.801,2.398 7.199,2.403 -1.199,-0.602 13.199,7.199 h -0.602 l 6.602,4.801 v -0.598 l 5.398,4.797 -0.597,-0.597 5.398,6 h -0.601 l 4.203,6 v -0.602 l 4.199,6.602 -0.602,-0.602 6,14.399 v -0.598 l 1.801,7.801 v -0.602 l 1.199,7.801 v -0.602 l 0.602,7.801 v -0.601 l 10.199,0.601 v -0.601 l -0.601,-7.797 v -0.602 l -1.2,-7.801 -1.8,-7.797 -0.598,-1.203 -6,-14.398 -0.602,-0.602 -4.199,-6.597 -4.199,-6 v -0.602 l -5.402,-6 -0.598,-0.601 -5.402,-4.797 h -0.598 l -6.602,-4.801 -0.597,-0.602 -13.203,-7.199 h -0.598 c -13.09,-4.219 -18.859,-7.66 -33,-6.598 h -9 c -6.859,0.707 -25.652,6.407 -31.199,10.2 l -6.602,3.597 -0.601,0.602 -6,4.801"
         style="fill:#ffffff;fill-opacity:1;fill-rule:nonzero;stroke:none"
         id="path718"
         inkscape:connector-curvature="0" /><path
         d="m 215.234,186.766 0.602,8.398 v 0.602 l 1.801,7.199 h 0.597 l 3,7.199 v 0.602 l 4.2,6 v 0.597 l 4.8,4.801 h 0.602 l 5.398,3.602 h 0.602 l 1.801,-4.2 -5.403,-3.601 0.602,0.601 -4.801,-4.8 h 0.602 l -4.203,-6 v 0.597 l -3,-7.199 v 0.602 l -1.797,-7.2 -0.602,-8.402"
         style="fill:#ffffff;fill-opacity:1;fill-rule:nonzero;stroke:none"
         id="path720"
         inkscape:connector-curvature="0" /><path
         d="m 236.836,225.766 6,2.398 0.598,0.602 0.601,-4.801 h 0.602 l -6,-2.399"
         style="fill:#ffffff;fill-opacity:1;fill-rule:nonzero;stroke:none"
         id="path722"
         inkscape:connector-curvature="0" /><path
         d="m 243.434,228.766 0.601,-4.801 6.602,1.199 -0.602,4.801"
         style="fill:#ffffff;fill-opacity:1;fill-rule:nonzero;stroke:none"
         id="path724"
         inkscape:connector-curvature="0" /><path
         d="m 250.035,143.566 -6.601,1.2 h -0.598 l -6,1.8 -0.602,0.598 -5.398,4.199 h -0.602 l -4.8,4.801 -4.2,6 v 0.602 l -3,7.199 -0.597,0.598 4.797,1.203 3,-7.203 v 0.601 l 4.203,-6 -0.602,0.602 4.801,-4.801 5.398,-4.199 -1.199,0.597 6,-1.8 6.602,-1.2"
         style="fill:#ffffff;fill-opacity:1;fill-rule:nonzero;stroke:none"
         id="path726"
         inkscape:connector-curvature="0" /><path
         d="m 217.637,170.566 -1.801,7.2 4.801,0.597 v 0.602 l 1.797,-7.199"
         style="fill:#ffffff;fill-opacity:1;fill-rule:nonzero;stroke:none"
         id="path728"
         inkscape:connector-curvature="0" /><path
         d="m 215.836,177.766 4.801,0.597 -0.602,8.403 -4.801,-0.602"
         style="fill:#ffffff;fill-opacity:1;fill-rule:nonzero;stroke:none"
         id="path730"
         inkscape:connector-curvature="0" /><path
         d="m 248.234,187.363 0.602,6 3,5.403 4.199,3.597 5.399,1.203 v -16.203 h -13.2"
         style="fill:#ffffff;fill-opacity:1;fill-rule:evenodd;stroke:none"
         id="path732"
         inkscape:connector-curvature="0" /><path
         d="m 245.836,187.363 0.598,6 0.601,1.2 3,5.402 v 0.598 l 1.801,1.8 h 0.598 l 2.402,1.801 0.598,0.602 1.203,-4.801 1.199,0.598 -2.402,-1.797 -1.797,-1.801 0.597,0.601 -3,-5.402 v 0.602 l -0.597,-6"
         style="fill:#ffffff;fill-opacity:1;fill-rule:nonzero;stroke:none"
         id="path734"
         inkscape:connector-curvature="0" /><path
         d="m 255.434,204.766 2.402,0.597 1.199,-4.8 -2.398,-0.598"
         style="fill:#ffffff;fill-opacity:1;fill-rule:nonzero;stroke:none"
         id="path736"
         inkscape:connector-curvature="0" /><path
         d="m 257.836,205.363 1.199,-4.8 3,0.601 -1.199,4.801"
         style="fill:#ffffff;fill-opacity:1;fill-rule:nonzero;stroke:none"
         id="path738"
         inkscape:connector-curvature="0" /><path
         d="m 261.434,171.164 -5.399,1.199 -4.199,3.602 -3,4.801 -0.602,6.597 h 13.2 v -16.199"
         style="fill:#ffffff;fill-opacity:1;fill-rule:evenodd;stroke:none"
         id="path740"
         inkscape:connector-curvature="0" /><path
         d="m 261.434,168.766 h -4.2 l -4.8,2.398 -0.598,0.602 -1.801,2.398 v 0.602 l 4.199,2.398 h -0.597 l 1.797,-2.398 -0.598,0.597 4.801,-2.398 -1.203,0.598 h 3"
         style="fill:#ffffff;fill-opacity:1;fill-rule:nonzero;stroke:none"
         id="path742"
         inkscape:connector-curvature="0" /><path
         d="m 250.035,174.766 -3,4.797 -0.601,0.601 4.8,0.602 v 1.199 l 3,-4.801"
         style="fill:#ffffff;fill-opacity:1;fill-rule:nonzero;stroke:none"
         id="path744"
         inkscape:connector-curvature="0" /><path
         d="m 246.434,180.164 4.8,0.602 -0.597,6.597 -4.801,-0.597"
         style="fill:#ffffff;fill-opacity:1;fill-rule:nonzero;stroke:none"
         id="path746"
         inkscape:connector-curvature="0" /><path
         d="m 217.035,186.766 h 45.6016 v 2.39844 H 217.035 Z"
         style="fill:#ffffff;fill-opacity:1;fill-rule:nonzero;stroke:none"
         id="path748"
         inkscape:connector-curvature="0" /><path
         d="m 226.035,214.363 -1.199,-1.8 34.801,-25.797 1.199,1.797"
         style="fill:#ffffff;fill-opacity:1;fill-rule:nonzero;stroke:none"
         id="path750"
         inkscape:connector-curvature="0" /><path
         d="m 226.035,159.164 1.801,-1.801 34.199,28.2 -1.801,1.8"
         style="fill:#ffffff;fill-opacity:1;fill-rule:nonzero;stroke:none"
         id="path752"
         inkscape:connector-curvature="0" /></g></g></svg>