<?xml version="1.0" encoding="utf-8"?>
<!-- Generator: Adobe Illustrator 18.0.0, SVG Export Plug-In . SVG Version: 6.00 Build 0)  -->
<!DOCTYPE svg PUBLIC "-//W3C//DTD SVG 1.1//EN" "http://www.w3.org/Graphics/SVG/1.1/DTD/svg11.dtd" [
	<!ENTITY ns_flows "http://ns.adobe.com/Flows/1.0/">
	<!ENTITY ns_extend "http://ns.adobe.com/Extensibility/1.0/">
	<!ENTITY ns_ai "http://ns.adobe.com/AdobeIllustrator/10.0/">
	<!ENTITY ns_graphs "http://ns.adobe.com/Graphs/1.0/">
]>
<svg version="1.1" xmlns:x="&ns_extend;" xmlns:i="&ns_ai;" xmlns:graph="&ns_graphs;"
	 xmlns="http://www.w3.org/2000/svg" xmlns:xlink="http://www.w3.org/1999/xlink" xmlns:a="http://ns.adobe.com/AdobeSVGViewerExtensions/3.0/"
	 x="0px" y="0px" viewBox="0 0 56 56" enable-background="new 0 0 56 56" xml:space="preserve">
<g id="Layer_1">
	<g>
		<defs>
			<path id="SVGID_56_" d="M11.6,55C5.7,55,1,50.3,1,44.4V11.6C1,5.7,5.7,1,11.6,1h32.9C50.3,1,55,5.7,55,11.6v32.9
				C55,50.3,50.3,55,44.4,55H11.6z"/>
		</defs>
		<clipPath id="SVGID_2_">
			<use xlink:href="#SVGID_56_"  overflow="visible"/>
		</clipPath>
		<g id="background_8_" clip-path="url(#SVGID_2_)">
			<g>
				<g>
					<linearGradient id="SVGID_3_" gradientUnits="userSpaceOnUse" x1="28" y1="56.1739" x2="28" y2="-0.1739">
						<stop  offset="0" style="stop-color:#CCCCCC"/>
						<stop  offset="1" style="stop-color:#FFFFFF"/>
						<a:midPointStop  offset="0" style="stop-color:#CCCCCC"/>
						<a:midPointStop  offset="0.5" style="stop-color:#CCCCCC"/>
						<a:midPointStop  offset="1" style="stop-color:#FFFFFF"/>
					</linearGradient>
					<path fill="url(#SVGID_3_)" d="M-0.2,3.8c0-2.2,1.8-4,4-4h48.3c2.2,0,4,1.8,4,4v48.3c0,2.2-1.8,4-4,4H3.8c-2.2,0-4-1.8-4-4V3.8
						z"/>
					<linearGradient id="SVGID_5_" gradientUnits="userSpaceOnUse" x1="28" y1="56.1739" x2="28" y2="-0.1739">
						<stop  offset="0" style="stop-color:#CCCCCC"/>
						<stop  offset="1" style="stop-color:#FFFFFF"/>
						<a:midPointStop  offset="0" style="stop-color:#CCCCCC"/>
						<a:midPointStop  offset="0.5" style="stop-color:#CCCCCC"/>
						<a:midPointStop  offset="1" style="stop-color:#FFFFFF"/>
					</linearGradient>
					<path fill="url(#SVGID_5_)" d="M-0.2,3.8c0-2.2,1.8-4,4-4h48.3c2.2,0,4,1.8,4,4v48.3c0,2.2-1.8,4-4,4H3.8c-2.2,0-4-1.8-4-4V3.8
						z"/>
				</g>
			</g>
			<g>
				<g>
					<linearGradient id="SVGID_6_" gradientUnits="userSpaceOnUse" x1="28" y1="56.1739" x2="28" y2="-0.1739">
						<stop  offset="0" style="stop-color:#BCBEC0"/>
						<stop  offset="7.036275e-002" style="stop-color:#C6C8CA"/>
						<stop  offset="0.2804" style="stop-color:#DFE0E1"/>
						<stop  offset="0.4997" style="stop-color:#F1F1F2"/>
						<stop  offset="0.7322" style="stop-color:#FCFCFC"/>
						<stop  offset="1" style="stop-color:#FFFFFF"/>
						<a:midPointStop  offset="0" style="stop-color:#BCBEC0"/>
						<a:midPointStop  offset="0.2647" style="stop-color:#BCBEC0"/>
						<a:midPointStop  offset="1" style="stop-color:#FFFFFF"/>
					</linearGradient>
					<path fill="url(#SVGID_6_)" d="M-0.2,3.8c0-2.2,1.8-4,4-4h48.3c2.2,0,4,1.8,4,4v48.3c0,2.2-1.8,4-4,4H3.8c-2.2,0-4-1.8-4-4V3.8
						z"/>
				</g>
			</g>
		</g>
		<g id="details_7_" clip-path="url(#SVGID_2_)">
			<circle fill="#0A4378" cx="25.7" cy="44.4" r="2"/>
			<circle fill="#0A4378" cx="42.1" cy="37.4" r="2"/>
			<circle fill="#0A4378" cx="46.8" cy="21" r="2"/>
			<circle fill="#0A4378" cx="28" cy="25.7" r="2"/>
			<circle fill="#0A4378" cx="11.6" cy="28" r="2"/>
			<circle fill="#0A4378" cx="37.4" cy="9.2" r="2"/>
			<path fill="#D42D31" d="M10.8,46.7L10,44.5c0.1,0,11.6-4.7,20.7-13.8c9.1-9.1,15-21.8,15-22l2.1,1c-0.2,0.5-6.1,13.2-15.5,22.6
				C22.9,41.8,11.3,46.5,10.8,46.7z"/>
			<rect x="1" y="9" fill="#7C1917" width="4" height="2"/>
			<rect x="1" y="16" fill="#7C1917" width="4" height="2"/>
			<rect x="1" y="23" fill="#7C1917" width="4" height="2"/>
			<rect x="1" y="30" fill="#7C1917" width="4" height="2"/>
			<rect x="1" y="37" fill="#7C1917" width="4" height="2"/>
			<rect x="1" y="44" fill="#7C1917" width="4" height="2"/>
			<rect x="10" y="51" fill="#7C1917" width="2" height="4"/>
			<rect x="17" y="51" fill="#7C1917" width="2" height="4"/>
			<rect x="24" y="51" fill="#7C1917" width="2" height="4"/>
			<rect x="31" y="51" fill="#7C1917" width="2" height="4"/>
			<rect x="38" y="51" fill="#7C1917" width="2" height="4"/>
			<rect x="45" y="51" fill="#7C1917" width="2" height="4"/>
		</g>
	</g>
</g>
<g id="border">
	<g>
		<g>
			<linearGradient id="SVGID_8_" gradientUnits="userSpaceOnUse" x1="28" y1="56" x2="28" y2="-8.085408e-010">
				<stop  offset="1.227000e-002" style="stop-color:#600000"/>
				<stop  offset="0.5847" style="stop-color:#DC6657"/>
				<a:midPointStop  offset="1.227000e-002" style="stop-color:#600000"/>
				<a:midPointStop  offset="0.5" style="stop-color:#600000"/>
				<a:midPointStop  offset="0.5847" style="stop-color:#DC6657"/>
			</linearGradient>
			<path fill="url(#SVGID_8_)" d="M46,2c4.4,0,8,3.6,8,8v36c0,4.4-3.6,8-8,8H10c-4.4,0-8-3.6-8-8V10c0-4.4,3.6-8,8-8H46 M46,0H10
				C4.5,0,0,4.5,0,10v36c0,5.5,4.5,10,10,10h36c5.5,0,10-4.5,10-10V10C56,4.5,51.5,0,46,0L46,0z"/>
		</g>
	</g>
</g>
<g id="nyt_x5F_png_x5F_info" display="none">
</g>
</svg>
