<?xml version="1.0" encoding="UTF-8" standalone="no"?>
<svg
   xmlns:dc="http://purl.org/dc/elements/1.1/"
   xmlns:cc="http://creativecommons.org/ns#"
   xmlns:rdf="http://www.w3.org/1999/02/22-rdf-syntax-ns#"
   xmlns:svg="http://www.w3.org/2000/svg"
   xmlns="http://www.w3.org/2000/svg"
   viewBox="0 0 856.53333 344.74667"
   height="344.74667"
   width="856.53333"
   xml:space="preserve"
   id="svg2"
   version="1.1"><metadata
     id="metadata8"><rdf:RDF><cc:Work
         rdf:about=""><dc:format>image/svg+xml</dc:format><dc:type
           rdf:resource="http://purl.org/dc/dcmitype/StillImage" /></cc:Work></rdf:RDF></metadata><defs
     id="defs6" /><g
     transform="matrix(1.3333333,0,0,-1.3333333,0,344.74667)"
     id="g10"><g
       transform="scale(0.1)"
       id="g12"><path
         id="path14"
         style="fill:#ffffff;fill-opacity:1;fill-rule:nonzero;stroke:none"
         d="M 0,0 H 6436 V 2590 H 0 Z" /><g
         transform="scale(0.999609,-1.00039)"
         id="g16"><path
           id="path18"
           style="fill:none;stroke:#000000;stroke-width:15.62069988;stroke-linecap:butt;stroke-linejoin:miter;stroke-miterlimit:4;stroke-dasharray:none;stroke-opacity:1"
           d="m 122.36,-2090.53 h 6010.36 v -316.02 H 122.36 Z" /></g><g
         transform="scale(0.999609,-1.00039)"
         id="g20"><path
           id="path22"
           style="fill:none;stroke:#000000;stroke-width:15.62069988;stroke-linecap:butt;stroke-linejoin:miter;stroke-miterlimit:4;stroke-dasharray:none;stroke-opacity:1"
           d="M 162.415,-1485.33 H 1073.92" /></g><g
         transform="scale(0.999609,-1.00039)"
         id="g24"><path
           id="path26"
           style="fill:none;stroke:#000000;stroke-width:15.62069988;stroke-linecap:butt;stroke-linejoin:miter;stroke-miterlimit:4;stroke-dasharray:none;stroke-opacity:1"
           d="M 162.415,-1285.06 H 1073.92" /></g><g
         transform="scale(0.999609,-1.00039)"
         id="g28"><path
           id="path30"
           style="fill:none;stroke:#000000;stroke-width:15.62069988;stroke-linecap:butt;stroke-linejoin:miter;stroke-miterlimit:4;stroke-dasharray:none;stroke-opacity:1"
           d="m 1073.62,-1483.42 1.9,-242.23" /></g><g
         transform="scale(0.999609,-1.00039)"
         id="g32"><path
           id="path34"
           style="fill:none;stroke:#000000;stroke-width:15.62069988;stroke-linecap:butt;stroke-linejoin:miter;stroke-miterlimit:4;stroke-dasharray:none;stroke-opacity:1"
           d="m 1063.61,-1725.65 424.66,1.91" /></g><g
         transform="scale(0.999609,-1.00039)"
         id="g36"><path
           id="path38"
           style="fill:none;stroke:#000000;stroke-width:15.62069988;stroke-linecap:butt;stroke-linejoin:miter;stroke-miterlimit:4;stroke-dasharray:none;stroke-opacity:1"
           d="m 1484.17,-1725.65 3.8,679.61" /></g><g
         transform="scale(0.999609,-1.00039)"
         id="g40"><path
           id="path42"
           style="fill:none;stroke:#000000;stroke-width:15.62069988;stroke-linecap:butt;stroke-linejoin:miter;stroke-miterlimit:4;stroke-dasharray:none;stroke-opacity:1"
           d="m 1063.61,-1054.76 h 429.97" /></g><g
         transform="scale(0.999609,-1.00039)"
         id="g44"><path
           id="path46"
           style="fill:none;stroke:#000000;stroke-width:15.62069988;stroke-linecap:butt;stroke-linejoin:miter;stroke-miterlimit:4;stroke-dasharray:none;stroke-opacity:1"
           d="m 1073.62,-1052.85 1.9,-242.23" /></g><g
         transform="scale(0.999609,-1.00039)"
         id="g48"><path
           id="path50"
           style="fill:none;stroke:#000000;stroke-width:15.62069988;stroke-linecap:butt;stroke-linejoin:miter;stroke-miterlimit:4;stroke-dasharray:none;stroke-opacity:1"
           d="m 1844.64,-1114.84 369.49,-600.79 369.49,600.79 z" /></g><g
         transform="scale(0.999609,-1.00039)"
         id="g52"><path
           id="path54"
           style="fill:none;stroke:#000000;stroke-width:15.62069988;stroke-linecap:butt;stroke-linejoin:miter;stroke-miterlimit:4;stroke-dasharray:none;stroke-opacity:1"
           d="m 2805.91,-1627.52 c 0,-59.68 48.47,-108.14 108.15,-108.14 h 1081.43 c 59.68,0 108.14,48.46 108.14,108.14 v 432.58 c 0,59.68 -48.46,108.14 -108.14,108.14 H 2914.06 c -59.68,0 -108.15,-48.46 -108.15,-108.14 v -432.58" /></g><g
         transform="scale(0.999609,-1.00039)"
         id="g56"><path
           id="path58"
           style="fill:none;stroke:#000000;stroke-width:15.62069988;stroke-linecap:butt;stroke-linejoin:miter;stroke-miterlimit:4;stroke-dasharray:none;stroke-opacity:1"
           d="m 4528.2,-1775.71 7.91,689.31" /></g><g
         transform="scale(0.999609,-1.00039)"
         id="g60"><path
           id="path62"
           style="fill:none;stroke:#000000;stroke-width:15.62069988;stroke-linecap:butt;stroke-linejoin:miter;stroke-miterlimit:4;stroke-dasharray:none;stroke-opacity:1"
           d="m 4528.2,-1089 1608.32,-15.82" /></g><g
         transform="scale(0.999609,-1.00039)"
         id="g64"><path
           id="path66"
           style="fill:none;stroke:#000000;stroke-width:15.62069988;stroke-linecap:butt;stroke-linejoin:miter;stroke-miterlimit:4;stroke-dasharray:none;stroke-opacity:1"
           d="m 6130.31,-1097.41 v -237.72" /></g><g
         transform="scale(0.999609,-1.00039)"
         id="g68"><path
           id="path70"
           style="fill:none;stroke:#000000;stroke-width:15.62069988;stroke-linecap:butt;stroke-linejoin:miter;stroke-miterlimit:4;stroke-dasharray:none;stroke-opacity:1"
           d="m 6134.72,-1325.11 -1045.78,7.91" /></g><g
         transform="scale(0.999609,-1.00039)"
         id="g72"><path
           id="path74"
           style="fill:none;stroke:#000000;stroke-width:15.62069988;stroke-linecap:butt;stroke-linejoin:miter;stroke-miterlimit:4;stroke-dasharray:none;stroke-opacity:1"
           d="m 5088.94,-1317.7 v -237.72" /></g><g
         transform="scale(0.999609,-1.00039)"
         id="g76"><path
           id="path78"
           style="fill:none;stroke:#000000;stroke-width:15.62069988;stroke-linecap:butt;stroke-linejoin:miter;stroke-miterlimit:4;stroke-dasharray:none;stroke-opacity:1"
           d="m 6134.72,-1555.42 -1045.78,7.91" /></g><g
         transform="scale(0.999609,-1.00039)"
         id="g80"><path
           id="path82"
           style="fill:none;stroke:#000000;stroke-width:15.62069988;stroke-linecap:butt;stroke-linejoin:miter;stroke-miterlimit:4;stroke-dasharray:none;stroke-opacity:1"
           d="m 6130.31,-1548.01 v -237.71" /></g><g
         transform="scale(0.999609,-1.00039)"
         id="g84"><path
           id="path86"
           style="fill:none;stroke:#000000;stroke-width:15.62069988;stroke-linecap:butt;stroke-linejoin:miter;stroke-miterlimit:4;stroke-dasharray:none;stroke-opacity:1"
           d="m 4528.2,-1769.9 1608.32,-15.82" /></g><g
         transform="scale(0.999609,-1.00039)"
         id="g88"><path
           id="path90"
           style="fill:none;stroke:#000000;stroke-width:15.62069988;stroke-linecap:butt;stroke-linejoin:miter;stroke-miterlimit:4;stroke-dasharray:none;stroke-opacity:1"
           d="m 1163.74,-1298.68 h 58.28 v -266.75 h 116.55 v 266.75 h 58.28 l -116.56,116.55 z" /></g><g
         transform="scale(0.999609,-1.00039)"
         id="g92"><path
           id="path94"
           style="fill:none;stroke:#000000;stroke-width:15.62069988;stroke-linecap:butt;stroke-linejoin:miter;stroke-miterlimit:4;stroke-dasharray:none;stroke-opacity:1"
           d="m 4891.47,-1508.96 h -58.27 v 266.75 h -116.56 v -266.75 h -58.27 l 116.55,-116.55 z" /></g><g
         transform="scale(0.999609,-1.00039)"
         id="g96"><path
           id="path98"
           style="fill:none;stroke:#000000;stroke-width:15.62069988;stroke-linecap:butt;stroke-linejoin:miter;stroke-miterlimit:4;stroke-dasharray:none;stroke-opacity:1"
           d="m 1864.67,-2086.12 6.31,544.52" /></g><g
         transform="scale(0.999609,-1.00039)"
         id="g100"><path
           id="path102"
           style="fill:none;stroke:#000000;stroke-width:15.62069988;stroke-linecap:butt;stroke-linejoin:miter;stroke-miterlimit:4;stroke-dasharray:none;stroke-opacity:1"
           d="m 1674.42,-2086.12 v 698.42" /></g><g
         transform="scale(0.999609,-1.00039)"
         id="g104"><path
           id="path106"
           style="fill:none;stroke:#000000;stroke-width:15.62069988;stroke-linecap:butt;stroke-linejoin:miter;stroke-miterlimit:4;stroke-dasharray:none;stroke-opacity:1"
           d="m 1764.54,-2086.12 3.7,624.63" /></g><g
         transform="scale(0.999609,-1.00039)"
         id="g108"><path
           id="path110"
           style="fill:none;stroke:#000000;stroke-width:15.62069988;stroke-linecap:butt;stroke-linejoin:miter;stroke-miterlimit:4;stroke-dasharray:none;stroke-opacity:1"
           d="m 1854.65,-1542.9 202.78,-2.51" /></g><g
         transform="scale(0.999609,-1.00039)"
         id="g112"><path
           id="path114"
           style="fill:none;stroke:#000000;stroke-width:15.62069988;stroke-linecap:butt;stroke-linejoin:miter;stroke-miterlimit:4;stroke-dasharray:none;stroke-opacity:1"
           d="m 1764.54,-1465.3 h 251.63" /></g><g
         transform="scale(0.999609,-1.00039)"
         id="g116"><path
           id="path118"
           style="fill:none;stroke:#000000;stroke-width:15.62069988;stroke-linecap:butt;stroke-linejoin:miter;stroke-miterlimit:4;stroke-dasharray:none;stroke-opacity:1"
           d="m 1664.4,-1392.71 305.41,-2.5" /></g><g
         transform="scale(0.999609,-1.00039)"
         id="g120"><path
           id="path122"
           style="fill:none;stroke:#000000;stroke-width:15.62069988;stroke-linecap:butt;stroke-linejoin:miter;stroke-miterlimit:4;stroke-dasharray:none;stroke-opacity:1"
           d="M 2365.33,-1545.41 H 2794.7" /></g><g
         transform="scale(0.999609,-1.00039)"
         id="g124"><path
           id="path126"
           style="fill:none;stroke:#000000;stroke-width:15.62069988;stroke-linecap:butt;stroke-linejoin:miter;stroke-miterlimit:4;stroke-dasharray:none;stroke-opacity:1"
           d="m 2415.4,-1460.29 381.8,-5.01" /></g><g
         transform="scale(0.999609,-1.00039)"
         id="g128"><path
           id="path130"
           style="fill:none;stroke:#000000;stroke-width:15.62069988;stroke-linecap:butt;stroke-linejoin:miter;stroke-miterlimit:4;stroke-dasharray:none;stroke-opacity:1"
           d="m 2475.48,-1363.97 321.72,-1.2" /></g><g
         transform="scale(0.999609,-1.00039)"
         id="g132"><path
           id="path134"
           style="fill:none;stroke:#000000;stroke-width:15.62069988;stroke-linecap:butt;stroke-linejoin:miter;stroke-miterlimit:4;stroke-dasharray:none;stroke-opacity:1"
           d="m 4127.66,-1444.67 382.41,-0.6" /></g><g
         transform="scale(0.999609,-1.00039)"
         id="g136"><path
           id="path138"
           style="fill:none;stroke:#000000;stroke-width:15.62069988;stroke-linecap:butt;stroke-linejoin:miter;stroke-miterlimit:4;stroke-dasharray:none;stroke-opacity:1"
           d="m 422.759,-402.495 c 0,-72.694 58.879,-131.574 131.575,-131.574 72.696,0 131.575,58.88 131.575,131.574 0,72.698 -58.879,131.577 -131.575,131.577 -72.696,0 -131.575,-58.879 -131.575,-131.577 v 0" /></g><g
         transform="scale(0.999609,-1.00039)"
         id="g140"><path
           id="path142"
           style="fill:none;stroke:#000000;stroke-width:15.62069988;stroke-linecap:butt;stroke-linejoin:miter;stroke-miterlimit:4;stroke-dasharray:none;stroke-opacity:1"
           d="m 5980.12,-373.053 c 0,-72.296 58.87,-130.973 131.57,-130.973 72.7,0 131.58,58.677 131.58,130.973 0,72.296 -58.88,130.972 -131.58,130.972 -72.7,0 -131.57,-58.676 -131.57,-130.972 v 0" /></g><g
         transform="scale(0.999609,-1.00039)"
         id="g144"><path
           id="path146"
           style="fill:none;stroke:#000000;stroke-width:15.62069988;stroke-linecap:butt;stroke-linejoin:miter;stroke-miterlimit:4;stroke-dasharray:none;stroke-opacity:1"
           d="m 552.931,-534.069 5557.359,22.531" /></g><g
         transform="scale(0.999609,-1.00039)"
         id="g148"><path
           id="path150"
           style="fill:none;stroke:#000000;stroke-width:15.62069988;stroke-linecap:butt;stroke-linejoin:miter;stroke-miterlimit:4;stroke-dasharray:none;stroke-opacity:1"
           d="m 552.931,-263.709 5557.359,22.53" /></g><g
         transform="scale(0.999609,-1.00039)"
         id="g152"><path
           id="path154"
           style="fill:none;stroke:#000000;stroke-width:15.62069988;stroke-linecap:butt;stroke-linejoin:miter;stroke-miterlimit:4;stroke-dasharray:none;stroke-opacity:1"
           d="m 1994.84,-427.727 c 0,-8.911 7.31,-16.221 16.22,-16.221 h 485.44 c 8.92,0 16.23,7.31 16.23,16.221 v 64.888 c 0,8.911 -7.31,16.221 -16.23,16.221 h -485.44 c -8.91,0 -16.22,-7.31 -16.22,-16.221 v -64.888" /></g><path
         id="path156"
         style="fill:#ff9300;fill-opacity:1;fill-rule:nonzero;stroke:none"
         d="m 4660.15,675.52 c 0,58.097 50.55,105.179 112.9,105.179 62.36,0 112.91,-47.082 112.91,-105.179 0,-58.102 -50.55,-105.184 -112.91,-105.184 -62.35,0 -112.9,47.082 -112.9,105.184 v 0" /><g
         transform="scale(0.999609,-1.00039)"
         id="g158"><path
           id="path160"
           style="fill:none;stroke:#000000;stroke-width:9.61271954;stroke-linecap:butt;stroke-linejoin:miter;stroke-miterlimit:4;stroke-dasharray:none;stroke-opacity:1"
           d="m 4661.97,-679.488 c 0,-58.079 50.57,-105.143 112.95,-105.143 62.38,0 112.95,47.064 112.95,105.143 0,58.075 -50.57,105.138 -112.95,105.138 -62.38,0 -112.95,-47.063 -112.95,-105.138 v 0" /></g><path
         id="path162"
         style="fill:#000000;fill-opacity:1;fill-rule:nonzero;stroke:none"
         d="m 1003,2301.98 v -27 h -2 c -0.65,5.33 -1.805,9.56 -3.469,12.71 -1.836,3.26 -4.027,5.66 -7.109,7.51 -3.215,2.12 -6.258,2.78 -9.547,2.78 -4.012,0.01 -6.797,-1.27 -9.234,-3.82 -2.641,-2.28 -3.641,-5.46 -3.641,-8.72 0,-2.31 0.758,-4.76 2.281,-6.81 2.102,-2.9 7.426,-7.05 15.688,-12.07 6.414,-3.95 11.504,-7.22 14.301,-9.37 2.71,-1.89 4.95,-4.7 6.46,-7.63 1.27,-2.78 2.27,-5.99 2.27,-9.18 0,-5.89 -2.3,-11.36 -6.89,-15.77 -4.622,-4.28 -10.485,-6.61 -17.704,-6.61 -2.398,0 -4.39,0.2 -6.39,0.58 -1.196,0.36 -3.653,1.01 -7.391,2.37 -3.949,1.38 -6.109,2.05 -7.109,2.05 -1.133,0 -1.719,-0.33 -2.282,-0.98 -0.632,-0.32 -0.964,-1.99 -1.234,-4.02 h -2 v 27 h 2 c 0.977,-5.78 2.297,-10.11 3.953,-12.98 1.336,-2.55 4.188,-5.27 7.594,-7.18 3.223,-1.84 7.141,-2.84 11.203,-2.84 4.457,0 8.426,1.33 11.156,3.98 2.426,2.68 4.094,5.82 4.094,9.44 0,2.21 -0.484,4.06 -1.453,6.11 -1.152,2.22 -2.477,3.98 -4.516,5.75 -1.386,1.45 -5.187,3.71 -11.437,7.52 -6.438,3.86 -10.93,6.84 -14.063,9.14 -3.304,2.32 -5.496,4.84 -7.109,7.62 -1.758,2.93 -2.422,5.84 -2.422,9.17 0,5.88 2.117,10.79 6.359,14.97 4.129,4.29 9.649,6.28 16.204,6.28 3.906,0.01 8.437,-1.13 13.031,-3.39 1.914,-0.93 3.609,-1.61 4.484,-1.61 0.961,0.01 1.797,0.33 2.422,0.99 0.457,0.67 1.13,2 1.5,4.01 h 2" /><path
         id="path164"
         style="fill:#000000;fill-opacity:1;fill-rule:nonzero;stroke:none"
         d="m 1036,2303.98 v -40.09 c 4.36,4.77 7.83,7.76 10.39,9.09 2.43,1.34 5.12,2 7.67,2 3.05,0.01 5.71,-0.84 7.91,-2.51 1.88,-1.5 3.84,-4.31 4.91,-7.89 0.45,-2.34 1.12,-7.03 1.12,-13.66 V 2232 c 0,-3.4 0.27,-5.71 0.83,-6.95 0.11,-0.62 1.05,-1.69 1.98,-2.24 0.68,-0.48 2.68,-0.81 5.19,-0.81 v -2 h -26 v 2 h 1.14 c 2.25,0 3.9,0.38 4.8,1.14 0.59,1.05 1.54,1.88 1.9,3.36 -0.18,0.79 0.16,2.46 0.16,5.5 v 18.97 c 0,5.86 -0.3,9.69 -0.91,11.51 -0.63,2.01 -1.57,3.21 -2.9,4.13 -1.39,1.05 -2.92,1.37 -4.78,1.37 -2.06,0.01 -3.92,-0.51 -5.99,-1.53 -2.2,-0.82 -4.54,-3.04 -7.42,-6.11 V 2232 c 0,-3.67 0.19,-5.95 0.56,-6.84 0.2,-0.62 1.09,-1.65 2.11,-2.25 0.81,-0.58 2.81,-0.91 5.33,-0.91 v -2 h -26 v 2 c 2.32,0 4.15,0.37 5.48,1.11 0.6,0.69 1.37,1.13 1.83,2.22 0.35,1.31 0.69,3.31 0.69,6.67 v 49.98 c 0,6.15 -0.13,9.91 -0.39,11.32 -0.47,1.64 -0.66,2.36 -1.2,2.86 -0.67,0.79 -1.25,0.76 -2.14,0.76 -0.82,0.03 -1.91,-0.31 -3.54,-0.94 l -0.73,2 15.41,6 h 2.59" /><path
         id="path166"
         style="fill:#000000;fill-opacity:1;fill-rule:nonzero;stroke:none"
         d="m 1111,2227.95 c -5.53,-4.29 -9,-6.8 -10.41,-7.47 -2.32,-0.81 -4.38,-1.48 -6.76,-1.48 -4.01,0 -6.81,1.24 -9.22,3.73 -2.61,2.58 -3.61,5.77 -3.61,9.85 0,2.7 0.59,4.78 1.77,6.67 1.34,2.85 4.39,5.05 8.37,7.34 3.94,2.44 10.61,5.11 19.86,8.41 v 2.09 c 0,5.61 -0.86,8.95 -2.56,10.93 -1.86,2.3 -4.19,2.96 -7.44,2.96 -2.47,0.01 -4.43,-0.64 -5.87,-1.92 -1.55,-0.96 -2.25,-2.73 -2.25,-4.39 l 0.12,-3.26 c 0,-1.53 -0.46,-3.07 -1.39,-4 -1.13,-0.75 -2.14,-1.41 -3.64,-1.41 -1.78,0 -2.65,0.5 -3.58,1.5 -1.06,1.18 -1.39,2.39 -1.39,4.14 0,3.44 1.74,6.38 5.22,9.16 3.41,2.86 8.38,4.18 14.67,4.18 4.54,0.01 8.79,-0.8 11.88,-2.4 2.07,-1.07 4.05,-3.11 5.17,-5.69 0.39,-1.65 1.06,-5.12 1.06,-10.31 v -18.25 c 0,-4.9 0.09,-8.27 0.28,-9.42 0.1,-1.13 0.52,-1.94 0.95,-2.33 0.36,-0.25 0.95,-0.58 1.52,-0.58 0.36,0 1.15,0.11 1.61,0.34 0.68,0.66 2.35,1.66 4.64,3.66 v -2.8 c -4.41,-5.2 -8.62,-8.2 -12.62,-8.2 -2.06,0 -3.47,0.68 -4.61,2.03 -1.39,1.68 -1.73,3.66 -1.77,6.92 z m 0,3.61 V 2251 c -5.89,-2.23 -9.69,-3.81 -11.41,-4.73 -3.27,-1.39 -5.27,-3.35 -6.61,-5.13 -1.65,-1.5 -1.98,-3.73 -1.98,-5.84 0,-2.44 0.84,-4.89 2.52,-6.66 1.5,-1.64 3.6,-2.64 5.78,-2.64 2.86,0 6.86,1.85 11.7,5.56" /><path
         id="path168"
         style="fill:#000000;fill-opacity:1;fill-rule:nonzero;stroke:none"
         d="m 1131,2268.98 15.86,6 h 2.14 v -12.18 c 2.75,4.58 5.51,7.66 8.28,9.47 2.69,2.05 5.7,2.71 8.77,2.71 5.33,0.01 9.81,-2.07 13.37,-6.23 4.24,-4.98 6.58,-11.67 6.58,-19.81 0,-9.1 -2.64,-16.65 -7.91,-22.61 -4.37,-4.67 -9.81,-7.33 -16.4,-7.33 -3.11,0 -5.36,0.45 -7.46,1.34 -1.63,0.87 -3.29,1.93 -5.23,3.86 V 2206 c 0,-3.58 0.2,-5.86 0.59,-6.83 0.2,-0.69 1.09,-1.74 2.07,-2.31 0.75,-0.52 2.75,-0.86 5.34,-0.86 v -2 h -28 v 2 h 1.58 c 2.11,-0.04 4.27,0.34 5.9,1.16 0.63,0.68 1.41,1.06 1.85,1.97 0.33,1.18 0.67,3.18 0.67,6.87 v 53 c 0,3.22 -0.14,5.26 -0.42,6.13 -0.47,1.16 -0.72,1.53 -1.33,1.98 -0.69,0.75 -1.42,0.69 -2.45,0.69 -1.1,0.06 -1.89,-0.28 -3.17,-0.82 z m 18,-9.56 v -19.64 c 0,-4.18 0.18,-7.05 0.53,-8.39 0.38,-2.01 1.9,-4.17 4.03,-5.86 1.96,-1.53 4.85,-2.53 8.11,-2.53 3.71,0 7.11,1.49 9.55,4.48 3.11,4.08 4.78,9.4 4.78,16.49 0,8.05 -1.81,14.22 -5.42,18.55 -2.72,3.14 -5.51,4.46 -8.97,4.46 -2.09,0.01 -3.75,-0.46 -5.59,-1.37 -1.43,-0.56 -3.76,-2.75 -7.02,-6.19" /><path
         id="path170"
         style="fill:#000000;fill-opacity:1;fill-rule:nonzero;stroke:none"
         d="m 1203,2253 c -0.04,-7.49 1.88,-13.36 5.75,-17.61 3.63,-4.06 8.43,-6.39 13.67,-6.39 3.35,0 6.52,0.82 9.1,2.45 2.41,1.83 4.74,4.83 6.48,9.55 l 1,-1.09 c -0.81,-5.58 -3.18,-10.5 -7.09,-14.66 -4.21,-3.92 -8.81,-6.25 -14.69,-6.25 -6.46,0 -11.86,2.47 -16.41,7.41 -4.81,5.13 -6.81,11.57 -6.81,19.9 0,9.25 2.33,16.05 7,21.1 4.66,5.25 10.52,7.57 17.56,7.57 5.77,0.01 10.85,-1.99 14.69,-5.98 3.75,-3.99 5.75,-9.32 5.75,-16 z m 0,4 h 24 c -0.19,3.36 -0.59,5.73 -1.19,7.09 -1.22,2.45 -2.35,3.83 -4.22,5.05 -2.06,1.52 -3.82,1.84 -5.86,1.84 -3.38,0.01 -5.93,-1.23 -8.4,-3.7 -2.58,-2.23 -3.92,-5.9 -4.33,-10.28" /><path
         id="path172"
         style="fill:#000000;fill-opacity:1;fill-rule:nonzero;stroke:none"
         d="m 1291.5,2274.98 c 1.63,0.01 3.32,-0.63 4.59,-1.9 1.24,-0.97 1.91,-2.81 1.91,-4.6 0,-1.62 -0.64,-3.32 -1.91,-4.59 -1.3,-1.23 -2.8,-1.89 -4.59,-1.89 -1.96,0 -3.32,0.63 -4.59,1.89 -1.58,1.31 -1.91,2.8 -1.91,4.59 0,1.97 0.63,3.32 1.91,4.6 0.97,1.58 2.8,1.9 4.59,1.9 z m -0.03,-42.98 c 1.66,0 3.36,-0.64 4.62,-1.92 1.24,-0.98 1.91,-2.82 1.91,-4.61 0,-1.61 -0.64,-3.31 -1.92,-4.58 -1.31,-1.22 -2.82,-1.89 -4.61,-1.89 -1.94,0 -3.31,0.63 -4.58,1.89 -1.56,1.31 -1.89,2.8 -1.89,4.58 0,1.97 0.63,3.33 1.89,4.61 0.97,1.58 2.8,1.92 4.58,1.92" /><path
         id="path174"
         style="fill:#000000;fill-opacity:1;fill-rule:nonzero;stroke:none"
         d="m 2934,2299.98 1,-17.64 h -2.23 c -0.69,3.5 -1.02,5.63 -1.77,7.04 -1.21,2.46 -2.82,3.92 -4.84,5 -2.07,1.28 -4.67,1.6 -7.96,1.6 H 2907 V 2234 c 0,-5.05 0.52,-8.2 1.56,-9.45 1.27,-1.55 3.71,-2.55 6.74,-2.55 h 2.7 v -2 h -33 v 2 h 2.75 c 3.03,0 5.61,1.05 6.98,3.16 0.6,1.57 1.27,4.23 1.27,8.84 v 61.98 h -9.36 c -3.86,0.01 -6.23,-0.27 -7.76,-0.81 -2.29,-0.46 -3.7,-2.17 -5.11,-4.28 -1.68,-2.07 -2.27,-4.95 -2.54,-8.55 H 2869 l 1,17.64 h 64" /><path
         id="path176"
         style="fill:#000000;fill-opacity:1;fill-rule:nonzero;stroke:none"
         d="m 2943,2253 c -0.04,-7.49 1.88,-13.36 5.75,-17.61 3.63,-4.06 8.43,-6.39 13.67,-6.39 3.35,0 6.52,0.82 9.1,2.45 2.41,1.83 4.74,4.83 6.48,9.55 l 1,-1.09 c -0.81,-5.58 -3.18,-10.5 -7.09,-14.66 -4.21,-3.92 -8.81,-6.25 -14.69,-6.25 -6.46,0 -11.86,2.47 -16.41,7.41 -4.81,5.13 -6.81,11.57 -6.81,19.9 0,9.25 2.33,16.05 7,21.1 4.66,5.25 10.52,7.57 17.56,7.57 5.77,0.01 10.85,-1.99 14.69,-5.98 3.75,-3.99 5.75,-9.32 5.75,-16 z m 0,4 h 24 c -0.19,3.36 -0.59,5.73 -1.19,7.09 -1.22,2.45 -2.35,3.83 -4.22,5.05 -2.06,1.52 -3.82,1.84 -5.86,1.84 -3.38,0.01 -5.93,-1.23 -8.4,-3.7 -2.58,-2.23 -3.92,-5.9 -4.33,-10.28" /><path
         id="path178"
         style="fill:#000000;fill-opacity:1;fill-rule:nonzero;stroke:none"
         d="m 2984,2273.98 h 24 v -2 c -1.48,0.01 -2.52,-0.27 -3.11,-0.82 -0.89,-0.28 -0.89,-1.28 -0.89,-2.19 0,-0.94 0.85,-2.41 2.56,-4.38 0.35,-0.57 1.35,-1.82 2.42,-3.32 l 5.29,-6.69 4.64,5.67 c 3.16,4.47 5.16,6.94 5.09,8.17 0,1.19 -0.39,1.85 -1.16,2.53 -1.05,0.71 -2.01,1.03 -3.73,1.03 v 2 H 3038 v -2 c -1.95,-0.12 -3.64,-0.7 -5.08,-1.73 -2.26,-1.21 -4.88,-4.63 -8.81,-9.52 l -7.83,-9.54 13.72,-18.92 c 3.16,-4.55 5.41,-7.68 6.75,-8.64 1.1,-0.85 3.1,-1.52 5.25,-1.63 v -2 h -25.8 v 2 c 1.89,0 3.48,0.38 4.57,1.13 0.56,0.81 1.23,1.2 1.23,2.06 0,1.13 -1.27,3.03 -3.8,6.5 l -8.2,11.81 -9.52,-11.61 c -2.48,-3.43 -3.48,-5.53 -3.48,-6.17 0,-0.83 0.5,-1.75 1.5,-2.5 0.83,-0.48 2.5,-1.15 4.5,-1.22 v -2 h -18 v 2 c 1.38,0.2 2.59,0.69 3.63,1.48 1.25,1.32 3.91,4.07 7.37,8.79 l 11.55,14.11 -11.55,15.95 c -2.74,4.48 -4.86,6.93 -6.36,8.01 -1.71,1.32 -3.38,1.64 -5.64,1.64 v 2" /><path
         id="path180"
         style="fill:#000000;fill-opacity:1;fill-rule:nonzero;stroke:none"
         d="m 3062,2291.98 v -18 h 12.53 v -4 H 3062 v -35.06 c 0,-3.48 0.46,-5.87 1.38,-7.09 0.8,-1.17 2.11,-1.83 3.56,-1.83 0.87,0 2.33,0.34 3.45,1.02 0.99,1 1.99,1.67 2.61,2.98 h 3 c -1.37,-3.65 -3.32,-6.39 -5.84,-8.23 -2.57,-1.77 -5.11,-2.77 -7.78,-2.77 -1.93,0 -3.58,0.5 -5.3,1.5 -1.76,1.18 -3.01,2.45 -3.85,4.33 -0.9,1.93 -1.23,4.77 -1.23,8.69 v 36.46 h -9 v 1.9 c 2.3,0.9 4.66,2.32 7.06,4.39 2.39,2.3 4.62,4.53 6.64,7.4 0.8,1.62 2.46,4.28 4.3,8.31 h 1" /><path
         id="path182"
         style="fill:#000000;fill-opacity:1;fill-rule:nonzero;stroke:none"
         d="M 3127,2273.98 V 2241 c 0,-6.16 0.13,-9.92 0.39,-11.3 0.13,-1.27 0.68,-2.34 1.25,-2.89 0.36,-0.48 1.24,-0.81 2,-0.81 0.86,0 2.28,0.33 3.63,1 l 0.73,-2 -15.45,-6 H 3117 v 11.16 c -4.62,-4.63 -8.14,-8 -10.56,-9.27 -2.58,-1.22 -5,-1.89 -7.71,-1.89 -3.25,0 -5.62,0.87 -7.84,2.61 -2.51,1.88 -3.75,3.99 -4.61,6.73 -0.95,2.96 -1.28,6.62 -1.28,11.63 v 24.01 c 0,2.47 -0.24,4.16 -0.72,5.11 -0.57,1.25 -1.19,1.68 -2.14,2.19 -1,0.75 -2.66,0.74 -5.14,0.7 v 2 h 18 v -35.82 c 0,-4.71 0.86,-8.27 2.58,-9.83 1.53,-1.33 3.81,-2.33 6.25,-2.33 1.38,0 3.53,0.52 5.64,1.58 1.96,1.19 4.62,3.05 7.53,6.01 v 30.39 c 0,3.09 -0.52,5.17 -1.56,6.25 -1.18,1.34 -3.18,1.67 -6.44,1.75 v 2 h 18" /><path
         id="path184"
         style="fill:#000000;fill-opacity:1;fill-rule:nonzero;stroke:none"
         d="m 3155,2274.98 v -13.09 c 4.44,8.77 8.99,13.09 13.66,13.09 1.89,0.01 3.86,-0.71 5.25,-2.14 1.09,-1.36 2.09,-3.06 2.09,-4.93 0,-1.63 -0.46,-3.06 -1.39,-4.21 -1.13,-1.04 -2.04,-1.7 -3.33,-1.7 -1.34,0 -2.74,0.83 -4.48,2.48 -2.01,1.84 -3.03,2.5 -3.88,2.5 -1.03,0.01 -1.5,-0.43 -2.34,-1.28 -2,-1.64 -3.67,-4.6 -5.58,-8.59 V 2232 c 0,-2.82 0.39,-4.96 1.19,-6.41 0.47,-0.86 1.5,-1.85 2.87,-2.54 1.35,-0.39 3.35,-1.05 5.94,-1.05 v -2 h -28 v 2 c 2.59,0 4.52,0.43 5.78,1.3 0.67,0.86 1.57,1.62 1.94,3 -0.06,0.9 0.28,2.56 0.28,5.7 v 21 c 0,6.38 -0.12,10.18 -0.34,11.39 -0.44,1.41 -0.64,2.09 -1.25,2.64 -0.75,0.88 -1.36,0.85 -2.25,0.85 -1.13,0.03 -2.29,-0.3 -3.64,-0.9 l -0.52,2 15.63,6 h 2.37" /><path
         id="path186"
         style="fill:#000000;fill-opacity:1;fill-rule:nonzero;stroke:none"
         d="m 3189,2253 c -0.04,-7.49 1.88,-13.36 5.75,-17.61 3.63,-4.06 8.43,-6.39 13.67,-6.39 3.35,0 6.52,0.82 9.1,2.45 2.41,1.83 4.74,4.83 6.48,9.55 l 1,-1.09 c -0.81,-5.58 -3.18,-10.5 -7.09,-14.66 -4.21,-3.92 -8.81,-6.25 -14.69,-6.25 -6.46,0 -11.86,2.47 -16.41,7.41 -4.81,5.13 -6.81,11.57 -6.81,19.9 0,9.25 2.33,16.05 7,21.1 4.66,5.25 10.52,7.57 17.56,7.57 5.77,0.01 10.85,-1.99 14.69,-5.98 3.75,-3.99 5.75,-9.32 5.75,-16 z m 0,4 h 24 c -0.19,3.36 -0.59,5.73 -1.19,7.09 -1.22,2.45 -2.35,3.83 -4.22,5.05 -2.06,1.52 -3.82,1.84 -5.86,1.84 -3.38,0.01 -5.93,-1.23 -8.4,-3.7 -2.58,-2.23 -3.92,-5.9 -4.33,-10.28" /><path
         id="path188"
         style="fill:#000000;fill-opacity:1;fill-rule:nonzero;stroke:none"
         d="m 3277.5,2274.98 c 1.63,0.01 3.32,-0.63 4.59,-1.9 1.24,-0.97 1.91,-2.81 1.91,-4.6 0,-1.62 -0.64,-3.32 -1.91,-4.59 -1.3,-1.23 -2.8,-1.89 -4.59,-1.89 -1.96,0 -3.32,0.63 -4.59,1.89 -1.58,1.31 -1.91,2.8 -1.91,4.59 0,1.97 0.63,3.32 1.91,4.6 0.97,1.58 2.8,1.9 4.59,1.9 z m -0.03,-42.98 c 1.66,0 3.36,-0.64 4.62,-1.92 1.24,-0.98 1.91,-2.82 1.91,-4.61 0,-1.61 -0.64,-3.31 -1.92,-4.58 -1.31,-1.22 -2.82,-1.89 -4.61,-1.89 -1.94,0 -3.31,0.63 -4.58,1.89 -1.56,1.31 -1.89,2.8 -1.89,4.58 0,1.97 0.63,3.33 1.89,4.61 0.97,1.58 2.8,1.92 4.58,1.92" /><path
         id="path190"
         style="fill:#000000;fill-opacity:1;fill-rule:nonzero;stroke:none"
         d="m 5184.42,2299.98 v -2 c -2.21,0.01 -3.76,-0.37 -5.04,-1.12 -1.41,-0.7 -2.52,-2.15 -3.69,-4.2 -1.01,-1.28 -2.01,-4.69 -3.69,-9.91 L 5149.31,2218 h -2.01 l -17.66,49.88 -16.48,-49.88 h -3.13 l -23.09,66.47 c -2.08,5.25 -2.88,8.07 -3.35,8.98 -0.98,1.71 -1.85,2.67 -3.2,3.41 -1.48,0.8 -3.17,1.12 -5.47,1.12 v 2 h 29.3 v -2 h -1.41 c -2.34,0.01 -3.65,-0.5 -4.75,-1.5 -1.11,-0.82 -1.64,-2.18 -1.64,-3.59 -0.14,-1.42 0.86,-4.8 2.58,-10.01 l 15.5,-45 12.34,37.9 -2.56,7.25 -1.87,5.6 c -0.96,2.17 -1.75,3.85 -2.77,5.42 -0.73,1.09 -1.14,1.43 -1.87,1.97 -1.24,1.06 -1.97,1.27 -2.94,1.59 -1.02,0.38 -1.92,0.37 -3.52,0.37 v 2 h 30.89 v -2 h -2.11 c -2.21,0.01 -3.79,-0.49 -4.81,-1.46 -1.1,-0.82 -1.51,-2.31 -1.51,-3.99 -0.26,-1.94 0.87,-5.73 2.64,-10.92 l 15.28,-43.17 15.56,44.04 c 1.63,5.16 2.58,8.45 2.58,10.38 -0.28,0.97 -0.29,1.79 -0.86,2.59 -0.89,0.99 -1.27,1.37 -2.13,1.69 -1.77,0.85 -3.43,0.84 -5.81,0.84 v 2 h 23.39" /><path
         id="path192"
         style="fill:#000000;fill-opacity:1;fill-rule:nonzero;stroke:none"
         d="m 5189,2253 c -0.04,-7.49 1.88,-13.36 5.75,-17.61 3.63,-4.06 8.43,-6.39 13.67,-6.39 3.35,0 6.52,0.82 9.1,2.45 2.41,1.83 4.74,4.83 6.48,9.55 l 1,-1.09 c -0.81,-5.58 -3.18,-10.5 -7.09,-14.66 -4.21,-3.92 -8.81,-6.25 -14.69,-6.25 -6.46,0 -11.86,2.47 -16.41,7.41 -4.81,5.13 -6.81,11.57 -6.81,19.9 0,9.25 2.33,16.05 7,21.1 4.66,5.25 10.52,7.57 17.56,7.57 5.77,0.01 10.85,-1.99 14.69,-5.98 3.75,-3.99 5.75,-9.32 5.75,-16 z m 0,4 h 24 c -0.19,3.36 -0.59,5.73 -1.19,7.09 -1.22,2.45 -2.35,3.83 -4.22,5.05 -2.06,1.52 -3.82,1.84 -5.86,1.84 -3.38,0.01 -5.93,-1.23 -8.4,-3.7 -2.58,-2.23 -3.92,-5.9 -4.33,-10.28" /><path
         id="path194"
         style="fill:#000000;fill-opacity:1;fill-rule:nonzero;stroke:none"
         d="m 5246.53,2303.98 c 1.61,0.01 3.32,-0.63 4.58,-1.89 1.22,-0.96 1.89,-2.79 1.89,-4.57 0,-1.64 -0.63,-3.33 -1.89,-4.61 -1.3,-1.25 -2.79,-1.93 -4.58,-1.93 -1.97,0.01 -3.33,0.65 -4.61,1.93 -1.59,1.31 -1.92,2.81 -1.92,4.61 0,1.95 0.63,3.31 1.89,4.57 0.96,1.57 2.81,1.89 4.64,1.89 z m 5.47,-29 V 2232 c 0,-3.36 0.24,-5.59 0.72,-6.7 0.24,-0.87 1.19,-1.94 2.12,-2.49 0.67,-0.48 2.67,-0.81 5.16,-0.81 v -2 h -26 v 2 c 2.55,0 4.27,0.25 5.14,0.75 0.83,0.59 1.57,1.35 2.08,2.52 0.44,1.42 0.78,3.42 0.78,6.73 v 21 c 0,5.91 -0.16,9.74 -0.47,11.48 -0.42,1.45 -0.62,2.15 -1.14,2.65 -0.65,0.78 -1.23,0.75 -2.12,0.75 -1.06,0.03 -2.15,-0.3 -3.54,-0.9 l -0.73,2 15.53,6 h 2.47" /><path
         id="path196"
         style="fill:#000000;fill-opacity:1;fill-rule:nonzero;stroke:none"
         d="m 5279.11,2239.39 c -3.29,1.8 -5.75,3.82 -7.5,6.69 -1.95,3.18 -2.61,6.05 -2.61,9.51 0,5.43 2,9.85 6.02,13.66 4,4.07 9.14,5.73 15.4,5.73 4.99,0.01 9.56,-1.33 13.31,-4 h 11.4 c 1.64,0.01 2.66,-0.03 2.93,-0.1 0.25,-0.04 0.46,-0.2 0.58,-0.38 0.02,-0.11 0.36,-0.75 0.36,-1.42 0,-0.47 -0.11,-1.31 -0.31,-1.61 -0.36,0.03 -0.35,-0.27 -0.66,-0.36 -0.31,0.21 -1.34,-0.13 -3.12,-0.13 h -7.19 c 1.94,-2.9 3.28,-6.62 3.28,-11.15 0,-5.13 -1.9,-9.63 -5.7,-13.31 -3.89,-3.52 -8.89,-5.52 -15.27,-5.52 -2.65,0 -5.33,0.41 -8.08,1.22 -2.25,-1.11 -3.25,-2.56 -3.93,-3.59 -0.69,-0.9 -1.02,-1.9 -1.02,-2.61 0,-0.28 0.34,-1.2 1.02,-1.79 0.68,-0.32 2.02,-0.98 4.01,-1.23 1.15,-0.12 4.06,-0.23 8.7,-0.33 8.29,-0.06 14.07,-0.39 16.6,-0.67 3.74,-0.52 6.92,-1.91 9.22,-4.16 2.11,-2.18 3.45,-5 3.45,-8.29 0,-4.38 -2.12,-8.79 -6.37,-12.77 -6.47,-5.78 -14.43,-8.78 -24.5,-8.78 -7.79,0 -14.28,1.71 -19.61,5.13 -3.19,2.25 -4.52,4 -4.52,6.12 0,1.19 0.2,1.88 0.61,2.83 0.44,1.76 1.96,3.47 3.94,6.06 0.08,0.64 2.16,2.48 5.72,6.36 -2.38,1.36 -3.9,2.27 -4.85,3.22 -1.09,1.04 -1.42,2.02 -1.42,3.22 0,1.36 0.6,2.92 1.8,4.73 0.93,1.93 3.97,4.4 8.31,7.72 z m 10.12,32.59 c -2.98,0.01 -5.34,-1.14 -7.29,-3.43 -2.28,-2.14 -2.94,-5.78 -2.94,-10.49 0,-5.8 1.33,-10.86 4,-14.23 2.04,-2.5 4.63,-3.83 7.77,-3.83 2.72,0 5.42,1.1 7.34,3.31 1.89,2.44 2.89,5.67 2.89,10.39 0,6.25 -1.36,10.96 -4.06,14.46 -2.31,2.83 -4.57,3.82 -7.71,3.82 z M 5278.42,2220 c -1.93,-2.01 -3.15,-3.88 -4.06,-5.61 -1.03,-1.52 -1.36,-3.32 -1.36,-4.78 0,-1.75 1.19,-3.54 3.58,-4.95 3.91,-2.32 10.03,-3.66 17.8,-3.66 7.26,0 12.84,1.28 16.35,3.83 3.27,2.6 5.27,5.26 5.27,8.15 0,2.09 -1.06,3.57 -3.17,4.46 -2.45,1.07 -6.45,1.4 -12.85,1.56 -9.67,0.18 -16.53,0.51 -21.56,1" /><path
         id="path198"
         style="fill:#000000;fill-opacity:1;fill-rule:nonzero;stroke:none"
         d="m 5341,2303.98 v -40.09 c 4.36,4.77 7.83,7.76 10.39,9.09 2.43,1.34 5.12,2 7.67,2 3.05,0.01 5.71,-0.84 7.91,-2.51 1.88,-1.5 3.84,-4.31 4.91,-7.89 0.45,-2.34 1.12,-7.03 1.12,-13.66 V 2232 c 0,-3.4 0.27,-5.71 0.83,-6.95 0.11,-0.62 1.05,-1.69 1.98,-2.24 0.68,-0.48 2.68,-0.81 5.19,-0.81 v -2 h -26 v 2 h 1.14 c 2.25,0 3.9,0.38 4.8,1.14 0.59,1.05 1.54,1.88 1.9,3.36 -0.18,0.79 0.16,2.46 0.16,5.5 v 18.97 c 0,5.86 -0.3,9.69 -0.91,11.51 -0.63,2.01 -1.57,3.21 -2.9,4.13 -1.39,1.05 -2.92,1.37 -4.78,1.37 -2.06,0.01 -3.92,-0.51 -5.99,-1.53 -2.2,-0.82 -4.54,-3.04 -7.42,-6.11 V 2232 c 0,-3.67 0.19,-5.95 0.56,-6.84 0.2,-0.62 1.09,-1.65 2.11,-2.25 0.81,-0.58 2.81,-0.91 5.33,-0.91 v -2 h -26 v 2 c 2.32,0 4.15,0.37 5.48,1.11 0.6,0.69 1.37,1.13 1.83,2.22 0.35,1.31 0.69,3.31 0.69,6.67 v 49.98 c 0,6.15 -0.13,9.91 -0.39,11.32 -0.47,1.64 -0.66,2.36 -1.2,2.86 -0.67,0.79 -1.25,0.76 -2.14,0.76 -0.82,0.03 -1.91,-0.31 -3.54,-0.94 l -0.73,2 15.41,6 h 2.59" /><path
         id="path200"
         style="fill:#000000;fill-opacity:1;fill-rule:nonzero;stroke:none"
         d="m 5401,2291.98 v -18 h 12.53 v -4 H 5401 v -35.06 c 0,-3.48 0.46,-5.87 1.38,-7.09 0.8,-1.17 2.11,-1.83 3.56,-1.83 0.87,0 2.33,0.34 3.45,1.02 0.99,1 1.99,1.67 2.61,2.98 h 3 c -1.37,-3.65 -3.32,-6.39 -5.84,-8.23 -2.57,-1.77 -5.11,-2.77 -7.78,-2.77 -1.93,0 -3.58,0.5 -5.3,1.5 -1.76,1.18 -3.01,2.45 -3.85,4.33 -0.9,1.93 -1.23,4.77 -1.23,8.69 v 36.46 h -9 v 1.9 c 2.3,0.9 4.66,2.32 7.06,4.39 2.39,2.3 4.62,4.53 6.64,7.4 0.8,1.62 2.46,4.28 4.3,8.31 h 1" /><path
         id="path202"
         style="fill:#000000;fill-opacity:1;fill-rule:nonzero;stroke:none"
         d="m 5463.5,2274.98 c 1.63,0.01 3.32,-0.63 4.59,-1.9 1.24,-0.97 1.91,-2.81 1.91,-4.6 0,-1.62 -0.64,-3.32 -1.91,-4.59 -1.3,-1.23 -2.8,-1.89 -4.59,-1.89 -1.96,0 -3.32,0.63 -4.59,1.89 -1.58,1.31 -1.91,2.8 -1.91,4.59 0,1.97 0.63,3.32 1.91,4.6 0.97,1.58 2.8,1.9 4.59,1.9 z m -0.03,-42.98 c 1.66,0 3.36,-0.64 4.62,-1.92 1.24,-0.98 1.91,-2.82 1.91,-4.61 0,-1.61 -0.64,-3.31 -1.92,-4.58 -1.31,-1.22 -2.82,-1.89 -4.61,-1.89 -1.94,0 -3.31,0.63 -4.58,1.89 -1.56,1.31 -1.89,2.8 -1.89,4.58 0,1.97 0.63,3.33 1.89,4.61 0.97,1.58 2.8,1.92 4.58,1.92" /><path
         id="path204"
         style="fill:#000000;fill-opacity:1;fill-rule:nonzero;stroke:none"
         d="m 5294.27,1701.98 c 10.39,0.01 19.55,-3.96 27.21,-11.87 7.52,-7.62 11.52,-17.8 11.52,-29.64 0,-12.02 -3.87,-22.33 -11.61,-30.39 -7.86,-7.75 -17.09,-12.08 -28.06,-12.08 -11.22,0 -20.44,3.93 -28,11.78 -7.67,7.94 -11.33,18.04 -11.33,30.52 0,12.98 4.36,23.15 13.09,31.2 7.54,7.16 16.63,10.48 27.18,10.48 z m -1.13,-4 c -7.44,0.01 -13.33,-2.68 -17.8,-8.04 -5.68,-6.67 -8.34,-16.47 -8.34,-29.35 0,-13.06 2.88,-23.36 8.66,-30.48 4.2,-5.11 10.27,-8.11 17.54,-8.11 7.68,0 14.15,2.96 19.21,8.89 4.92,5.96 7.59,15.27 7.59,28.03 0,13.86 -2.78,24.15 -8.34,30.96 -4.69,5.44 -10.64,8.1 -18.52,8.1" /><path
         id="path206"
         style="fill:#000000;fill-opacity:1;fill-rule:nonzero;stroke:none"
         d="m 5356,1674.98 v -13.09 c 4.44,8.77 8.99,13.09 13.66,13.09 1.89,0.01 3.86,-0.71 5.25,-2.14 1.09,-1.36 2.09,-3.06 2.09,-4.93 0,-1.63 -0.46,-3.06 -1.39,-4.21 -1.13,-1.04 -2.04,-1.7 -3.33,-1.7 -1.34,0 -2.74,0.83 -4.48,2.48 -2.01,1.84 -3.03,2.5 -3.88,2.5 -1.03,0.01 -1.5,-0.43 -2.34,-1.28 -2,-1.64 -3.67,-4.6 -5.58,-8.59 V 1632 c 0,-2.82 0.39,-4.96 1.19,-6.41 0.47,-0.86 1.5,-1.85 2.87,-2.54 1.35,-0.39 3.35,-1.05 5.94,-1.05 v -2 h -28 v 2 c 2.59,0 4.52,0.43 5.78,1.3 0.67,0.86 1.57,1.62 1.94,3 -0.06,0.9 0.28,2.56 0.28,5.7 v 21 c 0,6.38 -0.12,10.18 -0.34,11.39 -0.44,1.41 -0.64,2.09 -1.25,2.64 -0.75,0.88 -1.36,0.85 -2.25,0.85 -1.13,0.03 -2.29,-0.3 -3.64,-0.9 l -0.52,2 15.63,6 h 2.37" /><path
         id="path208"
         style="fill:#000000;fill-opacity:1;fill-rule:nonzero;stroke:none"
         d="m 5411,1627.95 c -5.53,-4.29 -9,-6.8 -10.41,-7.47 -2.32,-0.81 -4.38,-1.48 -6.76,-1.48 -4.01,0 -6.81,1.24 -9.22,3.73 -2.61,2.58 -3.61,5.77 -3.61,9.85 0,2.7 0.59,4.78 1.77,6.67 1.34,2.85 4.39,5.05 8.37,7.34 3.94,2.44 10.61,5.11 19.86,8.41 v 2.09 c 0,5.61 -0.86,8.95 -2.56,10.93 -1.86,2.3 -4.19,2.96 -7.44,2.96 -2.47,0.01 -4.43,-0.64 -5.87,-1.92 -1.55,-0.96 -2.25,-2.73 -2.25,-4.39 l 0.12,-3.26 c 0,-1.53 -0.46,-3.07 -1.39,-4 -1.13,-0.75 -2.14,-1.41 -3.64,-1.41 -1.78,0 -2.65,0.5 -3.58,1.5 -1.06,1.18 -1.39,2.39 -1.39,4.14 0,3.44 1.74,6.38 5.22,9.16 3.41,2.86 8.38,4.18 14.67,4.18 4.54,0.01 8.79,-0.8 11.88,-2.4 2.07,-1.07 4.05,-3.11 5.17,-5.69 0.39,-1.65 1.06,-5.12 1.06,-10.31 v -18.25 c 0,-4.9 0.09,-8.27 0.28,-9.42 0.1,-1.13 0.52,-1.94 0.95,-2.33 0.36,-0.25 0.95,-0.58 1.52,-0.58 0.36,0 1.15,0.11 1.61,0.34 0.68,0.66 2.35,1.66 4.64,3.66 v -2.8 c -4.41,-5.2 -8.62,-8.2 -12.62,-8.2 -2.06,0 -3.47,0.68 -4.61,2.03 -1.39,1.68 -1.73,3.66 -1.77,6.92 z m 0,3.61 V 1651 c -5.89,-2.23 -9.69,-3.81 -11.41,-4.73 -3.27,-1.39 -5.27,-3.35 -6.61,-5.13 -1.65,-1.5 -1.98,-3.73 -1.98,-5.84 0,-2.44 0.84,-4.89 2.52,-6.66 1.5,-1.64 3.6,-2.64 5.78,-2.64 2.86,0 6.86,1.85 11.7,5.56" /><path
         id="path210"
         style="fill:#000000;fill-opacity:1;fill-rule:nonzero;stroke:none"
         d="m 5449,1663.83 c 6.31,7.49 12.33,11.15 18.06,11.15 2.92,0.01 5.46,-0.73 7.58,-2.18 1.91,-1.39 3.81,-3.87 5.06,-7.22 0.63,-2.19 1.3,-5.9 1.3,-10.74 V 1632 c 0,-3.4 0.27,-5.7 0.8,-6.91 0.15,-0.66 1.09,-1.73 2.03,-2.28 0.66,-0.48 2.66,-0.81 5.17,-0.81 v -2 h -26 v 2 h 1.03 c 2.29,0 3.91,0.38 4.83,1.14 0.64,1.05 1.57,1.88 1.92,3.36 -0.12,0.75 0.22,2.41 0.22,5.5 v 22.02 c 0,5.22 -0.63,8.44 -1.89,10.65 -1.29,2.32 -3.37,3.31 -6.36,3.31 -4.86,0.01 -9.19,-2.53 -13.75,-7.59 V 1632 c 0,-3.62 0.2,-5.87 0.59,-6.72 0.3,-0.9 1.19,-1.97 2.07,-2.5 0.65,-0.45 2.65,-0.78 5.34,-0.78 v -2 h -26 v 2 h 1.16 c 2.63,0 4.5,0.69 5.43,2.08 0.74,1.69 1.41,4.02 1.41,7.92 v 21 c 0,6.21 -0.13,9.98 -0.39,11.33 -0.47,1.58 -0.66,2.28 -1.2,2.78 -0.67,0.8 -1.25,0.77 -2.14,0.77 -1.06,0.03 -2.14,-0.3 -3.49,-0.9 l -0.78,2 15.58,6 h 2.42 v -11.15" /><path
         id="path212"
         style="fill:#000000;fill-opacity:1;fill-rule:nonzero;stroke:none"
         d="m 5507.11,1639.39 c -3.29,1.8 -5.75,3.82 -7.5,6.69 -1.95,3.18 -2.61,6.05 -2.61,9.51 0,5.43 2,9.85 6.02,13.66 4,4.07 9.14,5.73 15.4,5.73 4.99,0.01 9.56,-1.33 13.31,-4 h 11.4 c 1.64,0.01 2.66,-0.03 2.93,-0.1 0.25,-0.04 0.46,-0.2 0.58,-0.38 0.02,-0.11 0.36,-0.75 0.36,-1.42 0,-0.47 -0.11,-1.31 -0.31,-1.61 -0.36,0.03 -0.35,-0.27 -0.66,-0.36 -0.31,0.21 -1.34,-0.13 -3.12,-0.13 h -7.19 c 1.94,-2.9 3.28,-6.62 3.28,-11.15 0,-5.13 -1.9,-9.63 -5.7,-13.31 -3.89,-3.52 -8.89,-5.52 -15.27,-5.52 -2.65,0 -5.33,0.41 -8.08,1.22 -2.25,-1.11 -3.25,-2.56 -3.93,-3.59 -0.69,-0.9 -1.02,-1.9 -1.02,-2.61 0,-0.28 0.34,-1.2 1.02,-1.79 0.68,-0.32 2.02,-0.98 4.01,-1.23 1.15,-0.12 4.06,-0.23 8.7,-0.33 8.29,-0.06 14.07,-0.39 16.6,-0.67 3.74,-0.52 6.92,-1.91 9.22,-4.16 2.11,-2.18 3.45,-5 3.45,-8.29 0,-4.38 -2.12,-8.79 -6.37,-12.77 -6.47,-5.78 -14.43,-8.78 -24.5,-8.78 -7.79,0 -14.28,1.71 -19.61,5.13 -3.19,2.25 -4.52,4 -4.52,6.12 0,1.19 0.2,1.88 0.61,2.83 0.44,1.76 1.96,3.47 3.94,6.06 0.08,0.64 2.16,2.48 5.72,6.36 -2.38,1.36 -3.9,2.27 -4.85,3.22 -1.09,1.04 -1.42,2.02 -1.42,3.22 0,1.36 0.6,2.92 1.8,4.73 0.93,1.93 3.97,4.4 8.31,7.72 z m 10.12,32.59 c -2.98,0.01 -5.34,-1.14 -7.29,-3.43 -2.28,-2.14 -2.94,-5.78 -2.94,-10.49 0,-5.8 1.33,-10.86 4,-14.23 2.04,-2.5 4.63,-3.83 7.77,-3.83 2.72,0 5.42,1.1 7.34,3.31 1.89,2.44 2.89,5.67 2.89,10.39 0,6.25 -1.36,10.96 -4.06,14.46 -2.31,2.83 -4.57,3.82 -7.71,3.82 z M 5506.42,1620 c -1.93,-2.01 -3.15,-3.88 -4.06,-5.61 -1.03,-1.52 -1.36,-3.32 -1.36,-4.78 0,-1.75 1.19,-3.54 3.58,-4.95 3.91,-2.32 10.03,-3.66 17.8,-3.66 7.26,0 12.84,1.28 16.35,3.83 3.27,2.6 5.27,5.26 5.27,8.15 0,2.09 -1.06,3.57 -3.17,4.46 -2.45,1.07 -6.45,1.4 -12.85,1.56 -9.67,0.18 -16.53,0.51 -21.56,1" /><path
         id="path214"
         style="fill:#000000;fill-opacity:1;fill-rule:nonzero;stroke:none"
         d="m 5563,1653 c -0.04,-7.49 1.88,-13.36 5.75,-17.61 3.63,-4.06 8.43,-6.39 13.67,-6.39 3.35,0 6.52,0.82 9.1,2.45 2.41,1.83 4.74,4.83 6.48,9.55 l 1,-1.09 c -0.81,-5.58 -3.18,-10.5 -7.09,-14.66 -4.21,-3.92 -8.81,-6.25 -14.69,-6.25 -6.46,0 -11.86,2.47 -16.41,7.41 -4.81,5.13 -6.81,11.57 -6.81,19.9 0,9.25 2.33,16.05 7,21.1 4.66,5.25 10.52,7.57 17.56,7.57 5.77,0.01 10.85,-1.99 14.69,-5.98 3.75,-3.99 5.75,-9.32 5.75,-16 z m 0,4 h 24 c -0.19,3.36 -0.59,5.73 -1.19,7.09 -1.22,2.45 -2.35,3.83 -4.22,5.05 -2.06,1.52 -3.82,1.84 -5.86,1.84 -3.38,0.01 -5.93,-1.23 -8.4,-3.7 -2.58,-2.23 -3.92,-5.9 -4.33,-10.28" /><path
         id="path216"
         style="fill:#000000;fill-opacity:1;fill-rule:nonzero;stroke:none"
         d="M 5642,1674.98 V 1657 h -2 c -1.5,5.41 -3.43,9.1 -5.78,11.05 -2.42,2.27 -5.34,2.93 -8.97,2.93 -2.86,0.01 -5.01,-0.69 -6.7,-2.09 -1.89,-1.35 -2.55,-2.92 -2.55,-4.61 0,-1.84 0.63,-3.87 1.89,-5.37 0.92,-1.52 3.7,-3.18 7.45,-4.91 l 8.64,-3.98 c 7.68,-3.48 12.02,-8.81 12.02,-15.02 0,-4.8 -1.87,-8.67 -5.62,-11.61 -3.88,-2.73 -7.95,-4.39 -12.6,-4.39 -3.59,0 -7.14,0.5 -11.42,1.5 -1.43,0.5 -2.39,0.5 -3.22,0.5 -0.95,0 -1.62,-0.67 -2.14,-2 h -2 v 18 h 2 c 1.1,-4.64 3.21,-8.13 6.31,-10.48 3.01,-2.19 6.6,-3.52 10.47,-3.52 2.46,0 4.93,0.77 6.64,2.31 1.58,1.77 2.58,3.4 2.58,5.57 0,2.66 -0.9,4.83 -2.69,6.62 -1.9,1.96 -5.56,4.01 -11.31,6.66 -5.75,2.93 -9.52,5.09 -11.31,7.31 -2.03,2.36 -2.69,4.95 -2.69,8.3 0,4.39 1.53,7.92 4.59,10.84 2.87,3.05 7.03,4.37 11.89,4.37 1.97,0.01 4.72,-0.4 7.77,-1.2 1.93,-0.46 3.35,-0.8 4.03,-0.8 0.53,0.01 1.11,0.12 1.47,0.36 0.1,0.47 0.77,0.8 1.25,1.64 h 2" /><path
         id="path218"
         style="fill:#000000;fill-opacity:1;fill-rule:nonzero;stroke:none"
         d="m 444,1435.98 v -33 h 14 c 3.52,0.01 6.098,0.79 7.734,2.38 1.391,1.8 2.723,4.46 3.266,8.62 h 2 V 1388 h -2 c -0.043,3.04 -0.469,5.27 -1.281,6.7 -1.043,1.53 -1.922,2.5 -3.36,3.22 -1.546,0.74 -3.546,1.08 -6.359,1.08 h -14 v -25 c 0,-4.06 0.242,-6.75 0.734,-8.05 0.129,-0.96 1.161,-1.82 2.36,-2.53 1.613,-0.76 3.363,-1.42 5.156,-1.42 H 455 v -2 h -33 v 2 h 2.719 c 2.937,0 5.484,0.96 6.922,2.89 0.691,1.3 1.359,4.3 1.359,9.11 v 51.98 c 0,4.07 -0.246,6.75 -0.734,8.05 -0.465,1.3 -1.153,1.82 -2.328,2.53 -1.938,1.1 -3.368,1.42 -5.219,1.42 H 422 v 2 h 59 l 1,-17 h -3 c -0.867,3.68 -1.871,6.38 -3.016,8.1 -1.464,2.02 -2.714,2.96 -4.734,3.73 -2.094,0.85 -5.133,1.17 -9.359,1.17 H 444" /><path
         id="path220"
         style="fill:#000000;fill-opacity:1;fill-rule:nonzero;stroke:none"
         d="m 506,1414.98 v -13.09 c 4.438,8.77 8.988,13.09 13.656,13.09 1.895,0.01 3.864,-0.71 5.25,-2.14 1.094,-1.36 2.094,-3.06 2.094,-4.93 0,-1.63 -0.465,-3.06 -1.391,-4.21 -1.132,-1.04 -2.039,-1.7 -3.328,-1.7 -1.343,0 -2.746,0.83 -4.484,2.48 -2.008,1.84 -3.031,2.5 -3.875,2.5 -1.027,0.01 -1.5,-0.43 -2.344,-1.28 -1.996,-1.64 -3.664,-4.6 -5.578,-8.59 V 1372 c 0,-2.82 0.395,-4.96 1.188,-6.41 0.476,-0.86 1.5,-1.85 2.875,-2.54 1.351,-0.39 3.351,-1.05 5.937,-1.05 v -2 h -28 v 2 c 2.594,0 4.52,0.43 5.781,1.3 0.664,0.86 1.571,1.62 1.938,3 -0.055,0.9 0.281,2.56 0.281,5.7 v 21 c 0,6.38 -0.117,10.18 -0.344,11.39 -0.437,1.41 -0.636,2.09 -1.25,2.64 -0.742,0.88 -1.355,0.85 -2.25,0.85 -1.125,0.03 -2.289,-0.3 -3.64,-0.9 l -0.516,2 15.625,6 H 506" /><path
         id="path222"
         style="fill:#000000;fill-opacity:1;fill-rule:nonzero;stroke:none"
         d="M 578,1413.98 V 1381 c 0,-6.16 0.129,-9.92 0.391,-11.3 0.129,-1.27 0.675,-2.34 1.25,-2.89 0.359,-0.48 1.238,-0.81 2,-0.81 0.859,0 2.281,0.33 3.625,1 l 0.734,-2 -15.453,-6 H 568 v 11.16 c -4.617,-4.63 -8.137,-8 -10.562,-9.27 -2.575,-1.22 -4.997,-1.89 -7.704,-1.89 -3.257,0 -5.625,0.87 -7.843,2.61 -2.508,1.88 -3.746,3.99 -4.61,6.73 -0.949,2.96 -1.281,6.62 -1.281,11.63 v 24.01 c 0,2.47 -0.242,4.16 -0.719,5.11 -0.574,1.25 -1.195,1.68 -2.14,2.19 -0.996,0.75 -2.664,0.74 -5.141,0.7 v 2 h 18 v -35.82 c 0,-4.71 0.859,-8.27 2.578,-9.83 1.535,-1.33 3.813,-2.33 6.25,-2.33 1.379,0 3.535,0.52 5.641,1.58 1.957,1.19 4.625,3.05 7.531,6.01 v 30.39 c 0,3.09 -0.523,5.17 -1.562,6.25 -1.18,1.34 -3.18,1.67 -6.438,1.75 v 2 h 18" /><path
         id="path224"
         style="fill:#000000;fill-opacity:1;fill-rule:nonzero;stroke:none"
         d="m 604.531,1443.98 c 1.614,0.01 3.317,-0.63 4.578,-1.89 1.223,-0.96 1.891,-2.79 1.891,-4.57 0,-1.64 -0.633,-3.33 -1.891,-4.61 -1.296,-1.25 -2.789,-1.93 -4.578,-1.93 -1.968,0.01 -3.328,0.65 -4.609,1.93 -1.59,1.31 -1.922,2.81 -1.922,4.61 0,1.95 0.629,3.31 1.891,4.57 0.961,1.57 2.804,1.89 4.64,1.89 z m 5.469,-29 V 1372 c 0,-3.36 0.238,-5.59 0.719,-6.7 0.238,-0.87 1.187,-1.94 2.125,-2.49 0.664,-0.48 2.664,-0.81 5.156,-0.81 v -2 h -26 v 2 c 2.551,0 4.266,0.25 5.141,0.75 0.828,0.59 1.566,1.35 2.078,2.52 0.445,1.42 0.781,3.42 0.781,6.73 v 21 c 0,5.91 -0.156,9.74 -0.469,11.48 -0.418,1.45 -0.621,2.15 -1.14,2.65 -0.653,0.78 -1.231,0.75 -2.125,0.75 -1.059,0.03 -2.149,-0.3 -3.532,-0.9 l -0.734,2 15.531,6 H 610" /><path
         id="path226"
         style="fill:#000000;fill-opacity:1;fill-rule:nonzero;stroke:none"
         d="m 639,1431.98 v -18 h 12.531 v -4 H 639 v -35.06 c 0,-3.48 0.457,-5.87 1.375,-7.09 0.801,-1.17 2.113,-1.83 3.563,-1.83 0.875,0 2.335,0.34 3.453,1.02 0.992,1 1.992,1.67 2.609,2.98 h 3 c -1.375,-3.65 -3.324,-6.39 -5.844,-8.23 -2.562,-1.77 -5.105,-2.77 -7.781,-2.77 -1.93,0 -3.57,0.5 -5.297,1.5 -1.758,1.18 -3.012,2.45 -3.844,4.33 -0.902,1.93 -1.234,4.77 -1.234,8.69 v 36.46 h -9 v 1.9 c 2.301,0.9 4.656,2.32 7.063,4.39 2.382,2.3 4.617,4.53 6.64,7.4 0.797,1.62 2.461,4.28 4.297,8.31 h 1" /><path
         id="path228"
         style="fill:#000000;fill-opacity:1;fill-rule:nonzero;stroke:none"
         d="M 693,1414.98 V 1397 h -2 c -1.5,5.41 -3.43,9.1 -5.781,11.05 -2.418,2.27 -5.336,2.93 -8.969,2.93 -2.855,0.01 -5.008,-0.69 -6.703,-2.09 -1.883,-1.35 -2.547,-2.92 -2.547,-4.61 0,-1.84 0.629,-3.87 1.891,-5.37 0.922,-1.52 3.703,-3.18 7.453,-4.91 l 8.64,-3.98 c 7.68,-3.48 12.016,-8.81 12.016,-15.02 0,-4.8 -1.875,-8.67 -5.625,-11.61 -3.875,-2.73 -7.949,-4.39 -12.594,-4.39 -3.593,0 -7.14,0.5 -11.422,1.5 -1.433,0.5 -2.386,0.5 -3.218,0.5 -0.953,0 -1.621,-0.67 -2.141,-2 h -2 v 18 h 2 c 1.102,-4.64 3.207,-8.13 6.313,-10.48 3.007,-2.19 6.601,-3.52 10.468,-3.52 2.457,0 4.93,0.77 6.641,2.31 1.578,1.77 2.578,3.4 2.578,5.57 0,2.66 -0.898,4.83 -2.687,6.62 -1.899,1.96 -5.563,4.01 -11.313,6.66 -5.75,2.93 -9.523,5.09 -11.312,7.31 -2.024,2.36 -2.688,4.95 -2.688,8.3 0,4.39 1.531,7.92 4.594,10.84 2.863,3.05 7.023,4.37 11.89,4.37 1.961,0.01 4.711,-0.4 7.766,-1.2 1.926,-0.46 3.352,-0.8 4.031,-0.8 0.532,0.01 1.114,0.12 1.469,0.36 0.102,0.47 0.77,0.8 1.25,1.64 h 2" /><path
         id="path230"
         style="fill:#000000;fill-opacity:1;fill-rule:nonzero;stroke:none"
         d="m 3075.36,1439.98 h 20.56 l 51.08,-62.51 v 48.51 c 0,5.06 -0.54,8.21 -1.61,9.46 -1.54,1.88 -3.64,2.54 -6.7,2.54 H 3136 v 2 h 27 v -2 h -2.75 c -3.37,0.01 -5.61,-1.05 -6.98,-3.15 -0.94,-1.24 -1.27,-4.24 -1.27,-8.85 v -67.28 h -2.05 L 3096,1423.03 V 1374 c 0,-5.05 0.52,-8.2 1.55,-9.45 1.26,-1.55 3.68,-2.55 6.7,-2.55 h 2.75 v -2 h -27 v 2 h 2.69 c 3.09,0 5.67,1.05 7.04,3.16 0.6,1.57 1.27,4.23 1.27,8.84 v 54.98 c -2.3,2.62 -4.05,4.34 -5.25,5.16 -1.44,1.12 -2.93,1.61 -5.23,2.33 -1.31,0.52 -2.86,0.51 -5.16,0.51 v 3" /><path
         id="path232"
         style="fill:#000000;fill-opacity:1;fill-rule:nonzero;stroke:none"
         d="m 3178,1393 c -0.04,-7.49 1.88,-13.36 5.75,-17.61 3.63,-4.06 8.43,-6.39 13.67,-6.39 3.35,0 6.52,0.82 9.1,2.45 2.41,1.83 4.74,4.83 6.48,9.55 l 1,-1.09 c -0.81,-5.58 -3.18,-10.5 -7.09,-14.66 -4.21,-3.92 -8.81,-6.25 -14.69,-6.25 -6.46,0 -11.86,2.47 -16.41,7.41 -4.81,5.13 -6.81,11.57 -6.81,19.9 0,9.25 2.33,16.05 7,21.1 4.66,5.25 10.52,7.57 17.56,7.57 5.77,0.01 10.85,-1.99 14.69,-5.98 3.75,-3.99 5.75,-9.32 5.75,-16 z m 0,4 h 24 c -0.19,3.36 -0.59,5.73 -1.19,7.09 -1.22,2.45 -2.35,3.83 -4.22,5.05 -2.06,1.52 -3.82,1.84 -5.86,1.84 -3.38,0.01 -5.93,-1.23 -8.4,-3.7 -2.58,-2.23 -3.92,-5.9 -4.33,-10.28" /><path
         id="path234"
         style="fill:#000000;fill-opacity:1;fill-rule:nonzero;stroke:none"
         d="M 3269,1413.98 V 1381 c 0,-6.16 0.13,-9.92 0.39,-11.3 0.13,-1.27 0.68,-2.34 1.25,-2.89 0.36,-0.48 1.24,-0.81 2,-0.81 0.86,0 2.28,0.33 3.63,1 l 0.73,-2 -15.45,-6 H 3259 v 11.16 c -4.62,-4.63 -8.14,-8 -10.56,-9.27 -2.58,-1.22 -5,-1.89 -7.71,-1.89 -3.25,0 -5.62,0.87 -7.84,2.61 -2.51,1.88 -3.75,3.99 -4.61,6.73 -0.95,2.96 -1.28,6.62 -1.28,11.63 v 24.01 c 0,2.47 -0.24,4.16 -0.72,5.11 -0.57,1.25 -1.19,1.68 -2.14,2.19 -1,0.75 -2.66,0.74 -5.14,0.7 v 2 h 18 v -35.82 c 0,-4.71 0.86,-8.27 2.58,-9.83 1.53,-1.33 3.81,-2.33 6.25,-2.33 1.38,0 3.53,0.52 5.64,1.58 1.96,1.19 4.62,3.05 7.53,6.01 v 30.39 c 0,3.09 -0.52,5.17 -1.56,6.25 -1.18,1.34 -3.18,1.67 -6.44,1.75 v 2 h 18" /><path
         id="path236"
         style="fill:#000000;fill-opacity:1;fill-rule:nonzero;stroke:none"
         d="m 3297,1414.98 v -13.09 c 4.44,8.77 8.99,13.09 13.66,13.09 1.89,0.01 3.86,-0.71 5.25,-2.14 1.09,-1.36 2.09,-3.06 2.09,-4.93 0,-1.63 -0.46,-3.06 -1.39,-4.21 -1.13,-1.04 -2.04,-1.7 -3.33,-1.7 -1.34,0 -2.74,0.83 -4.48,2.48 -2.01,1.84 -3.03,2.5 -3.88,2.5 -1.03,0.01 -1.5,-0.43 -2.34,-1.28 -2,-1.64 -3.67,-4.6 -5.58,-8.59 V 1372 c 0,-2.82 0.39,-4.96 1.19,-6.41 0.47,-0.86 1.5,-1.85 2.87,-2.54 1.35,-0.39 3.35,-1.05 5.94,-1.05 v -2 h -28 v 2 c 2.59,0 4.52,0.43 5.78,1.3 0.67,0.86 1.57,1.62 1.94,3 -0.06,0.9 0.28,2.56 0.28,5.7 v 21 c 0,6.38 -0.12,10.18 -0.34,11.39 -0.44,1.41 -0.64,2.09 -1.25,2.64 -0.75,0.88 -1.36,0.85 -2.25,0.85 -1.13,0.03 -2.29,-0.3 -3.64,-0.9 l -0.52,2 15.63,6 h 2.37" /><path
         id="path238"
         style="fill:#000000;fill-opacity:1;fill-rule:nonzero;stroke:none"
         d="m 3352,1367.95 c -5.53,-4.29 -9,-6.8 -10.41,-7.47 -2.32,-0.81 -4.38,-1.48 -6.76,-1.48 -4.01,0 -6.81,1.24 -9.22,3.73 -2.61,2.58 -3.61,5.77 -3.61,9.85 0,2.7 0.59,4.78 1.77,6.67 1.34,2.85 4.39,5.05 8.37,7.34 3.94,2.44 10.61,5.11 19.86,8.41 v 2.09 c 0,5.61 -0.86,8.95 -2.56,10.93 -1.86,2.3 -4.19,2.96 -7.44,2.96 -2.47,0.01 -4.43,-0.64 -5.87,-1.92 -1.55,-0.96 -2.25,-2.73 -2.25,-4.39 l 0.12,-3.26 c 0,-1.53 -0.46,-3.07 -1.39,-4 -1.13,-0.75 -2.14,-1.41 -3.64,-1.41 -1.78,0 -2.65,0.5 -3.58,1.5 -1.06,1.18 -1.39,2.39 -1.39,4.14 0,3.44 1.74,6.38 5.22,9.16 3.41,2.86 8.38,4.18 14.67,4.18 4.54,0.01 8.79,-0.8 11.88,-2.4 2.07,-1.07 4.05,-3.11 5.17,-5.69 0.39,-1.65 1.06,-5.12 1.06,-10.31 v -18.25 c 0,-4.9 0.09,-8.27 0.28,-9.42 0.1,-1.13 0.52,-1.94 0.95,-2.33 0.36,-0.25 0.95,-0.58 1.52,-0.58 0.36,0 1.15,0.11 1.61,0.34 0.68,0.66 2.35,1.66 4.64,3.66 v -2.8 c -4.41,-5.2 -8.62,-8.2 -12.62,-8.2 -2.06,0 -3.47,0.68 -4.61,2.03 -1.39,1.68 -1.73,3.66 -1.77,6.92 z m 0,3.61 V 1391 c -5.89,-2.23 -9.69,-3.81 -11.41,-4.73 -3.27,-1.39 -5.27,-3.35 -6.61,-5.13 -1.65,-1.5 -1.98,-3.73 -1.98,-5.84 0,-2.44 0.84,-4.89 2.52,-6.66 1.5,-1.64 3.6,-2.64 5.78,-2.64 2.86,0 6.86,1.85 11.7,5.56" /><path
         id="path240"
         style="fill:#000000;fill-opacity:1;fill-rule:nonzero;stroke:none"
         d="M 3394,1443.98 V 1372 c 0,-3.36 0.22,-5.58 0.67,-6.67 0.22,-0.86 1.14,-1.92 2.08,-2.49 0.69,-0.51 2.69,-0.84 5.25,-0.84 v -2 h -26 v 2 c 2.49,0 4.19,0.25 5.09,0.75 0.88,0.59 1.62,1.35 2.13,2.52 0.44,1.42 0.78,3.42 0.78,6.73 v 49.98 c 0,6.13 -0.12,9.9 -0.37,11.3 -0.45,1.65 -0.64,2.36 -1.19,2.88 -0.69,0.79 -1.23,0.76 -2.06,0.76 -1.05,0.03 -2.08,-0.31 -3.49,-0.94 l -0.89,2 15.45,6 h 2.55" /><path
         id="path242"
         style="fill:#000000;fill-opacity:1;fill-rule:nonzero;stroke:none"
         d="m 3432.36,1439.98 h 20.56 l 51.08,-62.51 v 48.51 c 0,5.06 -0.54,8.21 -1.61,9.46 -1.54,1.88 -3.64,2.54 -6.7,2.54 H 3493 v 2 h 27 v -2 h -2.75 c -3.37,0.01 -5.61,-1.05 -6.98,-3.15 -0.94,-1.24 -1.27,-4.24 -1.27,-8.85 v -67.28 h -2.05 L 3453,1423.03 V 1374 c 0,-5.05 0.52,-8.2 1.55,-9.45 1.26,-1.55 3.68,-2.55 6.7,-2.55 h 2.75 v -2 h -27 v 2 h 2.69 c 3.09,0 5.67,1.05 7.04,3.16 0.6,1.57 1.27,4.23 1.27,8.84 v 54.98 c -2.3,2.62 -4.05,4.34 -5.25,5.16 -1.44,1.12 -2.93,1.61 -5.23,2.33 -1.31,0.52 -2.86,0.51 -5.16,0.51 v 3" /><path
         id="path244"
         style="fill:#000000;fill-opacity:1;fill-rule:nonzero;stroke:none"
         d="m 3534,1393 c -0.04,-7.49 1.88,-13.36 5.75,-17.61 3.63,-4.06 8.43,-6.39 13.67,-6.39 3.35,0 6.52,0.82 9.1,2.45 2.41,1.83 4.74,4.83 6.48,9.55 l 1,-1.09 c -0.81,-5.58 -3.18,-10.5 -7.09,-14.66 -4.21,-3.92 -8.81,-6.25 -14.69,-6.25 -6.46,0 -11.86,2.47 -16.41,7.41 -4.81,5.13 -6.81,11.57 -6.81,19.9 0,9.25 2.33,16.05 7,21.1 4.66,5.25 10.52,7.57 17.56,7.57 5.77,0.01 10.85,-1.99 14.69,-5.98 3.75,-3.99 5.75,-9.32 5.75,-16 z m 0,4 h 24 c -0.19,3.36 -0.59,5.73 -1.19,7.09 -1.22,2.45 -2.35,3.83 -4.22,5.05 -2.06,1.52 -3.82,1.84 -5.86,1.84 -3.38,0.01 -5.93,-1.23 -8.4,-3.7 -2.58,-2.23 -3.92,-5.9 -4.33,-10.28" /><path
         id="path246"
         style="fill:#000000;fill-opacity:1;fill-rule:nonzero;stroke:none"
         d="m 3594,1431.98 v -18 h 12.53 v -4 H 3594 v -35.06 c 0,-3.48 0.46,-5.87 1.38,-7.09 0.8,-1.17 2.11,-1.83 3.56,-1.83 0.87,0 2.33,0.34 3.45,1.02 0.99,1 1.99,1.67 2.61,2.98 h 3 c -1.37,-3.65 -3.32,-6.39 -5.84,-8.23 -2.57,-1.77 -5.11,-2.77 -7.78,-2.77 -1.93,0 -3.58,0.5 -5.3,1.5 -1.76,1.18 -3.01,2.45 -3.85,4.33 -0.9,1.93 -1.23,4.77 -1.23,8.69 v 36.46 h -9 v 1.9 c 2.3,0.9 4.66,2.32 7.06,4.39 2.39,2.3 4.62,4.53 6.64,7.4 0.8,1.62 2.46,4.28 4.3,8.31 h 1" /><path
         id="path248"
         style="fill:#000000;fill-opacity:1;fill-rule:nonzero;stroke:none"
         d="m 3608.5,1413.98 h 23.14 v -2 c -2.29,-0.15 -3.43,-0.52 -4.08,-1.1 -0.83,-0.54 -0.97,-1.4 -0.97,-2.47 -0.2,-1 0.34,-2.64 1,-4.33 l 11.74,-29.5 12.33,24.89 -2.66,6.53 c -0.94,2.39 -2.17,4.05 -3.69,4.97 -0.97,0.57 -2.47,0.9 -4.81,1.01 v 2 h 23.77 v -2 c -2.06,-0.12 -3.37,-0.68 -4.19,-1.65 -0.57,-0.45 -0.81,-1.76 -0.81,-3.24 -0.09,-0.39 0.15,-1.41 0.46,-2.14 l 12.24,-29.29 10.03,28.18 c 1.33,2.19 2,3.84 2,5.11 0,0.77 -0.44,1.43 -1.31,2.02 -1.11,0.6 -2.59,0.93 -5.14,1.01 v 2 h 16.47 v -2 c -3.41,-0.52 -5.9,-2.93 -7.5,-7.21 L 3670.23,1359 H 3668 l -14.41,35.67 -17.7,-35.67 h -1.01 l -17.88,44.84 c -1.14,2.95 -2.25,4.85 -3.34,5.86 -1.32,1.11 -2.82,1.77 -5.16,2.28 v 2" /><path
         id="path250"
         style="fill:#000000;fill-opacity:1;fill-rule:nonzero;stroke:none"
         d="m 3725.06,1414.98 c 8.14,0.01 14.71,-3.03 19.64,-9.1 3.96,-5.14 6.3,-11.14 6.3,-17.86 0,-4.41 -1.16,-9.53 -3.47,-14.38 -2.49,-4.73 -5.5,-8.5 -9.56,-10.95 -4.39,-2.36 -8.59,-3.69 -13.56,-3.69 -8.25,0 -14.57,3.17 -19.35,9.52 -4.06,5.5 -6.06,11.34 -6.06,18 0,5 1.22,9.65 3.67,14.43 2.24,4.8 5.69,8.32 9.69,10.6 3.88,2.44 8.23,3.43 12.7,3.43 z m -1.81,-4 c -2.16,0.01 -4.16,-0.6 -6.25,-1.81 -2.09,-0.93 -3.77,-3.32 -5.06,-6.34 -1.61,-2.97 -1.94,-6.91 -1.94,-11.66 0,-7.39 1.55,-14.28 4.66,-19.84 2.88,-5.33 7.19,-8.33 12.28,-8.33 3.47,0 6.91,1.53 9.37,4.59 2.35,3.21 3.69,8.35 3.69,15.82 0,9.55 -2.05,16.7 -6.16,22.06 -3.05,3.85 -6.3,5.51 -10.59,5.51" /><path
         id="path252"
         style="fill:#000000;fill-opacity:1;fill-rule:nonzero;stroke:none"
         d="m 3774,1414.98 v -13.09 c 4.44,8.77 8.99,13.09 13.66,13.09 1.89,0.01 3.86,-0.71 5.25,-2.14 1.09,-1.36 2.09,-3.06 2.09,-4.93 0,-1.63 -0.46,-3.06 -1.39,-4.21 -1.13,-1.04 -2.04,-1.7 -3.33,-1.7 -1.34,0 -2.74,0.83 -4.48,2.48 -2.01,1.84 -3.03,2.5 -3.88,2.5 -1.03,0.01 -1.5,-0.43 -2.34,-1.28 -2,-1.64 -3.67,-4.6 -5.58,-8.59 V 1372 c 0,-2.82 0.39,-4.96 1.19,-6.41 0.47,-0.86 1.5,-1.85 2.87,-2.54 1.35,-0.39 3.35,-1.05 5.94,-1.05 v -2 h -28 v 2 c 2.59,0 4.52,0.43 5.78,1.3 0.67,0.86 1.57,1.62 1.94,3 -0.06,0.9 0.28,2.56 0.28,5.7 v 21 c 0,6.38 -0.12,10.18 -0.34,11.39 -0.44,1.41 -0.64,2.09 -1.25,2.64 -0.75,0.88 -1.36,0.85 -2.25,0.85 -1.13,0.03 -2.29,-0.3 -3.64,-0.9 l -0.52,2 15.63,6 h 2.37" /><path
         id="path254"
         style="fill:#000000;fill-opacity:1;fill-rule:nonzero;stroke:none"
         d="m 3814,1443.98 v -53.42 l 14.22,12.32 c 2.86,2.6 4.64,4.17 5.11,4.85 0.2,0.55 0.47,0.91 0.47,1.36 -0.27,1.07 -0.33,1.41 -0.97,1.96 -0.92,0.86 -1.72,0.86 -3.2,0.93 v 2 H 3853 v -1 c -3.24,-0.07 -5.94,-0.61 -8.09,-1.59 -2.46,-0.78 -4.53,-2.73 -7.1,-5.23 l -14.09,-12.16 14.58,-18.33 c 3.71,-4.69 6.27,-7.9 7.37,-9.28 1.53,-1.3 3.28,-2.47 4.58,-2.91 0.83,-0.15 2.5,-0.48 4.75,-0.48 v -3 h -25.37 v 2 c 1.28,0.04 2.49,0.27 3.01,0.7 0.32,0.53 0.8,1.03 0.8,1.8 -0.15,1.1 -0.78,2.45 -2.35,4.53 L 3814,1390.52 V 1372 c 0,-3.49 0.22,-5.79 0.67,-6.89 0.22,-0.8 1.09,-1.88 1.92,-2.34 0.64,-0.39 2.64,-0.73 5.41,-0.77 v -2 h -26 v 2 c 2.46,0 4.3,0.34 5.53,1.03 0.55,0.77 1.29,1.13 1.67,2.06 0.46,1.64 0.8,3.64 0.8,6.91 v 49.98 c 0,6.2 -0.12,9.97 -0.37,11.35 -0.45,1.61 -0.65,2.33 -1.21,2.86 -0.7,0.8 -1.3,0.79 -2.22,0.79 -0.79,0.01 -1.83,-0.33 -3.31,-1 l -0.89,2 15.39,6 h 2.61" /><path
         id="path256"
         style="fill:#000000;fill-opacity:1;fill-rule:nonzero;stroke:none"
         d="m 5317.34,1207 h -30.65 l -5.69,-12.94 c -1.32,-2.81 -1.98,-5.46 -1.98,-7.01 -0.01,-0.92 0.57,-2.31 1.71,-3.24 0.91,-0.86 3.65,-1.53 7.47,-1.81 v -2 h -24.73 v 2 c 3.16,0.6 5.47,1.38 6.44,2.34 1.69,2.15 4.2,5.84 6.62,11.74 l 28.94,65.9 h 1 l 27.53,-66.81 c 2.23,-5.1 4.25,-8.87 6.06,-10.47 1.8,-1.5 4.35,-2.5 7.6,-2.7 v -2 h -31.36 v 2 c 3.06,0.16 5.3,0.72 6.42,1.66 0.87,1.05 1.67,2.07 1.67,3.42 -0.13,2.11 -0.78,4.64 -2.34,8.51 z m -1.64,4 -13.2,32.09 -14.06,-32.09 h 27.26" /><path
         id="path258"
         style="fill:#000000;fill-opacity:1;fill-rule:nonzero;stroke:none"
         d="m 5351,1228.98 15.86,6 h 2.14 v -12.18 c 2.75,4.58 5.51,7.66 8.28,9.47 2.69,2.05 5.7,2.71 8.77,2.71 5.33,0.01 9.81,-2.07 13.37,-6.23 4.24,-4.98 6.58,-11.67 6.58,-19.81 0,-9.1 -2.64,-16.65 -7.91,-22.61 -4.37,-4.67 -9.81,-7.33 -16.4,-7.33 -3.11,0 -5.36,0.45 -7.46,1.34 -1.63,0.87 -3.29,1.93 -5.23,3.86 V 1166 c 0,-3.58 0.2,-5.86 0.59,-6.83 0.2,-0.69 1.09,-1.74 2.07,-2.31 0.75,-0.52 2.75,-0.86 5.34,-0.86 v -2 h -28 v 2 h 1.58 c 2.11,-0.04 4.27,0.34 5.9,1.16 0.63,0.68 1.41,1.06 1.85,1.97 0.33,1.18 0.67,3.18 0.67,6.87 v 53 c 0,3.22 -0.14,5.26 -0.42,6.13 -0.47,1.16 -0.72,1.53 -1.33,1.98 -0.69,0.75 -1.42,0.69 -2.45,0.69 -1.1,0.06 -1.89,-0.28 -3.17,-0.82 z m 18,-9.56 v -19.64 c 0,-4.18 0.18,-7.05 0.53,-8.39 0.38,-2.01 1.9,-4.17 4.03,-5.86 1.96,-1.53 4.85,-2.53 8.11,-2.53 3.71,0 7.11,1.49 9.55,4.48 3.11,4.08 4.78,9.4 4.78,16.49 0,8.05 -1.81,14.22 -5.42,18.55 -2.72,3.14 -5.51,4.46 -8.97,4.46 -2.09,0.01 -3.75,-0.46 -5.59,-1.37 -1.43,-0.56 -3.76,-2.75 -7.02,-6.19" /><path
         id="path260"
         style="fill:#000000;fill-opacity:1;fill-rule:nonzero;stroke:none"
         d="m 5411,1228.98 15.86,6 h 2.14 v -12.18 c 2.75,4.58 5.51,7.66 8.28,9.47 2.69,2.05 5.7,2.71 8.77,2.71 5.33,0.01 9.81,-2.07 13.37,-6.23 4.24,-4.98 6.58,-11.67 6.58,-19.81 0,-9.1 -2.64,-16.65 -7.91,-22.61 -4.37,-4.67 -9.81,-7.33 -16.4,-7.33 -3.11,0 -5.36,0.45 -7.46,1.34 -1.63,0.87 -3.29,1.93 -5.23,3.86 V 1166 c 0,-3.58 0.2,-5.86 0.59,-6.83 0.2,-0.69 1.09,-1.74 2.07,-2.31 0.75,-0.52 2.75,-0.86 5.34,-0.86 v -2 h -28 v 2 h 1.58 c 2.11,-0.04 4.27,0.34 5.9,1.16 0.63,0.68 1.41,1.06 1.85,1.97 0.33,1.18 0.67,3.18 0.67,6.87 v 53 c 0,3.22 -0.14,5.26 -0.42,6.13 -0.47,1.16 -0.72,1.53 -1.33,1.98 -0.69,0.75 -1.42,0.69 -2.45,0.69 -1.1,0.06 -1.89,-0.28 -3.17,-0.82 z m 18,-9.56 v -19.64 c 0,-4.18 0.18,-7.05 0.53,-8.39 0.38,-2.01 1.9,-4.17 4.03,-5.86 1.96,-1.53 4.85,-2.53 8.11,-2.53 3.71,0 7.11,1.49 9.55,4.48 3.11,4.08 4.78,9.4 4.78,16.49 0,8.05 -1.81,14.22 -5.42,18.55 -2.72,3.14 -5.51,4.46 -8.97,4.46 -2.09,0.01 -3.75,-0.46 -5.59,-1.37 -1.43,-0.56 -3.76,-2.75 -7.02,-6.19" /><path
         id="path262"
         style="fill:#000000;fill-opacity:1;fill-rule:nonzero;stroke:none"
         d="M 5493,1263.98 V 1192 c 0,-3.36 0.22,-5.58 0.67,-6.67 0.22,-0.86 1.14,-1.92 2.08,-2.49 0.69,-0.51 2.69,-0.84 5.25,-0.84 v -2 h -26 v 2 c 2.49,0 4.19,0.25 5.09,0.75 0.88,0.59 1.62,1.35 2.13,2.52 0.44,1.42 0.78,3.42 0.78,6.73 v 49.98 c 0,6.13 -0.12,9.9 -0.37,11.3 -0.45,1.65 -0.64,2.36 -1.19,2.88 -0.69,0.79 -1.23,0.76 -2.06,0.76 -1.05,0.03 -2.08,-0.31 -3.49,-0.94 l -0.89,2 15.45,6 h 2.55" /><path
         id="path264"
         style="fill:#000000;fill-opacity:1;fill-rule:nonzero;stroke:none"
         d="m 5517,1213 c -0.04,-7.49 1.88,-13.36 5.75,-17.61 3.63,-4.06 8.43,-6.39 13.67,-6.39 3.35,0 6.52,0.82 9.1,2.45 2.41,1.83 4.74,4.83 6.48,9.55 l 1,-1.09 c -0.81,-5.58 -3.18,-10.5 -7.09,-14.66 -4.21,-3.92 -8.81,-6.25 -14.69,-6.25 -6.46,0 -11.86,2.47 -16.41,7.41 -4.81,5.13 -6.81,11.57 -6.81,19.9 0,9.25 2.33,16.05 7,21.1 4.66,5.25 10.52,7.57 17.56,7.57 5.77,0.01 10.85,-1.99 14.69,-5.98 3.75,-3.99 5.75,-9.32 5.75,-16 z m 0,4 h 24 c -0.19,3.36 -0.59,5.73 -1.19,7.09 -1.22,2.45 -2.35,3.83 -4.22,5.05 -2.06,1.52 -3.82,1.84 -5.86,1.84 -3.38,0.01 -5.93,-1.23 -8.4,-3.7 -2.58,-2.23 -3.92,-5.9 -4.33,-10.28" /><path
         id="path266"
         style="fill:#000000;fill-opacity:1;fill-rule:nonzero;stroke:none"
         d="M 5596,1234.98 V 1217 h -2 c -1.5,5.41 -3.43,9.1 -5.78,11.05 -2.42,2.27 -5.34,2.93 -8.97,2.93 -2.86,0.01 -5.01,-0.69 -6.7,-2.09 -1.89,-1.35 -2.55,-2.92 -2.55,-4.61 0,-1.84 0.63,-3.87 1.89,-5.37 0.92,-1.52 3.7,-3.18 7.45,-4.91 l 8.64,-3.98 c 7.68,-3.48 12.02,-8.81 12.02,-15.02 0,-4.8 -1.87,-8.67 -5.62,-11.61 -3.88,-2.73 -7.95,-4.39 -12.6,-4.39 -3.59,0 -7.14,0.5 -11.42,1.5 -1.43,0.5 -2.39,0.5 -3.22,0.5 -0.95,0 -1.62,-0.67 -2.14,-2 h -2 v 18 h 2 c 1.1,-4.64 3.21,-8.13 6.31,-10.48 3.01,-2.19 6.6,-3.52 10.47,-3.52 2.46,0 4.93,0.77 6.64,2.31 1.58,1.77 2.58,3.4 2.58,5.57 0,2.66 -0.9,4.83 -2.69,6.62 -1.9,1.96 -5.56,4.01 -11.31,6.66 -5.75,2.93 -9.52,5.09 -11.31,7.31 -2.03,2.36 -2.69,4.95 -2.69,8.3 0,4.39 1.53,7.92 4.59,10.84 2.87,3.05 7.03,4.37 11.89,4.37 1.97,0.01 4.72,-0.4 7.77,-1.2 1.93,-0.46 3.35,-0.8 4.03,-0.8 0.53,0.01 1.11,0.12 1.47,0.36 0.1,0.47 0.77,0.8 1.25,1.64 h 2" /></g></g></svg>