<?xml version="1.0" encoding="UTF-8" standalone="no"?>
<!-- Created with Inkscape (http://www.inkscape.org/) -->

<svg
   xmlns:dc="http://purl.org/dc/elements/1.1/"
   xmlns:cc="http://creativecommons.org/ns#"
   xmlns:rdf="http://www.w3.org/1999/02/22-rdf-syntax-ns#"
   xmlns:svg="http://www.w3.org/2000/svg"
   xmlns="http://www.w3.org/2000/svg"
   xmlns:sodipodi="http://sodipodi.sourceforge.net/DTD/sodipodi-0.dtd"
   xmlns:inkscape="http://www.inkscape.org/namespaces/inkscape"
   width="2.824445in"
   height="1.2912103in"
   viewBox="0 0 254.20005 116.20893"
   id="svg21877"
   version="1.1"
   inkscape:version="0.91 r13725"
   sodipodi:docname="PoslinNetSimple.svg">
  <defs
     id="defs21879" />
  <sodipodi:namedview
     id="base"
     pagecolor="#ffffff"
     bordercolor="#666666"
     borderopacity="1.0"
     inkscape:pageopacity="0.0"
     inkscape:pageshadow="2"
     inkscape:zoom="4.996065"
     inkscape:cx="127.10002"
     inkscape:cy="62.891477"
     inkscape:document-units="in"
     inkscape:current-layer="layer1"
     showgrid="true"
     guidetolerance="20"
     inkscape:object-nodes="true"
     units="in"
     inkscape:snap-bbox="false"
     inkscape:window-width="1680"
     inkscape:window-height="1006"
     inkscape:window-x="208"
     inkscape:window-y="18"
     inkscape:window-maximized="0"
     inkscape:snap-text-baseline="true"
     fit-margin-top="0"
     fit-margin-left="0"
     fit-margin-right="0"
     fit-margin-bottom="0">
    <inkscape:grid
       type="xygrid"
       id="grid21885"
       spacingx="2.25"
       spacingy="2.25"
       originx="-731.29392"
       originy="-363.00004" />
  </sodipodi:namedview>
  <metadata
     id="metadata21882">
    <rdf:RDF>
      <cc:Work
         rdf:about="">
        <dc:format>image/svg+xml</dc:format>
        <dc:type
           rdf:resource="http://purl.org/dc/dcmitype/StillImage" />
        <dc:title></dc:title>
      </cc:Work>
    </rdf:RDF>
  </metadata>
  <g
     inkscape:label="Layer 1"
     inkscape:groupmode="layer"
     id="layer1"
     transform="translate(-731.29395,-573.15326)">
    <text
       xml:space="preserve"
       style="font-style:normal;font-variant:normal;font-weight:normal;font-stretch:normal;font-size:10px;line-height:125%;font-family:'Times New Roman';-inkscape-font-specification:'Times New Roman';text-align:start;letter-spacing:0px;word-spacing:0px;writing-mode:lr-tb;text-anchor:start;fill:#000000;fill-opacity:1;stroke:none;stroke-width:1px;stroke-linecap:butt;stroke-linejoin:miter;stroke-opacity:1"
       x="157.5"
       y="894.86218"
       id="text34968"
       sodipodi:linespacing="125%"><tspan
         sodipodi:role="line"
         id="tspan34970"
         x="157.5"
         y="894.86218" /></text>
    <g
       id="g8374"
       transform="translate(-0.003,269.3592)">
      <path
         id="path8376"
         d="m 792.006,387 17.494,0.004"
         inkscape:connector-curvature="0"
         style="fill:none;stroke:#000000;stroke-linecap:square" />
      <path
         id="path8378"
         d="m 809,383.006 10,4 -10,4"
         inkscape:connector-curvature="0" />
    </g>
    <path
       id="path8380"
       d="m 742.5,629.3622 31.5,27"
       inkscape:connector-curvature="0"
       style="fill:none;stroke:#000000;stroke-linecap:square"
       sodipodi:nodetypes="cc" />
    <path
       id="path8382"
       d="m 837,656.3622 27,0"
       inkscape:connector-curvature="0"
       style="fill:none;stroke:#000000;stroke-linecap:square" />
    <path
       id="path8436"
       d="m 744.75,629.3622 c 0,1.243 -1.007,2.25 -2.25,2.25 -1.243,0 -2.25,-1.007 -2.25,-2.25 0,-1.243 1.007,-2.25 2.25,-2.25 1.243,0 2.25,1.007 2.25,2.25 z"
       inkscape:connector-curvature="0"
       style="fill-rule:evenodd;stroke:#000000" />
    <g
       id="g8526"
       transform="translate(-0.003,269.3592)">
      <path
         id="path8528"
         d="m 792.006,337.5 17.494,0.004"
         inkscape:connector-curvature="0"
         style="fill:none;stroke:#000000;stroke-linecap:square" />
      <path
         id="path8530"
         d="m 809,333.506 10,4 -10,4"
         inkscape:connector-curvature="0" />
    </g>
    <path
       id="path8532"
       d="m 837,606.8622 27,0"
       inkscape:connector-curvature="0"
       style="fill:none;stroke:#000000;stroke-linecap:square" />
    <path
       id="path8552"
       d="m 742.5,629.3622 31.5,-22.5"
       inkscape:connector-curvature="0"
       style="fill:none;stroke:#000000;stroke-linecap:square"
       sodipodi:nodetypes="cc" />
    <g
       id="g8726"
       transform="translate(-0.006,291.8622)">
      <path
         id="path8728"
         d="M 913.506,337.5 931,337.504"
         inkscape:connector-curvature="0"
         style="fill:none;stroke:#000000;stroke-linecap:square" />
      <path
         id="path8730"
         d="m 930.5,333.506 10,4 -10,4"
         inkscape:connector-curvature="0" />
    </g>
    <g
       id="g8732"
       transform="translate(-0.006,291.8622)">
      <path
         id="path8734"
         d="M 958.506,337.5 976,337.504"
         inkscape:connector-curvature="0"
         style="fill:none;stroke:#000000;stroke-linecap:square" />
      <path
         id="path8736"
         d="m 975.5,333.506 10,4 -10,4"
         inkscape:connector-curvature="0" />
    </g>
    <path
       id="path8756"
       d="m 866.25,606.8622 c 0,1.243 -1.007,2.25 -2.25,2.25 -1.243,0 -2.25,-1.007 -2.25,-2.25 0,-1.243 1.007,-2.25 2.25,-2.25 1.243,0 2.25,1.007 2.25,2.25 z"
       inkscape:connector-curvature="0"
       style="fill-rule:evenodd;stroke:#000000" />
    <path
       id="path8758"
       d="m 866.25,656.3622 c 0,1.243 -1.007,2.25 -2.25,2.25 -1.243,0 -2.25,-1.007 -2.25,-2.25 0,-1.243 1.007,-2.25 2.25,-2.25 1.243,0 2.25,1.007 2.25,2.25 z"
       inkscape:connector-curvature="0"
       style="fill-rule:evenodd;stroke:#000000" />
    <path
       id="path8762"
       d="m 864,606.8622 31.5,22.5"
       inkscape:connector-curvature="0"
       style="fill:none;stroke:#000000;stroke-linecap:square"
       sodipodi:nodetypes="cc" />
    <path
       id="path8776"
       d="m 864,656.3622 31.5,-27"
       inkscape:connector-curvature="0"
       style="fill:none;stroke:#000000;stroke-linecap:square"
       sodipodi:nodetypes="cc" />
    <path
       id="path8788"
       d="m 783,678.8622 0,-13.5"
       inkscape:connector-curvature="0"
       style="fill:none;stroke:#000000;stroke-linecap:square" />
    <text
       id="text8790"
       xml:space="preserve"
       font-size="10"
       style="font-size:10px;font-family:Times;text-anchor:middle"
       x="783.13501"
       y="689.36218"><tspan
         id="tspan8792">1</tspan></text>
    <path
       id="path8794"
       d="m 785.25,678.8622 c 0,1.243 -1.007,2.25 -2.25,2.25 -1.243,0 -2.25,-1.007 -2.25,-2.25 0,-1.243 1.007,-2.25 2.25,-2.25 1.243,0 2.25,1.007 2.25,2.25 z"
       inkscape:connector-curvature="0"
       style="fill-rule:evenodd;stroke:#000000" />
    <path
       id="path8796"
       d="m 783,597.86222 0,-13.5"
       inkscape:connector-curvature="0"
       style="fill:none;stroke:#000000;stroke-linecap:square" />
    <text
       id="text8798"
       xml:space="preserve"
       font-size="10"
       style="font-size:10px;font-family:Times;text-anchor:middle"
       x="783"
       y="579.86224"><tspan
         id="tspan8800">1</tspan></text>
    <path
       id="path8802"
       d="m 785.25,584.36222 c 0,1.243 -1.007,2.25 -2.25,2.25 -1.243,0 -2.25,-1.007 -2.25,-2.25 0,-1.243 1.007,-2.25 2.25,-2.25 1.243,0 2.25,1.007 2.25,2.25 z"
       inkscape:connector-curvature="0"
       style="fill-rule:evenodd;stroke:#000000" />
    <path
       id="path8820"
       d="m 904.5,651.8622 0,-13.5"
       inkscape:connector-curvature="0"
       style="fill:none;stroke:#000000;stroke-linecap:square" />
    <text
       id="text8822"
       xml:space="preserve"
       font-size="10"
       style="font-size:10px;font-family:Times;text-anchor:middle"
       x="904.5"
       y="663.11218"><tspan
         id="tspan8824">1</tspan></text>
    <path
       id="path8826"
       d="m 906.75,651.8622 c 0,1.243 -1.007,2.25 -2.25,2.25 -1.243,0 -2.25,-1.007 -2.25,-2.25 0,-1.243 1.007,-2.25 2.25,-2.25 1.243,0 2.25,1.007 2.25,2.25 z"
       inkscape:connector-curvature="0"
       style="fill-rule:evenodd;stroke:#000000" />
    <path
       style="fill:none;fill-rule:evenodd;stroke:#000000"
       inkscape:connector-curvature="0"
       d="m 774,597.8622 18,0 0,18 -18,0 z"
       id="path8878" />
    <path
       style="fill-rule:evenodd"
       inkscape:connector-curvature="0"
       d="m 787.438,601.7372 0,2.25 -0.563,0 -1.687,-1.687 0,-0.563 z"
       id="path8880" />
    <path
       style="fill-rule:evenodd"
       inkscape:connector-curvature="0"
       d="m 787.438,612.4252 0,-2.25 -0.563,0 -1.687,1.687 0,0.563 z"
       id="path8882" />
    <path
       style="fill:#ffffff;fill-rule:evenodd"
       inkscape:connector-curvature="0"
       d="m 784.688,601.8002 c 0.932,0 1.687,0.755 1.687,1.687"
       id="path8884" />
    <path
       style="fill:#ffffff;fill-rule:evenodd"
       inkscape:connector-curvature="0"
       d="m 786.375,609.3932 c 0,0.932 -0.755,1.688 -1.687,1.688 0,0 0,0 0,0"
       id="path8886" />
    <path
       style="fill-rule:evenodd"
       inkscape:connector-curvature="0"
       d="m 787.438,612.9872 -9,0 0,-0.562 5.062,-5.063 -5.062,-5.062 0,-0.563 9,0 0,2.25 -0.563,0 0,-1.687 -6.187,0 4.5,4.5 -4.782,4.781 6.469,0 0,-1.688 0.563,0 z"
       id="path8888" />
    <path
       style="fill:none;fill-rule:evenodd;stroke:#000000"
       inkscape:connector-curvature="0"
       d="m 774,647.3622 18,0 0,18 -18,0 z"
       id="path8892" />
    <path
       style="fill-rule:evenodd"
       inkscape:connector-curvature="0"
       d="m 787.438,651.2372 0,2.25 -0.563,0 -1.687,-1.687 0,-0.563 z"
       id="path8894" />
    <path
       style="fill-rule:evenodd"
       inkscape:connector-curvature="0"
       d="m 787.438,661.9252 0,-2.25 -0.563,0 -1.687,1.687 0,0.563 z"
       id="path8896" />
    <path
       style="fill:#ffffff;fill-rule:evenodd"
       inkscape:connector-curvature="0"
       d="m 784.688,651.3002 c 0.932,0 1.687,0.755 1.687,1.687"
       id="path8898" />
    <path
       style="fill:#ffffff;fill-rule:evenodd"
       inkscape:connector-curvature="0"
       d="m 786.375,658.8932 c 0,0.932 -0.755,1.688 -1.687,1.688 0,0 0,0 0,0"
       id="path8900" />
    <path
       style="fill-rule:evenodd"
       inkscape:connector-curvature="0"
       d="m 787.438,662.4872 -9,0 0,-0.562 5.062,-5.063 -5.062,-5.062 0,-0.563 9,0 0,2.25 -0.563,0 0,-1.687 -6.187,0 4.5,4.5 -4.782,4.781 6.469,0 0,-1.688 0.563,0 z"
       id="path8902" />
    <path
       style="fill:none;fill-rule:evenodd;stroke:#000000"
       inkscape:connector-curvature="0"
       d="m 895.5,620.3622 18,0 0,18 -18,0 z"
       id="path8920" />
    <path
       style="fill-rule:evenodd"
       inkscape:connector-curvature="0"
       d="m 908.938,624.2372 0,2.25 -0.563,0 -1.687,-1.687 0,-0.563 z"
       id="path8922" />
    <path
       style="fill-rule:evenodd"
       inkscape:connector-curvature="0"
       d="m 908.938,634.9252 0,-2.25 -0.563,0 -1.687,1.687 0,0.563 z"
       id="path8924" />
    <path
       style="fill:none;fill-rule:evenodd"
       inkscape:connector-curvature="0"
       d="m 906.188,624.3002 c 0.932,0 1.687,0.755 1.687,1.687"
       id="path8926" />
    <path
       style="fill:none;fill-rule:evenodd"
       inkscape:connector-curvature="0"
       d="m 907.875,631.8932 c 0,0.932 -0.755,1.688 -1.687,1.688 0,0 0,0 0,0"
       id="path8928" />
    <path
       style="fill-rule:evenodd"
       inkscape:connector-curvature="0"
       d="m 908.938,635.4872 -9,0 0,-0.562 5.062,-5.063 -5.062,-5.062 0,-0.563 9,0 0,2.25 -0.563,0 0,-1.687 -6.187,0 4.5,4.5 -4.782,4.781 6.469,0 0,-1.688 0.563,0 z"
       id="path8930" />
    <text
       xml:space="preserve"
       style="font-style:normal;font-variant:normal;font-weight:normal;font-stretch:normal;font-size:40px;line-height:125%;font-family:Times;-inkscape-font-specification:'Times, Normal';text-align:start;letter-spacing:0px;word-spacing:0px;writing-mode:lr-tb;text-anchor:start;fill:#000000;fill-opacity:1;stroke:none;stroke-width:1px;stroke-linecap:butt;stroke-linejoin:miter;stroke-opacity:1"
       x="713.25"
       y="658.61218"
       id="text10952"
       sodipodi:linespacing="125%"><tspan
         sodipodi:role="line"
         id="tspan10954"
         x="713.25"
         y="658.61218" /></text>
    <text
       xml:space="preserve"
       style="font-style:normal;font-variant:normal;font-weight:normal;font-stretch:normal;font-size:10px;line-height:125%;font-family:Times;-inkscape-font-specification:'Times, Normal';text-align:start;letter-spacing:0px;word-spacing:0px;writing-mode:lr-tb;text-anchor:start;fill:#000000;fill-opacity:1;stroke:none;stroke-width:1px;stroke-linecap:butt;stroke-linejoin:miter;stroke-opacity:1"
       x="893.25"
       y="656.36218"
       id="text11006"
       sodipodi:linespacing="125%"><tspan
         sodipodi:role="line"
         id="tspan11008"
         x="893.25"
         y="656.36218" /></text>
    <path
       id="path4162"
       d="m 940.5,620.3622 18,0 0,18 -18,0 z"
       inkscape:connector-curvature="0"
       style="fill:none;fill-rule:evenodd;stroke:#000000" />
    <path
       id="path4164"
       d="m 942.75,636.1122 13.5,-13.5"
       inkscape:connector-curvature="0"
       style="fill:none;stroke:#000000;stroke-linecap:square" />
    <path
       id="path4166"
       d="m 942.75,629.3622 13.5,0"
       inkscape:connector-curvature="0"
       style="fill:none;stroke:#000000;stroke-width:0.5;stroke-linecap:square" />
    <text
       xml:space="preserve"
       style="font-style:normal;font-variant:normal;font-weight:normal;font-stretch:normal;font-size:10px;line-height:125%;font-family:Times;-inkscape-font-specification:'Times, Normal';text-align:start;letter-spacing:0px;word-spacing:0px;writing-mode:lr-tb;text-anchor:start;fill:#000000;fill-opacity:1;stroke:none;stroke-width:1px;stroke-linecap:butt;stroke-linejoin:miter;stroke-opacity:1"
       x="733.5"
       y="609.11224"
       id="text4268"
       sodipodi:linespacing="125%"><tspan
         sodipodi:role="line"
         id="tspan4270"
         x="733.5"
         y="609.11224">W1(1,1)</tspan></text>
    <text
       xml:space="preserve"
       style="font-style:normal;font-variant:normal;font-weight:normal;font-stretch:normal;font-size:10px;line-height:125%;font-family:Times;-inkscape-font-specification:'Times, Normal';text-align:start;letter-spacing:0px;word-spacing:0px;writing-mode:lr-tb;text-anchor:start;fill:#000000;fill-opacity:1;stroke:none;stroke-width:1px;stroke-linecap:butt;stroke-linejoin:miter;stroke-opacity:1"
       x="789.75"
       y="593.36224"
       id="text4272"
       sodipodi:linespacing="125%"><tspan
         sodipodi:role="line"
         id="tspan4274"
         x="789.75"
         y="593.36224">b1(1)</tspan></text>
    <text
       xml:space="preserve"
       style="font-style:normal;font-variant:normal;font-weight:normal;font-stretch:normal;font-size:10px;line-height:125%;font-family:Times;-inkscape-font-specification:'Times, Normal';text-align:start;letter-spacing:0px;word-spacing:0px;writing-mode:lr-tb;text-anchor:start;fill:#000000;fill-opacity:1;stroke:none;stroke-width:1px;stroke-linecap:butt;stroke-linejoin:miter;stroke-opacity:1"
       x="789.75"
       y="676.61224"
       id="text4276"
       sodipodi:linespacing="125%"><tspan
         sodipodi:role="line"
         id="tspan4278"
         x="789.75"
         y="676.61224">b1(2)</tspan></text>
    <text
       xml:space="preserve"
       style="font-style:normal;font-variant:normal;font-weight:normal;font-stretch:normal;font-size:10px;line-height:125%;font-family:Times;-inkscape-font-specification:'Times, Normal';text-align:start;letter-spacing:0px;word-spacing:0px;writing-mode:lr-tb;text-anchor:start;fill:#000000;fill-opacity:1;stroke:none;stroke-width:1px;stroke-linecap:butt;stroke-linejoin:miter;stroke-opacity:1"
       x="733.5"
       y="658.61224"
       id="text4280"
       sodipodi:linespacing="125%"><tspan
         sodipodi:role="line"
         id="tspan4282"
         x="733.5"
         y="658.61224">W1(2,1)</tspan></text>
    <text
       sodipodi:linespacing="125%"
       id="text4284"
       y="606.86224"
       x="868.5"
       style="font-style:normal;font-variant:normal;font-weight:normal;font-stretch:normal;font-size:10px;line-height:125%;font-family:Times;-inkscape-font-specification:'Times, Normal';text-align:start;letter-spacing:0px;word-spacing:0px;writing-mode:lr-tb;text-anchor:start;fill:#000000;fill-opacity:1;stroke:none;stroke-width:1px;stroke-linecap:butt;stroke-linejoin:miter;stroke-opacity:1"
       xml:space="preserve"><tspan
         y="606.86224"
         x="868.5"
         id="tspan4286"
         sodipodi:role="line">W2(1,1)</tspan></text>
    <text
       sodipodi:linespacing="125%"
       id="text4288"
       y="649.61224"
       x="911.25"
       style="font-style:normal;font-variant:normal;font-weight:normal;font-stretch:normal;font-size:10px;line-height:125%;font-family:Times;-inkscape-font-specification:'Times, Normal';text-align:start;letter-spacing:0px;word-spacing:0px;writing-mode:lr-tb;text-anchor:start;fill:#000000;fill-opacity:1;stroke:none;stroke-width:1px;stroke-linecap:butt;stroke-linejoin:miter;stroke-opacity:1"
       xml:space="preserve"><tspan
         y="649.61224"
         x="911.25"
         id="tspan4290"
         sodipodi:role="line">b2</tspan></text>
    <text
       xml:space="preserve"
       style="font-style:normal;font-variant:normal;font-weight:normal;font-stretch:normal;font-size:10px;line-height:125%;font-family:Times;-inkscape-font-specification:'Times, Normal';text-align:start;letter-spacing:0px;word-spacing:0px;writing-mode:lr-tb;text-anchor:start;fill:#000000;fill-opacity:1;stroke:none;stroke-width:1px;stroke-linecap:butt;stroke-linejoin:miter;stroke-opacity:1"
       x="868.5"
       y="665.36224"
       id="text4292"
       sodipodi:linespacing="125%"><tspan
         sodipodi:role="line"
         id="tspan4294"
         x="868.5"
         y="665.36224">W2(1,2)</tspan></text>
    <text
       sodipodi:linespacing="125%"
       id="text4304"
       y="620.36224"
       x="960.75"
       style="font-style:normal;font-variant:normal;font-weight:normal;font-stretch:normal;font-size:10px;line-height:125%;font-family:Times;-inkscape-font-specification:'Times, Normal';text-align:start;letter-spacing:0px;word-spacing:0px;writing-mode:lr-tb;text-anchor:start;fill:#000000;fill-opacity:1;stroke:none;stroke-width:1px;stroke-linecap:butt;stroke-linejoin:miter;stroke-opacity:1"
       xml:space="preserve"><tspan
         y="620.36224"
         x="960.75"
         id="tspan4306"
         sodipodi:role="line">a2(1)</tspan></text>
    <text
       xml:space="preserve"
       style="font-style:normal;font-variant:normal;font-weight:normal;font-stretch:normal;font-size:10px;line-height:125%;font-family:Times;-inkscape-font-specification:'Times, Normal';text-align:start;letter-spacing:0px;word-spacing:0px;writing-mode:lr-tb;text-anchor:start;fill:#000000;fill-opacity:1;stroke:none;stroke-width:1px;stroke-linecap:butt;stroke-linejoin:miter;stroke-opacity:1"
       x="731.25"
       y="624.86224"
       id="text4308"
       sodipodi:linespacing="125%"><tspan
         sodipodi:role="line"
         id="tspan4310"
         x="731.25"
         y="624.86224">p</tspan></text>
    <path
       style="fill:#ffffff;fill-rule:evenodd;stroke:#000000"
       inkscape:connector-curvature="0"
       d="m 819,597.86222 18,0 0,18 -18,0 z"
       id="path11065" />
    <path
       id="path4232"
       d="m 819,647.36221 18,0 0,18 -18,0 z"
       inkscape:connector-curvature="0"
       style="fill:#ffffff;fill-rule:evenodd;stroke:#000000" />
    <text
       xml:space="preserve"
       style="font-style:normal;font-variant:normal;font-weight:normal;font-stretch:normal;font-size:10px;line-height:125%;font-family:Times;-inkscape-font-specification:'Times, Normal';text-align:start;letter-spacing:0px;word-spacing:0px;writing-mode:lr-tb;text-anchor:start;fill:#000000;fill-opacity:1;stroke:none;stroke-width:1px;stroke-linecap:butt;stroke-linejoin:miter;stroke-opacity:1"
       x="825.75"
       y="609.11224"
       id="text4248"
       sodipodi:linespacing="125%"><tspan
         sodipodi:role="line"
         id="tspan4250"
         x="825.75"
         y="609.11224">f</tspan></text>
    <text
       xml:space="preserve"
       style="font-style:normal;font-variant:normal;font-weight:normal;font-stretch:normal;font-size:10px;line-height:125%;font-family:Times;-inkscape-font-specification:'Times, Normal';text-align:start;letter-spacing:0px;word-spacing:0px;writing-mode:lr-tb;text-anchor:start;fill:#000000;fill-opacity:1;stroke:none;stroke-width:1px;stroke-linecap:butt;stroke-linejoin:miter;stroke-opacity:1"
       x="825.75"
       y="658.61224"
       id="text4252"
       sodipodi:linespacing="125%"><tspan
         sodipodi:role="line"
         id="tspan4254"
         x="825.75"
         y="658.61224">f</tspan></text>
  </g>
</svg>
