<?xml version="1.0" encoding="UTF-8"?>
<svg width="22" height="22" version="1.1" xmlns="http://www.w3.org/2000/svg" xmlns:xlink="http://www.w3.org/1999/xlink">
 <defs>
  <linearGradient id="linearGradient4643-8" x2="0" y1="543.8" y2="502.66" gradientTransform="matrix(.66667 0 0 .63518 141.19 191.52)" gradientUnits="userSpaceOnUse">
   <stop stop-color="#c6cdd1" offset="0"/>
   <stop stop-color="#e0e5e7" offset="1"/>
  </linearGradient>
  <linearGradient id="linearGradient4183" x1="391.57" x2="406.57" y1="525.8" y2="540.8" gradientTransform="translate(13 -7)" gradientUnits="userSpaceOnUse">
   <stop offset="0"/>
   <stop stop-opacity="0" offset="1"/>
  </linearGradient>
 </defs>
 <g transform="translate(-384.57 -525.8)">
  <g transform="matrix(.625 0 0 .64286 137.09 199.43)">
   <rect x="397.57" y="510.8" width="32" height="28" rx="0" fill="url(#linearGradient4643-8)"/>
   <path d="m398.57 536.8 30-20 1 1-1e-5 21-29 3e-5z" fill="url(#linearGradient4183)" fill-rule="evenodd" opacity=".2"/>
   <rect x="397.57" y="537.8" width="32" height="1" fill="#99a1a7"/>
   <rect x="397.57" y="510.8" width="32" height="4" fill="#566069"/>
   <rect x="397.57" y="514.8" width="32" height="1" fill="#3daee9"/>
   <rect x="398.57" y="516.8" width="30" height="20" fill="#fff"/>
   <rect x="426.57" y="511.8" width="2" height="2" rx="1" fill="#eff0f1"/>
  </g>
  <g transform="matrix(.625 0 0 .64286 145.21 194.93)">
   <path transform="translate(384.57 515.8)" d="m4 11v6h7v-5h-3l-1-1z" fill="#7aabdc"/>
   <path d="m388.57 534.8v6h7v-5h-3l-1-1z" fill="#7aabdc"/>
   <path d="m398.57 526.8v6h5v-4l-2-2z" fill="#f95"/>
   <path d="m401.57 526.8 2 2h-2z" fill="#d45500" fill-rule="evenodd"/>
   <path d="m398.57 534.8v6h5v-4l-2-2z" fill="#71c837"/>
   <path d="m401.57 534.8 2 2h-2z" fill="#447821" fill-rule="evenodd"/>
   <rect x="406.57" y="526.8" width="6" height="6" rx="2.6e-5" fill="#333"/>
   <rect x="407.57" y="528.8" width="4" height="2" rx="1" fill="#3daee9"/>
   <rect x="409.57" y="528.8" width="2" height="2" rx="1" fill="#eff0f1"/>
  </g>
 </g>
</svg>
