<?xml version="1.0" encoding="UTF-8"?>
<svg version="1.1" viewBox="0 0 22 22" xmlns="http://www.w3.org/2000/svg">
 <defs>
  <style type="text/css">.ColorScheme-Text {
        color:#eff0f1;
      }</style>
 </defs>
 <path d="m3.5 1v1.25 1.25h-2.5v3.75h2.5v7.5h-2.5v3.75h2.5v2.5h1.25 6.25v-1.25h-6.25v-13.75h15v5h1.25v-8.75-1.25h-17.5zm1.25 1.25h15v2.5h-15v-1.25-1.25z" color="#eff0f1" fill="#232629"/>
 <path class="ColorScheme-Text" d="m16 11c-2.7614 0-5 2.2386-5 5 0 2.7614 2.2386 5 5 5s5-2.2386 5-5c0-2.7614-2.2386-5-5-5zm0 0.83333c2.3012 0 4.1667 1.8655 4.1667 4.1667 0 2.3012-1.8655 4.1667-4.1667 4.1667s-4.1667-1.8655-4.1667-4.1667c0-2.3012 1.8655-4.1667 4.1667-4.1667zm-0.83333 0.83333v4.1667h4.1667v-0.83333h-3.3333v-3.3333z" color="#eff0f1" fill="#232629"/>
</svg>
