<?xml version="1.0" encoding="UTF-8" standalone="no"?>
<!-- Created with Inkscape (http://www.inkscape.org/) -->

<svg
   xmlns:dc="http://purl.org/dc/elements/1.1/"
   xmlns:cc="http://creativecommons.org/ns#"
   xmlns:rdf="http://www.w3.org/1999/02/22-rdf-syntax-ns#"
   xmlns:svg="http://www.w3.org/2000/svg"
   xmlns="http://www.w3.org/2000/svg"
   xmlns:sodipodi="http://sodipodi.sourceforge.net/DTD/sodipodi-0.dtd"
   xmlns:inkscape="http://www.inkscape.org/namespaces/inkscape"
   version="1.1"
   id="svg4485"
   xml:space="preserve"
   width="105.95898"
   height="147.71312"
   viewBox="0 0 105.95899 147.71312"
   sodipodi:docname="info_2.svg"
   inkscape:version="0.92.1 r15371"><metadata
     id="metadata4491"><rdf:RDF><cc:Work
         rdf:about=""><dc:format>image/svg+xml</dc:format><dc:type
           rdf:resource="http://purl.org/dc/dcmitype/StillImage" /><dc:title></dc:title></cc:Work></rdf:RDF></metadata><defs
     id="defs4489" /><sodipodi:namedview
     pagecolor="#ffffff"
     bordercolor="#666666"
     borderopacity="1"
     objecttolerance="10"
     gridtolerance="10"
     guidetolerance="10"
     inkscape:pageopacity="0"
     inkscape:pageshadow="2"
     inkscape:window-width="1920"
     inkscape:window-height="1017"
     id="namedview4487"
     showgrid="false"
     inkscape:zoom="2.1883116"
     inkscape:cx="84.084286"
     inkscape:cy="80.703213"
     inkscape:window-x="-8"
     inkscape:window-y="-8"
     inkscape:window-maximized="1"
     inkscape:current-layer="g4493"
     fit-margin-top="0"
     fit-margin-left="0"
     fit-margin-right="0"
     fit-margin-bottom="0" /><g
     id="g4493"
     inkscape:groupmode="layer"
     inkscape:label="ink_ext_XXXXXX"
     transform="matrix(1.3333333,0,0,-1.3333333,-57.478839,218.90702)"><g
       id="g4495"
       transform="matrix(0.1,0,0,0.1,37.35757,-38.38576)"><g
         id="g4497"
         transform="matrix(5.1200261,0,0,5.7085512,28.067463,869.30175)"><text
           transform="matrix(1,0,0,-1,5.65781,194.234)"
           style="font-variant:normal;font-weight:normal;font-size:12px;font-family:'Times New Roman';-inkscape-font-specification:TimesNewRomanPSMT;writing-mode:lr-tb;fill:#231f20;fill-opacity:1;fill-rule:nonzero;stroke:none"
           id="text4513"><tspan
             x="0 8.6639996 12 15.336 20.664 24.599911 27.599911 30.935911 36.935909 42.263912 45.263912 53.87991 59.159912 62.627911 68.507912 74.507912 77.84391 80.84391 86.171913 92.171913 98.171913 101.16605 107.16605 110.50791 115.78791 120.59609 123.59609 128.87608 134.87608 140.87608"
             y="0"
             sodipodi:role="line"
             id="tspan4499">Alter the weight and bias and </tspan><tspan
             x="0 3.336 9.3301411 15.330141 21.330141 24.707993 27.702133 33.815994 39.575993 42.575993 48.575993 52.571995 57.923996 63.923996 69.803993 73.139992 79.271996 85.151993 88.151993 91.487991 97.487991 102.81599 105.83642 109.17242 113.16842 116.62442 122.01241 128.01242 133.89241 139.89241 143.22841 148.55641 152.54628"
             y="22.9398"
             sodipodi:role="line"
             id="tspan4501">input by dragging the triangular </tspan><tspan
             x="0 4.6680002 10.668 15.954141 21.960009 27.240009 33.240009 36.240009 39.576008 45.576008 51.576008 54.948009 60.228008 63.564011 69.564011 73.560013 78.228012 81.355782"
             y="45.859699"
             sodipodi:role="line"
             id="tspan4503">shaped indictors. </tspan><tspan
             x="0 6.7080002 10.044 15.372 21.372 24.372 27.708 33.708 38.987999 41.987999 45.324001 49.32 54.588001 60.588001 65.255997 69.251999 74.508003 78.503998 81.575981 85.571983 91.571983 97.571983 102.81599 106.15199 109.52397 115.52397 121.67642 124.67642 133.34042 136.67642 140.01242 146.01242"
             y="91.579201"
             sodipodi:role="line"
             id="tspan4505">Pick the transfer function with </tspan><tspan
             x="0 3.336 9.3360004 14.664 17.664 24.24 27.24 36.576 41.903999 47.903999 53.903999 56.995705"
             y="114.4987"
             sodipodi:role="line"
             id="tspan4507">the F menu. </tspan><tspan
             x="0 11.388 16.667999 20.004 25.332001 31.332001 34.332001 37.667999 43.667999 48.948002 51.955849 57.235847 63.235847 68.515846 74.623848 80.503853 85.795685 88.795685 92.131683 98.131683 101.13168 104.50368 110.50368 115.78368 121.91599 127.91599 133.196 139.196 143.192 149.192 155.30632"
             y="160.2198"
             sodipodi:role="line"
             id="tspan4509">Watch the change to the neuron </tspan><tspan
             x="3 6.9959998 12.996 18.996 24.241579 27.577578 30.949577 36.949577 42.949577 45.949577 51.22958 57.22958 63.22958 66.229576 69.565575 72.937576 77.605576 83.637589 89.637589 95.637589 98.975929 104.97593 110.97593 114.34982 117.36193"
             y="183.1698"
             sodipodi:role="line"
             id="tspan4511">function and its output. </tspan></text>
</g></g></g></svg>