<?xml version="1.0" encoding="UTF-8" standalone="no"?>
<!-- Created with Inkscape (http://www.inkscape.org/) -->

<svg
   xmlns:dc="http://purl.org/dc/elements/1.1/"
   xmlns:cc="http://creativecommons.org/ns#"
   xmlns:rdf="http://www.w3.org/1999/02/22-rdf-syntax-ns#"
   xmlns:svg="http://www.w3.org/2000/svg"
   xmlns="http://www.w3.org/2000/svg"
   xmlns:sodipodi="http://sodipodi.sourceforge.net/DTD/sodipodi-0.dtd"
   xmlns:inkscape="http://www.inkscape.org/namespaces/inkscape"
   version="1.1"
   id="svg3680"
   xml:space="preserve"
   width="54.293331"
   height="53.506668"
   viewBox="0 0 54.293331 53.506668"
   sodipodi:docname="Logo_Ch_2.svg"
   inkscape:version="0.92.1 r15371"><metadata
     id="metadata3686"><rdf:RDF><cc:Work
         rdf:about=""><dc:format>image/svg+xml</dc:format><dc:type
           rdf:resource="http://purl.org/dc/dcmitype/StillImage" /><dc:title></dc:title></cc:Work></rdf:RDF></metadata><defs
     id="defs3684"><clipPath
       clipPathUnits="userSpaceOnUse"
       id="clipPath3698"><path
         d=""
         id="path3696"
         inkscape:connector-curvature="0"
         style="clip-rule:evenodd" /></clipPath><clipPath
       clipPathUnits="userSpaceOnUse"
       id="clipPath3716"><path
         d="m 54.332,58.4219 h 288.004 v 288 H 54.332 Z"
         id="path3714"
         inkscape:connector-curvature="0"
         style="clip-rule:evenodd" /></clipPath></defs><sodipodi:namedview
     pagecolor="#ffffff"
     bordercolor="#666666"
     borderopacity="1"
     objecttolerance="10"
     gridtolerance="10"
     guidetolerance="10"
     inkscape:pageopacity="0"
     inkscape:pageshadow="2"
     inkscape:window-width="640"
     inkscape:window-height="480"
     id="namedview3682"
     showgrid="false"
     inkscape:zoom="15.848492"
     inkscape:cx="27.146666"
     inkscape:cy="26.753334"
     inkscape:window-x="0"
     inkscape:window-y="0"
     inkscape:window-maximized="1"
     inkscape:current-layer="g3688" /><g
     id="g3688"
     inkscape:groupmode="layer"
     inkscape:label="ink_ext_XXXXXX"
     transform="matrix(1.3333333,0,0,-1.3333333,0,53.506667)"><g
       id="g3690"
       transform="scale(0.1)"><g
         id="g3692"><g
           id="g3694"
           clip-path="url(#clipPath3698)" /></g><path
         d="m 18.332,22.4219 h 360.004 v 360 H 18.332 Z"
         style="fill:#394ca8;fill-opacity:1;fill-rule:nonzero;stroke:none"
         id="path3700"
         inkscape:connector-curvature="0" /><path
         d="m 18.332,377.02 h 365.402 v 10.1992 H 18.332 Z"
         style="fill:#394ca8;fill-opacity:1;fill-rule:nonzero;stroke:none"
         id="path3702"
         inkscape:connector-curvature="0" /><path
         d="m 373.535,17.0195 h 10.1992 v 365.402 H 373.535 Z"
         style="fill:#394ca8;fill-opacity:1;fill-rule:nonzero;stroke:none"
         id="path3704"
         inkscape:connector-curvature="0" /><path
         d="m 13.5352,17.0195 h 364.801 V 27.2226 H 13.5352 Z"
         style="fill:#394ca8;fill-opacity:1;fill-rule:nonzero;stroke:none"
         id="path3706"
         inkscape:connector-curvature="0" /><path
         d="m 13.5352,22.4219 h 10.1992 v 364.801 H 13.5352 Z"
         style="fill:#394ca8;fill-opacity:1;fill-rule:nonzero;stroke:none"
         id="path3708"
         inkscape:connector-curvature="0" /><g
         id="g3710"><g
           id="g3712"
           clip-path="url(#clipPath3716)"><path
             d="m 54.332,58.4219 h 288.004 v 288 H 54.332 Z"
             style="fill:#908e8f;fill-opacity:1;fill-rule:nonzero;stroke:none"
             id="path3718"
             inkscape:connector-curvature="0" /><path
             d="m 54.332,341.02 h 288.004 v 5.70313 H 54.332 Z"
             style="fill:#908e8f;fill-opacity:1;fill-rule:nonzero;stroke:none"
             id="path3720"
             inkscape:connector-curvature="0" /><path
             d="m 337.535,58.1211 h 4.80078 v 288.301 H 337.535 Z"
             style="fill:#908e8f;fill-opacity:1;fill-rule:nonzero;stroke:none"
             id="path3722"
             inkscape:connector-curvature="0" /><path
             d="m 53.7344,58.1211 h 288.602 v 5.10156 H 53.7344 Z"
             style="fill:#908e8f;fill-opacity:1;fill-rule:nonzero;stroke:none"
             id="path3724"
             inkscape:connector-curvature="0" /><path
             d="m 53.7344,58.4219 h 6 v 288.297 h -6 z"
             style="fill:#908e8f;fill-opacity:1;fill-rule:nonzero;stroke:none"
             id="path3726"
             inkscape:connector-curvature="0" /></g></g><path
         d="m 90.332,94.4219 h 216 v 216 h -216 z"
         style="fill:#394ca8;fill-opacity:1;fill-rule:nonzero;stroke:none"
         id="path3728"
         inkscape:connector-curvature="0" /><path
         d="m 90.332,305.02 h 221.402 v 10.1992 H 90.332 Z"
         style="fill:#394ca8;fill-opacity:1;fill-rule:nonzero;stroke:none"
         id="path3730"
         inkscape:connector-curvature="0" /><path
         d="m 301.535,89.0195 h 10.1992 v 221.402 H 301.535 Z"
         style="fill:#394ca8;fill-opacity:1;fill-rule:nonzero;stroke:none"
         id="path3732"
         inkscape:connector-curvature="0" /><path
         d="m 85.5352,89.0195 h 220.801 V 99.2226 H 85.5352 Z"
         style="fill:#394ca8;fill-opacity:1;fill-rule:nonzero;stroke:none"
         id="path3734"
         inkscape:connector-curvature="0" /><path
         d="m 85.5352,94.4219 h 10.1992 v 220.797 H 85.5352 Z"
         style="fill:#394ca8;fill-opacity:1;fill-rule:nonzero;stroke:none"
         id="path3736"
         inkscape:connector-curvature="0" /><path
         d="m 183.336,240.82 h 30 v 15 h -30 z"
         style="fill:#ffffff;fill-opacity:1;fill-rule:nonzero;stroke:none"
         id="path3738"
         inkscape:connector-curvature="0" /><path
         d="m 183.336,105.82 h 30 v 135 h -30 z"
         style="fill:#ffffff;fill-opacity:1;fill-rule:nonzero;stroke:none"
         id="path3740"
         inkscape:connector-curvature="0" /><path
         d="m 228.934,105.82 h 30 v 15 h -30 z"
         style="fill:#ffffff;fill-opacity:1;fill-rule:nonzero;stroke:none"
         id="path3742"
         inkscape:connector-curvature="0" /><path
         d="m 228.934,120.82 v 83.403 l 0.601,10.199 v -0.602 7.801 l 0.598,3 1.203,6 -0.602,-3 v 2.399 c 0.36,4.671 1.731,6.691 3,10.8 l 0.602,1.2 -0.602,-1.801 0.602,1.801 3.598,5.402 0.601,0.598 1.199,1.203 0.602,0.597 3.598,3 1.199,0.602 6.601,1.797 h 1.2 l -6.598,-1.797 1.199,0.598 6.598,1.8 v -30 l 6.601,1.2 -1.199,-0.598 -6.601,-1.203 h -1.2 l 6.598,1.203 -1.199,-0.602 4.203,3 -2.402,-2.398 3.601,6 -0.601,-1.801 -0.598,-1.801 -0.602,-1.199 0.602,1.801 -0.602,-1.801 0.602,1.199 -0.602,-2.398 v 3.598 -5.399 l -1.199,-6 v 3 -9 l -0.601,-10.199 v 1.199 -82.801"
         style="fill:#ffffff;fill-opacity:1;fill-rule:nonzero;stroke:none"
         id="path3744"
         inkscape:connector-curvature="0" /><path
         d="m 254.133,225.82 h 1.20313 v 30 H 254.133 Z"
         style="fill:#ffffff;fill-opacity:1;fill-rule:nonzero;stroke:none"
         id="path3746"
         inkscape:connector-curvature="0" /><path
         d="m 255.336,225.82 h 20.9961 v 30 H 255.336 Z"
         style="fill:#ffffff;fill-opacity:1;fill-rule:nonzero;stroke:none"
         id="path3748"
         inkscape:connector-curvature="0" /><path
         d="m 137.734,105.82 h 30 v 15 h -30 z"
         style="fill:#ffffff;fill-opacity:1;fill-rule:nonzero;stroke:none"
         id="path3750"
         inkscape:connector-curvature="0" /><path
         d="m 137.734,120.82 v 40.801 -0.601 l -0.601,30.601 v 12 -1.199 l -0.598,10.199 v 9 -1.801 l -0.601,6 0.601,-1.8 -0.601,2.402 -0.598,2.398 0.598,-1.199 -0.598,1.801 0.598,-1.801 -0.598,1.199 -0.602,1.801 -0.601,1.801 3.601,-6 -2.398,2.398 3.598,-3 -1.2,0.602 6.602,-1.203 h -0.602 l -6.601,1.203 -1.199,0.598 6.601,-1.2 v 30 l 6.598,-1.8 1.203,-0.598 -6.602,1.797 h 0.602 l 6.598,-1.797 1.199,-0.602 4.203,-3 2.398,-2.398 3.602,-5.402 0.598,-1.801 -0.598,1.801 0.598,-1.2 c 3.199,-8.371 3.039,-9.59 3.601,-19.199 v -7.801 0.602 l 0.598,-10.199 v -12 l 0.601,-30.602 V 120.82"
         style="fill:#ffffff;fill-opacity:1;fill-rule:nonzero;stroke:none"
         id="path3752"
         inkscape:connector-curvature="0" /><path
         d="m 140.734,225.82 h 1.80078 v 30 H 140.734 Z"
         style="fill:#ffffff;fill-opacity:1;fill-rule:nonzero;stroke:none"
         id="path3754"
         inkscape:connector-curvature="0" /><path
         d="m 119.734,225.82 h 21 v 30 h -21 z"
         style="fill:#ffffff;fill-opacity:1;fill-rule:nonzero;stroke:none"
         id="path3756"
         inkscape:connector-curvature="0" /><path
         d="m 104.133,266.02 h 15 v 30 h -15 z"
         style="fill:#ffffff;fill-opacity:1;fill-rule:nonzero;stroke:none"
         id="path3758"
         inkscape:connector-curvature="0" /><path
         d="m 119.133,266.02 h 172.199 v 30 H 119.133 Z"
         style="fill:#ffffff;fill-opacity:1;fill-rule:nonzero;stroke:none"
         id="path3760"
         inkscape:connector-curvature="0" /></g></g></svg>