<?xml version="1.0" encoding="UTF-8"?>
<!-- Created with Inkscape (http://www.inkscape.org/) -->
<svg width="337.33" height="134.67" version="1.1" viewBox="0 0 337.33334 134.66667" xml:space="preserve" xmlns="http://www.w3.org/2000/svg" xmlns:cc="http://creativecommons.org/ns#" xmlns:dc="http://purl.org/dc/elements/1.1/" xmlns:rdf="http://www.w3.org/1999/02/22-rdf-syntax-ns#"><metadata><rdf:RDF><cc:Work rdf:about=""><dc:format>image/svg+xml</dc:format><dc:type rdf:resource="http://purl.org/dc/dcmitype/StillImage"/><dc:title/></cc:Work></rdf:RDF></metadata><g transform="matrix(1.3333 0 0 -1.3333 0 134.67)"><g transform="scale(.1)"><g transform="scale(10)"><text transform="matrix(1 0 0 -1 152.12 94.768)" fill="#000000" font-family="Helvetica" font-size="8px"><tspan x="0 5.336 9.3360004 16 18.224001 20.424171 26.200172 30.648172 33.312172 37.76017 39.984173 44.432171 46.208172 52.872173 54.64817 56.872173 59.096172 63.54417 68.015999 72.015999 76.463997 -102.8 -97.463997 -93.015999 -88.992172 -86.768173 -84.544174 -80.096169 -78.320175 -73.872169 -69.424171 -64.976173 -62.288345 -60.064342 -55.616344 -51.168343 -47.168343 -42.720345" y="0">Sym. Hard Limit LayerPos. Linear Layer</tspan></text>
</g><path d="m871.21 497.72c0-39.77-32.231-72.028-71.992-72.028-39.809 0-72.028 32.258-72.028 72.028 0 39.769 32.219 71.992 72.028 71.992 39.761 0 71.992-32.223 71.992-71.992z" fill="#fff" fill-rule="evenodd"/><g fill="none" stroke="#000" stroke-width="8"><path d="m871.21 497.72c0-39.77-32.231-72.028-71.992-72.028-39.809 0-72.028 32.258-72.028 72.028 0 39.769 32.219 71.992 72.028 71.992 39.761 0 71.992-32.223 71.992-71.992z"/><g stroke-linecap="square"><path d="m799.22 533.7v-71.988"/><path d="m763.2 497.72h72"/><path d="m871.21 497.72 139.96-0.039"/></g></g><path d="m1007.2 529.67 80-31.992-80-31.989"/><path d="m1087.2 281.71h144.02v431.99h-144.02z" fill="#bfbfbf" fill-rule="evenodd"/><g fill="none" stroke="#000" stroke-width="8"><path d="m1087.2 281.71h144.02v431.99h-144.02z"/><path d="m583.2 353.7h36.02" stroke-linecap="square"/><path d="m619.22 353.74 54.222 54.211" stroke-linecap="square"/></g><path d="m647.97 427.76 79.222 33.91-33.953-79.184"/><path d="m583.2 641.71h36.02" fill="none" stroke="#000" stroke-linecap="square" stroke-width="8"/><path d="m619.22 641.67 54.222-54.18" fill="none" stroke="#000" stroke-linecap="square" stroke-width="8"/><path d="m693.24 612.92 33.953-79.184-79.222 33.942"/><path d="m151.21 641.74 139.96-0.027" fill="none" stroke="#000" stroke-linecap="square" stroke-width="8"/><path d="m287.19 673.7 80-32.027-80-32"/><path d="m1951.2 497.72c0-39.77-32.23-72.028-71.99-72.028-39.81 0-72.03 32.258-72.03 72.028 0 39.769 32.22 71.992 72.03 71.992 39.76 0 71.99-32.223 71.99-71.992z" fill="#fff" fill-rule="evenodd"/><g fill="none" stroke="#000" stroke-width="8"><path d="m1951.2 497.72c0-39.77-32.23-72.028-71.99-72.028-39.81 0-72.03 32.258-72.03 72.028 0 39.769 32.22 71.992 72.03 71.992 39.76 0 71.99-32.223 71.99-71.992z"/><g stroke-linecap="square"><path d="m1879.2 533.7v-71.988"/><path d="m1843.2 497.72h72"/><path d="m1951.2 497.72 139.96-0.039"/></g></g><path d="m2087.2 529.67 80-31.992-80-31.989"/><path d="m1663.2 353.7h36.02" fill="none" stroke="#000" stroke-linecap="square" stroke-width="8"/><path d="m1699.2 353.74 54.22 54.211" fill="none" stroke="#000" stroke-linecap="square" stroke-width="8"/><path d="m1728 427.76 79.22 33.91-33.95-79.184"/><path d="m1663.2 641.71h36.02" fill="none" stroke="#000" stroke-linecap="square" stroke-width="8"/><path d="m1699.2 641.67 54.22-54.18" fill="none" stroke="#000" stroke-linecap="square" stroke-width="8"/><path d="m1773.2 612.92 33.95-79.184-79.22 33.942"/><path d="m1231.2 641.74 139.96-0.027" fill="none" stroke="#000" stroke-linecap="square" stroke-width="8"/><path d="m1367.2 673.7 80-32.027-80-32"/><path d="m2311.2 641.74 139.96-0.027" fill="none" stroke="#000" stroke-linecap="square" stroke-width="8"/><path d="m2447.2 673.7 80-32.027-80-32"/><path d="m2167.2 281.71h144.02v431.99h-144.02z" fill="#bfbfbf" fill-rule="evenodd"/><g fill="none" stroke="#000" stroke-width="8"><g><path d="m2167.2 281.71h144.02v431.99h-144.02z"/><path d="m295.2 821.71c0 39.758 32.223 71.988 71.992 71.988"/><path d="m1231.2 893.7c39.77 0 71.99-32.23 71.99-71.988"/></g><path d="m367.19 893.7h864.02" stroke-linecap="square"/><path d="m1411.2 821.71c0 39.758 32.23 71.988 71.99 71.988"/><path d="m2311.2 893.7c39.77 0 71.99-32.23 71.99-71.988"/><path d="m1483.2 893.7h828.01" stroke-linecap="square"/><path d="m367.19 137.72c-39.769 0-71.992 32.23-71.992 71.992"/><path d="m1303.2 209.71c0-39.762-32.22-71.992-71.99-71.992"/><path d="m367.19 137.72h864.02" stroke-linecap="square"/><path d="m1483.2 137.72c-39.76 0-71.99 32.23-71.99 71.992"/><path d="m2383.2 209.71c0-39.762-32.22-71.992-71.99-71.992"/><path d="m1483.2 137.72h828.01" stroke-linecap="square"/></g><g transform="scale(10)" fill="#000000" font-family="'Times New Roman'"><text transform="matrix(1 0 0 -1 20.201 68.371)" font-size="8px" font-weight="bold"><tspan x="0 108.7256" y="0">pa</tspan></text>
<text transform="matrix(1 0 0 -1 132.93 72.771)" font-size="5.2px"><tspan x="0" y="0">1</tspan></text>
<text transform="matrix(1 0 0 -1 237.03 68.371)" font-size="8px" font-weight="bold"><tspan x="0" y="0">a</tspan></text>
<text transform="matrix(1 0 0 -1 241.03 69.571)" font-size="4.8px"><tspan x="0" y="0">2</tspan></text>
</g><path d="m259.22 353.74 31.953-0.039" fill="none" stroke="#000" stroke-linecap="square" stroke-width="8"/><path d="m287.19 385.73 80-32.031-80.043-31.961"/><g transform="scale(10)"><text transform="matrix(1 0 0 -1 20.32 32.571)" fill="#000000" font-family="'Times New Roman'" font-size="8px"><tspan x="0" y="0">1</tspan></text>
</g><path d="m1339.2 353.74 31.95-0.039" fill="none" stroke="#000" stroke-linecap="square" stroke-width="8"/><path d="m1367.2 385.73 80-32.031-80.04-31.961"/><g transform="scale(10)" fill="#000000"><g font-family="'Times New Roman'"><text transform="matrix(1 0 0 -1 128.32 32.571)" font-size="8px"><tspan x="0" y="0">1</tspan></text>
<text transform="matrix(1 0 0 -1 92.702 53.971)" font-size="8px" font-weight="bold"><tspan x="0" y="0">n</tspan></text>
<text transform="matrix(1 0 0 -1 97.155 58.371)" font-size="5.2px"><tspan x="0" y="0">1</tspan></text>
<text transform="matrix(1 0 0 -1 200.8 53.971)" font-size="8px" font-weight="bold"><tspan x="0" y="0">n</tspan></text>
<text transform="matrix(1 0 0 -1 205.25 55.171)" font-size="4.8px"><tspan x="0" y="0">2</tspan></text>
</g><text transform="matrix(1 0 0 -1 .54186 93.971)" font-family="Helvetica" font-size="8px"><tspan x="0 2.224 6.6719999 11.12 15.568 17.792" y="0">Inputs</tspan></text>
</g><g fill="none" stroke="#000" stroke-width="8"><path d="m7.1914 821.71c0 39.758 32.258 71.988 72.027 71.988"/><path d="m151.21 893.7c39.769 0 71.988-32.23 71.988-71.988"/><path d="m79.219 893.7h71.992" stroke-linecap="square"/></g><path d="m79.219 281.71h71.992v431.99h-71.992z" fill-rule="evenodd"/><g fill="none" stroke="#000" stroke-width="8"><g><path d="m79.219 281.71h71.992v431.99h-71.992z"/><path d="m79.219 137.72c-39.77 0-72.027 32.23-72.027 71.992"/><path d="m223.2 209.71c0-39.762-32.219-71.992-71.988-71.992"/></g><path d="m79.219 137.72h71.992" stroke-linecap="square"/></g><path d="m1447.2 569.72h216.02v143.98h-216.02z" fill="#fff" fill-rule="evenodd"/><path d="m1447.2 569.72h216.02v143.98h-216.02z" fill="none" stroke="#000" stroke-width="8"/><g transform="scale(10)" fill="#000000" font-family="'Times New Roman'"><text transform="matrix(1 0 0 -1 150.53 61.171)" font-size="8px" font-weight="bold"><tspan x="0" y="0">W</tspan></text>
<text transform="matrix(1 0 0 -1 158.53 65.571)" font-size="5.2px"><tspan x="0" y="0">2</tspan></text>
</g><path d="m367.19 281.71h216.02v143.98h-216.02z" fill="#fff" fill-rule="evenodd"/><path d="m367.19 281.71h216.02v143.98h-216.02z" fill="none" stroke="#000" stroke-width="8"/><g transform="scale(10)" fill="#000000" font-family="'Times New Roman'"><text transform="matrix(1 0 0 -1 44.101 32.371)" font-size="8px" font-weight="bold"><tspan x="0" y="0">b</tspan></text>
<text transform="matrix(1 0 0 -1 48.554 36.771)" font-size="5.2px"><tspan x="0" y="0">1</tspan></text>
</g><path d="m367.19 569.72h216.02v143.98h-216.02z" fill="#fff" fill-rule="evenodd"/><path d="m367.19 569.72h216.02v143.98h-216.02z" fill="none" stroke="#000" stroke-width="8"/><g transform="scale(10)" fill="#000000" font-family="'Times New Roman'"><text transform="matrix(1 0 0 -1 42.328 61.171)" font-size="8px" font-weight="bold"><tspan x="0" y="0">W</tspan></text>
<text transform="matrix(1 0 0 -1 50.328 65.571)" font-size="5.2px"><tspan x="0" y="0">1</tspan></text>
</g><path d="m1447.2 281.71h216.02v143.98h-216.02z" fill="#fff" fill-rule="evenodd"/><path d="m1447.2 281.71h216.02v143.98h-216.02z" fill="none" stroke="#000" stroke-width="8"/><g transform="scale(10)" fill="#000000" font-family="'Times New Roman'"><text transform="matrix(1 0 0 -1 152.1 32.371)" font-size="8px" font-weight="bold"><tspan x="0" y="0">b</tspan></text><g>
<text transform="matrix(1 0 0 -1 156.56 36.771)" font-size="5.2px"><tspan x="0" y="0">2</tspan></text>
<text transform="matrix(1 0 0 -1 8.2261 19.833)" font-size="8px"><tspan x="0 104.4 212.39999" y="0">241</tspan></text>
<text transform="matrix(1 0 0 -1 43.322 20.964)" font-size="5.6px"><tspan x="0 2.8 5.5999999" y="0">4x1</tspan><tspan x="-25.200001 -22.4 -19.6" y="-36">2x1</tspan></text>
</g></g><path d="m1087.2 281.67h143.98v432.03h-143.98z" fill="#fff" fill-rule="evenodd"/><g fill="none" stroke="#000"><path d="m1087.2 281.67h143.98v432.03h-143.98z" stroke-width="8"/><g stroke-linecap="square"><path d="m1141.2 443.7 71.99 107.97" stroke-width="8"/><path d="m1105.2 443.7h107.96" stroke-width="4"/><path d="m1141.2 443.7h-35.97" stroke-width="8"/></g></g><path d="m2167.2 281.67h143.98v432.03h-143.98z" fill="#fff" fill-rule="evenodd"/><g fill="none" stroke="#000"><path d="m2167.2 281.67h143.98v432.03h-143.98z" stroke-width="8"/><g stroke-linecap="square"><path d="m2185.2 497.68h107.96" stroke-width="4"/><g stroke-width="8"><path d="m2239.2 443.7v107.97"/><path d="m2239.2 551.67h53.98"/><path d="m2239.2 443.7h-53.98"/></g></g></g><g transform="scale(10)" fill="#000000" font-family="'Times New Roman'"><text transform="matrix(1 0 0 -1 43.318 49.768)" font-size="5.6px"><tspan x="0 2.8 5.5999999" y="0">4x2</tspan><tspan x="48.599998 51.400002 54.200001" y="9">4x1</tspan><tspan x="82.800003 85.599998 88.400002" y="-7.1999998">4x1</tspan><tspan x="108 110.8 113.6" y="8.8817842e-016">1x4</tspan><tspan x="108 110.8 113.6" y="28.799999">1x1</tspan><tspan x="154.8 157.60001 160.39999" y="9">1x1</tspan><tspan x="190.8 193.60001 196.39999" y="-7.1999998">1x1</tspan></text>
<text transform="matrix(1 0 0 -1 66.045 64.168)" font-size="8px" font-weight="bold"><tspan x="0" y="0">z</tspan></text>
<text transform="matrix(1 0 0 -1 69.591 68.568)" font-size="5.2px"><tspan x="0" y="0">1</tspan></text>
<text transform="matrix(1 0 0 -1 174.04 64.168)" font-size="8px" font-weight="bold"><tspan x="0" y="0">z</tspan></text>
<text transform="matrix(1 0 0 -1 177.59 67.368)" font-size="5.2px"><tspan x="0" y="0">2</tspan></text>
<text transform="matrix(1 0 0 -1 49.318 2.9684)" font-size="8px" font-weight="bold"><tspan x="0" y="0">a</tspan></text>
<text transform="matrix(1 0 0 -1 53.318 6.1684)" font-size="5.2px"><tspan x="0" y="0">1</tspan></text><g font-size="8px">
<text transform="matrix(1 0 0 -1 55.918 2.9684)"><tspan x="0" y="0">=</tspan></text>
<text transform="matrix(1 0 0 -1 60.43 2.9684)" font-weight="bold"><tspan x="0 4.448 8.448 11.56 13.784 16.007999" y="0">poslin</tspan></text>
<text transform="matrix(1 0 0 -1 80.887 2.9684)"><tspan x="0" y="0">(</tspan></text>
<text transform="matrix(1 0 0 -1 83.551 2.9684)" font-weight="bold"><tspan x="0" y="0">W</tspan></text>
</g><text transform="matrix(1 0 0 -1 91.559 6.1684)" font-size="5.2px"><tspan x="0" y="0">1</tspan></text><g font-size="8px">
<text transform="matrix(1 0 0 -1 94.159 2.9684)" font-weight="bold"><tspan x="0" y="0">p</tspan></text>
<text transform="matrix(1 0 0 -1 98.608 2.9684)"><tspan x="0" y="0">+</tspan></text>
<text transform="matrix(1 0 0 -1 103.12 2.9684)" font-weight="bold"><tspan x="0" y="0">b</tspan></text>
</g><text transform="matrix(1 0 0 -1 107.58 6.1684)" font-size="5.2px"><tspan x="0" y="0">1</tspan></text>
<text transform="matrix(1 0 0 -1 110.18 2.9684)" font-size="8px"><tspan x="0" y="0">)</tspan></text>
<text transform="matrix(1 0 0 -1 153.72 2.9684)" font-size="8px" font-weight="bold"><tspan x="0" y="0">a</tspan></text>
<text transform="matrix(1 0 0 -1 157.72 6.1684)" font-size="5.2px"><tspan x="0" y="0">2</tspan></text><g font-size="8px">
<text transform="matrix(1 0 0 -1 160.32 2.9684)"><tspan x="0" y="0">=</tspan></text>
<text transform="matrix(1 0 0 -1 164.83 2.9684)" font-weight="bold"><tspan x="0 4.448 8.448 12 16.448 18.672001 20.896 27.559999" y="0">hardlims</tspan></text>
<text transform="matrix(1 0 0 -1 195.5 2.9684)"><tspan x="0" y="0">(</tspan></text>
<text transform="matrix(1 0 0 -1 198.17 2.9684)" font-weight="bold"><tspan x="0" y="0">W</tspan></text>
</g><text transform="matrix(1 0 0 -1 206.16 6.1684)" font-size="5.2px"><tspan x="0" y="0">2</tspan></text>
<text transform="matrix(1 0 0 -1 208.76 2.9684)" font-size="8px" font-weight="bold"><tspan x="0" y="0">a</tspan></text>
<text transform="matrix(1 0 0 -1 212.76 6.1684)" font-size="5.2px"><tspan x="0" y="0">1</tspan></text>
<text transform="matrix(1 0 0 -1 215.36 2.9684)" font-size="8px"><tspan x="0" y="0">+</tspan></text>
<text transform="matrix(1 0 0 -1 219.87 2.9684)" font-size="8px" font-weight="bold"><tspan x="0" y="0">b</tspan></text>
<text transform="matrix(1 0 0 -1 224.33 6.1684)" font-size="5.2px"><tspan x="0" y="0">2</tspan></text>
<text transform="matrix(1 0 0 -1 226.93 2.9684)" font-size="8px"><tspan x="0" y="0">)</tspan></text>
</g></g></g></svg>
