<?xml version="1.0" encoding="UTF-8"?>
<svg xmlns="http://www.w3.org/2000/svg" xmlns:xlink="http://www.w3.org/1999/xlink" width="37.091pt" height="37.091pt" viewBox="0 0 37.091 37.091" version="1.1">
<defs>
<clipPath id="clip1">
  <path d="M 0 0 L 37.089844 0 L 37.089844 2 L 0 2 Z M 0 0 "/>
</clipPath>
<clipPath id="clip2">
  <path d="M 36 0 L 37.089844 0 L 37.089844 37.089844 L 36 37.089844 Z M 36 0 "/>
</clipPath>
<clipPath id="clip3">
  <path d="M 0 36 L 37 36 L 37 37.089844 L 0 37.089844 Z M 0 36 "/>
</clipPath>
<clipPath id="clip4">
  <path d="M 4.183594 4.125 L 32.984375 4.125 L 32.984375 32.925781 L 4.183594 32.925781 Z M 4.183594 4.125 "/>
</clipPath>
<clipPath id="clip5">
  <path d="M 4.183594 4.125 L 32.984375 4.125 L 32.984375 5 L 4.183594 5 Z M 4.183594 4.125 "/>
</clipPath>
<clipPath id="clip6">
  <path d="M 32 4.125 L 32.984375 4.125 L 32.984375 32.925781 L 32 32.925781 Z M 32 4.125 "/>
</clipPath>
<clipPath id="clip7">
  <path d="M 4.183594 32 L 32.984375 32 L 32.984375 32.925781 L 4.183594 32.925781 Z M 4.183594 32 "/>
</clipPath>
<clipPath id="clip8">
  <path d="M 4.183594 4.125 L 5 4.125 L 5 32.925781 L 4.183594 32.925781 Z M 4.183594 4.125 "/>
</clipPath>
</defs>
<g id="surface1">
<path style=" stroke:none;fill-rule:nonzero;fill:rgb(0%,0%,100%);fill-opacity:1;" d="M 0.523438 36.523438 L 36.523438 36.523438 L 36.523438 0.523438 L 0.523438 0.523438 Z M 0.523438 36.523438 "/>
<g clip-path="url(#clip1)" clip-rule="nonzero">
<path style=" stroke:none;fill-rule:nonzero;fill:rgb(0%,0%,100%);fill-opacity:1;" d="M 0.523438 1.0625 L 37.0625 1.0625 L 37.0625 0.0429688 L 0.523438 0.0429688 Z M 0.523438 1.0625 "/>
</g>
<g clip-path="url(#clip2)" clip-rule="nonzero">
<path style=" stroke:none;fill-rule:nonzero;fill:rgb(0%,0%,100%);fill-opacity:1;" d="M 36.042969 37.0625 L 37.0625 37.0625 L 37.0625 0.523438 L 36.042969 0.523438 Z M 36.042969 37.0625 "/>
</g>
<g clip-path="url(#clip3)" clip-rule="nonzero">
<path style=" stroke:none;fill-rule:nonzero;fill:rgb(0%,0%,100%);fill-opacity:1;" d="M 0.0429688 37.0625 L 36.523438 37.0625 L 36.523438 36.042969 L 0.0429688 36.042969 Z M 0.0429688 37.0625 "/>
</g>
<path style=" stroke:none;fill-rule:nonzero;fill:rgb(0%,0%,100%);fill-opacity:1;" d="M 0.0429688 36.523438 L 1.0625 36.523438 L 1.0625 0.0429688 L 0.0429688 0.0429688 Z M 0.0429688 36.523438 "/>
<g clip-path="url(#clip4)" clip-rule="nonzero">
<path style=" stroke:none;fill-rule:nonzero;fill:rgb(49.598694%,49.598694%,49.598694%);fill-opacity:1;" d="M 4.183594 32.925781 L 32.984375 32.925781 L 32.984375 4.125 L 4.183594 4.125 Z M 4.183594 32.925781 "/>
</g>
<g clip-path="url(#clip5)" clip-rule="nonzero">
<path style=" stroke:none;fill-rule:nonzero;fill:rgb(49.598694%,49.598694%,49.598694%);fill-opacity:1;" d="M 4.183594 4.664062 L 32.984375 4.664062 L 32.984375 4.09375 L 4.183594 4.09375 Z M 4.183594 4.664062 "/>
</g>
<g clip-path="url(#clip6)" clip-rule="nonzero">
<path style=" stroke:none;fill-rule:nonzero;fill:rgb(49.598694%,49.598694%,49.598694%);fill-opacity:1;" d="M 32.503906 32.953125 L 32.984375 32.953125 L 32.984375 4.125 L 32.503906 4.125 Z M 32.503906 32.953125 "/>
</g>
<g clip-path="url(#clip7)" clip-rule="nonzero">
<path style=" stroke:none;fill-rule:nonzero;fill:rgb(49.598694%,49.598694%,49.598694%);fill-opacity:1;" d="M 4.125 32.953125 L 32.984375 32.953125 L 32.984375 32.445312 L 4.125 32.445312 Z M 4.125 32.953125 "/>
</g>
<g clip-path="url(#clip8)" clip-rule="nonzero">
<path style=" stroke:none;fill-rule:nonzero;fill:rgb(49.598694%,49.598694%,49.598694%);fill-opacity:1;" d="M 4.125 32.925781 L 4.722656 32.925781 L 4.722656 4.09375 L 4.125 4.09375 Z M 4.125 32.925781 "/>
</g>
<path style=" stroke:none;fill-rule:nonzero;fill:rgb(0%,0%,100%);fill-opacity:1;" d="M 7.785156 29.324219 L 29.382812 29.324219 L 29.382812 7.722656 L 7.785156 7.722656 Z M 7.785156 29.324219 "/>
<path style=" stroke:none;fill-rule:nonzero;fill:rgb(0%,0%,100%);fill-opacity:1;" d="M 7.785156 8.265625 L 29.925781 8.265625 L 29.925781 7.242188 L 7.785156 7.242188 Z M 7.785156 8.265625 "/>
<path style=" stroke:none;fill-rule:nonzero;fill:rgb(0%,0%,100%);fill-opacity:1;" d="M 28.902344 29.863281 L 29.925781 29.863281 L 29.925781 7.722656 L 28.902344 7.722656 Z M 28.902344 29.863281 "/>
<path style=" stroke:none;fill-rule:nonzero;fill:rgb(0%,0%,100%);fill-opacity:1;" d="M 7.304688 29.863281 L 29.382812 29.863281 L 29.382812 28.84375 L 7.304688 28.84375 Z M 7.304688 29.863281 "/>
<path style=" stroke:none;fill-rule:nonzero;fill:rgb(0%,0%,100%);fill-opacity:1;" d="M 7.304688 29.324219 L 8.324219 29.324219 L 8.324219 7.242188 L 7.304688 7.242188 Z M 7.304688 29.324219 "/>
<path style=" stroke:none;fill-rule:nonzero;fill:rgb(80.099487%,80.099487%,80.099487%);fill-opacity:1;" d="M 8.5625 19.0625 L 9.042969 19.0625 L 9.042969 18.042969 L 8.5625 18.042969 Z M 8.5625 19.0625 "/>
<path style=" stroke:none;fill-rule:nonzero;fill:rgb(80.099487%,80.099487%,80.099487%);fill-opacity:1;" d="M 9.042969 19.0625 L 28.722656 19.0625 L 28.722656 18.042969 L 9.042969 18.042969 Z M 9.042969 19.0625 "/>
<path style=" stroke:none;fill-rule:nonzero;fill:rgb(100%,100%,100%);fill-opacity:1;" d="M 8.804688 26.984375 L 7.84375 26.984375 L 7.902344 28.964844 L 8.863281 28.964844 "/>
<path style=" stroke:none;fill-rule:nonzero;fill:rgb(100%,100%,100%);fill-opacity:1;" d="M 8.804688 26.984375 L 10.84375 26.925781 L 11.804688 26.925781 L 11.683594 26.925781 L 12.585938 26.804688 L 13.0625 26.742188 L 13.484375 26.683594 L 13.84375 26.625 L 13.722656 26.625 L 14.144531 26.503906 L 14.085938 26.5625 L 14.445312 26.445312 L 14.324219 26.445312 L 15.042969 26.082031 L 14.984375 26.144531 L 15.285156 25.964844 L 15.164062 26.023438 L 15.765625 25.542969 L 15.703125 25.664062 L 16.003906 25.363281 L 15.882812 25.425781 L 16.125 25.125 L 16.125 25.183594 L 16.363281 24.824219 L 16.304688 24.882812 L 16.542969 24.464844 L 16.484375 24.582031 L 16.664062 24.164062 L 17.023438 23.203125 L 16.964844 23.382812 L 17.203125 22.183594 L 17.324219 21.582031 L 17.324219 21.703125 L 17.382812 20.984375 L 17.445312 20.265625 L 17.503906 19.484375 L 17.503906 19.542969 L 17.503906 17.804688 L 17.5625 17.023438 L 17.5625 17.082031 L 17.5625 16.242188 L 17.683594 15.523438 L 17.683594 15.582031 L 17.742188 14.984375 L 17.742188 14.804688 L 17.925781 14.203125 L 17.925781 14.265625 L 18.042969 13.722656 L 18.105469 13.605469 L 18.285156 13.0625 L 18.285156 13.003906 L 18.464844 12.523438 L 18.644531 12.105469 L 18.703125 11.984375 L 18.945312 11.5625 L 19.003906 11.503906 L 19.242188 11.144531 L 19.242188 11.082031 L 19.484375 10.785156 L 19.605469 10.722656 L 19.902344 10.425781 L 21.285156 11.804688 L 20.984375 12.105469 L 21.042969 12.042969 L 20.804688 12.34375 L 20.863281 12.222656 L 20.625 12.582031 L 20.683594 12.523438 L 20.445312 12.945312 L 20.445312 12.882812 L 20.265625 13.304688 L 20.324219 13.242188 L 20.144531 13.722656 L 20.144531 13.664062 L 19.964844 14.203125 L 19.964844 14.144531 L 19.84375 14.683594 L 19.84375 14.742188 L 19.664062 15.34375 L 19.722656 15.164062 L 19.664062 15.765625 L 19.664062 15.824219 L 19.542969 16.542969 L 19.542969 16.363281 L 19.542969 17.203125 L 19.484375 17.984375 L 19.484375 17.863281 L 19.484375 18.703125 C 19.34375 24.484375 18.300781 28.601562 11.804688 28.902344 L 10.84375 28.902344 L 10.902344 28.902344 L 8.863281 28.964844 "/>
<path style=" stroke:none;fill-rule:nonzero;fill:rgb(100%,100%,100%);fill-opacity:1;" d="M 19.902344 10.425781 L 20.203125 10.125 L 20.265625 10.003906 L 20.5625 9.765625 L 20.742188 9.644531 L 21.824219 9.105469 L 21.945312 9.105469 L 22.304688 8.984375 L 22.363281 8.925781 L 23.203125 8.683594 L 23.324219 8.683594 L 23.742188 8.625 L 23.625 8.625 L 24.042969 8.503906 L 24.222656 8.503906 L 26.144531 8.382812 L 27.164062 8.324219 L 27.222656 8.324219 L 27.222656 10.304688 L 27.285156 10.304688 L 26.265625 10.363281 L 24.34375 10.484375 L 24.585938 10.425781 L 24.164062 10.542969 L 24.042969 10.605469 L 23.625 10.664062 L 23.742188 10.605469 L 22.902344 10.84375 L 22.542969 10.964844 L 22.722656 10.902344 L 21.644531 11.445312 L 21.824219 11.324219 L 21.523438 11.5625 L 21.585938 11.503906 L 21.285156 11.804688 "/>
<path style=" stroke:none;fill-rule:nonzero;fill:rgb(100%,100%,100%);fill-opacity:1;" d="M 27.222656 10.304688 L 29.265625 10.304688 L 29.265625 8.324219 L 27.222656 8.324219 Z M 27.222656 10.304688 "/>
</g>
</svg>
