<?xml version="1.0" encoding="UTF-8"?>
<svg xmlns="http://www.w3.org/2000/svg" xmlns:xlink="http://www.w3.org/1999/xlink" width="37.037pt" height="37.036pt" viewBox="0 0 37.037 37.036" version="1.1">
<defs>
<clipPath id="clip1">
  <path d="M 0 0 L 37.035156 0 L 37.035156 2 L 0 2 Z M 0 0 "/>
</clipPath>
<clipPath id="clip2">
  <path d="M 36 0 L 37.035156 0 L 37.035156 37.035156 L 36 37.035156 Z M 36 0 "/>
</clipPath>
<clipPath id="clip3">
  <path d="M 0 35 L 37 35 L 37 37.035156 L 0 37.035156 Z M 0 35 "/>
</clipPath>
<clipPath id="clip4">
  <path d="M 4.183594 4.070312 L 32.984375 4.070312 L 32.984375 32.867188 L 4.183594 32.867188 Z M 4.183594 4.070312 "/>
</clipPath>
<clipPath id="clip5">
  <path d="M 4.183594 4.070312 L 32.984375 4.070312 L 32.984375 5 L 4.183594 5 Z M 4.183594 4.070312 "/>
</clipPath>
<clipPath id="clip6">
  <path d="M 32 4.070312 L 32.984375 4.070312 L 32.984375 32.867188 L 32 32.867188 Z M 32 4.070312 "/>
</clipPath>
<clipPath id="clip7">
  <path d="M 4.183594 32 L 32.984375 32 L 32.984375 32.867188 L 4.183594 32.867188 Z M 4.183594 32 "/>
</clipPath>
<clipPath id="clip8">
  <path d="M 4.183594 4.070312 L 5 4.070312 L 5 32.867188 L 4.183594 32.867188 Z M 4.183594 4.070312 "/>
</clipPath>
</defs>
<g id="surface1">
<path style=" stroke:none;fill-rule:nonzero;fill:rgb(0%,0%,100%);fill-opacity:1;" d="M 0.523438 36.46875 L 36.523438 36.46875 L 36.523438 0.46875 L 0.523438 0.46875 Z M 0.523438 36.46875 "/>
<g clip-path="url(#clip1)" clip-rule="nonzero">
<path style=" stroke:none;fill-rule:nonzero;fill:rgb(0%,0%,100%);fill-opacity:1;" d="M 0.523438 1.007812 L 37.0625 1.007812 L 37.0625 -0.0117188 L 0.523438 -0.0117188 Z M 0.523438 1.007812 "/>
</g>
<g clip-path="url(#clip2)" clip-rule="nonzero">
<path style=" stroke:none;fill-rule:nonzero;fill:rgb(0%,0%,100%);fill-opacity:1;" d="M 36.042969 37.007812 L 37.0625 37.007812 L 37.0625 0.46875 L 36.042969 0.46875 Z M 36.042969 37.007812 "/>
</g>
<g clip-path="url(#clip3)" clip-rule="nonzero">
<path style=" stroke:none;fill-rule:nonzero;fill:rgb(0%,0%,100%);fill-opacity:1;" d="M 0.0429688 37.007812 L 36.523438 37.007812 L 36.523438 35.988281 L 0.0429688 35.988281 Z M 0.0429688 37.007812 "/>
</g>
<path style=" stroke:none;fill-rule:nonzero;fill:rgb(0%,0%,100%);fill-opacity:1;" d="M 0.0429688 36.46875 L 1.0625 36.46875 L 1.0625 -0.0117188 L 0.0429688 -0.0117188 Z M 0.0429688 36.46875 "/>
<g clip-path="url(#clip4)" clip-rule="nonzero">
<path style=" stroke:none;fill-rule:nonzero;fill:rgb(49.598694%,49.598694%,49.598694%);fill-opacity:1;" d="M 4.183594 32.867188 L 32.984375 32.867188 L 32.984375 4.070312 L 4.183594 4.070312 Z M 4.183594 32.867188 "/>
</g>
<g clip-path="url(#clip5)" clip-rule="nonzero">
<path style=" stroke:none;fill-rule:nonzero;fill:rgb(49.598694%,49.598694%,49.598694%);fill-opacity:1;" d="M 4.183594 4.609375 L 32.984375 4.609375 L 32.984375 4.039062 L 4.183594 4.039062 Z M 4.183594 4.609375 "/>
</g>
<g clip-path="url(#clip6)" clip-rule="nonzero">
<path style=" stroke:none;fill-rule:nonzero;fill:rgb(49.598694%,49.598694%,49.598694%);fill-opacity:1;" d="M 32.503906 32.898438 L 32.984375 32.898438 L 32.984375 4.070312 L 32.503906 4.070312 Z M 32.503906 32.898438 "/>
</g>
<g clip-path="url(#clip7)" clip-rule="nonzero">
<path style=" stroke:none;fill-rule:nonzero;fill:rgb(49.598694%,49.598694%,49.598694%);fill-opacity:1;" d="M 4.125 32.898438 L 32.984375 32.898438 L 32.984375 32.390625 L 4.125 32.390625 Z M 4.125 32.898438 "/>
</g>
<g clip-path="url(#clip8)" clip-rule="nonzero">
<path style=" stroke:none;fill-rule:nonzero;fill:rgb(49.598694%,49.598694%,49.598694%);fill-opacity:1;" d="M 4.125 32.867188 L 4.722656 32.867188 L 4.722656 4.039062 L 4.125 4.039062 Z M 4.125 32.867188 "/>
</g>
<path style=" stroke:none;fill-rule:nonzero;fill:rgb(0%,0%,100%);fill-opacity:1;" d="M 7.722656 29.269531 L 29.324219 29.269531 L 29.324219 7.667969 L 7.722656 7.667969 Z M 7.722656 29.269531 "/>
<path style=" stroke:none;fill-rule:nonzero;fill:rgb(0%,0%,100%);fill-opacity:1;" d="M 7.722656 8.210938 L 29.863281 8.210938 L 29.863281 7.1875 L 7.722656 7.1875 Z M 7.722656 8.210938 "/>
<path style=" stroke:none;fill-rule:nonzero;fill:rgb(0%,0%,100%);fill-opacity:1;" d="M 28.84375 29.808594 L 29.863281 29.808594 L 29.863281 7.667969 L 28.84375 7.667969 Z M 28.84375 29.808594 "/>
<path style=" stroke:none;fill-rule:nonzero;fill:rgb(0%,0%,100%);fill-opacity:1;" d="M 7.242188 29.808594 L 29.324219 29.808594 L 29.324219 28.789062 L 7.242188 28.789062 Z M 7.242188 29.808594 "/>
<path style=" stroke:none;fill-rule:nonzero;fill:rgb(0%,0%,100%);fill-opacity:1;" d="M 7.242188 29.269531 L 8.265625 29.269531 L 8.265625 7.1875 L 7.242188 7.1875 Z M 7.242188 29.269531 "/>
<path style=" stroke:none;fill-rule:nonzero;fill:rgb(100%,100%,100%);fill-opacity:1;" d="M 23.203125 23.269531 L 28.605469 23.269531 L 28.605469 21.109375 L 23.203125 21.109375 Z M 23.203125 23.269531 "/>
<path style=" stroke:none;fill-rule:nonzero;fill:rgb(100%,100%,100%);fill-opacity:1;" d="M 23.203125 21.347656 L 28.84375 21.347656 L 28.84375 20.867188 L 23.203125 20.867188 Z M 23.203125 21.347656 "/>
<path style=" stroke:none;fill-rule:nonzero;fill:rgb(100%,100%,100%);fill-opacity:1;" d="M 28.363281 23.507812 L 28.84375 23.507812 L 28.84375 21.109375 L 28.363281 21.109375 Z M 28.363281 23.507812 "/>
<path style=" stroke:none;fill-rule:nonzero;fill:rgb(100%,100%,100%);fill-opacity:1;" d="M 22.964844 23.507812 L 28.605469 23.507812 L 28.605469 23.027344 L 22.964844 23.027344 Z M 22.964844 23.507812 "/>
<path style=" stroke:none;fill-rule:nonzero;fill:rgb(100%,100%,100%);fill-opacity:1;" d="M 22.964844 23.269531 L 23.445312 23.269531 L 23.445312 20.867188 L 22.964844 20.867188 Z M 22.964844 23.269531 "/>
<path style=" stroke:none;fill-rule:evenodd;fill:rgb(100%,100%,100%);fill-opacity:1;" d="M 24.285156 22.1875 L 24.222656 21.589844 L 24.042969 20.929688 C 22.738281 18.054688 18.597656 18.457031 17.863281 21.589844 L 17.804688 22.1875 L 17.863281 22.847656 C 18.648438 26.136719 22.992188 26.230469 24.042969 23.449219 L 24.222656 22.847656 L 24.285156 22.1875 "/>
<path style=" stroke:none;fill-rule:nonzero;fill:rgb(100%,100%,100%);fill-opacity:1;" d="M 24.042969 22.25 L 23.984375 21.648438 L 23.804688 20.988281 L 23.863281 21.050781 L 23.5625 20.507812 L 23.5625 20.570312 L 23.203125 20.089844 L 23.265625 20.089844 L 22.785156 19.730469 L 22.785156 19.789062 L 22.183594 19.488281 L 22.242188 19.488281 L 21.644531 19.308594 L 21.703125 19.308594 L 21.042969 19.1875 L 21.105469 19.1875 L 20.503906 19.308594 L 19.84375 19.488281 L 19.902344 19.488281 L 19.363281 19.789062 L 19.425781 19.730469 L 18.945312 20.089844 L 18.582031 20.570312 L 18.644531 20.507812 L 18.34375 21.050781 L 18.105469 21.710938 L 18.105469 21.648438 L 18.042969 22.25 L 18.042969 22.1875 L 18.105469 22.847656 L 18.105469 22.789062 L 18.34375 23.390625 L 18.34375 23.328125 L 18.644531 23.929688 L 18.582031 23.929688 L 18.945312 24.410156 L 18.945312 24.347656 L 19.425781 24.710938 L 19.363281 24.710938 L 19.902344 25.007812 L 19.84375 24.949219 L 20.503906 25.128906 L 21.105469 25.1875 L 21.042969 25.1875 L 21.703125 25.128906 L 21.644531 25.128906 L 22.242188 24.949219 L 22.183594 25.007812 L 22.785156 24.710938 L 23.265625 24.347656 L 23.203125 24.410156 L 23.5625 23.929688 L 23.863281 23.328125 L 23.804688 23.390625 L 23.984375 22.789062 L 23.984375 22.847656 L 24.042969 22.1875 L 24.523438 22.25 L 24.464844 22.910156 L 24.285156 23.507812 L 24.285156 23.570312 L 23.984375 24.167969 L 23.925781 24.230469 L 23.5625 24.710938 L 23.082031 25.070312 L 23.023438 25.128906 L 22.425781 25.429688 L 22.363281 25.429688 C 21.546875 25.777344 20.550781 25.722656 19.722656 25.429688 L 19.664062 25.429688 L 19.125 25.128906 L 19.125 25.070312 L 18.644531 24.710938 L 18.582031 24.710938 C 17.496094 23.207031 17.117188 21.882812 18.222656 20.269531 L 18.582031 19.789062 L 18.644531 19.730469 L 19.125 19.367188 L 19.664062 19.070312 L 19.722656 19.007812 L 20.382812 18.828125 L 20.984375 18.710938 L 21.105469 18.710938 L 21.765625 18.828125 C 22.335938 18.960938 23.121094 19.34375 23.5625 19.730469 L 23.5625 19.789062 L 23.925781 20.269531 L 23.984375 20.269531 L 24.285156 20.808594 L 24.285156 20.867188 L 24.464844 21.527344 L 24.464844 21.589844 L 24.523438 22.1875 "/>
<path style=" stroke:none;fill-rule:nonzero;fill:rgb(100%,100%,100%);fill-opacity:1;" d="M 24.042969 22.1875 L 24.042969 22.25 L 24.523438 22.1875 L 24.523438 22.25 "/>
<path style=" stroke:none;fill-rule:evenodd;fill:rgb(100%,100%,100%);fill-opacity:1;" d="M 17.804688 17.390625 L 17.863281 16.550781 C 18.136719 15.21875 18.972656 13.484375 20.445312 13.1875 L 21.042969 13.070312 L 21.042969 17.390625 L 17.804688 17.390625 "/>
<path style=" stroke:none;fill-rule:nonzero;fill:rgb(100%,100%,100%);fill-opacity:1;" d="M 17.5625 17.390625 L 17.5625 17.628906 L 18.042969 17.6875 L 18.042969 17.449219 "/>
<path style=" stroke:none;fill-rule:nonzero;fill:rgb(100%,100%,100%);fill-opacity:1;" d="M 17.5625 17.390625 L 17.625 16.550781 L 17.625 16.488281 L 17.863281 15.648438 L 17.925781 15.648438 L 18.222656 14.929688 L 18.222656 14.867188 L 18.585938 14.269531 L 19.0625 13.730469 L 19.125 13.667969 L 19.664062 13.25 L 19.722656 13.1875 L 19.902344 13.667969 L 19.964844 13.609375 L 19.425781 14.027344 L 18.945312 14.570312 L 19.003906 14.507812 L 18.644531 15.109375 L 18.34375 15.828125 L 18.34375 15.769531 L 18.105469 16.609375 L 18.042969 17.449219 "/>
<path style=" stroke:none;fill-rule:nonzero;fill:rgb(100%,100%,100%);fill-opacity:1;" d="M 19.722656 13.1875 L 20.382812 12.949219 L 20.503906 13.429688 L 20.5625 13.429688 L 19.902344 13.667969 "/>
<path style=" stroke:none;fill-rule:nonzero;fill:rgb(100%,100%,100%);fill-opacity:1;" d="M 20.984375 12.828125 L 21.222656 12.769531 L 21.34375 13.25 L 21.105469 13.308594 "/>
<path style=" stroke:none;fill-rule:nonzero;fill:rgb(100%,100%,100%);fill-opacity:1;" d="M 20.382812 12.949219 L 20.503906 13.429688 L 21.105469 13.308594 L 20.984375 12.828125 "/>
<path style=" stroke:none;fill-rule:evenodd;fill:rgb(100%,100%,100%);fill-opacity:1;" d="M 21.042969 13.070312 L 21.703125 13.1875 C 23.175781 13.574219 24.046875 15.136719 24.222656 16.550781 L 24.285156 17.390625 L 21.042969 17.390625 L 21.042969 13.070312 "/>
<path style=" stroke:none;fill-rule:nonzero;fill:rgb(100%,100%,100%);fill-opacity:1;" d="M 21.105469 12.828125 L 20.863281 12.828125 L 20.804688 13.308594 L 21.042969 13.308594 "/>
<path style=" stroke:none;fill-rule:nonzero;fill:rgb(100%,100%,100%);fill-opacity:1;" d="M 21.105469 12.828125 L 21.765625 12.949219 L 21.824219 13.007812 L 22.425781 13.25 L 22.484375 13.25 L 23.082031 13.667969 L 23.082031 13.730469 L 23.5625 14.269531 L 23.625 14.269531 L 23.984375 14.867188 L 23.984375 14.929688 L 24.285156 15.648438 L 23.804688 15.769531 L 23.863281 15.828125 L 23.5625 15.109375 L 23.203125 14.507812 L 23.203125 14.570312 L 22.722656 14.027344 L 22.785156 14.089844 L 22.183594 13.667969 L 22.242188 13.667969 L 21.644531 13.429688 L 21.703125 13.429688 L 21.042969 13.308594 "/>
<path style=" stroke:none;fill-rule:nonzero;fill:rgb(100%,100%,100%);fill-opacity:1;" d="M 24.285156 15.648438 L 24.464844 16.488281 L 24.464844 16.550781 L 23.984375 16.609375 L 23.804688 15.769531 "/>
<path style=" stroke:none;fill-rule:nonzero;fill:rgb(100%,100%,100%);fill-opacity:1;" d="M 24.523438 17.390625 L 24.523438 17.628906 L 24.042969 17.6875 L 24.042969 17.449219 "/>
<path style=" stroke:none;fill-rule:nonzero;fill:rgb(100%,100%,100%);fill-opacity:1;" d="M 24.464844 16.550781 L 23.984375 16.609375 L 24.042969 17.449219 L 24.523438 17.390625 "/>
<path style=" stroke:none;fill-rule:nonzero;fill:rgb(100%,100%,100%);fill-opacity:1;" d="M 17.5625 17.628906 L 17.804688 17.628906 L 17.804688 17.148438 L 17.5625 17.148438 Z M 17.5625 17.628906 "/>
<path style=" stroke:none;fill-rule:nonzero;fill:rgb(100%,100%,100%);fill-opacity:1;" d="M 17.804688 17.628906 L 24.523438 17.628906 L 24.523438 17.148438 L 17.804688 17.148438 Z M 17.804688 17.628906 "/>
<path style=" stroke:none;fill-rule:nonzero;fill:rgb(100%,100%,100%);fill-opacity:1;" d="M 19.964844 16.308594 L 22.125 16.308594 L 22.125 9.828125 L 19.964844 9.828125 Z M 19.964844 16.308594 "/>
<path style=" stroke:none;fill-rule:nonzero;fill:rgb(100%,100%,100%);fill-opacity:1;" d="M 19.964844 10.070312 L 22.363281 10.070312 L 22.363281 9.589844 L 19.964844 9.589844 Z M 19.964844 10.070312 "/>
<path style=" stroke:none;fill-rule:nonzero;fill:rgb(100%,100%,100%);fill-opacity:1;" d="M 21.882812 16.550781 L 22.363281 16.550781 L 22.363281 9.828125 L 21.882812 9.828125 Z M 21.882812 16.550781 "/>
<path style=" stroke:none;fill-rule:nonzero;fill:rgb(100%,100%,100%);fill-opacity:1;" d="M 19.722656 16.550781 L 22.125 16.550781 L 22.125 16.070312 L 19.722656 16.070312 Z M 19.722656 16.550781 "/>
<path style=" stroke:none;fill-rule:nonzero;fill:rgb(100%,100%,100%);fill-opacity:1;" d="M 19.722656 16.308594 L 20.203125 16.308594 L 20.203125 9.589844 L 19.722656 9.589844 Z M 19.722656 16.308594 "/>
<path style=" stroke:none;fill-rule:evenodd;fill:rgb(100%,100%,100%);fill-opacity:1;" d="M 11.683594 22.1875 L 11.804688 21.589844 C 12.15625 20.078125 13.742188 19.261719 15.164062 19.070312 L 16.003906 18.949219 L 16.003906 22.1875 L 11.683594 22.1875 "/>
<path style=" stroke:none;fill-rule:nonzero;fill:rgb(100%,100%,100%);fill-opacity:1;" d="M 11.445312 22.128906 L 11.382812 22.367188 L 11.863281 22.488281 L 11.925781 22.25 "/>
<path style=" stroke:none;fill-rule:nonzero;fill:rgb(100%,100%,100%);fill-opacity:1;" d="M 11.445312 22.128906 L 11.5625 21.527344 L 11.804688 20.867188 L 11.863281 20.808594 L 12.285156 20.269531 L 12.285156 20.210938 L 12.765625 19.730469 L 12.824219 19.730469 L 13.484375 19.367188 L 13.542969 19.367188 L 14.265625 19.070312 L 14.265625 19.007812 L 14.382812 19.488281 L 14.445312 19.488281 L 13.722656 19.789062 L 13.0625 20.148438 L 13.125 20.089844 L 12.644531 20.570312 L 12.222656 21.109375 L 12.285156 21.050781 L 12.042969 21.710938 L 12.042969 21.648438 L 11.925781 22.25 "/>
<path style=" stroke:none;fill-rule:nonzero;fill:rgb(100%,100%,100%);fill-opacity:1;" d="M 14.265625 19.007812 L 15.105469 18.828125 L 15.164062 18.828125 L 15.222656 19.308594 L 14.382812 19.488281 "/>
<path style=" stroke:none;fill-rule:nonzero;fill:rgb(100%,100%,100%);fill-opacity:1;" d="M 16.003906 18.710938 L 16.242188 18.710938 L 16.304688 19.1875 L 16.0625 19.1875 "/>
<path style=" stroke:none;fill-rule:nonzero;fill:rgb(100%,100%,100%);fill-opacity:1;" d="M 15.164062 18.828125 L 15.222656 19.308594 L 16.0625 19.1875 L 16.003906 18.710938 "/>
<path style=" stroke:none;fill-rule:evenodd;fill:rgb(100%,100%,100%);fill-opacity:1;" d="M 16.003906 25.429688 L 15.164062 25.367188 C 13.625 25.121094 12.28125 24.4375 11.804688 22.847656 L 11.683594 22.1875 L 16.003906 22.1875 L 16.003906 25.429688 "/>
<path style=" stroke:none;fill-rule:nonzero;fill:rgb(100%,100%,100%);fill-opacity:1;" d="M 16.003906 25.667969 L 16.242188 25.667969 L 16.304688 25.1875 L 16.0625 25.1875 "/>
<path style=" stroke:none;fill-rule:nonzero;fill:rgb(100%,100%,100%);fill-opacity:1;" d="M 16.003906 25.667969 L 15.164062 25.609375 C 13.871094 25.421875 12.484375 24.878906 11.863281 23.628906 L 11.863281 23.570312 L 12.285156 23.390625 L 12.285156 23.328125 L 12.703125 23.929688 L 12.644531 23.867188 L 13.125 24.347656 L 13.0625 24.347656 L 13.722656 24.707031 L 14.445312 25.007812 L 14.382812 24.949219 L 15.222656 25.128906 L 16.0625 25.1875 "/>
<path style=" stroke:none;fill-rule:nonzero;fill:rgb(100%,100%,100%);fill-opacity:1;" d="M 11.863281 23.570312 L 11.625 22.96875 L 11.5625 22.910156 L 12.042969 22.847656 L 12.042969 22.789062 L 12.285156 23.390625 "/>
<path style=" stroke:none;fill-rule:nonzero;fill:rgb(100%,100%,100%);fill-opacity:1;" d="M 11.445312 22.25 L 11.445312 22.007812 L 11.925781 21.949219 L 11.925781 22.1875 "/>
<path style=" stroke:none;fill-rule:nonzero;fill:rgb(100%,100%,100%);fill-opacity:1;" d="M 11.5625 22.910156 L 12.042969 22.847656 L 11.925781 22.1875 L 11.445312 22.25 "/>
<path style=" stroke:none;fill-rule:nonzero;fill:rgb(100%,100%,100%);fill-opacity:1;" d="M 15.765625 18.949219 L 16.242188 18.949219 L 16.242188 18.710938 L 15.765625 18.710938 Z M 15.765625 18.949219 "/>
<path style=" stroke:none;fill-rule:nonzero;fill:rgb(100%,100%,100%);fill-opacity:1;" d="M 15.765625 25.667969 L 16.242188 25.667969 L 16.242188 18.949219 L 15.765625 18.949219 Z M 15.765625 25.667969 "/>
<path style=" stroke:none;fill-rule:nonzero;fill:rgb(100%,100%,100%);fill-opacity:1;" d="M 8.445312 23.269531 L 14.925781 23.269531 L 14.925781 21.109375 L 8.445312 21.109375 Z M 8.445312 23.269531 "/>
<path style=" stroke:none;fill-rule:nonzero;fill:rgb(100%,100%,100%);fill-opacity:1;" d="M 8.445312 21.347656 L 15.164062 21.347656 L 15.164062 20.867188 L 8.445312 20.867188 Z M 8.445312 21.347656 "/>
<path style=" stroke:none;fill-rule:nonzero;fill:rgb(100%,100%,100%);fill-opacity:1;" d="M 14.683594 23.507812 L 15.164062 23.507812 L 15.164062 21.109375 L 14.683594 21.109375 Z M 14.683594 23.507812 "/>
<path style=" stroke:none;fill-rule:nonzero;fill:rgb(100%,100%,100%);fill-opacity:1;" d="M 8.203125 23.507812 L 14.925781 23.507812 L 14.925781 23.027344 L 8.203125 23.027344 Z M 8.203125 23.507812 "/>
<path style=" stroke:none;fill-rule:nonzero;fill:rgb(100%,100%,100%);fill-opacity:1;" d="M 8.203125 23.269531 L 8.683594 23.269531 L 8.683594 20.867188 L 8.203125 20.867188 Z M 8.203125 23.269531 "/>
</g>
</svg>
