<?xml version="1.0" encoding="UTF-8"?>
<svg xmlns="http://www.w3.org/2000/svg" xmlns:xlink="http://www.w3.org/1999/xlink" width="38.291pt" height="38.128pt" viewBox="0 0 38.291 38.128" version="1.1">
<defs>
<clipPath id="clip1">
  <path d="M 0.0546875 0.0546875 L 38.09375 0.0546875 L 38.09375 38.035156 L 0.0546875 38.035156 Z M 0.0546875 0.0546875 "/>
</clipPath>
<clipPath id="clip2">
  <path d="M 0.0546875 0.0546875 L 38.09375 0.0546875 L 38.09375 1 L 0.0546875 1 Z M 0.0546875 0.0546875 "/>
</clipPath>
<clipPath id="clip3">
  <path d="M 37 0.0546875 L 38.09375 0.0546875 L 38.09375 38.035156 L 37 38.035156 Z M 37 0.0546875 "/>
</clipPath>
<clipPath id="clip4">
  <path d="M 0.0546875 37 L 38.09375 37 L 38.09375 38.035156 L 0.0546875 38.035156 Z M 0.0546875 37 "/>
</clipPath>
<clipPath id="clip5">
  <path d="M 0.0546875 0.0546875 L 1 0.0546875 L 1 38.035156 L 0.0546875 38.035156 Z M 0.0546875 0.0546875 "/>
</clipPath>
<clipPath id="clip6">
  <path d="M 4.914062 5.15625 L 33.714844 5.15625 L 33.714844 33.953125 L 4.914062 33.953125 Z M 4.914062 5.15625 "/>
</clipPath>
<clipPath id="clip7">
  <path d="M 4.914062 5.15625 L 33.714844 5.15625 L 33.714844 6 L 4.914062 6 Z M 4.914062 5.15625 "/>
</clipPath>
<clipPath id="clip8">
  <path d="M 33 5.15625 L 33.714844 5.15625 L 33.714844 33.953125 L 33 33.953125 Z M 33 5.15625 "/>
</clipPath>
<clipPath id="clip9">
  <path d="M 4.914062 33 L 33.714844 33 L 33.714844 33.953125 L 4.914062 33.953125 Z M 4.914062 33 "/>
</clipPath>
<clipPath id="clip10">
  <path d="M 4.914062 5.15625 L 6 5.15625 L 6 33.953125 L 4.914062 33.953125 Z M 4.914062 5.15625 "/>
</clipPath>
</defs>
<g id="surface1">
<g clip-path="url(#clip1)" clip-rule="nonzero">
<path style=" stroke:none;fill-rule:nonzero;fill:rgb(0%,0%,100%);fill-opacity:1;" d="M 0.0546875 38.035156 L 38.09375 38.035156 L 38.09375 0.0546875 L 0.0546875 0.0546875 Z M 0.0546875 38.035156 "/>
</g>
<g clip-path="url(#clip2)" clip-rule="nonzero">
<path style=" stroke:none;fill-rule:nonzero;fill:rgb(0%,0%,100%);fill-opacity:1;" d="M 0.0546875 0.59375 L 38.09375 0.59375 L 38.09375 0.0234375 L 0.0546875 0.0234375 Z M 0.0546875 0.59375 "/>
</g>
<g clip-path="url(#clip3)" clip-rule="nonzero">
<path style=" stroke:none;fill-rule:nonzero;fill:rgb(0%,0%,100%);fill-opacity:1;" d="M 37.613281 38.066406 L 38.09375 38.066406 L 38.09375 0.0546875 L 37.613281 0.0546875 Z M 37.613281 38.066406 "/>
</g>
<g clip-path="url(#clip4)" clip-rule="nonzero">
<path style=" stroke:none;fill-rule:nonzero;fill:rgb(0%,0%,100%);fill-opacity:1;" d="M -0.0078125 38.066406 L 38.09375 38.066406 L 38.09375 37.554688 L -0.0078125 37.554688 Z M -0.0078125 38.066406 "/>
</g>
<g clip-path="url(#clip5)" clip-rule="nonzero">
<path style=" stroke:none;fill-rule:nonzero;fill:rgb(0%,0%,100%);fill-opacity:1;" d="M -0.0078125 38.035156 L 0.59375 38.035156 L 0.59375 0.0234375 L -0.0078125 0.0234375 Z M -0.0078125 38.035156 "/>
</g>
<g clip-path="url(#clip6)" clip-rule="nonzero">
<path style=" stroke:none;fill-rule:nonzero;fill:rgb(49.598694%,49.598694%,49.598694%);fill-opacity:1;" d="M 4.914062 33.953125 L 33.714844 33.953125 L 33.714844 5.15625 L 4.914062 5.15625 Z M 4.914062 33.953125 "/>
</g>
<g clip-path="url(#clip7)" clip-rule="nonzero">
<path style=" stroke:none;fill-rule:nonzero;fill:rgb(49.598694%,49.598694%,49.598694%);fill-opacity:1;" d="M 4.914062 5.695312 L 33.714844 5.695312 L 33.714844 5.125 L 4.914062 5.125 Z M 4.914062 5.695312 "/>
</g>
<g clip-path="url(#clip8)" clip-rule="nonzero">
<path style=" stroke:none;fill-rule:nonzero;fill:rgb(49.598694%,49.598694%,49.598694%);fill-opacity:1;" d="M 33.234375 33.984375 L 33.714844 33.984375 L 33.714844 5.15625 L 33.234375 5.15625 Z M 33.234375 33.984375 "/>
</g>
<g clip-path="url(#clip9)" clip-rule="nonzero">
<path style=" stroke:none;fill-rule:nonzero;fill:rgb(49.598694%,49.598694%,49.598694%);fill-opacity:1;" d="M 4.855469 33.984375 L 33.714844 33.984375 L 33.714844 33.476562 L 4.855469 33.476562 Z M 4.855469 33.984375 "/>
</g>
<g clip-path="url(#clip10)" clip-rule="nonzero">
<path style=" stroke:none;fill-rule:nonzero;fill:rgb(49.598694%,49.598694%,49.598694%);fill-opacity:1;" d="M 4.855469 33.953125 L 5.453125 33.953125 L 5.453125 5.125 L 4.855469 5.125 Z M 4.855469 33.953125 "/>
</g>
<path style=" stroke:none;fill-rule:nonzero;fill:rgb(0%,0%,100%);fill-opacity:1;" d="M 8.515625 30.355469 L 30.113281 30.355469 L 30.113281 8.753906 L 8.515625 8.753906 Z M 8.515625 30.355469 "/>
<path style=" stroke:none;fill-rule:nonzero;fill:rgb(0%,0%,100%);fill-opacity:1;" d="M 8.515625 9.296875 L 30.652344 9.296875 L 30.652344 8.273438 L 8.515625 8.273438 Z M 8.515625 9.296875 "/>
<path style=" stroke:none;fill-rule:nonzero;fill:rgb(0%,0%,100%);fill-opacity:1;" d="M 29.632812 30.894531 L 30.652344 30.894531 L 30.652344 8.753906 L 29.632812 8.753906 Z M 29.632812 30.894531 "/>
<path style=" stroke:none;fill-rule:nonzero;fill:rgb(0%,0%,100%);fill-opacity:1;" d="M 8.035156 30.894531 L 30.113281 30.894531 L 30.113281 29.875 L 8.035156 29.875 Z M 8.035156 30.894531 "/>
<path style=" stroke:none;fill-rule:nonzero;fill:rgb(0%,0%,100%);fill-opacity:1;" d="M 8.035156 30.355469 L 9.054688 30.355469 L 9.054688 8.273438 L 8.035156 8.273438 Z M 8.035156 30.355469 "/>
<path style=" stroke:none;fill-rule:nonzero;fill:rgb(100%,100%,100%);fill-opacity:1;" d="M 9.175781 26.035156 L 8.214844 26.273438 L 8.695312 28.195312 L 9.652344 27.953125 "/>
<path style=" stroke:none;fill-rule:nonzero;fill:rgb(100%,100%,100%);fill-opacity:1;" d="M 9.175781 26.035156 L 9.414062 25.976562 L 9.894531 25.976562 L 9.652344 25.976562 L 9.894531 25.914062 L 10.132812 25.855469 L 9.953125 25.914062 L 10.195312 25.796875 L 10.074219 25.914062 L 10.433594 25.675781 L 10.554688 25.554688 L 10.792969 25.433594 L 10.554688 25.675781 L 10.734375 25.496094 L 10.613281 25.613281 L 10.734375 25.433594 L 10.855469 25.316406 L 11.035156 25.136719 L 10.914062 25.195312 L 11.09375 24.953125 L 11.09375 25.015625 L 11.214844 24.835938 L 11.09375 24.953125 L 11.214844 24.714844 L 11.273438 24.65625 L 11.574219 24.113281 L 11.515625 24.234375 L 11.753906 23.695312 L 11.695312 23.816406 L 11.875 23.214844 L 11.933594 23.09375 L 12.175781 22.496094 L 12.113281 22.613281 L 12.292969 21.953125 L 12.652344 20.574219 L 12.652344 20.636719 L 12.953125 19.195312 L 12.953125 19.136719 L 13.3125 17.753906 L 13.492188 17.035156 L 13.554688 16.976562 L 13.792969 16.316406 L 13.734375 16.375 L 13.914062 15.714844 L 13.972656 15.59375 L 14.214844 14.996094 L 14.214844 14.933594 L 14.515625 14.335938 L 14.515625 14.394531 L 14.753906 13.796875 L 14.875 13.554688 L 15.234375 13.074219 L 15.113281 13.253906 L 15.234375 13.015625 L 15.355469 12.835938 L 15.535156 12.59375 L 15.714844 12.414062 L 15.953125 12.234375 L 15.894531 12.355469 L 16.074219 12.175781 C 16.53125 11.617188 17.203125 11.148438 17.933594 11.035156 L 18.234375 10.976562 L 18.59375 12.894531 L 18.292969 12.953125 L 18.355469 12.953125 L 18.113281 13.015625 L 18.355469 12.953125 L 17.875 13.195312 L 17.992188 13.074219 L 17.515625 13.433594 L 17.632812 13.375 L 17.273438 13.734375 L 17.152344 13.796875 L 16.914062 13.976562 L 17.09375 13.796875 L 16.914062 14.035156 L 17.035156 13.914062 L 16.914062 14.15625 L 16.792969 14.273438 L 16.433594 14.753906 L 16.613281 14.515625 L 16.375 15.113281 L 16.015625 15.835938 L 16.074219 15.714844 L 15.835938 16.316406 L 15.835938 16.253906 L 15.652344 16.914062 L 15.652344 16.976562 L 15.414062 17.636719 L 15.414062 17.515625 L 15.234375 18.234375 L 14.875 19.613281 L 14.574219 21.054688 L 14.214844 22.433594 L 14.214844 22.496094 L 14.035156 23.15625 L 14.035156 23.214844 L 13.792969 23.816406 L 13.792969 23.753906 L 13.613281 24.355469 C 13.222656 25.308594 12.996094 25.722656 12.414062 26.515625 L 12.234375 26.695312 L 12.355469 26.515625 L 12.113281 26.875 L 11.933594 27.054688 L 11.695312 27.234375 L 11.453125 27.355469 L 11.515625 27.296875 L 11.335938 27.414062 C 10.9375 27.78125 10.390625 27.8125 9.894531 27.953125 L 9.652344 27.953125 L 9.894531 27.894531 L 9.652344 27.953125 "/>
<path style=" stroke:none;fill-rule:nonzero;fill:rgb(100%,100%,100%);fill-opacity:1;" d="M 18.234375 10.976562 L 18.535156 10.914062 C 20.066406 10.699219 21.761719 11.023438 22.855469 12.175781 L 23.035156 12.355469 L 22.914062 12.234375 L 23.152344 12.414062 L 23.335938 12.59375 L 23.695312 13.074219 L 23.8125 13.253906 L 23.933594 13.496094 L 23.8125 13.316406 L 23.992188 13.554688 C 25.507812 15.984375 25.769531 19.296875 26.453125 22.015625 L 26.574219 22.675781 L 26.574219 22.613281 L 26.933594 23.816406 L 26.875 23.695312 L 27.355469 24.773438 L 27.355469 24.714844 L 27.472656 24.953125 L 27.292969 24.714844 L 27.472656 24.894531 L 27.652344 25.136719 L 27.773438 25.375 L 27.59375 25.136719 L 27.773438 25.316406 L 27.894531 25.433594 L 28.015625 25.613281 L 27.894531 25.496094 L 28.074219 25.675781 L 27.894531 25.554688 L 28.074219 25.675781 L 28.015625 25.554688 L 28.253906 25.675781 L 28.3125 25.796875 L 27.234375 27.414062 L 27.355469 27.476562 L 27.113281 27.355469 C 26.882812 27.273438 26.5 26.90625 26.394531 26.695312 L 26.273438 26.515625 L 26.394531 26.695312 L 25.972656 26.273438 L 25.855469 26.035156 L 26.09375 26.273438 L 25.675781 25.855469 L 25.554688 25.613281 L 25.554688 25.554688 L 25.074219 24.476562 L 25.015625 24.355469 L 24.652344 23.15625 L 24.652344 23.035156 L 24.535156 22.375 L 24.535156 22.433594 L 24.234375 21.054688 L 23.933594 19.613281 L 23.632812 18.234375 L 23.453125 17.515625 L 23.453125 17.574219 L 23.273438 16.914062 L 23.335938 16.976562 L 23.09375 16.316406 L 22.613281 15.113281 L 22.613281 15.234375 L 22.3125 14.636719 L 22.433594 14.753906 L 22.253906 14.515625 L 22.132812 14.394531 L 22.015625 14.15625 L 22.132812 14.273438 L 21.773438 13.796875 L 21.953125 13.976562 L 21.714844 13.796875 L 21.472656 13.554688 L 21.535156 13.613281 L 20.8125 13.074219 L 20.992188 13.195312 L 20.753906 13.074219 L 20.8125 13.136719 L 20.515625 13.015625 L 20.632812 13.015625 L 20.394531 12.953125 L 20.453125 12.953125 L 20.152344 12.894531 L 20.214844 12.953125 L 19.855469 12.894531 L 19.792969 12.835938 L 19.492188 12.773438 L 19.675781 12.835938 L 19.015625 12.835938 L 19.195312 12.773438 L 18.59375 12.894531 "/>
<path style=" stroke:none;fill-rule:nonzero;fill:rgb(100%,100%,100%);fill-opacity:1;" d="M 28.3125 25.796875 L 28.492188 25.914062 L 28.433594 25.796875 L 28.675781 25.914062 L 28.433594 25.855469 L 28.675781 25.914062 L 28.914062 25.976562 L 28.675781 25.976562 L 29.152344 25.976562 L 28.675781 27.894531 L 28.914062 27.953125 L 28.675781 27.953125 C 28.15625 27.8125 27.890625 27.8125 27.414062 27.535156 L 27.234375 27.414062 "/>
<path style=" stroke:none;fill-rule:nonzero;fill:rgb(100%,100%,100%);fill-opacity:1;" d="M 29.394531 26.035156 L 30.355469 26.273438 L 29.875 28.195312 L 28.914062 27.953125 "/>
<path style=" stroke:none;fill-rule:nonzero;fill:rgb(100%,100%,100%);fill-opacity:1;" d="M 29.152344 25.976562 L 28.675781 27.894531 L 28.914062 27.953125 L 29.394531 26.035156 "/>
<path style=" stroke:none;fill-rule:nonzero;fill:rgb(80.099487%,80.099487%,80.099487%);fill-opacity:1;" d="M 8.335938 27.535156 L 8.8125 27.535156 L 8.8125 26.515625 L 8.335938 26.515625 Z M 8.335938 27.535156 "/>
<path style=" stroke:none;fill-rule:nonzero;fill:rgb(80.099487%,80.099487%,80.099487%);fill-opacity:1;" d="M 29.753906 27.59375 L 30.234375 27.59375 L 30.234375 26.574219 L 29.753906 26.574219 Z M 29.753906 27.59375 "/>
<path style=" stroke:none;fill-rule:nonzero;fill:rgb(80.099487%,80.099487%,80.099487%);fill-opacity:1;" d="M 8.8125 26.515625 L 8.8125 27.535156 L 29.753906 27.59375 L 29.753906 26.574219 "/>
</g>
</svg>
