<?xml version="1.0" encoding="UTF-8"?>
<svg xmlns="http://www.w3.org/2000/svg" xmlns:xlink="http://www.w3.org/1999/xlink" width="36.982pt" height="37.091pt" viewBox="0 0 36.982 37.091" version="1.1">
<defs>
<clipPath id="clip1">
  <path d="M 0 0 L 36.980469 0 L 36.980469 37 L 0 37 Z M 0 0 "/>
</clipPath>
<clipPath id="clip2">
  <path d="M 0 0 L 36.980469 0 L 36.980469 2 L 0 2 Z M 0 0 "/>
</clipPath>
<clipPath id="clip3">
  <path d="M 35 0 L 36.980469 0 L 36.980469 37.089844 L 35 37.089844 Z M 35 0 "/>
</clipPath>
<clipPath id="clip4">
  <path d="M 0 36 L 36.980469 36 L 36.980469 37.089844 L 0 37.089844 Z M 0 36 "/>
</clipPath>
<clipPath id="clip5">
  <path d="M 4.128906 4.113281 L 32.929688 4.113281 L 32.929688 32.914062 L 4.128906 32.914062 Z M 4.128906 4.113281 "/>
</clipPath>
<clipPath id="clip6">
  <path d="M 4.128906 4.113281 L 32.929688 4.113281 L 32.929688 5 L 4.128906 5 Z M 4.128906 4.113281 "/>
</clipPath>
<clipPath id="clip7">
  <path d="M 32 4.113281 L 32.929688 4.113281 L 32.929688 32.914062 L 32 32.914062 Z M 32 4.113281 "/>
</clipPath>
<clipPath id="clip8">
  <path d="M 4.128906 32 L 32.929688 32 L 32.929688 32.914062 L 4.128906 32.914062 Z M 4.128906 32 "/>
</clipPath>
<clipPath id="clip9">
  <path d="M 4.128906 4.113281 L 5 4.113281 L 5 32.914062 L 4.128906 32.914062 Z M 4.128906 4.113281 "/>
</clipPath>
</defs>
<g id="surface1">
<g clip-path="url(#clip1)" clip-rule="nonzero">
<path style=" stroke:none;fill-rule:nonzero;fill:rgb(0%,0%,100%);fill-opacity:1;" d="M 0.46875 36.511719 L 36.46875 36.511719 L 36.46875 0.511719 L 0.46875 0.511719 Z M 0.46875 36.511719 "/>
</g>
<g clip-path="url(#clip2)" clip-rule="nonzero">
<path style=" stroke:none;fill-rule:nonzero;fill:rgb(0%,0%,100%);fill-opacity:1;" d="M 0.46875 1.054688 L 37.007812 1.054688 L 37.007812 0.03125 L 0.46875 0.03125 Z M 0.46875 1.054688 "/>
</g>
<g clip-path="url(#clip3)" clip-rule="nonzero">
<path style=" stroke:none;fill-rule:nonzero;fill:rgb(0%,0%,100%);fill-opacity:1;" d="M 35.988281 37.054688 L 37.007812 37.054688 L 37.007812 0.511719 L 35.988281 0.511719 Z M 35.988281 37.054688 "/>
</g>
<g clip-path="url(#clip4)" clip-rule="nonzero">
<path style=" stroke:none;fill-rule:nonzero;fill:rgb(0%,0%,100%);fill-opacity:1;" d="M -0.0117188 37.054688 L 36.46875 37.054688 L 36.46875 36.03125 L -0.0117188 36.03125 Z M -0.0117188 37.054688 "/>
</g>
<path style=" stroke:none;fill-rule:nonzero;fill:rgb(0%,0%,100%);fill-opacity:1;" d="M -0.0117188 36.511719 L 1.007812 36.511719 L 1.007812 0.03125 L -0.0117188 0.03125 Z M -0.0117188 36.511719 "/>
<g clip-path="url(#clip5)" clip-rule="nonzero">
<path style=" stroke:none;fill-rule:nonzero;fill:rgb(49.598694%,49.598694%,49.598694%);fill-opacity:1;" d="M 4.128906 32.914062 L 32.929688 32.914062 L 32.929688 4.113281 L 4.128906 4.113281 Z M 4.128906 32.914062 "/>
</g>
<g clip-path="url(#clip6)" clip-rule="nonzero">
<path style=" stroke:none;fill-rule:nonzero;fill:rgb(49.598694%,49.598694%,49.598694%);fill-opacity:1;" d="M 4.128906 4.652344 L 32.929688 4.652344 L 32.929688 4.082031 L 4.128906 4.082031 Z M 4.128906 4.652344 "/>
</g>
<g clip-path="url(#clip7)" clip-rule="nonzero">
<path style=" stroke:none;fill-rule:nonzero;fill:rgb(49.598694%,49.598694%,49.598694%);fill-opacity:1;" d="M 32.449219 32.941406 L 32.929688 32.941406 L 32.929688 4.113281 L 32.449219 4.113281 Z M 32.449219 32.941406 "/>
</g>
<g clip-path="url(#clip8)" clip-rule="nonzero">
<path style=" stroke:none;fill-rule:nonzero;fill:rgb(49.598694%,49.598694%,49.598694%);fill-opacity:1;" d="M 4.070312 32.941406 L 32.929688 32.941406 L 32.929688 32.433594 L 4.070312 32.433594 Z M 4.070312 32.941406 "/>
</g>
<g clip-path="url(#clip9)" clip-rule="nonzero">
<path style=" stroke:none;fill-rule:nonzero;fill:rgb(49.598694%,49.598694%,49.598694%);fill-opacity:1;" d="M 4.070312 32.914062 L 4.667969 32.914062 L 4.667969 4.082031 L 4.070312 4.082031 Z M 4.070312 32.914062 "/>
</g>
<path style=" stroke:none;fill-rule:nonzero;fill:rgb(0%,0%,100%);fill-opacity:1;" d="M 7.730469 29.3125 L 29.328125 29.3125 L 29.328125 7.714844 L 7.730469 7.714844 Z M 7.730469 29.3125 "/>
<path style=" stroke:none;fill-rule:nonzero;fill:rgb(0%,0%,100%);fill-opacity:1;" d="M 7.730469 8.253906 L 29.867188 8.253906 L 29.867188 7.234375 L 7.730469 7.234375 Z M 7.730469 8.253906 "/>
<path style=" stroke:none;fill-rule:nonzero;fill:rgb(0%,0%,100%);fill-opacity:1;" d="M 28.847656 29.851562 L 29.867188 29.851562 L 29.867188 7.714844 L 28.847656 7.714844 Z M 28.847656 29.851562 "/>
<path style=" stroke:none;fill-rule:nonzero;fill:rgb(0%,0%,100%);fill-opacity:1;" d="M 7.25 29.851562 L 29.328125 29.851562 L 29.328125 28.832031 L 7.25 28.832031 Z M 7.25 29.851562 "/>
<path style=" stroke:none;fill-rule:nonzero;fill:rgb(0%,0%,100%);fill-opacity:1;" d="M 7.25 29.3125 L 8.269531 29.3125 L 8.269531 7.234375 L 7.25 7.234375 Z M 7.25 29.3125 "/>
<path style=" stroke:none;fill-rule:nonzero;fill:rgb(100%,100%,100%);fill-opacity:1;" d="M 8.628906 27.691406 L 8.628906 26.972656 L 8.808594 24.992188 L 8.808594 24.871094 L 9.050781 23.671875 L 9.167969 23.011719 L 9.230469 22.894531 L 9.410156 22.351562 L 9.347656 22.414062 L 9.527344 21.8125 L 9.589844 21.753906 L 9.769531 21.214844 L 9.769531 21.152344 L 10.007812 20.554688 L 10.007812 20.492188 L 10.25 20.011719 L 10.25 20.074219 L 10.488281 19.53125 L 10.488281 19.472656 C 11.070312 18.367188 11.9375 17.058594 12.890625 16.234375 L 13.308594 15.8125 C 14.324219 14.882812 15.5625 14.152344 16.910156 13.832031 L 17.027344 13.832031 L 17.507812 13.773438 L 17.808594 15.753906 L 17.75 15.753906 L 17.269531 15.8125 L 17.449219 15.753906 L 16.609375 15.992188 L 16.730469 15.933594 L 16.308594 16.113281 L 16.367188 16.113281 L 15.109375 16.832031 L 15.289062 16.714844 L 14.570312 17.3125 L 14.628906 17.253906 L 13.550781 18.332031 L 13.667969 18.214844 L 13.367188 18.632812 L 13.070312 19.054688 L 13.070312 18.992188 L 12.46875 19.953125 L 12.527344 19.894531 L 12.289062 20.371094 L 12.289062 20.3125 L 12.050781 20.851562 L 12.050781 20.914062 L 11.808594 21.394531 L 11.867188 21.273438 L 11.628906 21.871094 L 11.628906 21.8125 L 11.449219 22.351562 L 11.269531 22.953125 L 11.089844 23.492188 L 11.089844 23.371094 L 10.96875 24.03125 L 10.730469 25.234375 L 10.789062 25.171875 L 10.730469 25.832031 L 10.667969 26.492188 L 10.609375 27.152344 L 10.609375 27.03125 L 10.609375 27.691406 "/>
<path style=" stroke:none;fill-rule:nonzero;fill:rgb(100%,100%,100%);fill-opacity:1;" d="M 17.507812 13.773438 L 17.929688 13.714844 L 18.050781 13.714844 L 18.050781 15.691406 L 18.230469 15.691406 L 17.808594 15.753906 "/>
<path style=" stroke:none;fill-rule:nonzero;fill:rgb(100%,100%,100%);fill-opacity:1;" d="M 18.050781 15.691406 L 18.527344 15.691406 L 18.527344 13.714844 L 18.050781 13.714844 Z M 18.050781 15.691406 "/>
<path style=" stroke:none;fill-rule:nonzero;fill:rgb(100%,100%,100%);fill-opacity:1;" d="M 18.527344 13.714844 L 19.1875 13.714844 L 19.609375 13.773438 L 19.550781 13.773438 L 20.027344 13.832031 L 20.210938 13.832031 C 21.402344 14.085938 22.035156 14.605469 23.089844 15.214844 L 23.808594 15.8125 C 25.128906 17.050781 25.375 17.40625 26.269531 18.933594 L 26.328125 18.992188 L 26.570312 19.472656 L 26.570312 19.414062 L 26.867188 19.953125 L 26.929688 20.074219 L 27.109375 20.554688 L 27.347656 21.152344 L 27.347656 21.214844 L 27.527344 21.753906 L 27.527344 21.8125 L 27.710938 22.414062 L 27.710938 22.351562 L 27.890625 22.894531 C 27.933594 23.746094 28.339844 24.808594 28.367188 25.652344 L 28.429688 26.3125 L 26.449219 26.492188 L 26.390625 25.832031 L 26.328125 25.171875 L 26.328125 25.234375 L 26.089844 24.03125 L 25.96875 23.371094 L 26.027344 23.492188 L 25.847656 22.953125 L 25.789062 22.953125 L 25.609375 22.351562 L 25.667969 22.351562 L 25.488281 21.8125 L 25.488281 21.871094 L 25.25 21.273438 L 25.070312 20.792969 L 25.128906 20.914062 L 24.828125 20.371094 L 24.769531 20.371094 L 24.527344 19.894531 L 24.589844 19.953125 L 23.988281 18.992188 L 24.050781 19.054688 L 23.449219 18.214844 L 23.570312 18.332031 L 22.488281 17.253906 L 22.550781 17.3125 L 21.828125 16.714844 L 21.949219 16.832031 L 20.6875 16.113281 L 20.808594 16.113281 L 20.390625 15.933594 L 20.507812 15.992188 L 19.667969 15.753906 L 19.789062 15.8125 L 19.308594 15.753906 L 18.890625 15.691406 L 19.007812 15.691406 L 18.527344 15.691406 "/>
<path style=" stroke:none;fill-rule:nonzero;fill:rgb(100%,100%,100%);fill-opacity:1;" d="M 28.429688 26.3125 L 28.488281 26.972656 L 28.488281 27.03125 L 26.507812 27.03125 L 26.507812 27.152344 L 26.449219 26.492188 "/>
<path style=" stroke:none;fill-rule:nonzero;fill:rgb(100%,100%,100%);fill-opacity:1;" d="M 26.507812 27.691406 L 28.488281 27.691406 L 28.488281 27.03125 L 26.507812 27.03125 Z M 26.507812 27.691406 "/>
<path style=" stroke:none;fill-rule:evenodd;fill:rgb(100%,100%,100%);fill-opacity:1;" d="M 20.390625 11.253906 L 20.390625 10.894531 L 20.269531 10.53125 C 19.558594 8.871094 17.054688 9.132812 16.667969 10.894531 L 16.667969 11.671875 C 17.175781 13.363281 19.328125 13.761719 20.269531 12.03125 L 20.390625 11.671875 L 20.390625 11.253906 "/>
<path style=" stroke:none;fill-rule:nonzero;fill:rgb(100%,100%,100%);fill-opacity:1;" d="M 19.910156 11.253906 L 19.910156 10.894531 L 19.910156 11.074219 L 19.789062 10.714844 L 19.847656 10.832031 L 19.667969 10.53125 L 19.730469 10.59375 L 19.488281 10.292969 L 19.25 10.054688 L 19.488281 10.171875 L 18.769531 9.933594 L 18.828125 9.992188 L 18.46875 9.933594 L 18.648438 9.933594 L 18.289062 9.992188 L 18.347656 9.933594 L 17.988281 10.054688 L 17.6875 10.171875 L 17.867188 10.113281 L 17.570312 10.351562 L 17.628906 10.292969 L 17.390625 10.59375 L 17.449219 10.53125 L 17.269531 10.832031 L 17.269531 10.714844 L 17.148438 11.074219 L 17.210938 10.894531 L 17.210938 11.671875 L 17.148438 11.554688 L 17.269531 11.914062 L 17.269531 11.792969 L 17.449219 12.09375 L 17.328125 11.972656 L 17.570312 12.214844 L 17.867188 12.453125 L 17.808594 12.394531 L 18.109375 12.574219 L 17.988281 12.511719 L 18.347656 12.632812 L 18.289062 12.632812 L 18.648438 12.691406 L 18.46875 12.691406 L 18.828125 12.632812 L 18.769531 12.632812 L 19.128906 12.511719 L 19.007812 12.574219 L 19.367188 12.394531 L 19.25 12.453125 L 19.730469 11.972656 L 19.667969 12.09375 L 19.847656 11.792969 L 19.789062 11.914062 L 19.910156 11.554688 L 19.910156 11.671875 L 19.910156 11.253906 L 20.929688 11.253906 L 20.929688 11.671875 L 20.867188 11.851562 L 20.75 12.214844 L 20.75 12.332031 L 20.570312 12.632812 L 20.449219 12.691406 L 19.847656 13.292969 L 19.488281 13.472656 L 19.429688 13.472656 L 19.070312 13.59375 L 19.007812 13.652344 L 18.648438 13.714844 L 18.46875 13.714844 L 18.109375 13.652344 L 18.050781 13.59375 L 17.6875 13.472656 L 17.570312 13.472656 L 17.269531 13.292969 L 17.210938 13.234375 L 16.910156 12.992188 L 16.550781 12.632812 L 16.367188 12.332031 L 16.308594 12.214844 L 16.1875 11.851562 L 16.1875 10.773438 C 16.429688 9.902344 17.148438 9.132812 18.050781 8.972656 L 18.109375 8.972656 L 18.46875 8.914062 L 18.648438 8.914062 L 19.007812 8.972656 L 19.070312 8.972656 L 19.789062 9.214844 L 19.96875 9.332031 L 20.269531 9.632812 L 20.507812 9.933594 L 20.570312 9.992188 L 20.75 10.292969 L 20.75 10.414062 L 20.867188 10.773438 L 20.929688 10.894531 L 20.929688 11.253906 "/>
</g>
</svg>
