<?xml version="1.0" encoding="UTF-8"?>
<svg xmlns="http://www.w3.org/2000/svg" xmlns:xlink="http://www.w3.org/1999/xlink" width="37.037pt" height="37.037pt" viewBox="0 0 37.037 37.037" version="1.1">
<defs>
<clipPath id="clip1">
  <path d="M 0 0 L 37.035156 0 L 37.035156 2 L 0 2 Z M 0 0 "/>
</clipPath>
<clipPath id="clip2">
  <path d="M 36 0 L 37.035156 0 L 37.035156 37.035156 L 36 37.035156 Z M 36 0 "/>
</clipPath>
<clipPath id="clip3">
  <path d="M 0 36 L 37 36 L 37 37.035156 L 0 37.035156 Z M 0 36 "/>
</clipPath>
<clipPath id="clip4">
  <path d="M 4.183594 4.125 L 32.984375 4.125 L 32.984375 32.925781 L 4.183594 32.925781 Z M 4.183594 4.125 "/>
</clipPath>
<clipPath id="clip5">
  <path d="M 4.183594 4.125 L 32.984375 4.125 L 32.984375 5 L 4.183594 5 Z M 4.183594 4.125 "/>
</clipPath>
<clipPath id="clip6">
  <path d="M 32 4.125 L 32.984375 4.125 L 32.984375 32.925781 L 32 32.925781 Z M 32 4.125 "/>
</clipPath>
<clipPath id="clip7">
  <path d="M 4.183594 32 L 32.984375 32 L 32.984375 32.925781 L 4.183594 32.925781 Z M 4.183594 32 "/>
</clipPath>
<clipPath id="clip8">
  <path d="M 4.183594 4.125 L 5 4.125 L 5 32.925781 L 4.183594 32.925781 Z M 4.183594 4.125 "/>
</clipPath>
</defs>
<g id="surface1">
<path style=" stroke:none;fill-rule:nonzero;fill:rgb(0%,0%,100%);fill-opacity:1;" d="M 0.523438 36.523438 L 36.523438 36.523438 L 36.523438 0.523438 L 0.523438 0.523438 Z M 0.523438 36.523438 "/>
<g clip-path="url(#clip1)" clip-rule="nonzero">
<path style=" stroke:none;fill-rule:nonzero;fill:rgb(0%,0%,100%);fill-opacity:1;" d="M 0.523438 1.0625 L 37.0625 1.0625 L 37.0625 0.0429688 L 0.523438 0.0429688 Z M 0.523438 1.0625 "/>
</g>
<g clip-path="url(#clip2)" clip-rule="nonzero">
<path style=" stroke:none;fill-rule:nonzero;fill:rgb(0%,0%,100%);fill-opacity:1;" d="M 36.042969 37.0625 L 37.0625 37.0625 L 37.0625 0.523438 L 36.042969 0.523438 Z M 36.042969 37.0625 "/>
</g>
<g clip-path="url(#clip3)" clip-rule="nonzero">
<path style=" stroke:none;fill-rule:nonzero;fill:rgb(0%,0%,100%);fill-opacity:1;" d="M 0.0429688 37.0625 L 36.523438 37.0625 L 36.523438 36.042969 L 0.0429688 36.042969 Z M 0.0429688 37.0625 "/>
</g>
<path style=" stroke:none;fill-rule:nonzero;fill:rgb(0%,0%,100%);fill-opacity:1;" d="M 0.0429688 36.523438 L 1.0625 36.523438 L 1.0625 0.0429688 L 0.0429688 0.0429688 Z M 0.0429688 36.523438 "/>
<g clip-path="url(#clip4)" clip-rule="nonzero">
<path style=" stroke:none;fill-rule:nonzero;fill:rgb(49.598694%,49.598694%,49.598694%);fill-opacity:1;" d="M 4.183594 32.925781 L 32.984375 32.925781 L 32.984375 4.125 L 4.183594 4.125 Z M 4.183594 32.925781 "/>
</g>
<g clip-path="url(#clip5)" clip-rule="nonzero">
<path style=" stroke:none;fill-rule:nonzero;fill:rgb(49.598694%,49.598694%,49.598694%);fill-opacity:1;" d="M 4.183594 4.664062 L 32.984375 4.664062 L 32.984375 4.09375 L 4.183594 4.09375 Z M 4.183594 4.664062 "/>
</g>
<g clip-path="url(#clip6)" clip-rule="nonzero">
<path style=" stroke:none;fill-rule:nonzero;fill:rgb(49.598694%,49.598694%,49.598694%);fill-opacity:1;" d="M 32.503906 32.953125 L 32.984375 32.953125 L 32.984375 4.125 L 32.503906 4.125 Z M 32.503906 32.953125 "/>
</g>
<g clip-path="url(#clip7)" clip-rule="nonzero">
<path style=" stroke:none;fill-rule:nonzero;fill:rgb(49.598694%,49.598694%,49.598694%);fill-opacity:1;" d="M 4.125 32.953125 L 32.984375 32.953125 L 32.984375 32.445312 L 4.125 32.445312 Z M 4.125 32.953125 "/>
</g>
<g clip-path="url(#clip8)" clip-rule="nonzero">
<path style=" stroke:none;fill-rule:nonzero;fill:rgb(49.598694%,49.598694%,49.598694%);fill-opacity:1;" d="M 4.125 32.925781 L 4.722656 32.925781 L 4.722656 4.09375 L 4.125 4.09375 Z M 4.125 32.925781 "/>
</g>
<path style=" stroke:none;fill-rule:nonzero;fill:rgb(0%,0%,100%);fill-opacity:1;" d="M 7.785156 29.324219 L 29.382812 29.324219 L 29.382812 7.722656 L 7.785156 7.722656 Z M 7.785156 29.324219 "/>
<path style=" stroke:none;fill-rule:nonzero;fill:rgb(0%,0%,100%);fill-opacity:1;" d="M 7.785156 8.265625 L 29.925781 8.265625 L 29.925781 7.242188 L 7.785156 7.242188 Z M 7.785156 8.265625 "/>
<path style=" stroke:none;fill-rule:nonzero;fill:rgb(0%,0%,100%);fill-opacity:1;" d="M 28.902344 29.863281 L 29.925781 29.863281 L 29.925781 7.722656 L 28.902344 7.722656 Z M 28.902344 29.863281 "/>
<path style=" stroke:none;fill-rule:nonzero;fill:rgb(0%,0%,100%);fill-opacity:1;" d="M 7.304688 29.863281 L 29.382812 29.863281 L 29.382812 28.84375 L 7.304688 28.84375 Z M 7.304688 29.863281 "/>
<path style=" stroke:none;fill-rule:nonzero;fill:rgb(0%,0%,100%);fill-opacity:1;" d="M 7.304688 29.324219 L 8.324219 29.324219 L 8.324219 7.242188 L 7.304688 7.242188 Z M 7.304688 29.324219 "/>
<path style=" stroke:none;fill-rule:nonzero;fill:rgb(100%,100%,100%);fill-opacity:1;" d="M 12.164062 11.742188 L 18.945312 24.765625 L 18.945312 25.242188 L 18.042969 24.765625 L 24.644531 11.742188 L 25.0625 11.503906 L 25.902344 11.503906 L 25.542969 12.222656 L 18.945312 25.242188 L 18.464844 26.144531 L 18.042969 25.242188 L 11.265625 12.222656 "/>
<path style=" stroke:none;fill-rule:nonzero;fill:rgb(100%,100%,100%);fill-opacity:1;" d="M 25.0625 12.523438 L 11.683594 12.523438 L 11.265625 12.222656 L 10.902344 11.503906 L 25.0625 11.503906 "/>
<path style=" stroke:none;fill-rule:nonzero;fill:rgb(100%,100%,100%);fill-opacity:1;" d="M 15.585938 21.882812 L 15.585938 21.523438 L 15.585938 21.703125 L 15.464844 21.34375 L 15.523438 21.402344 L 15.34375 21.042969 L 15.402344 21.164062 L 15.164062 20.925781 L 15.222656 20.984375 L 14.925781 20.742188 L 14.984375 20.804688 L 14.683594 20.625 L 14.804688 20.625 L 14.445312 20.503906 L 14.5625 20.5625 L 13.84375 20.5625 L 14.023438 20.503906 L 13.664062 20.625 L 13.722656 20.625 L 13.363281 20.804688 L 13.484375 20.683594 L 13.003906 21.164062 L 13.125 21.042969 L 12.945312 21.402344 L 12.945312 21.34375 L 12.824219 21.703125 L 12.882812 21.523438 L 12.882812 22.242188 L 12.824219 22.125 L 12.945312 22.484375 L 12.945312 22.363281 L 13.125 22.664062 L 13.0625 22.605469 L 13.304688 22.902344 L 13.242188 22.84375 L 13.484375 23.085938 L 13.363281 23.023438 L 13.722656 23.203125 L 13.664062 23.144531 L 14.023438 23.265625 L 13.84375 23.265625 L 14.5625 23.265625 L 14.445312 23.265625 L 14.804688 23.144531 L 14.683594 23.203125 L 14.984375 23.023438 L 14.925781 23.085938 L 15.222656 22.84375 L 15.164062 22.902344 L 15.402344 22.605469 L 15.34375 22.664062 L 15.523438 22.363281 L 15.464844 22.484375 L 15.585938 22.125 L 15.585938 22.242188 L 15.585938 21.882812 L 16.605469 21.882812 L 16.605469 22.242188 L 16.542969 22.425781 C 15.980469 24.90625 12.511719 24.90625 11.863281 22.425781 L 11.863281 21.882812 C 11.816406 19.007812 15.972656 18.652344 16.542969 21.402344 L 16.605469 21.523438 L 16.605469 21.882812 "/>
<path style=" stroke:none;fill-rule:nonzero;fill:rgb(100%,100%,100%);fill-opacity:1;" d="M 18.105469 12.464844 L 19.125 12.464844 L 19.125 11.984375 L 18.105469 11.984375 Z M 18.105469 12.464844 "/>
<path style=" stroke:none;fill-rule:nonzero;fill:rgb(100%,100%,100%);fill-opacity:1;" d="M 18.105469 11.984375 L 19.125 11.984375 L 19.125 8.023438 L 18.105469 8.023438 Z M 18.105469 11.984375 "/>
<path style=" stroke:none;fill-rule:nonzero;fill:rgb(100%,100%,100%);fill-opacity:1;" d="M 13.722656 27.703125 L 14.742188 27.703125 L 14.742188 27.222656 L 13.722656 27.222656 Z M 13.722656 27.703125 "/>
<path style=" stroke:none;fill-rule:nonzero;fill:rgb(100%,100%,100%);fill-opacity:1;" d="M 13.722656 27.222656 L 14.742188 27.222656 L 14.742188 23.265625 L 13.722656 23.265625 Z M 13.722656 27.222656 "/>
<path style=" stroke:none;fill-rule:nonzero;fill:rgb(100%,100%,100%);fill-opacity:1;" d="M 17.984375 28.542969 L 19.003906 28.542969 L 19.003906 28.0625 L 17.984375 28.0625 Z M 17.984375 28.542969 "/>
<path style=" stroke:none;fill-rule:nonzero;fill:rgb(100%,100%,100%);fill-opacity:1;" d="M 17.984375 28.0625 L 19.003906 28.0625 L 19.003906 24.402344 L 17.984375 24.402344 Z M 17.984375 28.0625 "/>
</g>
</svg>
