<?xml version="1.0" encoding="UTF-8"?>
<svg xmlns="http://www.w3.org/2000/svg" xmlns:xlink="http://www.w3.org/1999/xlink" width="37.064pt" height="37.064pt" viewBox="0 0 37.064 37.064" version="1.1">
<defs>
<clipPath id="clip1">
  <path d="M 0 0 L 37.0625 0 L 37.0625 2 L 0 2 Z M 0 0 "/>
</clipPath>
<clipPath id="clip2">
  <path d="M 36 0 L 37.0625 0 L 37.0625 37.0625 L 36 37.0625 Z M 36 0 "/>
</clipPath>
<clipPath id="clip3">
  <path d="M 0 36 L 37 36 L 37 37.0625 L 0 37.0625 Z M 0 36 "/>
</clipPath>
<clipPath id="clip4">
  <path d="M 4.109375 4.152344 L 32.910156 4.152344 L 32.910156 32.949219 L 4.109375 32.949219 Z M 4.109375 4.152344 "/>
</clipPath>
<clipPath id="clip5">
  <path d="M 4.109375 4.152344 L 32.910156 4.152344 L 32.910156 5 L 4.109375 5 Z M 4.109375 4.152344 "/>
</clipPath>
<clipPath id="clip6">
  <path d="M 32 4.152344 L 32.910156 4.152344 L 32.910156 32.949219 L 32 32.949219 Z M 32 4.152344 "/>
</clipPath>
<clipPath id="clip7">
  <path d="M 4.109375 32 L 32.910156 32 L 32.910156 32.949219 L 4.109375 32.949219 Z M 4.109375 32 "/>
</clipPath>
<clipPath id="clip8">
  <path d="M 4.109375 4.152344 L 5 4.152344 L 5 32.949219 L 4.109375 32.949219 Z M 4.109375 4.152344 "/>
</clipPath>
</defs>
<g id="surface1">
<path style=" stroke:none;fill-rule:nonzero;fill:rgb(0%,0%,100%);fill-opacity:1;" d="M 0.511719 36.550781 L 36.511719 36.550781 L 36.511719 0.550781 L 0.511719 0.550781 Z M 0.511719 36.550781 "/>
<g clip-path="url(#clip1)" clip-rule="nonzero">
<path style=" stroke:none;fill-rule:nonzero;fill:rgb(0%,0%,100%);fill-opacity:1;" d="M 0.511719 1.089844 L 37.050781 1.089844 L 37.050781 0.0703125 L 0.511719 0.0703125 Z M 0.511719 1.089844 "/>
</g>
<g clip-path="url(#clip2)" clip-rule="nonzero">
<path style=" stroke:none;fill-rule:nonzero;fill:rgb(0%,0%,100%);fill-opacity:1;" d="M 36.03125 37.089844 L 37.050781 37.089844 L 37.050781 0.550781 L 36.03125 0.550781 Z M 36.03125 37.089844 "/>
</g>
<g clip-path="url(#clip3)" clip-rule="nonzero">
<path style=" stroke:none;fill-rule:nonzero;fill:rgb(0%,0%,100%);fill-opacity:1;" d="M 0.03125 37.089844 L 36.511719 37.089844 L 36.511719 36.070312 L 0.03125 36.070312 Z M 0.03125 37.089844 "/>
</g>
<path style=" stroke:none;fill-rule:nonzero;fill:rgb(0%,0%,100%);fill-opacity:1;" d="M 0.03125 36.550781 L 1.050781 36.550781 L 1.050781 0.0703125 L 0.03125 0.0703125 Z M 0.03125 36.550781 "/>
<g clip-path="url(#clip4)" clip-rule="nonzero">
<path style=" stroke:none;fill-rule:nonzero;fill:rgb(49.598694%,49.598694%,49.598694%);fill-opacity:1;" d="M 4.109375 32.949219 L 32.910156 32.949219 L 32.910156 4.152344 L 4.109375 4.152344 Z M 4.109375 32.949219 "/>
</g>
<g clip-path="url(#clip5)" clip-rule="nonzero">
<path style=" stroke:none;fill-rule:nonzero;fill:rgb(49.598694%,49.598694%,49.598694%);fill-opacity:1;" d="M 4.109375 4.691406 L 32.910156 4.691406 L 32.910156 4.121094 L 4.109375 4.121094 Z M 4.109375 4.691406 "/>
</g>
<g clip-path="url(#clip6)" clip-rule="nonzero">
<path style=" stroke:none;fill-rule:nonzero;fill:rgb(49.598694%,49.598694%,49.598694%);fill-opacity:1;" d="M 32.429688 32.980469 L 32.910156 32.980469 L 32.910156 4.152344 L 32.429688 4.152344 Z M 32.429688 32.980469 "/>
</g>
<g clip-path="url(#clip7)" clip-rule="nonzero">
<path style=" stroke:none;fill-rule:nonzero;fill:rgb(49.598694%,49.598694%,49.598694%);fill-opacity:1;" d="M 4.050781 32.980469 L 32.910156 32.980469 L 32.910156 32.472656 L 4.050781 32.472656 Z M 4.050781 32.980469 "/>
</g>
<g clip-path="url(#clip8)" clip-rule="nonzero">
<path style=" stroke:none;fill-rule:nonzero;fill:rgb(49.598694%,49.598694%,49.598694%);fill-opacity:1;" d="M 4.050781 32.949219 L 4.648438 32.949219 L 4.648438 4.121094 L 4.050781 4.121094 Z M 4.050781 32.949219 "/>
</g>
<path style=" stroke:none;fill-rule:nonzero;fill:rgb(0%,0%,100%);fill-opacity:1;" d="M 7.710938 29.351562 L 29.308594 29.351562 L 29.308594 7.75 L 7.710938 7.75 Z M 7.710938 29.351562 "/>
<path style=" stroke:none;fill-rule:nonzero;fill:rgb(0%,0%,100%);fill-opacity:1;" d="M 7.710938 8.289062 L 29.851562 8.289062 L 29.851562 7.269531 L 7.710938 7.269531 Z M 7.710938 8.289062 "/>
<path style=" stroke:none;fill-rule:nonzero;fill:rgb(0%,0%,100%);fill-opacity:1;" d="M 28.828125 29.890625 L 29.851562 29.890625 L 29.851562 7.75 L 28.828125 7.75 Z M 28.828125 29.890625 "/>
<path style=" stroke:none;fill-rule:nonzero;fill:rgb(0%,0%,100%);fill-opacity:1;" d="M 7.230469 29.890625 L 29.308594 29.890625 L 29.308594 28.871094 L 7.230469 28.871094 Z M 7.230469 29.890625 "/>
<path style=" stroke:none;fill-rule:nonzero;fill:rgb(0%,0%,100%);fill-opacity:1;" d="M 7.230469 29.351562 L 8.25 29.351562 L 8.25 7.269531 L 7.230469 7.269531 Z M 7.230469 29.351562 "/>
<path style=" stroke:none;fill-rule:nonzero;fill:rgb(100%,100%,100%);fill-opacity:1;" d="M 8.308594 28.089844 L 7.949219 28.449219 L 8.671875 29.171875 L 9.03125 28.8125 "/>
<path style=" stroke:none;fill-rule:nonzero;fill:rgb(100%,100%,100%);fill-opacity:1;" d="M 27.929688 8.351562 L 28.289062 7.992188 L 29.011719 8.710938 L 28.648438 9.070312 "/>
<path style=" stroke:none;fill-rule:nonzero;fill:rgb(100%,100%,100%);fill-opacity:1;" d="M 8.308594 28.089844 L 9.03125 28.8125 L 28.648438 9.070312 L 27.929688 8.351562 "/>
<path style=" stroke:none;fill-rule:evenodd;fill:rgb(100%,100%,100%);fill-opacity:1;" d="M 16.828125 14.351562 L 16.769531 13.691406 L 16.53125 13.03125 C 15.332031 9.871094 10.535156 10.355469 9.988281 13.691406 L 9.871094 14.351562 L 9.988281 15.070312 C 10.636719 18.351562 15.214844 18.84375 16.53125 15.730469 L 16.769531 15.070312 L 16.828125 14.351562 "/>
<path style=" stroke:none;fill-rule:nonzero;fill:rgb(100%,100%,100%);fill-opacity:1;" d="M 16.710938 14.351562 L 16.648438 13.691406 L 16.648438 13.75 L 16.410156 13.089844 L 16.109375 12.492188 L 16.171875 12.492188 L 15.75 11.949219 L 15.75 12.011719 L 15.269531 11.589844 L 14.671875 11.289062 L 14.730469 11.289062 L 14.070312 11.109375 L 13.351562 10.992188 L 13.410156 10.992188 L 12.75 11.109375 L 12.089844 11.289062 L 11.488281 11.589844 L 10.949219 12.011719 L 11.011719 11.949219 L 10.589844 12.492188 L 10.289062 13.089844 L 10.109375 13.75 L 9.988281 14.410156 L 9.988281 14.351562 L 10.109375 15.070312 L 10.289062 15.730469 L 10.289062 15.671875 L 10.589844 16.210938 L 11.011719 16.75 L 10.949219 16.75 L 11.488281 17.171875 L 11.488281 17.109375 L 12.089844 17.410156 L 12.75 17.652344 L 12.691406 17.652344 L 13.351562 17.710938 L 14.070312 17.652344 L 14.730469 17.410156 L 14.671875 17.410156 L 15.269531 17.109375 L 15.269531 17.171875 L 15.75 16.75 L 16.171875 16.210938 L 16.46875 15.671875 L 16.410156 15.730469 L 16.648438 15.070312 L 16.710938 14.351562 L 16.949219 14.351562 L 16.890625 15.070312 L 16.890625 15.132812 L 16.648438 15.789062 L 16.351562 16.332031 L 15.929688 16.871094 L 15.929688 16.929688 L 15.449219 17.351562 L 15.390625 17.351562 L 14.789062 17.652344 L 14.128906 17.890625 L 14.070312 17.890625 L 13.351562 17.949219 L 12.691406 17.890625 L 12.03125 17.652344 L 11.96875 17.652344 L 11.371094 17.351562 L 10.828125 16.929688 L 10.828125 16.871094 L 10.410156 16.332031 L 10.109375 15.789062 L 10.050781 15.789062 L 9.871094 15.132812 L 9.75 14.410156 L 9.75 14.351562 L 9.871094 13.691406 L 10.050781 13.03125 L 10.050781 12.972656 L 10.351562 12.371094 L 10.410156 12.371094 L 10.828125 11.832031 L 11.371094 11.410156 L 11.371094 11.351562 L 11.96875 11.050781 L 12.03125 11.050781 L 12.691406 10.871094 L 13.351562 10.75 L 13.410156 10.75 L 14.128906 10.871094 L 14.789062 11.050781 L 15.390625 11.351562 L 15.449219 11.410156 L 15.929688 11.832031 L 16.351562 12.371094 L 16.648438 12.972656 L 16.648438 13.03125 L 16.890625 13.691406 L 16.949219 14.351562 "/>
<path style=" stroke:none;fill-rule:evenodd;fill:rgb(100%,100%,100%);fill-opacity:1;" d="M 22.890625 21.429688 L 22.289062 21.070312 C 19.3125 19.964844 17.40625 26.730469 21.808594 27.550781 L 22.890625 27.671875 "/>
<path style=" stroke:none;fill-rule:nonzero;fill:rgb(100%,100%,100%);fill-opacity:1;" d="M 22.828125 21.550781 L 22.890625 21.609375 L 23.011719 21.429688 L 22.949219 21.371094 "/>
<path style=" stroke:none;fill-rule:nonzero;fill:rgb(100%,100%,100%);fill-opacity:1;" d="M 22.828125 21.550781 L 22.230469 21.191406 L 22.289062 21.191406 L 21.691406 21.070312 L 21.148438 21.132812 L 21.210938 21.132812 L 20.671875 21.371094 L 20.730469 21.371094 L 20.308594 21.792969 L 20.308594 21.730469 L 19.890625 22.269531 L 19.648438 22.871094 L 19.410156 23.589844 L 19.410156 23.53125 L 19.351562 24.25 L 19.351562 24.972656 L 19.53125 25.632812 L 19.53125 25.570312 L 19.890625 26.230469 L 20.371094 26.769531 L 20.308594 26.769531 L 21.03125 27.191406 L 21.03125 27.132812 L 20.96875 27.371094 L 20.910156 27.371094 C 18.402344 26.332031 18.664062 22.6875 20.550781 21.191406 L 20.550781 21.132812 L 21.089844 20.890625 L 21.148438 20.890625 L 21.691406 20.832031 L 21.75 20.832031 L 22.351562 20.949219 L 22.351562 21.011719 L 22.949219 21.371094 "/>
<path style=" stroke:none;fill-rule:nonzero;fill:rgb(100%,100%,100%);fill-opacity:1;" d="M 21.03125 27.132812 L 21.871094 27.429688 L 21.808594 27.429688 L 21.808594 27.671875 L 20.96875 27.371094 "/>
<path style=" stroke:none;fill-rule:nonzero;fill:rgb(100%,100%,100%);fill-opacity:1;" d="M 22.890625 27.789062 L 23.011719 27.789062 L 23.011719 27.550781 L 22.890625 27.550781 Z M 22.890625 27.789062 "/>
<path style=" stroke:none;fill-rule:nonzero;fill:rgb(100%,100%,100%);fill-opacity:1;" d="M 21.808594 27.429688 L 21.808594 27.671875 L 22.890625 27.792969 L 22.890625 27.550781 "/>
<path style=" stroke:none;fill-rule:evenodd;fill:rgb(100%,100%,100%);fill-opacity:1;" d="M 22.890625 21.492188 L 23.488281 21.132812 C 26.449219 19.902344 28.320312 26.816406 23.96875 27.492188 L 22.890625 27.609375 "/>
<path style=" stroke:none;fill-rule:nonzero;fill:rgb(100%,100%,100%);fill-opacity:1;" d="M 22.828125 21.429688 L 22.769531 21.492188 L 22.890625 21.671875 L 22.949219 21.609375 "/>
<path style=" stroke:none;fill-rule:nonzero;fill:rgb(100%,100%,100%);fill-opacity:1;" d="M 22.828125 21.429688 L 23.429688 21.070312 L 23.488281 21.011719 L 24.089844 20.832031 L 24.628906 20.890625 L 24.691406 20.949219 L 25.171875 21.25 L 25.648438 21.609375 L 25.710938 21.609375 L 26.070312 22.152344 L 26.371094 22.75 L 26.371094 22.8125 L 26.609375 23.53125 L 26.671875 24.25 L 26.609375 24.972656 L 26.609375 25.03125 L 26.429688 25.691406 L 26.128906 26.351562 L 26.128906 26.410156 L 25.589844 26.949219 L 25.53125 26.949219 L 24.871094 27.371094 L 24.808594 27.132812 L 24.75 27.191406 L 25.410156 26.769531 L 25.949219 26.230469 L 25.890625 26.230469 L 26.191406 25.570312 L 26.191406 25.632812 L 26.371094 24.972656 L 26.429688 24.25 L 26.371094 23.53125 L 26.371094 23.589844 L 26.128906 22.871094 L 25.828125 22.269531 L 25.890625 22.269531 L 25.53125 21.730469 L 25.53125 21.792969 L 25.050781 21.429688 L 24.570312 21.132812 L 24.628906 21.132812 L 24.089844 21.070312 L 24.148438 21.070312 L 23.550781 21.25 L 22.949219 21.609375 "/>
<path style=" stroke:none;fill-rule:nonzero;fill:rgb(100%,100%,100%);fill-opacity:1;" d="M 24.871094 27.371094 L 24.03125 27.609375 L 23.96875 27.609375 L 23.96875 27.371094 L 24.808594 27.132812 "/>
<path style=" stroke:none;fill-rule:nonzero;fill:rgb(100%,100%,100%);fill-opacity:1;" d="M 22.769531 27.730469 L 22.890625 27.730469 L 22.890625 27.492188 L 22.769531 27.492188 Z M 22.769531 27.730469 "/>
<path style=" stroke:none;fill-rule:nonzero;fill:rgb(100%,100%,100%);fill-opacity:1;" d="M 23.96875 27.609375 L 23.96875 27.371094 L 22.890625 27.492188 L 22.890625 27.730469 "/>
<path style=" stroke:none;fill-rule:nonzero;fill:rgb(100%,100%,100%);fill-opacity:1;" d="M 22.410156 22.691406 L 23.429688 22.691406 L 23.429688 22.210938 L 22.410156 22.210938 Z M 22.410156 22.691406 "/>
<path style=" stroke:none;fill-rule:nonzero;fill:rgb(100%,100%,100%);fill-opacity:1;" d="M 22.410156 22.210938 L 23.429688 22.210938 L 23.429688 19.089844 L 22.410156 19.089844 Z M 22.410156 22.210938 "/>
</g>
</svg>
