<?xml version="1.0" encoding="UTF-8"?>
<svg xmlns="http://www.w3.org/2000/svg" xmlns:xlink="http://www.w3.org/1999/xlink" width="37.145pt" height="37.091pt" viewBox="0 0 37.145 37.091" version="1.1">
<defs>
<clipPath id="clip1">
  <path d="M 0 0 L 37.144531 0 L 37.144531 2 L 0 2 Z M 0 0 "/>
</clipPath>
<clipPath id="clip2">
  <path d="M 36 0 L 37.144531 0 L 37.144531 37.089844 L 36 37.089844 Z M 36 0 "/>
</clipPath>
<clipPath id="clip3">
  <path d="M 0 36 L 37 36 L 37 37.089844 L 0 37.089844 Z M 0 36 "/>
</clipPath>
<clipPath id="clip4">
  <path d="M 4.179688 4.125 L 32.976562 4.125 L 32.976562 32.925781 L 4.179688 32.925781 Z M 4.179688 4.125 "/>
</clipPath>
<clipPath id="clip5">
  <path d="M 4.179688 4.125 L 32.976562 4.125 L 32.976562 5 L 4.179688 5 Z M 4.179688 4.125 "/>
</clipPath>
<clipPath id="clip6">
  <path d="M 32 4.125 L 32.976562 4.125 L 32.976562 32.925781 L 32 32.925781 Z M 32 4.125 "/>
</clipPath>
<clipPath id="clip7">
  <path d="M 4.179688 32 L 32.976562 32 L 32.976562 32.925781 L 4.179688 32.925781 Z M 4.179688 32 "/>
</clipPath>
<clipPath id="clip8">
  <path d="M 4.179688 4.125 L 5 4.125 L 5 32.925781 L 4.179688 32.925781 Z M 4.179688 4.125 "/>
</clipPath>
</defs>
<g id="surface1">
<path style=" stroke:none;fill-rule:nonzero;fill:rgb(0%,0%,100%);fill-opacity:1;" d="M 0.578125 36.523438 L 36.578125 36.523438 L 36.578125 0.523438 L 0.578125 0.523438 Z M 0.578125 36.523438 "/>
<g clip-path="url(#clip1)" clip-rule="nonzero">
<path style=" stroke:none;fill-rule:nonzero;fill:rgb(0%,0%,100%);fill-opacity:1;" d="M 0.578125 1.0625 L 37.117188 1.0625 L 37.117188 0.0429688 L 0.578125 0.0429688 Z M 0.578125 1.0625 "/>
</g>
<g clip-path="url(#clip2)" clip-rule="nonzero">
<path style=" stroke:none;fill-rule:nonzero;fill:rgb(0%,0%,100%);fill-opacity:1;" d="M 36.097656 37.0625 L 37.117188 37.0625 L 37.117188 0.523438 L 36.097656 0.523438 Z M 36.097656 37.0625 "/>
</g>
<g clip-path="url(#clip3)" clip-rule="nonzero">
<path style=" stroke:none;fill-rule:nonzero;fill:rgb(0%,0%,100%);fill-opacity:1;" d="M 0.0976562 37.0625 L 36.578125 37.0625 L 36.578125 36.042969 L 0.0976562 36.042969 Z M 0.0976562 37.0625 "/>
</g>
<path style=" stroke:none;fill-rule:nonzero;fill:rgb(0%,0%,100%);fill-opacity:1;" d="M 0.0976562 36.523438 L 1.117188 36.523438 L 1.117188 0.0429688 L 0.0976562 0.0429688 Z M 0.0976562 36.523438 "/>
<g clip-path="url(#clip4)" clip-rule="nonzero">
<path style=" stroke:none;fill-rule:nonzero;fill:rgb(49.598694%,49.598694%,49.598694%);fill-opacity:1;" d="M 4.179688 32.925781 L 32.976562 32.925781 L 32.976562 4.125 L 4.179688 4.125 Z M 4.179688 32.925781 "/>
</g>
<g clip-path="url(#clip5)" clip-rule="nonzero">
<path style=" stroke:none;fill-rule:nonzero;fill:rgb(49.598694%,49.598694%,49.598694%);fill-opacity:1;" d="M 4.179688 4.664062 L 32.976562 4.664062 L 32.976562 4.09375 L 4.179688 4.09375 Z M 4.179688 4.664062 "/>
</g>
<g clip-path="url(#clip6)" clip-rule="nonzero">
<path style=" stroke:none;fill-rule:nonzero;fill:rgb(49.598694%,49.598694%,49.598694%);fill-opacity:1;" d="M 32.496094 32.953125 L 32.976562 32.953125 L 32.976562 4.125 L 32.496094 4.125 Z M 32.496094 32.953125 "/>
</g>
<g clip-path="url(#clip7)" clip-rule="nonzero">
<path style=" stroke:none;fill-rule:nonzero;fill:rgb(49.598694%,49.598694%,49.598694%);fill-opacity:1;" d="M 4.117188 32.953125 L 32.976562 32.953125 L 32.976562 32.445312 L 4.117188 32.445312 Z M 4.117188 32.953125 "/>
</g>
<g clip-path="url(#clip8)" clip-rule="nonzero">
<path style=" stroke:none;fill-rule:nonzero;fill:rgb(49.598694%,49.598694%,49.598694%);fill-opacity:1;" d="M 4.117188 32.925781 L 4.71875 32.925781 L 4.71875 4.09375 L 4.117188 4.09375 Z M 4.117188 32.925781 "/>
</g>
<path style=" stroke:none;fill-rule:nonzero;fill:rgb(0%,0%,100%);fill-opacity:1;" d="M 7.777344 29.324219 L 29.378906 29.324219 L 29.378906 7.722656 L 7.777344 7.722656 Z M 7.777344 29.324219 "/>
<path style=" stroke:none;fill-rule:nonzero;fill:rgb(0%,0%,100%);fill-opacity:1;" d="M 7.777344 8.265625 L 29.917969 8.265625 L 29.917969 7.242188 L 7.777344 7.242188 Z M 7.777344 8.265625 "/>
<path style=" stroke:none;fill-rule:nonzero;fill:rgb(0%,0%,100%);fill-opacity:1;" d="M 28.898438 29.863281 L 29.917969 29.863281 L 29.917969 7.722656 L 28.898438 7.722656 Z M 28.898438 29.863281 "/>
<path style=" stroke:none;fill-rule:nonzero;fill:rgb(0%,0%,100%);fill-opacity:1;" d="M 7.296875 29.863281 L 29.378906 29.863281 L 29.378906 28.84375 L 7.296875 28.84375 Z M 7.296875 29.863281 "/>
<path style=" stroke:none;fill-rule:nonzero;fill:rgb(0%,0%,100%);fill-opacity:1;" d="M 7.296875 29.324219 L 8.316406 29.324219 L 8.316406 7.242188 L 7.296875 7.242188 Z M 7.296875 29.324219 "/>
<path style=" stroke:none;fill-rule:nonzero;fill:rgb(100%,100%,100%);fill-opacity:1;" d="M 9.339844 19.664062 L 10.296875 19.664062 L 10.296875 17.683594 L 9.339844 17.683594 Z M 9.339844 19.664062 "/>
<path style=" stroke:none;fill-rule:nonzero;fill:rgb(100%,100%,100%);fill-opacity:1;" d="M 10.296875 19.664062 L 13.476562 19.664062 L 13.476562 17.683594 L 10.296875 17.683594 Z M 10.296875 19.664062 "/>
<path style=" stroke:none;fill-rule:evenodd;fill:rgb(100%,100%,100%);fill-opacity:1;" d="M 12.519531 18.644531 L 12.578125 17.925781 C 13.023438 16.488281 14.308594 15.699219 15.699219 15.34375 L 16.539062 15.285156 L 16.539062 18.644531 L 12.519531 18.644531 "/>
<path style=" stroke:none;fill-rule:nonzero;fill:rgb(100%,100%,100%);fill-opacity:1;" d="M 11.558594 19.605469 L 13.539062 19.605469 L 13.539062 18.644531 L 11.558594 18.644531 Z M 11.558594 19.605469 "/>
<path style=" stroke:none;fill-rule:nonzero;fill:rgb(100%,100%,100%);fill-opacity:1;" d="M 11.558594 18.644531 L 11.558594 18.164062 L 11.617188 17.804688 L 11.679688 17.5625 L 11.796875 17.265625 L 11.917969 16.964844 L 11.976562 16.84375 L 12.15625 16.542969 L 12.578125 16.125 L 12.398438 16.304688 L 12.578125 16.003906 L 12.816406 15.703125 L 13.117188 15.464844 L 13.359375 15.285156 L 13.539062 15.164062 L 13.898438 14.984375 L 13.839844 15.042969 L 14.136719 14.863281 L 15.398438 14.445312 L 15.699219 14.382812 L 15.699219 16.363281 L 15.996094 16.304688 L 14.917969 16.664062 L 15.15625 16.542969 L 14.859375 16.722656 L 14.796875 16.785156 L 14.4375 16.964844 L 14.558594 16.84375 L 14.316406 17.023438 L 14.378906 17.023438 L 14.078125 17.265625 L 14.257812 17.023438 L 14.078125 17.324219 L 13.957031 17.503906 L 13.71875 17.742188 L 13.839844 17.5625 L 13.65625 17.863281 L 13.777344 17.683594 L 13.65625 17.984375 L 13.539062 18.285156 L 13.597656 18.105469 L 13.539062 18.464844 L 13.539062 18.285156 L 13.539062 18.644531 "/>
<path style=" stroke:none;fill-rule:nonzero;fill:rgb(100%,100%,100%);fill-opacity:1;" d="M 15.699219 14.382812 L 16.117188 14.382812 L 15.996094 14.382812 L 16.296875 16.363281 L 15.699219 16.363281 "/>
<path style=" stroke:none;fill-rule:nonzero;fill:rgb(100%,100%,100%);fill-opacity:1;" d="M 16.417969 14.324219 L 17.378906 14.203125 L 17.679688 16.183594 L 16.71875 16.304688 "/>
<path style=" stroke:none;fill-rule:nonzero;fill:rgb(100%,100%,100%);fill-opacity:1;" d="M 15.996094 14.382812 L 16.296875 16.363281 L 16.71875 16.304688 L 16.417969 14.324219 "/>
<path style=" stroke:none;fill-rule:nonzero;fill:rgb(100%,100%,100%);fill-opacity:1;" d="M 15.578125 15.703125 L 17.558594 15.703125 L 17.558594 14.742188 L 15.578125 14.742188 Z M 15.578125 15.703125 "/>
<path style=" stroke:none;fill-rule:nonzero;fill:rgb(100%,100%,100%);fill-opacity:1;" d="M 15.578125 22.664062 L 17.558594 22.664062 L 17.558594 15.703125 L 15.578125 15.703125 Z M 15.578125 22.664062 "/>
<path style=" stroke:none;fill-rule:evenodd;fill:rgb(100%,100%,100%);fill-opacity:1;" d="M 16.539062 21.945312 L 15.699219 21.882812 C 14.308594 21.53125 13.023438 20.738281 12.578125 19.304688 L 12.519531 18.644531 L 16.539062 18.644531 L 16.539062 21.945312 "/>
<path style=" stroke:none;fill-rule:nonzero;fill:rgb(100%,100%,100%);fill-opacity:1;" d="M 16.417969 22.964844 L 17.378906 23.085938 L 17.679688 21.105469 L 16.71875 20.984375 "/>
<path style=" stroke:none;fill-rule:nonzero;fill:rgb(100%,100%,100%);fill-opacity:1;" d="M 16.417969 22.964844 L 15.996094 22.902344 L 16.117188 22.902344 L 15.699219 22.902344 L 15.398438 22.84375 L 14.316406 22.484375 L 14.136719 22.363281 L 13.839844 22.183594 L 13.898438 22.242188 L 13.539062 22.0625 L 13.359375 21.945312 L 13.117188 21.765625 L 12.816406 21.523438 L 12.578125 21.285156 L 12.398438 20.984375 L 12.578125 21.164062 L 12.339844 20.925781 C 11.953125 20.636719 11.882812 20.085938 11.679688 19.664062 L 11.617188 19.484375 L 13.597656 19.183594 L 13.539062 18.945312 L 13.65625 19.242188 L 13.777344 19.542969 L 13.65625 19.425781 L 13.839844 19.722656 L 13.71875 19.542969 L 13.957031 19.785156 L 14.078125 19.964844 L 14.257812 20.265625 L 14.078125 19.964844 L 14.378906 20.203125 L 14.316406 20.203125 L 14.558594 20.382812 L 14.4375 20.265625 L 14.796875 20.445312 L 14.859375 20.503906 L 15.15625 20.683594 L 14.917969 20.625 L 15.996094 20.984375 L 15.699219 20.925781 L 16.296875 20.925781 L 16.71875 20.984375 "/>
<path style=" stroke:none;fill-rule:nonzero;fill:rgb(100%,100%,100%);fill-opacity:1;" d="M 11.617188 19.484375 L 11.558594 19.125 L 11.558594 18.945312 L 13.539062 18.945312 L 13.539062 18.824219 L 13.597656 19.183594 "/>
<path style=" stroke:none;fill-rule:nonzero;fill:rgb(100%,100%,100%);fill-opacity:1;" d="M 11.558594 18.945312 L 13.539062 18.945312 L 13.539062 17.683594 L 11.558594 17.683594 Z M 11.558594 18.945312 "/>
<path style=" stroke:none;fill-rule:nonzero;fill:rgb(100%,100%,100%);fill-opacity:1;" d="M 26.859375 19.664062 L 27.816406 19.664062 L 27.816406 17.683594 L 26.859375 17.683594 Z M 26.859375 19.664062 "/>
<path style=" stroke:none;fill-rule:nonzero;fill:rgb(100%,100%,100%);fill-opacity:1;" d="M 23.617188 19.664062 L 26.859375 19.664062 L 26.859375 17.683594 L 23.617188 17.683594 Z M 23.617188 19.664062 "/>
<path style=" stroke:none;fill-rule:evenodd;fill:rgb(100%,100%,100%);fill-opacity:1;" d="M 20.558594 15.285156 L 21.398438 15.34375 C 23.039062 15.867188 23.890625 16.195312 24.519531 17.925781 L 24.578125 18.644531 L 20.558594 18.644531 L 20.558594 15.285156 "/>
<path style=" stroke:none;fill-rule:nonzero;fill:rgb(100%,100%,100%);fill-opacity:1;" d="M 20.738281 14.324219 L 19.777344 14.203125 L 19.476562 16.183594 L 20.4375 16.304688 "/>
<path style=" stroke:none;fill-rule:nonzero;fill:rgb(100%,100%,100%);fill-opacity:1;" d="M 20.738281 14.324219 L 21.15625 14.382812 L 20.976562 14.382812 L 21.398438 14.382812 C 23.476562 14.808594 24.65625 15.5625 25.476562 17.5625 L 25.539062 17.804688 L 23.558594 18.105469 L 23.617188 18.285156 L 23.496094 17.984375 L 23.378906 17.683594 L 23.4375 17.863281 L 23.257812 17.5625 L 23.316406 17.625 L 23.136719 17.382812 L 23.136719 17.445312 L 22.898438 17.144531 L 23.019531 17.203125 L 22.777344 16.964844 L 22.957031 17.085938 L 22.359375 16.722656 L 22.417969 16.785156 L 22.058594 16.605469 L 22.179688 16.664062 L 21.097656 16.304688 L 21.398438 16.363281 L 20.859375 16.363281 L 20.4375 16.304688 "/>
<path style=" stroke:none;fill-rule:nonzero;fill:rgb(100%,100%,100%);fill-opacity:1;" d="M 25.539062 17.804688 L 25.597656 18.164062 L 25.597656 18.285156 L 23.617188 18.285156 L 23.617188 18.464844 L 23.558594 18.105469 "/>
<path style=" stroke:none;fill-rule:nonzero;fill:rgb(100%,100%,100%);fill-opacity:1;" d="M 23.617188 19.605469 L 25.597656 19.605469 L 25.597656 18.285156 L 23.617188 18.285156 Z M 23.617188 19.605469 "/>
<path style=" stroke:none;fill-rule:nonzero;fill:rgb(100%,100%,100%);fill-opacity:1;" d="M 19.597656 15.703125 L 21.578125 15.703125 L 21.578125 14.742188 L 19.597656 14.742188 Z M 19.597656 15.703125 "/>
<path style=" stroke:none;fill-rule:nonzero;fill:rgb(100%,100%,100%);fill-opacity:1;" d="M 19.597656 22.664062 L 21.578125 22.664062 L 21.578125 15.703125 L 19.597656 15.703125 Z M 19.597656 22.664062 "/>
<path style=" stroke:none;fill-rule:evenodd;fill:rgb(100%,100%,100%);fill-opacity:1;" d="M 24.578125 18.644531 L 24.519531 19.304688 C 23.890625 21.03125 23.042969 21.363281 21.398438 21.882812 L 20.558594 21.945312 L 20.558594 18.644531 L 24.578125 18.644531 "/>
<path style=" stroke:none;fill-rule:nonzero;fill:rgb(100%,100%,100%);fill-opacity:1;" d="M 23.617188 18.644531 L 25.597656 18.644531 L 25.597656 17.683594 L 23.617188 17.683594 Z M 23.617188 18.644531 "/>
<path style=" stroke:none;fill-rule:nonzero;fill:rgb(100%,100%,100%);fill-opacity:1;" d="M 25.597656 18.644531 L 25.597656 18.945312 C 25.351562 21.078125 23.714844 22.367188 21.699219 22.84375 L 21.398438 22.902344 L 21.398438 20.925781 L 21.097656 20.984375 L 22.179688 20.625 L 22.058594 20.625 L 22.417969 20.445312 L 22.359375 20.503906 L 22.957031 20.144531 L 22.777344 20.324219 L 23.019531 20.085938 L 22.898438 20.144531 L 23.136719 19.84375 L 23.316406 19.605469 L 23.257812 19.722656 L 23.4375 19.425781 L 23.378906 19.542969 L 23.496094 19.242188 L 23.617188 18.945312 L 23.558594 19.183594 L 23.617188 18.824219 L 23.617188 18.945312 L 23.617188 18.644531 "/>
<path style=" stroke:none;fill-rule:nonzero;fill:rgb(100%,100%,100%);fill-opacity:1;" d="M 21.398438 22.902344 L 20.976562 22.902344 L 21.15625 22.902344 L 20.859375 20.925781 L 21.398438 20.925781 "/>
<path style=" stroke:none;fill-rule:nonzero;fill:rgb(100%,100%,100%);fill-opacity:1;" d="M 20.738281 22.964844 L 19.777344 23.085938 L 19.476562 21.105469 L 20.4375 20.984375 "/>
<path style=" stroke:none;fill-rule:nonzero;fill:rgb(100%,100%,100%);fill-opacity:1;" d="M 21.15625 22.902344 L 20.859375 20.925781 L 20.4375 20.984375 L 20.738281 22.964844 "/>
</g>
</svg>
