<?xml version="1.0" encoding="UTF-8" standalone="no"?>
<!-- Created with Inkscape (http://www.inkscape.org/) -->

<svg
   xmlns:dc="http://purl.org/dc/elements/1.1/"
   xmlns:cc="http://creativecommons.org/ns#"
   xmlns:rdf="http://www.w3.org/1999/02/22-rdf-syntax-ns#"
   xmlns:svg="http://www.w3.org/2000/svg"
   xmlns="http://www.w3.org/2000/svg"
   xmlns:sodipodi="http://sodipodi.sourceforge.net/DTD/sodipodi-0.dtd"
   xmlns:inkscape="http://www.inkscape.org/namespaces/inkscape"
   version="1.1"
   id="svg10"
   xml:space="preserve"
   width="52.706669"
   height="53.106667"
   viewBox="0 0 52.706669 53.106667"
   sodipodi:docname="Logo_Ch_4.svg"
   inkscape:version="0.92.1 r15371"><metadata
     id="metadata16"><rdf:RDF><cc:Work
         rdf:about=""><dc:format>image/svg+xml</dc:format><dc:type
           rdf:resource="http://purl.org/dc/dcmitype/StillImage" /><dc:title></dc:title></cc:Work></rdf:RDF></metadata><defs
     id="defs14"><clipPath
       clipPathUnits="userSpaceOnUse"
       id="clipPath28"><path
         d=""
         id="path26"
         inkscape:connector-curvature="0"
         style="clip-rule:evenodd" /></clipPath><clipPath
       clipPathUnits="userSpaceOnUse"
       id="clipPath46"><path
         d="m 50.7383,54.6836 h 288 v 288 h -288 z"
         id="path44"
         inkscape:connector-curvature="0"
         style="clip-rule:evenodd" /></clipPath><clipPath
       clipPathUnits="userSpaceOnUse"
       id="clipPath114"><path
         d=""
         id="path112"
         inkscape:connector-curvature="0"
         style="clip-rule:evenodd" /></clipPath></defs><sodipodi:namedview
     pagecolor="#ffffff"
     bordercolor="#666666"
     borderopacity="1"
     objecttolerance="10"
     gridtolerance="10"
     guidetolerance="10"
     inkscape:pageopacity="0"
     inkscape:pageshadow="2"
     inkscape:window-width="1920"
     inkscape:window-height="1017"
     id="namedview12"
     showgrid="false"
     inkscape:zoom="15.967863"
     inkscape:cx="26.353334"
     inkscape:cy="26.553333"
     inkscape:window-x="-8"
     inkscape:window-y="-8"
     inkscape:window-maximized="1"
     inkscape:current-layer="g18" /><g
     id="g18"
     inkscape:groupmode="layer"
     inkscape:label="ink_ext_XXXXXX"
     transform="matrix(1.3333333,0,0,-1.3333333,0,53.106667)"><g
       id="g20"
       transform="scale(0.1)"><g
         id="g22"><g
           id="g24"
           clip-path="url(#clipPath28)" /></g><path
         d="m 14.7383,18.6836 h 360 v 360 h -360 z"
         style="fill:#394ca8;fill-opacity:1;fill-rule:nonzero;stroke:none"
         id="path30"
         inkscape:connector-curvature="0" /><path
         d="m 14.7383,373.285 h 365.402 v 10.1992 H 14.7383 Z"
         style="fill:#394ca8;fill-opacity:1;fill-rule:nonzero;stroke:none"
         id="path32"
         inkscape:connector-curvature="0" /><path
         d="m 369.938,13.2852 h 10.2031 v 365.398 H 369.938 Z"
         style="fill:#394ca8;fill-opacity:1;fill-rule:nonzero;stroke:none"
         id="path34"
         inkscape:connector-curvature="0" /><path
         d="m 9.94141,13.2852 h 364.797 V 23.4844 H 9.94141 Z"
         style="fill:#394ca8;fill-opacity:1;fill-rule:nonzero;stroke:none"
         id="path36"
         inkscape:connector-curvature="0" /><path
         d="m 9.94141,18.6836 h 10.1992 v 364.801 H 9.94141 Z"
         style="fill:#394ca8;fill-opacity:1;fill-rule:nonzero;stroke:none"
         id="path38"
         inkscape:connector-curvature="0" /><g
         id="g40"><g
           id="g42"
           clip-path="url(#clipPath46)"><path
             d="m 50.7383,54.6836 h 288 v 288 h -288 z"
             style="fill:#908e8f;fill-opacity:1;fill-rule:nonzero;stroke:none"
             id="path48"
             inkscape:connector-curvature="0" /><path
             d="m 50.7383,337.285 h 288 v 5.69922 h -288 z"
             style="fill:#908e8f;fill-opacity:1;fill-rule:nonzero;stroke:none"
             id="path50"
             inkscape:connector-curvature="0" /><path
             d="m 333.941,54.3867 h 4.79688 v 288.297 H 333.941 Z"
             style="fill:#908e8f;fill-opacity:1;fill-rule:nonzero;stroke:none"
             id="path52"
             inkscape:connector-curvature="0" /><path
             d="m 50.1406,54.3867 h 288.598 v 5.09766 H 50.1406 Z"
             style="fill:#908e8f;fill-opacity:1;fill-rule:nonzero;stroke:none"
             id="path54"
             inkscape:connector-curvature="0" /><path
             d="m 50.1406,54.6836 h 6 v 288.301 h -6 z"
             style="fill:#908e8f;fill-opacity:1;fill-rule:nonzero;stroke:none"
             id="path56"
             inkscape:connector-curvature="0" /></g></g><path
         d="m 86.7383,90.6836 h 216 v 216 h -216 z"
         style="fill:#394ca8;fill-opacity:1;fill-rule:nonzero;stroke:none"
         id="path58"
         inkscape:connector-curvature="0" /><path
         d="m 86.7383,301.285 h 221.402 v 10.1992 H 86.7383 Z"
         style="fill:#394ca8;fill-opacity:1;fill-rule:nonzero;stroke:none"
         id="path60"
         inkscape:connector-curvature="0" /><path
         d="m 297.941,85.2852 h 10.1992 v 221.398 H 297.941 Z"
         style="fill:#394ca8;fill-opacity:1;fill-rule:nonzero;stroke:none"
         id="path62"
         inkscape:connector-curvature="0" /><path
         d="m 81.9375,85.2852 h 220.801 V 95.4844 H 81.9375 Z"
         style="fill:#394ca8;fill-opacity:1;fill-rule:nonzero;stroke:none"
         id="path64"
         inkscape:connector-curvature="0" /><path
         d="m 81.9375,90.6836 h 10.2031 v 220.801 H 81.9375 Z"
         style="fill:#394ca8;fill-opacity:1;fill-rule:nonzero;stroke:none"
         id="path66"
         inkscape:connector-curvature="0" /><path
         d="m 92.7383,103.285 -3.5977,-3.6014 7.1992,-7.1992 3.5977,3.6015"
         style="fill:#ffffff;fill-opacity:1;fill-rule:nonzero;stroke:none"
         id="path68"
         inkscape:connector-curvature="0" /><path
         d="m 288.941,300.684 3.598,3.601 7.199,-7.199 -3.597,-3.602"
         style="fill:#ffffff;fill-opacity:1;fill-rule:nonzero;stroke:none"
         id="path70"
         inkscape:connector-curvature="0" /><path
         d="m 92.7383,103.285 7.1992,-7.1991 196.2035,197.3981 -7.2,7.2"
         style="fill:#ffffff;fill-opacity:1;fill-rule:nonzero;stroke:none"
         id="path72"
         inkscape:connector-curvature="0" /><path
         d="m 177.941,240.684 -0.601,6.601 -2.402,6.598 C 162.969,285.465 115,280.652 109.539,247.285 l -1.199,-6.601 1.199,-7.2 c 6.481,-32.82 52.231,-37.718 65.399,-6.597 l 2.402,6.597 0.601,7.2"
         style="fill:#ffffff;fill-opacity:1;fill-rule:evenodd;stroke:none"
         id="path74"
         inkscape:connector-curvature="0" /><path
         d="m 176.738,240.684 -0.597,6.601 v -0.601 l -2.403,6.601 -3,6 h 0.602 l -4.199,5.399 v -0.598 l -4.801,4.199 -6,3 h 0.598 l -6.598,1.801 -7.199,1.199 h 0.597 l -6.597,-1.199 -6.602,-1.801 -6,-3 -5.398,-4.199 0.597,0.598 -4.199,-5.399 -3,-6 -1.801,-6.601 -1.199,-6.598 v 0.598 l 1.199,-7.2 1.801,-6.597 v 0.597 l 3,-5.398 4.199,-5.402 h -0.597 l 5.398,-4.2 v 0.602 l 6,-3 6.602,-2.402 h -0.602 l 6.602,-0.598 7.199,0.598 6.598,2.402 h -0.598 l 6,3 v -0.602 l 4.801,4.2 4.199,5.402 3,5.398 -0.602,-0.597 2.403,6.597 0.597,7.2 h 2.403 l -0.602,-7.2 v -0.601 l -2.398,-6.598 -3,-5.402 -4.203,-5.399 v -0.601 l -4.797,-4.199 h -0.602 l -6,-3 -6.601,-2.399 h -0.598 l -7.199,-0.601 -6.602,0.601 -6.601,2.399 h -0.598 l -6,3 -5.402,4.199 v 0.601 l -4.2,5.399 -3,5.402 h -0.597 l -1.801,6.598 -1.199,7.203 v 0.598 l 1.199,6.601 1.801,6.598 v 0.601 l 3,6 h 0.597 l 4.2,5.399 5.402,4.203 v 0.598 l 6,3 h 0.598 l 6.601,1.8 6.602,1.2 h 0.597 l 7.2,-1.2 6.601,-1.8 6,-3 0.602,-0.598 4.797,-4.203 4.203,-5.399 3,-6 v -0.601 l 2.398,-6.598 0.602,-6.601"
         style="fill:#ffffff;fill-opacity:1;fill-rule:nonzero;stroke:none"
         id="path76"
         inkscape:connector-curvature="0" /><path
         d="m 176.738,240.684 h 2.403"
         style="fill:#ffffff;fill-opacity:1;fill-rule:nonzero;stroke:none"
         id="path78"
         inkscape:connector-curvature="0" /><path
         d="m 238.539,169.883 -6,3.601 c -29.769,11.079 -48.84,-56.601 -4.801,-64.8 l 10.801,-1.2"
         style="fill:#ffffff;fill-opacity:1;fill-rule:evenodd;stroke:none"
         id="path80"
         inkscape:connector-curvature="0" /><path
         d="m 237.941,168.684 0.598,-0.598 1.199,1.797 -0.597,0.601"
         style="fill:#ffffff;fill-opacity:1;fill-rule:nonzero;stroke:none"
         id="path82"
         inkscape:connector-curvature="0" /><path
         d="m 237.941,168.684 -6.003,3.601 h 0.601 l -6,1.199 -5.398,-0.601 h 0.597 l -5.398,-2.399 h 0.598 l -4.2,-4.199 v 0.598 l -4.199,-5.399 -2.398,-6 -2.403,-7.199 v 0.598 l -0.597,-7.199 v -7.2 l 1.797,-6.601 v 0.601 l 3.601,-6.601 4.801,-5.399 h -0.602 l 7.2,-4.199 v 0.598 l -0.598,-2.399 h -0.602 c -25.058,10.399 -22.457,46.821 -3.597,61.801 v 0.598 l 5.398,2.402 h 0.602 l 5.398,0.598 h 0.602 l 6,-1.199 v -0.598 l 6,-3.602"
         style="fill:#ffffff;fill-opacity:1;fill-rule:nonzero;stroke:none"
         id="path84"
         inkscape:connector-curvature="0" /><path
         d="m 219.938,112.887 8.402,-3.004 h -0.602 v -2.399 l -8.398,3"
         style="fill:#ffffff;fill-opacity:1;fill-rule:nonzero;stroke:none"
         id="path86"
         inkscape:connector-curvature="0" /><path
         d="m 238.539,106.285 h 1.19922 v 2.39844 H 238.539 Z"
         style="fill:#ffffff;fill-opacity:1;fill-rule:nonzero;stroke:none"
         id="path88"
         inkscape:connector-curvature="0" /><path
         d="m 227.738,109.883 v -2.399 l 10.801,-1.199 v 2.399"
         style="fill:#ffffff;fill-opacity:1;fill-rule:nonzero;stroke:none"
         id="path90"
         inkscape:connector-curvature="0" /><path
         d="m 238.539,169.285 6,3.598 c 29.602,12.281 48.289,-56.86 4.801,-63.598 l -10.801,-1.199"
         style="fill:#ffffff;fill-opacity:1;fill-rule:evenodd;stroke:none"
         id="path92"
         inkscape:connector-curvature="0" /><path
         d="m 237.941,169.883 -0.601,-0.598 1.199,-1.801 0.602,0.602"
         style="fill:#ffffff;fill-opacity:1;fill-rule:nonzero;stroke:none"
         id="path94"
         inkscape:connector-curvature="0" /><path
         d="m 237.941,169.883 6,3.601 0.598,0.602 6,1.797 5.402,-0.598 0.598,-0.601 4.801,-3 4.801,-3.598 h 0.597 l 3.602,-5.402 3,-6 v -0.598 l 2.398,-7.203 0.602,-7.199 -0.602,-7.2 v -0.601 l -1.797,-6.598 -3,-6.601 v -0.598 l -5.402,-5.402 h -0.601 l -6.598,-4.2 -0.602,2.399 -0.597,-0.598 6.597,4.199 5.403,5.399 h -0.602 l 3,6.601 v -0.601 l 1.801,6.601 0.601,7.2 -0.601,7.199 v -0.598 l -2.399,7.199 -3,6 h 0.598 l -3.601,5.399 v -0.598 l -4.797,3.598 -4.801,3 h 0.601 l -5.402,0.601 h 0.602 l -6,-1.8 -6,-3.598"
         style="fill:#ffffff;fill-opacity:1;fill-rule:nonzero;stroke:none"
         id="path96"
         inkscape:connector-curvature="0" /><path
         d="m 258.34,110.484 -8.402,-2.398 h -0.598 v 2.398 l 8.398,2.399"
         style="fill:#ffffff;fill-opacity:1;fill-rule:nonzero;stroke:none"
         id="path98"
         inkscape:connector-curvature="0" /><path
         d="m 237.34,106.887 h 1.19922 v 2.39844 H 237.34 Z"
         style="fill:#ffffff;fill-opacity:1;fill-rule:nonzero;stroke:none"
         id="path100"
         inkscape:connector-curvature="0" /><path
         d="m 249.34,108.086 v 2.398 l -10.801,-1.199 v -2.402"
         style="fill:#ffffff;fill-opacity:1;fill-rule:nonzero;stroke:none"
         id="path102"
         inkscape:connector-curvature="0" /><path
         d="m 233.738,157.285 h 10.2031 v 4.80078 H 233.738 Z"
         style="fill:#ffffff;fill-opacity:1;fill-rule:nonzero;stroke:none"
         id="path104"
         inkscape:connector-curvature="0" /><path
         d="m 233.738,162.086 h 10.2031 v 31.1992 H 233.738 Z"
         style="fill:#ffffff;fill-opacity:1;fill-rule:nonzero;stroke:none"
         id="path106"
         inkscape:connector-curvature="0" /><g
         id="g108"><g
           id="g110"
           clip-path="url(#clipPath114)" /></g></g></g></svg>